<?xml version="1.0" encoding="utf-8" standalone="no"?>
<!DOCTYPE svg PUBLIC "-//W3C//DTD SVG 1.1//EN"
  "http://www.w3.org/Graphics/SVG/1.1/DTD/svg11.dtd">
<svg xmlns:xlink="http://www.w3.org/1999/xlink" width="396pt" height="360pt" viewBox="0 0 396 360" xmlns="http://www.w3.org/2000/svg" version="1.1">
 <metadata>
  <rdf:RDF xmlns:dc="http://purl.org/dc/elements/1.1/" xmlns:cc="http://creativecommons.org/ns#" xmlns:rdf="http://www.w3.org/1999/02/22-rdf-syntax-ns#">
   <cc:Work>
    <dc:type rdf:resource="http://purl.org/dc/dcmitype/StillImage"/>
    <dc:date>2025-05-04T15:35:17.476182</dc:date>
    <dc:format>image/svg+xml</dc:format>
    <dc:creator>
     <cc:Agent>
      <dc:title>Matplotlib v3.9.2, https://matplotlib.org/</dc:title>
     </cc:Agent>
    </dc:creator>
   </cc:Work>
  </rdf:RDF>
 </metadata>
 <defs>
  <style type="text/css">*{stroke-linejoin: round; stroke-linecap: butt}</style>
 </defs>
 <g id="figure_1">
  <g id="patch_1">
   <path d="M 0 360 
L 396 360 
L 396 0 
L 0 0 
z
" style="fill: #ffffff"/>
  </g>
  <g id="axes_1">
   <g id="patch_2">
    <path d="M 93.148 310.79 
L 375.115 310.79 
L 375.115 5 
L 93.148 5 
z
" style="fill: #ffffff"/>
   </g>
   <g id="matplotlib.axis_1">
    <g id="xtick_1">
     <g id="text_1">
      <text style="fill: #262626; font: 16px 'Arial', 'DejaVu Sans', 'Liberation Sans', 'Bitstream Vera Sans', sans-serif; text-anchor: middle" x="105.964682" y="329.2425" transform="rotate(-0 105.964682 329.2425)">Low RS</text>
     </g>
    </g>
    <g id="xtick_2">
     <g id="text_2">
      <text style="fill: #262626; font: 16px 'Arial', 'DejaVu Sans', 'Liberation Sans', 'Bitstream Vera Sans', sans-serif; text-anchor: middle" x="362.298318" y="329.4375" transform="rotate(-0 362.298318 329.4375)">High RS</text>
     </g>
    </g>
    <g id="text_3">
     <text style="fill: #262626; font: 20px 'Arial', 'DejaVu Sans', 'Liberation Sans', 'Bitstream Vera Sans', sans-serif; text-anchor: middle" x="234.1315" y="351.364375" transform="rotate(-0 234.1315 351.364375)">Reward Sensitivity</text>
    </g>
   </g>
   <g id="matplotlib.axis_2">
    <g id="ytick_1">
     <g id="text_4">
      <text style="fill: #262626; font: 16px 'Arial', 'DejaVu Sans', 'Liberation Sans', 'Bitstream Vera Sans', sans-serif; text-anchor: end" x="86.148" y="295.312935" transform="rotate(-0 86.148 295.312935)">-0.40</text>
     </g>
    </g>
    <g id="ytick_2">
     <g id="text_5">
      <text style="fill: #262626; font: 16px 'Arial', 'DejaVu Sans', 'Liberation Sans', 'Bitstream Vera Sans', sans-serif; text-anchor: end" x="86.148" y="257.189209" transform="rotate(-0 86.148 257.189209)">-0.30</text>
     </g>
    </g>
    <g id="ytick_3">
     <g id="text_6">
      <text style="fill: #262626; font: 16px 'Arial', 'DejaVu Sans', 'Liberation Sans', 'Bitstream Vera Sans', sans-serif; text-anchor: end" x="86.148" y="219.065482" transform="rotate(-0 86.148 219.065482)">-0.20</text>
     </g>
    </g>
    <g id="ytick_4">
     <g id="text_7">
      <text style="fill: #262626; font: 16px 'Arial', 'DejaVu Sans', 'Liberation Sans', 'Bitstream Vera Sans', sans-serif; text-anchor: end" x="86.148" y="180.941756" transform="rotate(-0 86.148 180.941756)">-0.10</text>
     </g>
    </g>
    <g id="ytick_5">
     <g id="text_8">
      <text style="fill: #262626; font: 16px 'Arial', 'DejaVu Sans', 'Liberation Sans', 'Bitstream Vera Sans', sans-serif; text-anchor: end" x="86.148" y="142.81803" transform="rotate(-0 86.148 142.81803)">0.00</text>
     </g>
    </g>
    <g id="ytick_6">
     <g id="text_9">
      <text style="fill: #262626; font: 16px 'Arial', 'DejaVu Sans', 'Liberation Sans', 'Bitstream Vera Sans', sans-serif; text-anchor: end" x="86.148" y="104.694304" transform="rotate(-0 86.148 104.694304)">0.10</text>
     </g>
    </g>
    <g id="ytick_7">
     <g id="text_10">
      <text style="fill: #262626; font: 16px 'Arial', 'DejaVu Sans', 'Liberation Sans', 'Bitstream Vera Sans', sans-serif; text-anchor: end" x="86.148" y="66.570577" transform="rotate(-0 86.148 66.570577)">0.20</text>
     </g>
    </g>
    <g id="ytick_8">
     <g id="text_11">
      <text style="fill: #262626; font: 16px 'Arial', 'DejaVu Sans', 'Liberation Sans', 'Bitstream Vera Sans', sans-serif; text-anchor: end" x="86.148" y="28.446851" transform="rotate(-0 86.148 28.446851)">0.30</text>
     </g>
    </g>
    <g id="text_12">
     <text style="fill: #262626; font: 20px 'Arial', 'DejaVu Sans', 'Liberation Sans', 'Bitstream Vera Sans', sans-serif" transform="translate(19.793 275.9825) rotate(-90)">Predicted DMN-VS (LL&gt;N)</text>
     <text style="fill: #262626; font: 20px 'Arial', 'DejaVu Sans', 'Liberation Sans', 'Bitstream Vera Sans', sans-serif" transform="translate(41.473625 185.671562) rotate(-90)">(zstat)</text>
    </g>
   </g>
   <g id="PathCollection_1">
    <defs>
     <path id="m4100f98441" d="M 0 7.071068 
C 1.875269 7.071068 3.673985 6.326016 5 5 
C 6.326016 3.673985 7.071068 1.875269 7.071068 0 
C 7.071068 -1.875269 6.326016 -3.673985 5 -5 
C 3.673985 -6.326016 1.875269 -7.071068 0 -7.071068 
C -1.875269 -7.071068 -3.673985 -6.326016 -5 -5 
C -6.326016 -3.673985 -7.071068 -1.875269 -7.071068 0 
C -7.071068 1.875269 -6.326016 3.673985 -5 5 
C -3.673985 6.326016 -1.875269 7.071068 0 7.071068 
z
" style="stroke: #000000; stroke-width: 1.5"/>
    </defs>
    <g clip-path="url(#p491560e586)">
     <use xlink:href="#m4100f98441" x="105.964682" y="182.675318" style="fill: #808080; stroke: #000000; stroke-width: 1.5"/>
     <use xlink:href="#m4100f98441" x="362.298318" y="131.686939" style="fill: #808080; stroke: #000000; stroke-width: 1.5"/>
    </g>
   </g>
   <g id="PathCollection_2">
    <defs>
     <path id="m17c47234bc" d="M 0 7.071068 
C 1.875269 7.071068 3.673985 6.326016 5 5 
C 6.326016 3.673985 7.071068 1.875269 7.071068 0 
C 7.071068 -1.875269 6.326016 -3.673985 5 -5 
C 3.673985 -6.326016 1.875269 -7.071068 0 -7.071068 
C -1.875269 -7.071068 -3.673985 -6.326016 -5 -5 
C -6.326016 -3.673985 -7.071068 -1.875269 -7.071068 0 
C -7.071068 1.875269 -6.326016 3.673985 -5 5 
C -3.673985 6.326016 -1.875269 7.071068 0 7.071068 
z
" style="stroke: #000000; stroke-width: 1.5"/>
    </defs>
    <g clip-path="url(#p491560e586)">
     <use xlink:href="#m17c47234bc" x="105.964682" y="79.16573" style="stroke: #000000; stroke-width: 1.5"/>
     <use xlink:href="#m17c47234bc" x="362.298318" y="230.648889" style="stroke: #000000; stroke-width: 1.5"/>
    </g>
   </g>
   <g id="line2d_1">
    <path d="M 105.964682 182.675318 
L 362.298318 131.686939 
" clip-path="url(#p491560e586)" style="fill: none; stroke-dasharray: 18.5,8; stroke-dashoffset: 0; stroke: #808080; stroke-width: 5"/>
   </g>
   <g id="LineCollection_1">
    <path d="M 105.964682 232.763548 
L 105.964682 132.587088 
" clip-path="url(#p491560e586)" style="fill: none; stroke: #808080; stroke-width: 3"/>
    <path d="M 362.298318 191.542644 
L 362.298318 71.831234 
" clip-path="url(#p491560e586)" style="fill: none; stroke: #808080; stroke-width: 3"/>
   </g>
   <g id="line2d_2">
    <defs>
     <path id="m39b8b56c03" d="M 6 0 
L -6 -0 
" style="stroke: #808080; stroke-width: 2"/>
    </defs>
    <g clip-path="url(#p491560e586)">
     <use xlink:href="#m39b8b56c03" x="105.964682" y="232.763548" style="fill: #808080; stroke: #808080; stroke-width: 2"/>
     <use xlink:href="#m39b8b56c03" x="362.298318" y="191.542644" style="fill: #808080; stroke: #808080; stroke-width: 2"/>
    </g>
   </g>
   <g id="line2d_3">
    <g clip-path="url(#p491560e586)">
     <use xlink:href="#m39b8b56c03" x="105.964682" y="132.587088" style="fill: #808080; stroke: #808080; stroke-width: 2"/>
     <use xlink:href="#m39b8b56c03" x="362.298318" y="71.831234" style="fill: #808080; stroke: #808080; stroke-width: 2"/>
    </g>
   </g>
   <g id="line2d_4">
    <path d="M 105.964682 79.16573 
L 362.298318 230.648889 
" clip-path="url(#p491560e586)" style="fill: none; stroke: #000000; stroke-width: 5; stroke-linecap: round"/>
   </g>
   <g id="LineCollection_2">
    <path d="M 105.964682 127.848961 
L 105.964682 30.4825 
" clip-path="url(#p491560e586)" style="fill: none; stroke: #000000; stroke-width: 3"/>
    <path d="M 362.298318 285.3075 
L 362.298318 175.990278 
" clip-path="url(#p491560e586)" style="fill: none; stroke: #000000; stroke-width: 3"/>
   </g>
   <g id="line2d_5">
    <defs>
     <path id="md6b365e580" d="M 6 0 
L -6 -0 
" style="stroke: #000000; stroke-width: 2"/>
    </defs>
    <g clip-path="url(#p491560e586)">
     <use xlink:href="#md6b365e580" x="105.964682" y="127.848961" style="stroke: #000000; stroke-width: 2"/>
     <use xlink:href="#md6b365e580" x="362.298318" y="285.3075" style="stroke: #000000; stroke-width: 2"/>
    </g>
   </g>
   <g id="line2d_6">
    <g clip-path="url(#p491560e586)">
     <use xlink:href="#md6b365e580" x="105.964682" y="30.4825" style="stroke: #000000; stroke-width: 2"/>
     <use xlink:href="#md6b365e580" x="362.298318" y="175.990278" style="stroke: #000000; stroke-width: 2"/>
    </g>
   </g>
   <g id="patch_3">
    <path d="M 93.148 310.79 
L 93.148 5 
" style="fill: none; stroke: #000000; stroke-linejoin: miter; stroke-linecap: square"/>
   </g>
   <g id="patch_4">
    <path d="M 93.148 310.79 
L 375.115 310.79 
" style="fill: none; stroke: #000000; stroke-linejoin: miter; stroke-linecap: square"/>
   </g>
   <g id="text_13">
    <text style="font: 16px 'Arial', 'DejaVu Sans', 'Liberation Sans', 'Bitstream Vera Sans', sans-serif; text-anchor: middle" x="234.1315" y="269.38625" transform="rotate(-0 234.1315 269.38625)">Interaction: p=0.009*</text>
   </g>
   <g id="legend_1">
    <g id="patch_5">
     <path d="M 193.40775 87.714063 
L 274.85525 87.714063 
Q 278.05525 87.714063 278.05525 84.514063 
L 278.05525 16.2 
Q 278.05525 13 274.85525 13 
L 193.40775 13 
Q 190.20775 13 190.20775 16.2 
L 190.20775 84.514063 
Q 190.20775 87.714063 193.40775 87.714063 
z
" style="fill: #ffffff; opacity: 0.8; stroke: #cccccc; stroke-linejoin: miter"/>
    </g>
    <g id="text_14">
     <text style="fill: #262626; font: 18px 'Arial', 'DejaVu Sans', 'Liberation Sans', 'Bitstream Vera Sans', sans-serif; text-anchor: middle" x="234.1315" y="32.284063" transform="rotate(-0 234.1315 32.284063)">LL&gt;N</text>
    </g>
    <g id="line2d_7">
     <path d="M 196.60775 49.714062 
L 212.60775 49.714062 
L 228.60775 49.714062 
" style="fill: none; stroke-dasharray: 18.5,8; stroke-dashoffset: 0; stroke: #808080; stroke-width: 5"/>
    </g>
    <g id="text_15">
     <text style="fill: #262626; font: 16px 'Arial', 'DejaVu Sans', 'Liberation Sans', 'Bitstream Vera Sans', sans-serif; text-anchor: start" x="241.40775" y="55.314062" transform="rotate(-0 241.40775 55.314062)">high</text>
    </g>
    <g id="line2d_8">
     <path d="M 196.60775 72.534062 
L 212.60775 72.534062 
L 228.60775 72.534062 
" style="fill: none; stroke: #000000; stroke-width: 5; stroke-linecap: round"/>
    </g>
    <g id="text_16">
     <text style="fill: #262626; font: 16px 'Arial', 'DejaVu Sans', 'Liberation Sans', 'Bitstream Vera Sans', sans-serif; text-anchor: start" x="241.40775" y="78.134062" transform="rotate(-0 241.40775 78.134062)">low</text>
    </g>
   </g>
  </g>
 </g>
 <defs>
  <clipPath id="p491560e586">
   <rect x="93.148" y="5" width="281.967" height="305.79"/>
  </clipPath>
 </defs>
</svg>
