<?xml version="1.0" encoding="utf-8" standalone="no"?>
<!DOCTYPE svg PUBLIC "-//W3C//DTD SVG 1.1//EN"
  "http://www.w3.org/Graphics/SVG/1.1/DTD/svg11.dtd">
<svg xmlns:xlink="http://www.w3.org/1999/xlink" width="396pt" height="360pt" viewBox="0 0 396 360" xmlns="http://www.w3.org/2000/svg" version="1.1">
 <metadata>
  <rdf:RDF xmlns:dc="http://purl.org/dc/elements/1.1/" xmlns:cc="http://creativecommons.org/ns#" xmlns:rdf="http://www.w3.org/1999/02/22-rdf-syntax-ns#">
   <cc:Work>
    <dc:type rdf:resource="http://purl.org/dc/dcmitype/StillImage"/>
    <dc:date>2025-05-04T15:33:40.037122</dc:date>
    <dc:format>image/svg+xml</dc:format>
    <dc:creator>
     <cc:Agent>
      <dc:title>Matplotlib v3.9.2, https://matplotlib.org/</dc:title>
     </cc:Agent>
    </dc:creator>
   </cc:Work>
  </rdf:RDF>
 </metadata>
 <defs>
  <style type="text/css">*{stroke-linejoin: round; stroke-linecap: butt}</style>
 </defs>
 <g id="figure_1">
  <g id="patch_1">
   <path d="M 0 360 
L 396 360 
L 396 0 
L 0 0 
z
" style="fill: #ffffff"/>
  </g>
  <g id="axes_1">
   <g id="patch_2">
    <path d="M 93.058 310.79 
L 375.115 310.79 
L 375.115 5 
L 93.058 5 
z
" style="fill: #ffffff"/>
   </g>
   <g id="matplotlib.axis_1">
    <g id="xtick_1">
     <g id="text_1">
      <text style="fill: #262626; font: 16px 'Arial', 'DejaVu Sans', 'Liberation Sans', 'Bitstream Vera Sans', sans-serif; text-anchor: middle" x="105.878773" y="329.2425" transform="rotate(-0 105.878773 329.2425)">Low RS</text>
     </g>
    </g>
    <g id="xtick_2">
     <g id="text_2">
      <text style="fill: #262626; font: 16px 'Arial', 'DejaVu Sans', 'Liberation Sans', 'Bitstream Vera Sans', sans-serif; text-anchor: middle" x="362.294227" y="329.4375" transform="rotate(-0 362.294227 329.4375)">High RS</text>
     </g>
    </g>
    <g id="text_3">
     <text style="fill: #262626; font: 20px 'Arial', 'DejaVu Sans', 'Liberation Sans', 'Bitstream Vera Sans', sans-serif; text-anchor: middle" x="234.0865" y="351.364375" transform="rotate(-0 234.0865 351.364375)">Reward Sensitivity</text>
    </g>
   </g>
   <g id="matplotlib.axis_2">
    <g id="ytick_1">
     <g id="text_4">
      <text style="fill: #262626; font: 16px 'Arial', 'DejaVu Sans', 'Liberation Sans', 'Bitstream Vera Sans', sans-serif; text-anchor: end" x="86.058" y="303.077709" transform="rotate(-0 86.058 303.077709)">-0.80</text>
     </g>
    </g>
    <g id="ytick_2">
     <g id="text_5">
      <text style="fill: #262626; font: 16px 'Arial', 'DejaVu Sans', 'Liberation Sans', 'Bitstream Vera Sans', sans-serif; text-anchor: end" x="86.058" y="261.212529" transform="rotate(-0 86.058 261.212529)">-0.60</text>
     </g>
    </g>
    <g id="ytick_3">
     <g id="text_6">
      <text style="fill: #262626; font: 16px 'Arial', 'DejaVu Sans', 'Liberation Sans', 'Bitstream Vera Sans', sans-serif; text-anchor: end" x="86.058" y="219.347348" transform="rotate(-0 86.058 219.347348)">-0.40</text>
     </g>
    </g>
    <g id="ytick_4">
     <g id="text_7">
      <text style="fill: #262626; font: 16px 'Arial', 'DejaVu Sans', 'Liberation Sans', 'Bitstream Vera Sans', sans-serif; text-anchor: end" x="86.058" y="177.482168" transform="rotate(-0 86.058 177.482168)">-0.20</text>
     </g>
    </g>
    <g id="ytick_5">
     <g id="text_8">
      <text style="fill: #262626; font: 16px 'Arial', 'DejaVu Sans', 'Liberation Sans', 'Bitstream Vera Sans', sans-serif; text-anchor: end" x="86.058" y="135.616988" transform="rotate(-0 86.058 135.616988)">0.00</text>
     </g>
    </g>
    <g id="ytick_6">
     <g id="text_9">
      <text style="fill: #262626; font: 16px 'Arial', 'DejaVu Sans', 'Liberation Sans', 'Bitstream Vera Sans', sans-serif; text-anchor: end" x="86.058" y="93.751808" transform="rotate(-0 86.058 93.751808)">0.20</text>
     </g>
    </g>
    <g id="ytick_7">
     <g id="text_10">
      <text style="fill: #262626; font: 16px 'Arial', 'DejaVu Sans', 'Liberation Sans', 'Bitstream Vera Sans', sans-serif; text-anchor: end" x="86.058" y="51.886628" transform="rotate(-0 86.058 51.886628)">0.40</text>
     </g>
    </g>
    <g id="text_11">
     <text style="fill: #262626; font: 20px 'Arial', 'DejaVu Sans', 'Liberation Sans', 'Bitstream Vera Sans', sans-serif" transform="translate(19.703 278.199687) rotate(-90)">Predicted DMN-VS (LG&gt;N)</text>
     <text style="fill: #262626; font: 20px 'Arial', 'DejaVu Sans', 'Liberation Sans', 'Bitstream Vera Sans', sans-serif" transform="translate(41.383625 185.671562) rotate(-90)">(zstat)</text>
    </g>
   </g>
   <g id="PathCollection_1">
    <defs>
     <path id="m82d1374309" d="M 0 7.071068 
C 1.875269 7.071068 3.673985 6.326016 5 5 
C 6.326016 3.673985 7.071068 1.875269 7.071068 0 
C 7.071068 -1.875269 6.326016 -3.673985 5 -5 
C 3.673985 -6.326016 1.875269 -7.071068 0 -7.071068 
C -1.875269 -7.071068 -3.673985 -6.326016 -5 -5 
C -6.326016 -3.673985 -7.071068 -1.875269 -7.071068 0 
C -7.071068 1.875269 -6.326016 3.673985 -5 5 
C -3.673985 6.326016 -1.875269 7.071068 0 7.071068 
z
" style="stroke: #000000; stroke-width: 1.5"/>
    </defs>
    <g clip-path="url(#pe7037fd4ad)">
     <use xlink:href="#m82d1374309" x="105.878773" y="59.892344" style="fill: #808080; stroke: #000000; stroke-width: 1.5"/>
     <use xlink:href="#m82d1374309" x="362.294227" y="151.803049" style="fill: #808080; stroke: #000000; stroke-width: 1.5"/>
    </g>
   </g>
   <g id="PathCollection_2">
    <defs>
     <path id="m1002f07b78" d="M 0 7.071068 
C 1.875269 7.071068 3.673985 6.326016 5 5 
C 6.326016 3.673985 7.071068 1.875269 7.071068 0 
C 7.071068 -1.875269 6.326016 -3.673985 5 -5 
C 3.673985 -6.326016 1.875269 -7.071068 0 -7.071068 
C -1.875269 -7.071068 -3.673985 -6.326016 -5 -5 
C -6.326016 -3.673985 -7.071068 -1.875269 -7.071068 0 
C -7.071068 1.875269 -6.326016 3.673985 -5 5 
C -3.673985 6.326016 -1.875269 7.071068 0 7.071068 
z
" style="stroke: #000000; stroke-width: 1.5"/>
    </defs>
    <g clip-path="url(#pe7037fd4ad)">
     <use xlink:href="#m1002f07b78" x="105.878773" y="239.147732" style="stroke: #000000; stroke-width: 1.5"/>
     <use xlink:href="#m1002f07b78" x="362.294227" y="150.63845" style="stroke: #000000; stroke-width: 1.5"/>
    </g>
   </g>
   <g id="line2d_1">
    <path d="M 105.878773 59.892344 
L 362.294227 151.803049 
" clip-path="url(#pe7037fd4ad)" style="fill: none; stroke-dasharray: 18.5,8; stroke-dashoffset: 0; stroke: #808080; stroke-width: 5"/>
   </g>
   <g id="LineCollection_1">
    <path d="M 105.878773 89.302189 
L 105.878773 30.4825 
" clip-path="url(#pe7037fd4ad)" style="fill: none; stroke: #808080; stroke-width: 3"/>
    <path d="M 362.294227 187.157862 
L 362.294227 116.448237 
" clip-path="url(#pe7037fd4ad)" style="fill: none; stroke: #808080; stroke-width: 3"/>
   </g>
   <g id="line2d_2">
    <defs>
     <path id="mc9ca73db75" d="M 6 0 
L -6 -0 
" style="stroke: #808080; stroke-width: 2"/>
    </defs>
    <g clip-path="url(#pe7037fd4ad)">
     <use xlink:href="#mc9ca73db75" x="105.878773" y="89.302189" style="fill: #808080; stroke: #808080; stroke-width: 2"/>
     <use xlink:href="#mc9ca73db75" x="362.294227" y="187.157862" style="fill: #808080; stroke: #808080; stroke-width: 2"/>
    </g>
   </g>
   <g id="line2d_3">
    <g clip-path="url(#pe7037fd4ad)">
     <use xlink:href="#mc9ca73db75" x="105.878773" y="30.4825" style="fill: #808080; stroke: #808080; stroke-width: 2"/>
     <use xlink:href="#mc9ca73db75" x="362.294227" y="116.448237" style="fill: #808080; stroke: #808080; stroke-width: 2"/>
    </g>
   </g>
   <g id="line2d_4">
    <path d="M 105.878773 239.147732 
L 362.294227 150.63845 
" clip-path="url(#pe7037fd4ad)" style="fill: none; stroke: #000000; stroke-width: 5; stroke-linecap: round"/>
   </g>
   <g id="LineCollection_2">
    <path d="M 105.878773 285.3075 
L 105.878773 192.987965 
" clip-path="url(#pe7037fd4ad)" style="fill: none; stroke: #000000; stroke-width: 3"/>
    <path d="M 362.294227 177.664444 
L 362.294227 123.612456 
" clip-path="url(#pe7037fd4ad)" style="fill: none; stroke: #000000; stroke-width: 3"/>
   </g>
   <g id="line2d_5">
    <defs>
     <path id="me4f8d519e6" d="M 6 0 
L -6 -0 
" style="stroke: #000000; stroke-width: 2"/>
    </defs>
    <g clip-path="url(#pe7037fd4ad)">
     <use xlink:href="#me4f8d519e6" x="105.878773" y="285.3075" style="stroke: #000000; stroke-width: 2"/>
     <use xlink:href="#me4f8d519e6" x="362.294227" y="177.664444" style="stroke: #000000; stroke-width: 2"/>
    </g>
   </g>
   <g id="line2d_6">
    <g clip-path="url(#pe7037fd4ad)">
     <use xlink:href="#me4f8d519e6" x="105.878773" y="192.987965" style="stroke: #000000; stroke-width: 2"/>
     <use xlink:href="#me4f8d519e6" x="362.294227" y="123.612456" style="stroke: #000000; stroke-width: 2"/>
    </g>
   </g>
   <g id="patch_3">
    <path d="M 93.058 310.79 
L 93.058 5 
" style="fill: none; stroke: #000000; stroke-linejoin: miter; stroke-linecap: square"/>
   </g>
   <g id="patch_4">
    <path d="M 93.058 310.79 
L 375.115 310.79 
" style="fill: none; stroke: #000000; stroke-linejoin: miter; stroke-linecap: square"/>
   </g>
   <g id="text_12">
    <text style="font: 16px 'Arial', 'DejaVu Sans', 'Liberation Sans', 'Bitstream Vera Sans', sans-serif; text-anchor: middle" x="234.0865" y="269.38625" transform="rotate(-0 234.0865 269.38625)">Interaction: p=0.008*</text>
   </g>
   <g id="legend_1">
    <g id="patch_5">
     <path d="M 282.4675 87.714063 
L 363.915 87.714063 
Q 367.115 87.714063 367.115 84.514063 
L 367.115 16.2 
Q 367.115 13 363.915 13 
L 282.4675 13 
Q 279.2675 13 279.2675 16.2 
L 279.2675 84.514063 
Q 279.2675 87.714063 282.4675 87.714063 
z
" style="fill: #ffffff; opacity: 0.8; stroke: #cccccc; stroke-linejoin: miter"/>
    </g>
    <g id="text_13">
     <text style="fill: #262626; font: 18px 'Arial', 'DejaVu Sans', 'Liberation Sans', 'Bitstream Vera Sans', sans-serif; text-anchor: middle" x="323.19125" y="32.284063" transform="rotate(-0 323.19125 32.284063)">LG&gt;N</text>
    </g>
    <g id="line2d_7">
     <path d="M 285.6675 49.714062 
L 301.6675 49.714062 
L 317.6675 49.714062 
" style="fill: none; stroke-dasharray: 18.5,8; stroke-dashoffset: 0; stroke: #808080; stroke-width: 5"/>
    </g>
    <g id="text_14">
     <text style="fill: #262626; font: 16px 'Arial', 'DejaVu Sans', 'Liberation Sans', 'Bitstream Vera Sans', sans-serif; text-anchor: start" x="330.4675" y="55.314062" transform="rotate(-0 330.4675 55.314062)">high</text>
    </g>
    <g id="line2d_8">
     <path d="M 285.6675 72.534062 
L 301.6675 72.534062 
L 317.6675 72.534062 
" style="fill: none; stroke: #000000; stroke-width: 5; stroke-linecap: round"/>
    </g>
    <g id="text_15">
     <text style="fill: #262626; font: 16px 'Arial', 'DejaVu Sans', 'Liberation Sans', 'Bitstream Vera Sans', sans-serif; text-anchor: start" x="330.4675" y="78.134062" transform="rotate(-0 330.4675 78.134062)">low</text>
    </g>
   </g>
  </g>
 </g>
 <defs>
  <clipPath id="pe7037fd4ad">
   <rect x="93.058" y="5" width="282.057" height="305.79"/>
  </clipPath>
 </defs>
</svg>
