<?xml version="1.0" encoding="utf-8" standalone="no"?>
<!DOCTYPE svg PUBLIC "-//W3C//DTD SVG 1.1//EN"
  "http://www.w3.org/Graphics/SVG/1.1/DTD/svg11.dtd">
<svg xmlns:xlink="http://www.w3.org/1999/xlink" width="396pt" height="360pt" viewBox="0 0 396 360" xmlns="http://www.w3.org/2000/svg" version="1.1">
 <metadata>
  <rdf:RDF xmlns:dc="http://purl.org/dc/elements/1.1/" xmlns:cc="http://creativecommons.org/ns#" xmlns:rdf="http://www.w3.org/1999/02/22-rdf-syntax-ns#">
   <cc:Work>
    <dc:type rdf:resource="http://purl.org/dc/dcmitype/StillImage"/>
    <dc:date>2025-04-30T18:43:09.091870</dc:date>
    <dc:format>image/svg+xml</dc:format>
    <dc:creator>
     <cc:Agent>
      <dc:title>Matplotlib v3.9.2, https://matplotlib.org/</dc:title>
     </cc:Agent>
    </dc:creator>
   </cc:Work>
  </rdf:RDF>
 </metadata>
 <defs>
  <style type="text/css">*{stroke-linejoin: round; stroke-linecap: butt}</style>
 </defs>
 <g id="figure_1">
  <g id="patch_1">
   <path d="M 0 360 
L 396 360 
L 396 0 
L 0 0 
z
" style="fill: #ffffff"/>
  </g>
  <g id="axes_1">
   <g id="patch_2">
    <path d="M 88.108 310.79 
L 375.115 310.79 
L 375.115 5 
L 88.108 5 
z
" style="fill: #ffffff"/>
   </g>
   <g id="matplotlib.axis_1">
    <g id="xtick_1">
     <g id="text_1">
      <text style="fill: #262626; font: 16px 'Arial', 'DejaVu Sans', 'Liberation Sans', 'Bitstream Vera Sans', sans-serif; text-anchor: middle" x="101.153773" y="329.2425" transform="rotate(-0 101.153773 329.2425)">Low RS</text>
     </g>
    </g>
    <g id="xtick_2">
     <g id="text_2">
      <text style="fill: #262626; font: 16px 'Arial', 'DejaVu Sans', 'Liberation Sans', 'Bitstream Vera Sans', sans-serif; text-anchor: middle" x="362.069227" y="329.4375" transform="rotate(-0 362.069227 329.4375)">High RS</text>
     </g>
    </g>
    <g id="text_3">
     <text style="fill: #262626; font: 20px 'Arial', 'DejaVu Sans', 'Liberation Sans', 'Bitstream Vera Sans', sans-serif; text-anchor: middle" x="231.6115" y="351.364375" transform="rotate(-0 231.6115 351.364375)">Reward Sensitivity</text>
    </g>
   </g>
   <g id="matplotlib.axis_2">
    <g id="ytick_1">
     <g id="text_4">
      <text style="fill: #262626; font: 16px 'Arial', 'DejaVu Sans', 'Liberation Sans', 'Bitstream Vera Sans', sans-serif; text-anchor: end" x="81.108" y="267.900252" transform="rotate(-0 81.108 267.900252)">−0.4</text>
     </g>
    </g>
    <g id="ytick_2">
     <g id="text_5">
      <text style="fill: #262626; font: 16px 'Arial', 'DejaVu Sans', 'Liberation Sans', 'Bitstream Vera Sans', sans-serif; text-anchor: end" x="81.108" y="209.8444" transform="rotate(-0 81.108 209.8444)">−0.2</text>
     </g>
    </g>
    <g id="ytick_3">
     <g id="text_6">
      <text style="fill: #262626; font: 16px 'Arial', 'DejaVu Sans', 'Liberation Sans', 'Bitstream Vera Sans', sans-serif; text-anchor: end" x="81.108" y="151.788548" transform="rotate(-0 81.108 151.788548)">0.0</text>
     </g>
    </g>
    <g id="ytick_4">
     <g id="text_7">
      <text style="fill: #262626; font: 16px 'Arial', 'DejaVu Sans', 'Liberation Sans', 'Bitstream Vera Sans', sans-serif; text-anchor: end" x="81.108" y="93.732696" transform="rotate(-0 81.108 93.732696)">0.2</text>
     </g>
    </g>
    <g id="ytick_5">
     <g id="text_8">
      <text style="fill: #262626; font: 16px 'Arial', 'DejaVu Sans', 'Liberation Sans', 'Bitstream Vera Sans', sans-serif; text-anchor: end" x="81.108" y="35.676844" transform="rotate(-0 81.108 35.676844)">0.4</text>
     </g>
    </g>
    <g id="text_9">
     <text style="fill: #262626; font: 20px 'Arial', 'DejaVu Sans', 'Liberation Sans', 'Bitstream Vera Sans', sans-serif" transform="translate(19.633 290.155937) rotate(-90)">Predicted DMN-VS (Salience)</text>
     <text style="fill: #262626; font: 20px 'Arial', 'DejaVu Sans', 'Liberation Sans', 'Bitstream Vera Sans', sans-serif" transform="translate(41.313625 185.671562) rotate(-90)">(zstat)</text>
    </g>
   </g>
   <g id="PathCollection_1">
    <defs>
     <path id="m2a099a60b5" d="M 0 7.071068 
C 1.875269 7.071068 3.673985 6.326016 5 5 
C 6.326016 3.673985 7.071068 1.875269 7.071068 0 
C 7.071068 -1.875269 6.326016 -3.673985 5 -5 
C 3.673985 -6.326016 1.875269 -7.071068 0 -7.071068 
C -1.875269 -7.071068 -3.673985 -6.326016 -5 -5 
C -6.326016 -3.673985 -7.071068 -1.875269 -7.071068 0 
C -7.071068 1.875269 -6.326016 3.673985 -5 5 
C -3.673985 6.326016 -1.875269 7.071068 0 7.071068 
z
" style="stroke: #000000; stroke-width: 1.5"/>
    </defs>
    <g clip-path="url(#pa50dc98f28)">
     <use xlink:href="#m2a099a60b5" x="101.153773" y="30.4825" style="fill: #808080; stroke: #000000; stroke-width: 1.5"/>
     <use xlink:href="#m2a099a60b5" x="362.069227" y="255.284521" style="fill: #808080; stroke: #000000; stroke-width: 1.5"/>
    </g>
   </g>
   <g id="PathCollection_2">
    <defs>
     <path id="m03813dee72" d="M 0 7.071068 
C 1.875269 7.071068 3.673985 6.326016 5 5 
C 6.326016 3.673985 7.071068 1.875269 7.071068 0 
C 7.071068 -1.875269 6.326016 -3.673985 5 -5 
C 3.673985 -6.326016 1.875269 -7.071068 0 -7.071068 
C -1.875269 -7.071068 -3.673985 -6.326016 -5 -5 
C -6.326016 -3.673985 -7.071068 -1.875269 -7.071068 0 
C -7.071068 1.875269 -6.326016 3.673985 -5 5 
C -3.673985 6.326016 -1.875269 7.071068 0 7.071068 
z
" style="stroke: #000000; stroke-width: 1.5"/>
    </defs>
    <g clip-path="url(#pa50dc98f28)">
     <use xlink:href="#m03813dee72" x="101.153773" y="285.3075" style="stroke: #000000; stroke-width: 1.5"/>
     <use xlink:href="#m03813dee72" x="362.069227" y="201.71675" style="stroke: #000000; stroke-width: 1.5"/>
    </g>
   </g>
   <g id="line2d_1">
    <path d="M 101.153773 30.4825 
L 362.069227 255.284521 
" clip-path="url(#pa50dc98f28)" style="fill: none; stroke-dasharray: 18.5,8; stroke-dashoffset: 0; stroke: #808080; stroke-width: 5"/>
   </g>
   <g id="line2d_2">
    <path d="M 101.153773 285.3075 
L 362.069227 201.71675 
" clip-path="url(#pa50dc98f28)" style="fill: none; stroke: #000000; stroke-width: 5; stroke-linecap: round"/>
   </g>
   <g id="patch_3">
    <path d="M 88.108 310.79 
L 88.108 5 
" style="fill: none; stroke: #808080; stroke-linejoin: miter; stroke-linecap: square"/>
   </g>
   <g id="patch_4">
    <path d="M 88.108 310.79 
L 375.115 310.79 
" style="fill: none; stroke: #808080; stroke-linejoin: miter; stroke-linecap: square"/>
   </g>
   <g id="text_10">
    <text style="font: 16px 'Arial', 'DejaVu Sans', 'Liberation Sans', 'Bitstream Vera Sans', sans-serif; text-anchor: end" x="362.069227" y="282.1275" transform="rotate(-0 362.069227 282.1275)">Interaction: p=0.015*</text>
   </g>
   <g id="legend_1">
    <g id="patch_5">
     <path d="M 272.467812 126.265 
L 363.915 126.265 
Q 367.115 126.265 367.115 123.065 
L 367.115 16.2 
Q 367.115 13 363.915 13 
L 272.467812 13 
Q 269.267812 13 269.267812 16.2 
L 269.267812 123.065 
Q 269.267812 126.265 272.467812 126.265 
z
" style="fill: #ffffff; opacity: 0.8; stroke: #cccccc; stroke-linejoin: miter"/>
    </g>
    <g id="text_11">
     <text style="fill: #262626; font: 18px 'Arial', 'DejaVu Sans', 'Liberation Sans', 'Bitstream Vera Sans', sans-serif" transform="translate(275.667812 32.284063)">Behavioral</text>
     <text style="fill: #262626; font: 18px 'Arial', 'DejaVu Sans', 'Liberation Sans', 'Bitstream Vera Sans', sans-serif" transform="translate(275.667812 51.322437)">Motivation</text>
     <text style="fill: #262626; font: 18px 'Arial', 'DejaVu Sans', 'Liberation Sans', 'Bitstream Vera Sans', sans-serif" transform="translate(275.667812 70.624062)">(HS&gt;LS)</text>
    </g>
    <g id="line2d_3">
     <path d="M 280.667656 88.265 
L 296.667656 88.265 
L 312.667656 88.265 
" style="fill: none; stroke-dasharray: 18.5,8; stroke-dashoffset: 0; stroke: #808080; stroke-width: 5"/>
    </g>
    <g id="text_12">
     <text style="fill: #262626; font: 16px 'Arial', 'DejaVu Sans', 'Liberation Sans', 'Bitstream Vera Sans', sans-serif; text-anchor: start" x="325.467656" y="93.865" transform="rotate(-0 325.467656 93.865)">high</text>
    </g>
    <g id="line2d_4">
     <path d="M 280.667656 111.085 
L 296.667656 111.085 
L 312.667656 111.085 
" style="fill: none; stroke: #000000; stroke-width: 5; stroke-linecap: round"/>
    </g>
    <g id="text_13">
     <text style="fill: #262626; font: 16px 'Arial', 'DejaVu Sans', 'Liberation Sans', 'Bitstream Vera Sans', sans-serif; text-anchor: start" x="325.467656" y="116.685" transform="rotate(-0 325.467656 116.685)">low</text>
    </g>
   </g>
  </g>
 </g>
 <defs>
  <clipPath id="pa50dc98f28">
   <rect x="88.108" y="5" width="287.007" height="305.79"/>
  </clipPath>
 </defs>
</svg>
