<?xml version="1.0" encoding="utf-8" standalone="no"?>
<!DOCTYPE svg PUBLIC "-//W3C//DTD SVG 1.1//EN"
  "http://www.w3.org/Graphics/SVG/1.1/DTD/svg11.dtd">
<svg xmlns:xlink="http://www.w3.org/1999/xlink" width="468pt" height="432pt" viewBox="0 0 468 432" xmlns="http://www.w3.org/2000/svg" version="1.1">
 <metadata>
  <rdf:RDF xmlns:dc="http://purl.org/dc/elements/1.1/" xmlns:cc="http://creativecommons.org/ns#" xmlns:rdf="http://www.w3.org/1999/02/22-rdf-syntax-ns#">
   <cc:Work>
    <dc:type rdf:resource="http://purl.org/dc/dcmitype/StillImage"/>
    <dc:date>2025-04-30T17:44:16.908860</dc:date>
    <dc:format>image/svg+xml</dc:format>
    <dc:creator>
     <cc:Agent>
      <dc:title>Matplotlib v3.9.2, https://matplotlib.org/</dc:title>
     </cc:Agent>
    </dc:creator>
   </cc:Work>
  </rdf:RDF>
 </metadata>
 <defs>
  <style type="text/css">*{stroke-linejoin: round; stroke-linecap: butt}</style>
 </defs>
 <g id="figure_1">
  <g id="patch_1">
   <path d="M 0 432 
L 468 432 
L 468 0 
L 0 0 
z
" style="fill: #ffffff"/>
  </g>
  <g id="axes_1">
   <g id="patch_2">
    <path d="M 76.7225 384.9325 
L 451.411364 384.9325 
L 451.411364 10.8 
L 76.7225 10.8 
z
" style="fill: #ffffff"/>
   </g>
   <g id="matplotlib.axis_1">
    <g id="xtick_1">
     <g id="text_1">
      <text style="fill: #262626; font: 12px 'Arial', 'DejaVu Sans', 'Liberation Sans', 'Bitstream Vera Sans', sans-serif; text-anchor: middle" x="93.753812" y="400.521875" transform="rotate(-0 93.753812 400.521875)">Low RS</text>
     </g>
    </g>
    <g id="xtick_2">
     <g id="text_2">
      <text style="fill: #262626; font: 12px 'Arial', 'DejaVu Sans', 'Liberation Sans', 'Bitstream Vera Sans', sans-serif; text-anchor: middle" x="434.380052" y="400.668125" transform="rotate(-0 434.380052 400.668125)">High RS</text>
     </g>
    </g>
    <g id="text_3">
     <text style="fill: #262626; font: 16px 'Arial', 'DejaVu Sans', 'Liberation Sans', 'Bitstream Vera Sans', sans-serif; text-anchor: middle" x="264.066932" y="418.84125" transform="rotate(-0 264.066932 418.84125)">Reward Sensitivity</text>
    </g>
   </g>
   <g id="matplotlib.axis_2">
    <g id="ytick_1">
     <g id="text_4">
      <text style="fill: #262626; font: 12px 'Arial', 'DejaVu Sans', 'Liberation Sans', 'Bitstream Vera Sans', sans-serif; text-anchor: end" x="69.7225" y="341.344383" transform="rotate(-0 69.7225 341.344383)">−0.4</text>
     </g>
    </g>
    <g id="ytick_2">
     <g id="text_5">
      <text style="fill: #262626; font: 12px 'Arial', 'DejaVu Sans', 'Liberation Sans', 'Bitstream Vera Sans', sans-serif; text-anchor: end" x="69.7225" y="263.855978" transform="rotate(-0 69.7225 263.855978)">−0.2</text>
     </g>
    </g>
    <g id="ytick_3">
     <g id="text_6">
      <text style="fill: #262626; font: 12px 'Arial', 'DejaVu Sans', 'Liberation Sans', 'Bitstream Vera Sans', sans-serif; text-anchor: end" x="69.7225" y="186.367573" transform="rotate(-0 69.7225 186.367573)">0.0</text>
     </g>
    </g>
    <g id="ytick_4">
     <g id="text_7">
      <text style="fill: #262626; font: 12px 'Arial', 'DejaVu Sans', 'Liberation Sans', 'Bitstream Vera Sans', sans-serif; text-anchor: end" x="69.7225" y="108.879168" transform="rotate(-0 69.7225 108.879168)">0.2</text>
     </g>
    </g>
    <g id="ytick_5">
     <g id="text_8">
      <text style="fill: #262626; font: 12px 'Arial', 'DejaVu Sans', 'Liberation Sans', 'Bitstream Vera Sans', sans-serif; text-anchor: end" x="69.7225" y="31.390763" transform="rotate(-0 69.7225 31.390763)">0.4</text>
     </g>
    </g>
    <g id="text_9">
     <text style="fill: #262626; font: 16px 'Arial', 'DejaVu Sans', 'Liberation Sans', 'Bitstream Vera Sans', sans-serif" transform="translate(21.32175 303.675) rotate(-90)">Predicted DMN-VS (Salience)</text>
     <text style="fill: #262626; font: 16px 'Arial', 'DejaVu Sans', 'Liberation Sans', 'Bitstream Vera Sans', sans-serif" transform="translate(38.66625 220.0875) rotate(-90)">(zstat)</text>
    </g>
   </g>
   <g id="PathCollection_1">
    <defs>
     <path id="m1d9826f121" d="M 0 5 
C 1.326016 5 2.597899 4.473168 3.535534 3.535534 
C 4.473168 2.597899 5 1.326016 5 0 
C 5 -1.326016 4.473168 -2.597899 3.535534 -3.535534 
C 2.597899 -4.473168 1.326016 -5 0 -5 
C -1.326016 -5 -2.597899 -4.473168 -3.535534 -3.535534 
C -4.473168 -2.597899 -5 -1.326016 -5 0 
C -5 1.326016 -4.473168 2.597899 -3.535534 3.535534 
C -2.597899 4.473168 -1.326016 5 0 5 
z
" style="stroke: #000000"/>
    </defs>
    <g clip-path="url(#p3f232ada5a)">
     <use xlink:href="#m1d9826f121" x="93.753812" y="27.806023" style="fill: #808080; stroke: #000000"/>
     <use xlink:href="#m1d9826f121" x="434.380052" y="327.854156" style="fill: #808080; stroke: #000000"/>
    </g>
   </g>
   <g id="PathCollection_2">
    <defs>
     <path id="m04d3764bca" d="M 0 5 
C 1.326016 5 2.597899 4.473168 3.535534 3.535534 
C 4.473168 2.597899 5 1.326016 5 0 
C 5 -1.326016 4.473168 -2.597899 3.535534 -3.535534 
C 2.597899 -4.473168 1.326016 -5 0 -5 
C -1.326016 -5 -2.597899 -4.473168 -3.535534 -3.535534 
C -4.473168 -2.597899 -5 -1.326016 -5 0 
C -5 1.326016 -4.473168 2.597899 -3.535534 3.535534 
C -2.597899 4.473168 -1.326016 5 0 5 
z
" style="stroke: #000000"/>
    </defs>
    <g clip-path="url(#p3f232ada5a)">
     <use xlink:href="#m04d3764bca" x="93.753812" y="367.926477" style="stroke: #000000"/>
     <use xlink:href="#m04d3764bca" x="434.380052" y="256.35609" style="stroke: #000000"/>
    </g>
   </g>
   <g id="line2d_1">
    <path d="M 93.753812 27.806023 
L 434.380052 327.854156 
" clip-path="url(#p3f232ada5a)" style="fill: none; stroke-dasharray: 11.1,4.8; stroke-dashoffset: 0; stroke: #808080; stroke-width: 3"/>
   </g>
   <g id="line2d_2">
    <path d="M 93.753812 367.926477 
L 434.380052 256.35609 
" clip-path="url(#p3f232ada5a)" style="fill: none; stroke: #000000; stroke-width: 3; stroke-linecap: round"/>
   </g>
   <g id="patch_3">
    <path d="M 76.7225 384.9325 
L 76.7225 10.8 
" style="fill: none; stroke: #808080; stroke-linejoin: miter; stroke-linecap: square"/>
   </g>
   <g id="patch_4">
    <path d="M 76.7225 384.9325 
L 451.411364 384.9325 
" style="fill: none; stroke: #808080; stroke-linejoin: miter; stroke-linecap: square"/>
   </g>
   <g id="legend_1">
    <g id="patch_5">
     <path d="M 372.063551 103.276875 
L 443.011364 103.276875 
Q 445.411364 103.276875 445.411364 100.876875 
L 445.411364 19.2 
Q 445.411364 16.8 443.011364 16.8 
L 372.063551 16.8 
Q 369.663551 16.8 369.663551 19.2 
L 369.663551 100.876875 
Q 369.663551 103.276875 372.063551 103.276875 
z
" style="fill: #ffffff; opacity: 0.8; stroke: #cccccc; stroke-linejoin: miter"/>
    </g>
    <g id="text_10">
     <text style="fill: #262626; font: 14px 'Arial', 'DejaVu Sans', 'Liberation Sans', 'Bitstream Vera Sans', sans-serif" transform="translate(374.463551 31.620938)">Behavioral</text>
     <text style="fill: #262626; font: 14px 'Arial', 'DejaVu Sans', 'Liberation Sans', 'Bitstream Vera Sans', sans-serif" transform="translate(374.463551 46.428562)">Motivation</text>
     <text style="fill: #262626; font: 14px 'Arial', 'DejaVu Sans', 'Liberation Sans', 'Bitstream Vera Sans', sans-serif" transform="translate(374.463551 61.440938)">(HS&gt;LS)</text>
    </g>
    <g id="line2d_3">
     <path d="M 379.394645 74.776875 
L 391.394645 74.776875 
L 403.394645 74.776875 
" style="fill: none; stroke-dasharray: 11.1,4.8; stroke-dashoffset: 0; stroke: #808080; stroke-width: 3"/>
    </g>
    <g id="text_11">
     <text style="fill: #262626; font: 12px 'Arial', 'DejaVu Sans', 'Liberation Sans', 'Bitstream Vera Sans', sans-serif; text-anchor: start" x="412.994645" y="78.976875" transform="rotate(-0 412.994645 78.976875)">high</text>
    </g>
    <g id="line2d_4">
     <path d="M 379.394645 91.891875 
L 391.394645 91.891875 
L 403.394645 91.891875 
" style="fill: none; stroke: #000000; stroke-width: 3; stroke-linecap: round"/>
    </g>
    <g id="text_12">
     <text style="fill: #262626; font: 12px 'Arial', 'DejaVu Sans', 'Liberation Sans', 'Bitstream Vera Sans', sans-serif; text-anchor: start" x="412.994645" y="96.091875" transform="rotate(-0 412.994645 96.091875)">low</text>
    </g>
   </g>
  </g>
 </g>
 <defs>
  <clipPath id="p3f232ada5a">
   <rect x="76.7225" y="10.8" width="374.688864" height="374.1325"/>
  </clipPath>
 </defs>
</svg>
