<?xml version="1.0" encoding="utf-8" standalone="no"?>
<!DOCTYPE svg PUBLIC "-//W3C//DTD SVG 1.1//EN"
  "http://www.w3.org/Graphics/SVG/1.1/DTD/svg11.dtd">
<svg xmlns:xlink="http://www.w3.org/1999/xlink" width="396pt" height="360pt" viewBox="0 0 396 360" xmlns="http://www.w3.org/2000/svg" version="1.1">
 <metadata>
  <rdf:RDF xmlns:dc="http://purl.org/dc/elements/1.1/" xmlns:cc="http://creativecommons.org/ns#" xmlns:rdf="http://www.w3.org/1999/02/22-rdf-syntax-ns#">
   <cc:Work>
    <dc:type rdf:resource="http://purl.org/dc/dcmitype/StillImage"/>
    <dc:date>2025-05-04T15:23:18.060814</dc:date>
    <dc:format>image/svg+xml</dc:format>
    <dc:creator>
     <cc:Agent>
      <dc:title>Matplotlib v3.9.2, https://matplotlib.org/</dc:title>
     </cc:Agent>
    </dc:creator>
   </cc:Work>
  </rdf:RDF>
 </metadata>
 <defs>
  <style type="text/css">*{stroke-linejoin: round; stroke-linecap: butt}</style>
 </defs>
 <g id="figure_1">
  <g id="patch_1">
   <path d="M 0 360 
L 396 360 
L 396 0 
L 0 0 
z
" style="fill: #ffffff"/>
  </g>
  <g id="axes_1">
   <g id="patch_2">
    <path d="M 92.95 310.79 
L 375.115 310.79 
L 375.115 5 
L 92.95 5 
z
" style="fill: #ffffff"/>
   </g>
   <g id="matplotlib.axis_1">
    <g id="xtick_1">
     <g id="text_1">
      <text style="fill: #262626; font: 16px 'Arial', 'DejaVu Sans', 'Liberation Sans', 'Bitstream Vera Sans', sans-serif; text-anchor: middle" x="105.775682" y="329.2425" transform="rotate(-0 105.775682 329.2425)">Low RS</text>
     </g>
    </g>
    <g id="xtick_2">
     <g id="text_2">
      <text style="fill: #262626; font: 16px 'Arial', 'DejaVu Sans', 'Liberation Sans', 'Bitstream Vera Sans', sans-serif; text-anchor: middle" x="362.289318" y="329.4375" transform="rotate(-0 362.289318 329.4375)">High RS</text>
     </g>
    </g>
    <g id="text_3">
     <text style="fill: #262626; font: 20px 'Arial', 'DejaVu Sans', 'Liberation Sans', 'Bitstream Vera Sans', sans-serif; text-anchor: middle" x="234.0325" y="351.364375" transform="rotate(-0 234.0325 351.364375)">Reward Sensitivity</text>
    </g>
   </g>
   <g id="matplotlib.axis_2">
    <g id="ytick_1">
     <g id="text_4">
      <text style="fill: #262626; font: 16px 'Arial', 'DejaVu Sans', 'Liberation Sans', 'Bitstream Vera Sans', sans-serif; text-anchor: end" x="85.95" y="285.988196" transform="rotate(-0 85.95 285.988196)">-0.01</text>
     </g>
    </g>
    <g id="ytick_2">
     <g id="text_5">
      <text style="fill: #262626; font: 16px 'Arial', 'DejaVu Sans', 'Liberation Sans', 'Bitstream Vera Sans', sans-serif; text-anchor: end" x="85.95" y="224.644963" transform="rotate(-0 85.95 224.644963)">-0.01</text>
     </g>
    </g>
    <g id="ytick_3">
     <g id="text_6">
      <text style="fill: #262626; font: 16px 'Arial', 'DejaVu Sans', 'Liberation Sans', 'Bitstream Vera Sans', sans-serif; text-anchor: end" x="85.95" y="163.30173" transform="rotate(-0 85.95 163.30173)">-0.01</text>
     </g>
    </g>
    <g id="ytick_4">
     <g id="text_7">
      <text style="fill: #262626; font: 16px 'Arial', 'DejaVu Sans', 'Liberation Sans', 'Bitstream Vera Sans', sans-serif; text-anchor: end" x="85.95" y="101.958497" transform="rotate(-0 85.95 101.958497)">0.00</text>
     </g>
    </g>
    <g id="ytick_5">
     <g id="text_8">
      <text style="fill: #262626; font: 16px 'Arial', 'DejaVu Sans', 'Liberation Sans', 'Bitstream Vera Sans', sans-serif; text-anchor: end" x="85.95" y="40.615263" transform="rotate(-0 85.95 40.615263)">0.01</text>
     </g>
    </g>
    <g id="text_9">
     <text style="fill: #262626; font: 20px 'Arial', 'DejaVu Sans', 'Liberation Sans', 'Bitstream Vera Sans', sans-serif" transform="translate(19.829375 253.495) rotate(-90)">Behavioral Motivation</text>
     <text style="fill: #262626; font: 20px 'Arial', 'DejaVu Sans', 'Liberation Sans', 'Bitstream Vera Sans', sans-serif" transform="translate(41.275625 196.518437) rotate(-90)">(HS&gt;LS)</text>
    </g>
   </g>
   <g id="PathCollection_1">
    <defs>
     <path id="mcbe8bcaed4" d="M 0 7.071068 
C 1.875269 7.071068 3.673985 6.326016 5 5 
C 6.326016 3.673985 7.071068 1.875269 7.071068 0 
C 7.071068 -1.875269 6.326016 -3.673985 5 -5 
C 3.673985 -6.326016 1.875269 -7.071068 0 -7.071068 
C -1.875269 -7.071068 -3.673985 -6.326016 -5 -5 
C -6.326016 -3.673985 -7.071068 -1.875269 -7.071068 0 
C -7.071068 1.875269 -6.326016 3.673985 -5 5 
C -3.673985 6.326016 -1.875269 7.071068 0 7.071068 
z
" style="stroke: #000000; stroke-width: 1.5"/>
    </defs>
    <g clip-path="url(#pd85695c39e)">
     <use xlink:href="#mcbe8bcaed4" x="105.775682" y="214.391711" style="fill: #808080; stroke: #000000; stroke-width: 1.5"/>
     <use xlink:href="#mcbe8bcaed4" x="362.289318" y="133.177455" style="fill: #808080; stroke: #000000; stroke-width: 1.5"/>
    </g>
   </g>
   <g id="PathCollection_2">
    <defs>
     <path id="mc7d6e78d89" d="M 0 7.071068 
C 1.875269 7.071068 3.673985 6.326016 5 5 
C 6.326016 3.673985 7.071068 1.875269 7.071068 0 
C 7.071068 -1.875269 6.326016 -3.673985 5 -5 
C 3.673985 -6.326016 1.875269 -7.071068 0 -7.071068 
C -1.875269 -7.071068 -3.673985 -6.326016 -5 -5 
C -6.326016 -3.673985 -7.071068 -1.875269 -7.071068 0 
C -7.071068 1.875269 -6.326016 3.673985 -5 5 
C -3.673985 6.326016 -1.875269 7.071068 0 7.071068 
z
" style="stroke: #000000; stroke-width: 1.5"/>
    </defs>
    <g clip-path="url(#pd85695c39e)">
     <use xlink:href="#mc7d6e78d89" x="105.775682" y="98.519581" style="stroke: #000000; stroke-width: 1.5"/>
     <use xlink:href="#mc7d6e78d89" x="362.289318" y="210.142497" style="stroke: #000000; stroke-width: 1.5"/>
    </g>
   </g>
   <g id="line2d_1">
    <path d="M 105.775682 214.391711 
L 362.289318 133.177455 
" clip-path="url(#pd85695c39e)" style="fill: none; stroke: #808080; stroke-width: 5; stroke-linecap: round"/>
   </g>
   <g id="LineCollection_1">
    <path d="M 105.775682 285.3075 
L 105.775682 143.475923 
" clip-path="url(#pd85695c39e)" style="fill: none; stroke: #808080; stroke-width: 3"/>
    <path d="M 362.289318 195.63222 
L 362.289318 70.722689 
" clip-path="url(#pd85695c39e)" style="fill: none; stroke: #808080; stroke-width: 3"/>
   </g>
   <g id="line2d_2">
    <defs>
     <path id="m87d0c16ac8" d="M 6 0 
L -6 -0 
" style="stroke: #808080; stroke-width: 2"/>
    </defs>
    <g clip-path="url(#pd85695c39e)">
     <use xlink:href="#m87d0c16ac8" x="105.775682" y="285.3075" style="fill: #808080; stroke: #808080; stroke-width: 2"/>
     <use xlink:href="#m87d0c16ac8" x="362.289318" y="195.63222" style="fill: #808080; stroke: #808080; stroke-width: 2"/>
    </g>
   </g>
   <g id="line2d_3">
    <g clip-path="url(#pd85695c39e)">
     <use xlink:href="#m87d0c16ac8" x="105.775682" y="143.475923" style="fill: #808080; stroke: #808080; stroke-width: 2"/>
     <use xlink:href="#m87d0c16ac8" x="362.289318" y="70.722689" style="fill: #808080; stroke: #808080; stroke-width: 2"/>
    </g>
   </g>
   <g id="line2d_4">
    <path d="M 105.775682 98.519581 
L 362.289318 210.142497 
" clip-path="url(#pd85695c39e)" style="fill: none; stroke: #000000; stroke-width: 5; stroke-linecap: round"/>
   </g>
   <g id="LineCollection_2">
    <path d="M 105.775682 166.556663 
L 105.775682 30.4825 
" clip-path="url(#pd85695c39e)" style="fill: none; stroke: #000000; stroke-width: 3"/>
    <path d="M 362.289318 284.687255 
L 362.289318 135.597739 
" clip-path="url(#pd85695c39e)" style="fill: none; stroke: #000000; stroke-width: 3"/>
   </g>
   <g id="line2d_5">
    <defs>
     <path id="meb31c006fa" d="M 6 0 
L -6 -0 
" style="stroke: #000000; stroke-width: 2"/>
    </defs>
    <g clip-path="url(#pd85695c39e)">
     <use xlink:href="#meb31c006fa" x="105.775682" y="166.556663" style="stroke: #000000; stroke-width: 2"/>
     <use xlink:href="#meb31c006fa" x="362.289318" y="284.687255" style="stroke: #000000; stroke-width: 2"/>
    </g>
   </g>
   <g id="line2d_6">
    <g clip-path="url(#pd85695c39e)">
     <use xlink:href="#meb31c006fa" x="105.775682" y="30.4825" style="stroke: #000000; stroke-width: 2"/>
     <use xlink:href="#meb31c006fa" x="362.289318" y="135.597739" style="stroke: #000000; stroke-width: 2"/>
    </g>
   </g>
   <g id="patch_3">
    <path d="M 92.95 310.79 
L 92.95 5 
" style="fill: none; stroke: #000000; stroke-width: 0.8; stroke-linejoin: miter; stroke-linecap: square"/>
   </g>
   <g id="patch_4">
    <path d="M 92.95 310.79 
L 375.115 310.79 
" style="fill: none; stroke: #000000; stroke-width: 0.8; stroke-linejoin: miter; stroke-linecap: square"/>
   </g>
   <g id="text_10">
    <text style="font: 16px 'Arial', 'DejaVu Sans', 'Liberation Sans', 'Bitstream Vera Sans', sans-serif; text-anchor: end" x="362.289318" y="282.1275" transform="rotate(-0 362.289318 282.1275)">Interaction: p=0.008*</text>
   </g>
   <g id="legend_1">
    <g id="patch_5">
     <path d="M 193.30875 87.714063 
L 274.75625 87.714063 
Q 277.95625 87.714063 277.95625 84.514063 
L 277.95625 16.2 
Q 277.95625 13 274.75625 13 
L 193.30875 13 
Q 190.10875 13 190.10875 16.2 
L 190.10875 84.514063 
Q 190.10875 87.714063 193.30875 87.714063 
z
" style="fill: #ffffff; opacity: 0.8; stroke: #cccccc; stroke-linejoin: miter"/>
    </g>
    <g id="text_11">
     <text style="fill: #262626; font: 18px 'Arial', 'DejaVu Sans', 'Liberation Sans', 'Bitstream Vera Sans', sans-serif; text-anchor: start" x="205.520781" y="32.284063" transform="rotate(-0 205.520781 32.284063)">TEPSa</text>
    </g>
    <g id="line2d_7">
     <path d="M 196.50875 49.714062 
L 212.50875 49.714062 
L 228.50875 49.714062 
" style="fill: none; stroke: #808080; stroke-width: 5; stroke-linecap: round"/>
    </g>
    <g id="text_12">
     <text style="fill: #262626; font: 16px 'Arial', 'DejaVu Sans', 'Liberation Sans', 'Bitstream Vera Sans', sans-serif; text-anchor: start" x="241.30875" y="55.314062" transform="rotate(-0 241.30875 55.314062)">high</text>
    </g>
    <g id="line2d_8">
     <path d="M 196.50875 72.534062 
L 212.50875 72.534062 
L 228.50875 72.534062 
" style="fill: none; stroke: #000000; stroke-width: 5; stroke-linecap: round"/>
    </g>
    <g id="text_13">
     <text style="fill: #262626; font: 16px 'Arial', 'DejaVu Sans', 'Liberation Sans', 'Bitstream Vera Sans', sans-serif; text-anchor: start" x="241.30875" y="78.134062" transform="rotate(-0 241.30875 78.134062)">low</text>
    </g>
   </g>
  </g>
 </g>
 <defs>
  <clipPath id="pd85695c39e">
   <rect x="92.95" y="5" width="282.165" height="305.79"/>
  </clipPath>
 </defs>
</svg>
