<?xml version="1.0" encoding="utf-8" standalone="no"?>
<!DOCTYPE svg PUBLIC "-//W3C//DTD SVG 1.1//EN"
  "http://www.w3.org/Graphics/SVG/1.1/DTD/svg11.dtd">
<svg xmlns:xlink="http://www.w3.org/1999/xlink" width="432pt" height="360pt" viewBox="0 0 432 360" xmlns="http://www.w3.org/2000/svg" version="1.1">
 <metadata>
  <rdf:RDF xmlns:dc="http://purl.org/dc/elements/1.1/" xmlns:cc="http://creativecommons.org/ns#" xmlns:rdf="http://www.w3.org/1999/02/22-rdf-syntax-ns#">
   <cc:Work>
    <dc:type rdf:resource="http://purl.org/dc/dcmitype/StillImage"/>
    <dc:date>2025-05-15T13:07:34.812821</dc:date>
    <dc:format>image/svg+xml</dc:format>
    <dc:creator>
     <cc:Agent>
      <dc:title>Matplotlib v3.9.2, https://matplotlib.org/</dc:title>
     </cc:Agent>
    </dc:creator>
   </cc:Work>
  </rdf:RDF>
 </metadata>
 <defs>
  <style type="text/css">*{stroke-linejoin: round; stroke-linecap: butt}</style>
 </defs>
 <g id="figure_1">
  <g id="patch_1">
   <path d="M 0 360 
L 432 360 
L 432 0 
L 0 0 
z
" style="fill: #ffffff"/>
  </g>
  <g id="axes_1">
   <g id="patch_2">
    <path d="M 80.534 310.7725 
L 421.2 310.7725 
L 421.2 28.3875 
L 80.534 28.3875 
z
" style="fill: #ffffff"/>
   </g>
   <g id="matplotlib.axis_1">
    <g id="xtick_1">
     <g id="text_1">
      <!-- −0.03 -->
      <g style="fill: #262626" transform="translate(114.414114 327.793437) scale(0.14 -0.14)">
       <defs>
        <path id="ArialMT-2212" d="M 3381 1997 
L 356 1997 
L 356 2522 
L 3381 2522 
L 3381 1997 
z
" transform="scale(0.015625)"/>
        <path id="ArialMT-30" d="M 266 2259 
Q 266 3072 433 3567 
Q 600 4063 929 4331 
Q 1259 4600 1759 4600 
Q 2128 4600 2406 4451 
Q 2684 4303 2865 4023 
Q 3047 3744 3150 3342 
Q 3253 2941 3253 2259 
Q 3253 1453 3087 958 
Q 2922 463 2592 192 
Q 2263 -78 1759 -78 
Q 1097 -78 719 397 
Q 266 969 266 2259 
z
M 844 2259 
Q 844 1131 1108 757 
Q 1372 384 1759 384 
Q 2147 384 2411 759 
Q 2675 1134 2675 2259 
Q 2675 3391 2411 3762 
Q 2147 4134 1753 4134 
Q 1366 4134 1134 3806 
Q 844 3388 844 2259 
z
" transform="scale(0.015625)"/>
        <path id="ArialMT-2e" d="M 581 0 
L 581 641 
L 1222 641 
L 1222 0 
L 581 0 
z
" transform="scale(0.015625)"/>
        <path id="ArialMT-33" d="M 269 1209 
L 831 1284 
Q 928 806 1161 595 
Q 1394 384 1728 384 
Q 2125 384 2398 659 
Q 2672 934 2672 1341 
Q 2672 1728 2419 1979 
Q 2166 2231 1775 2231 
Q 1616 2231 1378 2169 
L 1441 2663 
Q 1497 2656 1531 2656 
Q 1891 2656 2178 2843 
Q 2466 3031 2466 3422 
Q 2466 3731 2256 3934 
Q 2047 4138 1716 4138 
Q 1388 4138 1169 3931 
Q 950 3725 888 3313 
L 325 3413 
Q 428 3978 793 4289 
Q 1159 4600 1703 4600 
Q 2078 4600 2393 4439 
Q 2709 4278 2876 4000 
Q 3044 3722 3044 3409 
Q 3044 3113 2884 2869 
Q 2725 2625 2413 2481 
Q 2819 2388 3044 2092 
Q 3269 1797 3269 1353 
Q 3269 753 2831 336 
Q 2394 -81 1725 -81 
Q 1122 -81 723 278 
Q 325 638 269 1209 
z
" transform="scale(0.015625)"/>
       </defs>
       <use xlink:href="#ArialMT-2212"/>
       <use xlink:href="#ArialMT-30" x="58.398438"/>
       <use xlink:href="#ArialMT-2e" x="114.013672"/>
       <use xlink:href="#ArialMT-30" x="141.796875"/>
       <use xlink:href="#ArialMT-33" x="197.412109"/>
      </g>
     </g>
    </g>
    <g id="xtick_2">
     <g id="text_2">
      <!-- −0.02 -->
      <g style="fill: #262626" transform="translate(176.872576 327.793437) scale(0.14 -0.14)">
       <defs>
        <path id="ArialMT-32" d="M 3222 541 
L 3222 0 
L 194 0 
Q 188 203 259 391 
Q 375 700 629 1000 
Q 884 1300 1366 1694 
Q 2113 2306 2375 2664 
Q 2638 3022 2638 3341 
Q 2638 3675 2398 3904 
Q 2159 4134 1775 4134 
Q 1369 4134 1125 3890 
Q 881 3647 878 3216 
L 300 3275 
Q 359 3922 746 4261 
Q 1134 4600 1788 4600 
Q 2447 4600 2831 4234 
Q 3216 3869 3216 3328 
Q 3216 3053 3103 2787 
Q 2991 2522 2730 2228 
Q 2469 1934 1863 1422 
Q 1356 997 1212 845 
Q 1069 694 975 541 
L 3222 541 
z
" transform="scale(0.015625)"/>
       </defs>
       <use xlink:href="#ArialMT-2212"/>
       <use xlink:href="#ArialMT-30" x="58.398438"/>
       <use xlink:href="#ArialMT-2e" x="114.013672"/>
       <use xlink:href="#ArialMT-30" x="141.796875"/>
       <use xlink:href="#ArialMT-32" x="197.412109"/>
      </g>
     </g>
    </g>
    <g id="xtick_3">
     <g id="text_3">
      <!-- −0.01 -->
      <g style="fill: #262626" transform="translate(239.331039 327.793437) scale(0.14 -0.14)">
       <defs>
        <path id="ArialMT-31" d="M 2384 0 
L 1822 0 
L 1822 3584 
Q 1619 3391 1289 3197 
Q 959 3003 697 2906 
L 697 3450 
Q 1169 3672 1522 3987 
Q 1875 4303 2022 4600 
L 2384 4600 
L 2384 0 
z
" transform="scale(0.015625)"/>
       </defs>
       <use xlink:href="#ArialMT-2212"/>
       <use xlink:href="#ArialMT-30" x="58.398438"/>
       <use xlink:href="#ArialMT-2e" x="114.013672"/>
       <use xlink:href="#ArialMT-30" x="141.796875"/>
       <use xlink:href="#ArialMT-31" x="197.412109"/>
      </g>
     </g>
    </g>
    <g id="xtick_4">
     <g id="text_4">
      <!-- 0.00 -->
      <g style="fill: #262626" transform="translate(305.877939 327.793437) scale(0.14 -0.14)">
       <use xlink:href="#ArialMT-30"/>
       <use xlink:href="#ArialMT-2e" x="55.615234"/>
       <use xlink:href="#ArialMT-30" x="83.398438"/>
       <use xlink:href="#ArialMT-30" x="139.013672"/>
      </g>
     </g>
    </g>
    <g id="xtick_5">
     <g id="text_5">
      <!-- 0.01 -->
      <g style="fill: #262626" transform="translate(368.336401 327.793437) scale(0.14 -0.14)">
       <use xlink:href="#ArialMT-30"/>
       <use xlink:href="#ArialMT-2e" x="55.615234"/>
       <use xlink:href="#ArialMT-30" x="83.398438"/>
       <use xlink:href="#ArialMT-31" x="139.013672"/>
      </g>
     </g>
    </g>
    <g id="text_6">
     <!-- Behavioral Motivation (V_beta) -->
     <g style="fill: #262626" transform="translate(141.48325 346.223437) scale(0.16 -0.16)">
      <defs>
       <path id="ArialMT-42" d="M 469 0 
L 469 4581 
L 2188 4581 
Q 2713 4581 3030 4442 
Q 3347 4303 3526 4014 
Q 3706 3725 3706 3409 
Q 3706 3116 3547 2856 
Q 3388 2597 3066 2438 
Q 3481 2316 3704 2022 
Q 3928 1728 3928 1328 
Q 3928 1006 3792 729 
Q 3656 453 3456 303 
Q 3256 153 2954 76 
Q 2653 0 2216 0 
L 469 0 
z
M 1075 2656 
L 2066 2656 
Q 2469 2656 2644 2709 
Q 2875 2778 2992 2937 
Q 3109 3097 3109 3338 
Q 3109 3566 3000 3739 
Q 2891 3913 2687 3977 
Q 2484 4041 1991 4041 
L 1075 4041 
L 1075 2656 
z
M 1075 541 
L 2216 541 
Q 2509 541 2628 563 
Q 2838 600 2978 687 
Q 3119 775 3209 942 
Q 3300 1109 3300 1328 
Q 3300 1584 3169 1773 
Q 3038 1963 2805 2039 
Q 2572 2116 2134 2116 
L 1075 2116 
L 1075 541 
z
" transform="scale(0.015625)"/>
       <path id="ArialMT-65" d="M 2694 1069 
L 3275 997 
Q 3138 488 2766 206 
Q 2394 -75 1816 -75 
Q 1088 -75 661 373 
Q 234 822 234 1631 
Q 234 2469 665 2931 
Q 1097 3394 1784 3394 
Q 2450 3394 2872 2941 
Q 3294 2488 3294 1666 
Q 3294 1616 3291 1516 
L 816 1516 
Q 847 969 1125 678 
Q 1403 388 1819 388 
Q 2128 388 2347 550 
Q 2566 713 2694 1069 
z
M 847 1978 
L 2700 1978 
Q 2663 2397 2488 2606 
Q 2219 2931 1791 2931 
Q 1403 2931 1139 2672 
Q 875 2413 847 1978 
z
" transform="scale(0.015625)"/>
       <path id="ArialMT-68" d="M 422 0 
L 422 4581 
L 984 4581 
L 984 2938 
Q 1378 3394 1978 3394 
Q 2347 3394 2619 3248 
Q 2891 3103 3008 2847 
Q 3125 2591 3125 2103 
L 3125 0 
L 2563 0 
L 2563 2103 
Q 2563 2525 2380 2717 
Q 2197 2909 1863 2909 
Q 1613 2909 1392 2779 
Q 1172 2650 1078 2428 
Q 984 2206 984 1816 
L 984 0 
L 422 0 
z
" transform="scale(0.015625)"/>
       <path id="ArialMT-61" d="M 2588 409 
Q 2275 144 1986 34 
Q 1697 -75 1366 -75 
Q 819 -75 525 192 
Q 231 459 231 875 
Q 231 1119 342 1320 
Q 453 1522 633 1644 
Q 813 1766 1038 1828 
Q 1203 1872 1538 1913 
Q 2219 1994 2541 2106 
Q 2544 2222 2544 2253 
Q 2544 2597 2384 2738 
Q 2169 2928 1744 2928 
Q 1347 2928 1158 2789 
Q 969 2650 878 2297 
L 328 2372 
Q 403 2725 575 2942 
Q 747 3159 1072 3276 
Q 1397 3394 1825 3394 
Q 2250 3394 2515 3294 
Q 2781 3194 2906 3042 
Q 3031 2891 3081 2659 
Q 3109 2516 3109 2141 
L 3109 1391 
Q 3109 606 3145 398 
Q 3181 191 3288 0 
L 2700 0 
Q 2613 175 2588 409 
z
M 2541 1666 
Q 2234 1541 1622 1453 
Q 1275 1403 1131 1340 
Q 988 1278 909 1158 
Q 831 1038 831 891 
Q 831 666 1001 516 
Q 1172 366 1500 366 
Q 1825 366 2078 508 
Q 2331 650 2450 897 
Q 2541 1088 2541 1459 
L 2541 1666 
z
" transform="scale(0.015625)"/>
       <path id="ArialMT-76" d="M 1344 0 
L 81 3319 
L 675 3319 
L 1388 1331 
Q 1503 1009 1600 663 
Q 1675 925 1809 1294 
L 2547 3319 
L 3125 3319 
L 1869 0 
L 1344 0 
z
" transform="scale(0.015625)"/>
       <path id="ArialMT-69" d="M 425 3934 
L 425 4581 
L 988 4581 
L 988 3934 
L 425 3934 
z
M 425 0 
L 425 3319 
L 988 3319 
L 988 0 
L 425 0 
z
" transform="scale(0.015625)"/>
       <path id="ArialMT-6f" d="M 213 1659 
Q 213 2581 725 3025 
Q 1153 3394 1769 3394 
Q 2453 3394 2887 2945 
Q 3322 2497 3322 1706 
Q 3322 1066 3130 698 
Q 2938 331 2570 128 
Q 2203 -75 1769 -75 
Q 1072 -75 642 372 
Q 213 819 213 1659 
z
M 791 1659 
Q 791 1022 1069 705 
Q 1347 388 1769 388 
Q 2188 388 2466 706 
Q 2744 1025 2744 1678 
Q 2744 2294 2464 2611 
Q 2184 2928 1769 2928 
Q 1347 2928 1069 2612 
Q 791 2297 791 1659 
z
" transform="scale(0.015625)"/>
       <path id="ArialMT-72" d="M 416 0 
L 416 3319 
L 922 3319 
L 922 2816 
Q 1116 3169 1280 3281 
Q 1444 3394 1641 3394 
Q 1925 3394 2219 3213 
L 2025 2691 
Q 1819 2813 1613 2813 
Q 1428 2813 1281 2702 
Q 1134 2591 1072 2394 
Q 978 2094 978 1738 
L 978 0 
L 416 0 
z
" transform="scale(0.015625)"/>
       <path id="ArialMT-6c" d="M 409 0 
L 409 4581 
L 972 4581 
L 972 0 
L 409 0 
z
" transform="scale(0.015625)"/>
       <path id="ArialMT-20" transform="scale(0.015625)"/>
       <path id="ArialMT-4d" d="M 475 0 
L 475 4581 
L 1388 4581 
L 2472 1338 
Q 2622 884 2691 659 
Q 2769 909 2934 1394 
L 4031 4581 
L 4847 4581 
L 4847 0 
L 4263 0 
L 4263 3834 
L 2931 0 
L 2384 0 
L 1059 3900 
L 1059 0 
L 475 0 
z
" transform="scale(0.015625)"/>
       <path id="ArialMT-74" d="M 1650 503 
L 1731 6 
Q 1494 -44 1306 -44 
Q 1000 -44 831 53 
Q 663 150 594 308 
Q 525 466 525 972 
L 525 2881 
L 113 2881 
L 113 3319 
L 525 3319 
L 525 4141 
L 1084 4478 
L 1084 3319 
L 1650 3319 
L 1650 2881 
L 1084 2881 
L 1084 941 
Q 1084 700 1114 631 
Q 1144 563 1211 522 
Q 1278 481 1403 481 
Q 1497 481 1650 503 
z
" transform="scale(0.015625)"/>
       <path id="ArialMT-6e" d="M 422 0 
L 422 3319 
L 928 3319 
L 928 2847 
Q 1294 3394 1984 3394 
Q 2284 3394 2536 3286 
Q 2788 3178 2913 3003 
Q 3038 2828 3088 2588 
Q 3119 2431 3119 2041 
L 3119 0 
L 2556 0 
L 2556 2019 
Q 2556 2363 2490 2533 
Q 2425 2703 2258 2804 
Q 2091 2906 1866 2906 
Q 1506 2906 1245 2678 
Q 984 2450 984 1813 
L 984 0 
L 422 0 
z
" transform="scale(0.015625)"/>
       <path id="ArialMT-28" d="M 1497 -1347 
Q 1031 -759 709 28 
Q 388 816 388 1659 
Q 388 2403 628 3084 
Q 909 3875 1497 4659 
L 1900 4659 
Q 1522 4009 1400 3731 
Q 1209 3300 1100 2831 
Q 966 2247 966 1656 
Q 966 153 1900 -1347 
L 1497 -1347 
z
" transform="scale(0.015625)"/>
       <path id="ArialMT-56" d="M 1803 0 
L 28 4581 
L 684 4581 
L 1875 1253 
Q 2019 853 2116 503 
Q 2222 878 2363 1253 
L 3600 4581 
L 4219 4581 
L 2425 0 
L 1803 0 
z
" transform="scale(0.015625)"/>
       <path id="ArialMT-5f" d="M -97 -1272 
L -97 -866 
L 3631 -866 
L 3631 -1272 
L -97 -1272 
z
" transform="scale(0.015625)"/>
       <path id="ArialMT-62" d="M 941 0 
L 419 0 
L 419 4581 
L 981 4581 
L 981 2947 
Q 1338 3394 1891 3394 
Q 2197 3394 2470 3270 
Q 2744 3147 2920 2923 
Q 3097 2700 3197 2384 
Q 3297 2069 3297 1709 
Q 3297 856 2875 390 
Q 2453 -75 1863 -75 
Q 1275 -75 941 416 
L 941 0 
z
M 934 1684 
Q 934 1088 1097 822 
Q 1363 388 1816 388 
Q 2184 388 2453 708 
Q 2722 1028 2722 1663 
Q 2722 2313 2464 2622 
Q 2206 2931 1841 2931 
Q 1472 2931 1203 2611 
Q 934 2291 934 1684 
z
" transform="scale(0.015625)"/>
       <path id="ArialMT-29" d="M 791 -1347 
L 388 -1347 
Q 1322 153 1322 1656 
Q 1322 2244 1188 2822 
Q 1081 3291 891 3722 
Q 769 4003 388 4659 
L 791 4659 
Q 1378 3875 1659 3084 
Q 1900 2403 1900 1659 
Q 1900 816 1576 28 
Q 1253 -759 791 -1347 
z
" transform="scale(0.015625)"/>
      </defs>
      <use xlink:href="#ArialMT-42"/>
      <use xlink:href="#ArialMT-65" x="66.699219"/>
      <use xlink:href="#ArialMT-68" x="122.314453"/>
      <use xlink:href="#ArialMT-61" x="177.929688"/>
      <use xlink:href="#ArialMT-76" x="233.544922"/>
      <use xlink:href="#ArialMT-69" x="283.544922"/>
      <use xlink:href="#ArialMT-6f" x="305.761719"/>
      <use xlink:href="#ArialMT-72" x="361.376953"/>
      <use xlink:href="#ArialMT-61" x="394.677734"/>
      <use xlink:href="#ArialMT-6c" x="450.292969"/>
      <use xlink:href="#ArialMT-20" x="472.509766"/>
      <use xlink:href="#ArialMT-4d" x="500.292969"/>
      <use xlink:href="#ArialMT-6f" x="583.59375"/>
      <use xlink:href="#ArialMT-74" x="639.208984"/>
      <use xlink:href="#ArialMT-69" x="666.992188"/>
      <use xlink:href="#ArialMT-76" x="689.208984"/>
      <use xlink:href="#ArialMT-61" x="739.208984"/>
      <use xlink:href="#ArialMT-74" x="794.824219"/>
      <use xlink:href="#ArialMT-69" x="822.607422"/>
      <use xlink:href="#ArialMT-6f" x="844.824219"/>
      <use xlink:href="#ArialMT-6e" x="900.439453"/>
      <use xlink:href="#ArialMT-20" x="956.054688"/>
      <use xlink:href="#ArialMT-28" x="983.837891"/>
      <use xlink:href="#ArialMT-56" x="1017.138672"/>
      <use xlink:href="#ArialMT-5f" x="1083.837891"/>
      <use xlink:href="#ArialMT-62" x="1139.453125"/>
      <use xlink:href="#ArialMT-65" x="1195.068359"/>
      <use xlink:href="#ArialMT-74" x="1250.683594"/>
      <use xlink:href="#ArialMT-61" x="1278.466797"/>
      <use xlink:href="#ArialMT-29" x="1334.082031"/>
     </g>
    </g>
   </g>
   <g id="matplotlib.axis_2">
    <g id="ytick_1">
     <g id="text_7">
      <!-- −0.5 -->
      <g style="fill: #262626" transform="translate(45.897125 262.725189) scale(0.14 -0.14)">
       <defs>
        <path id="ArialMT-35" d="M 266 1200 
L 856 1250 
Q 922 819 1161 601 
Q 1400 384 1738 384 
Q 2144 384 2425 690 
Q 2706 997 2706 1503 
Q 2706 1984 2436 2262 
Q 2166 2541 1728 2541 
Q 1456 2541 1237 2417 
Q 1019 2294 894 2097 
L 366 2166 
L 809 4519 
L 3088 4519 
L 3088 3981 
L 1259 3981 
L 1013 2750 
Q 1425 3038 1878 3038 
Q 2478 3038 2890 2622 
Q 3303 2206 3303 1553 
Q 3303 931 2941 478 
Q 2500 -78 1738 -78 
Q 1113 -78 717 272 
Q 322 622 266 1200 
z
" transform="scale(0.015625)"/>
       </defs>
       <use xlink:href="#ArialMT-2212"/>
       <use xlink:href="#ArialMT-30" x="58.398438"/>
       <use xlink:href="#ArialMT-2e" x="114.013672"/>
       <use xlink:href="#ArialMT-35" x="141.796875"/>
      </g>
     </g>
    </g>
    <g id="ytick_2">
     <g id="text_8">
      <!-- 0.0 -->
      <g style="fill: #262626" transform="translate(54.074 209.315605) scale(0.14 -0.14)">
       <use xlink:href="#ArialMT-30"/>
       <use xlink:href="#ArialMT-2e" x="55.615234"/>
       <use xlink:href="#ArialMT-30" x="83.398438"/>
      </g>
     </g>
    </g>
    <g id="ytick_3">
     <g id="text_9">
      <!-- 0.5 -->
      <g style="fill: #262626" transform="translate(54.074 155.906021) scale(0.14 -0.14)">
       <use xlink:href="#ArialMT-30"/>
       <use xlink:href="#ArialMT-2e" x="55.615234"/>
       <use xlink:href="#ArialMT-35" x="83.398438"/>
      </g>
     </g>
    </g>
    <g id="ytick_4">
     <g id="text_10">
      <!-- 1.0 -->
      <g style="fill: #262626" transform="translate(54.074 102.496437) scale(0.14 -0.14)">
       <use xlink:href="#ArialMT-31"/>
       <use xlink:href="#ArialMT-2e" x="55.615234"/>
       <use xlink:href="#ArialMT-30" x="83.398438"/>
      </g>
     </g>
    </g>
    <g id="ytick_5">
     <g id="text_11">
      <!-- 1.5 -->
      <g style="fill: #262626" transform="translate(54.074 49.086852) scale(0.14 -0.14)">
       <use xlink:href="#ArialMT-31"/>
       <use xlink:href="#ArialMT-2e" x="55.615234"/>
       <use xlink:href="#ArialMT-35" x="83.398438"/>
      </g>
     </g>
    </g>
    <g id="text_12">
     <!-- Simple Slope of -->
     <g style="fill: #262626" transform="translate(21.794125 225.60875) rotate(-90) scale(0.16 -0.16)">
      <defs>
       <path id="ArialMT-53" d="M 288 1472 
L 859 1522 
Q 900 1178 1048 958 
Q 1197 738 1509 602 
Q 1822 466 2213 466 
Q 2559 466 2825 569 
Q 3091 672 3220 851 
Q 3350 1031 3350 1244 
Q 3350 1459 3225 1620 
Q 3100 1781 2813 1891 
Q 2628 1963 1997 2114 
Q 1366 2266 1113 2400 
Q 784 2572 623 2826 
Q 463 3081 463 3397 
Q 463 3744 659 4045 
Q 856 4347 1234 4503 
Q 1613 4659 2075 4659 
Q 2584 4659 2973 4495 
Q 3363 4331 3572 4012 
Q 3781 3694 3797 3291 
L 3216 3247 
Q 3169 3681 2898 3903 
Q 2628 4125 2100 4125 
Q 1550 4125 1298 3923 
Q 1047 3722 1047 3438 
Q 1047 3191 1225 3031 
Q 1400 2872 2139 2705 
Q 2878 2538 3153 2413 
Q 3553 2228 3743 1945 
Q 3934 1663 3934 1294 
Q 3934 928 3725 604 
Q 3516 281 3123 101 
Q 2731 -78 2241 -78 
Q 1619 -78 1198 103 
Q 778 284 539 648 
Q 300 1013 288 1472 
z
" transform="scale(0.015625)"/>
       <path id="ArialMT-6d" d="M 422 0 
L 422 3319 
L 925 3319 
L 925 2853 
Q 1081 3097 1340 3245 
Q 1600 3394 1931 3394 
Q 2300 3394 2536 3241 
Q 2772 3088 2869 2813 
Q 3263 3394 3894 3394 
Q 4388 3394 4653 3120 
Q 4919 2847 4919 2278 
L 4919 0 
L 4359 0 
L 4359 2091 
Q 4359 2428 4304 2576 
Q 4250 2725 4106 2815 
Q 3963 2906 3769 2906 
Q 3419 2906 3187 2673 
Q 2956 2441 2956 1928 
L 2956 0 
L 2394 0 
L 2394 2156 
Q 2394 2531 2256 2718 
Q 2119 2906 1806 2906 
Q 1569 2906 1367 2781 
Q 1166 2656 1075 2415 
Q 984 2175 984 1722 
L 984 0 
L 422 0 
z
" transform="scale(0.015625)"/>
       <path id="ArialMT-70" d="M 422 -1272 
L 422 3319 
L 934 3319 
L 934 2888 
Q 1116 3141 1344 3267 
Q 1572 3394 1897 3394 
Q 2322 3394 2647 3175 
Q 2972 2956 3137 2557 
Q 3303 2159 3303 1684 
Q 3303 1175 3120 767 
Q 2938 359 2589 142 
Q 2241 -75 1856 -75 
Q 1575 -75 1351 44 
Q 1128 163 984 344 
L 984 -1272 
L 422 -1272 
z
M 931 1641 
Q 931 1000 1190 694 
Q 1450 388 1819 388 
Q 2194 388 2461 705 
Q 2728 1022 2728 1688 
Q 2728 2322 2467 2637 
Q 2206 2953 1844 2953 
Q 1484 2953 1207 2617 
Q 931 2281 931 1641 
z
" transform="scale(0.015625)"/>
       <path id="ArialMT-66" d="M 556 0 
L 556 2881 
L 59 2881 
L 59 3319 
L 556 3319 
L 556 3672 
Q 556 4006 616 4169 
Q 697 4388 901 4523 
Q 1106 4659 1475 4659 
Q 1713 4659 2000 4603 
L 1916 4113 
Q 1741 4144 1584 4144 
Q 1328 4144 1222 4034 
Q 1116 3925 1116 3625 
L 1116 3319 
L 1763 3319 
L 1763 2881 
L 1116 2881 
L 1116 0 
L 556 0 
z
" transform="scale(0.015625)"/>
      </defs>
      <use xlink:href="#ArialMT-53"/>
      <use xlink:href="#ArialMT-69" x="66.699219"/>
      <use xlink:href="#ArialMT-6d" x="88.916016"/>
      <use xlink:href="#ArialMT-70" x="172.216797"/>
      <use xlink:href="#ArialMT-6c" x="227.832031"/>
      <use xlink:href="#ArialMT-65" x="250.048828"/>
      <use xlink:href="#ArialMT-20" x="305.664062"/>
      <use xlink:href="#ArialMT-53" x="333.447266"/>
      <use xlink:href="#ArialMT-6c" x="400.146484"/>
      <use xlink:href="#ArialMT-6f" x="422.363281"/>
      <use xlink:href="#ArialMT-70" x="477.978516"/>
      <use xlink:href="#ArialMT-65" x="533.59375"/>
      <use xlink:href="#ArialMT-20" x="589.208984"/>
      <use xlink:href="#ArialMT-6f" x="616.992188"/>
      <use xlink:href="#ArialMT-66" x="672.607422"/>
     </g>
     <!-- RS → DMN-VS -->
     <g style="fill: #262626" transform="translate(38.717125 224.69375) rotate(-90) scale(0.16 -0.16)">
      <defs>
       <path id="ArialMT-52" d="M 503 0 
L 503 4581 
L 2534 4581 
Q 3147 4581 3465 4457 
Q 3784 4334 3975 4021 
Q 4166 3709 4166 3331 
Q 4166 2844 3850 2509 
Q 3534 2175 2875 2084 
Q 3116 1969 3241 1856 
Q 3506 1613 3744 1247 
L 4541 0 
L 3778 0 
L 3172 953 
Q 2906 1366 2734 1584 
Q 2563 1803 2427 1890 
Q 2291 1978 2150 2013 
Q 2047 2034 1813 2034 
L 1109 2034 
L 1109 0 
L 503 0 
z
M 1109 2559 
L 2413 2559 
Q 2828 2559 3062 2645 
Q 3297 2731 3419 2920 
Q 3541 3109 3541 3331 
Q 3541 3656 3305 3865 
Q 3069 4075 2559 4075 
L 1109 4075 
L 1109 2559 
z
" transform="scale(0.015625)"/>
       <path id="ArialMT-2192" d="M 4859 2738 
Q 5275 2284 5578 2048 
Q 5881 1813 6150 1697 
L 6150 1556 
Q 5841 1406 5550 1173 
Q 5259 941 4856 491 
L 4616 491 
Q 4909 1119 5231 1456 
L 247 1456 
L 247 1772 
L 5231 1772 
Q 4994 2075 4900 2222 
Q 4806 2369 4622 2738 
L 4859 2738 
z
" transform="scale(0.015625)"/>
       <path id="ArialMT-44" d="M 494 0 
L 494 4581 
L 2072 4581 
Q 2606 4581 2888 4516 
Q 3281 4425 3559 4188 
Q 3922 3881 4101 3404 
Q 4281 2928 4281 2316 
Q 4281 1794 4159 1391 
Q 4038 988 3847 723 
Q 3656 459 3429 307 
Q 3203 156 2883 78 
Q 2563 0 2147 0 
L 494 0 
z
M 1100 541 
L 2078 541 
Q 2531 541 2789 625 
Q 3047 709 3200 863 
Q 3416 1078 3536 1442 
Q 3656 1806 3656 2325 
Q 3656 3044 3420 3430 
Q 3184 3816 2847 3947 
Q 2603 4041 2063 4041 
L 1100 4041 
L 1100 541 
z
" transform="scale(0.015625)"/>
       <path id="ArialMT-4e" d="M 488 0 
L 488 4581 
L 1109 4581 
L 3516 984 
L 3516 4581 
L 4097 4581 
L 4097 0 
L 3475 0 
L 1069 3600 
L 1069 0 
L 488 0 
z
" transform="scale(0.015625)"/>
       <path id="ArialMT-2d" d="M 203 1375 
L 203 1941 
L 1931 1941 
L 1931 1375 
L 203 1375 
z
" transform="scale(0.015625)"/>
      </defs>
      <use xlink:href="#ArialMT-52"/>
      <use xlink:href="#ArialMT-53" x="72.216797"/>
      <use xlink:href="#ArialMT-20" x="138.916016"/>
      <use xlink:href="#ArialMT-2192" x="166.699219"/>
      <use xlink:href="#ArialMT-20" x="266.699219"/>
      <use xlink:href="#ArialMT-44" x="294.482422"/>
      <use xlink:href="#ArialMT-4d" x="366.699219"/>
      <use xlink:href="#ArialMT-4e" x="450"/>
      <use xlink:href="#ArialMT-2d" x="522.216797"/>
      <use xlink:href="#ArialMT-56" x="555.517578"/>
      <use xlink:href="#ArialMT-53" x="622.216797"/>
     </g>
    </g>
   </g>
   <g id="PolyCollection_1">
    <defs>
     <path id="ma0b0f76c96" d="M 96.018818 -318.776818 
L 96.018818 -65.673384 
L 99.147064 -66.870564 
L 102.27531 -68.066647 
L 105.403556 -69.261584 
L 108.531803 -70.45532 
L 111.660049 -71.647801 
L 114.788295 -72.838965 
L 117.916541 -74.028749 
L 121.044787 -75.217085 
L 124.173033 -76.403902 
L 127.301279 -77.589121 
L 130.429525 -78.77266 
L 133.557771 -79.954432 
L 136.686017 -81.134341 
L 139.814264 -82.312288 
L 142.94251 -83.488163 
L 146.070756 -84.661851 
L 149.199002 -85.833226 
L 152.327248 -87.002154 
L 155.455494 -88.16849 
L 158.58374 -89.332078 
L 161.711986 -90.492749 
L 164.840232 -91.65032 
L 167.968478 -92.804593 
L 171.096725 -93.955352 
L 174.224971 -95.102366 
L 177.353217 -96.245379 
L 180.481463 -97.384115 
L 183.609709 -98.518272 
L 186.737955 -99.647519 
L 189.866201 -100.771494 
L 192.994447 -101.8898 
L 196.122693 -103.002 
L 199.250939 -104.107613 
L 202.379185 -105.206107 
L 205.507432 -106.296897 
L 208.635678 -107.379332 
L 211.763924 -108.452691 
L 214.89217 -109.516169 
L 218.020416 -110.568873 
L 221.148662 -111.609803 
L 224.276908 -112.637839 
L 227.405154 -113.651727 
L 230.5334 -114.650057 
L 233.661646 -115.63124 
L 236.789893 -116.593485 
L 239.918139 -117.534766 
L 243.046385 -118.452793 
L 246.174631 -119.34497 
L 249.302877 -120.208353 
L 252.431123 -121.039602 
L 255.559369 -121.834931 
L 258.687615 -122.59005 
L 261.815861 -123.300108 
L 264.944107 -123.959642 
L 268.072354 -124.562524 
L 271.2006 -125.101933 
L 274.328846 -125.570346 
L 277.457092 -125.959571 
L 280.585338 -126.260833 
L 283.713584 -126.464937 
L 286.84183 -126.562514 
L 289.970076 -126.544363 
L 293.098322 -126.401884 
L 296.226568 -126.127561 
L 299.354815 -125.715465 
L 302.483061 -125.161698 
L 305.611307 -124.464703 
L 308.739553 -123.6254 
L 311.867799 -122.647106 
L 314.996045 -121.535264 
L 318.124291 -120.297026 
L 321.252537 -118.94076 
L 324.380783 -117.475556 
L 327.509029 -115.910775 
L 330.637275 -114.255687 
L 333.765522 -112.519191 
L 336.893768 -110.709643 
L 340.022014 -108.834743 
L 343.15026 -106.901496 
L 346.278506 -104.916205 
L 349.406752 -102.884502 
L 352.534998 -100.81139 
L 355.663244 -98.701299 
L 358.79149 -96.558141 
L 361.919736 -94.385364 
L 365.047983 -92.186012 
L 368.176229 -89.962765 
L 371.304475 -87.717989 
L 374.432721 -85.453775 
L 377.560967 -83.171971 
L 380.689213 -80.874217 
L 383.817459 -78.561965 
L 386.945705 -76.236509 
L 390.073951 -73.899002 
L 393.202197 -71.550472 
L 396.330444 -69.191841 
L 399.45869 -66.823933 
L 402.586936 -64.447491 
L 405.715182 -62.063182 
L 405.715182 -194.900014 
L 405.715182 -194.900014 
L 402.586936 -193.803453 
L 399.45869 -192.714759 
L 396.330444 -191.634598 
L 393.202197 -190.563714 
L 390.073951 -189.502932 
L 386.945705 -188.453172 
L 383.817459 -187.415464 
L 380.689213 -186.39096 
L 377.560967 -185.380953 
L 374.432721 -184.386897 
L 371.304475 -183.41043 
L 368.176229 -182.453402 
L 365.047983 -181.517902 
L 361.919736 -180.606297 
L 358.79149 -179.721269 
L 355.663244 -178.865858 
L 352.534998 -178.043514 
L 349.406752 -177.25815 
L 346.278506 -176.514194 
L 343.15026 -175.816651 
L 340.022014 -175.171151 
L 336.893768 -174.583999 
L 333.765522 -174.062198 
L 330.637275 -173.61345 
L 327.509029 -173.246109 
L 324.380783 -172.969076 
L 321.252537 -172.79162 
L 318.124291 -172.723101 
L 314.996045 -172.77261 
L 311.867799 -172.948516 
L 308.739553 -173.25797 
L 305.611307 -173.706415 
L 302.483061 -174.297167 
L 299.354815 -175.031147 
L 296.226568 -175.906799 
L 293.098322 -176.920223 
L 289.970076 -178.065491 
L 286.84183 -179.335089 
L 283.713584 -180.720413 
L 280.585338 -182.212264 
L 277.457092 -183.801274 
L 274.328846 -185.478246 
L 271.2006 -187.234407 
L 268.072354 -189.061564 
L 264.944107 -190.952193 
L 261.815861 -192.899475 
L 258.687615 -194.89728 
L 255.559369 -196.940146 
L 252.431123 -199.023223 
L 249.302877 -201.14222 
L 246.174631 -203.29335 
L 243.046385 -205.473274 
L 239.918139 -207.679049 
L 236.789893 -209.908078 
L 233.661646 -212.15807 
L 230.5334 -214.427001 
L 227.405154 -216.713078 
L 224.276908 -219.014714 
L 221.148662 -221.330498 
L 218.020416 -223.659175 
L 214.89217 -225.999626 
L 211.763924 -228.350852 
L 208.635678 -230.711958 
L 205.507432 -233.082141 
L 202.379185 -235.460678 
L 199.250939 -237.846921 
L 196.122693 -240.240281 
L 192.994447 -242.640228 
L 189.866201 -245.046282 
L 186.737955 -247.458004 
L 183.609709 -249.874999 
L 180.481463 -252.296903 
L 177.353217 -254.723387 
L 174.224971 -257.154148 
L 171.096725 -259.588909 
L 167.968478 -262.027416 
L 164.840232 -264.469436 
L 161.711986 -266.914754 
L 158.58374 -269.363173 
L 155.455494 -271.814508 
L 152.327248 -274.268592 
L 149.199002 -276.725268 
L 146.070756 -279.184391 
L 142.94251 -281.645826 
L 139.814264 -284.109449 
L 136.686017 -286.575143 
L 133.557771 -289.0428 
L 130.429525 -291.512319 
L 127.301279 -293.983606 
L 124.173033 -296.456572 
L 121.044787 -298.931136 
L 117.916541 -301.40722 
L 114.788295 -303.884752 
L 111.660049 -306.363663 
L 108.531803 -308.843891 
L 105.403556 -311.325375 
L 102.27531 -313.808059 
L 99.147064 -316.29189 
L 96.018818 -318.776818 
z
" style="stroke: #808080; stroke-opacity: 0.4"/>
    </defs>
    <g clip-path="url(#p8ab2bc2f05)">
     <use xlink:href="#ma0b0f76c96" x="0" y="360" style="fill: #808080; fill-opacity: 0.4; stroke: #808080; stroke-opacity: 0.4"/>
    </g>
   </g>
   <g id="PolyCollection_2"/>
   <g id="line2d_1">
    <path d="M 80.534 204.305136 
L 421.2 204.305136 
" clip-path="url(#p8ab2bc2f05)" style="fill: none; stroke-dasharray: 3.7,1.6; stroke-dashoffset: 0; stroke: #000000"/>
   </g>
   <g id="line2d_2">
    <path d="M 96.018818 167.774899 
L 99.147064 168.418773 
L 102.27531 169.062647 
L 105.403556 169.70652 
L 108.531803 170.350394 
L 111.660049 170.994268 
L 114.788295 171.638142 
L 117.916541 172.282016 
L 121.044787 172.925889 
L 124.173033 173.569763 
L 127.301279 174.213637 
L 130.429525 174.857511 
L 133.557771 175.501384 
L 136.686017 176.145258 
L 139.814264 176.789132 
L 142.94251 177.433006 
L 146.070756 178.076879 
L 149.199002 178.720753 
L 152.327248 179.364627 
L 155.455494 180.008501 
L 158.58374 180.652374 
L 161.711986 181.296248 
L 164.840232 181.940122 
L 167.968478 182.583996 
L 171.096725 183.22787 
L 174.224971 183.871743 
L 177.353217 184.515617 
L 180.481463 185.159491 
L 183.609709 185.803365 
L 186.737955 186.447238 
L 189.866201 187.091112 
L 192.994447 187.734986 
L 196.122693 188.37886 
L 199.250939 189.022733 
L 202.379185 189.666607 
L 205.507432 190.310481 
L 208.635678 190.954355 
L 211.763924 191.598228 
L 214.89217 192.242102 
L 218.020416 192.885976 
L 221.148662 193.52985 
L 224.276908 194.173724 
L 227.405154 194.817597 
L 230.5334 195.461471 
L 233.661646 196.105345 
L 236.789893 196.749219 
L 239.918139 197.393092 
L 243.046385 198.036966 
L 246.174631 198.68084 
L 249.302877 199.324714 
L 252.431123 199.968587 
L 255.559369 200.612461 
L 258.687615 201.256335 
L 261.815861 201.900209 
L 264.944107 202.544082 
L 268.072354 203.187956 
L 271.2006 203.83183 
L 274.328846 204.475704 
L 277.457092 205.119578 
L 280.585338 205.763451 
L 283.713584 206.407325 
L 286.84183 207.051199 
L 289.970076 207.695073 
L 293.098322 208.338946 
L 296.226568 208.98282 
L 299.354815 209.626694 
L 302.483061 210.270568 
L 305.611307 210.914441 
L 308.739553 211.558315 
L 311.867799 212.202189 
L 314.996045 212.846063 
L 318.124291 213.489936 
L 321.252537 214.13381 
L 324.380783 214.777684 
L 327.509029 215.421558 
L 330.637275 216.065432 
L 333.765522 216.709305 
L 336.893768 217.353179 
L 340.022014 217.997053 
L 343.15026 218.640927 
L 346.278506 219.2848 
L 349.406752 219.928674 
L 352.534998 220.572548 
L 355.663244 221.216422 
L 358.79149 221.860295 
L 361.919736 222.504169 
L 365.047983 223.148043 
L 368.176229 223.791917 
L 371.304475 224.43579 
L 374.432721 225.079664 
L 377.560967 225.723538 
L 380.689213 226.367412 
L 383.817459 227.011286 
L 386.945705 227.655159 
L 390.073951 228.299033 
L 393.202197 228.942907 
L 396.330444 229.586781 
L 399.45869 230.230654 
L 402.586936 230.874528 
L 405.715182 231.518402 
" clip-path="url(#p8ab2bc2f05)" style="fill: none; stroke: #000000; stroke-width: 2; stroke-linecap: round"/>
   </g>
   <g id="patch_3">
    <path d="M 80.534 310.7725 
L 80.534 28.3875 
" style="fill: none; stroke: #262626; stroke-width: 0.8; stroke-linejoin: miter; stroke-linecap: square"/>
   </g>
   <g id="patch_4">
    <path d="M 80.534 310.7725 
L 421.2 310.7725 
" style="fill: none; stroke: #262626; stroke-width: 0.8; stroke-linejoin: miter; stroke-linecap: square"/>
   </g>
   <g id="text_13">
    <!-- Johnson-Neyman Plot: RS x V_beta Interaction -->
    <g style="fill: #262626" transform="translate(83.232 22.3875) scale(0.16 -0.16)">
     <defs>
      <path id="ArialMT-4a" d="M 184 1300 
L 731 1375 
Q 753 850 928 656 
Q 1103 463 1413 463 
Q 1641 463 1806 567 
Q 1972 672 2034 851 
Q 2097 1031 2097 1425 
L 2097 4581 
L 2703 4581 
L 2703 1459 
Q 2703 884 2564 568 
Q 2425 253 2123 87 
Q 1822 -78 1416 -78 
Q 813 -78 492 269 
Q 172 616 184 1300 
z
" transform="scale(0.015625)"/>
      <path id="ArialMT-73" d="M 197 991 
L 753 1078 
Q 800 744 1014 566 
Q 1228 388 1613 388 
Q 2000 388 2187 545 
Q 2375 703 2375 916 
Q 2375 1106 2209 1216 
Q 2094 1291 1634 1406 
Q 1016 1563 777 1677 
Q 538 1791 414 1992 
Q 291 2194 291 2438 
Q 291 2659 392 2848 
Q 494 3038 669 3163 
Q 800 3259 1026 3326 
Q 1253 3394 1513 3394 
Q 1903 3394 2198 3281 
Q 2494 3169 2634 2976 
Q 2775 2784 2828 2463 
L 2278 2388 
Q 2241 2644 2061 2787 
Q 1881 2931 1553 2931 
Q 1166 2931 1000 2803 
Q 834 2675 834 2503 
Q 834 2394 903 2306 
Q 972 2216 1119 2156 
Q 1203 2125 1616 2013 
Q 2213 1853 2448 1751 
Q 2684 1650 2818 1456 
Q 2953 1263 2953 975 
Q 2953 694 2789 445 
Q 2625 197 2315 61 
Q 2006 -75 1616 -75 
Q 969 -75 630 194 
Q 291 463 197 991 
z
" transform="scale(0.015625)"/>
      <path id="ArialMT-79" d="M 397 -1278 
L 334 -750 
Q 519 -800 656 -800 
Q 844 -800 956 -737 
Q 1069 -675 1141 -563 
Q 1194 -478 1313 -144 
Q 1328 -97 1363 -6 
L 103 3319 
L 709 3319 
L 1400 1397 
Q 1534 1031 1641 628 
Q 1738 1016 1872 1384 
L 2581 3319 
L 3144 3319 
L 1881 -56 
Q 1678 -603 1566 -809 
Q 1416 -1088 1222 -1217 
Q 1028 -1347 759 -1347 
Q 597 -1347 397 -1278 
z
" transform="scale(0.015625)"/>
      <path id="ArialMT-50" d="M 494 0 
L 494 4581 
L 2222 4581 
Q 2678 4581 2919 4538 
Q 3256 4481 3484 4323 
Q 3713 4166 3852 3881 
Q 3991 3597 3991 3256 
Q 3991 2672 3619 2267 
Q 3247 1863 2275 1863 
L 1100 1863 
L 1100 0 
L 494 0 
z
M 1100 2403 
L 2284 2403 
Q 2872 2403 3119 2622 
Q 3366 2841 3366 3238 
Q 3366 3525 3220 3729 
Q 3075 3934 2838 4000 
Q 2684 4041 2272 4041 
L 1100 4041 
L 1100 2403 
z
" transform="scale(0.015625)"/>
      <path id="ArialMT-3a" d="M 578 2678 
L 578 3319 
L 1219 3319 
L 1219 2678 
L 578 2678 
z
M 578 0 
L 578 641 
L 1219 641 
L 1219 0 
L 578 0 
z
" transform="scale(0.015625)"/>
      <path id="ArialMT-78" d="M 47 0 
L 1259 1725 
L 138 3319 
L 841 3319 
L 1350 2541 
Q 1494 2319 1581 2169 
Q 1719 2375 1834 2534 
L 2394 3319 
L 3066 3319 
L 1919 1756 
L 3153 0 
L 2463 0 
L 1781 1031 
L 1600 1309 
L 728 0 
L 47 0 
z
" transform="scale(0.015625)"/>
      <path id="ArialMT-49" d="M 597 0 
L 597 4581 
L 1203 4581 
L 1203 0 
L 597 0 
z
" transform="scale(0.015625)"/>
      <path id="ArialMT-63" d="M 2588 1216 
L 3141 1144 
Q 3050 572 2676 248 
Q 2303 -75 1759 -75 
Q 1078 -75 664 370 
Q 250 816 250 1647 
Q 250 2184 428 2587 
Q 606 2991 970 3192 
Q 1334 3394 1763 3394 
Q 2303 3394 2647 3120 
Q 2991 2847 3088 2344 
L 2541 2259 
Q 2463 2594 2264 2762 
Q 2066 2931 1784 2931 
Q 1359 2931 1093 2626 
Q 828 2322 828 1663 
Q 828 994 1084 691 
Q 1341 388 1753 388 
Q 2084 388 2306 591 
Q 2528 794 2588 1216 
z
" transform="scale(0.015625)"/>
     </defs>
     <use xlink:href="#ArialMT-4a"/>
     <use xlink:href="#ArialMT-6f" x="50"/>
     <use xlink:href="#ArialMT-68" x="105.615234"/>
     <use xlink:href="#ArialMT-6e" x="161.230469"/>
     <use xlink:href="#ArialMT-73" x="216.845703"/>
     <use xlink:href="#ArialMT-6f" x="266.845703"/>
     <use xlink:href="#ArialMT-6e" x="322.460938"/>
     <use xlink:href="#ArialMT-2d" x="378.076172"/>
     <use xlink:href="#ArialMT-4e" x="411.376953"/>
     <use xlink:href="#ArialMT-65" x="483.59375"/>
     <use xlink:href="#ArialMT-79" x="539.208984"/>
     <use xlink:href="#ArialMT-6d" x="589.208984"/>
     <use xlink:href="#ArialMT-61" x="672.509766"/>
     <use xlink:href="#ArialMT-6e" x="728.125"/>
     <use xlink:href="#ArialMT-20" x="783.740234"/>
     <use xlink:href="#ArialMT-50" x="811.523438"/>
     <use xlink:href="#ArialMT-6c" x="878.222656"/>
     <use xlink:href="#ArialMT-6f" x="900.439453"/>
     <use xlink:href="#ArialMT-74" x="956.054688"/>
     <use xlink:href="#ArialMT-3a" x="983.837891"/>
     <use xlink:href="#ArialMT-20" x="1011.621094"/>
     <use xlink:href="#ArialMT-52" x="1039.404297"/>
     <use xlink:href="#ArialMT-53" x="1111.621094"/>
     <use xlink:href="#ArialMT-20" x="1178.320312"/>
     <use xlink:href="#ArialMT-78" x="1206.103516"/>
     <use xlink:href="#ArialMT-20" x="1256.103516"/>
     <use xlink:href="#ArialMT-56" x="1283.886719"/>
     <use xlink:href="#ArialMT-5f" x="1350.585938"/>
     <use xlink:href="#ArialMT-62" x="1406.201172"/>
     <use xlink:href="#ArialMT-65" x="1461.816406"/>
     <use xlink:href="#ArialMT-74" x="1517.431641"/>
     <use xlink:href="#ArialMT-61" x="1545.214844"/>
     <use xlink:href="#ArialMT-20" x="1600.830078"/>
     <use xlink:href="#ArialMT-49" x="1628.613281"/>
     <use xlink:href="#ArialMT-6e" x="1656.396484"/>
     <use xlink:href="#ArialMT-74" x="1712.011719"/>
     <use xlink:href="#ArialMT-65" x="1739.794922"/>
     <use xlink:href="#ArialMT-72" x="1795.410156"/>
     <use xlink:href="#ArialMT-61" x="1828.710938"/>
     <use xlink:href="#ArialMT-63" x="1884.326172"/>
     <use xlink:href="#ArialMT-74" x="1934.326172"/>
     <use xlink:href="#ArialMT-69" x="1962.109375"/>
     <use xlink:href="#ArialMT-6f" x="1984.326172"/>
     <use xlink:href="#ArialMT-6e" x="2039.941406"/>
    </g>
   </g>
   <g id="legend_1">
    <g id="patch_5">
     <path d="M 228.3375 89.484375 
L 412.8 89.484375 
Q 415.2 89.484375 415.2 87.084375 
L 415.2 36.7875 
Q 415.2 34.3875 412.8 34.3875 
L 228.3375 34.3875 
Q 225.9375 34.3875 225.9375 36.7875 
L 225.9375 87.084375 
Q 225.9375 89.484375 228.3375 89.484375 
z
" style="fill: #ffffff; opacity: 0.8; stroke: #cccccc; stroke-linejoin: miter"/>
    </g>
    <g id="patch_6">
     <path d="M 230.7375 47.776875 
L 254.7375 47.776875 
L 254.7375 39.376875 
L 230.7375 39.376875 
z
" style="fill: #808080; fill-opacity: 0.4; stroke: #808080; stroke-opacity: 0.4; stroke-linejoin: miter"/>
    </g>
    <g id="text_14">
     <!-- 95% CI -->
     <g style="fill: #262626" transform="translate(264.3375 47.776875) scale(0.12 -0.12)">
      <defs>
       <path id="ArialMT-39" d="M 350 1059 
L 891 1109 
Q 959 728 1153 556 
Q 1347 384 1650 384 
Q 1909 384 2104 503 
Q 2300 622 2425 820 
Q 2550 1019 2634 1356 
Q 2719 1694 2719 2044 
Q 2719 2081 2716 2156 
Q 2547 1888 2255 1720 
Q 1963 1553 1622 1553 
Q 1053 1553 659 1965 
Q 266 2378 266 3053 
Q 266 3750 677 4175 
Q 1088 4600 1706 4600 
Q 2153 4600 2523 4359 
Q 2894 4119 3086 3673 
Q 3278 3228 3278 2384 
Q 3278 1506 3087 986 
Q 2897 466 2520 194 
Q 2144 -78 1638 -78 
Q 1100 -78 759 220 
Q 419 519 350 1059 
z
M 2653 3081 
Q 2653 3566 2395 3850 
Q 2138 4134 1775 4134 
Q 1400 4134 1122 3828 
Q 844 3522 844 3034 
Q 844 2597 1108 2323 
Q 1372 2050 1759 2050 
Q 2150 2050 2401 2323 
Q 2653 2597 2653 3081 
z
" transform="scale(0.015625)"/>
       <path id="ArialMT-25" d="M 372 3481 
Q 372 3972 619 4315 
Q 866 4659 1334 4659 
Q 1766 4659 2048 4351 
Q 2331 4044 2331 3447 
Q 2331 2866 2045 2552 
Q 1759 2238 1341 2238 
Q 925 2238 648 2547 
Q 372 2856 372 3481 
z
M 1350 4272 
Q 1141 4272 1002 4090 
Q 863 3909 863 3425 
Q 863 2984 1003 2804 
Q 1144 2625 1350 2625 
Q 1563 2625 1702 2806 
Q 1841 2988 1841 3469 
Q 1841 3913 1700 4092 
Q 1559 4272 1350 4272 
z
M 1353 -169 
L 3859 4659 
L 4316 4659 
L 1819 -169 
L 1353 -169 
z
M 3334 1075 
Q 3334 1569 3581 1911 
Q 3828 2253 4300 2253 
Q 4731 2253 5014 1945 
Q 5297 1638 5297 1041 
Q 5297 459 5011 145 
Q 4725 -169 4303 -169 
Q 3888 -169 3611 142 
Q 3334 453 3334 1075 
z
M 4316 1866 
Q 4103 1866 3964 1684 
Q 3825 1503 3825 1019 
Q 3825 581 3965 400 
Q 4106 219 4313 219 
Q 4528 219 4667 400 
Q 4806 581 4806 1063 
Q 4806 1506 4665 1686 
Q 4525 1866 4316 1866 
z
" transform="scale(0.015625)"/>
       <path id="ArialMT-43" d="M 3763 1606 
L 4369 1453 
Q 4178 706 3683 314 
Q 3188 -78 2472 -78 
Q 1731 -78 1267 223 
Q 803 525 561 1097 
Q 319 1669 319 2325 
Q 319 3041 592 3573 
Q 866 4106 1370 4382 
Q 1875 4659 2481 4659 
Q 3169 4659 3637 4309 
Q 4106 3959 4291 3325 
L 3694 3184 
Q 3534 3684 3231 3912 
Q 2928 4141 2469 4141 
Q 1941 4141 1586 3887 
Q 1231 3634 1087 3207 
Q 944 2781 944 2328 
Q 944 1744 1114 1308 
Q 1284 872 1643 656 
Q 2003 441 2422 441 
Q 2931 441 3284 734 
Q 3638 1028 3763 1606 
z
" transform="scale(0.015625)"/>
      </defs>
      <use xlink:href="#ArialMT-39"/>
      <use xlink:href="#ArialMT-35" x="55.615234"/>
      <use xlink:href="#ArialMT-25" x="111.230469"/>
      <use xlink:href="#ArialMT-20" x="200.146484"/>
      <use xlink:href="#ArialMT-43" x="227.929688"/>
      <use xlink:href="#ArialMT-49" x="300.146484"/>
     </g>
    </g>
    <g id="patch_7">
     <path d="M 230.7375 64.8975 
L 254.7375 64.8975 
L 254.7375 56.4975 
L 230.7375 56.4975 
z
" style="fill: #008000; fill-opacity: 0.6; stroke: #008000; stroke-opacity: 0.6; stroke-linejoin: miter"/>
    </g>
    <g id="text_15">
     <!-- Significant region (p&lt;.05) -->
     <g style="fill: #262626" transform="translate(264.3375 64.8975) scale(0.12 -0.12)">
      <defs>
       <path id="ArialMT-67" d="M 319 -275 
L 866 -356 
Q 900 -609 1056 -725 
Q 1266 -881 1628 -881 
Q 2019 -881 2231 -725 
Q 2444 -569 2519 -288 
Q 2563 -116 2559 434 
Q 2191 0 1641 0 
Q 956 0 581 494 
Q 206 988 206 1678 
Q 206 2153 378 2554 
Q 550 2956 876 3175 
Q 1203 3394 1644 3394 
Q 2231 3394 2613 2919 
L 2613 3319 
L 3131 3319 
L 3131 450 
Q 3131 -325 2973 -648 
Q 2816 -972 2473 -1159 
Q 2131 -1347 1631 -1347 
Q 1038 -1347 672 -1080 
Q 306 -813 319 -275 
z
M 784 1719 
Q 784 1066 1043 766 
Q 1303 466 1694 466 
Q 2081 466 2343 764 
Q 2606 1063 2606 1700 
Q 2606 2309 2336 2618 
Q 2066 2928 1684 2928 
Q 1309 2928 1046 2623 
Q 784 2319 784 1719 
z
" transform="scale(0.015625)"/>
       <path id="ArialMT-3c" d="M 350 2003 
L 350 2528 
L 3384 3809 
L 3384 3250 
L 978 2263 
L 3384 1266 
L 3384 706 
L 350 2003 
z
" transform="scale(0.015625)"/>
      </defs>
      <use xlink:href="#ArialMT-53"/>
      <use xlink:href="#ArialMT-69" x="66.699219"/>
      <use xlink:href="#ArialMT-67" x="88.916016"/>
      <use xlink:href="#ArialMT-6e" x="144.53125"/>
      <use xlink:href="#ArialMT-69" x="200.146484"/>
      <use xlink:href="#ArialMT-66" x="222.363281"/>
      <use xlink:href="#ArialMT-69" x="250.146484"/>
      <use xlink:href="#ArialMT-63" x="272.363281"/>
      <use xlink:href="#ArialMT-61" x="322.363281"/>
      <use xlink:href="#ArialMT-6e" x="377.978516"/>
      <use xlink:href="#ArialMT-74" x="433.59375"/>
      <use xlink:href="#ArialMT-20" x="461.376953"/>
      <use xlink:href="#ArialMT-72" x="489.160156"/>
      <use xlink:href="#ArialMT-65" x="522.460938"/>
      <use xlink:href="#ArialMT-67" x="578.076172"/>
      <use xlink:href="#ArialMT-69" x="633.691406"/>
      <use xlink:href="#ArialMT-6f" x="655.908203"/>
      <use xlink:href="#ArialMT-6e" x="711.523438"/>
      <use xlink:href="#ArialMT-20" x="767.138672"/>
      <use xlink:href="#ArialMT-28" x="794.921875"/>
      <use xlink:href="#ArialMT-70" x="828.222656"/>
      <use xlink:href="#ArialMT-3c" x="883.837891"/>
      <use xlink:href="#ArialMT-2e" x="942.236328"/>
      <use xlink:href="#ArialMT-30" x="970.019531"/>
      <use xlink:href="#ArialMT-35" x="1025.634766"/>
      <use xlink:href="#ArialMT-29" x="1081.25"/>
     </g>
    </g>
    <g id="line2d_3">
     <path d="M 230.7375 77.95875 
L 242.7375 77.95875 
L 254.7375 77.95875 
" style="fill: none; stroke: #000000; stroke-width: 2; stroke-linecap: round"/>
    </g>
    <g id="text_16">
     <!-- Slope of Reward Sensitivity -->
     <g style="fill: #262626" transform="translate(264.3375 82.15875) scale(0.12 -0.12)">
      <defs>
       <path id="ArialMT-77" d="M 1034 0 
L 19 3319 
L 600 3319 
L 1128 1403 
L 1325 691 
Q 1338 744 1497 1375 
L 2025 3319 
L 2603 3319 
L 3100 1394 
L 3266 759 
L 3456 1400 
L 4025 3319 
L 4572 3319 
L 3534 0 
L 2950 0 
L 2422 1988 
L 2294 2553 
L 1622 0 
L 1034 0 
z
" transform="scale(0.015625)"/>
       <path id="ArialMT-64" d="M 2575 0 
L 2575 419 
Q 2259 -75 1647 -75 
Q 1250 -75 917 144 
Q 584 363 401 755 
Q 219 1147 219 1656 
Q 219 2153 384 2558 
Q 550 2963 881 3178 
Q 1213 3394 1622 3394 
Q 1922 3394 2156 3267 
Q 2391 3141 2538 2938 
L 2538 4581 
L 3097 4581 
L 3097 0 
L 2575 0 
z
M 797 1656 
Q 797 1019 1065 703 
Q 1334 388 1700 388 
Q 2069 388 2326 689 
Q 2584 991 2584 1609 
Q 2584 2291 2321 2609 
Q 2059 2928 1675 2928 
Q 1300 2928 1048 2622 
Q 797 2316 797 1656 
z
" transform="scale(0.015625)"/>
      </defs>
      <use xlink:href="#ArialMT-53"/>
      <use xlink:href="#ArialMT-6c" x="66.699219"/>
      <use xlink:href="#ArialMT-6f" x="88.916016"/>
      <use xlink:href="#ArialMT-70" x="144.53125"/>
      <use xlink:href="#ArialMT-65" x="200.146484"/>
      <use xlink:href="#ArialMT-20" x="255.761719"/>
      <use xlink:href="#ArialMT-6f" x="283.544922"/>
      <use xlink:href="#ArialMT-66" x="339.160156"/>
      <use xlink:href="#ArialMT-20" x="366.943359"/>
      <use xlink:href="#ArialMT-52" x="394.726562"/>
      <use xlink:href="#ArialMT-65" x="466.943359"/>
      <use xlink:href="#ArialMT-77" x="522.558594"/>
      <use xlink:href="#ArialMT-61" x="594.775391"/>
      <use xlink:href="#ArialMT-72" x="650.390625"/>
      <use xlink:href="#ArialMT-64" x="683.691406"/>
      <use xlink:href="#ArialMT-20" x="739.306641"/>
      <use xlink:href="#ArialMT-53" x="767.089844"/>
      <use xlink:href="#ArialMT-65" x="833.789062"/>
      <use xlink:href="#ArialMT-6e" x="889.404297"/>
      <use xlink:href="#ArialMT-73" x="945.019531"/>
      <use xlink:href="#ArialMT-69" x="995.019531"/>
      <use xlink:href="#ArialMT-74" x="1017.236328"/>
      <use xlink:href="#ArialMT-69" x="1045.019531"/>
      <use xlink:href="#ArialMT-76" x="1067.236328"/>
      <use xlink:href="#ArialMT-69" x="1117.236328"/>
      <use xlink:href="#ArialMT-74" x="1139.453125"/>
      <use xlink:href="#ArialMT-79" x="1167.236328"/>
     </g>
    </g>
   </g>
  </g>
 </g>
 <defs>
  <clipPath id="p8ab2bc2f05">
   <rect x="80.534" y="28.3875" width="340.666" height="282.385"/>
  </clipPath>
 </defs>
</svg>
