<?xml version="1.0" encoding="utf-8" standalone="no"?>
<!DOCTYPE svg PUBLIC "-//W3C//DTD SVG 1.1//EN"
  "http://www.w3.org/Graphics/SVG/1.1/DTD/svg11.dtd">
<svg xmlns:xlink="http://www.w3.org/1999/xlink" width="396pt" height="360pt" viewBox="0 0 396 360" xmlns="http://www.w3.org/2000/svg" version="1.1">
 <metadata>
  <rdf:RDF xmlns:dc="http://purl.org/dc/elements/1.1/" xmlns:cc="http://creativecommons.org/ns#" xmlns:rdf="http://www.w3.org/1999/02/22-rdf-syntax-ns#">
   <cc:Work>
    <dc:type rdf:resource="http://purl.org/dc/dcmitype/StillImage"/>
    <dc:date>2025-05-15T13:55:41.777759</dc:date>
    <dc:format>image/svg+xml</dc:format>
    <dc:creator>
     <cc:Agent>
      <dc:title>Matplotlib v3.9.2, https://matplotlib.org/</dc:title>
     </cc:Agent>
    </dc:creator>
   </cc:Work>
  </rdf:RDF>
 </metadata>
 <defs>
  <style type="text/css">*{stroke-linejoin: round; stroke-linecap: butt}</style>
 </defs>
 <g id="figure_1">
  <g id="patch_1">
   <path d="M 0 360 
L 396 360 
L 396 0 
L 0 0 
z
" style="fill: #ffffff"/>
  </g>
  <g id="axes_1">
   <g id="patch_2">
    <path d="M 88.108 310.79 
L 391 310.79 
L 391 5 
L 88.108 5 
z
" style="fill: #ffffff"/>
   </g>
   <g id="matplotlib.axis_1">
    <g id="xtick_1">
     <g id="text_1">
      <!-- −0.03 -->
      <g style="fill: #262626" transform="translate(113.73738 329.2425) scale(0.16 -0.16)">
       <defs>
        <path id="ArialMT-2212" d="M 3381 1997 
L 356 1997 
L 356 2522 
L 3381 2522 
L 3381 1997 
z
" transform="scale(0.015625)"/>
        <path id="ArialMT-30" d="M 266 2259 
Q 266 3072 433 3567 
Q 600 4063 929 4331 
Q 1259 4600 1759 4600 
Q 2128 4600 2406 4451 
Q 2684 4303 2865 4023 
Q 3047 3744 3150 3342 
Q 3253 2941 3253 2259 
Q 3253 1453 3087 958 
Q 2922 463 2592 192 
Q 2263 -78 1759 -78 
Q 1097 -78 719 397 
Q 266 969 266 2259 
z
M 844 2259 
Q 844 1131 1108 757 
Q 1372 384 1759 384 
Q 2147 384 2411 759 
Q 2675 1134 2675 2259 
Q 2675 3391 2411 3762 
Q 2147 4134 1753 4134 
Q 1366 4134 1134 3806 
Q 844 3388 844 2259 
z
" transform="scale(0.015625)"/>
        <path id="ArialMT-2e" d="M 581 0 
L 581 641 
L 1222 641 
L 1222 0 
L 581 0 
z
" transform="scale(0.015625)"/>
        <path id="ArialMT-33" d="M 269 1209 
L 831 1284 
Q 928 806 1161 595 
Q 1394 384 1728 384 
Q 2125 384 2398 659 
Q 2672 934 2672 1341 
Q 2672 1728 2419 1979 
Q 2166 2231 1775 2231 
Q 1616 2231 1378 2169 
L 1441 2663 
Q 1497 2656 1531 2656 
Q 1891 2656 2178 2843 
Q 2466 3031 2466 3422 
Q 2466 3731 2256 3934 
Q 2047 4138 1716 4138 
Q 1388 4138 1169 3931 
Q 950 3725 888 3313 
L 325 3413 
Q 428 3978 793 4289 
Q 1159 4600 1703 4600 
Q 2078 4600 2393 4439 
Q 2709 4278 2876 4000 
Q 3044 3722 3044 3409 
Q 3044 3113 2884 2869 
Q 2725 2625 2413 2481 
Q 2819 2388 3044 2092 
Q 3269 1797 3269 1353 
Q 3269 753 2831 336 
Q 2394 -81 1725 -81 
Q 1122 -81 723 278 
Q 325 638 269 1209 
z
" transform="scale(0.015625)"/>
       </defs>
       <use xlink:href="#ArialMT-2212"/>
       <use xlink:href="#ArialMT-30" x="58.398438"/>
       <use xlink:href="#ArialMT-2e" x="114.013672"/>
       <use xlink:href="#ArialMT-30" x="141.796875"/>
       <use xlink:href="#ArialMT-33" x="197.412109"/>
      </g>
     </g>
    </g>
    <g id="xtick_2">
     <g id="text_2">
      <!-- −0.02 -->
      <g style="fill: #262626" transform="translate(169.270273 329.2425) scale(0.16 -0.16)">
       <defs>
        <path id="ArialMT-32" d="M 3222 541 
L 3222 0 
L 194 0 
Q 188 203 259 391 
Q 375 700 629 1000 
Q 884 1300 1366 1694 
Q 2113 2306 2375 2664 
Q 2638 3022 2638 3341 
Q 2638 3675 2398 3904 
Q 2159 4134 1775 4134 
Q 1369 4134 1125 3890 
Q 881 3647 878 3216 
L 300 3275 
Q 359 3922 746 4261 
Q 1134 4600 1788 4600 
Q 2447 4600 2831 4234 
Q 3216 3869 3216 3328 
Q 3216 3053 3103 2787 
Q 2991 2522 2730 2228 
Q 2469 1934 1863 1422 
Q 1356 997 1212 845 
Q 1069 694 975 541 
L 3222 541 
z
" transform="scale(0.015625)"/>
       </defs>
       <use xlink:href="#ArialMT-2212"/>
       <use xlink:href="#ArialMT-30" x="58.398438"/>
       <use xlink:href="#ArialMT-2e" x="114.013672"/>
       <use xlink:href="#ArialMT-30" x="141.796875"/>
       <use xlink:href="#ArialMT-32" x="197.412109"/>
      </g>
     </g>
    </g>
    <g id="xtick_3">
     <g id="text_3">
      <!-- −0.01 -->
      <g style="fill: #262626" transform="translate(224.803167 329.2425) scale(0.16 -0.16)">
       <defs>
        <path id="ArialMT-31" d="M 2384 0 
L 1822 0 
L 1822 3584 
Q 1619 3391 1289 3197 
Q 959 3003 697 2906 
L 697 3450 
Q 1169 3672 1522 3987 
Q 1875 4303 2022 4600 
L 2384 4600 
L 2384 0 
z
" transform="scale(0.015625)"/>
       </defs>
       <use xlink:href="#ArialMT-2212"/>
       <use xlink:href="#ArialMT-30" x="58.398438"/>
       <use xlink:href="#ArialMT-2e" x="114.013672"/>
       <use xlink:href="#ArialMT-30" x="141.796875"/>
       <use xlink:href="#ArialMT-31" x="197.412109"/>
      </g>
     </g>
    </g>
    <g id="xtick_4">
     <g id="text_4">
      <!-- 0.00 -->
      <g style="fill: #262626" transform="translate(285.00856 329.2425) scale(0.16 -0.16)">
       <use xlink:href="#ArialMT-30"/>
       <use xlink:href="#ArialMT-2e" x="55.615234"/>
       <use xlink:href="#ArialMT-30" x="83.398438"/>
       <use xlink:href="#ArialMT-30" x="139.013672"/>
      </g>
     </g>
    </g>
    <g id="xtick_5">
     <g id="text_5">
      <!-- 0.01 -->
      <g style="fill: #262626" transform="translate(340.541453 329.2425) scale(0.16 -0.16)">
       <use xlink:href="#ArialMT-30"/>
       <use xlink:href="#ArialMT-2e" x="55.615234"/>
       <use xlink:href="#ArialMT-30" x="83.398438"/>
       <use xlink:href="#ArialMT-31" x="139.013672"/>
      </g>
     </g>
    </g>
    <g id="text_6">
     <!-- Behavioral Motivation (HS&gt;LS) -->
     <g style="fill: #262626" transform="translate(102.552437 350.981875) scale(0.2 -0.2)">
      <defs>
       <path id="ArialMT-42" d="M 469 0 
L 469 4581 
L 2188 4581 
Q 2713 4581 3030 4442 
Q 3347 4303 3526 4014 
Q 3706 3725 3706 3409 
Q 3706 3116 3547 2856 
Q 3388 2597 3066 2438 
Q 3481 2316 3704 2022 
Q 3928 1728 3928 1328 
Q 3928 1006 3792 729 
Q 3656 453 3456 303 
Q 3256 153 2954 76 
Q 2653 0 2216 0 
L 469 0 
z
M 1075 2656 
L 2066 2656 
Q 2469 2656 2644 2709 
Q 2875 2778 2992 2937 
Q 3109 3097 3109 3338 
Q 3109 3566 3000 3739 
Q 2891 3913 2687 3977 
Q 2484 4041 1991 4041 
L 1075 4041 
L 1075 2656 
z
M 1075 541 
L 2216 541 
Q 2509 541 2628 563 
Q 2838 600 2978 687 
Q 3119 775 3209 942 
Q 3300 1109 3300 1328 
Q 3300 1584 3169 1773 
Q 3038 1963 2805 2039 
Q 2572 2116 2134 2116 
L 1075 2116 
L 1075 541 
z
" transform="scale(0.015625)"/>
       <path id="ArialMT-65" d="M 2694 1069 
L 3275 997 
Q 3138 488 2766 206 
Q 2394 -75 1816 -75 
Q 1088 -75 661 373 
Q 234 822 234 1631 
Q 234 2469 665 2931 
Q 1097 3394 1784 3394 
Q 2450 3394 2872 2941 
Q 3294 2488 3294 1666 
Q 3294 1616 3291 1516 
L 816 1516 
Q 847 969 1125 678 
Q 1403 388 1819 388 
Q 2128 388 2347 550 
Q 2566 713 2694 1069 
z
M 847 1978 
L 2700 1978 
Q 2663 2397 2488 2606 
Q 2219 2931 1791 2931 
Q 1403 2931 1139 2672 
Q 875 2413 847 1978 
z
" transform="scale(0.015625)"/>
       <path id="ArialMT-68" d="M 422 0 
L 422 4581 
L 984 4581 
L 984 2938 
Q 1378 3394 1978 3394 
Q 2347 3394 2619 3248 
Q 2891 3103 3008 2847 
Q 3125 2591 3125 2103 
L 3125 0 
L 2563 0 
L 2563 2103 
Q 2563 2525 2380 2717 
Q 2197 2909 1863 2909 
Q 1613 2909 1392 2779 
Q 1172 2650 1078 2428 
Q 984 2206 984 1816 
L 984 0 
L 422 0 
z
" transform="scale(0.015625)"/>
       <path id="ArialMT-61" d="M 2588 409 
Q 2275 144 1986 34 
Q 1697 -75 1366 -75 
Q 819 -75 525 192 
Q 231 459 231 875 
Q 231 1119 342 1320 
Q 453 1522 633 1644 
Q 813 1766 1038 1828 
Q 1203 1872 1538 1913 
Q 2219 1994 2541 2106 
Q 2544 2222 2544 2253 
Q 2544 2597 2384 2738 
Q 2169 2928 1744 2928 
Q 1347 2928 1158 2789 
Q 969 2650 878 2297 
L 328 2372 
Q 403 2725 575 2942 
Q 747 3159 1072 3276 
Q 1397 3394 1825 3394 
Q 2250 3394 2515 3294 
Q 2781 3194 2906 3042 
Q 3031 2891 3081 2659 
Q 3109 2516 3109 2141 
L 3109 1391 
Q 3109 606 3145 398 
Q 3181 191 3288 0 
L 2700 0 
Q 2613 175 2588 409 
z
M 2541 1666 
Q 2234 1541 1622 1453 
Q 1275 1403 1131 1340 
Q 988 1278 909 1158 
Q 831 1038 831 891 
Q 831 666 1001 516 
Q 1172 366 1500 366 
Q 1825 366 2078 508 
Q 2331 650 2450 897 
Q 2541 1088 2541 1459 
L 2541 1666 
z
" transform="scale(0.015625)"/>
       <path id="ArialMT-76" d="M 1344 0 
L 81 3319 
L 675 3319 
L 1388 1331 
Q 1503 1009 1600 663 
Q 1675 925 1809 1294 
L 2547 3319 
L 3125 3319 
L 1869 0 
L 1344 0 
z
" transform="scale(0.015625)"/>
       <path id="ArialMT-69" d="M 425 3934 
L 425 4581 
L 988 4581 
L 988 3934 
L 425 3934 
z
M 425 0 
L 425 3319 
L 988 3319 
L 988 0 
L 425 0 
z
" transform="scale(0.015625)"/>
       <path id="ArialMT-6f" d="M 213 1659 
Q 213 2581 725 3025 
Q 1153 3394 1769 3394 
Q 2453 3394 2887 2945 
Q 3322 2497 3322 1706 
Q 3322 1066 3130 698 
Q 2938 331 2570 128 
Q 2203 -75 1769 -75 
Q 1072 -75 642 372 
Q 213 819 213 1659 
z
M 791 1659 
Q 791 1022 1069 705 
Q 1347 388 1769 388 
Q 2188 388 2466 706 
Q 2744 1025 2744 1678 
Q 2744 2294 2464 2611 
Q 2184 2928 1769 2928 
Q 1347 2928 1069 2612 
Q 791 2297 791 1659 
z
" transform="scale(0.015625)"/>
       <path id="ArialMT-72" d="M 416 0 
L 416 3319 
L 922 3319 
L 922 2816 
Q 1116 3169 1280 3281 
Q 1444 3394 1641 3394 
Q 1925 3394 2219 3213 
L 2025 2691 
Q 1819 2813 1613 2813 
Q 1428 2813 1281 2702 
Q 1134 2591 1072 2394 
Q 978 2094 978 1738 
L 978 0 
L 416 0 
z
" transform="scale(0.015625)"/>
       <path id="ArialMT-6c" d="M 409 0 
L 409 4581 
L 972 4581 
L 972 0 
L 409 0 
z
" transform="scale(0.015625)"/>
       <path id="ArialMT-20" transform="scale(0.015625)"/>
       <path id="ArialMT-4d" d="M 475 0 
L 475 4581 
L 1388 4581 
L 2472 1338 
Q 2622 884 2691 659 
Q 2769 909 2934 1394 
L 4031 4581 
L 4847 4581 
L 4847 0 
L 4263 0 
L 4263 3834 
L 2931 0 
L 2384 0 
L 1059 3900 
L 1059 0 
L 475 0 
z
" transform="scale(0.015625)"/>
       <path id="ArialMT-74" d="M 1650 503 
L 1731 6 
Q 1494 -44 1306 -44 
Q 1000 -44 831 53 
Q 663 150 594 308 
Q 525 466 525 972 
L 525 2881 
L 113 2881 
L 113 3319 
L 525 3319 
L 525 4141 
L 1084 4478 
L 1084 3319 
L 1650 3319 
L 1650 2881 
L 1084 2881 
L 1084 941 
Q 1084 700 1114 631 
Q 1144 563 1211 522 
Q 1278 481 1403 481 
Q 1497 481 1650 503 
z
" transform="scale(0.015625)"/>
       <path id="ArialMT-6e" d="M 422 0 
L 422 3319 
L 928 3319 
L 928 2847 
Q 1294 3394 1984 3394 
Q 2284 3394 2536 3286 
Q 2788 3178 2913 3003 
Q 3038 2828 3088 2588 
Q 3119 2431 3119 2041 
L 3119 0 
L 2556 0 
L 2556 2019 
Q 2556 2363 2490 2533 
Q 2425 2703 2258 2804 
Q 2091 2906 1866 2906 
Q 1506 2906 1245 2678 
Q 984 2450 984 1813 
L 984 0 
L 422 0 
z
" transform="scale(0.015625)"/>
       <path id="ArialMT-28" d="M 1497 -1347 
Q 1031 -759 709 28 
Q 388 816 388 1659 
Q 388 2403 628 3084 
Q 909 3875 1497 4659 
L 1900 4659 
Q 1522 4009 1400 3731 
Q 1209 3300 1100 2831 
Q 966 2247 966 1656 
Q 966 153 1900 -1347 
L 1497 -1347 
z
" transform="scale(0.015625)"/>
       <path id="ArialMT-48" d="M 513 0 
L 513 4581 
L 1119 4581 
L 1119 2700 
L 3500 2700 
L 3500 4581 
L 4106 4581 
L 4106 0 
L 3500 0 
L 3500 2159 
L 1119 2159 
L 1119 0 
L 513 0 
z
" transform="scale(0.015625)"/>
       <path id="ArialMT-53" d="M 288 1472 
L 859 1522 
Q 900 1178 1048 958 
Q 1197 738 1509 602 
Q 1822 466 2213 466 
Q 2559 466 2825 569 
Q 3091 672 3220 851 
Q 3350 1031 3350 1244 
Q 3350 1459 3225 1620 
Q 3100 1781 2813 1891 
Q 2628 1963 1997 2114 
Q 1366 2266 1113 2400 
Q 784 2572 623 2826 
Q 463 3081 463 3397 
Q 463 3744 659 4045 
Q 856 4347 1234 4503 
Q 1613 4659 2075 4659 
Q 2584 4659 2973 4495 
Q 3363 4331 3572 4012 
Q 3781 3694 3797 3291 
L 3216 3247 
Q 3169 3681 2898 3903 
Q 2628 4125 2100 4125 
Q 1550 4125 1298 3923 
Q 1047 3722 1047 3438 
Q 1047 3191 1225 3031 
Q 1400 2872 2139 2705 
Q 2878 2538 3153 2413 
Q 3553 2228 3743 1945 
Q 3934 1663 3934 1294 
Q 3934 928 3725 604 
Q 3516 281 3123 101 
Q 2731 -78 2241 -78 
Q 1619 -78 1198 103 
Q 778 284 539 648 
Q 300 1013 288 1472 
z
" transform="scale(0.015625)"/>
       <path id="ArialMT-3e" d="M 3384 2003 
L 350 706 
L 350 1266 
L 2753 2263 
L 350 3250 
L 350 3809 
L 3384 2528 
L 3384 2003 
z
" transform="scale(0.015625)"/>
       <path id="ArialMT-4c" d="M 469 0 
L 469 4581 
L 1075 4581 
L 1075 541 
L 3331 541 
L 3331 0 
L 469 0 
z
" transform="scale(0.015625)"/>
       <path id="ArialMT-29" d="M 791 -1347 
L 388 -1347 
Q 1322 153 1322 1656 
Q 1322 2244 1188 2822 
Q 1081 3291 891 3722 
Q 769 4003 388 4659 
L 791 4659 
Q 1378 3875 1659 3084 
Q 1900 2403 1900 1659 
Q 1900 816 1576 28 
Q 1253 -759 791 -1347 
z
" transform="scale(0.015625)"/>
      </defs>
      <use xlink:href="#ArialMT-42"/>
      <use xlink:href="#ArialMT-65" x="66.699219"/>
      <use xlink:href="#ArialMT-68" x="122.314453"/>
      <use xlink:href="#ArialMT-61" x="177.929688"/>
      <use xlink:href="#ArialMT-76" x="233.544922"/>
      <use xlink:href="#ArialMT-69" x="283.544922"/>
      <use xlink:href="#ArialMT-6f" x="305.761719"/>
      <use xlink:href="#ArialMT-72" x="361.376953"/>
      <use xlink:href="#ArialMT-61" x="394.677734"/>
      <use xlink:href="#ArialMT-6c" x="450.292969"/>
      <use xlink:href="#ArialMT-20" x="472.509766"/>
      <use xlink:href="#ArialMT-4d" x="500.292969"/>
      <use xlink:href="#ArialMT-6f" x="583.59375"/>
      <use xlink:href="#ArialMT-74" x="639.208984"/>
      <use xlink:href="#ArialMT-69" x="666.992188"/>
      <use xlink:href="#ArialMT-76" x="689.208984"/>
      <use xlink:href="#ArialMT-61" x="739.208984"/>
      <use xlink:href="#ArialMT-74" x="794.824219"/>
      <use xlink:href="#ArialMT-69" x="822.607422"/>
      <use xlink:href="#ArialMT-6f" x="844.824219"/>
      <use xlink:href="#ArialMT-6e" x="900.439453"/>
      <use xlink:href="#ArialMT-20" x="956.054688"/>
      <use xlink:href="#ArialMT-28" x="983.837891"/>
      <use xlink:href="#ArialMT-48" x="1017.138672"/>
      <use xlink:href="#ArialMT-53" x="1089.355469"/>
      <use xlink:href="#ArialMT-3e" x="1156.054688"/>
      <use xlink:href="#ArialMT-4c" x="1214.453125"/>
      <use xlink:href="#ArialMT-53" x="1270.068359"/>
      <use xlink:href="#ArialMT-29" x="1336.767578"/>
     </g>
    </g>
   </g>
   <g id="matplotlib.axis_2">
    <g id="ytick_1">
     <g id="text_7">
      <!-- −0.4 -->
      <g style="fill: #262626" transform="translate(49.523 291.198249) scale(0.16 -0.16)">
       <defs>
        <path id="ArialMT-34" d="M 2069 0 
L 2069 1097 
L 81 1097 
L 81 1613 
L 2172 4581 
L 2631 4581 
L 2631 1613 
L 3250 1613 
L 3250 1097 
L 2631 1097 
L 2631 0 
L 2069 0 
z
M 2069 1613 
L 2069 3678 
L 634 1613 
L 2069 1613 
z
" transform="scale(0.015625)"/>
       </defs>
       <use xlink:href="#ArialMT-2212"/>
       <use xlink:href="#ArialMT-30" x="58.398438"/>
       <use xlink:href="#ArialMT-2e" x="114.013672"/>
       <use xlink:href="#ArialMT-34" x="141.796875"/>
      </g>
     </g>
    </g>
    <g id="ytick_2">
     <g id="text_8">
      <!-- −0.2 -->
      <g style="fill: #262626" transform="translate(49.523 239.22282) scale(0.16 -0.16)">
       <use xlink:href="#ArialMT-2212"/>
       <use xlink:href="#ArialMT-30" x="58.398438"/>
       <use xlink:href="#ArialMT-2e" x="114.013672"/>
       <use xlink:href="#ArialMT-32" x="141.796875"/>
      </g>
     </g>
    </g>
    <g id="ytick_3">
     <g id="text_9">
      <!-- 0.0 -->
      <g style="fill: #262626" transform="translate(58.868 187.247391) scale(0.16 -0.16)">
       <use xlink:href="#ArialMT-30"/>
       <use xlink:href="#ArialMT-2e" x="55.615234"/>
       <use xlink:href="#ArialMT-30" x="83.398438"/>
      </g>
     </g>
    </g>
    <g id="ytick_4">
     <g id="text_10">
      <!-- 0.2 -->
      <g style="fill: #262626" transform="translate(58.868 135.271963) scale(0.16 -0.16)">
       <use xlink:href="#ArialMT-30"/>
       <use xlink:href="#ArialMT-2e" x="55.615234"/>
       <use xlink:href="#ArialMT-32" x="83.398438"/>
      </g>
     </g>
    </g>
    <g id="ytick_5">
     <g id="text_11">
      <!-- 0.4 -->
      <g style="fill: #262626" transform="translate(58.868 83.296534) scale(0.16 -0.16)">
       <use xlink:href="#ArialMT-30"/>
       <use xlink:href="#ArialMT-2e" x="55.615234"/>
       <use xlink:href="#ArialMT-34" x="83.398438"/>
      </g>
     </g>
    </g>
    <g id="ytick_6">
     <g id="text_12">
      <!-- 0.6 -->
      <g style="fill: #262626" transform="translate(58.868 31.321105) scale(0.16 -0.16)">
       <defs>
        <path id="ArialMT-36" d="M 3184 3459 
L 2625 3416 
Q 2550 3747 2413 3897 
Q 2184 4138 1850 4138 
Q 1581 4138 1378 3988 
Q 1113 3794 959 3422 
Q 806 3050 800 2363 
Q 1003 2672 1297 2822 
Q 1591 2972 1913 2972 
Q 2475 2972 2870 2558 
Q 3266 2144 3266 1488 
Q 3266 1056 3080 686 
Q 2894 316 2569 119 
Q 2244 -78 1831 -78 
Q 1128 -78 684 439 
Q 241 956 241 2144 
Q 241 3472 731 4075 
Q 1159 4600 1884 4600 
Q 2425 4600 2770 4297 
Q 3116 3994 3184 3459 
z
M 888 1484 
Q 888 1194 1011 928 
Q 1134 663 1356 523 
Q 1578 384 1822 384 
Q 2178 384 2434 671 
Q 2691 959 2691 1453 
Q 2691 1928 2437 2201 
Q 2184 2475 1800 2475 
Q 1419 2475 1153 2201 
Q 888 1928 888 1484 
z
" transform="scale(0.015625)"/>
       </defs>
       <use xlink:href="#ArialMT-30"/>
       <use xlink:href="#ArialMT-2e" x="55.615234"/>
       <use xlink:href="#ArialMT-36" x="83.398438"/>
      </g>
     </g>
    </g>
    <g id="text_13">
     <!-- Simple Slope of Reward Sensitivity -->
     <g style="fill: #262626" transform="translate(19.633 312.9575) rotate(-90) scale(0.2 -0.2)">
      <defs>
       <path id="ArialMT-6d" d="M 422 0 
L 422 3319 
L 925 3319 
L 925 2853 
Q 1081 3097 1340 3245 
Q 1600 3394 1931 3394 
Q 2300 3394 2536 3241 
Q 2772 3088 2869 2813 
Q 3263 3394 3894 3394 
Q 4388 3394 4653 3120 
Q 4919 2847 4919 2278 
L 4919 0 
L 4359 0 
L 4359 2091 
Q 4359 2428 4304 2576 
Q 4250 2725 4106 2815 
Q 3963 2906 3769 2906 
Q 3419 2906 3187 2673 
Q 2956 2441 2956 1928 
L 2956 0 
L 2394 0 
L 2394 2156 
Q 2394 2531 2256 2718 
Q 2119 2906 1806 2906 
Q 1569 2906 1367 2781 
Q 1166 2656 1075 2415 
Q 984 2175 984 1722 
L 984 0 
L 422 0 
z
" transform="scale(0.015625)"/>
       <path id="ArialMT-70" d="M 422 -1272 
L 422 3319 
L 934 3319 
L 934 2888 
Q 1116 3141 1344 3267 
Q 1572 3394 1897 3394 
Q 2322 3394 2647 3175 
Q 2972 2956 3137 2557 
Q 3303 2159 3303 1684 
Q 3303 1175 3120 767 
Q 2938 359 2589 142 
Q 2241 -75 1856 -75 
Q 1575 -75 1351 44 
Q 1128 163 984 344 
L 984 -1272 
L 422 -1272 
z
M 931 1641 
Q 931 1000 1190 694 
Q 1450 388 1819 388 
Q 2194 388 2461 705 
Q 2728 1022 2728 1688 
Q 2728 2322 2467 2637 
Q 2206 2953 1844 2953 
Q 1484 2953 1207 2617 
Q 931 2281 931 1641 
z
" transform="scale(0.015625)"/>
       <path id="ArialMT-66" d="M 556 0 
L 556 2881 
L 59 2881 
L 59 3319 
L 556 3319 
L 556 3672 
Q 556 4006 616 4169 
Q 697 4388 901 4523 
Q 1106 4659 1475 4659 
Q 1713 4659 2000 4603 
L 1916 4113 
Q 1741 4144 1584 4144 
Q 1328 4144 1222 4034 
Q 1116 3925 1116 3625 
L 1116 3319 
L 1763 3319 
L 1763 2881 
L 1116 2881 
L 1116 0 
L 556 0 
z
" transform="scale(0.015625)"/>
       <path id="ArialMT-52" d="M 503 0 
L 503 4581 
L 2534 4581 
Q 3147 4581 3465 4457 
Q 3784 4334 3975 4021 
Q 4166 3709 4166 3331 
Q 4166 2844 3850 2509 
Q 3534 2175 2875 2084 
Q 3116 1969 3241 1856 
Q 3506 1613 3744 1247 
L 4541 0 
L 3778 0 
L 3172 953 
Q 2906 1366 2734 1584 
Q 2563 1803 2427 1890 
Q 2291 1978 2150 2013 
Q 2047 2034 1813 2034 
L 1109 2034 
L 1109 0 
L 503 0 
z
M 1109 2559 
L 2413 2559 
Q 2828 2559 3062 2645 
Q 3297 2731 3419 2920 
Q 3541 3109 3541 3331 
Q 3541 3656 3305 3865 
Q 3069 4075 2559 4075 
L 1109 4075 
L 1109 2559 
z
" transform="scale(0.015625)"/>
       <path id="ArialMT-77" d="M 1034 0 
L 19 3319 
L 600 3319 
L 1128 1403 
L 1325 691 
Q 1338 744 1497 1375 
L 2025 3319 
L 2603 3319 
L 3100 1394 
L 3266 759 
L 3456 1400 
L 4025 3319 
L 4572 3319 
L 3534 0 
L 2950 0 
L 2422 1988 
L 2294 2553 
L 1622 0 
L 1034 0 
z
" transform="scale(0.015625)"/>
       <path id="ArialMT-64" d="M 2575 0 
L 2575 419 
Q 2259 -75 1647 -75 
Q 1250 -75 917 144 
Q 584 363 401 755 
Q 219 1147 219 1656 
Q 219 2153 384 2558 
Q 550 2963 881 3178 
Q 1213 3394 1622 3394 
Q 1922 3394 2156 3267 
Q 2391 3141 2538 2938 
L 2538 4581 
L 3097 4581 
L 3097 0 
L 2575 0 
z
M 797 1656 
Q 797 1019 1065 703 
Q 1334 388 1700 388 
Q 2069 388 2326 689 
Q 2584 991 2584 1609 
Q 2584 2291 2321 2609 
Q 2059 2928 1675 2928 
Q 1300 2928 1048 2622 
Q 797 2316 797 1656 
z
" transform="scale(0.015625)"/>
       <path id="ArialMT-73" d="M 197 991 
L 753 1078 
Q 800 744 1014 566 
Q 1228 388 1613 388 
Q 2000 388 2187 545 
Q 2375 703 2375 916 
Q 2375 1106 2209 1216 
Q 2094 1291 1634 1406 
Q 1016 1563 777 1677 
Q 538 1791 414 1992 
Q 291 2194 291 2438 
Q 291 2659 392 2848 
Q 494 3038 669 3163 
Q 800 3259 1026 3326 
Q 1253 3394 1513 3394 
Q 1903 3394 2198 3281 
Q 2494 3169 2634 2976 
Q 2775 2784 2828 2463 
L 2278 2388 
Q 2241 2644 2061 2787 
Q 1881 2931 1553 2931 
Q 1166 2931 1000 2803 
Q 834 2675 834 2503 
Q 834 2394 903 2306 
Q 972 2216 1119 2156 
Q 1203 2125 1616 2013 
Q 2213 1853 2448 1751 
Q 2684 1650 2818 1456 
Q 2953 1263 2953 975 
Q 2953 694 2789 445 
Q 2625 197 2315 61 
Q 2006 -75 1616 -75 
Q 969 -75 630 194 
Q 291 463 197 991 
z
" transform="scale(0.015625)"/>
       <path id="ArialMT-79" d="M 397 -1278 
L 334 -750 
Q 519 -800 656 -800 
Q 844 -800 956 -737 
Q 1069 -675 1141 -563 
Q 1194 -478 1313 -144 
Q 1328 -97 1363 -6 
L 103 3319 
L 709 3319 
L 1400 1397 
Q 1534 1031 1641 628 
Q 1738 1016 1872 1384 
L 2581 3319 
L 3144 3319 
L 1881 -56 
Q 1678 -603 1566 -809 
Q 1416 -1088 1222 -1217 
Q 1028 -1347 759 -1347 
Q 597 -1347 397 -1278 
z
" transform="scale(0.015625)"/>
      </defs>
      <use xlink:href="#ArialMT-53"/>
      <use xlink:href="#ArialMT-69" x="66.699219"/>
      <use xlink:href="#ArialMT-6d" x="88.916016"/>
      <use xlink:href="#ArialMT-70" x="172.216797"/>
      <use xlink:href="#ArialMT-6c" x="227.832031"/>
      <use xlink:href="#ArialMT-65" x="250.048828"/>
      <use xlink:href="#ArialMT-20" x="305.664062"/>
      <use xlink:href="#ArialMT-53" x="333.447266"/>
      <use xlink:href="#ArialMT-6c" x="400.146484"/>
      <use xlink:href="#ArialMT-6f" x="422.363281"/>
      <use xlink:href="#ArialMT-70" x="477.978516"/>
      <use xlink:href="#ArialMT-65" x="533.59375"/>
      <use xlink:href="#ArialMT-20" x="589.208984"/>
      <use xlink:href="#ArialMT-6f" x="616.992188"/>
      <use xlink:href="#ArialMT-66" x="672.607422"/>
      <use xlink:href="#ArialMT-20" x="700.390625"/>
      <use xlink:href="#ArialMT-52" x="728.173828"/>
      <use xlink:href="#ArialMT-65" x="800.390625"/>
      <use xlink:href="#ArialMT-77" x="856.005859"/>
      <use xlink:href="#ArialMT-61" x="928.222656"/>
      <use xlink:href="#ArialMT-72" x="983.837891"/>
      <use xlink:href="#ArialMT-64" x="1017.138672"/>
      <use xlink:href="#ArialMT-20" x="1072.753906"/>
      <use xlink:href="#ArialMT-53" x="1100.537109"/>
      <use xlink:href="#ArialMT-65" x="1167.236328"/>
      <use xlink:href="#ArialMT-6e" x="1222.851562"/>
      <use xlink:href="#ArialMT-73" x="1278.466797"/>
      <use xlink:href="#ArialMT-69" x="1328.466797"/>
      <use xlink:href="#ArialMT-74" x="1350.683594"/>
      <use xlink:href="#ArialMT-69" x="1378.466797"/>
      <use xlink:href="#ArialMT-76" x="1400.683594"/>
      <use xlink:href="#ArialMT-69" x="1450.683594"/>
      <use xlink:href="#ArialMT-74" x="1472.900391"/>
      <use xlink:href="#ArialMT-79" x="1500.683594"/>
     </g>
     <!-- on DMN-VS (HS&gt;LS) (zstat) -->
     <g style="fill: #262626" transform="translate(41.313625 283.195) rotate(-90) scale(0.2 -0.2)">
      <defs>
       <path id="ArialMT-44" d="M 494 0 
L 494 4581 
L 2072 4581 
Q 2606 4581 2888 4516 
Q 3281 4425 3559 4188 
Q 3922 3881 4101 3404 
Q 4281 2928 4281 2316 
Q 4281 1794 4159 1391 
Q 4038 988 3847 723 
Q 3656 459 3429 307 
Q 3203 156 2883 78 
Q 2563 0 2147 0 
L 494 0 
z
M 1100 541 
L 2078 541 
Q 2531 541 2789 625 
Q 3047 709 3200 863 
Q 3416 1078 3536 1442 
Q 3656 1806 3656 2325 
Q 3656 3044 3420 3430 
Q 3184 3816 2847 3947 
Q 2603 4041 2063 4041 
L 1100 4041 
L 1100 541 
z
" transform="scale(0.015625)"/>
       <path id="ArialMT-4e" d="M 488 0 
L 488 4581 
L 1109 4581 
L 3516 984 
L 3516 4581 
L 4097 4581 
L 4097 0 
L 3475 0 
L 1069 3600 
L 1069 0 
L 488 0 
z
" transform="scale(0.015625)"/>
       <path id="ArialMT-2d" d="M 203 1375 
L 203 1941 
L 1931 1941 
L 1931 1375 
L 203 1375 
z
" transform="scale(0.015625)"/>
       <path id="ArialMT-56" d="M 1803 0 
L 28 4581 
L 684 4581 
L 1875 1253 
Q 2019 853 2116 503 
Q 2222 878 2363 1253 
L 3600 4581 
L 4219 4581 
L 2425 0 
L 1803 0 
z
" transform="scale(0.015625)"/>
       <path id="ArialMT-7a" d="M 125 0 
L 125 456 
L 2238 2881 
Q 1878 2863 1603 2863 
L 250 2863 
L 250 3319 
L 2963 3319 
L 2963 2947 
L 1166 841 
L 819 456 
Q 1197 484 1528 484 
L 3063 484 
L 3063 0 
L 125 0 
z
" transform="scale(0.015625)"/>
      </defs>
      <use xlink:href="#ArialMT-6f"/>
      <use xlink:href="#ArialMT-6e" x="55.615234"/>
      <use xlink:href="#ArialMT-20" x="111.230469"/>
      <use xlink:href="#ArialMT-44" x="139.013672"/>
      <use xlink:href="#ArialMT-4d" x="211.230469"/>
      <use xlink:href="#ArialMT-4e" x="294.53125"/>
      <use xlink:href="#ArialMT-2d" x="366.748047"/>
      <use xlink:href="#ArialMT-56" x="400.048828"/>
      <use xlink:href="#ArialMT-53" x="466.748047"/>
      <use xlink:href="#ArialMT-20" x="533.447266"/>
      <use xlink:href="#ArialMT-28" x="561.230469"/>
      <use xlink:href="#ArialMT-48" x="594.53125"/>
      <use xlink:href="#ArialMT-53" x="666.748047"/>
      <use xlink:href="#ArialMT-3e" x="733.447266"/>
      <use xlink:href="#ArialMT-4c" x="791.845703"/>
      <use xlink:href="#ArialMT-53" x="847.460938"/>
      <use xlink:href="#ArialMT-29" x="914.160156"/>
      <use xlink:href="#ArialMT-20" x="947.460938"/>
      <use xlink:href="#ArialMT-28" x="975.244141"/>
      <use xlink:href="#ArialMT-7a" x="1008.544922"/>
      <use xlink:href="#ArialMT-73" x="1058.544922"/>
      <use xlink:href="#ArialMT-74" x="1108.544922"/>
      <use xlink:href="#ArialMT-61" x="1136.328125"/>
      <use xlink:href="#ArialMT-74" x="1191.943359"/>
      <use xlink:href="#ArialMT-29" x="1219.726562"/>
     </g>
    </g>
   </g>
   <g id="PolyCollection_1">
    <defs>
     <path id="m2f8bcb7b13" d="M 101.875818 -341.100455 
L 101.875818 -193.603895 
L 104.657196 -193.226085 
L 107.438573 -192.847572 
L 110.21995 -192.468319 
L 113.001328 -192.088289 
L 115.782705 -191.70744 
L 118.564083 -191.325729 
L 121.34546 -190.943108 
L 124.126837 -190.559529 
L 126.908215 -190.174937 
L 129.689592 -189.789273 
L 132.47097 -189.402475 
L 135.252347 -189.014477 
L 138.033725 -188.625204 
L 140.815102 -188.234579 
L 143.596479 -187.842516 
L 146.377857 -187.448923 
L 149.159234 -187.0537 
L 151.940612 -186.656737 
L 154.721989 -186.257916 
L 157.503366 -185.857107 
L 160.284744 -185.454167 
L 163.066121 -185.048942 
L 165.847499 -184.641261 
L 168.628876 -184.230937 
L 171.410253 -183.817762 
L 174.191631 -183.401509 
L 176.973008 -182.981925 
L 179.754386 -182.55873 
L 182.535763 -182.131613 
L 185.31714 -181.700227 
L 188.098518 -181.264185 
L 190.879895 -180.823054 
L 193.661273 -180.376345 
L 196.44265 -179.923511 
L 199.224028 -179.463933 
L 202.005405 -178.99691 
L 204.786782 -178.521646 
L 207.56816 -178.037237 
L 210.349537 -177.542648 
L 213.130915 -177.036696 
L 215.912292 -176.518022 
L 218.693669 -175.985062 
L 221.475047 -175.436013 
L 224.256424 -174.868791 
L 227.037802 -174.280981 
L 229.819179 -173.66979 
L 232.600556 -173.03198 
L 235.381934 -172.363803 
L 238.163311 -171.660938 
L 240.944689 -170.918423 
L 243.726066 -170.1306 
L 246.507444 -169.291096 
L 249.288821 -168.392837 
L 252.070198 -167.428139 
L 254.851576 -166.388902 
L 257.632953 -165.266915 
L 260.414331 -164.054299 
L 263.195708 -162.744057 
L 265.977085 -161.330671 
L 268.758463 -159.810646 
L 271.53984 -158.182891 
L 274.321218 -156.448842 
L 277.102595 -154.612302 
L 279.883972 -152.67903 
L 282.66535 -150.656178 
L 285.446727 -148.551701 
L 288.228105 -146.37382 
L 291.009482 -144.130593 
L 293.79086 -141.829627 
L 296.572237 -139.477903 
L 299.353614 -137.081696 
L 302.134992 -134.646564 
L 304.916369 -132.177379 
L 307.697747 -129.678378 
L 310.479124 -127.153233 
L 313.260501 -124.605118 
L 316.041879 -122.036772 
L 318.823256 -119.450558 
L 321.604634 -116.848519 
L 324.386011 -114.232425 
L 327.167388 -111.603808 
L 329.948766 -108.964001 
L 332.730143 -106.314166 
L 335.511521 -103.655317 
L 338.292898 -100.988344 
L 341.074275 -98.314028 
L 343.855653 -95.633058 
L 346.63703 -92.946043 
L 349.418408 -90.253521 
L 352.199785 -87.555972 
L 354.981163 -84.853824 
L 357.76254 -82.147457 
L 360.543917 -79.437212 
L 363.325295 -76.723398 
L 366.106672 -74.006289 
L 368.88805 -71.286135 
L 371.669427 -68.56316 
L 374.450804 -65.837568 
L 377.232182 -63.109545 
L 377.232182 -161.4355 
L 377.232182 -161.4355 
L 374.450804 -161.840399 
L 371.669427 -162.24773 
L 368.88805 -162.657677 
L 366.106672 -163.070445 
L 363.325295 -163.486258 
L 360.543917 -163.905366 
L 357.76254 -164.328044 
L 354.981163 -164.754599 
L 352.199785 -165.185373 
L 349.418408 -165.620747 
L 346.63703 -166.061147 
L 343.855653 -166.507054 
L 341.074275 -166.959007 
L 338.292898 -167.417613 
L 335.511521 -167.883562 
L 332.730143 -168.357636 
L 329.948766 -168.840723 
L 327.167388 -169.333838 
L 324.386011 -169.838143 
L 321.604634 -170.354971 
L 318.823256 -170.885855 
L 316.041879 -171.432563 
L 313.260501 -171.997139 
L 310.479124 -172.581946 
L 307.697747 -173.189724 
L 304.916369 -173.823645 
L 302.134992 -174.487382 
L 299.353614 -175.185173 
L 296.572237 -175.921888 
L 293.79086 -176.703087 
L 291.009482 -177.535043 
L 288.228105 -178.424738 
L 285.446727 -179.379778 
L 282.66535 -180.408224 
L 279.883972 -181.518295 
L 277.102595 -182.717944 
L 274.321218 -184.014327 
L 271.53984 -185.4132 
L 268.758463 -186.918367 
L 265.977085 -188.531264 
L 263.195708 -190.250801 
L 260.414331 -192.073482 
L 257.632953 -193.993788 
L 254.851576 -196.004722 
L 252.070198 -198.098408 
L 249.288821 -200.266632 
L 246.507444 -202.501295 
L 243.726066 -204.794714 
L 240.944689 -207.139813 
L 238.163311 -209.53022 
L 235.381934 -211.960278 
L 232.600556 -214.425023 
L 229.819179 -216.920135 
L 227.037802 -219.441866 
L 224.256424 -221.986979 
L 221.475047 -224.552679 
L 218.693669 -227.136552 
L 215.912292 -229.736514 
L 213.130915 -232.350763 
L 210.349537 -234.977733 
L 207.56816 -237.616066 
L 204.786782 -240.264579 
L 202.005405 -242.922238 
L 199.224028 -245.588137 
L 196.44265 -248.261481 
L 193.661273 -250.94157 
L 190.879895 -253.627783 
L 188.098518 -256.319574 
L 185.31714 -259.016454 
L 182.535763 -261.717991 
L 179.754386 -264.423796 
L 176.973008 -267.133524 
L 174.191631 -269.846862 
L 171.410253 -272.563531 
L 168.628876 -275.283278 
L 165.847499 -278.005876 
L 163.066121 -280.731117 
L 160.284744 -283.458815 
L 157.503366 -286.188797 
L 154.721989 -288.92091 
L 151.940612 -291.655011 
L 149.159234 -294.390971 
L 146.377857 -297.12867 
L 143.596479 -299.867999 
L 140.815102 -302.608859 
L 138.033725 -305.351156 
L 135.252347 -308.094806 
L 132.47097 -310.839729 
L 129.689592 -313.585854 
L 126.908215 -316.333112 
L 124.126837 -319.081442 
L 121.34546 -321.830785 
L 118.564083 -324.581087 
L 115.782705 -327.332298 
L 113.001328 -330.084372 
L 110.21995 -332.837263 
L 107.438573 -335.590933 
L 104.657196 -338.345342 
L 101.875818 -341.100455 
z
" style="stroke: #808080; stroke-opacity: 0.3"/>
    </defs>
    <g clip-path="url(#peaa29610b1)">
     <use xlink:href="#m2f8bcb7b13" x="0" y="360" style="fill: #808080; fill-opacity: 0.3; stroke: #808080; stroke-opacity: 0.3"/>
    </g>
   </g>
   <g id="PolyCollection_2">
    <path d="M 101.875818 18.899545 
L 101.875818 166.396105 
L 104.657196 166.773915 
L 107.438573 167.152428 
L 110.21995 167.531681 
L 113.001328 167.911711 
L 115.782705 168.29256 
L 118.564083 168.674271 
L 121.34546 169.056892 
L 124.126837 169.440471 
L 126.908215 169.825063 
L 129.689592 170.210727 
L 132.47097 170.597525 
L 135.252347 170.985523 
L 138.033725 171.374796 
L 140.815102 171.765421 
L 143.596479 172.157484 
L 146.377857 172.551077 
L 149.159234 172.9463 
L 151.940612 173.343263 
L 154.721989 173.742084 
L 157.503366 174.142893 
L 160.284744 174.545833 
L 163.066121 174.951058 
L 165.847499 175.358739 
L 168.628876 175.769063 
L 171.410253 176.182238 
L 174.191631 176.598491 
L 176.973008 177.018075 
L 179.754386 177.44127 
L 182.535763 177.868387 
L 185.31714 178.299773 
L 188.098518 178.735815 
L 190.879895 179.176946 
L 193.661273 179.623655 
L 196.44265 180.076489 
L 199.224028 180.536067 
L 202.005405 181.00309 
L 204.786782 181.478354 
L 204.786782 119.735421 
L 204.786782 119.735421 
L 202.005405 117.077762 
L 199.224028 114.411863 
L 196.44265 111.738519 
L 193.661273 109.05843 
L 190.879895 106.372217 
L 188.098518 103.680426 
L 185.31714 100.983546 
L 182.535763 98.282009 
L 179.754386 95.576204 
L 176.973008 92.866476 
L 174.191631 90.153138 
L 171.410253 87.436469 
L 168.628876 84.716722 
L 165.847499 81.994124 
L 163.066121 79.268883 
L 160.284744 76.541185 
L 157.503366 73.811203 
L 154.721989 71.07909 
L 151.940612 68.344989 
L 149.159234 65.609029 
L 146.377857 62.87133 
L 143.596479 60.132001 
L 140.815102 57.391141 
L 138.033725 54.648844 
L 135.252347 51.905194 
L 132.47097 49.160271 
L 129.689592 46.414146 
L 126.908215 43.666888 
L 124.126837 40.918558 
L 121.34546 38.169215 
L 118.564083 35.418913 
L 115.782705 32.667702 
L 113.001328 29.915628 
L 110.21995 27.162737 
L 107.438573 24.409067 
L 104.657196 21.654658 
L 101.875818 18.899545 
z
" clip-path="url(#peaa29610b1)" style="fill: #008000; fill-opacity: 0.2; stroke: #008000; stroke-opacity: 0.2"/>
    <path d="M 288.228105 181.575262 
L 288.228105 213.62618 
L 291.009482 215.869407 
L 293.79086 218.170373 
L 296.572237 220.522097 
L 299.353614 222.918304 
L 302.134992 225.353436 
L 304.916369 227.822621 
L 307.697747 230.321622 
L 310.479124 232.846767 
L 313.260501 235.394882 
L 316.041879 237.963228 
L 318.823256 240.549442 
L 321.604634 243.151481 
L 324.386011 245.767575 
L 327.167388 248.396192 
L 329.948766 251.035999 
L 332.730143 253.685834 
L 335.511521 256.344683 
L 338.292898 259.011656 
L 341.074275 261.685972 
L 343.855653 264.366942 
L 346.63703 267.053957 
L 349.418408 269.746479 
L 352.199785 272.444028 
L 354.981163 275.146176 
L 357.76254 277.852543 
L 360.543917 280.562788 
L 363.325295 283.276602 
L 366.106672 285.993711 
L 368.88805 288.713865 
L 371.669427 291.43684 
L 374.450804 294.162432 
L 377.232182 296.890455 
L 377.232182 198.5645 
L 377.232182 198.5645 
L 374.450804 198.159601 
L 371.669427 197.75227 
L 368.88805 197.342323 
L 366.106672 196.929555 
L 363.325295 196.513742 
L 360.543917 196.094634 
L 357.76254 195.671956 
L 354.981163 195.245401 
L 352.199785 194.814627 
L 349.418408 194.379253 
L 346.63703 193.938853 
L 343.855653 193.492946 
L 341.074275 193.040993 
L 338.292898 192.582387 
L 335.511521 192.116438 
L 332.730143 191.642364 
L 329.948766 191.159277 
L 327.167388 190.666162 
L 324.386011 190.161857 
L 321.604634 189.645029 
L 318.823256 189.114145 
L 316.041879 188.567437 
L 313.260501 188.002861 
L 310.479124 187.418054 
L 307.697747 186.810276 
L 304.916369 186.176355 
L 302.134992 185.512618 
L 299.353614 184.814827 
L 296.572237 184.078112 
L 293.79086 183.296913 
L 291.009482 182.464957 
L 288.228105 181.575262 
z
" clip-path="url(#peaa29610b1)" style="fill: #008000; fill-opacity: 0.2; stroke: #008000; stroke-opacity: 0.2"/>
   </g>
   <g id="line2d_1">
    <path d="M 101.875818 92.647825 
L 104.657196 94.214286 
L 107.438573 95.780748 
L 110.21995 97.347209 
L 113.001328 98.91367 
L 115.782705 100.480131 
L 118.564083 102.046592 
L 121.34546 103.613053 
L 124.126837 105.179514 
L 126.908215 106.745975 
L 129.689592 108.312437 
L 132.47097 109.878898 
L 135.252347 111.445359 
L 138.033725 113.01182 
L 140.815102 114.578281 
L 143.596479 116.144742 
L 146.377857 117.711203 
L 149.159234 119.277665 
L 151.940612 120.844126 
L 154.721989 122.410587 
L 157.503366 123.977048 
L 160.284744 125.543509 
L 163.066121 127.10997 
L 165.847499 128.676431 
L 168.628876 130.242892 
L 171.410253 131.809354 
L 174.191631 133.375815 
L 176.973008 134.942276 
L 179.754386 136.508737 
L 182.535763 138.075198 
L 185.31714 139.641659 
L 188.098518 141.20812 
L 190.879895 142.774582 
L 193.661273 144.341043 
L 196.44265 145.907504 
L 199.224028 147.473965 
L 202.005405 149.040426 
L 204.786782 150.606887 
L 207.56816 152.173348 
L 210.349537 153.739809 
L 213.130915 155.306271 
L 215.912292 156.872732 
L 218.693669 158.439193 
L 221.475047 160.005654 
L 224.256424 161.572115 
L 227.037802 163.138576 
L 229.819179 164.705037 
L 232.600556 166.271499 
L 235.381934 167.83796 
L 238.163311 169.404421 
L 240.944689 170.970882 
L 243.726066 172.537343 
L 246.507444 174.103804 
L 249.288821 175.670265 
L 252.070198 177.236726 
L 254.851576 178.803188 
L 257.632953 180.369649 
L 260.414331 181.93611 
L 263.195708 183.502571 
L 265.977085 185.069032 
L 268.758463 186.635493 
L 271.53984 188.201954 
L 274.321218 189.768416 
L 277.102595 191.334877 
L 279.883972 192.901338 
L 282.66535 194.467799 
L 285.446727 196.03426 
L 288.228105 197.600721 
L 291.009482 199.167182 
L 293.79086 200.733643 
L 296.572237 202.300105 
L 299.353614 203.866566 
L 302.134992 205.433027 
L 304.916369 206.999488 
L 307.697747 208.565949 
L 310.479124 210.13241 
L 313.260501 211.698871 
L 316.041879 213.265333 
L 318.823256 214.831794 
L 321.604634 216.398255 
L 324.386011 217.964716 
L 327.167388 219.531177 
L 329.948766 221.097638 
L 332.730143 222.664099 
L 335.511521 224.23056 
L 338.292898 225.797022 
L 341.074275 227.363483 
L 343.855653 228.929944 
L 346.63703 230.496405 
L 349.418408 232.062866 
L 352.199785 233.629327 
L 354.981163 235.195788 
L 357.76254 236.76225 
L 360.543917 238.328711 
L 363.325295 239.895172 
L 366.106672 241.461633 
L 368.88805 243.028094 
L 371.669427 244.594555 
L 374.450804 246.161016 
L 377.232182 247.727477 
" clip-path="url(#peaa29610b1)" style="fill: none; stroke: #000000; stroke-width: 3; stroke-linecap: round"/>
   </g>
   <g id="line2d_2">
    <path d="M 88.108 181.521141 
L 391 181.521141 
" clip-path="url(#peaa29610b1)" style="fill: none; stroke-dasharray: 5.55,2.4; stroke-dashoffset: 0; stroke: #ff0000; stroke-width: 1.5"/>
   </g>
   <g id="patch_3">
    <path d="M 88.108 310.79 
L 88.108 5 
" style="fill: none; stroke: #000000; stroke-linejoin: miter; stroke-linecap: square"/>
   </g>
   <g id="patch_4">
    <path d="M 88.108 310.79 
L 391 310.79 
" style="fill: none; stroke: #000000; stroke-linejoin: miter; stroke-linecap: square"/>
   </g>
   <g id="legend_1">
    <g id="patch_5">
     <path d="M 141.3925 86.275 
L 379.8 86.275 
Q 383 86.275 383 83.075 
L 383 16.2 
Q 383 13 379.8 13 
L 141.3925 13 
Q 138.1925 13 138.1925 16.2 
L 138.1925 83.075 
Q 138.1925 86.275 141.3925 86.275 
z
" style="fill: #ffffff; opacity: 0.8; stroke: #cccccc; stroke-linejoin: miter"/>
    </g>
    <g id="line2d_3">
     <path d="M 144.5925 25.4475 
L 160.5925 25.4475 
L 176.5925 25.4475 
" style="fill: none; stroke: #000000; stroke-width: 3; stroke-linecap: round"/>
    </g>
    <g id="text_14">
     <!-- Simple Slope -->
     <g style="fill: #262626" transform="translate(189.3925 31.0475) scale(0.16 -0.16)">
      <use xlink:href="#ArialMT-53"/>
      <use xlink:href="#ArialMT-69" x="66.699219"/>
      <use xlink:href="#ArialMT-6d" x="88.916016"/>
      <use xlink:href="#ArialMT-70" x="172.216797"/>
      <use xlink:href="#ArialMT-6c" x="227.832031"/>
      <use xlink:href="#ArialMT-65" x="250.048828"/>
      <use xlink:href="#ArialMT-20" x="305.664062"/>
      <use xlink:href="#ArialMT-53" x="333.447266"/>
      <use xlink:href="#ArialMT-6c" x="400.146484"/>
      <use xlink:href="#ArialMT-6f" x="422.363281"/>
      <use xlink:href="#ArialMT-70" x="477.978516"/>
      <use xlink:href="#ArialMT-65" x="533.59375"/>
     </g>
    </g>
    <g id="patch_6">
     <path d="M 144.5925 53.68 
L 176.5925 53.68 
L 176.5925 42.48 
L 144.5925 42.48 
z
" style="fill: #808080; fill-opacity: 0.3; stroke: #808080; stroke-opacity: 0.3; stroke-linejoin: miter"/>
    </g>
    <g id="text_15">
     <!-- 95% CI -->
     <g style="fill: #262626" transform="translate(189.3925 53.68) scale(0.16 -0.16)">
      <defs>
       <path id="ArialMT-39" d="M 350 1059 
L 891 1109 
Q 959 728 1153 556 
Q 1347 384 1650 384 
Q 1909 384 2104 503 
Q 2300 622 2425 820 
Q 2550 1019 2634 1356 
Q 2719 1694 2719 2044 
Q 2719 2081 2716 2156 
Q 2547 1888 2255 1720 
Q 1963 1553 1622 1553 
Q 1053 1553 659 1965 
Q 266 2378 266 3053 
Q 266 3750 677 4175 
Q 1088 4600 1706 4600 
Q 2153 4600 2523 4359 
Q 2894 4119 3086 3673 
Q 3278 3228 3278 2384 
Q 3278 1506 3087 986 
Q 2897 466 2520 194 
Q 2144 -78 1638 -78 
Q 1100 -78 759 220 
Q 419 519 350 1059 
z
M 2653 3081 
Q 2653 3566 2395 3850 
Q 2138 4134 1775 4134 
Q 1400 4134 1122 3828 
Q 844 3522 844 3034 
Q 844 2597 1108 2323 
Q 1372 2050 1759 2050 
Q 2150 2050 2401 2323 
Q 2653 2597 2653 3081 
z
" transform="scale(0.015625)"/>
       <path id="ArialMT-35" d="M 266 1200 
L 856 1250 
Q 922 819 1161 601 
Q 1400 384 1738 384 
Q 2144 384 2425 690 
Q 2706 997 2706 1503 
Q 2706 1984 2436 2262 
Q 2166 2541 1728 2541 
Q 1456 2541 1237 2417 
Q 1019 2294 894 2097 
L 366 2166 
L 809 4519 
L 3088 4519 
L 3088 3981 
L 1259 3981 
L 1013 2750 
Q 1425 3038 1878 3038 
Q 2478 3038 2890 2622 
Q 3303 2206 3303 1553 
Q 3303 931 2941 478 
Q 2500 -78 1738 -78 
Q 1113 -78 717 272 
Q 322 622 266 1200 
z
" transform="scale(0.015625)"/>
       <path id="ArialMT-25" d="M 372 3481 
Q 372 3972 619 4315 
Q 866 4659 1334 4659 
Q 1766 4659 2048 4351 
Q 2331 4044 2331 3447 
Q 2331 2866 2045 2552 
Q 1759 2238 1341 2238 
Q 925 2238 648 2547 
Q 372 2856 372 3481 
z
M 1350 4272 
Q 1141 4272 1002 4090 
Q 863 3909 863 3425 
Q 863 2984 1003 2804 
Q 1144 2625 1350 2625 
Q 1563 2625 1702 2806 
Q 1841 2988 1841 3469 
Q 1841 3913 1700 4092 
Q 1559 4272 1350 4272 
z
M 1353 -169 
L 3859 4659 
L 4316 4659 
L 1819 -169 
L 1353 -169 
z
M 3334 1075 
Q 3334 1569 3581 1911 
Q 3828 2253 4300 2253 
Q 4731 2253 5014 1945 
Q 5297 1638 5297 1041 
Q 5297 459 5011 145 
Q 4725 -169 4303 -169 
Q 3888 -169 3611 142 
Q 3334 453 3334 1075 
z
M 4316 1866 
Q 4103 1866 3964 1684 
Q 3825 1503 3825 1019 
Q 3825 581 3965 400 
Q 4106 219 4313 219 
Q 4528 219 4667 400 
Q 4806 581 4806 1063 
Q 4806 1506 4665 1686 
Q 4525 1866 4316 1866 
z
" transform="scale(0.015625)"/>
       <path id="ArialMT-43" d="M 3763 1606 
L 4369 1453 
Q 4178 706 3683 314 
Q 3188 -78 2472 -78 
Q 1731 -78 1267 223 
Q 803 525 561 1097 
Q 319 1669 319 2325 
Q 319 3041 592 3573 
Q 866 4106 1370 4382 
Q 1875 4659 2481 4659 
Q 3169 4659 3637 4309 
Q 4106 3959 4291 3325 
L 3694 3184 
Q 3534 3684 3231 3912 
Q 2928 4141 2469 4141 
Q 1941 4141 1586 3887 
Q 1231 3634 1087 3207 
Q 944 2781 944 2328 
Q 944 1744 1114 1308 
Q 1284 872 1643 656 
Q 2003 441 2422 441 
Q 2931 441 3284 734 
Q 3638 1028 3763 1606 
z
" transform="scale(0.015625)"/>
       <path id="ArialMT-49" d="M 597 0 
L 597 4581 
L 1203 4581 
L 1203 0 
L 597 0 
z
" transform="scale(0.015625)"/>
      </defs>
      <use xlink:href="#ArialMT-39"/>
      <use xlink:href="#ArialMT-35" x="55.615234"/>
      <use xlink:href="#ArialMT-25" x="111.230469"/>
      <use xlink:href="#ArialMT-20" x="200.146484"/>
      <use xlink:href="#ArialMT-43" x="227.929688"/>
      <use xlink:href="#ArialMT-49" x="300.146484"/>
     </g>
    </g>
    <g id="patch_7">
     <path d="M 144.5925 76.5075 
L 176.5925 76.5075 
L 176.5925 65.3075 
L 144.5925 65.3075 
z
" style="fill: #008000; fill-opacity: 0.2; stroke: #008000; stroke-opacity: 0.2; stroke-linejoin: miter"/>
    </g>
    <g id="text_16">
     <!-- Significant region (p &lt; .05) -->
     <g style="fill: #262626" transform="translate(189.3925 76.5075) scale(0.16 -0.16)">
      <defs>
       <path id="ArialMT-67" d="M 319 -275 
L 866 -356 
Q 900 -609 1056 -725 
Q 1266 -881 1628 -881 
Q 2019 -881 2231 -725 
Q 2444 -569 2519 -288 
Q 2563 -116 2559 434 
Q 2191 0 1641 0 
Q 956 0 581 494 
Q 206 988 206 1678 
Q 206 2153 378 2554 
Q 550 2956 876 3175 
Q 1203 3394 1644 3394 
Q 2231 3394 2613 2919 
L 2613 3319 
L 3131 3319 
L 3131 450 
Q 3131 -325 2973 -648 
Q 2816 -972 2473 -1159 
Q 2131 -1347 1631 -1347 
Q 1038 -1347 672 -1080 
Q 306 -813 319 -275 
z
M 784 1719 
Q 784 1066 1043 766 
Q 1303 466 1694 466 
Q 2081 466 2343 764 
Q 2606 1063 2606 1700 
Q 2606 2309 2336 2618 
Q 2066 2928 1684 2928 
Q 1309 2928 1046 2623 
Q 784 2319 784 1719 
z
" transform="scale(0.015625)"/>
       <path id="ArialMT-63" d="M 2588 1216 
L 3141 1144 
Q 3050 572 2676 248 
Q 2303 -75 1759 -75 
Q 1078 -75 664 370 
Q 250 816 250 1647 
Q 250 2184 428 2587 
Q 606 2991 970 3192 
Q 1334 3394 1763 3394 
Q 2303 3394 2647 3120 
Q 2991 2847 3088 2344 
L 2541 2259 
Q 2463 2594 2264 2762 
Q 2066 2931 1784 2931 
Q 1359 2931 1093 2626 
Q 828 2322 828 1663 
Q 828 994 1084 691 
Q 1341 388 1753 388 
Q 2084 388 2306 591 
Q 2528 794 2588 1216 
z
" transform="scale(0.015625)"/>
       <path id="ArialMT-3c" d="M 350 2003 
L 350 2528 
L 3384 3809 
L 3384 3250 
L 978 2263 
L 3384 1266 
L 3384 706 
L 350 2003 
z
" transform="scale(0.015625)"/>
      </defs>
      <use xlink:href="#ArialMT-53"/>
      <use xlink:href="#ArialMT-69" x="66.699219"/>
      <use xlink:href="#ArialMT-67" x="88.916016"/>
      <use xlink:href="#ArialMT-6e" x="144.53125"/>
      <use xlink:href="#ArialMT-69" x="200.146484"/>
      <use xlink:href="#ArialMT-66" x="222.363281"/>
      <use xlink:href="#ArialMT-69" x="250.146484"/>
      <use xlink:href="#ArialMT-63" x="272.363281"/>
      <use xlink:href="#ArialMT-61" x="322.363281"/>
      <use xlink:href="#ArialMT-6e" x="377.978516"/>
      <use xlink:href="#ArialMT-74" x="433.59375"/>
      <use xlink:href="#ArialMT-20" x="461.376953"/>
      <use xlink:href="#ArialMT-72" x="489.160156"/>
      <use xlink:href="#ArialMT-65" x="522.460938"/>
      <use xlink:href="#ArialMT-67" x="578.076172"/>
      <use xlink:href="#ArialMT-69" x="633.691406"/>
      <use xlink:href="#ArialMT-6f" x="655.908203"/>
      <use xlink:href="#ArialMT-6e" x="711.523438"/>
      <use xlink:href="#ArialMT-20" x="767.138672"/>
      <use xlink:href="#ArialMT-28" x="794.921875"/>
      <use xlink:href="#ArialMT-70" x="828.222656"/>
      <use xlink:href="#ArialMT-20" x="883.837891"/>
      <use xlink:href="#ArialMT-3c" x="911.621094"/>
      <use xlink:href="#ArialMT-20" x="970.019531"/>
      <use xlink:href="#ArialMT-2e" x="997.802734"/>
      <use xlink:href="#ArialMT-30" x="1025.585938"/>
      <use xlink:href="#ArialMT-35" x="1081.201172"/>
      <use xlink:href="#ArialMT-29" x="1136.816406"/>
     </g>
    </g>
   </g>
  </g>
 </g>
 <defs>
  <clipPath id="peaa29610b1">
   <rect x="88.108" y="5" width="302.892" height="305.79"/>
  </clipPath>
 </defs>
</svg>
