<?xml version="1.0" encoding="utf-8" standalone="no"?>
<!DOCTYPE svg PUBLIC "-//W3C//DTD SVG 1.1//EN"
  "http://www.w3.org/Graphics/SVG/1.1/DTD/svg11.dtd">
<svg xmlns:xlink="http://www.w3.org/1999/xlink" width="396pt" height="360pt" viewBox="0 0 396 360" xmlns="http://www.w3.org/2000/svg" version="1.1">
 <metadata>
  <rdf:RDF xmlns:dc="http://purl.org/dc/elements/1.1/" xmlns:cc="http://creativecommons.org/ns#" xmlns:rdf="http://www.w3.org/1999/02/22-rdf-syntax-ns#">
   <cc:Work>
    <dc:type rdf:resource="http://purl.org/dc/dcmitype/StillImage"/>
    <dc:date>2025-05-15T19:00:18.178145</dc:date>
    <dc:format>image/svg+xml</dc:format>
    <dc:creator>
     <cc:Agent>
      <dc:title>Matplotlib v3.9.2, https://matplotlib.org/</dc:title>
     </cc:Agent>
    </dc:creator>
   </cc:Work>
  </rdf:RDF>
 </metadata>
 <defs>
  <style type="text/css">*{stroke-linejoin: round; stroke-linecap: butt}</style>
 </defs>
 <g id="figure_1">
  <g id="patch_1">
   <path d="M 0 360 
L 396 360 
L 396 0 
L 0 0 
z
" style="fill: #ffffff"/>
  </g>
  <g id="axes_1">
   <g id="patch_2">
    <path d="M 83.788 310.79 
L 391 310.79 
L 391 5 
L 83.788 5 
z
" style="fill: #ffffff"/>
   </g>
   <g id="matplotlib.axis_1">
    <g id="xtick_1">
     <g id="text_1">
      <!-- −4 -->
      <g style="fill: #262626" transform="translate(105.096626 329.2425) scale(0.16 -0.16)">
       <defs>
        <path id="ArialMT-2212" d="M 3381 1997 
L 356 1997 
L 356 2522 
L 3381 2522 
L 3381 1997 
z
" transform="scale(0.015625)"/>
        <path id="ArialMT-34" d="M 2069 0 
L 2069 1097 
L 81 1097 
L 81 1613 
L 2172 4581 
L 2631 4581 
L 2631 1613 
L 3250 1613 
L 3250 1097 
L 2631 1097 
L 2631 0 
L 2069 0 
z
M 2069 1613 
L 2069 3678 
L 634 1613 
L 2069 1613 
z
" transform="scale(0.015625)"/>
       </defs>
       <use xlink:href="#ArialMT-2212"/>
       <use xlink:href="#ArialMT-34" x="58.398438"/>
      </g>
     </g>
    </g>
    <g id="xtick_2">
     <g id="text_2">
      <!-- −2 -->
      <g style="fill: #262626" transform="translate(167.159656 329.2425) scale(0.16 -0.16)">
       <defs>
        <path id="ArialMT-32" d="M 3222 541 
L 3222 0 
L 194 0 
Q 188 203 259 391 
Q 375 700 629 1000 
Q 884 1300 1366 1694 
Q 2113 2306 2375 2664 
Q 2638 3022 2638 3341 
Q 2638 3675 2398 3904 
Q 2159 4134 1775 4134 
Q 1369 4134 1125 3890 
Q 881 3647 878 3216 
L 300 3275 
Q 359 3922 746 4261 
Q 1134 4600 1788 4600 
Q 2447 4600 2831 4234 
Q 3216 3869 3216 3328 
Q 3216 3053 3103 2787 
Q 2991 2522 2730 2228 
Q 2469 1934 1863 1422 
Q 1356 997 1212 845 
Q 1069 694 975 541 
L 3222 541 
z
" transform="scale(0.015625)"/>
       </defs>
       <use xlink:href="#ArialMT-2212"/>
       <use xlink:href="#ArialMT-32" x="58.398438"/>
      </g>
     </g>
    </g>
    <g id="xtick_3">
     <g id="text_3">
      <!-- 0 -->
      <g style="fill: #262626" transform="translate(233.895187 329.2425) scale(0.16 -0.16)">
       <defs>
        <path id="ArialMT-30" d="M 266 2259 
Q 266 3072 433 3567 
Q 600 4063 929 4331 
Q 1259 4600 1759 4600 
Q 2128 4600 2406 4451 
Q 2684 4303 2865 4023 
Q 3047 3744 3150 3342 
Q 3253 2941 3253 2259 
Q 3253 1453 3087 958 
Q 2922 463 2592 192 
Q 2263 -78 1759 -78 
Q 1097 -78 719 397 
Q 266 969 266 2259 
z
M 844 2259 
Q 844 1131 1108 757 
Q 1372 384 1759 384 
Q 2147 384 2411 759 
Q 2675 1134 2675 2259 
Q 2675 3391 2411 3762 
Q 2147 4134 1753 4134 
Q 1366 4134 1134 3806 
Q 844 3388 844 2259 
z
" transform="scale(0.015625)"/>
       </defs>
       <use xlink:href="#ArialMT-30"/>
      </g>
     </g>
    </g>
    <g id="xtick_4">
     <g id="text_4">
      <!-- 2 -->
      <g style="fill: #262626" transform="translate(295.958217 329.2425) scale(0.16 -0.16)">
       <use xlink:href="#ArialMT-32"/>
      </g>
     </g>
    </g>
    <g id="xtick_5">
     <g id="text_5">
      <!-- 4 -->
      <g style="fill: #262626" transform="translate(358.021247 329.2425) scale(0.16 -0.16)">
       <use xlink:href="#ArialMT-34"/>
      </g>
     </g>
    </g>
    <g id="text_6">
     <!-- Reward Sensitivity (comp_RS) -->
     <g style="fill: #262626" transform="translate(101.803375 350.981875) scale(0.2 -0.2)">
      <defs>
       <path id="ArialMT-52" d="M 503 0 
L 503 4581 
L 2534 4581 
Q 3147 4581 3465 4457 
Q 3784 4334 3975 4021 
Q 4166 3709 4166 3331 
Q 4166 2844 3850 2509 
Q 3534 2175 2875 2084 
Q 3116 1969 3241 1856 
Q 3506 1613 3744 1247 
L 4541 0 
L 3778 0 
L 3172 953 
Q 2906 1366 2734 1584 
Q 2563 1803 2427 1890 
Q 2291 1978 2150 2013 
Q 2047 2034 1813 2034 
L 1109 2034 
L 1109 0 
L 503 0 
z
M 1109 2559 
L 2413 2559 
Q 2828 2559 3062 2645 
Q 3297 2731 3419 2920 
Q 3541 3109 3541 3331 
Q 3541 3656 3305 3865 
Q 3069 4075 2559 4075 
L 1109 4075 
L 1109 2559 
z
" transform="scale(0.015625)"/>
       <path id="ArialMT-65" d="M 2694 1069 
L 3275 997 
Q 3138 488 2766 206 
Q 2394 -75 1816 -75 
Q 1088 -75 661 373 
Q 234 822 234 1631 
Q 234 2469 665 2931 
Q 1097 3394 1784 3394 
Q 2450 3394 2872 2941 
Q 3294 2488 3294 1666 
Q 3294 1616 3291 1516 
L 816 1516 
Q 847 969 1125 678 
Q 1403 388 1819 388 
Q 2128 388 2347 550 
Q 2566 713 2694 1069 
z
M 847 1978 
L 2700 1978 
Q 2663 2397 2488 2606 
Q 2219 2931 1791 2931 
Q 1403 2931 1139 2672 
Q 875 2413 847 1978 
z
" transform="scale(0.015625)"/>
       <path id="ArialMT-77" d="M 1034 0 
L 19 3319 
L 600 3319 
L 1128 1403 
L 1325 691 
Q 1338 744 1497 1375 
L 2025 3319 
L 2603 3319 
L 3100 1394 
L 3266 759 
L 3456 1400 
L 4025 3319 
L 4572 3319 
L 3534 0 
L 2950 0 
L 2422 1988 
L 2294 2553 
L 1622 0 
L 1034 0 
z
" transform="scale(0.015625)"/>
       <path id="ArialMT-61" d="M 2588 409 
Q 2275 144 1986 34 
Q 1697 -75 1366 -75 
Q 819 -75 525 192 
Q 231 459 231 875 
Q 231 1119 342 1320 
Q 453 1522 633 1644 
Q 813 1766 1038 1828 
Q 1203 1872 1538 1913 
Q 2219 1994 2541 2106 
Q 2544 2222 2544 2253 
Q 2544 2597 2384 2738 
Q 2169 2928 1744 2928 
Q 1347 2928 1158 2789 
Q 969 2650 878 2297 
L 328 2372 
Q 403 2725 575 2942 
Q 747 3159 1072 3276 
Q 1397 3394 1825 3394 
Q 2250 3394 2515 3294 
Q 2781 3194 2906 3042 
Q 3031 2891 3081 2659 
Q 3109 2516 3109 2141 
L 3109 1391 
Q 3109 606 3145 398 
Q 3181 191 3288 0 
L 2700 0 
Q 2613 175 2588 409 
z
M 2541 1666 
Q 2234 1541 1622 1453 
Q 1275 1403 1131 1340 
Q 988 1278 909 1158 
Q 831 1038 831 891 
Q 831 666 1001 516 
Q 1172 366 1500 366 
Q 1825 366 2078 508 
Q 2331 650 2450 897 
Q 2541 1088 2541 1459 
L 2541 1666 
z
" transform="scale(0.015625)"/>
       <path id="ArialMT-72" d="M 416 0 
L 416 3319 
L 922 3319 
L 922 2816 
Q 1116 3169 1280 3281 
Q 1444 3394 1641 3394 
Q 1925 3394 2219 3213 
L 2025 2691 
Q 1819 2813 1613 2813 
Q 1428 2813 1281 2702 
Q 1134 2591 1072 2394 
Q 978 2094 978 1738 
L 978 0 
L 416 0 
z
" transform="scale(0.015625)"/>
       <path id="ArialMT-64" d="M 2575 0 
L 2575 419 
Q 2259 -75 1647 -75 
Q 1250 -75 917 144 
Q 584 363 401 755 
Q 219 1147 219 1656 
Q 219 2153 384 2558 
Q 550 2963 881 3178 
Q 1213 3394 1622 3394 
Q 1922 3394 2156 3267 
Q 2391 3141 2538 2938 
L 2538 4581 
L 3097 4581 
L 3097 0 
L 2575 0 
z
M 797 1656 
Q 797 1019 1065 703 
Q 1334 388 1700 388 
Q 2069 388 2326 689 
Q 2584 991 2584 1609 
Q 2584 2291 2321 2609 
Q 2059 2928 1675 2928 
Q 1300 2928 1048 2622 
Q 797 2316 797 1656 
z
" transform="scale(0.015625)"/>
       <path id="ArialMT-20" transform="scale(0.015625)"/>
       <path id="ArialMT-53" d="M 288 1472 
L 859 1522 
Q 900 1178 1048 958 
Q 1197 738 1509 602 
Q 1822 466 2213 466 
Q 2559 466 2825 569 
Q 3091 672 3220 851 
Q 3350 1031 3350 1244 
Q 3350 1459 3225 1620 
Q 3100 1781 2813 1891 
Q 2628 1963 1997 2114 
Q 1366 2266 1113 2400 
Q 784 2572 623 2826 
Q 463 3081 463 3397 
Q 463 3744 659 4045 
Q 856 4347 1234 4503 
Q 1613 4659 2075 4659 
Q 2584 4659 2973 4495 
Q 3363 4331 3572 4012 
Q 3781 3694 3797 3291 
L 3216 3247 
Q 3169 3681 2898 3903 
Q 2628 4125 2100 4125 
Q 1550 4125 1298 3923 
Q 1047 3722 1047 3438 
Q 1047 3191 1225 3031 
Q 1400 2872 2139 2705 
Q 2878 2538 3153 2413 
Q 3553 2228 3743 1945 
Q 3934 1663 3934 1294 
Q 3934 928 3725 604 
Q 3516 281 3123 101 
Q 2731 -78 2241 -78 
Q 1619 -78 1198 103 
Q 778 284 539 648 
Q 300 1013 288 1472 
z
" transform="scale(0.015625)"/>
       <path id="ArialMT-6e" d="M 422 0 
L 422 3319 
L 928 3319 
L 928 2847 
Q 1294 3394 1984 3394 
Q 2284 3394 2536 3286 
Q 2788 3178 2913 3003 
Q 3038 2828 3088 2588 
Q 3119 2431 3119 2041 
L 3119 0 
L 2556 0 
L 2556 2019 
Q 2556 2363 2490 2533 
Q 2425 2703 2258 2804 
Q 2091 2906 1866 2906 
Q 1506 2906 1245 2678 
Q 984 2450 984 1813 
L 984 0 
L 422 0 
z
" transform="scale(0.015625)"/>
       <path id="ArialMT-73" d="M 197 991 
L 753 1078 
Q 800 744 1014 566 
Q 1228 388 1613 388 
Q 2000 388 2187 545 
Q 2375 703 2375 916 
Q 2375 1106 2209 1216 
Q 2094 1291 1634 1406 
Q 1016 1563 777 1677 
Q 538 1791 414 1992 
Q 291 2194 291 2438 
Q 291 2659 392 2848 
Q 494 3038 669 3163 
Q 800 3259 1026 3326 
Q 1253 3394 1513 3394 
Q 1903 3394 2198 3281 
Q 2494 3169 2634 2976 
Q 2775 2784 2828 2463 
L 2278 2388 
Q 2241 2644 2061 2787 
Q 1881 2931 1553 2931 
Q 1166 2931 1000 2803 
Q 834 2675 834 2503 
Q 834 2394 903 2306 
Q 972 2216 1119 2156 
Q 1203 2125 1616 2013 
Q 2213 1853 2448 1751 
Q 2684 1650 2818 1456 
Q 2953 1263 2953 975 
Q 2953 694 2789 445 
Q 2625 197 2315 61 
Q 2006 -75 1616 -75 
Q 969 -75 630 194 
Q 291 463 197 991 
z
" transform="scale(0.015625)"/>
       <path id="ArialMT-69" d="M 425 3934 
L 425 4581 
L 988 4581 
L 988 3934 
L 425 3934 
z
M 425 0 
L 425 3319 
L 988 3319 
L 988 0 
L 425 0 
z
" transform="scale(0.015625)"/>
       <path id="ArialMT-74" d="M 1650 503 
L 1731 6 
Q 1494 -44 1306 -44 
Q 1000 -44 831 53 
Q 663 150 594 308 
Q 525 466 525 972 
L 525 2881 
L 113 2881 
L 113 3319 
L 525 3319 
L 525 4141 
L 1084 4478 
L 1084 3319 
L 1650 3319 
L 1650 2881 
L 1084 2881 
L 1084 941 
Q 1084 700 1114 631 
Q 1144 563 1211 522 
Q 1278 481 1403 481 
Q 1497 481 1650 503 
z
" transform="scale(0.015625)"/>
       <path id="ArialMT-76" d="M 1344 0 
L 81 3319 
L 675 3319 
L 1388 1331 
Q 1503 1009 1600 663 
Q 1675 925 1809 1294 
L 2547 3319 
L 3125 3319 
L 1869 0 
L 1344 0 
z
" transform="scale(0.015625)"/>
       <path id="ArialMT-79" d="M 397 -1278 
L 334 -750 
Q 519 -800 656 -800 
Q 844 -800 956 -737 
Q 1069 -675 1141 -563 
Q 1194 -478 1313 -144 
Q 1328 -97 1363 -6 
L 103 3319 
L 709 3319 
L 1400 1397 
Q 1534 1031 1641 628 
Q 1738 1016 1872 1384 
L 2581 3319 
L 3144 3319 
L 1881 -56 
Q 1678 -603 1566 -809 
Q 1416 -1088 1222 -1217 
Q 1028 -1347 759 -1347 
Q 597 -1347 397 -1278 
z
" transform="scale(0.015625)"/>
       <path id="ArialMT-28" d="M 1497 -1347 
Q 1031 -759 709 28 
Q 388 816 388 1659 
Q 388 2403 628 3084 
Q 909 3875 1497 4659 
L 1900 4659 
Q 1522 4009 1400 3731 
Q 1209 3300 1100 2831 
Q 966 2247 966 1656 
Q 966 153 1900 -1347 
L 1497 -1347 
z
" transform="scale(0.015625)"/>
       <path id="ArialMT-63" d="M 2588 1216 
L 3141 1144 
Q 3050 572 2676 248 
Q 2303 -75 1759 -75 
Q 1078 -75 664 370 
Q 250 816 250 1647 
Q 250 2184 428 2587 
Q 606 2991 970 3192 
Q 1334 3394 1763 3394 
Q 2303 3394 2647 3120 
Q 2991 2847 3088 2344 
L 2541 2259 
Q 2463 2594 2264 2762 
Q 2066 2931 1784 2931 
Q 1359 2931 1093 2626 
Q 828 2322 828 1663 
Q 828 994 1084 691 
Q 1341 388 1753 388 
Q 2084 388 2306 591 
Q 2528 794 2588 1216 
z
" transform="scale(0.015625)"/>
       <path id="ArialMT-6f" d="M 213 1659 
Q 213 2581 725 3025 
Q 1153 3394 1769 3394 
Q 2453 3394 2887 2945 
Q 3322 2497 3322 1706 
Q 3322 1066 3130 698 
Q 2938 331 2570 128 
Q 2203 -75 1769 -75 
Q 1072 -75 642 372 
Q 213 819 213 1659 
z
M 791 1659 
Q 791 1022 1069 705 
Q 1347 388 1769 388 
Q 2188 388 2466 706 
Q 2744 1025 2744 1678 
Q 2744 2294 2464 2611 
Q 2184 2928 1769 2928 
Q 1347 2928 1069 2612 
Q 791 2297 791 1659 
z
" transform="scale(0.015625)"/>
       <path id="ArialMT-6d" d="M 422 0 
L 422 3319 
L 925 3319 
L 925 2853 
Q 1081 3097 1340 3245 
Q 1600 3394 1931 3394 
Q 2300 3394 2536 3241 
Q 2772 3088 2869 2813 
Q 3263 3394 3894 3394 
Q 4388 3394 4653 3120 
Q 4919 2847 4919 2278 
L 4919 0 
L 4359 0 
L 4359 2091 
Q 4359 2428 4304 2576 
Q 4250 2725 4106 2815 
Q 3963 2906 3769 2906 
Q 3419 2906 3187 2673 
Q 2956 2441 2956 1928 
L 2956 0 
L 2394 0 
L 2394 2156 
Q 2394 2531 2256 2718 
Q 2119 2906 1806 2906 
Q 1569 2906 1367 2781 
Q 1166 2656 1075 2415 
Q 984 2175 984 1722 
L 984 0 
L 422 0 
z
" transform="scale(0.015625)"/>
       <path id="ArialMT-70" d="M 422 -1272 
L 422 3319 
L 934 3319 
L 934 2888 
Q 1116 3141 1344 3267 
Q 1572 3394 1897 3394 
Q 2322 3394 2647 3175 
Q 2972 2956 3137 2557 
Q 3303 2159 3303 1684 
Q 3303 1175 3120 767 
Q 2938 359 2589 142 
Q 2241 -75 1856 -75 
Q 1575 -75 1351 44 
Q 1128 163 984 344 
L 984 -1272 
L 422 -1272 
z
M 931 1641 
Q 931 1000 1190 694 
Q 1450 388 1819 388 
Q 2194 388 2461 705 
Q 2728 1022 2728 1688 
Q 2728 2322 2467 2637 
Q 2206 2953 1844 2953 
Q 1484 2953 1207 2617 
Q 931 2281 931 1641 
z
" transform="scale(0.015625)"/>
       <path id="ArialMT-5f" d="M -97 -1272 
L -97 -866 
L 3631 -866 
L 3631 -1272 
L -97 -1272 
z
" transform="scale(0.015625)"/>
       <path id="ArialMT-29" d="M 791 -1347 
L 388 -1347 
Q 1322 153 1322 1656 
Q 1322 2244 1188 2822 
Q 1081 3291 891 3722 
Q 769 4003 388 4659 
L 791 4659 
Q 1378 3875 1659 3084 
Q 1900 2403 1900 1659 
Q 1900 816 1576 28 
Q 1253 -759 791 -1347 
z
" transform="scale(0.015625)"/>
      </defs>
      <use xlink:href="#ArialMT-52"/>
      <use xlink:href="#ArialMT-65" x="72.216797"/>
      <use xlink:href="#ArialMT-77" x="127.832031"/>
      <use xlink:href="#ArialMT-61" x="200.048828"/>
      <use xlink:href="#ArialMT-72" x="255.664062"/>
      <use xlink:href="#ArialMT-64" x="288.964844"/>
      <use xlink:href="#ArialMT-20" x="344.580078"/>
      <use xlink:href="#ArialMT-53" x="372.363281"/>
      <use xlink:href="#ArialMT-65" x="439.0625"/>
      <use xlink:href="#ArialMT-6e" x="494.677734"/>
      <use xlink:href="#ArialMT-73" x="550.292969"/>
      <use xlink:href="#ArialMT-69" x="600.292969"/>
      <use xlink:href="#ArialMT-74" x="622.509766"/>
      <use xlink:href="#ArialMT-69" x="650.292969"/>
      <use xlink:href="#ArialMT-76" x="672.509766"/>
      <use xlink:href="#ArialMT-69" x="722.509766"/>
      <use xlink:href="#ArialMT-74" x="744.726562"/>
      <use xlink:href="#ArialMT-79" x="772.509766"/>
      <use xlink:href="#ArialMT-20" x="822.509766"/>
      <use xlink:href="#ArialMT-28" x="850.292969"/>
      <use xlink:href="#ArialMT-63" x="883.59375"/>
      <use xlink:href="#ArialMT-6f" x="933.59375"/>
      <use xlink:href="#ArialMT-6d" x="989.208984"/>
      <use xlink:href="#ArialMT-70" x="1072.509766"/>
      <use xlink:href="#ArialMT-5f" x="1128.125"/>
      <use xlink:href="#ArialMT-52" x="1183.740234"/>
      <use xlink:href="#ArialMT-53" x="1255.957031"/>
      <use xlink:href="#ArialMT-29" x="1322.65625"/>
     </g>
    </g>
   </g>
   <g id="matplotlib.axis_2">
    <g id="ytick_1">
     <g id="text_7">
      <!-- −10 -->
      <g style="fill: #262626" transform="translate(49.648 290.553138) scale(0.16 -0.16)">
       <defs>
        <path id="ArialMT-31" d="M 2384 0 
L 1822 0 
L 1822 3584 
Q 1619 3391 1289 3197 
Q 959 3003 697 2906 
L 697 3450 
Q 1169 3672 1522 3987 
Q 1875 4303 2022 4600 
L 2384 4600 
L 2384 0 
z
" transform="scale(0.015625)"/>
       </defs>
       <use xlink:href="#ArialMT-2212"/>
       <use xlink:href="#ArialMT-31" x="58.398438"/>
       <use xlink:href="#ArialMT-30" x="114.013672"/>
      </g>
     </g>
    </g>
    <g id="ytick_2">
     <g id="text_8">
      <!-- −5 -->
      <g style="fill: #262626" transform="translate(58.5455 229.815087) scale(0.16 -0.16)">
       <defs>
        <path id="ArialMT-35" d="M 266 1200 
L 856 1250 
Q 922 819 1161 601 
Q 1400 384 1738 384 
Q 2144 384 2425 690 
Q 2706 997 2706 1503 
Q 2706 1984 2436 2262 
Q 2166 2541 1728 2541 
Q 1456 2541 1237 2417 
Q 1019 2294 894 2097 
L 366 2166 
L 809 4519 
L 3088 4519 
L 3088 3981 
L 1259 3981 
L 1013 2750 
Q 1425 3038 1878 3038 
Q 2478 3038 2890 2622 
Q 3303 2206 3303 1553 
Q 3303 931 2941 478 
Q 2500 -78 1738 -78 
Q 1113 -78 717 272 
Q 322 622 266 1200 
z
" transform="scale(0.015625)"/>
       </defs>
       <use xlink:href="#ArialMT-2212"/>
       <use xlink:href="#ArialMT-35" x="58.398438"/>
      </g>
     </g>
    </g>
    <g id="ytick_3">
     <g id="text_9">
      <!-- 0 -->
      <g style="fill: #262626" transform="translate(67.8905 169.077036) scale(0.16 -0.16)">
       <use xlink:href="#ArialMT-30"/>
      </g>
     </g>
    </g>
    <g id="ytick_4">
     <g id="text_10">
      <!-- 5 -->
      <g style="fill: #262626" transform="translate(67.8905 108.338985) scale(0.16 -0.16)">
       <use xlink:href="#ArialMT-35"/>
      </g>
     </g>
    </g>
    <g id="ytick_5">
     <g id="text_11">
      <!-- 10 -->
      <g style="fill: #262626" transform="translate(58.993 47.600934) scale(0.16 -0.16)">
       <use xlink:href="#ArialMT-31"/>
       <use xlink:href="#ArialMT-30" x="55.615234"/>
      </g>
     </g>
    </g>
    <g id="text_12">
     <!-- Simple Slope of Behavioral Motivation -->
     <g style="fill: #262626" transform="translate(19.992375 326.309062) rotate(-90) scale(0.2 -0.2)">
      <defs>
       <path id="ArialMT-6c" d="M 409 0 
L 409 4581 
L 972 4581 
L 972 0 
L 409 0 
z
" transform="scale(0.015625)"/>
       <path id="ArialMT-66" d="M 556 0 
L 556 2881 
L 59 2881 
L 59 3319 
L 556 3319 
L 556 3672 
Q 556 4006 616 4169 
Q 697 4388 901 4523 
Q 1106 4659 1475 4659 
Q 1713 4659 2000 4603 
L 1916 4113 
Q 1741 4144 1584 4144 
Q 1328 4144 1222 4034 
Q 1116 3925 1116 3625 
L 1116 3319 
L 1763 3319 
L 1763 2881 
L 1116 2881 
L 1116 0 
L 556 0 
z
" transform="scale(0.015625)"/>
       <path id="ArialMT-42" d="M 469 0 
L 469 4581 
L 2188 4581 
Q 2713 4581 3030 4442 
Q 3347 4303 3526 4014 
Q 3706 3725 3706 3409 
Q 3706 3116 3547 2856 
Q 3388 2597 3066 2438 
Q 3481 2316 3704 2022 
Q 3928 1728 3928 1328 
Q 3928 1006 3792 729 
Q 3656 453 3456 303 
Q 3256 153 2954 76 
Q 2653 0 2216 0 
L 469 0 
z
M 1075 2656 
L 2066 2656 
Q 2469 2656 2644 2709 
Q 2875 2778 2992 2937 
Q 3109 3097 3109 3338 
Q 3109 3566 3000 3739 
Q 2891 3913 2687 3977 
Q 2484 4041 1991 4041 
L 1075 4041 
L 1075 2656 
z
M 1075 541 
L 2216 541 
Q 2509 541 2628 563 
Q 2838 600 2978 687 
Q 3119 775 3209 942 
Q 3300 1109 3300 1328 
Q 3300 1584 3169 1773 
Q 3038 1963 2805 2039 
Q 2572 2116 2134 2116 
L 1075 2116 
L 1075 541 
z
" transform="scale(0.015625)"/>
       <path id="ArialMT-68" d="M 422 0 
L 422 4581 
L 984 4581 
L 984 2938 
Q 1378 3394 1978 3394 
Q 2347 3394 2619 3248 
Q 2891 3103 3008 2847 
Q 3125 2591 3125 2103 
L 3125 0 
L 2563 0 
L 2563 2103 
Q 2563 2525 2380 2717 
Q 2197 2909 1863 2909 
Q 1613 2909 1392 2779 
Q 1172 2650 1078 2428 
Q 984 2206 984 1816 
L 984 0 
L 422 0 
z
" transform="scale(0.015625)"/>
       <path id="ArialMT-4d" d="M 475 0 
L 475 4581 
L 1388 4581 
L 2472 1338 
Q 2622 884 2691 659 
Q 2769 909 2934 1394 
L 4031 4581 
L 4847 4581 
L 4847 0 
L 4263 0 
L 4263 3834 
L 2931 0 
L 2384 0 
L 1059 3900 
L 1059 0 
L 475 0 
z
" transform="scale(0.015625)"/>
      </defs>
      <use xlink:href="#ArialMT-53"/>
      <use xlink:href="#ArialMT-69" x="66.699219"/>
      <use xlink:href="#ArialMT-6d" x="88.916016"/>
      <use xlink:href="#ArialMT-70" x="172.216797"/>
      <use xlink:href="#ArialMT-6c" x="227.832031"/>
      <use xlink:href="#ArialMT-65" x="250.048828"/>
      <use xlink:href="#ArialMT-20" x="305.664062"/>
      <use xlink:href="#ArialMT-53" x="333.447266"/>
      <use xlink:href="#ArialMT-6c" x="400.146484"/>
      <use xlink:href="#ArialMT-6f" x="422.363281"/>
      <use xlink:href="#ArialMT-70" x="477.978516"/>
      <use xlink:href="#ArialMT-65" x="533.59375"/>
      <use xlink:href="#ArialMT-20" x="589.208984"/>
      <use xlink:href="#ArialMT-6f" x="616.992188"/>
      <use xlink:href="#ArialMT-66" x="672.607422"/>
      <use xlink:href="#ArialMT-20" x="700.390625"/>
      <use xlink:href="#ArialMT-42" x="728.173828"/>
      <use xlink:href="#ArialMT-65" x="794.873047"/>
      <use xlink:href="#ArialMT-68" x="850.488281"/>
      <use xlink:href="#ArialMT-61" x="906.103516"/>
      <use xlink:href="#ArialMT-76" x="961.71875"/>
      <use xlink:href="#ArialMT-69" x="1011.71875"/>
      <use xlink:href="#ArialMT-6f" x="1033.935547"/>
      <use xlink:href="#ArialMT-72" x="1089.550781"/>
      <use xlink:href="#ArialMT-61" x="1122.851562"/>
      <use xlink:href="#ArialMT-6c" x="1178.466797"/>
      <use xlink:href="#ArialMT-20" x="1200.683594"/>
      <use xlink:href="#ArialMT-4d" x="1228.466797"/>
      <use xlink:href="#ArialMT-6f" x="1311.767578"/>
      <use xlink:href="#ArialMT-74" x="1367.382812"/>
      <use xlink:href="#ArialMT-69" x="1395.166016"/>
      <use xlink:href="#ArialMT-76" x="1417.382812"/>
      <use xlink:href="#ArialMT-61" x="1467.382812"/>
      <use xlink:href="#ArialMT-74" x="1522.998047"/>
      <use xlink:href="#ArialMT-69" x="1550.78125"/>
      <use xlink:href="#ArialMT-6f" x="1572.998047"/>
      <use xlink:href="#ArialMT-6e" x="1628.613281"/>
     </g>
     <!-- on DMN-VS (LL&gt;N) (zstat) -->
     <g style="fill: #262626" transform="translate(41.438625 275.415312) rotate(-90) scale(0.2 -0.2)">
      <defs>
       <path id="ArialMT-44" d="M 494 0 
L 494 4581 
L 2072 4581 
Q 2606 4581 2888 4516 
Q 3281 4425 3559 4188 
Q 3922 3881 4101 3404 
Q 4281 2928 4281 2316 
Q 4281 1794 4159 1391 
Q 4038 988 3847 723 
Q 3656 459 3429 307 
Q 3203 156 2883 78 
Q 2563 0 2147 0 
L 494 0 
z
M 1100 541 
L 2078 541 
Q 2531 541 2789 625 
Q 3047 709 3200 863 
Q 3416 1078 3536 1442 
Q 3656 1806 3656 2325 
Q 3656 3044 3420 3430 
Q 3184 3816 2847 3947 
Q 2603 4041 2063 4041 
L 1100 4041 
L 1100 541 
z
" transform="scale(0.015625)"/>
       <path id="ArialMT-4e" d="M 488 0 
L 488 4581 
L 1109 4581 
L 3516 984 
L 3516 4581 
L 4097 4581 
L 4097 0 
L 3475 0 
L 1069 3600 
L 1069 0 
L 488 0 
z
" transform="scale(0.015625)"/>
       <path id="ArialMT-2d" d="M 203 1375 
L 203 1941 
L 1931 1941 
L 1931 1375 
L 203 1375 
z
" transform="scale(0.015625)"/>
       <path id="ArialMT-56" d="M 1803 0 
L 28 4581 
L 684 4581 
L 1875 1253 
Q 2019 853 2116 503 
Q 2222 878 2363 1253 
L 3600 4581 
L 4219 4581 
L 2425 0 
L 1803 0 
z
" transform="scale(0.015625)"/>
       <path id="ArialMT-4c" d="M 469 0 
L 469 4581 
L 1075 4581 
L 1075 541 
L 3331 541 
L 3331 0 
L 469 0 
z
" transform="scale(0.015625)"/>
       <path id="ArialMT-3e" d="M 3384 2003 
L 350 706 
L 350 1266 
L 2753 2263 
L 350 3250 
L 350 3809 
L 3384 2528 
L 3384 2003 
z
" transform="scale(0.015625)"/>
       <path id="ArialMT-7a" d="M 125 0 
L 125 456 
L 2238 2881 
Q 1878 2863 1603 2863 
L 250 2863 
L 250 3319 
L 2963 3319 
L 2963 2947 
L 1166 841 
L 819 456 
Q 1197 484 1528 484 
L 3063 484 
L 3063 0 
L 125 0 
z
" transform="scale(0.015625)"/>
      </defs>
      <use xlink:href="#ArialMT-6f"/>
      <use xlink:href="#ArialMT-6e" x="55.615234"/>
      <use xlink:href="#ArialMT-20" x="111.230469"/>
      <use xlink:href="#ArialMT-44" x="139.013672"/>
      <use xlink:href="#ArialMT-4d" x="211.230469"/>
      <use xlink:href="#ArialMT-4e" x="294.53125"/>
      <use xlink:href="#ArialMT-2d" x="366.748047"/>
      <use xlink:href="#ArialMT-56" x="400.048828"/>
      <use xlink:href="#ArialMT-53" x="466.748047"/>
      <use xlink:href="#ArialMT-20" x="533.447266"/>
      <use xlink:href="#ArialMT-28" x="561.230469"/>
      <use xlink:href="#ArialMT-4c" x="594.53125"/>
      <use xlink:href="#ArialMT-4c" x="650.146484"/>
      <use xlink:href="#ArialMT-3e" x="705.761719"/>
      <use xlink:href="#ArialMT-4e" x="764.160156"/>
      <use xlink:href="#ArialMT-29" x="836.376953"/>
      <use xlink:href="#ArialMT-20" x="869.677734"/>
      <use xlink:href="#ArialMT-28" x="897.460938"/>
      <use xlink:href="#ArialMT-7a" x="930.761719"/>
      <use xlink:href="#ArialMT-73" x="980.761719"/>
      <use xlink:href="#ArialMT-74" x="1030.761719"/>
      <use xlink:href="#ArialMT-61" x="1058.544922"/>
      <use xlink:href="#ArialMT-74" x="1114.160156"/>
      <use xlink:href="#ArialMT-29" x="1141.943359"/>
     </g>
    </g>
   </g>
   <g id="PolyCollection_1">
    <defs>
     <path id="mb8c6793746" d="M 97.752182 -175.720499 
L 97.752182 -63.109545 
L 100.573229 -65.233926 
L 103.394275 -67.347125 
L 106.215322 -69.448732 
L 109.036369 -71.538329 
L 111.857416 -73.615483 
L 114.678463 -75.679748 
L 117.49951 -77.730669 
L 120.320556 -79.767778 
L 123.141603 -81.790597 
L 125.96265 -83.798638 
L 128.783697 -85.791406 
L 131.604744 -87.768395 
L 134.425791 -89.729094 
L 137.246837 -91.672987 
L 140.067884 -93.599552 
L 142.888931 -95.508267 
L 145.709978 -97.39861 
L 148.531025 -99.270058 
L 151.352072 -101.122093 
L 154.173118 -102.954205 
L 156.994165 -104.765891 
L 159.815212 -106.556659 
L 162.636259 -108.326033 
L 165.457306 -110.073551 
L 168.278353 -111.798774 
L 171.099399 -113.501284 
L 173.920446 -115.180688 
L 176.741493 -116.836623 
L 179.56254 -118.468755 
L 182.383587 -120.076787 
L 185.204634 -121.660454 
L 188.02568 -123.219533 
L 190.846727 -124.753837 
L 193.667774 -126.263225 
L 196.488821 -127.747596 
L 199.309868 -129.206894 
L 202.130915 -130.641105 
L 204.951961 -132.050263 
L 207.773008 -133.434444 
L 210.594055 -134.793768 
L 213.415102 -136.128396 
L 216.236149 -137.438531 
L 219.057196 -138.724417 
L 221.878242 -139.986332 
L 224.699289 -141.224591 
L 227.520336 -142.439541 
L 230.341383 -143.631559 
L 233.16243 -144.801049 
L 235.983477 -145.94844 
L 238.804523 -147.074181 
L 241.62557 -148.178741 
L 244.446617 -149.262603 
L 247.267664 -150.326264 
L 250.088711 -151.370232 
L 252.909758 -152.395021 
L 255.730804 -153.401149 
L 258.551851 -154.389141 
L 261.372898 -155.359518 
L 264.193945 -156.312804 
L 267.014992 -157.249517 
L 269.836039 -158.170171 
L 272.657085 -159.075275 
L 275.478132 -159.965331 
L 278.299179 -160.84083 
L 281.120226 -161.702256 
L 283.941273 -162.550082 
L 286.76232 -163.384771 
L 289.583366 -164.206774 
L 292.404413 -165.01653 
L 295.22546 -165.814466 
L 298.046507 -166.600998 
L 300.867554 -167.376527 
L 303.688601 -168.141444 
L 306.509647 -168.896125 
L 309.330694 -169.640937 
L 312.151741 -170.376231 
L 314.972788 -171.102348 
L 317.793835 -171.819616 
L 320.614882 -172.528352 
L 323.435928 -173.228862 
L 326.256975 -173.921438 
L 329.078022 -174.606365 
L 331.899069 -175.283914 
L 334.720116 -175.954347 
L 337.541163 -176.617916 
L 340.362209 -177.274864 
L 343.183256 -177.925424 
L 346.004303 -178.569818 
L 348.82535 -179.208263 
L 351.646397 -179.840965 
L 354.467444 -180.468123 
L 357.28849 -181.089927 
L 360.109537 -181.706561 
L 362.930584 -182.318201 
L 365.751631 -182.925015 
L 368.572678 -183.527168 
L 371.393725 -184.124813 
L 374.214771 -184.718103 
L 377.035818 -185.30718 
L 377.035818 -341.100455 
L 377.035818 -341.100455 
L 374.214771 -338.784707 
L 371.393725 -336.473173 
L 368.572678 -334.165994 
L 365.751631 -331.863322 
L 362.930584 -329.565313 
L 360.109537 -327.272128 
L 357.28849 -324.983938 
L 354.467444 -322.700918 
L 351.646397 -320.423252 
L 348.82535 -318.15113 
L 346.004303 -315.88475 
L 343.183256 -313.624321 
L 340.362209 -311.370056 
L 337.541163 -309.12218 
L 334.720116 -306.880925 
L 331.899069 -304.646534 
L 329.078022 -302.419259 
L 326.256975 -300.199361 
L 323.435928 -297.987114 
L 320.614882 -295.782799 
L 317.793835 -293.586711 
L 314.972788 -291.399155 
L 312.151741 -289.220448 
L 309.330694 -287.050918 
L 306.509647 -284.890905 
L 303.688601 -282.740763 
L 300.867554 -280.600856 
L 298.046507 -278.471561 
L 295.22546 -276.353268 
L 292.404413 -274.24638 
L 289.583366 -272.151312 
L 286.76232 -270.068491 
L 283.941273 -267.998356 
L 281.120226 -265.941358 
L 278.299179 -263.89796 
L 275.478132 -261.868635 
L 272.657085 -259.853866 
L 269.836039 -257.854146 
L 267.014992 -255.869976 
L 264.193945 -253.901865 
L 261.372898 -251.950326 
L 258.551851 -250.01588 
L 255.730804 -248.099047 
L 252.909758 -246.200352 
L 250.088711 -244.320316 
L 247.267664 -242.459459 
L 244.446617 -240.618297 
L 241.62557 -238.797335 
L 238.804523 -236.997071 
L 235.983477 -235.217988 
L 233.16243 -233.460554 
L 230.341383 -231.72522 
L 227.520336 -230.012414 
L 224.699289 -228.32254 
L 221.878242 -226.655975 
L 219.057196 -225.013066 
L 216.236149 -223.394127 
L 213.415102 -221.799438 
L 210.594055 -220.229242 
L 207.773008 -218.683742 
L 204.951961 -217.163098 
L 202.130915 -215.667433 
L 199.309868 -214.19682 
L 196.488821 -212.751293 
L 193.667774 -211.33084 
L 190.846727 -209.935404 
L 188.02568 -208.564884 
L 185.204634 -207.219139 
L 182.383587 -205.897982 
L 179.56254 -204.601189 
L 176.741493 -203.328498 
L 173.920446 -202.079609 
L 171.099399 -200.854189 
L 168.278353 -199.651874 
L 165.457306 -198.472273 
L 162.636259 -197.314967 
L 159.815212 -196.179517 
L 156.994165 -195.065461 
L 154.173118 -193.972322 
L 151.352072 -192.89961 
L 148.531025 -191.846822 
L 145.709978 -190.813445 
L 142.888931 -189.798963 
L 140.067884 -188.802855 
L 137.246837 -187.824596 
L 134.425791 -186.863664 
L 131.604744 -185.919539 
L 128.783697 -184.991704 
L 125.96265 -184.079648 
L 123.141603 -183.182865 
L 120.320556 -182.30086 
L 117.49951 -181.433145 
L 114.678463 -180.579241 
L 111.857416 -179.738682 
L 109.036369 -178.911012 
L 106.215322 -178.095785 
L 103.394275 -177.292568 
L 100.573229 -176.500943 
L 97.752182 -175.720499 
z
" style="stroke: #808080; stroke-opacity: 0.3"/>
    </defs>
    <g clip-path="url(#p8578b8b631)">
     <use xlink:href="#mb8c6793746" x="0" y="360" style="fill: #808080; fill-opacity: 0.3; stroke: #808080; stroke-opacity: 0.3"/>
    </g>
   </g>
   <g id="PolyCollection_2">
    <defs>
     <path id="m0ea3a82aca" d="M 97.752182 -175.720499 
L 97.752182 -63.109545 
L 100.573229 -65.233926 
L 103.394275 -67.347125 
L 106.215322 -69.448732 
L 109.036369 -71.538329 
L 111.857416 -73.615483 
L 114.678463 -75.679748 
L 117.49951 -77.730669 
L 120.320556 -79.767778 
L 123.141603 -81.790597 
L 125.96265 -83.798638 
L 128.783697 -85.791406 
L 131.604744 -87.768395 
L 134.425791 -89.729094 
L 137.246837 -91.672987 
L 140.067884 -93.599552 
L 142.888931 -95.508267 
L 145.709978 -97.39861 
L 148.531025 -99.270058 
L 151.352072 -101.122093 
L 154.173118 -102.954205 
L 156.994165 -104.765891 
L 159.815212 -106.556659 
L 159.815212 -196.179517 
L 159.815212 -196.179517 
L 156.994165 -195.065461 
L 154.173118 -193.972322 
L 151.352072 -192.89961 
L 148.531025 -191.846822 
L 145.709978 -190.813445 
L 142.888931 -189.798963 
L 140.067884 -188.802855 
L 137.246837 -187.824596 
L 134.425791 -186.863664 
L 131.604744 -185.919539 
L 128.783697 -184.991704 
L 125.96265 -184.079648 
L 123.141603 -183.182865 
L 120.320556 -182.30086 
L 117.49951 -181.433145 
L 114.678463 -180.579241 
L 111.857416 -179.738682 
L 109.036369 -178.911012 
L 106.215322 -178.095785 
L 103.394275 -177.292568 
L 100.573229 -176.500943 
L 97.752182 -175.720499 
z
" style="stroke: #008000; stroke-opacity: 0.2"/>
    </defs>
    <g clip-path="url(#p8578b8b631)">
     <use xlink:href="#m0ea3a82aca" x="0" y="360" style="fill: #008000; fill-opacity: 0.2; stroke: #008000; stroke-opacity: 0.2"/>
    </g>
   </g>
   <g id="line2d_1">
    <path d="M 97.752182 240.584978 
L 100.573229 239.132566 
L 103.394275 237.680154 
L 106.215322 236.227741 
L 109.036369 234.775329 
L 111.857416 233.322917 
L 114.678463 231.870505 
L 117.49951 230.418093 
L 120.320556 228.965681 
L 123.141603 227.513269 
L 125.96265 226.060857 
L 128.783697 224.608445 
L 131.604744 223.156033 
L 134.425791 221.703621 
L 137.246837 220.251209 
L 140.067884 218.798797 
L 142.888931 217.346385 
L 145.709978 215.893972 
L 148.531025 214.44156 
L 151.352072 212.989148 
L 154.173118 211.536736 
L 156.994165 210.084324 
L 159.815212 208.631912 
L 162.636259 207.1795 
L 165.457306 205.727088 
L 168.278353 204.274676 
L 171.099399 202.822264 
L 173.920446 201.369852 
L 176.741493 199.91744 
L 179.56254 198.465028 
L 182.383587 197.012616 
L 185.204634 195.560204 
L 188.02568 194.107791 
L 190.846727 192.655379 
L 193.667774 191.202967 
L 196.488821 189.750555 
L 199.309868 188.298143 
L 202.130915 186.845731 
L 204.951961 185.393319 
L 207.773008 183.940907 
L 210.594055 182.488495 
L 213.415102 181.036083 
L 216.236149 179.583671 
L 219.057196 178.131259 
L 221.878242 176.678847 
L 224.699289 175.226435 
L 227.520336 173.774023 
L 230.341383 172.32161 
L 233.16243 170.869198 
L 235.983477 169.416786 
L 238.804523 167.964374 
L 241.62557 166.511962 
L 244.446617 165.05955 
L 247.267664 163.607138 
L 250.088711 162.154726 
L 252.909758 160.702314 
L 255.730804 159.249902 
L 258.551851 157.79749 
L 261.372898 156.345078 
L 264.193945 154.892666 
L 267.014992 153.440254 
L 269.836039 151.987842 
L 272.657085 150.535429 
L 275.478132 149.083017 
L 278.299179 147.630605 
L 281.120226 146.178193 
L 283.941273 144.725781 
L 286.76232 143.273369 
L 289.583366 141.820957 
L 292.404413 140.368545 
L 295.22546 138.916133 
L 298.046507 137.463721 
L 300.867554 136.011309 
L 303.688601 134.558897 
L 306.509647 133.106485 
L 309.330694 131.654073 
L 312.151741 130.201661 
L 314.972788 128.749248 
L 317.793835 127.296836 
L 320.614882 125.844424 
L 323.435928 124.392012 
L 326.256975 122.9396 
L 329.078022 121.487188 
L 331.899069 120.034776 
L 334.720116 118.582364 
L 337.541163 117.129952 
L 340.362209 115.67754 
L 343.183256 114.225128 
L 346.004303 112.772716 
L 348.82535 111.320304 
L 351.646397 109.867892 
L 354.467444 108.415479 
L 357.28849 106.963067 
L 360.109537 105.510655 
L 362.930584 104.058243 
L 365.751631 102.605831 
L 368.572678 101.153419 
L 371.393725 99.701007 
L 374.214771 98.248595 
L 377.035818 96.796183 
" clip-path="url(#p8578b8b631)" style="fill: none; stroke: #000000; stroke-width: 3; stroke-linecap: round"/>
   </g>
   <g id="line2d_2">
    <path d="M 83.788 163.350786 
L 391 163.350786 
" clip-path="url(#p8578b8b631)" style="fill: none; stroke-dasharray: 5.55,2.4; stroke-dashoffset: 0; stroke: #ff0000; stroke-width: 1.5"/>
   </g>
   <g id="patch_3">
    <path d="M 83.788 310.79 
L 83.788 5 
" style="fill: none; stroke: #000000; stroke-linejoin: miter; stroke-linecap: square"/>
   </g>
   <g id="patch_4">
    <path d="M 83.788 310.79 
L 391 310.79 
" style="fill: none; stroke: #000000; stroke-linejoin: miter; stroke-linecap: square"/>
   </g>
   <g id="legend_1">
    <g id="patch_5">
     <path d="M 94.988 86.275 
L 333.3955 86.275 
Q 336.5955 86.275 336.5955 83.075 
L 336.5955 16.2 
Q 336.5955 13 333.3955 13 
L 94.988 13 
Q 91.788 13 91.788 16.2 
L 91.788 83.075 
Q 91.788 86.275 94.988 86.275 
z
" style="fill: #ffffff; opacity: 0.8; stroke: #cccccc; stroke-linejoin: miter"/>
    </g>
    <g id="line2d_3">
     <path d="M 98.188 25.4475 
L 114.188 25.4475 
L 130.188 25.4475 
" style="fill: none; stroke: #000000; stroke-width: 3; stroke-linecap: round"/>
    </g>
    <g id="text_13">
     <!-- Simple Slope -->
     <g style="fill: #262626" transform="translate(142.988 31.0475) scale(0.16 -0.16)">
      <use xlink:href="#ArialMT-53"/>
      <use xlink:href="#ArialMT-69" x="66.699219"/>
      <use xlink:href="#ArialMT-6d" x="88.916016"/>
      <use xlink:href="#ArialMT-70" x="172.216797"/>
      <use xlink:href="#ArialMT-6c" x="227.832031"/>
      <use xlink:href="#ArialMT-65" x="250.048828"/>
      <use xlink:href="#ArialMT-20" x="305.664062"/>
      <use xlink:href="#ArialMT-53" x="333.447266"/>
      <use xlink:href="#ArialMT-6c" x="400.146484"/>
      <use xlink:href="#ArialMT-6f" x="422.363281"/>
      <use xlink:href="#ArialMT-70" x="477.978516"/>
      <use xlink:href="#ArialMT-65" x="533.59375"/>
     </g>
    </g>
    <g id="patch_6">
     <path d="M 98.188 53.68 
L 130.188 53.68 
L 130.188 42.48 
L 98.188 42.48 
z
" style="fill: #808080; fill-opacity: 0.3; stroke: #808080; stroke-opacity: 0.3; stroke-linejoin: miter"/>
    </g>
    <g id="text_14">
     <!-- 95% CI -->
     <g style="fill: #262626" transform="translate(142.988 53.68) scale(0.16 -0.16)">
      <defs>
       <path id="ArialMT-39" d="M 350 1059 
L 891 1109 
Q 959 728 1153 556 
Q 1347 384 1650 384 
Q 1909 384 2104 503 
Q 2300 622 2425 820 
Q 2550 1019 2634 1356 
Q 2719 1694 2719 2044 
Q 2719 2081 2716 2156 
Q 2547 1888 2255 1720 
Q 1963 1553 1622 1553 
Q 1053 1553 659 1965 
Q 266 2378 266 3053 
Q 266 3750 677 4175 
Q 1088 4600 1706 4600 
Q 2153 4600 2523 4359 
Q 2894 4119 3086 3673 
Q 3278 3228 3278 2384 
Q 3278 1506 3087 986 
Q 2897 466 2520 194 
Q 2144 -78 1638 -78 
Q 1100 -78 759 220 
Q 419 519 350 1059 
z
M 2653 3081 
Q 2653 3566 2395 3850 
Q 2138 4134 1775 4134 
Q 1400 4134 1122 3828 
Q 844 3522 844 3034 
Q 844 2597 1108 2323 
Q 1372 2050 1759 2050 
Q 2150 2050 2401 2323 
Q 2653 2597 2653 3081 
z
" transform="scale(0.015625)"/>
       <path id="ArialMT-25" d="M 372 3481 
Q 372 3972 619 4315 
Q 866 4659 1334 4659 
Q 1766 4659 2048 4351 
Q 2331 4044 2331 3447 
Q 2331 2866 2045 2552 
Q 1759 2238 1341 2238 
Q 925 2238 648 2547 
Q 372 2856 372 3481 
z
M 1350 4272 
Q 1141 4272 1002 4090 
Q 863 3909 863 3425 
Q 863 2984 1003 2804 
Q 1144 2625 1350 2625 
Q 1563 2625 1702 2806 
Q 1841 2988 1841 3469 
Q 1841 3913 1700 4092 
Q 1559 4272 1350 4272 
z
M 1353 -169 
L 3859 4659 
L 4316 4659 
L 1819 -169 
L 1353 -169 
z
M 3334 1075 
Q 3334 1569 3581 1911 
Q 3828 2253 4300 2253 
Q 4731 2253 5014 1945 
Q 5297 1638 5297 1041 
Q 5297 459 5011 145 
Q 4725 -169 4303 -169 
Q 3888 -169 3611 142 
Q 3334 453 3334 1075 
z
M 4316 1866 
Q 4103 1866 3964 1684 
Q 3825 1503 3825 1019 
Q 3825 581 3965 400 
Q 4106 219 4313 219 
Q 4528 219 4667 400 
Q 4806 581 4806 1063 
Q 4806 1506 4665 1686 
Q 4525 1866 4316 1866 
z
" transform="scale(0.015625)"/>
       <path id="ArialMT-43" d="M 3763 1606 
L 4369 1453 
Q 4178 706 3683 314 
Q 3188 -78 2472 -78 
Q 1731 -78 1267 223 
Q 803 525 561 1097 
Q 319 1669 319 2325 
Q 319 3041 592 3573 
Q 866 4106 1370 4382 
Q 1875 4659 2481 4659 
Q 3169 4659 3637 4309 
Q 4106 3959 4291 3325 
L 3694 3184 
Q 3534 3684 3231 3912 
Q 2928 4141 2469 4141 
Q 1941 4141 1586 3887 
Q 1231 3634 1087 3207 
Q 944 2781 944 2328 
Q 944 1744 1114 1308 
Q 1284 872 1643 656 
Q 2003 441 2422 441 
Q 2931 441 3284 734 
Q 3638 1028 3763 1606 
z
" transform="scale(0.015625)"/>
       <path id="ArialMT-49" d="M 597 0 
L 597 4581 
L 1203 4581 
L 1203 0 
L 597 0 
z
" transform="scale(0.015625)"/>
      </defs>
      <use xlink:href="#ArialMT-39"/>
      <use xlink:href="#ArialMT-35" x="55.615234"/>
      <use xlink:href="#ArialMT-25" x="111.230469"/>
      <use xlink:href="#ArialMT-20" x="200.146484"/>
      <use xlink:href="#ArialMT-43" x="227.929688"/>
      <use xlink:href="#ArialMT-49" x="300.146484"/>
     </g>
    </g>
    <g id="patch_7">
     <path d="M 98.188 76.5075 
L 130.188 76.5075 
L 130.188 65.3075 
L 98.188 65.3075 
z
" style="fill: #008000; fill-opacity: 0.2; stroke: #008000; stroke-opacity: 0.2; stroke-linejoin: miter"/>
    </g>
    <g id="text_15">
     <!-- Significant region (p &lt; .05) -->
     <g style="fill: #262626" transform="translate(142.988 76.5075) scale(0.16 -0.16)">
      <defs>
       <path id="ArialMT-67" d="M 319 -275 
L 866 -356 
Q 900 -609 1056 -725 
Q 1266 -881 1628 -881 
Q 2019 -881 2231 -725 
Q 2444 -569 2519 -288 
Q 2563 -116 2559 434 
Q 2191 0 1641 0 
Q 956 0 581 494 
Q 206 988 206 1678 
Q 206 2153 378 2554 
Q 550 2956 876 3175 
Q 1203 3394 1644 3394 
Q 2231 3394 2613 2919 
L 2613 3319 
L 3131 3319 
L 3131 450 
Q 3131 -325 2973 -648 
Q 2816 -972 2473 -1159 
Q 2131 -1347 1631 -1347 
Q 1038 -1347 672 -1080 
Q 306 -813 319 -275 
z
M 784 1719 
Q 784 1066 1043 766 
Q 1303 466 1694 466 
Q 2081 466 2343 764 
Q 2606 1063 2606 1700 
Q 2606 2309 2336 2618 
Q 2066 2928 1684 2928 
Q 1309 2928 1046 2623 
Q 784 2319 784 1719 
z
" transform="scale(0.015625)"/>
       <path id="ArialMT-3c" d="M 350 2003 
L 350 2528 
L 3384 3809 
L 3384 3250 
L 978 2263 
L 3384 1266 
L 3384 706 
L 350 2003 
z
" transform="scale(0.015625)"/>
       <path id="ArialMT-2e" d="M 581 0 
L 581 641 
L 1222 641 
L 1222 0 
L 581 0 
z
" transform="scale(0.015625)"/>
      </defs>
      <use xlink:href="#ArialMT-53"/>
      <use xlink:href="#ArialMT-69" x="66.699219"/>
      <use xlink:href="#ArialMT-67" x="88.916016"/>
      <use xlink:href="#ArialMT-6e" x="144.53125"/>
      <use xlink:href="#ArialMT-69" x="200.146484"/>
      <use xlink:href="#ArialMT-66" x="222.363281"/>
      <use xlink:href="#ArialMT-69" x="250.146484"/>
      <use xlink:href="#ArialMT-63" x="272.363281"/>
      <use xlink:href="#ArialMT-61" x="322.363281"/>
      <use xlink:href="#ArialMT-6e" x="377.978516"/>
      <use xlink:href="#ArialMT-74" x="433.59375"/>
      <use xlink:href="#ArialMT-20" x="461.376953"/>
      <use xlink:href="#ArialMT-72" x="489.160156"/>
      <use xlink:href="#ArialMT-65" x="522.460938"/>
      <use xlink:href="#ArialMT-67" x="578.076172"/>
      <use xlink:href="#ArialMT-69" x="633.691406"/>
      <use xlink:href="#ArialMT-6f" x="655.908203"/>
      <use xlink:href="#ArialMT-6e" x="711.523438"/>
      <use xlink:href="#ArialMT-20" x="767.138672"/>
      <use xlink:href="#ArialMT-28" x="794.921875"/>
      <use xlink:href="#ArialMT-70" x="828.222656"/>
      <use xlink:href="#ArialMT-20" x="883.837891"/>
      <use xlink:href="#ArialMT-3c" x="911.621094"/>
      <use xlink:href="#ArialMT-20" x="970.019531"/>
      <use xlink:href="#ArialMT-2e" x="997.802734"/>
      <use xlink:href="#ArialMT-30" x="1025.585938"/>
      <use xlink:href="#ArialMT-35" x="1081.201172"/>
      <use xlink:href="#ArialMT-29" x="1136.816406"/>
     </g>
    </g>
   </g>
  </g>
 </g>
 <defs>
  <clipPath id="p8578b8b631">
   <rect x="83.788" y="5" width="307.212" height="305.79"/>
  </clipPath>
 </defs>
</svg>
