<?xml version="1.0" encoding="utf-8" standalone="no"?>
<!DOCTYPE svg PUBLIC "-//W3C//DTD SVG 1.1//EN"
  "http://www.w3.org/Graphics/SVG/1.1/DTD/svg11.dtd">
<svg xmlns:xlink="http://www.w3.org/1999/xlink" width="396pt" height="360pt" viewBox="0 0 396 360" xmlns="http://www.w3.org/2000/svg" version="1.1">
 <metadata>
  <rdf:RDF xmlns:dc="http://purl.org/dc/elements/1.1/" xmlns:cc="http://creativecommons.org/ns#" xmlns:rdf="http://www.w3.org/1999/02/22-rdf-syntax-ns#">
   <cc:Work>
    <dc:type rdf:resource="http://purl.org/dc/dcmitype/StillImage"/>
    <dc:date>2025-05-15T18:59:52.055008</dc:date>
    <dc:format>image/svg+xml</dc:format>
    <dc:creator>
     <cc:Agent>
      <dc:title>Matplotlib v3.9.2, https://matplotlib.org/</dc:title>
     </cc:Agent>
    </dc:creator>
   </cc:Work>
  </rdf:RDF>
 </metadata>
 <defs>
  <style type="text/css">*{stroke-linejoin: round; stroke-linecap: butt}</style>
 </defs>
 <g id="figure_1">
  <g id="patch_1">
   <path d="M 0 360 
L 396 360 
L 396 0 
L 0 0 
z
" style="fill: #ffffff"/>
  </g>
  <g id="axes_1">
   <g id="patch_2">
    <path d="M 74.698 310.79 
L 391 310.79 
L 391 5 
L 74.698 5 
z
" style="fill: #ffffff"/>
   </g>
   <g id="matplotlib.axis_1">
    <g id="xtick_1">
     <g id="text_1">
      <!-- −4 -->
      <g style="fill: #262626" transform="translate(96.907006 329.2425) scale(0.16 -0.16)">
       <defs>
        <path id="ArialMT-2212" d="M 3381 1997 
L 356 1997 
L 356 2522 
L 3381 2522 
L 3381 1997 
z
" transform="scale(0.015625)"/>
        <path id="ArialMT-34" d="M 2069 0 
L 2069 1097 
L 81 1097 
L 81 1613 
L 2172 4581 
L 2631 4581 
L 2631 1613 
L 3250 1613 
L 3250 1097 
L 2631 1097 
L 2631 0 
L 2069 0 
z
M 2069 1613 
L 2069 3678 
L 634 1613 
L 2069 1613 
z
" transform="scale(0.015625)"/>
       </defs>
       <use xlink:href="#ArialMT-2212"/>
       <use xlink:href="#ArialMT-34" x="58.398438"/>
      </g>
     </g>
    </g>
    <g id="xtick_2">
     <g id="text_2">
      <!-- −2 -->
      <g style="fill: #262626" transform="translate(160.8064 329.2425) scale(0.16 -0.16)">
       <defs>
        <path id="ArialMT-32" d="M 3222 541 
L 3222 0 
L 194 0 
Q 188 203 259 391 
Q 375 700 629 1000 
Q 884 1300 1366 1694 
Q 2113 2306 2375 2664 
Q 2638 3022 2638 3341 
Q 2638 3675 2398 3904 
Q 2159 4134 1775 4134 
Q 1369 4134 1125 3890 
Q 881 3647 878 3216 
L 300 3275 
Q 359 3922 746 4261 
Q 1134 4600 1788 4600 
Q 2447 4600 2831 4234 
Q 3216 3869 3216 3328 
Q 3216 3053 3103 2787 
Q 2991 2522 2730 2228 
Q 2469 1934 1863 1422 
Q 1356 997 1212 845 
Q 1069 694 975 541 
L 3222 541 
z
" transform="scale(0.015625)"/>
       </defs>
       <use xlink:href="#ArialMT-2212"/>
       <use xlink:href="#ArialMT-32" x="58.398438"/>
      </g>
     </g>
    </g>
    <g id="xtick_3">
     <g id="text_3">
      <!-- 0 -->
      <g style="fill: #262626" transform="translate(229.378294 329.2425) scale(0.16 -0.16)">
       <defs>
        <path id="ArialMT-30" d="M 266 2259 
Q 266 3072 433 3567 
Q 600 4063 929 4331 
Q 1259 4600 1759 4600 
Q 2128 4600 2406 4451 
Q 2684 4303 2865 4023 
Q 3047 3744 3150 3342 
Q 3253 2941 3253 2259 
Q 3253 1453 3087 958 
Q 2922 463 2592 192 
Q 2263 -78 1759 -78 
Q 1097 -78 719 397 
Q 266 969 266 2259 
z
M 844 2259 
Q 844 1131 1108 757 
Q 1372 384 1759 384 
Q 2147 384 2411 759 
Q 2675 1134 2675 2259 
Q 2675 3391 2411 3762 
Q 2147 4134 1753 4134 
Q 1366 4134 1134 3806 
Q 844 3388 844 2259 
z
" transform="scale(0.015625)"/>
       </defs>
       <use xlink:href="#ArialMT-30"/>
      </g>
     </g>
    </g>
    <g id="xtick_4">
     <g id="text_4">
      <!-- 2 -->
      <g style="fill: #262626" transform="translate(293.277688 329.2425) scale(0.16 -0.16)">
       <use xlink:href="#ArialMT-32"/>
      </g>
     </g>
    </g>
    <g id="xtick_5">
     <g id="text_5">
      <!-- 4 -->
      <g style="fill: #262626" transform="translate(357.177082 329.2425) scale(0.16 -0.16)">
       <use xlink:href="#ArialMT-34"/>
      </g>
     </g>
    </g>
    <g id="text_6">
     <!-- Reward Sensitivity (comp_RS) -->
     <g style="fill: #262626" transform="translate(97.258375 350.981875) scale(0.2 -0.2)">
      <defs>
       <path id="ArialMT-52" d="M 503 0 
L 503 4581 
L 2534 4581 
Q 3147 4581 3465 4457 
Q 3784 4334 3975 4021 
Q 4166 3709 4166 3331 
Q 4166 2844 3850 2509 
Q 3534 2175 2875 2084 
Q 3116 1969 3241 1856 
Q 3506 1613 3744 1247 
L 4541 0 
L 3778 0 
L 3172 953 
Q 2906 1366 2734 1584 
Q 2563 1803 2427 1890 
Q 2291 1978 2150 2013 
Q 2047 2034 1813 2034 
L 1109 2034 
L 1109 0 
L 503 0 
z
M 1109 2559 
L 2413 2559 
Q 2828 2559 3062 2645 
Q 3297 2731 3419 2920 
Q 3541 3109 3541 3331 
Q 3541 3656 3305 3865 
Q 3069 4075 2559 4075 
L 1109 4075 
L 1109 2559 
z
" transform="scale(0.015625)"/>
       <path id="ArialMT-65" d="M 2694 1069 
L 3275 997 
Q 3138 488 2766 206 
Q 2394 -75 1816 -75 
Q 1088 -75 661 373 
Q 234 822 234 1631 
Q 234 2469 665 2931 
Q 1097 3394 1784 3394 
Q 2450 3394 2872 2941 
Q 3294 2488 3294 1666 
Q 3294 1616 3291 1516 
L 816 1516 
Q 847 969 1125 678 
Q 1403 388 1819 388 
Q 2128 388 2347 550 
Q 2566 713 2694 1069 
z
M 847 1978 
L 2700 1978 
Q 2663 2397 2488 2606 
Q 2219 2931 1791 2931 
Q 1403 2931 1139 2672 
Q 875 2413 847 1978 
z
" transform="scale(0.015625)"/>
       <path id="ArialMT-77" d="M 1034 0 
L 19 3319 
L 600 3319 
L 1128 1403 
L 1325 691 
Q 1338 744 1497 1375 
L 2025 3319 
L 2603 3319 
L 3100 1394 
L 3266 759 
L 3456 1400 
L 4025 3319 
L 4572 3319 
L 3534 0 
L 2950 0 
L 2422 1988 
L 2294 2553 
L 1622 0 
L 1034 0 
z
" transform="scale(0.015625)"/>
       <path id="ArialMT-61" d="M 2588 409 
Q 2275 144 1986 34 
Q 1697 -75 1366 -75 
Q 819 -75 525 192 
Q 231 459 231 875 
Q 231 1119 342 1320 
Q 453 1522 633 1644 
Q 813 1766 1038 1828 
Q 1203 1872 1538 1913 
Q 2219 1994 2541 2106 
Q 2544 2222 2544 2253 
Q 2544 2597 2384 2738 
Q 2169 2928 1744 2928 
Q 1347 2928 1158 2789 
Q 969 2650 878 2297 
L 328 2372 
Q 403 2725 575 2942 
Q 747 3159 1072 3276 
Q 1397 3394 1825 3394 
Q 2250 3394 2515 3294 
Q 2781 3194 2906 3042 
Q 3031 2891 3081 2659 
Q 3109 2516 3109 2141 
L 3109 1391 
Q 3109 606 3145 398 
Q 3181 191 3288 0 
L 2700 0 
Q 2613 175 2588 409 
z
M 2541 1666 
Q 2234 1541 1622 1453 
Q 1275 1403 1131 1340 
Q 988 1278 909 1158 
Q 831 1038 831 891 
Q 831 666 1001 516 
Q 1172 366 1500 366 
Q 1825 366 2078 508 
Q 2331 650 2450 897 
Q 2541 1088 2541 1459 
L 2541 1666 
z
" transform="scale(0.015625)"/>
       <path id="ArialMT-72" d="M 416 0 
L 416 3319 
L 922 3319 
L 922 2816 
Q 1116 3169 1280 3281 
Q 1444 3394 1641 3394 
Q 1925 3394 2219 3213 
L 2025 2691 
Q 1819 2813 1613 2813 
Q 1428 2813 1281 2702 
Q 1134 2591 1072 2394 
Q 978 2094 978 1738 
L 978 0 
L 416 0 
z
" transform="scale(0.015625)"/>
       <path id="ArialMT-64" d="M 2575 0 
L 2575 419 
Q 2259 -75 1647 -75 
Q 1250 -75 917 144 
Q 584 363 401 755 
Q 219 1147 219 1656 
Q 219 2153 384 2558 
Q 550 2963 881 3178 
Q 1213 3394 1622 3394 
Q 1922 3394 2156 3267 
Q 2391 3141 2538 2938 
L 2538 4581 
L 3097 4581 
L 3097 0 
L 2575 0 
z
M 797 1656 
Q 797 1019 1065 703 
Q 1334 388 1700 388 
Q 2069 388 2326 689 
Q 2584 991 2584 1609 
Q 2584 2291 2321 2609 
Q 2059 2928 1675 2928 
Q 1300 2928 1048 2622 
Q 797 2316 797 1656 
z
" transform="scale(0.015625)"/>
       <path id="ArialMT-20" transform="scale(0.015625)"/>
       <path id="ArialMT-53" d="M 288 1472 
L 859 1522 
Q 900 1178 1048 958 
Q 1197 738 1509 602 
Q 1822 466 2213 466 
Q 2559 466 2825 569 
Q 3091 672 3220 851 
Q 3350 1031 3350 1244 
Q 3350 1459 3225 1620 
Q 3100 1781 2813 1891 
Q 2628 1963 1997 2114 
Q 1366 2266 1113 2400 
Q 784 2572 623 2826 
Q 463 3081 463 3397 
Q 463 3744 659 4045 
Q 856 4347 1234 4503 
Q 1613 4659 2075 4659 
Q 2584 4659 2973 4495 
Q 3363 4331 3572 4012 
Q 3781 3694 3797 3291 
L 3216 3247 
Q 3169 3681 2898 3903 
Q 2628 4125 2100 4125 
Q 1550 4125 1298 3923 
Q 1047 3722 1047 3438 
Q 1047 3191 1225 3031 
Q 1400 2872 2139 2705 
Q 2878 2538 3153 2413 
Q 3553 2228 3743 1945 
Q 3934 1663 3934 1294 
Q 3934 928 3725 604 
Q 3516 281 3123 101 
Q 2731 -78 2241 -78 
Q 1619 -78 1198 103 
Q 778 284 539 648 
Q 300 1013 288 1472 
z
" transform="scale(0.015625)"/>
       <path id="ArialMT-6e" d="M 422 0 
L 422 3319 
L 928 3319 
L 928 2847 
Q 1294 3394 1984 3394 
Q 2284 3394 2536 3286 
Q 2788 3178 2913 3003 
Q 3038 2828 3088 2588 
Q 3119 2431 3119 2041 
L 3119 0 
L 2556 0 
L 2556 2019 
Q 2556 2363 2490 2533 
Q 2425 2703 2258 2804 
Q 2091 2906 1866 2906 
Q 1506 2906 1245 2678 
Q 984 2450 984 1813 
L 984 0 
L 422 0 
z
" transform="scale(0.015625)"/>
       <path id="ArialMT-73" d="M 197 991 
L 753 1078 
Q 800 744 1014 566 
Q 1228 388 1613 388 
Q 2000 388 2187 545 
Q 2375 703 2375 916 
Q 2375 1106 2209 1216 
Q 2094 1291 1634 1406 
Q 1016 1563 777 1677 
Q 538 1791 414 1992 
Q 291 2194 291 2438 
Q 291 2659 392 2848 
Q 494 3038 669 3163 
Q 800 3259 1026 3326 
Q 1253 3394 1513 3394 
Q 1903 3394 2198 3281 
Q 2494 3169 2634 2976 
Q 2775 2784 2828 2463 
L 2278 2388 
Q 2241 2644 2061 2787 
Q 1881 2931 1553 2931 
Q 1166 2931 1000 2803 
Q 834 2675 834 2503 
Q 834 2394 903 2306 
Q 972 2216 1119 2156 
Q 1203 2125 1616 2013 
Q 2213 1853 2448 1751 
Q 2684 1650 2818 1456 
Q 2953 1263 2953 975 
Q 2953 694 2789 445 
Q 2625 197 2315 61 
Q 2006 -75 1616 -75 
Q 969 -75 630 194 
Q 291 463 197 991 
z
" transform="scale(0.015625)"/>
       <path id="ArialMT-69" d="M 425 3934 
L 425 4581 
L 988 4581 
L 988 3934 
L 425 3934 
z
M 425 0 
L 425 3319 
L 988 3319 
L 988 0 
L 425 0 
z
" transform="scale(0.015625)"/>
       <path id="ArialMT-74" d="M 1650 503 
L 1731 6 
Q 1494 -44 1306 -44 
Q 1000 -44 831 53 
Q 663 150 594 308 
Q 525 466 525 972 
L 525 2881 
L 113 2881 
L 113 3319 
L 525 3319 
L 525 4141 
L 1084 4478 
L 1084 3319 
L 1650 3319 
L 1650 2881 
L 1084 2881 
L 1084 941 
Q 1084 700 1114 631 
Q 1144 563 1211 522 
Q 1278 481 1403 481 
Q 1497 481 1650 503 
z
" transform="scale(0.015625)"/>
       <path id="ArialMT-76" d="M 1344 0 
L 81 3319 
L 675 3319 
L 1388 1331 
Q 1503 1009 1600 663 
Q 1675 925 1809 1294 
L 2547 3319 
L 3125 3319 
L 1869 0 
L 1344 0 
z
" transform="scale(0.015625)"/>
       <path id="ArialMT-79" d="M 397 -1278 
L 334 -750 
Q 519 -800 656 -800 
Q 844 -800 956 -737 
Q 1069 -675 1141 -563 
Q 1194 -478 1313 -144 
Q 1328 -97 1363 -6 
L 103 3319 
L 709 3319 
L 1400 1397 
Q 1534 1031 1641 628 
Q 1738 1016 1872 1384 
L 2581 3319 
L 3144 3319 
L 1881 -56 
Q 1678 -603 1566 -809 
Q 1416 -1088 1222 -1217 
Q 1028 -1347 759 -1347 
Q 597 -1347 397 -1278 
z
" transform="scale(0.015625)"/>
       <path id="ArialMT-28" d="M 1497 -1347 
Q 1031 -759 709 28 
Q 388 816 388 1659 
Q 388 2403 628 3084 
Q 909 3875 1497 4659 
L 1900 4659 
Q 1522 4009 1400 3731 
Q 1209 3300 1100 2831 
Q 966 2247 966 1656 
Q 966 153 1900 -1347 
L 1497 -1347 
z
" transform="scale(0.015625)"/>
       <path id="ArialMT-63" d="M 2588 1216 
L 3141 1144 
Q 3050 572 2676 248 
Q 2303 -75 1759 -75 
Q 1078 -75 664 370 
Q 250 816 250 1647 
Q 250 2184 428 2587 
Q 606 2991 970 3192 
Q 1334 3394 1763 3394 
Q 2303 3394 2647 3120 
Q 2991 2847 3088 2344 
L 2541 2259 
Q 2463 2594 2264 2762 
Q 2066 2931 1784 2931 
Q 1359 2931 1093 2626 
Q 828 2322 828 1663 
Q 828 994 1084 691 
Q 1341 388 1753 388 
Q 2084 388 2306 591 
Q 2528 794 2588 1216 
z
" transform="scale(0.015625)"/>
       <path id="ArialMT-6f" d="M 213 1659 
Q 213 2581 725 3025 
Q 1153 3394 1769 3394 
Q 2453 3394 2887 2945 
Q 3322 2497 3322 1706 
Q 3322 1066 3130 698 
Q 2938 331 2570 128 
Q 2203 -75 1769 -75 
Q 1072 -75 642 372 
Q 213 819 213 1659 
z
M 791 1659 
Q 791 1022 1069 705 
Q 1347 388 1769 388 
Q 2188 388 2466 706 
Q 2744 1025 2744 1678 
Q 2744 2294 2464 2611 
Q 2184 2928 1769 2928 
Q 1347 2928 1069 2612 
Q 791 2297 791 1659 
z
" transform="scale(0.015625)"/>
       <path id="ArialMT-6d" d="M 422 0 
L 422 3319 
L 925 3319 
L 925 2853 
Q 1081 3097 1340 3245 
Q 1600 3394 1931 3394 
Q 2300 3394 2536 3241 
Q 2772 3088 2869 2813 
Q 3263 3394 3894 3394 
Q 4388 3394 4653 3120 
Q 4919 2847 4919 2278 
L 4919 0 
L 4359 0 
L 4359 2091 
Q 4359 2428 4304 2576 
Q 4250 2725 4106 2815 
Q 3963 2906 3769 2906 
Q 3419 2906 3187 2673 
Q 2956 2441 2956 1928 
L 2956 0 
L 2394 0 
L 2394 2156 
Q 2394 2531 2256 2718 
Q 2119 2906 1806 2906 
Q 1569 2906 1367 2781 
Q 1166 2656 1075 2415 
Q 984 2175 984 1722 
L 984 0 
L 422 0 
z
" transform="scale(0.015625)"/>
       <path id="ArialMT-70" d="M 422 -1272 
L 422 3319 
L 934 3319 
L 934 2888 
Q 1116 3141 1344 3267 
Q 1572 3394 1897 3394 
Q 2322 3394 2647 3175 
Q 2972 2956 3137 2557 
Q 3303 2159 3303 1684 
Q 3303 1175 3120 767 
Q 2938 359 2589 142 
Q 2241 -75 1856 -75 
Q 1575 -75 1351 44 
Q 1128 163 984 344 
L 984 -1272 
L 422 -1272 
z
M 931 1641 
Q 931 1000 1190 694 
Q 1450 388 1819 388 
Q 2194 388 2461 705 
Q 2728 1022 2728 1688 
Q 2728 2322 2467 2637 
Q 2206 2953 1844 2953 
Q 1484 2953 1207 2617 
Q 931 2281 931 1641 
z
" transform="scale(0.015625)"/>
       <path id="ArialMT-5f" d="M -97 -1272 
L -97 -866 
L 3631 -866 
L 3631 -1272 
L -97 -1272 
z
" transform="scale(0.015625)"/>
       <path id="ArialMT-29" d="M 791 -1347 
L 388 -1347 
Q 1322 153 1322 1656 
Q 1322 2244 1188 2822 
Q 1081 3291 891 3722 
Q 769 4003 388 4659 
L 791 4659 
Q 1378 3875 1659 3084 
Q 1900 2403 1900 1659 
Q 1900 816 1576 28 
Q 1253 -759 791 -1347 
z
" transform="scale(0.015625)"/>
      </defs>
      <use xlink:href="#ArialMT-52"/>
      <use xlink:href="#ArialMT-65" x="72.216797"/>
      <use xlink:href="#ArialMT-77" x="127.832031"/>
      <use xlink:href="#ArialMT-61" x="200.048828"/>
      <use xlink:href="#ArialMT-72" x="255.664062"/>
      <use xlink:href="#ArialMT-64" x="288.964844"/>
      <use xlink:href="#ArialMT-20" x="344.580078"/>
      <use xlink:href="#ArialMT-53" x="372.363281"/>
      <use xlink:href="#ArialMT-65" x="439.0625"/>
      <use xlink:href="#ArialMT-6e" x="494.677734"/>
      <use xlink:href="#ArialMT-73" x="550.292969"/>
      <use xlink:href="#ArialMT-69" x="600.292969"/>
      <use xlink:href="#ArialMT-74" x="622.509766"/>
      <use xlink:href="#ArialMT-69" x="650.292969"/>
      <use xlink:href="#ArialMT-76" x="672.509766"/>
      <use xlink:href="#ArialMT-69" x="722.509766"/>
      <use xlink:href="#ArialMT-74" x="744.726562"/>
      <use xlink:href="#ArialMT-79" x="772.509766"/>
      <use xlink:href="#ArialMT-20" x="822.509766"/>
      <use xlink:href="#ArialMT-28" x="850.292969"/>
      <use xlink:href="#ArialMT-63" x="883.59375"/>
      <use xlink:href="#ArialMT-6f" x="933.59375"/>
      <use xlink:href="#ArialMT-6d" x="989.208984"/>
      <use xlink:href="#ArialMT-70" x="1072.509766"/>
      <use xlink:href="#ArialMT-5f" x="1128.125"/>
      <use xlink:href="#ArialMT-52" x="1183.740234"/>
      <use xlink:href="#ArialMT-53" x="1255.957031"/>
      <use xlink:href="#ArialMT-29" x="1322.65625"/>
     </g>
    </g>
   </g>
   <g id="matplotlib.axis_2">
    <g id="ytick_1">
     <g id="text_7">
      <!-- −5 -->
      <g style="fill: #262626" transform="translate(49.4555 303.184474) scale(0.16 -0.16)">
       <defs>
        <path id="ArialMT-35" d="M 266 1200 
L 856 1250 
Q 922 819 1161 601 
Q 1400 384 1738 384 
Q 2144 384 2425 690 
Q 2706 997 2706 1503 
Q 2706 1984 2436 2262 
Q 2166 2541 1728 2541 
Q 1456 2541 1237 2417 
Q 1019 2294 894 2097 
L 366 2166 
L 809 4519 
L 3088 4519 
L 3088 3981 
L 1259 3981 
L 1013 2750 
Q 1425 3038 1878 3038 
Q 2478 3038 2890 2622 
Q 3303 2206 3303 1553 
Q 3303 931 2941 478 
Q 2500 -78 1738 -78 
Q 1113 -78 717 272 
Q 322 622 266 1200 
z
" transform="scale(0.015625)"/>
       </defs>
       <use xlink:href="#ArialMT-2212"/>
       <use xlink:href="#ArialMT-35" x="58.398438"/>
      </g>
     </g>
    </g>
    <g id="ytick_2">
     <g id="text_8">
      <!-- 0 -->
      <g style="fill: #262626" transform="translate(58.8005 253.843018) scale(0.16 -0.16)">
       <use xlink:href="#ArialMT-30"/>
      </g>
     </g>
    </g>
    <g id="ytick_3">
     <g id="text_9">
      <!-- 5 -->
      <g style="fill: #262626" transform="translate(58.8005 204.501563) scale(0.16 -0.16)">
       <use xlink:href="#ArialMT-35"/>
      </g>
     </g>
    </g>
    <g id="ytick_4">
     <g id="text_10">
      <!-- 10 -->
      <g style="fill: #262626" transform="translate(49.903 155.160107) scale(0.16 -0.16)">
       <defs>
        <path id="ArialMT-31" d="M 2384 0 
L 1822 0 
L 1822 3584 
Q 1619 3391 1289 3197 
Q 959 3003 697 2906 
L 697 3450 
Q 1169 3672 1522 3987 
Q 1875 4303 2022 4600 
L 2384 4600 
L 2384 0 
z
" transform="scale(0.015625)"/>
       </defs>
       <use xlink:href="#ArialMT-31"/>
       <use xlink:href="#ArialMT-30" x="55.615234"/>
      </g>
     </g>
    </g>
    <g id="ytick_5">
     <g id="text_11">
      <!-- 15 -->
      <g style="fill: #262626" transform="translate(49.903 105.818652) scale(0.16 -0.16)">
       <use xlink:href="#ArialMT-31"/>
       <use xlink:href="#ArialMT-35" x="55.615234"/>
      </g>
     </g>
    </g>
    <g id="ytick_6">
     <g id="text_12">
      <!-- 20 -->
      <g style="fill: #262626" transform="translate(49.903 56.477196) scale(0.16 -0.16)">
       <use xlink:href="#ArialMT-32"/>
       <use xlink:href="#ArialMT-30" x="55.615234"/>
      </g>
     </g>
    </g>
    <g id="text_13">
     <!-- Simple Slope of Behavioral Motivation -->
     <g style="fill: #262626" transform="translate(19.799875 326.309062) rotate(-90) scale(0.2 -0.2)">
      <defs>
       <path id="ArialMT-6c" d="M 409 0 
L 409 4581 
L 972 4581 
L 972 0 
L 409 0 
z
" transform="scale(0.015625)"/>
       <path id="ArialMT-66" d="M 556 0 
L 556 2881 
L 59 2881 
L 59 3319 
L 556 3319 
L 556 3672 
Q 556 4006 616 4169 
Q 697 4388 901 4523 
Q 1106 4659 1475 4659 
Q 1713 4659 2000 4603 
L 1916 4113 
Q 1741 4144 1584 4144 
Q 1328 4144 1222 4034 
Q 1116 3925 1116 3625 
L 1116 3319 
L 1763 3319 
L 1763 2881 
L 1116 2881 
L 1116 0 
L 556 0 
z
" transform="scale(0.015625)"/>
       <path id="ArialMT-42" d="M 469 0 
L 469 4581 
L 2188 4581 
Q 2713 4581 3030 4442 
Q 3347 4303 3526 4014 
Q 3706 3725 3706 3409 
Q 3706 3116 3547 2856 
Q 3388 2597 3066 2438 
Q 3481 2316 3704 2022 
Q 3928 1728 3928 1328 
Q 3928 1006 3792 729 
Q 3656 453 3456 303 
Q 3256 153 2954 76 
Q 2653 0 2216 0 
L 469 0 
z
M 1075 2656 
L 2066 2656 
Q 2469 2656 2644 2709 
Q 2875 2778 2992 2937 
Q 3109 3097 3109 3338 
Q 3109 3566 3000 3739 
Q 2891 3913 2687 3977 
Q 2484 4041 1991 4041 
L 1075 4041 
L 1075 2656 
z
M 1075 541 
L 2216 541 
Q 2509 541 2628 563 
Q 2838 600 2978 687 
Q 3119 775 3209 942 
Q 3300 1109 3300 1328 
Q 3300 1584 3169 1773 
Q 3038 1963 2805 2039 
Q 2572 2116 2134 2116 
L 1075 2116 
L 1075 541 
z
" transform="scale(0.015625)"/>
       <path id="ArialMT-68" d="M 422 0 
L 422 4581 
L 984 4581 
L 984 2938 
Q 1378 3394 1978 3394 
Q 2347 3394 2619 3248 
Q 2891 3103 3008 2847 
Q 3125 2591 3125 2103 
L 3125 0 
L 2563 0 
L 2563 2103 
Q 2563 2525 2380 2717 
Q 2197 2909 1863 2909 
Q 1613 2909 1392 2779 
Q 1172 2650 1078 2428 
Q 984 2206 984 1816 
L 984 0 
L 422 0 
z
" transform="scale(0.015625)"/>
       <path id="ArialMT-4d" d="M 475 0 
L 475 4581 
L 1388 4581 
L 2472 1338 
Q 2622 884 2691 659 
Q 2769 909 2934 1394 
L 4031 4581 
L 4847 4581 
L 4847 0 
L 4263 0 
L 4263 3834 
L 2931 0 
L 2384 0 
L 1059 3900 
L 1059 0 
L 475 0 
z
" transform="scale(0.015625)"/>
      </defs>
      <use xlink:href="#ArialMT-53"/>
      <use xlink:href="#ArialMT-69" x="66.699219"/>
      <use xlink:href="#ArialMT-6d" x="88.916016"/>
      <use xlink:href="#ArialMT-70" x="172.216797"/>
      <use xlink:href="#ArialMT-6c" x="227.832031"/>
      <use xlink:href="#ArialMT-65" x="250.048828"/>
      <use xlink:href="#ArialMT-20" x="305.664062"/>
      <use xlink:href="#ArialMT-53" x="333.447266"/>
      <use xlink:href="#ArialMT-6c" x="400.146484"/>
      <use xlink:href="#ArialMT-6f" x="422.363281"/>
      <use xlink:href="#ArialMT-70" x="477.978516"/>
      <use xlink:href="#ArialMT-65" x="533.59375"/>
      <use xlink:href="#ArialMT-20" x="589.208984"/>
      <use xlink:href="#ArialMT-6f" x="616.992188"/>
      <use xlink:href="#ArialMT-66" x="672.607422"/>
      <use xlink:href="#ArialMT-20" x="700.390625"/>
      <use xlink:href="#ArialMT-42" x="728.173828"/>
      <use xlink:href="#ArialMT-65" x="794.873047"/>
      <use xlink:href="#ArialMT-68" x="850.488281"/>
      <use xlink:href="#ArialMT-61" x="906.103516"/>
      <use xlink:href="#ArialMT-76" x="961.71875"/>
      <use xlink:href="#ArialMT-69" x="1011.71875"/>
      <use xlink:href="#ArialMT-6f" x="1033.935547"/>
      <use xlink:href="#ArialMT-72" x="1089.550781"/>
      <use xlink:href="#ArialMT-61" x="1122.851562"/>
      <use xlink:href="#ArialMT-6c" x="1178.466797"/>
      <use xlink:href="#ArialMT-20" x="1200.683594"/>
      <use xlink:href="#ArialMT-4d" x="1228.466797"/>
      <use xlink:href="#ArialMT-6f" x="1311.767578"/>
      <use xlink:href="#ArialMT-74" x="1367.382812"/>
      <use xlink:href="#ArialMT-69" x="1395.166016"/>
      <use xlink:href="#ArialMT-76" x="1417.382812"/>
      <use xlink:href="#ArialMT-61" x="1467.382812"/>
      <use xlink:href="#ArialMT-74" x="1522.998047"/>
      <use xlink:href="#ArialMT-69" x="1550.78125"/>
      <use xlink:href="#ArialMT-6f" x="1572.998047"/>
      <use xlink:href="#ArialMT-6e" x="1628.613281"/>
     </g>
     <!-- on DMN-VS (LG&gt;N) (zstat) -->
     <g style="fill: #262626" transform="translate(41.246125 277.6325) rotate(-90) scale(0.2 -0.2)">
      <defs>
       <path id="ArialMT-44" d="M 494 0 
L 494 4581 
L 2072 4581 
Q 2606 4581 2888 4516 
Q 3281 4425 3559 4188 
Q 3922 3881 4101 3404 
Q 4281 2928 4281 2316 
Q 4281 1794 4159 1391 
Q 4038 988 3847 723 
Q 3656 459 3429 307 
Q 3203 156 2883 78 
Q 2563 0 2147 0 
L 494 0 
z
M 1100 541 
L 2078 541 
Q 2531 541 2789 625 
Q 3047 709 3200 863 
Q 3416 1078 3536 1442 
Q 3656 1806 3656 2325 
Q 3656 3044 3420 3430 
Q 3184 3816 2847 3947 
Q 2603 4041 2063 4041 
L 1100 4041 
L 1100 541 
z
" transform="scale(0.015625)"/>
       <path id="ArialMT-4e" d="M 488 0 
L 488 4581 
L 1109 4581 
L 3516 984 
L 3516 4581 
L 4097 4581 
L 4097 0 
L 3475 0 
L 1069 3600 
L 1069 0 
L 488 0 
z
" transform="scale(0.015625)"/>
       <path id="ArialMT-2d" d="M 203 1375 
L 203 1941 
L 1931 1941 
L 1931 1375 
L 203 1375 
z
" transform="scale(0.015625)"/>
       <path id="ArialMT-56" d="M 1803 0 
L 28 4581 
L 684 4581 
L 1875 1253 
Q 2019 853 2116 503 
Q 2222 878 2363 1253 
L 3600 4581 
L 4219 4581 
L 2425 0 
L 1803 0 
z
" transform="scale(0.015625)"/>
       <path id="ArialMT-4c" d="M 469 0 
L 469 4581 
L 1075 4581 
L 1075 541 
L 3331 541 
L 3331 0 
L 469 0 
z
" transform="scale(0.015625)"/>
       <path id="ArialMT-47" d="M 2638 1797 
L 2638 2334 
L 4578 2338 
L 4578 638 
Q 4131 281 3656 101 
Q 3181 -78 2681 -78 
Q 2006 -78 1454 211 
Q 903 500 622 1047 
Q 341 1594 341 2269 
Q 341 2938 620 3517 
Q 900 4097 1425 4378 
Q 1950 4659 2634 4659 
Q 3131 4659 3532 4498 
Q 3934 4338 4162 4050 
Q 4391 3763 4509 3300 
L 3963 3150 
Q 3859 3500 3706 3700 
Q 3553 3900 3268 4020 
Q 2984 4141 2638 4141 
Q 2222 4141 1919 4014 
Q 1616 3888 1430 3681 
Q 1244 3475 1141 3228 
Q 966 2803 966 2306 
Q 966 1694 1177 1281 
Q 1388 869 1791 669 
Q 2194 469 2647 469 
Q 3041 469 3416 620 
Q 3791 772 3984 944 
L 3984 1797 
L 2638 1797 
z
" transform="scale(0.015625)"/>
       <path id="ArialMT-3e" d="M 3384 2003 
L 350 706 
L 350 1266 
L 2753 2263 
L 350 3250 
L 350 3809 
L 3384 2528 
L 3384 2003 
z
" transform="scale(0.015625)"/>
       <path id="ArialMT-7a" d="M 125 0 
L 125 456 
L 2238 2881 
Q 1878 2863 1603 2863 
L 250 2863 
L 250 3319 
L 2963 3319 
L 2963 2947 
L 1166 841 
L 819 456 
Q 1197 484 1528 484 
L 3063 484 
L 3063 0 
L 125 0 
z
" transform="scale(0.015625)"/>
      </defs>
      <use xlink:href="#ArialMT-6f"/>
      <use xlink:href="#ArialMT-6e" x="55.615234"/>
      <use xlink:href="#ArialMT-20" x="111.230469"/>
      <use xlink:href="#ArialMT-44" x="139.013672"/>
      <use xlink:href="#ArialMT-4d" x="211.230469"/>
      <use xlink:href="#ArialMT-4e" x="294.53125"/>
      <use xlink:href="#ArialMT-2d" x="366.748047"/>
      <use xlink:href="#ArialMT-56" x="400.048828"/>
      <use xlink:href="#ArialMT-53" x="466.748047"/>
      <use xlink:href="#ArialMT-20" x="533.447266"/>
      <use xlink:href="#ArialMT-28" x="561.230469"/>
      <use xlink:href="#ArialMT-4c" x="594.53125"/>
      <use xlink:href="#ArialMT-47" x="650.146484"/>
      <use xlink:href="#ArialMT-3e" x="727.929688"/>
      <use xlink:href="#ArialMT-4e" x="786.328125"/>
      <use xlink:href="#ArialMT-29" x="858.544922"/>
      <use xlink:href="#ArialMT-20" x="891.845703"/>
      <use xlink:href="#ArialMT-28" x="919.628906"/>
      <use xlink:href="#ArialMT-7a" x="952.929688"/>
      <use xlink:href="#ArialMT-73" x="1002.929688"/>
      <use xlink:href="#ArialMT-74" x="1052.929688"/>
      <use xlink:href="#ArialMT-61" x="1080.712891"/>
      <use xlink:href="#ArialMT-74" x="1136.328125"/>
      <use xlink:href="#ArialMT-29" x="1164.111328"/>
     </g>
    </g>
   </g>
   <g id="PolyCollection_1">
    <defs>
     <path id="m8a85aaa8bb" d="M 89.075364 -341.100455 
L 89.075364 -170.246773 
L 91.979882 -169.723269 
L 94.884399 -169.198154 
L 97.788917 -168.671367 
L 100.693435 -168.142845 
L 103.597953 -167.612522 
L 106.502471 -167.080329 
L 109.406989 -166.546193 
L 112.311507 -166.010038 
L 115.216025 -165.471784 
L 118.120543 -164.931347 
L 121.025061 -164.388637 
L 123.929579 -163.843561 
L 126.834096 -163.296021 
L 129.738614 -162.745913 
L 132.643132 -162.193128 
L 135.54765 -161.637551 
L 138.452168 -161.07906 
L 141.356686 -160.517527 
L 144.261204 -159.952816 
L 147.165722 -159.384784 
L 150.07024 -158.81328 
L 152.974758 -158.238144 
L 155.879275 -157.659205 
L 158.783793 -157.076285 
L 161.688311 -156.489193 
L 164.592829 -155.897727 
L 167.497347 -155.301674 
L 170.401865 -154.700807 
L 173.306383 -154.094885 
L 176.210901 -153.483652 
L 179.115419 -152.866836 
L 182.019937 -152.24415 
L 184.924455 -151.615285 
L 187.828972 -150.979916 
L 190.73349 -150.337695 
L 193.638008 -149.688252 
L 196.542526 -149.031195 
L 199.447044 -148.366104 
L 202.351562 -147.692534 
L 205.25608 -147.01001 
L 208.160598 -146.318026 
L 211.065116 -145.616046 
L 213.969634 -144.903496 
L 216.874152 -144.179768 
L 219.778669 -143.444215 
L 222.683187 -142.696148 
L 225.587705 -141.934837 
L 228.492223 -141.159507 
L 231.396741 -140.369337 
L 234.301259 -139.56346 
L 237.205777 -138.740956 
L 240.110295 -137.90086 
L 243.014813 -137.042154 
L 245.919331 -136.16377 
L 248.823848 -135.264593 
L 251.728366 -134.343458 
L 254.632884 -133.399159 
L 257.537402 -132.430446 
L 260.44192 -131.436036 
L 263.346438 -130.414618 
L 266.250956 -129.36486 
L 269.155474 -128.285421 
L 272.059992 -127.17496 
L 274.96451 -126.032154 
L 277.869028 -124.855708 
L 280.773545 -123.644376 
L 283.678063 -122.396973 
L 286.582581 -121.112396 
L 289.487099 -119.789645 
L 292.391617 -118.427833 
L 295.296135 -117.026211 
L 298.200653 -115.584173 
L 301.105171 -114.101279 
L 304.009689 -112.577255 
L 306.914207 -111.012003 
L 309.818725 -109.405604 
L 312.723242 -107.758313 
L 315.62776 -106.070557 
L 318.532278 -104.342923 
L 321.436796 -102.576149 
L 324.341314 -100.771106 
L 327.245832 -98.928787 
L 330.15035 -97.050284 
L 333.054868 -95.136774 
L 335.959386 -93.189498 
L 338.863904 -91.209748 
L 341.768421 -89.198845 
L 344.672939 -87.158128 
L 347.577457 -85.088939 
L 350.481975 -82.99261 
L 353.386493 -80.870457 
L 356.291011 -78.723764 
L 359.195529 -76.553785 
L 362.100047 -74.361731 
L 365.004565 -72.148771 
L 367.909083 -69.916025 
L 370.813601 -67.664565 
L 373.718118 -65.395415 
L 376.622636 -63.109545 
L 376.622636 -141.996196 
L 376.622636 -141.996196 
L 373.718118 -142.803674 
L 370.813601 -143.627872 
L 367.909083 -144.469761 
L 365.004565 -145.330364 
L 362.100047 -146.210752 
L 359.195529 -147.112046 
L 356.291011 -148.035415 
L 353.386493 -148.982071 
L 350.481975 -149.953266 
L 347.577457 -150.950285 
L 344.672939 -151.974444 
L 341.768421 -153.027076 
L 338.863904 -154.109521 
L 335.959386 -155.223119 
L 333.054868 -156.369193 
L 330.15035 -157.549031 
L 327.245832 -158.763876 
L 324.341314 -160.014905 
L 321.436796 -161.303211 
L 318.532278 -162.629785 
L 315.62776 -163.995499 
L 312.723242 -165.401091 
L 309.818725 -166.847149 
L 306.914207 -168.334098 
L 304.009689 -169.862195 
L 301.105171 -171.431519 
L 298.200653 -173.041973 
L 295.296135 -174.693284 
L 292.391617 -176.38501 
L 289.487099 -178.116547 
L 286.582581 -179.887144 
L 283.678063 -181.695916 
L 280.773545 -183.541861 
L 277.869028 -185.423876 
L 274.96451 -187.340779 
L 272.059992 -189.291322 
L 269.155474 -191.274209 
L 266.250956 -193.288118 
L 263.346438 -195.331708 
L 260.44192 -197.403639 
L 257.537402 -199.502577 
L 254.632884 -201.627213 
L 251.728366 -203.776262 
L 248.823848 -205.948475 
L 245.919331 -208.142646 
L 243.014813 -210.357611 
L 240.110295 -212.592253 
L 237.205777 -214.845505 
L 234.301259 -217.11635 
L 231.396741 -219.403821 
L 228.492223 -221.707 
L 225.587705 -224.025018 
L 222.683187 -226.357056 
L 219.778669 -228.702337 
L 216.874152 -231.060132 
L 213.969634 -233.429752 
L 211.065116 -235.810551 
L 208.160598 -238.201919 
L 205.25608 -240.603284 
L 202.351562 -243.014108 
L 199.447044 -245.433886 
L 196.542526 -247.862144 
L 193.638008 -250.298435 
L 190.73349 -252.742341 
L 187.828972 -255.193468 
L 184.924455 -257.651447 
L 182.019937 -260.115931 
L 179.115419 -262.586593 
L 176.210901 -265.063125 
L 173.306383 -267.545241 
L 170.401865 -270.032667 
L 167.497347 -272.525148 
L 164.592829 -275.022443 
L 161.688311 -277.524326 
L 158.783793 -280.030582 
L 155.879275 -282.54101 
L 152.974758 -285.05542 
L 150.07024 -287.573632 
L 147.165722 -290.095476 
L 144.261204 -292.620793 
L 141.356686 -295.14943 
L 138.452168 -297.681246 
L 135.54765 -300.216103 
L 132.643132 -302.753874 
L 129.738614 -305.294438 
L 126.834096 -307.837678 
L 123.929579 -310.383486 
L 121.025061 -312.931759 
L 118.120543 -315.482397 
L 115.216025 -318.035308 
L 112.311507 -320.590402 
L 109.406989 -323.147596 
L 106.502471 -325.706809 
L 103.597953 -328.267964 
L 100.693435 -330.830989 
L 97.788917 -333.395816 
L 94.884399 -335.962377 
L 91.979882 -338.53061 
L 89.075364 -341.100455 
z
" style="stroke: #808080; stroke-opacity: 0.3"/>
    </defs>
    <g clip-path="url(#p88c5db2934)">
     <use xlink:href="#m8a85aaa8bb" x="0" y="360" style="fill: #808080; fill-opacity: 0.3; stroke: #808080; stroke-opacity: 0.3"/>
    </g>
   </g>
   <g id="PolyCollection_2">
    <defs>
     <path id="ma8a6935765" d="M 89.075364 -341.100455 
L 89.075364 -170.246773 
L 91.979882 -169.723269 
L 94.884399 -169.198154 
L 97.788917 -168.671367 
L 100.693435 -168.142845 
L 103.597953 -167.612522 
L 106.502471 -167.080329 
L 109.406989 -166.546193 
L 112.311507 -166.010038 
L 115.216025 -165.471784 
L 118.120543 -164.931347 
L 121.025061 -164.388637 
L 123.929579 -163.843561 
L 126.834096 -163.296021 
L 129.738614 -162.745913 
L 132.643132 -162.193128 
L 135.54765 -161.637551 
L 138.452168 -161.07906 
L 141.356686 -160.517527 
L 144.261204 -159.952816 
L 147.165722 -159.384784 
L 150.07024 -158.81328 
L 152.974758 -158.238144 
L 155.879275 -157.659205 
L 158.783793 -157.076285 
L 161.688311 -156.489193 
L 164.592829 -155.897727 
L 167.497347 -155.301674 
L 170.401865 -154.700807 
L 173.306383 -154.094885 
L 176.210901 -153.483652 
L 179.115419 -152.866836 
L 182.019937 -152.24415 
L 184.924455 -151.615285 
L 187.828972 -150.979916 
L 190.73349 -150.337695 
L 193.638008 -149.688252 
L 196.542526 -149.031195 
L 199.447044 -148.366104 
L 202.351562 -147.692534 
L 205.25608 -147.01001 
L 208.160598 -146.318026 
L 211.065116 -145.616046 
L 213.969634 -144.903496 
L 216.874152 -144.179768 
L 219.778669 -143.444215 
L 222.683187 -142.696148 
L 225.587705 -141.934837 
L 228.492223 -141.159507 
L 231.396741 -140.369337 
L 234.301259 -139.56346 
L 237.205777 -138.740956 
L 240.110295 -137.90086 
L 243.014813 -137.042154 
L 245.919331 -136.16377 
L 248.823848 -135.264593 
L 251.728366 -134.343458 
L 254.632884 -133.399159 
L 257.537402 -132.430446 
L 260.44192 -131.436036 
L 263.346438 -130.414618 
L 266.250956 -129.36486 
L 269.155474 -128.285421 
L 272.059992 -127.17496 
L 274.96451 -126.032154 
L 277.869028 -124.855708 
L 280.773545 -123.644376 
L 283.678063 -122.396973 
L 286.582581 -121.112396 
L 289.487099 -119.789645 
L 292.391617 -118.427833 
L 295.296135 -117.026211 
L 298.200653 -115.584173 
L 301.105171 -114.101279 
L 304.009689 -112.577255 
L 304.009689 -169.862195 
L 304.009689 -169.862195 
L 301.105171 -171.431519 
L 298.200653 -173.041973 
L 295.296135 -174.693284 
L 292.391617 -176.38501 
L 289.487099 -178.116547 
L 286.582581 -179.887144 
L 283.678063 -181.695916 
L 280.773545 -183.541861 
L 277.869028 -185.423876 
L 274.96451 -187.340779 
L 272.059992 -189.291322 
L 269.155474 -191.274209 
L 266.250956 -193.288118 
L 263.346438 -195.331708 
L 260.44192 -197.403639 
L 257.537402 -199.502577 
L 254.632884 -201.627213 
L 251.728366 -203.776262 
L 248.823848 -205.948475 
L 245.919331 -208.142646 
L 243.014813 -210.357611 
L 240.110295 -212.592253 
L 237.205777 -214.845505 
L 234.301259 -217.11635 
L 231.396741 -219.403821 
L 228.492223 -221.707 
L 225.587705 -224.025018 
L 222.683187 -226.357056 
L 219.778669 -228.702337 
L 216.874152 -231.060132 
L 213.969634 -233.429752 
L 211.065116 -235.810551 
L 208.160598 -238.201919 
L 205.25608 -240.603284 
L 202.351562 -243.014108 
L 199.447044 -245.433886 
L 196.542526 -247.862144 
L 193.638008 -250.298435 
L 190.73349 -252.742341 
L 187.828972 -255.193468 
L 184.924455 -257.651447 
L 182.019937 -260.115931 
L 179.115419 -262.586593 
L 176.210901 -265.063125 
L 173.306383 -267.545241 
L 170.401865 -270.032667 
L 167.497347 -272.525148 
L 164.592829 -275.022443 
L 161.688311 -277.524326 
L 158.783793 -280.030582 
L 155.879275 -282.54101 
L 152.974758 -285.05542 
L 150.07024 -287.573632 
L 147.165722 -290.095476 
L 144.261204 -292.620793 
L 141.356686 -295.14943 
L 138.452168 -297.681246 
L 135.54765 -300.216103 
L 132.643132 -302.753874 
L 129.738614 -305.294438 
L 126.834096 -307.837678 
L 123.929579 -310.383486 
L 121.025061 -312.931759 
L 118.120543 -315.482397 
L 115.216025 -318.035308 
L 112.311507 -320.590402 
L 109.406989 -323.147596 
L 106.502471 -325.706809 
L 103.597953 -328.267964 
L 100.693435 -330.830989 
L 97.788917 -333.395816 
L 94.884399 -335.962377 
L 91.979882 -338.53061 
L 89.075364 -341.100455 
z
" style="stroke: #008000; stroke-opacity: 0.2"/>
    </defs>
    <g clip-path="url(#p88c5db2934)">
     <use xlink:href="#ma8a6935765" x="0" y="360" style="fill: #008000; fill-opacity: 0.2; stroke: #008000; stroke-opacity: 0.2"/>
    </g>
   </g>
   <g id="line2d_1">
    <path d="M 89.075364 104.326386 
L 91.979882 105.87306 
L 94.884399 107.419735 
L 97.788917 108.966409 
L 100.693435 110.513083 
L 103.597953 112.059757 
L 106.502471 113.606431 
L 109.406989 115.153105 
L 112.311507 116.69978 
L 115.216025 118.246454 
L 118.120543 119.793128 
L 121.025061 121.339802 
L 123.929579 122.886476 
L 126.834096 124.433151 
L 129.738614 125.979825 
L 132.643132 127.526499 
L 135.54765 129.073173 
L 138.452168 130.619847 
L 141.356686 132.166521 
L 144.261204 133.713196 
L 147.165722 135.25987 
L 150.07024 136.806544 
L 152.974758 138.353218 
L 155.879275 139.899892 
L 158.783793 141.446566 
L 161.688311 142.993241 
L 164.592829 144.539915 
L 167.497347 146.086589 
L 170.401865 147.633263 
L 173.306383 149.179937 
L 176.210901 150.726611 
L 179.115419 152.273286 
L 182.019937 153.81996 
L 184.924455 155.366634 
L 187.828972 156.913308 
L 190.73349 158.459982 
L 193.638008 160.006657 
L 196.542526 161.553331 
L 199.447044 163.100005 
L 202.351562 164.646679 
L 205.25608 166.193353 
L 208.160598 167.740027 
L 211.065116 169.286702 
L 213.969634 170.833376 
L 216.874152 172.38005 
L 219.778669 173.926724 
L 222.683187 175.473398 
L 225.587705 177.020072 
L 228.492223 178.566747 
L 231.396741 180.113421 
L 234.301259 181.660095 
L 237.205777 183.206769 
L 240.110295 184.753443 
L 243.014813 186.300118 
L 245.919331 187.846792 
L 248.823848 189.393466 
L 251.728366 190.94014 
L 254.632884 192.486814 
L 257.537402 194.033488 
L 260.44192 195.580163 
L 263.346438 197.126837 
L 266.250956 198.673511 
L 269.155474 200.220185 
L 272.059992 201.766859 
L 274.96451 203.313533 
L 277.869028 204.860208 
L 280.773545 206.406882 
L 283.678063 207.953556 
L 286.582581 209.50023 
L 289.487099 211.046904 
L 292.391617 212.593578 
L 295.296135 214.140253 
L 298.200653 215.686927 
L 301.105171 217.233601 
L 304.009689 218.780275 
L 306.914207 220.326949 
L 309.818725 221.873624 
L 312.723242 223.420298 
L 315.62776 224.966972 
L 318.532278 226.513646 
L 321.436796 228.06032 
L 324.341314 229.606994 
L 327.245832 231.153669 
L 330.15035 232.700343 
L 333.054868 234.247017 
L 335.959386 235.793691 
L 338.863904 237.340365 
L 341.768421 238.887039 
L 344.672939 240.433714 
L 347.577457 241.980388 
L 350.481975 243.527062 
L 353.386493 245.073736 
L 356.291011 246.62041 
L 359.195529 248.167084 
L 362.100047 249.713759 
L 365.004565 251.260433 
L 367.909083 252.807107 
L 370.813601 254.353781 
L 373.718118 255.900455 
L 376.622636 257.44713 
" clip-path="url(#p88c5db2934)" style="fill: none; stroke: #000000; stroke-width: 3; stroke-linecap: round"/>
   </g>
   <g id="line2d_2">
    <path d="M 74.698 248.116768 
L 391 248.116768 
" clip-path="url(#p88c5db2934)" style="fill: none; stroke-dasharray: 5.55,2.4; stroke-dashoffset: 0; stroke: #ff0000; stroke-width: 1.5"/>
   </g>
   <g id="patch_3">
    <path d="M 74.698 310.79 
L 74.698 5 
" style="fill: none; stroke: #000000; stroke-linejoin: miter; stroke-linecap: square"/>
   </g>
   <g id="patch_4">
    <path d="M 74.698 310.79 
L 391 310.79 
" style="fill: none; stroke: #000000; stroke-linejoin: miter; stroke-linecap: square"/>
   </g>
   <g id="legend_1">
    <g id="patch_5">
     <path d="M 141.3925 86.275 
L 379.8 86.275 
Q 383 86.275 383 83.075 
L 383 16.2 
Q 383 13 379.8 13 
L 141.3925 13 
Q 138.1925 13 138.1925 16.2 
L 138.1925 83.075 
Q 138.1925 86.275 141.3925 86.275 
z
" style="fill: #ffffff; opacity: 0.8; stroke: #cccccc; stroke-linejoin: miter"/>
    </g>
    <g id="line2d_3">
     <path d="M 144.5925 25.4475 
L 160.5925 25.4475 
L 176.5925 25.4475 
" style="fill: none; stroke: #000000; stroke-width: 3; stroke-linecap: round"/>
    </g>
    <g id="text_14">
     <!-- Simple Slope -->
     <g style="fill: #262626" transform="translate(189.3925 31.0475) scale(0.16 -0.16)">
      <use xlink:href="#ArialMT-53"/>
      <use xlink:href="#ArialMT-69" x="66.699219"/>
      <use xlink:href="#ArialMT-6d" x="88.916016"/>
      <use xlink:href="#ArialMT-70" x="172.216797"/>
      <use xlink:href="#ArialMT-6c" x="227.832031"/>
      <use xlink:href="#ArialMT-65" x="250.048828"/>
      <use xlink:href="#ArialMT-20" x="305.664062"/>
      <use xlink:href="#ArialMT-53" x="333.447266"/>
      <use xlink:href="#ArialMT-6c" x="400.146484"/>
      <use xlink:href="#ArialMT-6f" x="422.363281"/>
      <use xlink:href="#ArialMT-70" x="477.978516"/>
      <use xlink:href="#ArialMT-65" x="533.59375"/>
     </g>
    </g>
    <g id="patch_6">
     <path d="M 144.5925 53.68 
L 176.5925 53.68 
L 176.5925 42.48 
L 144.5925 42.48 
z
" style="fill: #808080; fill-opacity: 0.3; stroke: #808080; stroke-opacity: 0.3; stroke-linejoin: miter"/>
    </g>
    <g id="text_15">
     <!-- 95% CI -->
     <g style="fill: #262626" transform="translate(189.3925 53.68) scale(0.16 -0.16)">
      <defs>
       <path id="ArialMT-39" d="M 350 1059 
L 891 1109 
Q 959 728 1153 556 
Q 1347 384 1650 384 
Q 1909 384 2104 503 
Q 2300 622 2425 820 
Q 2550 1019 2634 1356 
Q 2719 1694 2719 2044 
Q 2719 2081 2716 2156 
Q 2547 1888 2255 1720 
Q 1963 1553 1622 1553 
Q 1053 1553 659 1965 
Q 266 2378 266 3053 
Q 266 3750 677 4175 
Q 1088 4600 1706 4600 
Q 2153 4600 2523 4359 
Q 2894 4119 3086 3673 
Q 3278 3228 3278 2384 
Q 3278 1506 3087 986 
Q 2897 466 2520 194 
Q 2144 -78 1638 -78 
Q 1100 -78 759 220 
Q 419 519 350 1059 
z
M 2653 3081 
Q 2653 3566 2395 3850 
Q 2138 4134 1775 4134 
Q 1400 4134 1122 3828 
Q 844 3522 844 3034 
Q 844 2597 1108 2323 
Q 1372 2050 1759 2050 
Q 2150 2050 2401 2323 
Q 2653 2597 2653 3081 
z
" transform="scale(0.015625)"/>
       <path id="ArialMT-25" d="M 372 3481 
Q 372 3972 619 4315 
Q 866 4659 1334 4659 
Q 1766 4659 2048 4351 
Q 2331 4044 2331 3447 
Q 2331 2866 2045 2552 
Q 1759 2238 1341 2238 
Q 925 2238 648 2547 
Q 372 2856 372 3481 
z
M 1350 4272 
Q 1141 4272 1002 4090 
Q 863 3909 863 3425 
Q 863 2984 1003 2804 
Q 1144 2625 1350 2625 
Q 1563 2625 1702 2806 
Q 1841 2988 1841 3469 
Q 1841 3913 1700 4092 
Q 1559 4272 1350 4272 
z
M 1353 -169 
L 3859 4659 
L 4316 4659 
L 1819 -169 
L 1353 -169 
z
M 3334 1075 
Q 3334 1569 3581 1911 
Q 3828 2253 4300 2253 
Q 4731 2253 5014 1945 
Q 5297 1638 5297 1041 
Q 5297 459 5011 145 
Q 4725 -169 4303 -169 
Q 3888 -169 3611 142 
Q 3334 453 3334 1075 
z
M 4316 1866 
Q 4103 1866 3964 1684 
Q 3825 1503 3825 1019 
Q 3825 581 3965 400 
Q 4106 219 4313 219 
Q 4528 219 4667 400 
Q 4806 581 4806 1063 
Q 4806 1506 4665 1686 
Q 4525 1866 4316 1866 
z
" transform="scale(0.015625)"/>
       <path id="ArialMT-43" d="M 3763 1606 
L 4369 1453 
Q 4178 706 3683 314 
Q 3188 -78 2472 -78 
Q 1731 -78 1267 223 
Q 803 525 561 1097 
Q 319 1669 319 2325 
Q 319 3041 592 3573 
Q 866 4106 1370 4382 
Q 1875 4659 2481 4659 
Q 3169 4659 3637 4309 
Q 4106 3959 4291 3325 
L 3694 3184 
Q 3534 3684 3231 3912 
Q 2928 4141 2469 4141 
Q 1941 4141 1586 3887 
Q 1231 3634 1087 3207 
Q 944 2781 944 2328 
Q 944 1744 1114 1308 
Q 1284 872 1643 656 
Q 2003 441 2422 441 
Q 2931 441 3284 734 
Q 3638 1028 3763 1606 
z
" transform="scale(0.015625)"/>
       <path id="ArialMT-49" d="M 597 0 
L 597 4581 
L 1203 4581 
L 1203 0 
L 597 0 
z
" transform="scale(0.015625)"/>
      </defs>
      <use xlink:href="#ArialMT-39"/>
      <use xlink:href="#ArialMT-35" x="55.615234"/>
      <use xlink:href="#ArialMT-25" x="111.230469"/>
      <use xlink:href="#ArialMT-20" x="200.146484"/>
      <use xlink:href="#ArialMT-43" x="227.929688"/>
      <use xlink:href="#ArialMT-49" x="300.146484"/>
     </g>
    </g>
    <g id="patch_7">
     <path d="M 144.5925 76.5075 
L 176.5925 76.5075 
L 176.5925 65.3075 
L 144.5925 65.3075 
z
" style="fill: #008000; fill-opacity: 0.2; stroke: #008000; stroke-opacity: 0.2; stroke-linejoin: miter"/>
    </g>
    <g id="text_16">
     <!-- Significant region (p &lt; .05) -->
     <g style="fill: #262626" transform="translate(189.3925 76.5075) scale(0.16 -0.16)">
      <defs>
       <path id="ArialMT-67" d="M 319 -275 
L 866 -356 
Q 900 -609 1056 -725 
Q 1266 -881 1628 -881 
Q 2019 -881 2231 -725 
Q 2444 -569 2519 -288 
Q 2563 -116 2559 434 
Q 2191 0 1641 0 
Q 956 0 581 494 
Q 206 988 206 1678 
Q 206 2153 378 2554 
Q 550 2956 876 3175 
Q 1203 3394 1644 3394 
Q 2231 3394 2613 2919 
L 2613 3319 
L 3131 3319 
L 3131 450 
Q 3131 -325 2973 -648 
Q 2816 -972 2473 -1159 
Q 2131 -1347 1631 -1347 
Q 1038 -1347 672 -1080 
Q 306 -813 319 -275 
z
M 784 1719 
Q 784 1066 1043 766 
Q 1303 466 1694 466 
Q 2081 466 2343 764 
Q 2606 1063 2606 1700 
Q 2606 2309 2336 2618 
Q 2066 2928 1684 2928 
Q 1309 2928 1046 2623 
Q 784 2319 784 1719 
z
" transform="scale(0.015625)"/>
       <path id="ArialMT-3c" d="M 350 2003 
L 350 2528 
L 3384 3809 
L 3384 3250 
L 978 2263 
L 3384 1266 
L 3384 706 
L 350 2003 
z
" transform="scale(0.015625)"/>
       <path id="ArialMT-2e" d="M 581 0 
L 581 641 
L 1222 641 
L 1222 0 
L 581 0 
z
" transform="scale(0.015625)"/>
      </defs>
      <use xlink:href="#ArialMT-53"/>
      <use xlink:href="#ArialMT-69" x="66.699219"/>
      <use xlink:href="#ArialMT-67" x="88.916016"/>
      <use xlink:href="#ArialMT-6e" x="144.53125"/>
      <use xlink:href="#ArialMT-69" x="200.146484"/>
      <use xlink:href="#ArialMT-66" x="222.363281"/>
      <use xlink:href="#ArialMT-69" x="250.146484"/>
      <use xlink:href="#ArialMT-63" x="272.363281"/>
      <use xlink:href="#ArialMT-61" x="322.363281"/>
      <use xlink:href="#ArialMT-6e" x="377.978516"/>
      <use xlink:href="#ArialMT-74" x="433.59375"/>
      <use xlink:href="#ArialMT-20" x="461.376953"/>
      <use xlink:href="#ArialMT-72" x="489.160156"/>
      <use xlink:href="#ArialMT-65" x="522.460938"/>
      <use xlink:href="#ArialMT-67" x="578.076172"/>
      <use xlink:href="#ArialMT-69" x="633.691406"/>
      <use xlink:href="#ArialMT-6f" x="655.908203"/>
      <use xlink:href="#ArialMT-6e" x="711.523438"/>
      <use xlink:href="#ArialMT-20" x="767.138672"/>
      <use xlink:href="#ArialMT-28" x="794.921875"/>
      <use xlink:href="#ArialMT-70" x="828.222656"/>
      <use xlink:href="#ArialMT-20" x="883.837891"/>
      <use xlink:href="#ArialMT-3c" x="911.621094"/>
      <use xlink:href="#ArialMT-20" x="970.019531"/>
      <use xlink:href="#ArialMT-2e" x="997.802734"/>
      <use xlink:href="#ArialMT-30" x="1025.585938"/>
      <use xlink:href="#ArialMT-35" x="1081.201172"/>
      <use xlink:href="#ArialMT-29" x="1136.816406"/>
     </g>
    </g>
   </g>
  </g>
 </g>
 <defs>
  <clipPath id="p88c5db2934">
   <rect x="74.698" y="5" width="316.302" height="305.79"/>
  </clipPath>
 </defs>
</svg>
