<?xml version="1.0" encoding="utf-8" standalone="no"?>
<!DOCTYPE svg PUBLIC "-//W3C//DTD SVG 1.1//EN"
  "http://www.w3.org/Graphics/SVG/1.1/DTD/svg11.dtd">
<svg xmlns:xlink="http://www.w3.org/1999/xlink" width="468pt" height="432pt" viewBox="0 0 468 432" xmlns="http://www.w3.org/2000/svg" version="1.1">
 <metadata>
  <rdf:RDF xmlns:dc="http://purl.org/dc/elements/1.1/" xmlns:cc="http://creativecommons.org/ns#" xmlns:rdf="http://www.w3.org/1999/02/22-rdf-syntax-ns#">
   <cc:Work>
    <dc:type rdf:resource="http://purl.org/dc/dcmitype/StillImage"/>
    <dc:date>2025-04-30T17:27:22.586286</dc:date>
    <dc:format>image/svg+xml</dc:format>
    <dc:creator>
     <cc:Agent>
      <dc:title>Matplotlib v3.9.2, https://matplotlib.org/</dc:title>
     </cc:Agent>
    </dc:creator>
   </cc:Work>
  </rdf:RDF>
 </metadata>
 <defs>
  <style type="text/css">*{stroke-linejoin: round; stroke-linecap: butt}</style>
 </defs>
 <g id="figure_1">
  <g id="patch_1">
   <path d="M 0 432 
L 468 432 
L 468 0 
L 0 0 
z
" style="fill: #ffffff"/>
  </g>
  <g id="axes_1">
   <g id="patch_2">
    <path d="M 80.255 384.9325 
L 457.2 384.9325 
L 457.2 10.8 
L 80.255 10.8 
z
" style="fill: #ffffff"/>
   </g>
   <g id="matplotlib.axis_1">
    <g id="xtick_1">
     <g id="text_1">
      <text style="fill: #262626; font: 12px 'Arial', 'DejaVu Sans', 'Liberation Sans', 'Bitstream Vera Sans', sans-serif; text-anchor: middle" x="119.790276" y="400.521875" transform="rotate(-0 119.790276 400.521875)">−4</text>
     </g>
    </g>
    <g id="xtick_2">
     <g id="text_2">
      <text style="fill: #262626; font: 12px 'Arial', 'DejaVu Sans', 'Liberation Sans', 'Bitstream Vera Sans', sans-serif; text-anchor: middle" x="191.663957" y="400.521875" transform="rotate(-0 191.663957 400.521875)">−2</text>
     </g>
    </g>
    <g id="xtick_3">
     <g id="text_3">
      <text style="fill: #262626; font: 12px 'Arial', 'DejaVu Sans', 'Liberation Sans', 'Bitstream Vera Sans', sans-serif; text-anchor: middle" x="263.537637" y="400.521875" transform="rotate(-0 263.537637 400.521875)">0</text>
     </g>
    </g>
    <g id="xtick_4">
     <g id="text_4">
      <text style="fill: #262626; font: 12px 'Arial', 'DejaVu Sans', 'Liberation Sans', 'Bitstream Vera Sans', sans-serif; text-anchor: middle" x="335.411318" y="400.521875" transform="rotate(-0 335.411318 400.521875)">2</text>
     </g>
    </g>
    <g id="xtick_5">
     <g id="text_5">
      <text style="fill: #262626; font: 12px 'Arial', 'DejaVu Sans', 'Liberation Sans', 'Bitstream Vera Sans', sans-serif; text-anchor: middle" x="407.284998" y="400.521875" transform="rotate(-0 407.284998 400.521875)">4</text>
     </g>
    </g>
    <g id="text_6">
     <text style="fill: #262626; font: 16px 'Arial', 'DejaVu Sans', 'Liberation Sans', 'Bitstream Vera Sans', sans-serif; text-anchor: middle" x="268.7275" y="418.554375" transform="rotate(-0 268.7275 418.554375)">Residual Reward Sensitivity</text>
    </g>
   </g>
   <g id="matplotlib.axis_2">
    <g id="ytick_1">
     <g id="text_7">
      <text style="fill: #262626; font: 12px 'Arial', 'DejaVu Sans', 'Liberation Sans', 'Bitstream Vera Sans', sans-serif; text-anchor: end" x="73.255" y="336.006556" transform="rotate(-0 73.255 336.006556)">-1.00</text>
     </g>
    </g>
    <g id="ytick_2">
     <g id="text_8">
      <text style="fill: #262626; font: 12px 'Arial', 'DejaVu Sans', 'Liberation Sans', 'Bitstream Vera Sans', sans-serif; text-anchor: end" x="73.255" y="258.812876" transform="rotate(-0 73.255 258.812876)">-0.50</text>
     </g>
    </g>
    <g id="ytick_3">
     <g id="text_9">
      <text style="fill: #262626; font: 12px 'Arial', 'DejaVu Sans', 'Liberation Sans', 'Bitstream Vera Sans', sans-serif; text-anchor: end" x="73.255" y="181.619195" transform="rotate(-0 73.255 181.619195)">0.00</text>
     </g>
    </g>
    <g id="ytick_4">
     <g id="text_10">
      <text style="fill: #262626; font: 12px 'Arial', 'DejaVu Sans', 'Liberation Sans', 'Bitstream Vera Sans', sans-serif; text-anchor: end" x="73.255" y="104.425515" transform="rotate(-0 73.255 104.425515)">0.50</text>
     </g>
    </g>
    <g id="ytick_5">
     <g id="text_11">
      <text style="fill: #262626; font: 12px 'Arial', 'DejaVu Sans', 'Liberation Sans', 'Bitstream Vera Sans', sans-serif; text-anchor: end" x="73.255" y="27.231834" transform="rotate(-0 73.255 27.231834)">1.00</text>
     </g>
    </g>
    <g id="text_12">
     <text style="fill: #262626; font: 16px 'Arial', 'DejaVu Sans', 'Liberation Sans', 'Bitstream Vera Sans', sans-serif" transform="translate(21.19425 301.0075) rotate(-90)">Residual DMN-VS (Salience)</text>
     <text style="fill: #262626; font: 16px 'Arial', 'DejaVu Sans', 'Liberation Sans', 'Bitstream Vera Sans', sans-serif" transform="translate(38.53875 220.0875) rotate(-90)">(zstat)</text>
    </g>
   </g>
   <g id="PathCollection_1">
    <defs>
     <path id="C0_0_05b0cfc715" d="M 0 5 
C 1.326016 5 2.597899 4.473168 3.535534 3.535534 
C 4.473168 2.597899 5 1.326016 5 -0 
C 5 -1.326016 4.473168 -2.597899 3.535534 -3.535534 
C 2.597899 -4.473168 1.326016 -5 0 -5 
C -1.326016 -5 -2.597899 -4.473168 -3.535534 -3.535534 
C -4.473168 -2.597899 -5 -1.326016 -5 0 
C -5 1.326016 -4.473168 2.597899 -3.535534 3.535534 
C -2.597899 4.473168 -1.326016 5 0 5 
z
"/>
    </defs>
    <g clip-path="url(#p593047f3eb)">
     <use xlink:href="#C0_0_05b0cfc715" x="99.359669" y="101.598008" style="fill: #0000ff; fill-opacity: 0.8; stroke: #000000; stroke-opacity: 0.8; stroke-width: 0.5"/>
    </g>
    <g clip-path="url(#p593047f3eb)">
     <use xlink:href="#C0_0_05b0cfc715" x="97.388864" y="87.018947" style="fill-opacity: 0.8; stroke: #000000; stroke-opacity: 0.8; stroke-width: 0.5"/>
    </g>
    <g clip-path="url(#p593047f3eb)">
     <use xlink:href="#C0_0_05b0cfc715" x="412.937205" y="367.926477" style="fill-opacity: 0.8; stroke: #000000; stroke-opacity: 0.8; stroke-width: 0.5"/>
    </g>
    <g clip-path="url(#p593047f3eb)">
     <use xlink:href="#C0_0_05b0cfc715" x="333.180303" y="65.758876" style="fill-opacity: 0.8; stroke: #000000; stroke-opacity: 0.8; stroke-width: 0.5"/>
    </g>
    <g clip-path="url(#p593047f3eb)">
     <use xlink:href="#C0_0_05b0cfc715" x="384.883586" y="170.277231" style="fill-opacity: 0.8; stroke: #000000; stroke-opacity: 0.8; stroke-width: 0.5"/>
    </g>
    <g clip-path="url(#p593047f3eb)">
     <use xlink:href="#C0_0_05b0cfc715" x="277.073065" y="203.787989" style="fill-opacity: 0.8; stroke: #000000; stroke-opacity: 0.8; stroke-width: 0.5"/>
    </g>
    <g clip-path="url(#p593047f3eb)">
     <use xlink:href="#C0_0_05b0cfc715" x="346.97594" y="230.903958" style="fill: #0000ff; fill-opacity: 0.8; stroke: #000000; stroke-opacity: 0.8; stroke-width: 0.5"/>
    </g>
    <g clip-path="url(#p593047f3eb)">
     <use xlink:href="#C0_0_05b0cfc715" x="304.66434" y="162.346934" style="fill-opacity: 0.8; stroke: #000000; stroke-opacity: 0.8; stroke-width: 0.5"/>
    </g>
    <g clip-path="url(#p593047f3eb)">
     <use xlink:href="#C0_0_05b0cfc715" x="279.04387" y="58.150129" style="fill: #0000ff; fill-opacity: 0.8; stroke: #000000; stroke-opacity: 0.8; stroke-width: 0.5"/>
    </g>
    <g clip-path="url(#p593047f3eb)">
     <use xlink:href="#C0_0_05b0cfc715" x="135.296509" y="235.519048" style="fill: #ff0000; fill-opacity: 0.8; stroke: #000000; stroke-opacity: 0.8; stroke-width: 0.5"/>
    </g>
    <g clip-path="url(#p593047f3eb)">
     <use xlink:href="#C0_0_05b0cfc715" x="263.277427" y="27.806023" style="fill-opacity: 0.8; stroke: #000000; stroke-opacity: 0.8; stroke-width: 0.5"/>
    </g>
    <g clip-path="url(#p593047f3eb)">
     <use xlink:href="#C0_0_05b0cfc715" x="241.136225" y="137.985449" style="fill-opacity: 0.8; stroke: #000000; stroke-opacity: 0.8; stroke-width: 0.5"/>
    </g>
    <g clip-path="url(#p593047f3eb)">
     <use xlink:href="#C0_0_05b0cfc715" x="382.912781" y="216.310739" style="fill: #ff0000; fill-opacity: 0.8; stroke: #000000; stroke-opacity: 0.8; stroke-width: 0.5"/>
    </g>
    <g clip-path="url(#p593047f3eb)">
     <use xlink:href="#C0_0_05b0cfc715" x="410.966399" y="290.636631" style="fill: #ff0000; fill-opacity: 0.8; stroke: #000000; stroke-opacity: 0.8; stroke-width: 0.5"/>
    </g>
    <g clip-path="url(#p593047f3eb)">
     <use xlink:href="#C0_0_05b0cfc715" x="440.066136" y="129.809206" style="fill: #ff0000; fill-opacity: 0.8; stroke: #000000; stroke-opacity: 0.8; stroke-width: 0.5"/>
    </g>
    <g clip-path="url(#p593047f3eb)">
     <use xlink:href="#C0_0_05b0cfc715" x="167.291739" y="53.855469" style="fill-opacity: 0.8; stroke: #000000; stroke-opacity: 0.8; stroke-width: 0.5"/>
    </g>
    <g clip-path="url(#p593047f3eb)">
     <use xlink:href="#C0_0_05b0cfc715" x="410.966399" y="93.35393" style="fill: #ff0000; fill-opacity: 0.8; stroke: #000000; stroke-opacity: 0.8; stroke-width: 0.5"/>
    </g>
    <g clip-path="url(#p593047f3eb)">
     <use xlink:href="#C0_0_05b0cfc715" x="163.350128" y="68.261324" style="fill: #0000ff; fill-opacity: 0.8; stroke: #000000; stroke-opacity: 0.8; stroke-width: 0.5"/>
    </g>
    <g clip-path="url(#p593047f3eb)">
     <use xlink:href="#C0_0_05b0cfc715" x="193.374552" y="160.456163" style="fill: #0000ff; fill-opacity: 0.8; stroke: #000000; stroke-opacity: 0.8; stroke-width: 0.5"/>
    </g>
    <g clip-path="url(#p593047f3eb)">
     <use xlink:href="#C0_0_05b0cfc715" x="309.068295" y="209.187599" style="fill: #ff0000; fill-opacity: 0.8; stroke: #000000; stroke-opacity: 0.8; stroke-width: 0.5"/>
    </g>
    <g clip-path="url(#p593047f3eb)">
     <use xlink:href="#C0_0_05b0cfc715" x="375.029559" y="173.057206" style="fill: #0000ff; fill-opacity: 0.8; stroke: #000000; stroke-opacity: 0.8; stroke-width: 0.5"/>
    </g>
    <g clip-path="url(#p593047f3eb)">
     <use xlink:href="#C0_0_05b0cfc715" x="305.126684" y="133.278819" style="fill-opacity: 0.8; stroke: #000000; stroke-opacity: 0.8; stroke-width: 0.5"/>
    </g>
    <g clip-path="url(#p593047f3eb)">
     <use xlink:href="#C0_0_05b0cfc715" x="375.029559" y="113.276435" style="fill: #ff0000; fill-opacity: 0.8; stroke: #000000; stroke-opacity: 0.8; stroke-width: 0.5"/>
    </g>
    <g clip-path="url(#p593047f3eb)">
     <use xlink:href="#C0_0_05b0cfc715" x="127.413288" y="256.586941" style="fill: #ff0000; fill-opacity: 0.8; stroke: #000000; stroke-opacity: 0.8; stroke-width: 0.5"/>
    </g>
    <g clip-path="url(#p593047f3eb)">
     <use xlink:href="#C0_0_05b0cfc715" x="258.873473" y="178.017124" style="fill-opacity: 0.8; stroke: #000000; stroke-opacity: 0.8; stroke-width: 0.5"/>
    </g>
    <g clip-path="url(#p593047f3eb)">
     <use xlink:href="#C0_0_05b0cfc715" x="370.625605" y="282.2016" style="fill-opacity: 0.8; stroke: #000000; stroke-opacity: 0.8; stroke-width: 0.5"/>
    </g>
    <g clip-path="url(#p593047f3eb)">
     <use xlink:href="#C0_0_05b0cfc715" x="161.379323" y="199.026081" style="fill: #0000ff; fill-opacity: 0.8; stroke: #000000; stroke-opacity: 0.8; stroke-width: 0.5"/>
    </g>
    <g clip-path="url(#p593047f3eb)">
     <use xlink:href="#C0_0_05b0cfc715" x="335.151108" y="234.79534" style="fill: #0000ff; fill-opacity: 0.8; stroke: #000000; stroke-opacity: 0.8; stroke-width: 0.5"/>
    </g>
    <g clip-path="url(#p593047f3eb)">
     <use xlink:href="#C0_0_05b0cfc715" x="258.41113" y="105.256811" style="fill: #0000ff; fill-opacity: 0.8; stroke: #000000; stroke-opacity: 0.8; stroke-width: 0.5"/>
    </g>
    <g clip-path="url(#p593047f3eb)">
     <use xlink:href="#C0_0_05b0cfc715" x="109.213696" y="336.116514" style="fill: #ff0000; fill-opacity: 0.8; stroke: #000000; stroke-opacity: 0.8; stroke-width: 0.5"/>
    </g>
    <g clip-path="url(#p593047f3eb)">
     <use xlink:href="#C0_0_05b0cfc715" x="173.204155" y="258.590661" style="fill: #0000ff; fill-opacity: 0.8; stroke: #000000; stroke-opacity: 0.8; stroke-width: 0.5"/>
    </g>
    <g clip-path="url(#p593047f3eb)">
     <use xlink:href="#C0_0_05b0cfc715" x="195.345358" y="98.808105" style="fill-opacity: 0.8; stroke: #000000; stroke-opacity: 0.8; stroke-width: 0.5"/>
    </g>
    <g clip-path="url(#p593047f3eb)">
     <use xlink:href="#C0_0_05b0cfc715" x="314.980711" y="263.303166" style="fill-opacity: 0.8; stroke: #000000; stroke-opacity: 0.8; stroke-width: 0.5"/>
    </g>
    <g clip-path="url(#p593047f3eb)">
     <use xlink:href="#C0_0_05b0cfc715" x="137.267315" y="225.546629" style="fill: #ff0000; fill-opacity: 0.8; stroke: #000000; stroke-opacity: 0.8; stroke-width: 0.5"/>
    </g>
    <g clip-path="url(#p593047f3eb)">
     <use xlink:href="#C0_0_05b0cfc715" x="354.859162" y="163.440435" style="fill: #ff0000; fill-opacity: 0.8; stroke: #000000; stroke-opacity: 0.8; stroke-width: 0.5"/>
    </g>
    <g clip-path="url(#p593047f3eb)">
     <use xlink:href="#C0_0_05b0cfc715" x="418.849621" y="159.813346" style="fill: #ff0000; fill-opacity: 0.8; stroke: #000000; stroke-opacity: 0.8; stroke-width: 0.5"/>
    </g>
    <g clip-path="url(#p593047f3eb)">
     <use xlink:href="#C0_0_05b0cfc715" x="269.189844" y="239.091373" style="fill: #0000ff; fill-opacity: 0.8; stroke: #000000; stroke-opacity: 0.8; stroke-width: 0.5"/>
    </g>
    <g clip-path="url(#p593047f3eb)">
     <use xlink:href="#C0_0_05b0cfc715" x="246.586297" y="185.9782" style="fill-opacity: 0.8; stroke: #000000; stroke-opacity: 0.8; stroke-width: 0.5"/>
    </g>
    <g clip-path="url(#p593047f3eb)">
     <use xlink:href="#C0_0_05b0cfc715" x="270.698305" y="276.215428" style="fill-opacity: 0.8; stroke: #000000; stroke-opacity: 0.8; stroke-width: 0.5"/>
    </g>
    <g clip-path="url(#p593047f3eb)">
     <use xlink:href="#C0_0_05b0cfc715" x="105.272085" y="81.773613" style="fill: #ff0000; fill-opacity: 0.8; stroke: #000000; stroke-opacity: 0.8; stroke-width: 0.5"/>
    </g>
    <g clip-path="url(#p593047f3eb)">
     <use xlink:href="#C0_0_05b0cfc715" x="301.185073" y="229.857806" style="fill: #ff0000; fill-opacity: 0.8; stroke: #000000; stroke-opacity: 0.8; stroke-width: 0.5"/>
    </g>
    <g clip-path="url(#p593047f3eb)">
     <use xlink:href="#C0_0_05b0cfc715" x="125.442482" y="249.865828" style="fill: #0000ff; fill-opacity: 0.8; stroke: #000000; stroke-opacity: 0.8; stroke-width: 0.5"/>
    </g>
    <g clip-path="url(#p593047f3eb)">
     <use xlink:href="#C0_0_05b0cfc715" x="181.087376" y="56.063369" style="fill: #ff0000; fill-opacity: 0.8; stroke: #000000; stroke-opacity: 0.8; stroke-width: 0.5"/>
    </g>
    <g clip-path="url(#p593047f3eb)">
     <use xlink:href="#C0_0_05b0cfc715" x="147.121342" y="162.943378" style="fill: #0000ff; fill-opacity: 0.8; stroke: #000000; stroke-opacity: 0.8; stroke-width: 0.5"/>
    </g>
    <g clip-path="url(#p593047f3eb)">
     <use xlink:href="#C0_0_05b0cfc715" x="135.296509" y="215.578017" style="fill: #0000ff; fill-opacity: 0.8; stroke: #000000; stroke-opacity: 0.8; stroke-width: 0.5"/>
    </g>
    <g clip-path="url(#p593047f3eb)">
     <use xlink:href="#C0_0_05b0cfc715" x="416.878815" y="207.494998" style="fill: #0000ff; fill-opacity: 0.8; stroke: #000000; stroke-opacity: 0.8; stroke-width: 0.5"/>
    </g>
   </g>
   <g id="line2d_1"/>
   <g id="line2d_2"/>
   <g id="line2d_3"/>
   <g id="line2d_4">
    <path d="M 105.272085 210.593138 
L 108.653843 210.126464 
L 112.035601 209.65979 
L 115.417359 209.193116 
L 118.799118 208.726441 
L 122.180876 208.259767 
L 125.562634 207.793093 
L 128.944392 207.326419 
L 132.32615 206.859745 
L 135.707908 206.393071 
L 139.089666 205.926397 
L 142.471424 205.459722 
L 145.853182 204.993048 
L 149.23494 204.526374 
L 152.616698 204.0597 
L 155.998457 203.593026 
L 159.380215 203.126352 
L 162.761973 202.659678 
L 166.143731 202.193003 
L 169.525489 201.726329 
L 172.907247 201.259655 
L 176.289005 200.792981 
L 179.670763 200.326307 
L 183.052521 199.859633 
L 186.434279 199.392959 
L 189.816037 198.926284 
L 193.197796 198.45961 
L 196.579554 197.992936 
L 199.961312 197.526262 
L 203.34307 197.059588 
L 206.724828 196.592914 
L 210.106586 196.126239 
L 213.488344 195.659565 
L 216.870102 195.192891 
L 220.25186 194.726217 
L 223.633618 194.259543 
L 227.015376 193.792869 
L 230.397135 193.326195 
L 233.778893 192.85952 
L 237.160651 192.392846 
L 240.542409 191.926172 
L 243.924167 191.459498 
L 247.305925 190.992824 
L 250.687683 190.52615 
L 254.069441 190.059476 
L 257.451199 189.592801 
L 260.832957 189.126127 
L 264.214716 188.659453 
L 267.596474 188.192779 
L 270.978232 187.726105 
L 274.35999 187.259431 
L 277.741748 186.792757 
L 281.123506 186.326082 
L 284.505264 185.859408 
L 287.887022 185.392734 
L 291.26878 184.92606 
L 294.650538 184.459386 
L 298.032296 183.992712 
L 301.414055 183.526038 
L 304.795813 183.059363 
L 308.177571 182.592689 
L 311.559329 182.126015 
L 314.941087 181.659341 
L 318.322845 181.192667 
L 321.704603 180.725993 
L 325.086361 180.259319 
L 328.468119 179.792644 
L 331.849877 179.32597 
L 335.231635 178.859296 
L 338.613394 178.392622 
L 341.995152 177.925948 
L 345.37691 177.459274 
L 348.758668 176.9926 
L 352.140426 176.525925 
L 355.522184 176.059251 
L 358.903942 175.592577 
L 362.2857 175.125903 
L 365.667458 174.659229 
L 369.049216 174.192555 
L 372.430974 173.72588 
L 375.812733 173.259206 
L 379.194491 172.792532 
L 382.576249 172.325858 
L 385.958007 171.859184 
L 389.339765 171.39251 
L 392.721523 170.925836 
L 396.103281 170.459161 
L 399.485039 169.992487 
L 402.866797 169.525813 
L 406.248555 169.059139 
L 409.630314 168.592465 
L 413.012072 168.125791 
L 416.39383 167.659117 
L 419.775588 167.192442 
L 423.157346 166.725768 
L 426.539104 166.259094 
L 429.920862 165.79242 
L 433.30262 165.325746 
L 436.684378 164.859072 
L 440.066136 164.392398 
" clip-path="url(#p593047f3eb)" style="fill: none; stroke: #ff0000; stroke-width: 2; stroke-linecap: round"/>
   </g>
   <g id="line2d_5">
    <path d="M 99.359669 165.142292 
L 102.566933 165.445365 
L 105.774197 165.748439 
L 108.981461 166.051513 
L 112.188725 166.354586 
L 115.39599 166.65766 
L 118.603254 166.960733 
L 121.810518 167.263807 
L 125.017782 167.566881 
L 128.225046 167.869954 
L 131.43231 168.173028 
L 134.639574 168.476102 
L 137.846838 168.779175 
L 141.054102 169.082249 
L 144.261366 169.385322 
L 147.468631 169.688396 
L 150.675895 169.99147 
L 153.883159 170.294543 
L 157.090423 170.597617 
L 160.297687 170.90069 
L 163.504951 171.203764 
L 166.712215 171.506838 
L 169.919479 171.809911 
L 173.126743 172.112985 
L 176.334008 172.416058 
L 179.541272 172.719132 
L 182.748536 173.022206 
L 185.9558 173.325279 
L 189.163064 173.628353 
L 192.370328 173.931426 
L 195.577592 174.2345 
L 198.784856 174.537574 
L 201.99212 174.840647 
L 205.199384 175.143721 
L 208.406649 175.446794 
L 211.613913 175.749868 
L 214.821177 176.052942 
L 218.028441 176.356015 
L 221.235705 176.659089 
L 224.442969 176.962163 
L 227.650233 177.265236 
L 230.857497 177.56831 
L 234.064761 177.871383 
L 237.272026 178.174457 
L 240.47929 178.477531 
L 243.686554 178.780604 
L 246.893818 179.083678 
L 250.101082 179.386751 
L 253.308346 179.689825 
L 256.51561 179.992899 
L 259.722874 180.295972 
L 262.930138 180.599046 
L 266.137402 180.902119 
L 269.344667 181.205193 
L 272.551931 181.508267 
L 275.759195 181.81134 
L 278.966459 182.114414 
L 282.173723 182.417487 
L 285.380987 182.720561 
L 288.588251 183.023635 
L 291.795515 183.326708 
L 295.002779 183.629782 
L 298.210044 183.932855 
L 301.417308 184.235929 
L 304.624572 184.539003 
L 307.831836 184.842076 
L 311.0391 185.14515 
L 314.246364 185.448224 
L 317.453628 185.751297 
L 320.660892 186.054371 
L 323.868156 186.357444 
L 327.07542 186.660518 
L 330.282685 186.963592 
L 333.489949 187.266665 
L 336.697213 187.569739 
L 339.904477 187.872812 
L 343.111741 188.175886 
L 346.319005 188.47896 
L 349.526269 188.782033 
L 352.733533 189.085107 
L 355.940797 189.38818 
L 359.148062 189.691254 
L 362.355326 189.994328 
L 365.56259 190.297401 
L 368.769854 190.600475 
L 371.977118 190.903548 
L 375.184382 191.206622 
L 378.391646 191.509696 
L 381.59891 191.812769 
L 384.806174 192.115843 
L 388.013438 192.418916 
L 391.220703 192.72199 
L 394.427967 193.025064 
L 397.635231 193.328137 
L 400.842495 193.631211 
L 404.049759 193.934285 
L 407.257023 194.237358 
L 410.464287 194.540432 
L 413.671551 194.843505 
L 416.878815 195.146579 
" clip-path="url(#p593047f3eb)" style="fill: none; stroke: #0000ff; stroke-width: 2; stroke-linecap: round"/>
   </g>
   <g id="line2d_6">
    <path d="M 97.388864 42.098738 
L 100.576221 44.330874 
L 103.763578 46.56301 
L 106.950935 48.795146 
L 110.138292 51.027282 
L 113.325649 53.259418 
L 116.513006 55.491554 
L 119.700362 57.72369 
L 122.887719 59.955826 
L 126.075076 62.187963 
L 129.262433 64.420099 
L 132.44979 66.652235 
L 135.637147 68.884371 
L 138.824504 71.116507 
L 142.011861 73.348643 
L 145.199218 75.580779 
L 148.386575 77.812915 
L 151.573932 80.045051 
L 154.761289 82.277187 
L 157.948646 84.509323 
L 161.136003 86.741459 
L 164.32336 88.973595 
L 167.510717 91.205731 
L 170.698074 93.437867 
L 173.885431 95.670003 
L 177.072788 97.902139 
L 180.260145 100.134275 
L 183.447502 102.366411 
L 186.634859 104.598547 
L 189.822216 106.830683 
L 193.009573 109.062819 
L 196.19693 111.294955 
L 199.384287 113.527091 
L 202.571644 115.759227 
L 205.759001 117.991363 
L 208.946358 120.2235 
L 212.133715 122.455636 
L 215.321072 124.687772 
L 218.508429 126.919908 
L 221.695786 129.152044 
L 224.883143 131.38418 
L 228.0705 133.616316 
L 231.257857 135.848452 
L 234.445214 138.080588 
L 237.632571 140.312724 
L 240.819928 142.54486 
L 244.007285 144.776996 
L 247.194642 147.009132 
L 250.381999 149.241268 
L 253.569356 151.473404 
L 256.756713 153.70554 
L 259.94407 155.937676 
L 263.131427 158.169812 
L 266.318784 160.401948 
L 269.506141 162.634084 
L 272.693498 164.86622 
L 275.880855 167.098356 
L 279.068212 169.330492 
L 282.255568 171.562628 
L 285.442925 173.794764 
L 288.630282 176.026901 
L 291.817639 178.259037 
L 295.004996 180.491173 
L 298.192353 182.723309 
L 301.37971 184.955445 
L 304.567067 187.187581 
L 307.754424 189.419717 
L 310.941781 191.651853 
L 314.129138 193.883989 
L 317.316495 196.116125 
L 320.503852 198.348261 
L 323.691209 200.580397 
L 326.878566 202.812533 
L 330.065923 205.044669 
L 333.25328 207.276805 
L 336.440637 209.508941 
L 339.627994 211.741077 
L 342.815351 213.973213 
L 346.002708 216.205349 
L 349.190065 218.437485 
L 352.377422 220.669621 
L 355.564779 222.901757 
L 358.752136 225.133893 
L 361.939493 227.366029 
L 365.12685 229.598165 
L 368.314207 231.830301 
L 371.501564 234.062438 
L 374.688921 236.294574 
L 377.876278 238.52671 
L 381.063635 240.758846 
L 384.250992 242.990982 
L 387.438349 245.223118 
L 390.625706 247.455254 
L 393.813063 249.68739 
L 397.00042 251.919526 
L 400.187777 254.151662 
L 403.375134 256.383798 
L 406.562491 258.615934 
L 409.749848 260.84807 
L 412.937205 263.080206 
" clip-path="url(#p593047f3eb)" style="fill: none; stroke: #000000; stroke-width: 2; stroke-linecap: round"/>
   </g>
   <g id="patch_3">
    <path d="M 80.255 384.9325 
L 80.255 10.8 
" style="fill: none; stroke: #808080; stroke-linejoin: miter; stroke-linecap: square"/>
   </g>
   <g id="patch_4">
    <path d="M 80.255 384.9325 
L 457.2 384.9325 
" style="fill: none; stroke: #808080; stroke-linejoin: miter; stroke-linecap: square"/>
   </g>
   <g id="legend_1">
    <g id="patch_5">
     <path d="M 88.655 378.9325 
L 169.731875 378.9325 
Q 172.131875 378.9325 172.131875 376.5325 
L 172.131875 277.88125 
Q 172.131875 275.48125 169.731875 275.48125 
L 88.655 275.48125 
Q 86.255 275.48125 86.255 277.88125 
L 86.255 376.5325 
Q 86.255 378.9325 88.655 378.9325 
z
" style="fill: #ffffff; opacity: 0.8; stroke: #cccccc; stroke-linejoin: miter"/>
    </g>
    <g id="text_13">
     <text style="fill: #262626; font: 14px 'Arial', 'DejaVu Sans', 'Liberation Sans', 'Bitstream Vera Sans', sans-serif" transform="translate(96.119531 290.302187)">Behavioral</text>
     <text style="fill: #262626; font: 14px 'Arial', 'DejaVu Sans', 'Liberation Sans', 'Bitstream Vera Sans', sans-serif" transform="translate(96.119531 305.109812)">Motivation</text>
     <text style="fill: #262626; font: 14px 'Arial', 'DejaVu Sans', 'Liberation Sans', 'Bitstream Vera Sans', sans-serif" transform="translate(96.119531 320.122187)">(HS&gt;LS)</text>
    </g>
    <g id="line2d_7">
     <defs>
      <path id="m830ccb2461" d="M 0 5 
C 1.326016 5 2.597899 4.473168 3.535534 3.535534 
C 4.473168 2.597899 5 1.326016 5 0 
C 5 -1.326016 4.473168 -2.597899 3.535534 -3.535534 
C 2.597899 -4.473168 1.326016 -5 0 -5 
C -1.326016 -5 -2.597899 -4.473168 -3.535534 -3.535534 
C -4.473168 -2.597899 -5 -1.326016 -5 0 
C -5 1.326016 -4.473168 2.597899 -3.535534 3.535534 
C -2.597899 4.473168 -1.326016 5 0 5 
z
" style="stroke: #000000; stroke-opacity: 0.8; stroke-width: 0.5"/>
     </defs>
     <g>
      <use xlink:href="#m830ccb2461" x="103.055" y="333.458125" style="fill: #ff0000; fill-opacity: 0.8; stroke: #000000; stroke-opacity: 0.8; stroke-width: 0.5"/>
     </g>
    </g>
    <g id="text_14">
     <text style="fill: #262626; font: 12px 'Arial', 'DejaVu Sans', 'Liberation Sans', 'Bitstream Vera Sans', sans-serif; text-anchor: start" x="124.655" y="337.658125" transform="rotate(-0 124.655 337.658125)">low</text>
    </g>
    <g id="line2d_8">
     <defs>
      <path id="m66fecf25f2" d="M 0 5 
C 1.326016 5 2.597899 4.473168 3.535534 3.535534 
C 4.473168 2.597899 5 1.326016 5 0 
C 5 -1.326016 4.473168 -2.597899 3.535534 -3.535534 
C 2.597899 -4.473168 1.326016 -5 0 -5 
C -1.326016 -5 -2.597899 -4.473168 -3.535534 -3.535534 
C -4.473168 -2.597899 -5 -1.326016 -5 0 
C -5 1.326016 -4.473168 2.597899 -3.535534 3.535534 
C -2.597899 4.473168 -1.326016 5 0 5 
z
" style="stroke: #000000; stroke-opacity: 0.8; stroke-width: 0.5"/>
     </defs>
     <g>
      <use xlink:href="#m66fecf25f2" x="103.055" y="350.4325" style="fill: #0000ff; fill-opacity: 0.8; stroke: #000000; stroke-opacity: 0.8; stroke-width: 0.5"/>
     </g>
    </g>
    <g id="text_15">
     <text style="fill: #262626; font: 12px 'Arial', 'DejaVu Sans', 'Liberation Sans', 'Bitstream Vera Sans', sans-serif; text-anchor: start" x="124.655" y="354.6325" transform="rotate(-0 124.655 354.6325)">medium</text>
    </g>
    <g id="line2d_9">
     <defs>
      <path id="m0f6e20ef7b" d="M 0 5 
C 1.326016 5 2.597899 4.473168 3.535534 3.535534 
C 4.473168 2.597899 5 1.326016 5 0 
C 5 -1.326016 4.473168 -2.597899 3.535534 -3.535534 
C 2.597899 -4.473168 1.326016 -5 0 -5 
C -1.326016 -5 -2.597899 -4.473168 -3.535534 -3.535534 
C -4.473168 -2.597899 -5 -1.326016 -5 0 
C -5 1.326016 -4.473168 2.597899 -3.535534 3.535534 
C -2.597899 4.473168 -1.326016 5 0 5 
z
" style="stroke: #000000; stroke-opacity: 0.8; stroke-width: 0.5"/>
     </defs>
     <g>
      <use xlink:href="#m0f6e20ef7b" x="103.055" y="367.406875" style="fill-opacity: 0.8; stroke: #000000; stroke-opacity: 0.8; stroke-width: 0.5"/>
     </g>
    </g>
    <g id="text_16">
     <text style="fill: #262626; font: 12px 'Arial', 'DejaVu Sans', 'Liberation Sans', 'Bitstream Vera Sans', sans-serif; text-anchor: start" x="124.655" y="371.606875" transform="rotate(-0 124.655 371.606875)">high</text>
    </g>
   </g>
  </g>
 </g>
 <defs>
  <clipPath id="p593047f3eb">
   <rect x="80.255" y="10.8" width="376.945" height="374.1325"/>
  </clipPath>
 </defs>
</svg>
