<?xml version="1.0" encoding="utf-8" standalone="no"?>
<!DOCTYPE svg PUBLIC "-//W3C//DTD SVG 1.1//EN"
  "http://www.w3.org/Graphics/SVG/1.1/DTD/svg11.dtd">
<svg xmlns:xlink="http://www.w3.org/1999/xlink" width="468pt" height="432pt" viewBox="0 0 468 432" xmlns="http://www.w3.org/2000/svg" version="1.1">
 <metadata>
  <rdf:RDF xmlns:dc="http://purl.org/dc/elements/1.1/" xmlns:cc="http://creativecommons.org/ns#" xmlns:rdf="http://www.w3.org/1999/02/22-rdf-syntax-ns#">
   <cc:Work>
    <dc:type rdf:resource="http://purl.org/dc/dcmitype/StillImage"/>
    <dc:date>2025-05-04T15:23:50.112479</dc:date>
    <dc:format>image/svg+xml</dc:format>
    <dc:creator>
     <cc:Agent>
      <dc:title>Matplotlib v3.9.2, https://matplotlib.org/</dc:title>
     </cc:Agent>
    </dc:creator>
   </cc:Work>
  </rdf:RDF>
 </metadata>
 <defs>
  <style type="text/css">*{stroke-linejoin: round; stroke-linecap: butt}</style>
 </defs>
 <g id="figure_1">
  <g id="patch_1">
   <path d="M 0 432 
L 468 432 
L 468 0 
L 0 0 
z
" style="fill: #ffffff"/>
  </g>
  <g id="axes_1">
   <g id="patch_2">
    <path d="M 115.526 369.0475 
L 457.2 369.0475 
L 457.2 10.8 
L 115.526 10.8 
z
" style="fill: #ffffff"/>
   </g>
   <g id="matplotlib.axis_1">
    <g id="xtick_1">
     <g id="text_1">
      <text style="fill: #262626; font: 20px 'Arial', 'DejaVu Sans', 'Liberation Sans', 'Bitstream Vera Sans', sans-serif; text-anchor: middle" x="167.980285" y="390.363125" transform="rotate(-0 167.980285 390.363125)">−4</text>
     </g>
    </g>
    <g id="xtick_2">
     <g id="text_2">
      <text style="fill: #262626; font: 20px 'Arial', 'DejaVu Sans', 'Liberation Sans', 'Bitstream Vera Sans', sans-serif; text-anchor: middle" x="232.460199" y="390.363125" transform="rotate(-0 232.460199 390.363125)">−2</text>
     </g>
    </g>
    <g id="xtick_3">
     <g id="text_3">
      <text style="fill: #262626; font: 20px 'Arial', 'DejaVu Sans', 'Liberation Sans', 'Bitstream Vera Sans', sans-serif; text-anchor: middle" x="296.940112" y="390.363125" transform="rotate(-0 296.940112 390.363125)">0</text>
     </g>
    </g>
    <g id="xtick_4">
     <g id="text_4">
      <text style="fill: #262626; font: 20px 'Arial', 'DejaVu Sans', 'Liberation Sans', 'Bitstream Vera Sans', sans-serif; text-anchor: middle" x="361.420025" y="390.363125" transform="rotate(-0 361.420025 390.363125)">2</text>
     </g>
    </g>
    <g id="xtick_5">
     <g id="text_5">
      <text style="fill: #262626; font: 20px 'Arial', 'DejaVu Sans', 'Liberation Sans', 'Bitstream Vera Sans', sans-serif; text-anchor: middle" x="425.899939" y="390.363125" transform="rotate(-0 425.899939 390.363125)">4</text>
     </g>
    </g>
    <g id="text_6">
     <text style="fill: #262626; font: 24px 'Arial', 'DejaVu Sans', 'Liberation Sans', 'Bitstream Vera Sans', sans-serif; text-anchor: middle" x="286.363" y="415.809375" transform="rotate(-0 286.363 415.809375)">Residualized Reward Sensitivity</text>
    </g>
   </g>
   <g id="matplotlib.axis_2">
    <g id="ytick_1">
     <g id="text_7">
      <text style="fill: #262626; font: 20px 'Arial', 'DejaVu Sans', 'Liberation Sans', 'Bitstream Vera Sans', sans-serif; text-anchor: end" x="108.526" y="340.206952" transform="rotate(-0 108.526 340.206952)">-0.03</text>
     </g>
    </g>
    <g id="ytick_2">
     <g id="text_8">
      <text style="fill: #262626; font: 20px 'Arial', 'DejaVu Sans', 'Liberation Sans', 'Bitstream Vera Sans', sans-serif; text-anchor: end" x="108.526" y="274.318822" transform="rotate(-0 108.526 274.318822)">-0.02</text>
     </g>
    </g>
    <g id="ytick_3">
     <g id="text_9">
      <text style="fill: #262626; font: 20px 'Arial', 'DejaVu Sans', 'Liberation Sans', 'Bitstream Vera Sans', sans-serif; text-anchor: end" x="108.526" y="208.430691" transform="rotate(-0 108.526 208.430691)">-0.01</text>
     </g>
    </g>
    <g id="ytick_4">
     <g id="text_10">
      <text style="fill: #262626; font: 20px 'Arial', 'DejaVu Sans', 'Liberation Sans', 'Bitstream Vera Sans', sans-serif; text-anchor: end" x="108.526" y="142.54256" transform="rotate(-0 108.526 142.54256)">0.00</text>
     </g>
    </g>
    <g id="ytick_5">
     <g id="text_11">
      <text style="fill: #262626; font: 20px 'Arial', 'DejaVu Sans', 'Liberation Sans', 'Bitstream Vera Sans', sans-serif; text-anchor: end" x="108.526" y="76.65443" transform="rotate(-0 108.526 76.65443)">0.01</text>
     </g>
    </g>
    <g id="text_12">
     <text style="fill: #262626; font: 24px 'Arial', 'DejaVu Sans', 'Liberation Sans', 'Bitstream Vera Sans', sans-serif" transform="translate(28.158 376.68125) rotate(-90)">Residualized Behavioral Motivation</text>
     <text style="fill: #262626; font: 24px 'Arial', 'DejaVu Sans', 'Liberation Sans', 'Bitstream Vera Sans', sans-serif" transform="translate(53.8935 236.271875) rotate(-90)">(HS&gt;LS)</text>
    </g>
   </g>
   <g id="PathCollection_1">
    <path d="M 131.056636 144.796514 
C 132.382652 144.796514 133.654536 144.269682 134.59217 143.332048 
C 135.529805 142.394413 136.056636 141.122529 136.056636 139.796514 
C 136.056636 138.470498 135.529805 137.198615 134.59217 136.26098 
C 133.654536 135.323346 132.382652 134.796514 131.056636 134.796514 
C 129.730621 134.796514 128.458737 135.323346 127.521102 136.26098 
C 126.583468 137.198615 126.056636 138.470498 126.056636 139.796514 
C 126.056636 141.122529 126.583468 142.394413 127.521102 143.332048 
C 128.458737 144.269682 129.730621 144.796514 131.056636 144.796514 
z
" clip-path="url(#pf349c5457d)" style="stroke: #ffffff; stroke-width: 0.8"/>
    <path d="M 167.283125 133.956733 
C 168.60914 133.956733 169.881024 133.429901 170.818659 132.492267 
C 171.756293 131.554632 172.283125 130.282748 172.283125 128.956733 
C 172.283125 127.630717 171.756293 126.358833 170.818659 125.421199 
C 169.881024 124.483564 168.60914 123.956733 167.283125 123.956733 
C 165.957109 123.956733 164.685225 124.483564 163.747591 125.421199 
C 162.809956 126.358833 162.283125 127.630717 162.283125 128.956733 
C 162.283125 130.282748 162.809956 131.554632 163.747591 132.492267 
C 164.685225 133.429901 165.957109 133.956733 167.283125 133.956733 
z
" clip-path="url(#pf349c5457d)" style="stroke: #ffffff; stroke-width: 0.8"/>
    <path d="M 427.802881 96.656634 
C 429.128896 96.656634 430.40078 96.129802 431.338415 95.192167 
C 432.276049 94.254533 432.802881 92.982649 432.802881 91.656634 
C 432.802881 90.330618 432.276049 89.058734 431.338415 88.1211 
C 430.40078 87.183465 429.128896 86.656634 427.802881 86.656634 
C 426.476865 86.656634 425.204981 87.183465 424.267347 88.1211 
C 423.329712 89.058734 422.802881 90.330618 422.802881 91.656634 
C 422.802881 92.982649 423.329712 94.254533 424.267347 95.192167 
C 425.204981 96.129802 426.476865 96.656634 427.802881 96.656634 
z
" clip-path="url(#pf349c5457d)" style="fill: #808080; stroke: #ffffff; stroke-width: 0.8"/>
    <path d="M 353.443016 121.061321 
C 354.769031 121.061321 356.040915 120.534489 356.97855 119.596855 
C 357.916184 118.65922 358.443016 117.387336 358.443016 116.061321 
C 358.443016 114.735305 357.916184 113.463422 356.97855 112.525787 
C 356.040915 111.588153 354.769031 111.061321 353.443016 111.061321 
C 352.117 111.061321 350.845117 111.588153 349.907482 112.525787 
C 348.969847 113.463422 348.443016 114.735305 348.443016 116.061321 
C 348.443016 117.387336 348.969847 118.65922 349.907482 119.596855 
C 350.845117 120.534489 352.117 121.061321 353.443016 121.061321 
z
" clip-path="url(#pf349c5457d)" style="fill: #808080; stroke: #ffffff; stroke-width: 0.8"/>
    <path d="M 392.269607 180.852787 
C 393.595622 180.852787 394.867506 180.325956 395.805141 179.388321 
C 396.742775 178.450687 397.269607 177.178803 397.269607 175.852787 
C 397.269607 174.526772 396.742775 173.254888 395.805141 172.317253 
C 394.867506 171.379619 393.595622 170.852787 392.269607 170.852787 
C 390.943591 170.852787 389.671707 171.379619 388.734073 172.317253 
C 387.796438 173.254888 387.269607 174.526772 387.269607 175.852787 
C 387.269607 177.178803 387.796438 178.450687 388.734073 179.388321 
C 389.671707 180.325956 390.943591 180.852787 392.269607 180.852787 
z
" clip-path="url(#pf349c5457d)" style="stroke: #ffffff; stroke-width: 0.8"/>
    <path d="M 331.776225 90.486033 
C 333.102241 90.486033 334.374125 89.959201 335.311759 89.021567 
C 336.249394 88.083932 336.776225 86.812048 336.776225 85.486033 
C 336.776225 84.160017 336.249394 82.888133 335.311759 81.950499 
C 334.374125 81.012864 333.102241 80.486033 331.776225 80.486033 
C 330.45021 80.486033 329.178326 81.012864 328.240691 81.950499 
C 327.303057 82.888133 326.776225 84.160017 326.776225 85.486033 
C 326.776225 86.812048 327.303057 88.083932 328.240691 89.021567 
C 329.178326 89.959201 330.45021 90.486033 331.776225 90.486033 
z
" clip-path="url(#pf349c5457d)" style="stroke: #ffffff; stroke-width: 0.8"/>
    <path d="M 356.736333 142.121456 
C 358.062349 142.121456 359.334232 141.594624 360.271867 140.65699 
C 361.209502 139.719355 361.736333 138.447471 361.736333 137.121456 
C 361.736333 135.79544 361.209502 134.523557 360.271867 133.585922 
C 359.334232 132.648287 358.062349 132.121456 356.736333 132.121456 
C 355.410318 132.121456 354.138434 132.648287 353.200799 133.585922 
C 352.263165 134.523557 351.736333 135.79544 351.736333 137.121456 
C 351.736333 138.447471 352.263165 139.719355 353.200799 140.65699 
C 354.138434 141.594624 355.410318 142.121456 356.736333 142.121456 
z
" clip-path="url(#pf349c5457d)" style="fill: #808080; stroke: #ffffff; stroke-width: 0.8"/>
    <path d="M 318.602957 165.925378 
C 319.928972 165.925378 321.200856 165.398546 322.138491 164.460912 
C 323.076125 163.523277 323.602957 162.251393 323.602957 160.925378 
C 323.602957 159.599362 323.076125 158.327478 322.138491 157.389844 
C 321.200856 156.452209 319.928972 155.925378 318.602957 155.925378 
C 317.276941 155.925378 316.005057 156.452209 315.067423 157.389844 
C 314.129788 158.327478 313.602957 159.599362 313.602957 160.925378 
C 313.602957 162.251393 314.129788 163.523277 315.067423 164.460912 
C 316.005057 165.398546 317.276941 165.925378 318.602957 165.925378 
z
" clip-path="url(#pf349c5457d)" style="stroke: #ffffff; stroke-width: 0.8"/>
    <path d="M 331.776225 101.153321 
C 333.102241 101.153321 334.374125 100.626489 335.311759 99.688855 
C 336.249394 98.75122 336.776225 97.479336 336.776225 96.153321 
C 336.776225 94.827305 336.249394 93.555422 335.311759 92.617787 
C 334.374125 91.680152 333.102241 91.153321 331.776225 91.153321 
C 330.45021 91.153321 329.178326 91.680152 328.240691 92.617787 
C 327.303057 93.555422 326.776225 94.827305 326.776225 96.153321 
C 326.776225 97.479336 327.303057 98.75122 328.240691 99.688855 
C 329.178326 100.626489 330.45021 101.153321 331.776225 101.153321 
z
" clip-path="url(#pf349c5457d)" style="stroke: #ffffff; stroke-width: 0.8"/>
    <path d="M 189.64313 133.363463 
C 190.969145 133.363463 192.241029 132.836632 193.178664 131.898997 
C 194.116298 130.961363 194.64313 129.689479 194.64313 128.363463 
C 194.64313 127.037448 194.116298 125.765564 193.178664 124.82793 
C 192.241029 123.890295 190.969145 123.363463 189.64313 123.363463 
C 188.317114 123.363463 187.045231 123.890295 186.107596 124.82793 
C 185.169962 125.765564 184.64313 127.037448 184.64313 128.363463 
C 184.64313 129.689479 185.169962 130.961363 186.107596 131.898997 
C 187.045231 132.836632 188.317114 133.363463 189.64313 133.363463 
z
" clip-path="url(#pf349c5457d)" style="stroke: #ffffff; stroke-width: 0.8"/>
    <path d="M 295.549737 192.99597 
C 296.875752 192.99597 298.147636 192.469138 299.085271 191.531504 
C 300.022905 190.593869 300.549737 189.321985 300.549737 187.99597 
C 300.549737 186.669954 300.022905 185.39807 299.085271 184.460436 
C 298.147636 183.522801 296.875752 182.99597 295.549737 182.99597 
C 294.223721 182.99597 292.951837 183.522801 292.014203 184.460436 
C 291.076568 185.39807 290.549737 186.669954 290.549737 187.99597 
C 290.549737 189.321985 291.076568 190.593869 292.014203 191.531504 
C 292.951837 192.469138 294.223721 192.99597 295.549737 192.99597 
z
" clip-path="url(#pf349c5457d)" style="fill: #808080; stroke: #ffffff; stroke-width: 0.8"/>
    <path d="M 263.30978 32.083977 
C 264.635796 32.083977 265.90768 31.557146 266.845314 30.619511 
C 267.782949 29.681877 268.30978 28.409993 268.30978 27.083977 
C 268.30978 25.757962 267.782949 24.486078 266.845314 23.548443 
C 265.90768 22.610809 264.635796 22.083977 263.30978 22.083977 
C 261.983765 22.083977 260.711881 22.610809 259.774246 23.548443 
C 258.836612 24.486078 258.30978 25.757962 258.30978 27.083977 
C 258.30978 28.409993 258.836612 29.681877 259.774246 30.619511 
C 260.711881 31.557146 261.983765 32.083977 263.30978 32.083977 
z
" clip-path="url(#pf349c5457d)" style="stroke: #ffffff; stroke-width: 0.8"/>
    <path d="M 375.803021 123.966711 
C 377.129037 123.966711 378.400921 123.43988 379.338555 122.502245 
C 380.27619 121.564611 380.803021 120.292727 380.803021 118.966711 
C 380.803021 117.640696 380.27619 116.368812 379.338555 115.431177 
C 378.400921 114.493543 377.129037 113.966711 375.803021 113.966711 
C 374.477006 113.966711 373.205122 114.493543 372.267487 115.431177 
C 371.329853 116.368812 370.803021 117.640696 370.803021 118.966711 
C 370.803021 120.292727 371.329853 121.564611 372.267487 122.502245 
C 373.205122 123.43988 374.477006 123.966711 375.803021 123.966711 
z
" clip-path="url(#pf349c5457d)" style="fill: #808080; stroke: #ffffff; stroke-width: 0.8"/>
    <path d="M 434.389515 93.781899 
C 435.71553 93.781899 436.987414 93.255067 437.925049 92.317433 
C 438.862683 91.379798 439.389515 90.107914 439.389515 88.781899 
C 439.389515 87.455883 438.862683 86.184 437.925049 85.246365 
C 436.987414 84.30873 435.71553 83.781899 434.389515 83.781899 
C 433.063499 83.781899 431.791616 84.30873 430.853981 85.246365 
C 429.916346 86.184 429.389515 87.455883 429.389515 88.781899 
C 429.389515 90.107914 429.916346 91.379798 430.853981 92.317433 
C 431.791616 93.255067 433.063499 93.781899 434.389515 93.781899 
z
" clip-path="url(#pf349c5457d)" style="fill: #808080; stroke: #ffffff; stroke-width: 0.8"/>
    <path d="M 435.082729 254.624531 
C 436.408745 254.624531 437.680629 254.0977 438.618263 253.160065 
C 439.555898 252.222431 440.082729 250.950547 440.082729 249.624531 
C 440.082729 248.298516 439.555898 247.026632 438.618263 246.088998 
C 437.680629 245.151363 436.408745 244.624531 435.082729 244.624531 
C 433.756714 244.624531 432.48483 245.151363 431.547195 246.088998 
C 430.609561 247.026632 430.082729 248.298516 430.082729 249.624531 
C 430.082729 250.950547 430.609561 252.222431 431.547195 253.160065 
C 432.48483 254.0977 433.756714 254.624531 435.082729 254.624531 
z
" clip-path="url(#pf349c5457d)" style="stroke: #ffffff; stroke-width: 0.8"/>
    <path d="M 195.53655 139.901026 
C 196.862565 139.901026 198.134449 139.374194 199.072084 138.43656 
C 200.009718 137.498925 200.53655 136.227041 200.53655 134.901026 
C 200.53655 133.57501 200.009718 132.303127 199.072084 131.365492 
C 198.134449 130.427857 196.862565 129.901026 195.53655 129.901026 
C 194.210534 129.901026 192.93865 130.427857 192.001016 131.365492 
C 191.063381 132.303127 190.53655 133.57501 190.53655 134.901026 
C 190.53655 136.227041 191.063381 137.498925 192.001016 138.43656 
C 192.93865 139.374194 194.210534 139.901026 195.53655 139.901026 
z
" clip-path="url(#pf349c5457d)" style="fill: #808080; stroke: #ffffff; stroke-width: 0.8"/>
    <path d="M 437.682832 112.680903 
C 439.008847 112.680903 440.280731 112.154072 441.218366 111.216437 
C 442.156 110.278802 442.682832 109.006919 442.682832 107.680903 
C 442.682832 106.354888 442.156 105.083004 441.218366 104.145369 
C 440.280731 103.207735 439.008847 102.680903 437.682832 102.680903 
C 436.356816 102.680903 435.084933 103.207735 434.147298 104.145369 
C 433.209664 105.083004 432.682832 106.354888 432.682832 107.680903 
C 432.682832 109.006919 433.209664 110.278802 434.147298 111.216437 
C 435.084933 112.154072 436.356816 112.680903 437.682832 112.680903 
z
" clip-path="url(#pf349c5457d)" style="fill: #808080; stroke: #ffffff; stroke-width: 0.8"/>
    <path d="M 215.296452 39.448534 
C 216.622468 39.448534 217.894352 38.921703 218.831986 37.984068 
C 219.769621 37.046434 220.296452 35.77455 220.296452 34.448534 
C 220.296452 33.122519 219.769621 31.850635 218.831986 30.913 
C 217.894352 29.975366 216.622468 29.448534 215.296452 29.448534 
C 213.970437 29.448534 212.698553 29.975366 211.760919 30.913 
C 210.823284 31.850635 210.296452 33.122519 210.296452 34.448534 
C 210.296452 35.77455 210.823284 37.046434 211.760919 37.984068 
C 212.698553 38.921703 213.970437 39.448534 215.296452 39.448534 
z
" clip-path="url(#pf349c5457d)" style="fill: #808080; stroke: #ffffff; stroke-width: 0.8"/>
    <path d="M 257.41636 194.529703 
C 258.742376 194.529703 260.01426 194.002872 260.951894 193.065237 
C 261.889529 192.127603 262.41636 190.855719 262.41636 189.529703 
C 262.41636 188.203688 261.889529 186.931804 260.951894 185.99417 
C 260.01426 185.056535 258.742376 184.529703 257.41636 184.529703 
C 256.090345 184.529703 254.818461 185.056535 253.880827 185.99417 
C 252.943192 186.931804 252.41636 188.203688 252.41636 189.529703 
C 252.41636 190.855719 252.943192 192.127603 253.880827 193.065237 
C 254.818461 194.002872 256.090345 194.529703 257.41636 194.529703 
z
" clip-path="url(#pf349c5457d)" style="fill: #808080; stroke: #ffffff; stroke-width: 0.8"/>
    <path d="M 367.309499 357.763523 
C 368.635514 357.763523 369.907398 357.236691 370.845033 356.299057 
C 371.782667 355.361422 372.309499 354.089538 372.309499 352.763523 
C 372.309499 351.437507 371.782667 350.165623 370.845033 349.227989 
C 369.907398 348.290354 368.635514 347.763523 367.309499 347.763523 
C 365.983483 347.763523 364.7116 348.290354 363.773965 349.227989 
C 362.83633 350.165623 362.309499 351.437507 362.309499 352.763523 
C 362.309499 354.089538 362.83633 355.361422 363.773965 356.299057 
C 364.7116 357.236691 365.983483 357.763523 367.309499 357.763523 
z
" clip-path="url(#pf349c5457d)" style="fill: #808080; stroke: #ffffff; stroke-width: 0.8"/>
    <path d="M 382.389655 146.030634 
C 383.715671 146.030634 384.987555 145.503803 385.925189 144.566168 
C 386.862824 143.628534 387.389655 142.35665 387.389655 141.030634 
C 387.389655 139.704619 386.862824 138.432735 385.925189 137.4951 
C 384.987555 136.557466 383.715671 136.030634 382.389655 136.030634 
C 381.06364 136.030634 379.791756 136.557466 378.854122 137.4951 
C 377.916487 138.432735 377.389655 139.704619 377.389655 141.030634 
C 377.389655 142.35665 377.916487 143.628534 378.854122 144.566168 
C 379.791756 145.503803 381.06364 146.030634 382.389655 146.030634 
z
" clip-path="url(#pf349c5457d)" style="fill: #808080; stroke: #ffffff; stroke-width: 0.8"/>
    <path d="M 324.496376 136.995359 
C 325.822392 136.995359 327.094276 136.468528 328.03191 135.530893 
C 328.969545 134.593259 329.496376 133.321375 329.496376 131.995359 
C 329.496376 130.669344 328.969545 129.39746 328.03191 128.459825 
C 327.094276 127.522191 325.822392 126.995359 324.496376 126.995359 
C 323.170361 126.995359 321.898477 127.522191 320.960842 128.459825 
C 320.023208 129.39746 319.496376 130.669344 319.496376 131.995359 
C 319.496376 133.321375 320.023208 134.593259 320.960842 135.530893 
C 321.898477 136.468528 323.170361 136.995359 324.496376 136.995359 
z
" clip-path="url(#pf349c5457d)" style="fill: #808080; stroke: #ffffff; stroke-width: 0.8"/>
    <path d="M 441.669364 71.723658 
C 442.995379 71.723658 444.267263 71.196826 445.204898 70.259191 
C 446.142532 69.321557 446.669364 68.049673 446.669364 66.723658 
C 446.669364 65.397642 446.142532 64.125758 445.204898 63.188124 
C 444.267263 62.250489 442.995379 61.723658 441.669364 61.723658 
C 440.343348 61.723658 439.071464 62.250489 438.13383 63.188124 
C 437.196195 64.125758 436.669364 65.397642 436.669364 66.723658 
C 436.669364 68.049673 437.196195 69.321557 438.13383 70.259191 
C 439.071464 71.196826 440.343348 71.723658 441.669364 71.723658 
z
" clip-path="url(#pf349c5457d)" style="fill: #808080; stroke: #ffffff; stroke-width: 0.8"/>
    <path d="M 166.58991 154.438236 
C 167.915926 154.438236 169.18781 153.911404 170.125444 152.97377 
C 171.063079 152.036135 171.58991 150.764251 171.58991 149.438236 
C 171.58991 148.11222 171.063079 146.840336 170.125444 145.902702 
C 169.18781 144.965067 167.915926 144.438236 166.58991 144.438236 
C 165.263895 144.438236 163.992011 144.965067 163.054376 145.902702 
C 162.116742 146.840336 161.58991 148.11222 161.58991 149.438236 
C 161.58991 150.764251 162.116742 152.036135 163.054376 152.97377 
C 163.992011 153.911404 165.263895 154.438236 166.58991 154.438236 
z
" clip-path="url(#pf349c5457d)" style="fill: #808080; stroke: #ffffff; stroke-width: 0.8"/>
    <path d="M 292.949634 107.22363 
C 294.27565 107.22363 295.547534 106.696798 296.485168 105.759164 
C 297.422803 104.821529 297.949634 103.549645 297.949634 102.22363 
C 297.949634 100.897614 297.422803 99.625731 296.485168 98.688096 
C 295.547534 97.750461 294.27565 97.22363 292.949634 97.22363 
C 291.623619 97.22363 290.351735 97.750461 289.4141 98.688096 
C 288.476466 99.625731 287.949634 100.897614 287.949634 102.22363 
C 287.949634 103.549645 288.476466 104.821529 289.4141 105.759164 
C 290.351735 106.696798 291.623619 107.22363 292.949634 107.22363 
z
" clip-path="url(#pf349c5457d)" style="stroke: #ffffff; stroke-width: 0.8"/>
    <path d="M 366.616284 123.956374 
C 367.9423 123.956374 369.214184 123.429543 370.151818 122.491908 
C 371.089453 121.554274 371.616284 120.28239 371.616284 118.956374 
C 371.616284 117.630359 371.089453 116.358475 370.151818 115.420841 
C 369.214184 114.483206 367.9423 113.956374 366.616284 113.956374 
C 365.290269 113.956374 364.018385 114.483206 363.08075 115.420841 
C 362.143116 116.358475 361.616284 117.630359 361.616284 118.956374 
C 361.616284 120.28239 362.143116 121.554274 363.08075 122.491908 
C 364.018385 123.429543 365.290269 123.956374 366.616284 123.956374 
z
" clip-path="url(#pf349c5457d)" style="stroke: #ffffff; stroke-width: 0.8"/>
    <path d="M 225.176404 74.692372 
C 226.502419 74.692372 227.774303 74.16554 228.711938 73.227905 
C 229.649572 72.290271 230.176404 71.018387 230.176404 69.692372 
C 230.176404 68.366356 229.649572 67.094472 228.711938 66.156838 
C 227.774303 65.219203 226.502419 64.692372 225.176404 64.692372 
C 223.850388 64.692372 222.578504 65.219203 221.64087 66.156838 
C 220.703235 67.094472 220.176404 68.366356 220.176404 69.692372 
C 220.176404 71.018387 220.703235 72.290271 221.64087 73.227905 
C 222.578504 74.16554 223.850388 74.692372 225.176404 74.692372 
z
" clip-path="url(#pf349c5457d)" style="fill: #808080; stroke: #ffffff; stroke-width: 0.8"/>
    <path d="M 350.149699 160.269059 
C 351.475714 160.269059 352.747598 159.742228 353.685233 158.804593 
C 354.622867 157.866959 355.149699 156.595075 355.149699 155.269059 
C 355.149699 153.943044 354.622867 152.67116 353.685233 151.733525 
C 352.747598 150.795891 351.475714 150.269059 350.149699 150.269059 
C 348.823683 150.269059 347.551799 150.795891 346.614165 151.733525 
C 345.67653 152.67116 345.149699 153.943044 345.149699 155.269059 
C 345.149699 156.595075 345.67653 157.866959 346.614165 158.804593 
C 347.551799 159.742228 348.823683 160.269059 350.149699 160.269059 
z
" clip-path="url(#pf349c5457d)" style="fill: #808080; stroke: #ffffff; stroke-width: 0.8"/>
    <path d="M 287.056215 71.365849 
C 288.38223 71.365849 289.654114 70.839018 290.591748 69.901383 
C 291.529383 68.963749 292.056215 67.691865 292.056215 66.365849 
C 292.056215 65.039834 291.529383 63.76795 290.591748 62.830316 
C 289.654114 61.892681 288.38223 61.365849 287.056215 61.365849 
C 285.730199 61.365849 284.458315 61.892681 283.520681 62.830316 
C 282.583046 63.76795 282.056215 65.039834 282.056215 66.365849 
C 282.056215 67.691865 282.583046 68.963749 283.520681 69.901383 
C 284.458315 70.839018 285.730199 71.365849 287.056215 71.365849 
z
" clip-path="url(#pf349c5457d)" style="stroke: #ffffff; stroke-width: 0.8"/>
    <path d="M 167.283125 177.409955 
C 168.60914 177.409955 169.881024 176.883123 170.818659 175.945489 
C 171.756293 175.007854 172.283125 173.73597 172.283125 172.409955 
C 172.283125 171.083939 171.756293 169.812056 170.818659 168.874421 
C 169.881024 167.936787 168.60914 167.409955 167.283125 167.409955 
C 165.957109 167.409955 164.685225 167.936787 163.747591 168.874421 
C 162.809956 169.812056 162.283125 171.083939 162.283125 172.409955 
C 162.283125 173.73597 162.809956 175.007854 163.747591 175.945489 
C 164.685225 176.883123 165.957109 177.409955 167.283125 177.409955 
z
" clip-path="url(#pf349c5457d)" style="stroke: #ffffff; stroke-width: 0.8"/>
    <path d="M 228.469721 119.10326 
C 229.795736 119.10326 231.06762 118.576428 232.005255 117.638794 
C 232.942889 116.701159 233.469721 115.429275 233.469721 114.10326 
C 233.469721 112.777244 232.942889 111.505361 232.005255 110.567726 
C 231.06762 109.630091 229.795736 109.10326 228.469721 109.10326 
C 227.143705 109.10326 225.871822 109.630091 224.934187 110.567726 
C 223.996552 111.505361 223.469721 112.777244 223.469721 114.10326 
C 223.469721 115.429275 223.996552 116.701159 224.934187 117.638794 
C 225.871822 118.576428 227.143705 119.10326 228.469721 119.10326 
z
" clip-path="url(#pf349c5457d)" style="stroke: #ffffff; stroke-width: 0.8"/>
    <path d="M 240.949775 299.188146 
C 242.27579 299.188146 243.547674 298.661315 244.485309 297.72368 
C 245.422943 296.786045 245.949775 295.514162 245.949775 294.188146 
C 245.949775 292.862131 245.422943 291.590247 244.485309 290.652612 
C 243.547674 289.714978 242.27579 289.188146 240.949775 289.188146 
C 239.623759 289.188146 238.351875 289.714978 237.414241 290.652612 
C 236.476606 291.590247 235.949775 292.862131 235.949775 294.188146 
C 235.949775 295.514162 236.476606 296.786045 237.414241 297.72368 
C 238.351875 298.661315 239.623759 299.188146 240.949775 299.188146 
z
" clip-path="url(#pf349c5457d)" style="fill: #808080; stroke: #ffffff; stroke-width: 0.8"/>
    <path d="M 357.429548 212.302021 
C 358.755563 212.302021 360.027447 211.775189 360.965081 210.837555 
C 361.902716 209.89992 362.429548 208.628036 362.429548 207.302021 
C 362.429548 205.976005 361.902716 204.704121 360.965081 203.766487 
C 360.027447 202.828852 358.755563 202.302021 357.429548 202.302021 
C 356.103532 202.302021 354.831648 202.828852 353.894014 203.766487 
C 352.956379 204.704121 352.429548 205.976005 352.429548 207.302021 
C 352.429548 208.628036 352.956379 209.89992 353.894014 210.837555 
C 354.831648 211.775189 356.103532 212.302021 357.429548 212.302021 
z
" clip-path="url(#pf349c5457d)" style="stroke: #ffffff; stroke-width: 0.8"/>
    <path d="M 186.349813 97.801351 
C 187.675828 97.801351 188.947712 97.27452 189.885347 96.336885 
C 190.822981 95.39925 191.349813 94.127367 191.349813 92.801351 
C 191.349813 91.475336 190.822981 90.203452 189.885347 89.265817 
C 188.947712 88.328183 187.675828 87.801351 186.349813 87.801351 
C 185.023797 87.801351 183.751914 88.328183 182.814279 89.265817 
C 181.876644 90.203452 181.349813 91.475336 181.349813 92.801351 
C 181.349813 94.127367 181.876644 95.39925 182.814279 96.336885 
C 183.751914 97.27452 185.023797 97.801351 186.349813 97.801351 
z
" clip-path="url(#pf349c5457d)" style="stroke: #ffffff; stroke-width: 0.8"/>
    <path d="M 383.08287 144.498558 
C 384.408886 144.498558 385.680769 143.971726 386.618404 143.034091 
C 387.556038 142.096457 388.08287 140.824573 388.08287 139.498558 
C 388.08287 138.172542 387.556038 136.900658 386.618404 135.963024 
C 385.680769 135.025389 384.408886 134.498558 383.08287 134.498558 
C 381.756855 134.498558 380.484971 135.025389 379.547336 135.963024 
C 378.609702 136.900658 378.08287 138.172542 378.08287 139.498558 
C 378.08287 140.824573 378.609702 142.096457 379.547336 143.034091 
C 380.484971 143.971726 381.756855 144.498558 383.08287 144.498558 
z
" clip-path="url(#pf349c5457d)" style="stroke: #ffffff; stroke-width: 0.8"/>
    <path d="M 411.336295 92.764381 
C 412.662311 92.764381 413.934194 92.23755 414.871829 91.299915 
C 415.809463 90.36228 416.336295 89.090397 416.336295 87.764381 
C 416.336295 86.438366 415.809463 85.166482 414.871829 84.228847 
C 413.934194 83.291213 412.662311 82.764381 411.336295 82.764381 
C 410.01028 82.764381 408.738396 83.291213 407.800761 84.228847 
C 406.863127 85.166482 406.336295 86.438366 406.336295 87.764381 
C 406.336295 89.090397 406.863127 90.36228 407.800761 91.299915 
C 408.738396 92.23755 410.01028 92.764381 411.336295 92.764381 
z
" clip-path="url(#pf349c5457d)" style="fill: #808080; stroke: #ffffff; stroke-width: 0.8"/>
    <path d="M 325.189591 155.842482 
C 326.515606 155.842482 327.78749 155.31565 328.725125 154.378015 
C 329.662759 153.440381 330.189591 152.168497 330.189591 150.842482 
C 330.189591 149.516466 329.662759 148.244582 328.725125 147.306948 
C 327.78749 146.369313 326.515606 145.842482 325.189591 145.842482 
C 323.863575 145.842482 322.591692 146.369313 321.654057 147.306948 
C 320.716422 148.244582 320.189591 149.516466 320.189591 150.842482 
C 320.189591 152.168497 320.716422 153.440381 321.654057 154.378015 
C 322.591692 155.31565 323.863575 155.842482 325.189591 155.842482 
z
" clip-path="url(#pf349c5457d)" style="fill: #808080; stroke: #ffffff; stroke-width: 0.8"/>
    <path d="M 303.5228 86.643571 
C 304.848816 86.643571 306.120699 86.116739 307.058334 85.179105 
C 307.995969 84.24147 308.5228 82.969586 308.5228 81.643571 
C 308.5228 80.317555 307.995969 79.045672 307.058334 78.108037 
C 306.120699 77.170402 304.848816 76.643571 303.5228 76.643571 
C 302.196785 76.643571 300.924901 77.170402 299.987266 78.108037 
C 299.049632 79.045672 298.5228 80.317555 298.5228 81.643571 
C 298.5228 82.969586 299.049632 84.24147 299.987266 85.179105 
C 300.924901 86.116739 302.196785 86.643571 303.5228 86.643571 
z
" clip-path="url(#pf349c5457d)" style="stroke: #ffffff; stroke-width: 0.8"/>
    <path d="M 292.949634 131.799903 
C 294.27565 131.799903 295.547534 131.273071 296.485168 130.335437 
C 297.422803 129.397802 297.949634 128.125918 297.949634 126.799903 
C 297.949634 125.473887 297.422803 124.202003 296.485168 123.264369 
C 295.547534 122.326734 294.27565 121.799903 292.949634 121.799903 
C 291.623619 121.799903 290.351735 122.326734 289.4141 123.264369 
C 288.476466 124.202003 287.949634 125.473887 287.949634 126.799903 
C 287.949634 128.125918 288.476466 129.397802 289.4141 130.335437 
C 290.351735 131.273071 291.623619 131.799903 292.949634 131.799903 
z
" clip-path="url(#pf349c5457d)" style="stroke: #ffffff; stroke-width: 0.8"/>
    <path d="M 150.816539 107.682282 
C 152.142555 107.682282 153.414438 107.155451 154.352073 106.217816 
C 155.289708 105.280182 155.816539 104.008298 155.816539 102.682282 
C 155.816539 101.356267 155.289708 100.084383 154.352073 99.146748 
C 153.414438 98.209114 152.142555 97.682282 150.816539 97.682282 
C 149.490524 97.682282 148.21864 98.209114 147.281005 99.146748 
C 146.343371 100.084383 145.816539 101.356267 145.816539 102.682282 
C 145.816539 104.008298 146.343371 105.280182 147.281005 106.217816 
C 148.21864 107.155451 149.490524 107.682282 150.816539 107.682282 
z
" clip-path="url(#pf349c5457d)" style="stroke: #ffffff; stroke-width: 0.8"/>
    <path d="M 334.376328 113.420862 
C 335.702343 113.420862 336.974227 112.894031 337.911862 111.956396 
C 338.849496 111.018762 339.376328 109.746878 339.376328 108.420862 
C 339.376328 107.094847 338.849496 105.822963 337.911862 104.885328 
C 336.974227 103.947694 335.702343 103.420862 334.376328 103.420862 
C 333.050312 103.420862 331.778428 103.947694 330.840794 104.885328 
C 329.903159 105.822963 329.376328 107.094847 329.376328 108.420862 
C 329.376328 109.746878 329.903159 111.018762 330.840794 111.956396 
C 331.778428 112.894031 333.050312 113.420862 334.376328 113.420862 
z
" clip-path="url(#pf349c5457d)" style="fill: #808080; stroke: #ffffff; stroke-width: 0.8"/>
    <path d="M 179.763179 223.906656 
C 181.089194 223.906656 182.361078 223.379825 183.298713 222.44219 
C 184.236347 221.504556 184.763179 220.232672 184.763179 218.906656 
C 184.763179 217.580641 184.236347 216.308757 183.298713 215.371122 
C 182.361078 214.433488 181.089194 213.906656 179.763179 213.906656 
C 178.437163 213.906656 177.165279 214.433488 176.227645 215.371122 
C 175.29001 216.308757 174.763179 217.580641 174.763179 218.906656 
C 174.763179 220.232672 175.29001 221.504556 176.227645 222.44219 
C 177.165279 223.379825 178.437163 223.906656 179.763179 223.906656 
z
" clip-path="url(#pf349c5457d)" style="fill: #808080; stroke: #ffffff; stroke-width: 0.8"/>
    <path d="M 195.53655 140.032802 
C 196.862565 140.032802 198.134449 139.505971 199.072084 138.568336 
C 200.009718 137.630701 200.53655 136.358818 200.53655 135.032802 
C 200.53655 133.706787 200.009718 132.434903 199.072084 131.497268 
C 198.134449 130.559634 196.862565 130.032802 195.53655 130.032802 
C 194.210534 130.032802 192.93865 130.559634 192.001016 131.497268 
C 191.063381 132.434903 190.53655 133.706787 190.53655 135.032802 
C 190.53655 136.358818 191.063381 137.630701 192.001016 138.568336 
C 192.93865 139.505971 194.210534 140.032802 195.53655 140.032802 
z
" clip-path="url(#pf349c5457d)" style="stroke: #ffffff; stroke-width: 0.8"/>
    <path d="M 186.349813 133.88828 
C 187.675828 133.88828 188.947712 133.361449 189.885347 132.423814 
C 190.822981 131.48618 191.349813 130.214296 191.349813 128.88828 
C 191.349813 127.562265 190.822981 126.290381 189.885347 125.352746 
C 188.947712 124.415112 187.675828 123.88828 186.349813 123.88828 
C 185.023797 123.88828 183.751914 124.415112 182.814279 125.352746 
C 181.876644 126.290381 181.349813 127.562265 181.349813 128.88828 
C 181.349813 130.214296 181.876644 131.48618 182.814279 132.423814 
C 183.751914 133.361449 185.023797 133.88828 186.349813 133.88828 
z
" clip-path="url(#pf349c5457d)" style="stroke: #ffffff; stroke-width: 0.8"/>
    <path d="M 163.296593 177.470438 
C 164.622609 177.470438 165.894492 176.943606 166.832127 176.005972 
C 167.769761 175.068337 168.296593 173.796453 168.296593 172.470438 
C 168.296593 171.144422 167.769761 169.872539 166.832127 168.934904 
C 165.894492 167.997269 164.622609 167.470438 163.296593 167.470438 
C 161.970578 167.470438 160.698694 167.997269 159.761059 168.934904 
C 158.823425 169.872539 158.296593 171.144422 158.296593 172.470438 
C 158.296593 173.796453 158.823425 175.068337 159.761059 176.005972 
C 160.698694 176.943606 161.970578 177.470438 163.296593 177.470438 
z
" clip-path="url(#pf349c5457d)" style="stroke: #ffffff; stroke-width: 0.8"/>
    <path d="M 437.682832 145.097863 
C 439.008847 145.097863 440.280731 144.571032 441.218366 143.633397 
C 442.156 142.695763 442.682832 141.423879 442.682832 140.097863 
C 442.682832 138.771848 442.156 137.499964 441.218366 136.562329 
C 440.280731 135.624695 439.008847 135.097863 437.682832 135.097863 
C 436.356816 135.097863 435.084933 135.624695 434.147298 136.562329 
C 433.209664 137.499964 432.682832 138.771848 432.682832 140.097863 
C 432.682832 141.423879 433.209664 142.695763 434.147298 143.633397 
C 435.084933 144.571032 436.356816 145.097863 437.682832 145.097863 
z
" clip-path="url(#pf349c5457d)" style="fill: #808080; stroke: #ffffff; stroke-width: 0.8"/>
   </g>
   <g id="line2d_1"/>
   <g id="line2d_2"/>
   <g id="line2d_3">
    <path d="M 131.056636 111.200336 
L 134.127607 111.591407 
L 137.198578 111.982478 
L 140.269548 112.37355 
L 143.340519 112.764621 
L 146.41149 113.155693 
L 149.48246 113.546764 
L 152.553431 113.937836 
L 155.624401 114.328907 
L 158.695372 114.719979 
L 161.766343 115.11105 
L 164.837313 115.502122 
L 167.908284 115.893193 
L 170.979255 116.284264 
L 174.050225 116.675336 
L 177.121196 117.066407 
L 180.192167 117.457479 
L 183.263137 117.84855 
L 186.334108 118.239622 
L 189.405078 118.630693 
L 192.476049 119.021765 
L 195.54702 119.412836 
L 198.61799 119.803908 
L 201.688961 120.194979 
L 204.759932 120.586051 
L 207.830902 120.977122 
L 210.901873 121.368193 
L 213.972844 121.759265 
L 217.043814 122.150336 
L 220.114785 122.541408 
L 223.185755 122.932479 
L 226.256726 123.323551 
L 229.327697 123.714622 
L 232.398667 124.105694 
L 235.469638 124.496765 
L 238.540609 124.887837 
L 241.611579 125.278908 
L 244.68255 125.669979 
L 247.753521 126.061051 
L 250.824491 126.452122 
L 253.895462 126.843194 
L 256.966432 127.234265 
L 260.037403 127.625337 
L 263.108374 128.016408 
L 266.179344 128.40748 
L 269.250315 128.798551 
L 272.321286 129.189623 
L 275.392256 129.580694 
L 278.463227 129.971765 
L 281.534198 130.362837 
L 284.605168 130.753908 
L 287.676139 131.14498 
L 290.747109 131.536051 
L 293.81808 131.927123 
L 296.889051 132.318194 
L 299.960021 132.709266 
L 303.030992 133.100337 
L 306.101963 133.491409 
L 309.172933 133.88248 
L 312.243904 134.273551 
L 315.314875 134.664623 
L 318.385845 135.055694 
L 321.456816 135.446766 
L 324.527786 135.837837 
L 327.598757 136.228909 
L 330.669728 136.61998 
L 333.740698 137.011052 
L 336.811669 137.402123 
L 339.88264 137.793195 
L 342.95361 138.184266 
L 346.024581 138.575337 
L 349.095552 138.966409 
L 352.166522 139.35748 
L 355.237493 139.748552 
L 358.308463 140.139623 
L 361.379434 140.530695 
L 364.450405 140.921766 
L 367.521375 141.312838 
L 370.592346 141.703909 
L 373.663317 142.094981 
L 376.734287 142.486052 
L 379.805258 142.877123 
L 382.876229 143.268195 
L 385.947199 143.659266 
L 389.01817 144.050338 
L 392.08914 144.441409 
L 395.160111 144.832481 
L 398.231082 145.223552 
L 401.302052 145.614624 
L 404.373023 146.005695 
L 407.443994 146.396767 
L 410.514964 146.787838 
L 413.585935 147.178909 
L 416.656906 147.569981 
L 419.727876 147.961052 
L 422.798847 148.352124 
L 425.869817 148.743195 
L 428.940788 149.134267 
L 432.011759 149.525338 
L 435.082729 149.91641 
" clip-path="url(#pf349c5457d)" style="fill: none; stroke: #000000; stroke-width: 2; stroke-linecap: round"/>
   </g>
   <g id="line2d_4">
    <path d="M 166.58991 171.124522 
L 169.36849 170.628385 
L 172.147071 170.132247 
L 174.925651 169.63611 
L 177.704232 169.139973 
L 180.482812 168.643836 
L 183.261392 168.147699 
L 186.039973 167.651561 
L 188.818553 167.155424 
L 191.597133 166.659287 
L 194.375714 166.16315 
L 197.154294 165.667013 
L 199.932874 165.170875 
L 202.711455 164.674738 
L 205.490035 164.178601 
L 208.268615 163.682464 
L 211.047196 163.186326 
L 213.825776 162.690189 
L 216.604356 162.194052 
L 219.382937 161.697915 
L 222.161517 161.201778 
L 224.940097 160.70564 
L 227.718678 160.209503 
L 230.497258 159.713366 
L 233.275838 159.217229 
L 236.054419 158.721092 
L 238.832999 158.224954 
L 241.611579 157.728817 
L 244.39016 157.23268 
L 247.16874 156.736543 
L 249.94732 156.240406 
L 252.725901 155.744268 
L 255.504481 155.248131 
L 258.283061 154.751994 
L 261.061642 154.255857 
L 263.840222 153.759719 
L 266.618802 153.263582 
L 269.397383 152.767445 
L 272.175963 152.271308 
L 274.954543 151.775171 
L 277.733124 151.279033 
L 280.511704 150.782896 
L 283.290284 150.286759 
L 286.068865 149.790622 
L 288.847445 149.294485 
L 291.626025 148.798347 
L 294.404606 148.30221 
L 297.183186 147.806073 
L 299.961766 147.309936 
L 302.740347 146.813798 
L 305.518927 146.317661 
L 308.297507 145.821524 
L 311.076088 145.325387 
L 313.854668 144.82925 
L 316.633248 144.333112 
L 319.411829 143.836975 
L 322.190409 143.340838 
L 324.968989 142.844701 
L 327.74757 142.348564 
L 330.52615 141.852426 
L 333.30473 141.356289 
L 336.083311 140.860152 
L 338.861891 140.364015 
L 341.640471 139.867877 
L 344.419052 139.37174 
L 347.197632 138.875603 
L 349.976212 138.379466 
L 352.754793 137.883329 
L 355.533373 137.387191 
L 358.311953 136.891054 
L 361.090534 136.394917 
L 363.869114 135.89878 
L 366.647695 135.402643 
L 369.426275 134.906505 
L 372.204855 134.410368 
L 374.983436 133.914231 
L 377.762016 133.418094 
L 380.540596 132.921957 
L 383.319177 132.425819 
L 386.097757 131.929682 
L 388.876337 131.433545 
L 391.654918 130.937408 
L 394.433498 130.44127 
L 397.212078 129.945133 
L 399.990659 129.448996 
L 402.769239 128.952859 
L 405.547819 128.456722 
L 408.3264 127.960584 
L 411.10498 127.464447 
L 413.88356 126.96831 
L 416.662141 126.472173 
L 419.440721 125.976036 
L 422.219301 125.479898 
L 424.997882 124.983761 
L 427.776462 124.487624 
L 430.555042 123.991487 
L 433.333623 123.495349 
L 436.112203 122.999212 
L 438.890783 122.503075 
L 441.669364 122.006938 
" clip-path="url(#pf349c5457d)" style="fill: none; stroke: #808080; stroke-width: 2; stroke-linecap: round"/>
   </g>
   <g id="patch_3">
    <path d="M 115.526 369.0475 
L 115.526 10.8 
" style="fill: none; stroke: #000000; stroke-linejoin: miter; stroke-linecap: square"/>
   </g>
   <g id="patch_4">
    <path d="M 115.526 369.0475 
L 457.2 369.0475 
" style="fill: none; stroke: #000000; stroke-linejoin: miter; stroke-linecap: square"/>
   </g>
   <g id="legend_1">
    <g id="patch_5">
     <path d="M 126.726 361.0475 
L 208.1735 361.0475 
Q 211.3735 361.0475 211.3735 357.8475 
L 211.3735 287.704375 
Q 211.3735 284.504375 208.1735 284.504375 
L 126.726 284.504375 
Q 123.526 284.504375 123.526 287.704375 
L 123.526 357.8475 
Q 123.526 361.0475 126.726 361.0475 
z
" style="fill: #ffffff; opacity: 0.8; stroke: #cccccc; stroke-linejoin: miter"/>
    </g>
    <g id="text_13">
     <text style="fill: #262626; font: 20px 'Arial', 'DejaVu Sans', 'Liberation Sans', 'Bitstream Vera Sans', sans-serif; text-anchor: start" x="135.770063" y="305.22" transform="rotate(-0 135.770063 305.22)">TEPSa</text>
    </g>
    <g id="line2d_5">
     <defs>
      <path id="m03bb899a7f" d="M 0 5 
C 1.326016 5 2.597899 4.473168 3.535534 3.535534 
C 4.473168 2.597899 5 1.326016 5 0 
C 5 -1.326016 4.473168 -2.597899 3.535534 -3.535534 
C 2.597899 -4.473168 1.326016 -5 0 -5 
C -1.326016 -5 -2.597899 -4.473168 -3.535534 -3.535534 
C -4.473168 -2.597899 -5 -1.326016 -5 0 
C -5 1.326016 -4.473168 2.597899 -3.535534 3.535534 
C -2.597899 4.473168 -1.326016 5 0 5 
z
" style="stroke: #ffffff; stroke-width: 0.8"/>
     </defs>
     <g>
      <use xlink:href="#m03bb899a7f" x="145.926" y="323.0475" style="stroke: #ffffff; stroke-width: 0.8"/>
     </g>
    </g>
    <g id="text_14">
     <text style="fill: #262626; font: 16px 'Arial', 'DejaVu Sans', 'Liberation Sans', 'Bitstream Vera Sans', sans-serif; text-anchor: start" x="174.726" y="328.6475" transform="rotate(-0 174.726 328.6475)">low</text>
    </g>
    <g id="line2d_6">
     <defs>
      <path id="mf6aec74f37" d="M 0 5 
C 1.326016 5 2.597899 4.473168 3.535534 3.535534 
C 4.473168 2.597899 5 1.326016 5 0 
C 5 -1.326016 4.473168 -2.597899 3.535534 -3.535534 
C 2.597899 -4.473168 1.326016 -5 0 -5 
C -1.326016 -5 -2.597899 -4.473168 -3.535534 -3.535534 
C -4.473168 -2.597899 -5 -1.326016 -5 0 
C -5 1.326016 -4.473168 2.597899 -3.535534 3.535534 
C -2.597899 4.473168 -1.326016 5 0 5 
z
" style="stroke: #ffffff; stroke-width: 0.8"/>
     </defs>
     <g>
      <use xlink:href="#mf6aec74f37" x="145.926" y="345.68" style="fill: #808080; stroke: #ffffff; stroke-width: 0.8"/>
     </g>
    </g>
    <g id="text_15">
     <text style="fill: #262626; font: 16px 'Arial', 'DejaVu Sans', 'Liberation Sans', 'Bitstream Vera Sans', sans-serif; text-anchor: start" x="174.726" y="351.28" transform="rotate(-0 174.726 351.28)">high</text>
    </g>
   </g>
  </g>
 </g>
 <defs>
  <clipPath id="pf349c5457d">
   <rect x="115.526" y="10.8" width="341.674" height="358.2475"/>
  </clipPath>
 </defs>
</svg>
