<?xml version="1.0" encoding="utf-8" standalone="no"?>
<!DOCTYPE svg PUBLIC "-//W3C//DTD SVG 1.1//EN"
  "http://www.w3.org/Graphics/SVG/1.1/DTD/svg11.dtd">
<svg xmlns:xlink="http://www.w3.org/1999/xlink" width="468pt" height="432pt" viewBox="0 0 468 432" xmlns="http://www.w3.org/2000/svg" version="1.1">
 <metadata>
  <rdf:RDF xmlns:dc="http://purl.org/dc/elements/1.1/" xmlns:cc="http://creativecommons.org/ns#" xmlns:rdf="http://www.w3.org/1999/02/22-rdf-syntax-ns#">
   <cc:Work>
    <dc:type rdf:resource="http://purl.org/dc/dcmitype/StillImage"/>
    <dc:date>2025-05-15T14:06:21.851406</dc:date>
    <dc:format>image/svg+xml</dc:format>
    <dc:creator>
     <cc:Agent>
      <dc:title>Matplotlib v3.9.2, https://matplotlib.org/</dc:title>
     </cc:Agent>
    </dc:creator>
   </cc:Work>
  </rdf:RDF>
 </metadata>
 <defs>
  <style type="text/css">*{stroke-linejoin: round; stroke-linecap: butt}</style>
 </defs>
 <g id="figure_1">
  <g id="patch_1">
   <path d="M 0 432 
L 468 432 
L 468 0 
L 0 0 
z
" style="fill: #ffffff"/>
  </g>
  <g id="axes_1">
   <g id="patch_2">
    <path d="M 115.526 369.0475 
L 457.2 369.0475 
L 457.2 10.8 
L 115.526 10.8 
z
" style="fill: #ffffff"/>
   </g>
   <g id="matplotlib.axis_1">
    <g id="xtick_1">
     <g id="text_1">
      <!-- −4 -->
      <g style="fill: #262626" transform="translate(137.967834 390.363125) scale(0.2 -0.2)">
       <defs>
        <path id="ArialMT-2212" d="M 3381 1997 
L 356 1997 
L 356 2522 
L 3381 2522 
L 3381 1997 
z
" transform="scale(0.015625)"/>
        <path id="ArialMT-34" d="M 2069 0 
L 2069 1097 
L 81 1097 
L 81 1613 
L 2172 4581 
L 2631 4581 
L 2631 1613 
L 3250 1613 
L 3250 1097 
L 2631 1097 
L 2631 0 
L 2069 0 
z
M 2069 1613 
L 2069 3678 
L 634 1613 
L 2069 1613 
z
" transform="scale(0.015625)"/>
       </defs>
       <use xlink:href="#ArialMT-2212"/>
       <use xlink:href="#ArialMT-34" x="58.398438"/>
      </g>
     </g>
    </g>
    <g id="xtick_2">
     <g id="text_2">
      <!-- −2 -->
      <g style="fill: #262626" transform="translate(206.992884 390.363125) scale(0.2 -0.2)">
       <defs>
        <path id="ArialMT-32" d="M 3222 541 
L 3222 0 
L 194 0 
Q 188 203 259 391 
Q 375 700 629 1000 
Q 884 1300 1366 1694 
Q 2113 2306 2375 2664 
Q 2638 3022 2638 3341 
Q 2638 3675 2398 3904 
Q 2159 4134 1775 4134 
Q 1369 4134 1125 3890 
Q 881 3647 878 3216 
L 300 3275 
Q 359 3922 746 4261 
Q 1134 4600 1788 4600 
Q 2447 4600 2831 4234 
Q 3216 3869 3216 3328 
Q 3216 3053 3103 2787 
Q 2991 2522 2730 2228 
Q 2469 1934 1863 1422 
Q 1356 997 1212 845 
Q 1069 694 975 541 
L 3222 541 
z
" transform="scale(0.015625)"/>
       </defs>
       <use xlink:href="#ArialMT-2212"/>
       <use xlink:href="#ArialMT-32" x="58.398438"/>
      </g>
     </g>
    </g>
    <g id="xtick_3">
     <g id="text_3">
      <!-- 0 -->
      <g style="fill: #262626" transform="translate(281.85856 390.363125) scale(0.2 -0.2)">
       <defs>
        <path id="ArialMT-30" d="M 266 2259 
Q 266 3072 433 3567 
Q 600 4063 929 4331 
Q 1259 4600 1759 4600 
Q 2128 4600 2406 4451 
Q 2684 4303 2865 4023 
Q 3047 3744 3150 3342 
Q 3253 2941 3253 2259 
Q 3253 1453 3087 958 
Q 2922 463 2592 192 
Q 2263 -78 1759 -78 
Q 1097 -78 719 397 
Q 266 969 266 2259 
z
M 844 2259 
Q 844 1131 1108 757 
Q 1372 384 1759 384 
Q 2147 384 2411 759 
Q 2675 1134 2675 2259 
Q 2675 3391 2411 3762 
Q 2147 4134 1753 4134 
Q 1366 4134 1134 3806 
Q 844 3388 844 2259 
z
" transform="scale(0.015625)"/>
       </defs>
       <use xlink:href="#ArialMT-30"/>
      </g>
     </g>
    </g>
    <g id="xtick_4">
     <g id="text_4">
      <!-- 2 -->
      <g style="fill: #262626" transform="translate(350.88361 390.363125) scale(0.2 -0.2)">
       <use xlink:href="#ArialMT-32"/>
      </g>
     </g>
    </g>
    <g id="xtick_5">
     <g id="text_5">
      <!-- 4 -->
      <g style="fill: #262626" transform="translate(419.908661 390.363125) scale(0.2 -0.2)">
       <use xlink:href="#ArialMT-34"/>
      </g>
     </g>
    </g>
    <g id="text_6">
     <!-- Reward Sensitivity -->
     <g style="fill: #262626" transform="translate(187.664875 415.809375) scale(0.24 -0.24)">
      <defs>
       <path id="ArialMT-52" d="M 503 0 
L 503 4581 
L 2534 4581 
Q 3147 4581 3465 4457 
Q 3784 4334 3975 4021 
Q 4166 3709 4166 3331 
Q 4166 2844 3850 2509 
Q 3534 2175 2875 2084 
Q 3116 1969 3241 1856 
Q 3506 1613 3744 1247 
L 4541 0 
L 3778 0 
L 3172 953 
Q 2906 1366 2734 1584 
Q 2563 1803 2427 1890 
Q 2291 1978 2150 2013 
Q 2047 2034 1813 2034 
L 1109 2034 
L 1109 0 
L 503 0 
z
M 1109 2559 
L 2413 2559 
Q 2828 2559 3062 2645 
Q 3297 2731 3419 2920 
Q 3541 3109 3541 3331 
Q 3541 3656 3305 3865 
Q 3069 4075 2559 4075 
L 1109 4075 
L 1109 2559 
z
" transform="scale(0.015625)"/>
       <path id="ArialMT-65" d="M 2694 1069 
L 3275 997 
Q 3138 488 2766 206 
Q 2394 -75 1816 -75 
Q 1088 -75 661 373 
Q 234 822 234 1631 
Q 234 2469 665 2931 
Q 1097 3394 1784 3394 
Q 2450 3394 2872 2941 
Q 3294 2488 3294 1666 
Q 3294 1616 3291 1516 
L 816 1516 
Q 847 969 1125 678 
Q 1403 388 1819 388 
Q 2128 388 2347 550 
Q 2566 713 2694 1069 
z
M 847 1978 
L 2700 1978 
Q 2663 2397 2488 2606 
Q 2219 2931 1791 2931 
Q 1403 2931 1139 2672 
Q 875 2413 847 1978 
z
" transform="scale(0.015625)"/>
       <path id="ArialMT-77" d="M 1034 0 
L 19 3319 
L 600 3319 
L 1128 1403 
L 1325 691 
Q 1338 744 1497 1375 
L 2025 3319 
L 2603 3319 
L 3100 1394 
L 3266 759 
L 3456 1400 
L 4025 3319 
L 4572 3319 
L 3534 0 
L 2950 0 
L 2422 1988 
L 2294 2553 
L 1622 0 
L 1034 0 
z
" transform="scale(0.015625)"/>
       <path id="ArialMT-61" d="M 2588 409 
Q 2275 144 1986 34 
Q 1697 -75 1366 -75 
Q 819 -75 525 192 
Q 231 459 231 875 
Q 231 1119 342 1320 
Q 453 1522 633 1644 
Q 813 1766 1038 1828 
Q 1203 1872 1538 1913 
Q 2219 1994 2541 2106 
Q 2544 2222 2544 2253 
Q 2544 2597 2384 2738 
Q 2169 2928 1744 2928 
Q 1347 2928 1158 2789 
Q 969 2650 878 2297 
L 328 2372 
Q 403 2725 575 2942 
Q 747 3159 1072 3276 
Q 1397 3394 1825 3394 
Q 2250 3394 2515 3294 
Q 2781 3194 2906 3042 
Q 3031 2891 3081 2659 
Q 3109 2516 3109 2141 
L 3109 1391 
Q 3109 606 3145 398 
Q 3181 191 3288 0 
L 2700 0 
Q 2613 175 2588 409 
z
M 2541 1666 
Q 2234 1541 1622 1453 
Q 1275 1403 1131 1340 
Q 988 1278 909 1158 
Q 831 1038 831 891 
Q 831 666 1001 516 
Q 1172 366 1500 366 
Q 1825 366 2078 508 
Q 2331 650 2450 897 
Q 2541 1088 2541 1459 
L 2541 1666 
z
" transform="scale(0.015625)"/>
       <path id="ArialMT-72" d="M 416 0 
L 416 3319 
L 922 3319 
L 922 2816 
Q 1116 3169 1280 3281 
Q 1444 3394 1641 3394 
Q 1925 3394 2219 3213 
L 2025 2691 
Q 1819 2813 1613 2813 
Q 1428 2813 1281 2702 
Q 1134 2591 1072 2394 
Q 978 2094 978 1738 
L 978 0 
L 416 0 
z
" transform="scale(0.015625)"/>
       <path id="ArialMT-64" d="M 2575 0 
L 2575 419 
Q 2259 -75 1647 -75 
Q 1250 -75 917 144 
Q 584 363 401 755 
Q 219 1147 219 1656 
Q 219 2153 384 2558 
Q 550 2963 881 3178 
Q 1213 3394 1622 3394 
Q 1922 3394 2156 3267 
Q 2391 3141 2538 2938 
L 2538 4581 
L 3097 4581 
L 3097 0 
L 2575 0 
z
M 797 1656 
Q 797 1019 1065 703 
Q 1334 388 1700 388 
Q 2069 388 2326 689 
Q 2584 991 2584 1609 
Q 2584 2291 2321 2609 
Q 2059 2928 1675 2928 
Q 1300 2928 1048 2622 
Q 797 2316 797 1656 
z
" transform="scale(0.015625)"/>
       <path id="ArialMT-20" transform="scale(0.015625)"/>
       <path id="ArialMT-53" d="M 288 1472 
L 859 1522 
Q 900 1178 1048 958 
Q 1197 738 1509 602 
Q 1822 466 2213 466 
Q 2559 466 2825 569 
Q 3091 672 3220 851 
Q 3350 1031 3350 1244 
Q 3350 1459 3225 1620 
Q 3100 1781 2813 1891 
Q 2628 1963 1997 2114 
Q 1366 2266 1113 2400 
Q 784 2572 623 2826 
Q 463 3081 463 3397 
Q 463 3744 659 4045 
Q 856 4347 1234 4503 
Q 1613 4659 2075 4659 
Q 2584 4659 2973 4495 
Q 3363 4331 3572 4012 
Q 3781 3694 3797 3291 
L 3216 3247 
Q 3169 3681 2898 3903 
Q 2628 4125 2100 4125 
Q 1550 4125 1298 3923 
Q 1047 3722 1047 3438 
Q 1047 3191 1225 3031 
Q 1400 2872 2139 2705 
Q 2878 2538 3153 2413 
Q 3553 2228 3743 1945 
Q 3934 1663 3934 1294 
Q 3934 928 3725 604 
Q 3516 281 3123 101 
Q 2731 -78 2241 -78 
Q 1619 -78 1198 103 
Q 778 284 539 648 
Q 300 1013 288 1472 
z
" transform="scale(0.015625)"/>
       <path id="ArialMT-6e" d="M 422 0 
L 422 3319 
L 928 3319 
L 928 2847 
Q 1294 3394 1984 3394 
Q 2284 3394 2536 3286 
Q 2788 3178 2913 3003 
Q 3038 2828 3088 2588 
Q 3119 2431 3119 2041 
L 3119 0 
L 2556 0 
L 2556 2019 
Q 2556 2363 2490 2533 
Q 2425 2703 2258 2804 
Q 2091 2906 1866 2906 
Q 1506 2906 1245 2678 
Q 984 2450 984 1813 
L 984 0 
L 422 0 
z
" transform="scale(0.015625)"/>
       <path id="ArialMT-73" d="M 197 991 
L 753 1078 
Q 800 744 1014 566 
Q 1228 388 1613 388 
Q 2000 388 2187 545 
Q 2375 703 2375 916 
Q 2375 1106 2209 1216 
Q 2094 1291 1634 1406 
Q 1016 1563 777 1677 
Q 538 1791 414 1992 
Q 291 2194 291 2438 
Q 291 2659 392 2848 
Q 494 3038 669 3163 
Q 800 3259 1026 3326 
Q 1253 3394 1513 3394 
Q 1903 3394 2198 3281 
Q 2494 3169 2634 2976 
Q 2775 2784 2828 2463 
L 2278 2388 
Q 2241 2644 2061 2787 
Q 1881 2931 1553 2931 
Q 1166 2931 1000 2803 
Q 834 2675 834 2503 
Q 834 2394 903 2306 
Q 972 2216 1119 2156 
Q 1203 2125 1616 2013 
Q 2213 1853 2448 1751 
Q 2684 1650 2818 1456 
Q 2953 1263 2953 975 
Q 2953 694 2789 445 
Q 2625 197 2315 61 
Q 2006 -75 1616 -75 
Q 969 -75 630 194 
Q 291 463 197 991 
z
" transform="scale(0.015625)"/>
       <path id="ArialMT-69" d="M 425 3934 
L 425 4581 
L 988 4581 
L 988 3934 
L 425 3934 
z
M 425 0 
L 425 3319 
L 988 3319 
L 988 0 
L 425 0 
z
" transform="scale(0.015625)"/>
       <path id="ArialMT-74" d="M 1650 503 
L 1731 6 
Q 1494 -44 1306 -44 
Q 1000 -44 831 53 
Q 663 150 594 308 
Q 525 466 525 972 
L 525 2881 
L 113 2881 
L 113 3319 
L 525 3319 
L 525 4141 
L 1084 4478 
L 1084 3319 
L 1650 3319 
L 1650 2881 
L 1084 2881 
L 1084 941 
Q 1084 700 1114 631 
Q 1144 563 1211 522 
Q 1278 481 1403 481 
Q 1497 481 1650 503 
z
" transform="scale(0.015625)"/>
       <path id="ArialMT-76" d="M 1344 0 
L 81 3319 
L 675 3319 
L 1388 1331 
Q 1503 1009 1600 663 
Q 1675 925 1809 1294 
L 2547 3319 
L 3125 3319 
L 1869 0 
L 1344 0 
z
" transform="scale(0.015625)"/>
       <path id="ArialMT-79" d="M 397 -1278 
L 334 -750 
Q 519 -800 656 -800 
Q 844 -800 956 -737 
Q 1069 -675 1141 -563 
Q 1194 -478 1313 -144 
Q 1328 -97 1363 -6 
L 103 3319 
L 709 3319 
L 1400 1397 
Q 1534 1031 1641 628 
Q 1738 1016 1872 1384 
L 2581 3319 
L 3144 3319 
L 1881 -56 
Q 1678 -603 1566 -809 
Q 1416 -1088 1222 -1217 
Q 1028 -1347 759 -1347 
Q 597 -1347 397 -1278 
z
" transform="scale(0.015625)"/>
      </defs>
      <use xlink:href="#ArialMT-52"/>
      <use xlink:href="#ArialMT-65" x="72.216797"/>
      <use xlink:href="#ArialMT-77" x="127.832031"/>
      <use xlink:href="#ArialMT-61" x="200.048828"/>
      <use xlink:href="#ArialMT-72" x="255.664062"/>
      <use xlink:href="#ArialMT-64" x="288.964844"/>
      <use xlink:href="#ArialMT-20" x="344.580078"/>
      <use xlink:href="#ArialMT-53" x="372.363281"/>
      <use xlink:href="#ArialMT-65" x="439.0625"/>
      <use xlink:href="#ArialMT-6e" x="494.677734"/>
      <use xlink:href="#ArialMT-73" x="550.292969"/>
      <use xlink:href="#ArialMT-69" x="600.292969"/>
      <use xlink:href="#ArialMT-74" x="622.509766"/>
      <use xlink:href="#ArialMT-69" x="650.292969"/>
      <use xlink:href="#ArialMT-76" x="672.509766"/>
      <use xlink:href="#ArialMT-69" x="722.509766"/>
      <use xlink:href="#ArialMT-74" x="744.726562"/>
      <use xlink:href="#ArialMT-79" x="772.509766"/>
     </g>
    </g>
   </g>
   <g id="matplotlib.axis_2">
    <g id="ytick_1">
     <g id="text_7">
      <!-- -0.04 -->
      <g style="fill: #262626" transform="translate(62.94475 354.487093) scale(0.2 -0.2)">
       <defs>
        <path id="ArialMT-2d" d="M 203 1375 
L 203 1941 
L 1931 1941 
L 1931 1375 
L 203 1375 
z
" transform="scale(0.015625)"/>
        <path id="ArialMT-2e" d="M 581 0 
L 581 641 
L 1222 641 
L 1222 0 
L 581 0 
z
" transform="scale(0.015625)"/>
       </defs>
       <use xlink:href="#ArialMT-2d"/>
       <use xlink:href="#ArialMT-30" x="33.300781"/>
       <use xlink:href="#ArialMT-2e" x="88.916016"/>
       <use xlink:href="#ArialMT-30" x="116.699219"/>
       <use xlink:href="#ArialMT-34" x="172.314453"/>
      </g>
     </g>
    </g>
    <g id="ytick_2">
     <g id="text_8">
      <!-- -0.03 -->
      <g style="fill: #262626" transform="translate(62.94475 294.966369) scale(0.2 -0.2)">
       <defs>
        <path id="ArialMT-33" d="M 269 1209 
L 831 1284 
Q 928 806 1161 595 
Q 1394 384 1728 384 
Q 2125 384 2398 659 
Q 2672 934 2672 1341 
Q 2672 1728 2419 1979 
Q 2166 2231 1775 2231 
Q 1616 2231 1378 2169 
L 1441 2663 
Q 1497 2656 1531 2656 
Q 1891 2656 2178 2843 
Q 2466 3031 2466 3422 
Q 2466 3731 2256 3934 
Q 2047 4138 1716 4138 
Q 1388 4138 1169 3931 
Q 950 3725 888 3313 
L 325 3413 
Q 428 3978 793 4289 
Q 1159 4600 1703 4600 
Q 2078 4600 2393 4439 
Q 2709 4278 2876 4000 
Q 3044 3722 3044 3409 
Q 3044 3113 2884 2869 
Q 2725 2625 2413 2481 
Q 2819 2388 3044 2092 
Q 3269 1797 3269 1353 
Q 3269 753 2831 336 
Q 2394 -81 1725 -81 
Q 1122 -81 723 278 
Q 325 638 269 1209 
z
" transform="scale(0.015625)"/>
       </defs>
       <use xlink:href="#ArialMT-2d"/>
       <use xlink:href="#ArialMT-30" x="33.300781"/>
       <use xlink:href="#ArialMT-2e" x="88.916016"/>
       <use xlink:href="#ArialMT-30" x="116.699219"/>
       <use xlink:href="#ArialMT-33" x="172.314453"/>
      </g>
     </g>
    </g>
    <g id="ytick_3">
     <g id="text_9">
      <!-- -0.02 -->
      <g style="fill: #262626" transform="translate(62.94475 235.445645) scale(0.2 -0.2)">
       <use xlink:href="#ArialMT-2d"/>
       <use xlink:href="#ArialMT-30" x="33.300781"/>
       <use xlink:href="#ArialMT-2e" x="88.916016"/>
       <use xlink:href="#ArialMT-30" x="116.699219"/>
       <use xlink:href="#ArialMT-32" x="172.314453"/>
      </g>
     </g>
    </g>
    <g id="ytick_4">
     <g id="text_10">
      <!-- -0.01 -->
      <g style="fill: #262626" transform="translate(62.94475 175.924921) scale(0.2 -0.2)">
       <defs>
        <path id="ArialMT-31" d="M 2384 0 
L 1822 0 
L 1822 3584 
Q 1619 3391 1289 3197 
Q 959 3003 697 2906 
L 697 3450 
Q 1169 3672 1522 3987 
Q 1875 4303 2022 4600 
L 2384 4600 
L 2384 0 
z
" transform="scale(0.015625)"/>
       </defs>
       <use xlink:href="#ArialMT-2d"/>
       <use xlink:href="#ArialMT-30" x="33.300781"/>
       <use xlink:href="#ArialMT-2e" x="88.916016"/>
       <use xlink:href="#ArialMT-30" x="116.699219"/>
       <use xlink:href="#ArialMT-31" x="172.314453"/>
      </g>
     </g>
    </g>
    <g id="ytick_5">
     <g id="text_11">
      <!-- 0.00 -->
      <g style="fill: #262626" transform="translate(69.604125 116.404197) scale(0.2 -0.2)">
       <use xlink:href="#ArialMT-30"/>
       <use xlink:href="#ArialMT-2e" x="55.615234"/>
       <use xlink:href="#ArialMT-30" x="83.398438"/>
       <use xlink:href="#ArialMT-30" x="139.013672"/>
      </g>
     </g>
    </g>
    <g id="ytick_6">
     <g id="text_12">
      <!-- 0.01 -->
      <g style="fill: #262626" transform="translate(69.604125 56.883473) scale(0.2 -0.2)">
       <use xlink:href="#ArialMT-30"/>
       <use xlink:href="#ArialMT-2e" x="55.615234"/>
       <use xlink:href="#ArialMT-30" x="83.398438"/>
       <use xlink:href="#ArialMT-31" x="139.013672"/>
      </g>
     </g>
    </g>
    <g id="text_13">
     <!-- Behavioral Motivation -->
     <g style="fill: #262626" transform="translate(28.158 304.64375) rotate(-90) scale(0.24 -0.24)">
      <defs>
       <path id="ArialMT-42" d="M 469 0 
L 469 4581 
L 2188 4581 
Q 2713 4581 3030 4442 
Q 3347 4303 3526 4014 
Q 3706 3725 3706 3409 
Q 3706 3116 3547 2856 
Q 3388 2597 3066 2438 
Q 3481 2316 3704 2022 
Q 3928 1728 3928 1328 
Q 3928 1006 3792 729 
Q 3656 453 3456 303 
Q 3256 153 2954 76 
Q 2653 0 2216 0 
L 469 0 
z
M 1075 2656 
L 2066 2656 
Q 2469 2656 2644 2709 
Q 2875 2778 2992 2937 
Q 3109 3097 3109 3338 
Q 3109 3566 3000 3739 
Q 2891 3913 2687 3977 
Q 2484 4041 1991 4041 
L 1075 4041 
L 1075 2656 
z
M 1075 541 
L 2216 541 
Q 2509 541 2628 563 
Q 2838 600 2978 687 
Q 3119 775 3209 942 
Q 3300 1109 3300 1328 
Q 3300 1584 3169 1773 
Q 3038 1963 2805 2039 
Q 2572 2116 2134 2116 
L 1075 2116 
L 1075 541 
z
" transform="scale(0.015625)"/>
       <path id="ArialMT-68" d="M 422 0 
L 422 4581 
L 984 4581 
L 984 2938 
Q 1378 3394 1978 3394 
Q 2347 3394 2619 3248 
Q 2891 3103 3008 2847 
Q 3125 2591 3125 2103 
L 3125 0 
L 2563 0 
L 2563 2103 
Q 2563 2525 2380 2717 
Q 2197 2909 1863 2909 
Q 1613 2909 1392 2779 
Q 1172 2650 1078 2428 
Q 984 2206 984 1816 
L 984 0 
L 422 0 
z
" transform="scale(0.015625)"/>
       <path id="ArialMT-6f" d="M 213 1659 
Q 213 2581 725 3025 
Q 1153 3394 1769 3394 
Q 2453 3394 2887 2945 
Q 3322 2497 3322 1706 
Q 3322 1066 3130 698 
Q 2938 331 2570 128 
Q 2203 -75 1769 -75 
Q 1072 -75 642 372 
Q 213 819 213 1659 
z
M 791 1659 
Q 791 1022 1069 705 
Q 1347 388 1769 388 
Q 2188 388 2466 706 
Q 2744 1025 2744 1678 
Q 2744 2294 2464 2611 
Q 2184 2928 1769 2928 
Q 1347 2928 1069 2612 
Q 791 2297 791 1659 
z
" transform="scale(0.015625)"/>
       <path id="ArialMT-6c" d="M 409 0 
L 409 4581 
L 972 4581 
L 972 0 
L 409 0 
z
" transform="scale(0.015625)"/>
       <path id="ArialMT-4d" d="M 475 0 
L 475 4581 
L 1388 4581 
L 2472 1338 
Q 2622 884 2691 659 
Q 2769 909 2934 1394 
L 4031 4581 
L 4847 4581 
L 4847 0 
L 4263 0 
L 4263 3834 
L 2931 0 
L 2384 0 
L 1059 3900 
L 1059 0 
L 475 0 
z
" transform="scale(0.015625)"/>
      </defs>
      <use xlink:href="#ArialMT-42"/>
      <use xlink:href="#ArialMT-65" x="66.699219"/>
      <use xlink:href="#ArialMT-68" x="122.314453"/>
      <use xlink:href="#ArialMT-61" x="177.929688"/>
      <use xlink:href="#ArialMT-76" x="233.544922"/>
      <use xlink:href="#ArialMT-69" x="283.544922"/>
      <use xlink:href="#ArialMT-6f" x="305.761719"/>
      <use xlink:href="#ArialMT-72" x="361.376953"/>
      <use xlink:href="#ArialMT-61" x="394.677734"/>
      <use xlink:href="#ArialMT-6c" x="450.292969"/>
      <use xlink:href="#ArialMT-20" x="472.509766"/>
      <use xlink:href="#ArialMT-4d" x="500.292969"/>
      <use xlink:href="#ArialMT-6f" x="583.59375"/>
      <use xlink:href="#ArialMT-74" x="639.208984"/>
      <use xlink:href="#ArialMT-69" x="666.992188"/>
      <use xlink:href="#ArialMT-76" x="689.208984"/>
      <use xlink:href="#ArialMT-61" x="739.208984"/>
      <use xlink:href="#ArialMT-74" x="794.824219"/>
      <use xlink:href="#ArialMT-69" x="822.607422"/>
      <use xlink:href="#ArialMT-6f" x="844.824219"/>
      <use xlink:href="#ArialMT-6e" x="900.439453"/>
     </g>
     <!-- (HS&gt;LS) -->
     <g style="fill: #262626" transform="translate(53.8935 236.271875) rotate(-90) scale(0.24 -0.24)">
      <defs>
       <path id="ArialMT-28" d="M 1497 -1347 
Q 1031 -759 709 28 
Q 388 816 388 1659 
Q 388 2403 628 3084 
Q 909 3875 1497 4659 
L 1900 4659 
Q 1522 4009 1400 3731 
Q 1209 3300 1100 2831 
Q 966 2247 966 1656 
Q 966 153 1900 -1347 
L 1497 -1347 
z
" transform="scale(0.015625)"/>
       <path id="ArialMT-48" d="M 513 0 
L 513 4581 
L 1119 4581 
L 1119 2700 
L 3500 2700 
L 3500 4581 
L 4106 4581 
L 4106 0 
L 3500 0 
L 3500 2159 
L 1119 2159 
L 1119 0 
L 513 0 
z
" transform="scale(0.015625)"/>
       <path id="ArialMT-3e" d="M 3384 2003 
L 350 706 
L 350 1266 
L 2753 2263 
L 350 3250 
L 350 3809 
L 3384 2528 
L 3384 2003 
z
" transform="scale(0.015625)"/>
       <path id="ArialMT-4c" d="M 469 0 
L 469 4581 
L 1075 4581 
L 1075 541 
L 3331 541 
L 3331 0 
L 469 0 
z
" transform="scale(0.015625)"/>
       <path id="ArialMT-29" d="M 791 -1347 
L 388 -1347 
Q 1322 153 1322 1656 
Q 1322 2244 1188 2822 
Q 1081 3291 891 3722 
Q 769 4003 388 4659 
L 791 4659 
Q 1378 3875 1659 3084 
Q 1900 2403 1900 1659 
Q 1900 816 1576 28 
Q 1253 -759 791 -1347 
z
" transform="scale(0.015625)"/>
      </defs>
      <use xlink:href="#ArialMT-28"/>
      <use xlink:href="#ArialMT-48" x="33.300781"/>
      <use xlink:href="#ArialMT-53" x="105.517578"/>
      <use xlink:href="#ArialMT-3e" x="172.216797"/>
      <use xlink:href="#ArialMT-4c" x="230.615234"/>
      <use xlink:href="#ArialMT-53" x="286.230469"/>
      <use xlink:href="#ArialMT-29" x="352.929688"/>
     </g>
    </g>
   </g>
   <g id="PathCollection_1">
    <path d="M 131.056636 131.281216 
C 132.382652 131.281216 133.654536 130.754384 134.59217 129.81675 
C 135.529805 128.879115 136.056636 127.607231 136.056636 126.281216 
C 136.056636 124.9552 135.529805 123.683317 134.59217 122.745682 
C 133.654536 121.808047 132.382652 121.281216 131.056636 121.281216 
C 129.730621 121.281216 128.458737 121.808047 127.521102 122.745682 
C 126.583468 123.683317 126.056636 124.9552 126.056636 126.281216 
C 126.056636 127.607231 126.583468 128.879115 127.521102 129.81675 
C 128.458737 130.754384 129.730621 131.281216 131.056636 131.281216 
z
" clip-path="url(#pcfde470636)" style="stroke: #ffffff; stroke-width: 0.8"/>
    <path d="M 131.056636 150.339752 
C 132.382652 150.339752 133.654536 149.81292 134.59217 148.875286 
C 135.529805 147.937651 136.056636 146.665767 136.056636 145.339752 
C 136.056636 144.013736 135.529805 142.741852 134.59217 141.804218 
C 133.654536 140.866583 132.382652 140.339752 131.056636 140.339752 
C 129.730621 140.339752 128.458737 140.866583 127.521102 141.804218 
C 126.583468 142.741852 126.056636 144.013736 126.056636 145.339752 
C 126.056636 146.665767 126.583468 147.937651 127.521102 148.875286 
C 128.458737 149.81292 129.730621 150.339752 131.056636 150.339752 
z
" clip-path="url(#pcfde470636)" style="stroke: #ffffff; stroke-width: 0.8"/>
    <path d="M 441.669364 93.039151 
C 442.995379 93.039151 444.267263 92.512319 445.204898 91.574685 
C 446.142532 90.63705 446.669364 89.365166 446.669364 88.039151 
C 446.669364 86.713135 446.142532 85.441251 445.204898 84.503617 
C 444.267263 83.565982 442.995379 83.039151 441.669364 83.039151 
C 440.343348 83.039151 439.071464 83.565982 438.13383 84.503617 
C 437.196195 85.441251 436.669364 86.713135 436.669364 88.039151 
C 436.669364 89.365166 437.196195 90.63705 438.13383 91.574685 
C 439.071464 92.512319 440.343348 93.039151 441.669364 93.039151 
z
" clip-path="url(#pcfde470636)" style="fill: #808080; stroke: #ffffff; stroke-width: 0.8"/>
    <path d="M 372.644313 107.216987 
C 373.970329 107.216987 375.242212 106.690156 376.179847 105.752521 
C 377.117482 104.814887 377.644313 103.543003 377.644313 102.216987 
C 377.644313 100.890972 377.117482 99.619088 376.179847 98.681453 
C 375.242212 97.743819 373.970329 97.216987 372.644313 97.216987 
C 371.318298 97.216987 370.046414 97.743819 369.108779 98.681453 
C 368.171145 99.619088 367.644313 100.890972 367.644313 102.216987 
C 367.644313 103.543003 368.171145 104.814887 369.108779 105.752521 
C 370.046414 106.690156 371.318298 107.216987 372.644313 107.216987 
z
" clip-path="url(#pcfde470636)" style="fill: #808080; stroke: #ffffff; stroke-width: 0.8"/>
    <path d="M 407.156838 166.47582 
C 408.482854 166.47582 409.754738 165.948988 410.692372 165.011354 
C 411.630007 164.073719 412.156838 162.801835 412.156838 161.47582 
C 412.156838 160.149804 411.630007 158.877921 410.692372 157.940286 
C 409.754738 157.002652 408.482854 156.47582 407.156838 156.47582 
C 405.830823 156.47582 404.558939 157.002652 403.621304 157.940286 
C 402.68367 158.877921 402.156838 160.149804 402.156838 161.47582 
C 402.156838 162.801835 402.68367 164.073719 403.621304 165.011354 
C 404.558939 165.948988 405.830823 166.47582 407.156838 166.47582 
z
" clip-path="url(#pcfde470636)" style="stroke: #ffffff; stroke-width: 0.8"/>
    <path d="M 303.619263 113.692842 
C 304.945278 113.692842 306.217162 113.16601 307.154797 112.228376 
C 308.092431 111.290741 308.619263 110.018857 308.619263 108.692842 
C 308.619263 107.366826 308.092431 106.094943 307.154797 105.157308 
C 306.217162 104.219673 304.945278 103.692842 303.619263 103.692842 
C 302.293247 103.692842 301.021363 104.219673 300.083729 105.157308 
C 299.146094 106.094943 298.619263 107.366826 298.619263 108.692842 
C 298.619263 110.018857 299.146094 111.290741 300.083729 112.228376 
C 301.021363 113.16601 302.293247 113.692842 303.619263 113.692842 
z
" clip-path="url(#pcfde470636)" style="stroke: #ffffff; stroke-width: 0.8"/>
    <path d="M 372.644313 128.864674 
C 373.970329 128.864674 375.242212 128.337843 376.179847 127.400208 
C 377.117482 126.462574 377.644313 125.19069 377.644313 123.864674 
C 377.644313 122.538659 377.117482 121.266775 376.179847 120.329141 
C 375.242212 119.391506 373.970329 118.864674 372.644313 118.864674 
C 371.318298 118.864674 370.046414 119.391506 369.108779 120.329141 
C 368.171145 121.266775 367.644313 122.538659 367.644313 123.864674 
C 367.644313 125.19069 368.171145 126.462574 369.108779 127.400208 
C 370.046414 128.337843 371.318298 128.864674 372.644313 128.864674 
z
" clip-path="url(#pcfde470636)" style="fill: #808080; stroke: #ffffff; stroke-width: 0.8"/>
    <path d="M 303.619263 171.350567 
C 304.945278 171.350567 306.217162 170.823736 307.154797 169.886101 
C 308.092431 168.948467 308.619263 167.676583 308.619263 166.350567 
C 308.619263 165.024552 308.092431 163.752668 307.154797 162.815033 
C 306.217162 161.877399 304.945278 161.350567 303.619263 161.350567 
C 302.293247 161.350567 301.021363 161.877399 300.083729 162.815033 
C 299.146094 163.752668 298.619263 165.024552 298.619263 166.350567 
C 298.619263 167.676583 299.146094 168.948467 300.083729 169.886101 
C 301.021363 170.823736 302.293247 171.350567 303.619263 171.350567 
z
" clip-path="url(#pcfde470636)" style="stroke: #ffffff; stroke-width: 0.8"/>
    <path d="M 303.619263 123.329247 
C 304.945278 123.329247 306.217162 122.802416 307.154797 121.864781 
C 308.092431 120.927147 308.619263 119.655263 308.619263 118.329247 
C 308.619263 117.003232 308.092431 115.731348 307.154797 114.793713 
C 306.217162 113.856079 304.945278 113.329247 303.619263 113.329247 
C 302.293247 113.329247 301.021363 113.856079 300.083729 114.793713 
C 299.146094 115.731348 298.619263 117.003232 298.619263 118.329247 
C 298.619263 119.655263 299.146094 120.927147 300.083729 121.864781 
C 301.021363 122.802416 302.293247 123.329247 303.619263 123.329247 
z
" clip-path="url(#pcfde470636)" style="stroke: #ffffff; stroke-width: 0.8"/>
    <path d="M 165.569162 141.935425 
C 166.895177 141.935425 168.167061 141.408594 169.104696 140.470959 
C 170.04233 139.533325 170.569162 138.261441 170.569162 136.935425 
C 170.569162 135.60941 170.04233 134.337526 169.104696 133.399892 
C 168.167061 132.462257 166.895177 131.935425 165.569162 131.935425 
C 164.243146 131.935425 162.971262 132.462257 162.033628 133.399892 
C 161.095993 134.337526 160.569162 135.60941 160.569162 136.935425 
C 160.569162 138.261441 161.095993 139.533325 162.033628 140.470959 
C 162.971262 141.408594 164.243146 141.935425 165.569162 141.935425 
z
" clip-path="url(#pcfde470636)" style="stroke: #ffffff; stroke-width: 0.8"/>
    <path d="M 303.619263 177.445489 
C 304.945278 177.445489 306.217162 176.918658 307.154797 175.981023 
C 308.092431 175.043389 308.619263 173.771505 308.619263 172.445489 
C 308.619263 171.119474 308.092431 169.84759 307.154797 168.909955 
C 306.217162 167.972321 304.945278 167.445489 303.619263 167.445489 
C 302.293247 167.445489 301.021363 167.972321 300.083729 168.909955 
C 299.146094 169.84759 298.619263 171.119474 298.619263 172.445489 
C 298.619263 173.771505 299.146094 175.043389 300.083729 175.981023 
C 301.021363 176.918658 302.293247 177.445489 303.619263 177.445489 
z
" clip-path="url(#pcfde470636)" style="fill: #808080; stroke: #ffffff; stroke-width: 0.8"/>
    <path d="M 269.106737 32.083977 
C 270.432753 32.083977 271.704637 31.557146 272.642271 30.619511 
C 273.579906 29.681877 274.106737 28.409993 274.106737 27.083977 
C 274.106737 25.757962 273.579906 24.486078 272.642271 23.548443 
C 271.704637 22.610809 270.432753 22.083977 269.106737 22.083977 
C 267.780722 22.083977 266.508838 22.610809 265.571203 23.548443 
C 264.633569 24.486078 264.106737 25.757962 264.106737 27.083977 
C 264.106737 28.409993 264.633569 29.681877 265.571203 30.619511 
C 266.508838 31.557146 267.780722 32.083977 269.106737 32.083977 
z
" clip-path="url(#pcfde470636)" style="stroke: #ffffff; stroke-width: 0.8"/>
    <path d="M 407.156838 101.973211 
C 408.482854 101.973211 409.754738 101.44638 410.692372 100.508745 
C 411.630007 99.571111 412.156838 98.299227 412.156838 96.973211 
C 412.156838 95.647196 411.630007 94.375312 410.692372 93.437677 
C 409.754738 92.500043 408.482854 91.973211 407.156838 91.973211 
C 405.830823 91.973211 404.558939 92.500043 403.621304 93.437677 
C 402.68367 94.375312 402.156838 95.647196 402.156838 96.973211 
C 402.156838 98.299227 402.68367 99.571111 403.621304 100.508745 
C 404.558939 101.44638 405.830823 101.973211 407.156838 101.973211 
z
" clip-path="url(#pcfde470636)" style="fill: #808080; stroke: #ffffff; stroke-width: 0.8"/>
    <path d="M 441.669364 95.687823 
C 442.995379 95.687823 444.267263 95.160991 445.204898 94.223357 
C 446.142532 93.285722 446.669364 92.013838 446.669364 90.687823 
C 446.669364 89.361807 446.142532 88.089924 445.204898 87.152289 
C 444.267263 86.214654 442.995379 85.687823 441.669364 85.687823 
C 440.343348 85.687823 439.071464 86.214654 438.13383 87.152289 
C 437.196195 88.089924 436.669364 89.361807 436.669364 90.687823 
C 436.669364 92.013838 437.196195 93.285722 438.13383 94.223357 
C 439.071464 95.160991 440.343348 95.687823 441.669364 95.687823 
z
" clip-path="url(#pcfde470636)" style="fill: #808080; stroke: #ffffff; stroke-width: 0.8"/>
    <path d="M 407.156838 267.214645 
C 408.482854 267.214645 409.754738 266.687814 410.692372 265.750179 
C 411.630007 264.812545 412.156838 263.540661 412.156838 262.214645 
C 412.156838 260.88863 411.630007 259.616746 410.692372 258.679111 
C 409.754738 257.741477 408.482854 257.214645 407.156838 257.214645 
C 405.830823 257.214645 404.558939 257.741477 403.621304 258.679111 
C 402.68367 259.616746 402.156838 260.88863 402.156838 262.214645 
C 402.156838 263.540661 402.68367 264.812545 403.621304 265.750179 
C 404.558939 266.687814 405.830823 267.214645 407.156838 267.214645 
z
" clip-path="url(#pcfde470636)" style="stroke: #ffffff; stroke-width: 0.8"/>
    <path d="M 200.081687 126.858826 
C 201.407702 126.858826 202.679586 126.331995 203.617221 125.39436 
C 204.554855 124.456725 205.081687 123.184842 205.081687 121.858826 
C 205.081687 120.532811 204.554855 119.260927 203.617221 118.323292 
C 202.679586 117.385658 201.407702 116.858826 200.081687 116.858826 
C 198.755671 116.858826 197.483788 117.385658 196.546153 118.323292 
C 195.608518 119.260927 195.081687 120.532811 195.081687 121.858826 
C 195.081687 123.184842 195.608518 124.456725 196.546153 125.39436 
C 197.483788 126.331995 198.755671 126.858826 200.081687 126.858826 
z
" clip-path="url(#pcfde470636)" style="fill: #808080; stroke: #ffffff; stroke-width: 0.8"/>
    <path d="M 441.669364 115.38323 
C 442.995379 115.38323 444.267263 114.856399 445.204898 113.918764 
C 446.142532 112.98113 446.669364 111.709246 446.669364 110.38323 
C 446.669364 109.057215 446.142532 107.785331 445.204898 106.847697 
C 444.267263 105.910062 442.995379 105.38323 441.669364 105.38323 
C 440.343348 105.38323 439.071464 105.910062 438.13383 106.847697 
C 437.196195 107.785331 436.669364 109.057215 436.669364 110.38323 
C 436.669364 111.709246 437.196195 112.98113 438.13383 113.918764 
C 439.071464 114.856399 440.343348 115.38323 441.669364 115.38323 
z
" clip-path="url(#pcfde470636)" style="fill: #808080; stroke: #ffffff; stroke-width: 0.8"/>
    <path d="M 200.081687 51.85081 
C 201.407702 51.85081 202.679586 51.323978 203.617221 50.386344 
C 204.554855 49.448709 205.081687 48.176825 205.081687 46.85081 
C 205.081687 45.524794 204.554855 44.25291 203.617221 43.315276 
C 202.679586 42.377641 201.407702 41.85081 200.081687 41.85081 
C 198.755671 41.85081 197.483788 42.377641 196.546153 43.315276 
C 195.608518 44.25291 195.081687 45.524794 195.081687 46.85081 
C 195.081687 48.176825 195.608518 49.448709 196.546153 50.386344 
C 197.483788 51.323978 198.755671 51.85081 200.081687 51.85081 
z
" clip-path="url(#pcfde470636)" style="fill: #808080; stroke: #ffffff; stroke-width: 0.8"/>
    <path d="M 234.594212 199.813377 
C 235.920228 199.813377 237.192111 199.286546 238.129746 198.348911 
C 239.067381 197.411277 239.594212 196.139393 239.594212 194.813377 
C 239.594212 193.487362 239.067381 192.215478 238.129746 191.277844 
C 237.192111 190.340209 235.920228 189.813377 234.594212 189.813377 
C 233.268197 189.813377 231.996313 190.340209 231.058678 191.277844 
C 230.121044 192.215478 229.594212 193.487362 229.594212 194.813377 
C 229.594212 196.139393 230.121044 197.411277 231.058678 198.348911 
C 231.996313 199.286546 233.268197 199.813377 234.594212 199.813377 
z
" clip-path="url(#pcfde470636)" style="fill: #808080; stroke: #ffffff; stroke-width: 0.8"/>
    <path d="M 338.131788 357.763523 
C 339.457803 357.763523 340.729687 357.236691 341.667322 356.299057 
C 342.604956 355.361422 343.131788 354.089538 343.131788 352.763523 
C 343.131788 351.437507 342.604956 350.165623 341.667322 349.227989 
C 340.729687 348.290354 339.457803 347.763523 338.131788 347.763523 
C 336.805772 347.763523 335.533889 348.290354 334.596254 349.227989 
C 333.658619 350.165623 333.131788 351.437507 333.131788 352.763523 
C 333.131788 354.089538 333.658619 355.361422 334.596254 356.299057 
C 335.533889 357.236691 336.805772 357.763523 338.131788 357.763523 
z
" clip-path="url(#pcfde470636)" style="fill: #808080; stroke: #ffffff; stroke-width: 0.8"/>
    <path d="M 407.156838 127.150478 
C 408.482854 127.150478 409.754738 126.623646 410.692372 125.686012 
C 411.630007 124.748377 412.156838 123.476493 412.156838 122.150478 
C 412.156838 120.824462 411.630007 119.552578 410.692372 118.614944 
C 409.754738 117.677309 408.482854 117.150478 407.156838 117.150478 
C 405.830823 117.150478 404.558939 117.677309 403.621304 118.614944 
C 402.68367 119.552578 402.156838 120.824462 402.156838 122.150478 
C 402.156838 123.476493 402.68367 124.748377 403.621304 125.686012 
C 404.558939 126.623646 405.830823 127.150478 407.156838 127.150478 
z
" clip-path="url(#pcfde470636)" style="fill: #808080; stroke: #ffffff; stroke-width: 0.8"/>
    <path d="M 338.131788 124.233962 
C 339.457803 124.233962 340.729687 123.707131 341.667322 122.769496 
C 342.604956 121.831862 343.131788 120.559978 343.131788 119.233962 
C 343.131788 117.907947 342.604956 116.636063 341.667322 115.698428 
C 340.729687 114.760794 339.457803 114.233962 338.131788 114.233962 
C 336.805772 114.233962 335.533889 114.760794 334.596254 115.698428 
C 333.658619 116.636063 333.131788 117.907947 333.131788 119.233962 
C 333.131788 120.559978 333.658619 121.831862 334.596254 122.769496 
C 335.533889 123.707131 336.805772 124.233962 338.131788 124.233962 
z
" clip-path="url(#pcfde470636)" style="fill: #808080; stroke: #ffffff; stroke-width: 0.8"/>
    <path d="M 407.156838 107.234843 
C 408.482854 107.234843 409.754738 106.708012 410.692372 105.770377 
C 411.630007 104.832743 412.156838 103.560859 412.156838 102.234843 
C 412.156838 100.908828 411.630007 99.636944 410.692372 98.699309 
C 409.754738 97.761675 408.482854 97.234843 407.156838 97.234843 
C 405.830823 97.234843 404.558939 97.761675 403.621304 98.699309 
C 402.68367 99.636944 402.156838 100.908828 402.156838 102.234843 
C 402.156838 103.560859 402.68367 104.832743 403.621304 105.770377 
C 404.558939 106.708012 405.830823 107.234843 407.156838 107.234843 
z
" clip-path="url(#pcfde470636)" style="fill: #808080; stroke: #ffffff; stroke-width: 0.8"/>
    <path d="M 165.569162 142.613962 
C 166.895177 142.613962 168.167061 142.08713 169.104696 141.149496 
C 170.04233 140.211861 170.569162 138.939977 170.569162 137.613962 
C 170.569162 136.287946 170.04233 135.016062 169.104696 134.078428 
C 168.167061 133.140793 166.895177 132.613962 165.569162 132.613962 
C 164.243146 132.613962 162.971262 133.140793 162.033628 134.078428 
C 161.095993 135.016062 160.569162 136.287946 160.569162 137.613962 
C 160.569162 138.939977 161.095993 140.211861 162.033628 141.149496 
C 162.971262 142.08713 164.243146 142.613962 165.569162 142.613962 
z
" clip-path="url(#pcfde470636)" style="fill: #808080; stroke: #ffffff; stroke-width: 0.8"/>
    <path d="M 269.106737 123.56733 
C 270.432753 123.56733 271.704637 123.040499 272.642271 122.102864 
C 273.579906 121.165229 274.106737 119.893346 274.106737 118.56733 
C 274.106737 117.241315 273.579906 115.969431 272.642271 115.031796 
C 271.704637 114.094162 270.432753 113.56733 269.106737 113.56733 
C 267.780722 113.56733 266.508838 114.094162 265.571203 115.031796 
C 264.633569 115.969431 264.106737 117.241315 264.106737 118.56733 
C 264.106737 119.893346 264.633569 121.165229 265.571203 122.102864 
C 266.508838 123.040499 267.780722 123.56733 269.106737 123.56733 
z
" clip-path="url(#pcfde470636)" style="stroke: #ffffff; stroke-width: 0.8"/>
    <path d="M 372.644313 120.323451 
C 373.970329 120.323451 375.242212 119.796619 376.179847 118.858984 
C 377.117482 117.92135 377.644313 116.649466 377.644313 115.323451 
C 377.644313 113.997435 377.117482 112.725551 376.179847 111.787917 
C 375.242212 110.850282 373.970329 110.323451 372.644313 110.323451 
C 371.318298 110.323451 370.046414 110.850282 369.108779 111.787917 
C 368.171145 112.725551 367.644313 113.997435 367.644313 115.323451 
C 367.644313 116.649466 368.171145 117.92135 369.108779 118.858984 
C 370.046414 119.796619 371.318298 120.323451 372.644313 120.323451 
z
" clip-path="url(#pcfde470636)" style="stroke: #ffffff; stroke-width: 0.8"/>
    <path d="M 200.081687 91.557085 
C 201.407702 91.557085 202.679586 91.030253 203.617221 90.092619 
C 204.554855 89.154984 205.081687 87.8831 205.081687 86.557085 
C 205.081687 85.231069 204.554855 83.959185 203.617221 83.021551 
C 202.679586 82.083916 201.407702 81.557085 200.081687 81.557085 
C 198.755671 81.557085 197.483788 82.083916 196.546153 83.021551 
C 195.608518 83.959185 195.081687 85.231069 195.081687 86.557085 
C 195.081687 87.8831 195.608518 89.154984 196.546153 90.092619 
C 197.483788 91.030253 198.755671 91.557085 200.081687 91.557085 
z
" clip-path="url(#pcfde470636)" style="fill: #808080; stroke: #ffffff; stroke-width: 0.8"/>
    <path d="M 372.644313 140.012906 
C 373.970329 140.012906 375.242212 139.486075 376.179847 138.54844 
C 377.117482 137.610805 377.644313 136.338922 377.644313 135.012906 
C 377.644313 133.686891 377.117482 132.415007 376.179847 131.477372 
C 375.242212 130.539738 373.970329 130.012906 372.644313 130.012906 
C 371.318298 130.012906 370.046414 130.539738 369.108779 131.477372 
C 368.171145 132.415007 367.644313 133.686891 367.644313 135.012906 
C 367.644313 136.338922 368.171145 137.610805 369.108779 138.54844 
C 370.046414 139.486075 371.318298 140.012906 372.644313 140.012906 
z
" clip-path="url(#pcfde470636)" style="fill: #808080; stroke: #ffffff; stroke-width: 0.8"/>
    <path d="M 234.594212 112.157207 
C 235.920228 112.157207 237.192111 111.630376 238.129746 110.692741 
C 239.067381 109.755107 239.594212 108.483223 239.594212 107.157207 
C 239.594212 105.831192 239.067381 104.559308 238.129746 103.621673 
C 237.192111 102.684039 235.920228 102.157207 234.594212 102.157207 
C 233.268197 102.157207 231.996313 102.684039 231.058678 103.621673 
C 230.121044 104.559308 229.594212 105.831192 229.594212 107.157207 
C 229.594212 108.483223 230.121044 109.755107 231.058678 110.692741 
C 231.996313 111.630376 233.268197 112.157207 234.594212 112.157207 
z
" clip-path="url(#pcfde470636)" style="stroke: #ffffff; stroke-width: 0.8"/>
    <path d="M 131.056636 189.593669 
C 132.382652 189.593669 133.654536 189.066838 134.59217 188.129203 
C 135.529805 187.191569 136.056636 185.919685 136.056636 184.593669 
C 136.056636 183.267654 135.529805 181.99577 134.59217 181.058135 
C 133.654536 180.120501 132.382652 179.593669 131.056636 179.593669 
C 129.730621 179.593669 128.458737 180.120501 127.521102 181.058135 
C 126.583468 181.99577 126.056636 183.267654 126.056636 184.593669 
C 126.056636 185.919685 126.583468 187.191569 127.521102 188.129203 
C 128.458737 189.066838 129.730621 189.593669 131.056636 189.593669 
z
" clip-path="url(#pcfde470636)" style="stroke: #ffffff; stroke-width: 0.8"/>
    <path d="M 200.081687 134.298917 
C 201.407702 134.298917 202.679586 133.772085 203.617221 132.83445 
C 204.554855 131.896816 205.081687 130.624932 205.081687 129.298917 
C 205.081687 127.972901 204.554855 126.701017 203.617221 125.763383 
C 202.679586 124.825748 201.407702 124.298917 200.081687 124.298917 
C 198.755671 124.298917 197.483788 124.825748 196.546153 125.763383 
C 195.608518 126.701017 195.081687 127.972901 195.081687 129.298917 
C 195.081687 130.624932 195.608518 131.896816 196.546153 132.83445 
C 197.483788 133.772085 198.755671 134.298917 200.081687 134.298917 
z
" clip-path="url(#pcfde470636)" style="stroke: #ffffff; stroke-width: 0.8"/>
    <path d="M 234.594212 281.24368 
C 235.920228 281.24368 237.192111 280.716848 238.129746 279.779214 
C 239.067381 278.841579 239.594212 277.569695 239.594212 276.24368 
C 239.594212 274.917664 239.067381 273.645781 238.129746 272.708146 
C 237.192111 271.770512 235.920228 271.24368 234.594212 271.24368 
C 233.268197 271.24368 231.996313 271.770512 231.058678 272.708146 
C 230.121044 273.645781 229.594212 274.917664 229.594212 276.24368 
C 229.594212 277.569695 230.121044 278.841579 231.058678 279.779214 
C 231.996313 280.716848 233.268197 281.24368 234.594212 281.24368 
z
" clip-path="url(#pcfde470636)" style="fill: #808080; stroke: #ffffff; stroke-width: 0.8"/>
    <path d="M 338.131788 218.490981 
C 339.457803 218.490981 340.729687 217.964149 341.667322 217.026515 
C 342.604956 216.08888 343.131788 214.816996 343.131788 213.490981 
C 343.131788 212.164965 342.604956 210.893081 341.667322 209.955447 
C 340.729687 209.017812 339.457803 208.490981 338.131788 208.490981 
C 336.805772 208.490981 335.533889 209.017812 334.596254 209.955447 
C 333.658619 210.893081 333.131788 212.164965 333.131788 213.490981 
C 333.131788 214.816996 333.658619 216.08888 334.596254 217.026515 
C 335.533889 217.964149 336.805772 218.490981 338.131788 218.490981 
z
" clip-path="url(#pcfde470636)" style="stroke: #ffffff; stroke-width: 0.8"/>
    <path d="M 165.569162 107.187227 
C 166.895177 107.187227 168.167061 106.660395 169.104696 105.722761 
C 170.04233 104.785126 170.569162 103.513242 170.569162 102.187227 
C 170.569162 100.861211 170.04233 99.589327 169.104696 98.651693 
C 168.167061 97.714058 166.895177 97.187227 165.569162 97.187227 
C 164.243146 97.187227 162.971262 97.714058 162.033628 98.651693 
C 161.095993 99.589327 160.569162 100.861211 160.569162 102.187227 
C 160.569162 103.513242 161.095993 104.785126 162.033628 105.722761 
C 162.971262 106.660395 164.243146 107.187227 165.569162 107.187227 
z
" clip-path="url(#pcfde470636)" style="stroke: #ffffff; stroke-width: 0.8"/>
    <path d="M 372.644313 151.994428 
C 373.970329 151.994428 375.242212 151.467596 376.179847 150.529962 
C 377.117482 149.592327 377.644313 148.320443 377.644313 146.994428 
C 377.644313 145.668412 377.117482 144.396528 376.179847 143.458894 
C 375.242212 142.521259 373.970329 141.994428 372.644313 141.994428 
C 371.318298 141.994428 370.046414 142.521259 369.108779 143.458894 
C 368.171145 144.396528 367.644313 145.668412 367.644313 146.994428 
C 367.644313 148.320443 368.171145 149.592327 369.108779 150.529962 
C 370.046414 151.467596 371.318298 151.994428 372.644313 151.994428 
z
" clip-path="url(#pcfde470636)" style="stroke: #ffffff; stroke-width: 0.8"/>
    <path d="M 441.669364 76.40906 
C 442.995379 76.40906 444.267263 75.882229 445.204898 74.944594 
C 446.142532 74.00696 446.669364 72.735076 446.669364 71.40906 
C 446.669364 70.083045 446.142532 68.811161 445.204898 67.873527 
C 444.267263 66.935892 442.995379 66.40906 441.669364 66.40906 
C 440.343348 66.40906 439.071464 66.935892 438.13383 67.873527 
C 437.196195 68.811161 436.669364 70.083045 436.669364 71.40906 
C 436.669364 72.735076 437.196195 74.00696 438.13383 74.944594 
C 439.071464 75.882229 440.343348 76.40906 441.669364 76.40906 
z
" clip-path="url(#pcfde470636)" style="fill: #808080; stroke: #ffffff; stroke-width: 0.8"/>
    <path d="M 303.619263 167.487672 
C 304.945278 167.487672 306.217162 166.960841 307.154797 166.023206 
C 308.092431 165.085572 308.619263 163.813688 308.619263 162.487672 
C 308.619263 161.161657 308.092431 159.889773 307.154797 158.952138 
C 306.217162 158.014504 304.945278 157.487672 303.619263 157.487672 
C 302.293247 157.487672 301.021363 158.014504 300.083729 158.952138 
C 299.146094 159.889773 298.619263 161.161657 298.619263 162.487672 
C 298.619263 163.813688 299.146094 165.085572 300.083729 166.023206 
C 301.021363 166.960841 302.293247 167.487672 303.619263 167.487672 
z
" clip-path="url(#pcfde470636)" style="fill: #808080; stroke: #ffffff; stroke-width: 0.8"/>
    <path d="M 234.594212 139.072479 
C 235.920228 139.072479 237.192111 138.545647 238.129746 137.608013 
C 239.067381 136.670378 239.594212 135.398494 239.594212 134.072479 
C 239.594212 132.746463 239.067381 131.474579 238.129746 130.536945 
C 237.192111 129.59931 235.920228 129.072479 234.594212 129.072479 
C 233.268197 129.072479 231.996313 129.59931 231.058678 130.536945 
C 230.121044 131.474579 229.594212 132.746463 229.594212 134.072479 
C 229.594212 135.398494 230.121044 136.670378 231.058678 137.608013 
C 231.996313 138.545647 233.268197 139.072479 234.594212 139.072479 
z
" clip-path="url(#pcfde470636)" style="stroke: #ffffff; stroke-width: 0.8"/>
    <path d="M 269.106737 145.76856 
C 270.432753 145.76856 271.704637 145.241729 272.642271 144.304094 
C 273.579906 143.366459 274.106737 142.094576 274.106737 140.76856 
C 274.106737 139.442545 273.579906 138.170661 272.642271 137.233026 
C 271.704637 136.295392 270.432753 135.76856 269.106737 135.76856 
C 267.780722 135.76856 266.508838 136.295392 265.571203 137.233026 
C 264.633569 138.170661 264.106737 139.442545 264.106737 140.76856 
C 264.106737 142.094576 264.633569 143.366459 265.571203 144.304094 
C 266.508838 145.241729 267.780722 145.76856 269.106737 145.76856 
z
" clip-path="url(#pcfde470636)" style="stroke: #ffffff; stroke-width: 0.8"/>
    <path d="M 131.056636 113.490471 
C 132.382652 113.490471 133.654536 112.96364 134.59217 112.026005 
C 135.529805 111.088371 136.056636 109.816487 136.056636 108.490471 
C 136.056636 107.164456 135.529805 105.892572 134.59217 104.954938 
C 133.654536 104.017303 132.382652 103.490471 131.056636 103.490471 
C 129.730621 103.490471 128.458737 104.017303 127.521102 104.954938 
C 126.583468 105.892572 126.056636 107.164456 126.056636 108.490471 
C 126.056636 109.816487 126.583468 111.088371 127.521102 112.026005 
C 128.458737 112.96364 129.730621 113.490471 131.056636 113.490471 
z
" clip-path="url(#pcfde470636)" style="stroke: #ffffff; stroke-width: 0.8"/>
    <path d="M 338.131788 110.806087 
C 339.457803 110.806087 340.729687 110.279255 341.667322 109.341621 
C 342.604956 108.403986 343.131788 107.132102 343.131788 105.806087 
C 343.131788 104.480071 342.604956 103.208187 341.667322 102.270553 
C 340.729687 101.332918 339.457803 100.806087 338.131788 100.806087 
C 336.805772 100.806087 335.533889 101.332918 334.596254 102.270553 
C 333.658619 103.208187 333.131788 104.480071 333.131788 105.806087 
C 333.131788 107.132102 333.658619 108.403986 334.596254 109.341621 
C 335.533889 110.279255 336.805772 110.806087 338.131788 110.806087 
z
" clip-path="url(#pcfde470636)" style="fill: #808080; stroke: #ffffff; stroke-width: 0.8"/>
    <path d="M 165.569162 215.860165 
C 166.895177 215.860165 168.167061 215.333333 169.104696 214.395699 
C 170.04233 213.458064 170.569162 212.18618 170.569162 210.860165 
C 170.569162 209.534149 170.04233 208.262265 169.104696 207.324631 
C 168.167061 206.386996 166.895177 205.860165 165.569162 205.860165 
C 164.243146 205.860165 162.971262 206.386996 162.033628 207.324631 
C 161.095993 208.262265 160.569162 209.534149 160.569162 210.860165 
C 160.569162 212.18618 161.095993 213.458064 162.033628 214.395699 
C 162.971262 215.333333 164.243146 215.860165 165.569162 215.860165 
z
" clip-path="url(#pcfde470636)" style="fill: #808080; stroke: #ffffff; stroke-width: 0.8"/>
    <path d="M 200.081687 126.977868 
C 201.407702 126.977868 202.679586 126.451036 203.617221 125.513401 
C 204.554855 124.575767 205.081687 123.303883 205.081687 121.977868 
C 205.081687 120.651852 204.554855 119.379968 203.617221 118.442334 
C 202.679586 117.504699 201.407702 116.977868 200.081687 116.977868 
C 198.755671 116.977868 197.483788 117.504699 196.546153 118.442334 
C 195.608518 119.379968 195.081687 120.651852 195.081687 121.977868 
C 195.081687 123.303883 195.608518 124.575767 196.546153 125.513401 
C 197.483788 126.451036 198.755671 126.977868 200.081687 126.977868 
z
" clip-path="url(#pcfde470636)" style="stroke: #ffffff; stroke-width: 0.8"/>
    <path d="M 165.569162 139.786727 
C 166.895177 139.786727 168.167061 139.259896 169.104696 138.322261 
C 170.04233 137.384627 170.569162 136.112743 170.569162 134.786727 
C 170.569162 133.460712 170.04233 132.188828 169.104696 131.251193 
C 168.167061 130.313559 166.895177 129.786727 165.569162 129.786727 
C 164.243146 129.786727 162.971262 130.313559 162.033628 131.251193 
C 161.095993 132.188828 160.569162 133.460712 160.569162 134.786727 
C 160.569162 136.112743 161.095993 137.384627 162.033628 138.322261 
C 162.971262 139.259896 164.243146 139.786727 165.569162 139.786727 
z
" clip-path="url(#pcfde470636)" style="stroke: #ffffff; stroke-width: 0.8"/>
    <path d="M 165.569162 160.797543 
C 166.895177 160.797543 168.167061 160.270711 169.104696 159.333077 
C 170.04233 158.395442 170.569162 157.123558 170.569162 155.797543 
C 170.569162 154.471527 170.04233 153.199644 169.104696 152.262009 
C 168.167061 151.324374 166.895177 150.797543 165.569162 150.797543 
C 164.243146 150.797543 162.971262 151.324374 162.033628 152.262009 
C 161.095993 153.199644 160.569162 154.471527 160.569162 155.797543 
C 160.569162 157.123558 161.095993 158.395442 162.033628 159.333077 
C 162.971262 160.270711 164.243146 160.797543 165.569162 160.797543 
z
" clip-path="url(#pcfde470636)" style="stroke: #ffffff; stroke-width: 0.8"/>
    <path d="M 441.669364 144.667427 
C 442.995379 144.667427 444.267263 144.140595 445.204898 143.202961 
C 446.142532 142.265326 446.669364 140.993442 446.669364 139.667427 
C 446.669364 138.341411 446.142532 137.069527 445.204898 136.131893 
C 444.267263 135.194258 442.995379 134.667427 441.669364 134.667427 
C 440.343348 134.667427 439.071464 135.194258 438.13383 136.131893 
C 437.196195 137.069527 436.669364 138.341411 436.669364 139.667427 
C 436.669364 140.993442 437.196195 142.265326 438.13383 143.202961 
C 439.071464 144.140595 440.343348 144.667427 441.669364 144.667427 
z
" clip-path="url(#pcfde470636)" style="fill: #808080; stroke: #ffffff; stroke-width: 0.8"/>
   </g>
   <g id="line2d_1"/>
   <g id="line2d_2"/>
   <g id="line2d_3">
    <path d="M 131.056636 121.152625 
L 133.845527 121.551103 
L 136.634418 121.949581 
L 139.423309 122.34806 
L 142.2122 122.746538 
L 145.001091 123.145016 
L 147.789982 123.543494 
L 150.578873 123.941973 
L 153.367764 124.340451 
L 156.156655 124.738929 
L 158.945546 125.137408 
L 161.734437 125.535886 
L 164.523328 125.934364 
L 167.312218 126.332842 
L 170.101109 126.731321 
L 172.89 127.129799 
L 175.678891 127.528277 
L 178.467782 127.926755 
L 181.256673 128.325234 
L 184.045564 128.723712 
L 186.834455 129.12219 
L 189.623346 129.520668 
L 192.412237 129.919147 
L 195.201128 130.317625 
L 197.990019 130.716103 
L 200.77891 131.114581 
L 203.567801 131.51306 
L 206.356691 131.911538 
L 209.145582 132.310016 
L 211.934473 132.708495 
L 214.723364 133.106973 
L 217.512255 133.505451 
L 220.301146 133.903929 
L 223.090037 134.302408 
L 225.878928 134.700886 
L 228.667819 135.099364 
L 231.45671 135.497842 
L 234.245601 135.896321 
L 237.034492 136.294799 
L 239.823383 136.693277 
L 242.612274 137.091755 
L 245.401164 137.490234 
L 248.190055 137.888712 
L 250.978946 138.28719 
L 253.767837 138.685669 
L 256.556728 139.084147 
L 259.345619 139.482625 
L 262.13451 139.881103 
L 264.923401 140.279582 
L 267.712292 140.67806 
L 270.501183 141.076538 
L 273.290074 141.475016 
L 276.078965 141.873495 
L 278.867856 142.271973 
L 281.656747 142.670451 
L 284.445637 143.068929 
L 287.234528 143.467408 
L 290.023419 143.865886 
L 292.81231 144.264364 
L 295.601201 144.662843 
L 298.390092 145.061321 
L 301.178983 145.459799 
L 303.967874 145.858277 
L 306.756765 146.256756 
L 309.545656 146.655234 
L 312.334547 147.053712 
L 315.123438 147.45219 
L 317.912329 147.850669 
L 320.70122 148.249147 
L 323.49011 148.647625 
L 326.279001 149.046103 
L 329.067892 149.444582 
L 331.856783 149.84306 
L 334.645674 150.241538 
L 337.434565 150.640016 
L 340.223456 151.038495 
L 343.012347 151.436973 
L 345.801238 151.835451 
L 348.590129 152.23393 
L 351.37902 152.632408 
L 354.167911 153.030886 
L 356.956802 153.429364 
L 359.745693 153.827843 
L 362.534584 154.226321 
L 365.323474 154.624799 
L 368.112365 155.023277 
L 370.901256 155.421756 
L 373.690147 155.820234 
L 376.479038 156.218712 
L 379.267929 156.61719 
L 382.05682 157.015669 
L 384.845711 157.414147 
L 387.634602 157.812625 
L 390.423493 158.211104 
L 393.212384 158.609582 
L 396.001275 159.00806 
L 398.790166 159.406538 
L 401.579057 159.805017 
L 404.367947 160.203495 
L 407.156838 160.601973 
" clip-path="url(#pcfde470636)" style="fill: none; stroke: #000000; stroke-width: 2; stroke-linecap: round"/>
   </g>
   <g id="line2d_4">
    <path d="M 165.569162 169.533603 
L 168.358053 168.99308 
L 171.146943 168.452556 
L 173.935834 167.912033 
L 176.724725 167.37151 
L 179.513616 166.830986 
L 182.302507 166.290463 
L 185.091398 165.74994 
L 187.880289 165.209416 
L 190.66918 164.668893 
L 193.458071 164.128369 
L 196.246962 163.587846 
L 199.035853 163.047323 
L 201.824744 162.506799 
L 204.613635 161.966276 
L 207.402526 161.425753 
L 210.191416 160.885229 
L 212.980307 160.344706 
L 215.769198 159.804183 
L 218.558089 159.263659 
L 221.34698 158.723136 
L 224.135871 158.182613 
L 226.924762 157.642089 
L 229.713653 157.101566 
L 232.502544 156.561042 
L 235.291435 156.020519 
L 238.080326 155.479996 
L 240.869217 154.939472 
L 243.658108 154.398949 
L 246.446999 153.858426 
L 249.23589 153.317902 
L 252.02478 152.777379 
L 254.813671 152.236856 
L 257.602562 151.696332 
L 260.391453 151.155809 
L 263.180344 150.615286 
L 265.969235 150.074762 
L 268.758126 149.534239 
L 271.547017 148.993716 
L 274.335908 148.453192 
L 277.124799 147.912669 
L 279.91369 147.372145 
L 282.702581 146.831622 
L 285.491472 146.291099 
L 288.280363 145.750575 
L 291.069253 145.210052 
L 293.858144 144.669529 
L 296.647035 144.129005 
L 299.435926 143.588482 
L 302.224817 143.047959 
L 305.013708 142.507435 
L 307.802599 141.966912 
L 310.59149 141.426389 
L 313.380381 140.885865 
L 316.169272 140.345342 
L 318.958163 139.804818 
L 321.747054 139.264295 
L 324.535945 138.723772 
L 327.324836 138.183248 
L 330.113726 137.642725 
L 332.902617 137.102202 
L 335.691508 136.561678 
L 338.480399 136.021155 
L 341.26929 135.480632 
L 344.058181 134.940108 
L 346.847072 134.399585 
L 349.635963 133.859062 
L 352.424854 133.318538 
L 355.213745 132.778015 
L 358.002636 132.237492 
L 360.791527 131.696968 
L 363.580418 131.156445 
L 366.369309 130.615921 
L 369.158199 130.075398 
L 371.94709 129.534875 
L 374.735981 128.994351 
L 377.524872 128.453828 
L 380.313763 127.913305 
L 383.102654 127.372781 
L 385.891545 126.832258 
L 388.680436 126.291735 
L 391.469327 125.751211 
L 394.258218 125.210688 
L 397.047109 124.670165 
L 399.836 124.129641 
L 402.624891 123.589118 
L 405.413782 123.048595 
L 408.202672 122.508071 
L 410.991563 121.967548 
L 413.780454 121.427024 
L 416.569345 120.886501 
L 419.358236 120.345978 
L 422.147127 119.805454 
L 424.936018 119.264931 
L 427.724909 118.724408 
L 430.5138 118.183884 
L 433.302691 117.643361 
L 436.091582 117.102838 
L 438.880473 116.562314 
L 441.669364 116.021791 
" clip-path="url(#pcfde470636)" style="fill: none; stroke: #808080; stroke-width: 2; stroke-linecap: round"/>
   </g>
   <g id="patch_3">
    <path d="M 115.526 369.0475 
L 115.526 10.8 
" style="fill: none; stroke: #000000; stroke-linejoin: miter; stroke-linecap: square"/>
   </g>
   <g id="patch_4">
    <path d="M 115.526 369.0475 
L 457.2 369.0475 
" style="fill: none; stroke: #000000; stroke-linejoin: miter; stroke-linecap: square"/>
   </g>
   <g id="legend_1">
    <g id="patch_5">
     <path d="M 126.726 361.0475 
L 208.1735 361.0475 
Q 211.3735 361.0475 211.3735 357.8475 
L 211.3735 287.704375 
Q 211.3735 284.504375 208.1735 284.504375 
L 126.726 284.504375 
Q 123.526 284.504375 123.526 287.704375 
L 123.526 357.8475 
Q 123.526 361.0475 126.726 361.0475 
z
" style="fill: #ffffff; opacity: 0.8; stroke: #cccccc; stroke-linejoin: miter"/>
    </g>
    <g id="text_14">
     <!-- TEPSa -->
     <g style="fill: #262626" transform="translate(135.770063 305.22) scale(0.2 -0.2)">
      <defs>
       <path id="ArialMT-54" d="M 1659 0 
L 1659 4041 
L 150 4041 
L 150 4581 
L 3781 4581 
L 3781 4041 
L 2266 4041 
L 2266 0 
L 1659 0 
z
" transform="scale(0.015625)"/>
       <path id="ArialMT-45" d="M 506 0 
L 506 4581 
L 3819 4581 
L 3819 4041 
L 1113 4041 
L 1113 2638 
L 3647 2638 
L 3647 2100 
L 1113 2100 
L 1113 541 
L 3925 541 
L 3925 0 
L 506 0 
z
" transform="scale(0.015625)"/>
       <path id="ArialMT-50" d="M 494 0 
L 494 4581 
L 2222 4581 
Q 2678 4581 2919 4538 
Q 3256 4481 3484 4323 
Q 3713 4166 3852 3881 
Q 3991 3597 3991 3256 
Q 3991 2672 3619 2267 
Q 3247 1863 2275 1863 
L 1100 1863 
L 1100 0 
L 494 0 
z
M 1100 2403 
L 2284 2403 
Q 2872 2403 3119 2622 
Q 3366 2841 3366 3238 
Q 3366 3525 3220 3729 
Q 3075 3934 2838 4000 
Q 2684 4041 2272 4041 
L 1100 4041 
L 1100 2403 
z
" transform="scale(0.015625)"/>
      </defs>
      <use xlink:href="#ArialMT-54"/>
      <use xlink:href="#ArialMT-45" x="61.083984"/>
      <use xlink:href="#ArialMT-50" x="127.783203"/>
      <use xlink:href="#ArialMT-53" x="194.482422"/>
      <use xlink:href="#ArialMT-61" x="261.181641"/>
     </g>
    </g>
    <g id="line2d_5">
     <defs>
      <path id="m00917203c4" d="M 0 5 
C 1.326016 5 2.597899 4.473168 3.535534 3.535534 
C 4.473168 2.597899 5 1.326016 5 0 
C 5 -1.326016 4.473168 -2.597899 3.535534 -3.535534 
C 2.597899 -4.473168 1.326016 -5 0 -5 
C -1.326016 -5 -2.597899 -4.473168 -3.535534 -3.535534 
C -4.473168 -2.597899 -5 -1.326016 -5 0 
C -5 1.326016 -4.473168 2.597899 -3.535534 3.535534 
C -2.597899 4.473168 -1.326016 5 0 5 
z
" style="stroke: #ffffff; stroke-width: 0.8"/>
     </defs>
     <g>
      <use xlink:href="#m00917203c4" x="145.926" y="323.0475" style="stroke: #ffffff; stroke-width: 0.8"/>
     </g>
    </g>
    <g id="text_15">
     <!-- low -->
     <g style="fill: #262626" transform="translate(174.726 328.6475) scale(0.16 -0.16)">
      <use xlink:href="#ArialMT-6c"/>
      <use xlink:href="#ArialMT-6f" x="22.216797"/>
      <use xlink:href="#ArialMT-77" x="77.832031"/>
     </g>
    </g>
    <g id="line2d_6">
     <defs>
      <path id="mf802003d8a" d="M 0 5 
C 1.326016 5 2.597899 4.473168 3.535534 3.535534 
C 4.473168 2.597899 5 1.326016 5 0 
C 5 -1.326016 4.473168 -2.597899 3.535534 -3.535534 
C 2.597899 -4.473168 1.326016 -5 0 -5 
C -1.326016 -5 -2.597899 -4.473168 -3.535534 -3.535534 
C -4.473168 -2.597899 -5 -1.326016 -5 0 
C -5 1.326016 -4.473168 2.597899 -3.535534 3.535534 
C -2.597899 4.473168 -1.326016 5 0 5 
z
" style="stroke: #ffffff; stroke-width: 0.8"/>
     </defs>
     <g>
      <use xlink:href="#mf802003d8a" x="145.926" y="345.68" style="fill: #808080; stroke: #ffffff; stroke-width: 0.8"/>
     </g>
    </g>
    <g id="text_16">
     <!-- high -->
     <g style="fill: #262626" transform="translate(174.726 351.28) scale(0.16 -0.16)">
      <defs>
       <path id="ArialMT-67" d="M 319 -275 
L 866 -356 
Q 900 -609 1056 -725 
Q 1266 -881 1628 -881 
Q 2019 -881 2231 -725 
Q 2444 -569 2519 -288 
Q 2563 -116 2559 434 
Q 2191 0 1641 0 
Q 956 0 581 494 
Q 206 988 206 1678 
Q 206 2153 378 2554 
Q 550 2956 876 3175 
Q 1203 3394 1644 3394 
Q 2231 3394 2613 2919 
L 2613 3319 
L 3131 3319 
L 3131 450 
Q 3131 -325 2973 -648 
Q 2816 -972 2473 -1159 
Q 2131 -1347 1631 -1347 
Q 1038 -1347 672 -1080 
Q 306 -813 319 -275 
z
M 784 1719 
Q 784 1066 1043 766 
Q 1303 466 1694 466 
Q 2081 466 2343 764 
Q 2606 1063 2606 1700 
Q 2606 2309 2336 2618 
Q 2066 2928 1684 2928 
Q 1309 2928 1046 2623 
Q 784 2319 784 1719 
z
" transform="scale(0.015625)"/>
      </defs>
      <use xlink:href="#ArialMT-68"/>
      <use xlink:href="#ArialMT-69" x="55.615234"/>
      <use xlink:href="#ArialMT-67" x="77.832031"/>
      <use xlink:href="#ArialMT-68" x="133.447266"/>
     </g>
    </g>
   </g>
  </g>
 </g>
 <defs>
  <clipPath id="pcfde470636">
   <rect x="115.526" y="10.8" width="341.674" height="358.2475"/>
  </clipPath>
 </defs>
</svg>
