<?xml version="1.0" encoding="utf-8" standalone="no"?>
<!DOCTYPE svg PUBLIC "-//W3C//DTD SVG 1.1//EN"
  "http://www.w3.org/Graphics/SVG/1.1/DTD/svg11.dtd">
<svg xmlns:xlink="http://www.w3.org/1999/xlink" width="576pt" height="504pt" viewBox="0 0 576 504" xmlns="http://www.w3.org/2000/svg" version="1.1">
 <metadata>
  <rdf:RDF xmlns:dc="http://purl.org/dc/elements/1.1/" xmlns:cc="http://creativecommons.org/ns#" xmlns:rdf="http://www.w3.org/1999/02/22-rdf-syntax-ns#">
   <cc:Work>
    <dc:type rdf:resource="http://purl.org/dc/dcmitype/StillImage"/>
    <dc:date>2025-04-30T14:44:21.462217</dc:date>
    <dc:format>image/svg+xml</dc:format>
    <dc:creator>
     <cc:Agent>
      <dc:title>Matplotlib v3.9.2, https://matplotlib.org/</dc:title>
     </cc:Agent>
    </dc:creator>
   </cc:Work>
  </rdf:RDF>
 </metadata>
 <defs>
  <style type="text/css">*{stroke-linejoin: round; stroke-linecap: butt}</style>
 </defs>
 <g id="figure_1">
  <g id="patch_1">
   <path d="M 0 504 
L 576 504 
L 576 0 
L 0 0 
z
" style="fill: #ffffff"/>
  </g>
  <g id="axes_1">
   <g id="patch_2">
    <path d="M 124.994 438.28 
L 565.2 438.28 
L 565.2 16.815486 
L 124.994 16.815486 
z
" style="fill: #ffffff"/>
   </g>
   <g id="PathCollection_1">
    <path d="M 145.003364 189.276987 
C 146.189388 189.276987 147.326995 188.805774 148.165641 187.967129 
C 149.004287 187.128483 149.4755 185.990875 149.4755 184.804851 
C 149.4755 183.618827 149.004287 182.481219 148.165641 181.642573 
C 147.326995 180.803927 146.189388 180.332715 145.003364 180.332715 
C 143.817339 180.332715 142.679732 180.803927 141.841086 181.642573 
C 141.00244 182.481219 140.531228 183.618827 140.531228 184.804851 
C 140.531228 185.990875 141.00244 187.128483 141.841086 187.967129 
C 142.679732 188.805774 143.817339 189.276987 145.003364 189.276987 
z
" clip-path="url(#p9db4f0b5e5)" style="fill: #1f77b4; fill-opacity: 0.7; stroke: #ffffff; stroke-opacity: 0.7; stroke-width: 0.715542"/>
    <path d="M 191.676852 174.963538 
C 192.862876 174.963538 194.000484 174.492326 194.83913 173.65368 
C 195.677776 172.815034 196.148988 171.677427 196.148988 170.491403 
C 196.148988 169.305378 195.677776 168.167771 194.83913 167.329125 
C 194.000484 166.490479 192.862876 166.019267 191.676852 166.019267 
C 190.490828 166.019267 189.35322 166.490479 188.514575 167.329125 
C 187.675929 168.167771 187.204716 169.305378 187.204716 170.491403 
C 187.204716 171.677427 187.675929 172.815034 188.514575 173.65368 
C 189.35322 174.492326 190.490828 174.963538 191.676852 174.963538 
z
" clip-path="url(#p9db4f0b5e5)" style="fill: #1f77b4; fill-opacity: 0.7; stroke: #ffffff; stroke-opacity: 0.7; stroke-width: 0.715542"/>
    <path d="M 527.325335 125.710418 
C 528.511359 125.710418 529.648967 125.239206 530.487613 124.40056 
C 531.326258 123.561914 531.797471 122.424306 531.797471 121.238282 
C 531.797471 120.052258 531.326258 118.91465 530.487613 118.076004 
C 529.648967 117.237359 528.511359 116.766146 527.325335 116.766146 
C 526.139311 116.766146 525.001703 117.237359 524.163057 118.076004 
C 523.324411 118.91465 522.853199 120.052258 522.853199 121.238282 
C 522.853199 122.424306 523.324411 123.561914 524.163057 124.40056 
C 525.001703 125.239206 526.139311 125.710418 527.325335 125.710418 
z
" clip-path="url(#p9db4f0b5e5)" style="fill: #ff7f0e; fill-opacity: 0.7; stroke: #ffffff; stroke-opacity: 0.7; stroke-width: 0.715542"/>
    <path d="M 431.521561 157.935721 
C 432.707585 157.935721 433.845193 157.464509 434.683839 156.625863 
C 435.522485 155.787217 435.993697 154.64961 435.993697 153.463585 
C 435.993697 152.277561 435.522485 151.139953 434.683839 150.301308 
C 433.845193 149.462662 432.707585 148.991449 431.521561 148.991449 
C 430.335537 148.991449 429.197929 149.462662 428.359283 150.301308 
C 427.520638 151.139953 427.049425 152.277561 427.049425 153.463585 
C 427.049425 154.64961 427.520638 155.787217 428.359283 156.625863 
C 429.197929 157.464509 430.335537 157.935721 431.521561 157.935721 
z
" clip-path="url(#p9db4f0b5e5)" style="fill: #ff7f0e; fill-opacity: 0.7; stroke: #ffffff; stroke-opacity: 0.7; stroke-width: 0.715542"/>
    <path d="M 481.54497 236.887691 
C 482.730995 236.887691 483.868602 236.416478 484.707248 235.577832 
C 485.545894 234.739186 486.017106 233.601579 486.017106 232.415555 
C 486.017106 231.22953 485.545894 230.091923 484.707248 229.253277 
C 483.868602 228.414631 482.730995 227.943419 481.54497 227.943419 
C 480.358946 227.943419 479.221338 228.414631 478.382693 229.253277 
C 477.544047 230.091923 477.072834 231.22953 477.072834 232.415555 
C 477.072834 233.601579 477.544047 234.739186 478.382693 235.577832 
C 479.221338 236.416478 480.358946 236.887691 481.54497 236.887691 
z
" clip-path="url(#p9db4f0b5e5)" style="fill: #1f77b4; fill-opacity: 0.7; stroke: #ffffff; stroke-opacity: 0.7; stroke-width: 0.715542"/>
    <path d="M 403.606498 117.562414 
C 404.792522 117.562414 405.93013 117.091202 406.768776 116.252556 
C 407.607421 115.41391 408.078634 114.276302 408.078634 113.090278 
C 408.078634 111.904254 407.607421 110.766646 406.768776 109.928001 
C 405.93013 109.089355 404.792522 108.618142 403.606498 108.618142 
C 402.420474 108.618142 401.282866 109.089355 400.44422 109.928001 
C 399.605574 110.766646 399.134362 111.904254 399.134362 113.090278 
C 399.134362 114.276302 399.605574 115.41391 400.44422 116.252556 
C 401.282866 117.091202 402.420474 117.562414 403.606498 117.562414 
z
" clip-path="url(#p9db4f0b5e5)" style="fill: #1f77b4; fill-opacity: 0.7; stroke: #ffffff; stroke-opacity: 0.7; stroke-width: 0.715542"/>
    <path d="M 435.764606 185.744692 
C 436.95063 185.744692 438.088237 185.273479 438.926883 184.434833 
C 439.765529 183.596188 440.236741 182.45858 440.236741 181.272556 
C 440.236741 180.086531 439.765529 178.948924 438.926883 178.110278 
C 438.088237 177.271632 436.95063 176.80042 435.764606 176.80042 
C 434.578581 176.80042 433.440974 177.271632 432.602328 178.110278 
C 431.763682 178.948924 431.29247 180.086531 431.29247 181.272556 
C 431.29247 182.45858 431.763682 183.596188 432.602328 184.434833 
C 433.440974 185.273479 434.578581 185.744692 435.764606 185.744692 
z
" clip-path="url(#p9db4f0b5e5)" style="fill: #ff7f0e; fill-opacity: 0.7; stroke: #ffffff; stroke-opacity: 0.7; stroke-width: 0.715542"/>
    <path d="M 386.63432 217.176711 
C 387.820345 217.176711 388.957952 216.705498 389.796598 215.866852 
C 390.635244 215.028207 391.106456 213.890599 391.106456 212.704575 
C 391.106456 211.51855 390.635244 210.380943 389.796598 209.542297 
C 388.957952 208.703651 387.820345 208.232439 386.63432 208.232439 
C 385.448296 208.232439 384.310688 208.703651 383.472043 209.542297 
C 382.633397 210.380943 382.162184 211.51855 382.162184 212.704575 
C 382.162184 213.890599 382.633397 215.028207 383.472043 215.866852 
C 384.310688 216.705498 385.448296 217.176711 386.63432 217.176711 
z
" clip-path="url(#p9db4f0b5e5)" style="fill: #1f77b4; fill-opacity: 0.7; stroke: #ffffff; stroke-opacity: 0.7; stroke-width: 0.715542"/>
    <path d="M 403.606498 131.648093 
C 404.792522 131.648093 405.93013 131.176881 406.768776 130.338235 
C 407.607421 129.499589 408.078634 128.361982 408.078634 127.175958 
C 408.078634 125.989933 407.607421 124.852326 406.768776 124.01368 
C 405.93013 123.175034 404.792522 122.703822 403.606498 122.703822 
C 402.420474 122.703822 401.282866 123.175034 400.44422 124.01368 
C 399.605574 124.852326 399.134362 125.989933 399.134362 127.175958 
C 399.134362 128.361982 399.605574 129.499589 400.44422 130.338235 
C 401.282866 131.176881 402.420474 131.648093 403.606498 131.648093 
z
" clip-path="url(#p9db4f0b5e5)" style="fill: #1f77b4; fill-opacity: 0.7; stroke: #ffffff; stroke-opacity: 0.7; stroke-width: 0.715542"/>
    <path d="M 220.485039 174.180153 
C 221.671064 174.180153 222.808671 173.70894 223.647317 172.870294 
C 224.485963 172.031649 224.957175 170.894041 224.957175 169.708017 
C 224.957175 168.521992 224.485963 167.384385 223.647317 166.545739 
C 222.808671 165.707093 221.671064 165.235881 220.485039 165.235881 
C 219.299015 165.235881 218.161407 165.707093 217.322762 166.545739 
C 216.484116 167.384385 216.012903 168.521992 216.012903 169.708017 
C 216.012903 170.894041 216.484116 172.031649 217.322762 172.870294 
C 218.161407 173.70894 219.299015 174.180153 220.485039 174.180153 
z
" clip-path="url(#p9db4f0b5e5)" style="fill: #1f77b4; fill-opacity: 0.7; stroke: #ffffff; stroke-opacity: 0.7; stroke-width: 0.715542"/>
    <path d="M 356.933009 252.922222 
C 358.119034 252.922222 359.256641 252.45101 360.095287 251.612364 
C 360.933933 250.773718 361.405145 249.636111 361.405145 248.450087 
C 361.405145 247.264062 360.933933 246.126455 360.095287 245.287809 
C 359.256641 244.449163 358.119034 243.977951 356.933009 243.977951 
C 355.746985 243.977951 354.609378 244.449163 353.770732 245.287809 
C 352.932086 246.126455 352.460873 247.264062 352.460873 248.450087 
C 352.460873 249.636111 352.932086 250.773718 353.770732 251.612364 
C 354.609378 252.45101 355.746985 252.922222 356.933009 252.922222 
z
" clip-path="url(#p9db4f0b5e5)" style="fill: #ff7f0e; fill-opacity: 0.7; stroke: #ffffff; stroke-opacity: 0.7; stroke-width: 0.715542"/>
    <path d="M 315.395689 40.4451 
C 316.581713 40.4451 317.719321 39.973888 318.557967 39.135242 
C 319.396613 38.296596 319.867825 37.158989 319.867825 35.972964 
C 319.867825 34.78694 319.396613 33.649332 318.557967 32.810687 
C 317.719321 31.972041 316.581713 31.500828 315.395689 31.500828 
C 314.209665 31.500828 313.072057 31.972041 312.233411 32.810687 
C 311.394766 33.649332 310.923553 34.78694 310.923553 35.972964 
C 310.923553 37.158989 311.394766 38.296596 312.233411 39.135242 
C 313.072057 39.973888 314.209665 40.4451 315.395689 40.4451 
z
" clip-path="url(#p9db4f0b5e5)" style="fill: #1f77b4; fill-opacity: 0.7; stroke: #ffffff; stroke-opacity: 0.7; stroke-width: 0.715542"/>
    <path d="M 460.329748 161.77216 
C 461.515772 161.77216 462.65338 161.300947 463.492026 160.462302 
C 464.330672 159.623656 464.801884 158.486048 464.801884 157.300024 
C 464.801884 156.114 464.330672 154.976392 463.492026 154.137746 
C 462.65338 153.2991 461.515772 152.827888 460.329748 152.827888 
C 459.143724 152.827888 458.006116 153.2991 457.16747 154.137746 
C 456.328825 154.976392 455.857612 156.114 455.857612 157.300024 
C 455.857612 158.486048 456.328825 159.623656 457.16747 160.462302 
C 458.006116 161.300947 459.143724 161.77216 460.329748 161.77216 
z
" clip-path="url(#p9db4f0b5e5)" style="fill: #ff7f0e; fill-opacity: 0.7; stroke: #ffffff; stroke-opacity: 0.7; stroke-width: 0.715542"/>
    <path d="M 535.811424 121.914459 
C 536.997448 121.914459 538.135056 121.443246 538.973701 120.604601 
C 539.812347 119.765955 540.28356 118.628347 540.28356 117.442323 
C 540.28356 116.256299 539.812347 115.118691 538.973701 114.280045 
C 538.135056 113.441399 536.997448 112.970187 535.811424 112.970187 
C 534.625399 112.970187 533.487792 113.441399 532.649146 114.280045 
C 531.8105 115.118691 531.339288 116.256299 531.339288 117.442323 
C 531.339288 118.628347 531.8105 119.765955 532.649146 120.604601 
C 533.487792 121.443246 534.625399 121.914459 535.811424 121.914459 
z
" clip-path="url(#p9db4f0b5e5)" style="fill: #ff7f0e; fill-opacity: 0.7; stroke: #ffffff; stroke-opacity: 0.7; stroke-width: 0.715542"/>
    <path d="M 536.704548 334.299994 
C 537.890572 334.299994 539.028179 333.828782 539.866825 332.990136 
C 540.705471 332.15149 541.176683 331.013883 541.176683 329.827858 
C 541.176683 328.641834 540.705471 327.504227 539.866825 326.665581 
C 539.028179 325.826935 537.890572 325.355722 536.704548 325.355722 
C 535.518523 325.355722 534.380916 325.826935 533.54227 326.665581 
C 532.703624 327.504227 532.232412 328.641834 532.232412 329.827858 
C 532.232412 331.013883 532.703624 332.15149 533.54227 332.990136 
C 534.380916 333.828782 535.518523 334.299994 536.704548 334.299994 
z
" clip-path="url(#p9db4f0b5e5)" style="fill: #1f77b4; fill-opacity: 0.7; stroke: #ffffff; stroke-opacity: 0.7; stroke-width: 0.715542"/>
    <path d="M 228.078004 182.812713 
C 229.264028 182.812713 230.401636 182.3415 231.240282 181.502854 
C 232.078928 180.664209 232.55014 179.526601 232.55014 178.340577 
C 232.55014 177.154552 232.078928 176.016945 231.240282 175.178299 
C 230.401636 174.339653 229.264028 173.868441 228.078004 173.868441 
C 226.89198 173.868441 225.754372 174.339653 224.915727 175.178299 
C 224.077081 176.016945 223.605868 177.154552 223.605868 178.340577 
C 223.605868 179.526601 224.077081 180.664209 224.915727 181.502854 
C 225.754372 182.3415 226.89198 182.812713 228.078004 182.812713 
z
" clip-path="url(#p9db4f0b5e5)" style="fill: #ff7f0e; fill-opacity: 0.7; stroke: #ffffff; stroke-opacity: 0.7; stroke-width: 0.715542"/>
    <path d="M 540.054468 146.869753 
C 541.240492 146.869753 542.3781 146.39854 543.216746 145.559894 
C 544.055392 144.721248 544.526604 143.583641 544.526604 142.397617 
C 544.526604 141.211592 544.055392 140.073985 543.216746 139.235339 
C 542.3781 138.396693 541.240492 137.925481 540.054468 137.925481 
C 538.868444 137.925481 537.730836 138.396693 536.89219 139.235339 
C 536.053545 140.073985 535.582332 141.211592 535.582332 142.397617 
C 535.582332 143.583641 536.053545 144.721248 536.89219 145.559894 
C 537.730836 146.39854 538.868444 146.869753 540.054468 146.869753 
z
" clip-path="url(#p9db4f0b5e5)" style="fill: #ff7f0e; fill-opacity: 0.7; stroke: #ffffff; stroke-opacity: 0.7; stroke-width: 0.715542"/>
    <path d="M 253.536271 50.16967 
C 254.722295 50.16967 255.859902 49.698457 256.698548 48.859812 
C 257.537194 48.021166 258.008407 46.883558 258.008407 45.697534 
C 258.008407 44.51151 257.537194 43.373902 256.698548 42.535256 
C 255.859902 41.69661 254.722295 41.225398 253.536271 41.225398 
C 252.350246 41.225398 251.212639 41.69661 250.373993 42.535256 
C 249.535347 43.373902 249.064135 44.51151 249.064135 45.697534 
C 249.064135 46.883558 249.535347 48.021166 250.373993 48.859812 
C 251.212639 49.698457 252.350246 50.16967 253.536271 50.16967 
z
" clip-path="url(#p9db4f0b5e5)" style="fill: #ff7f0e; fill-opacity: 0.7; stroke: #ffffff; stroke-opacity: 0.7; stroke-width: 0.715542"/>
    <path d="M 307.802724 254.947449 
C 308.988748 254.947449 310.126356 254.476237 310.965002 253.637591 
C 311.803648 252.798945 312.27486 251.661338 312.27486 250.475313 
C 312.27486 249.289289 311.803648 248.151682 310.965002 247.313036 
C 310.126356 246.47439 308.988748 246.003178 307.802724 246.003178 
C 306.6167 246.003178 305.479092 246.47439 304.640446 247.313036 
C 303.801801 248.151682 303.330588 249.289289 303.330588 250.475313 
C 303.330588 251.661338 303.801801 252.798945 304.640446 253.637591 
C 305.479092 254.476237 306.6167 254.947449 307.802724 254.947449 
z
" clip-path="url(#p9db4f0b5e5)" style="fill: #ff7f0e; fill-opacity: 0.7; stroke: #ffffff; stroke-opacity: 0.7; stroke-width: 0.715542"/>
    <path d="M 449.386863 423.594658 
C 450.572887 423.594658 451.710494 423.123446 452.54914 422.2848 
C 453.387786 421.446154 453.858999 420.308546 453.858999 419.122522 
C 453.858999 417.936498 453.387786 416.79889 452.54914 415.960244 
C 451.710494 415.121599 450.572887 414.650386 449.386863 414.650386 
C 448.200838 414.650386 447.063231 415.121599 446.224585 415.960244 
C 445.385939 416.79889 444.914727 417.936498 444.914727 419.122522 
C 444.914727 420.308546 445.385939 421.446154 446.224585 422.2848 
C 447.063231 423.123446 448.200838 423.594658 449.386863 423.594658 
z
" clip-path="url(#p9db4f0b5e5)" style="fill: #ff7f0e; fill-opacity: 0.7; stroke: #ffffff; stroke-opacity: 0.7; stroke-width: 0.715542"/>
    <path d="M 468.815837 190.906588 
C 470.001861 190.906588 471.139469 190.435375 471.978115 189.596729 
C 472.81676 188.758083 473.287973 187.620476 473.287973 186.434452 
C 473.287973 185.248427 472.81676 184.11082 471.978115 183.272174 
C 471.139469 182.433528 470.001861 181.962316 468.815837 181.962316 
C 467.629813 181.962316 466.492205 182.433528 465.653559 183.272174 
C 464.814913 184.11082 464.343701 185.248427 464.343701 186.434452 
C 464.343701 187.620476 464.814913 188.758083 465.653559 189.596729 
C 466.492205 190.435375 467.629813 190.906588 468.815837 190.906588 
z
" clip-path="url(#p9db4f0b5e5)" style="fill: #ff7f0e; fill-opacity: 0.7; stroke: #ffffff; stroke-opacity: 0.7; stroke-width: 0.715542"/>
    <path d="M 394.227285 178.975909 
C 395.41331 178.975909 396.550917 178.504697 397.389563 177.666051 
C 398.228209 176.827405 398.699421 175.689798 398.699421 174.503773 
C 398.699421 173.317749 398.228209 172.180142 397.389563 171.341496 
C 396.550917 170.50285 395.41331 170.031638 394.227285 170.031638 
C 393.041261 170.031638 391.903653 170.50285 391.065008 171.341496 
C 390.226362 172.180142 389.755149 173.317749 389.755149 174.503773 
C 389.755149 175.689798 390.226362 176.827405 391.065008 177.666051 
C 391.903653 178.504697 393.041261 178.975909 394.227285 178.975909 
z
" clip-path="url(#p9db4f0b5e5)" style="fill: #ff7f0e; fill-opacity: 0.7; stroke: #ffffff; stroke-opacity: 0.7; stroke-width: 0.715542"/>
    <path d="M 545.190636 92.787533 
C 546.376661 92.787533 547.514268 92.316321 548.352914 91.477675 
C 549.19156 90.639029 549.662772 89.501421 549.662772 88.315397 
C 549.662772 87.129373 549.19156 85.991765 548.352914 85.15312 
C 547.514268 84.314474 546.376661 83.843261 545.190636 83.843261 
C 544.004612 83.843261 542.867005 84.314474 542.028359 85.15312 
C 541.189713 85.991765 540.7185 87.129373 540.7185 88.315397 
C 540.7185 89.501421 541.189713 90.639029 542.028359 91.477675 
C 542.867005 92.316321 544.004612 92.787533 545.190636 92.787533 
z
" clip-path="url(#p9db4f0b5e5)" style="fill: #ff7f0e; fill-opacity: 0.7; stroke: #ffffff; stroke-opacity: 0.7; stroke-width: 0.715542"/>
    <path d="M 190.783728 202.008451 
C 191.969753 202.008451 193.10736 201.537239 193.946006 200.698593 
C 194.784652 199.859947 195.255864 198.72234 195.255864 197.536315 
C 195.255864 196.350291 194.784652 195.212684 193.946006 194.374038 
C 193.10736 193.535392 191.969753 193.064179 190.783728 193.064179 
C 189.597704 193.064179 188.460096 193.535392 187.621451 194.374038 
C 186.782805 195.212684 186.311592 196.350291 186.311592 197.536315 
C 186.311592 198.72234 186.782805 199.859947 187.621451 200.698593 
C 188.460096 201.537239 189.597704 202.008451 190.783728 202.008451 
z
" clip-path="url(#p9db4f0b5e5)" style="fill: #ff7f0e; fill-opacity: 0.7; stroke: #ffffff; stroke-opacity: 0.7; stroke-width: 0.715542"/>
    <path d="M 353.583089 139.663666 
C 354.769113 139.663666 355.906721 139.192454 356.745366 138.353808 
C 357.584012 137.515162 358.055225 136.377555 358.055225 135.19153 
C 358.055225 134.005506 357.584012 132.867898 356.745366 132.029253 
C 355.906721 131.190607 354.769113 130.719394 353.583089 130.719394 
C 352.397065 130.719394 351.259457 131.190607 350.420811 132.029253 
C 349.582165 132.867898 349.110953 134.005506 349.110953 135.19153 
C 349.110953 136.377555 349.582165 137.515162 350.420811 138.353808 
C 351.259457 139.192454 352.397065 139.663666 353.583089 139.663666 
z
" clip-path="url(#p9db4f0b5e5)" style="fill: #1f77b4; fill-opacity: 0.7; stroke: #ffffff; stroke-opacity: 0.7; stroke-width: 0.715542"/>
    <path d="M 448.493739 161.75851 
C 449.679763 161.75851 450.817371 161.287298 451.656016 160.448652 
C 452.494662 159.610006 452.965875 158.472399 452.965875 157.286374 
C 452.965875 156.10035 452.494662 154.962743 451.656016 154.124097 
C 450.817371 153.285451 449.679763 152.814238 448.493739 152.814238 
C 447.307714 152.814238 446.170107 153.285451 445.331461 154.124097 
C 444.492815 154.962743 444.021603 156.10035 444.021603 157.286374 
C 444.021603 158.472399 444.492815 159.610006 445.331461 160.448652 
C 446.170107 161.287298 447.307714 161.75851 448.493739 161.75851 
z
" clip-path="url(#p9db4f0b5e5)" style="fill: #1f77b4; fill-opacity: 0.7; stroke: #ffffff; stroke-opacity: 0.7; stroke-width: 0.715542"/>
    <path d="M 266.265404 96.707588 
C 267.451428 96.707588 268.589036 96.236375 269.427682 95.39773 
C 270.266327 94.559084 270.73754 93.421476 270.73754 92.235452 
C 270.73754 91.049428 270.266327 89.91182 269.427682 89.073174 
C 268.589036 88.234528 267.451428 87.763316 266.265404 87.763316 
C 265.07938 87.763316 263.941772 88.234528 263.103126 89.073174 
C 262.26448 89.91182 261.793268 91.049428 261.793268 92.235452 
C 261.793268 93.421476 262.26448 94.559084 263.103126 95.39773 
C 263.941772 96.236375 265.07938 96.707588 266.265404 96.707588 
z
" clip-path="url(#p9db4f0b5e5)" style="fill: #ff7f0e; fill-opacity: 0.7; stroke: #ffffff; stroke-opacity: 0.7; stroke-width: 0.715542"/>
    <path d="M 427.278517 209.707794 
C 428.464541 209.707794 429.602149 209.236582 430.440794 208.397936 
C 431.27944 207.55929 431.750653 206.421682 431.750653 205.235658 
C 431.750653 204.049634 431.27944 202.912026 430.440794 202.07338 
C 429.602149 201.234735 428.464541 200.763522 427.278517 200.763522 
C 426.092492 200.763522 424.954885 201.234735 424.116239 202.07338 
C 423.277593 202.912026 422.806381 204.049634 422.806381 205.235658 
C 422.806381 206.421682 423.277593 207.55929 424.116239 208.397936 
C 424.954885 209.236582 426.092492 209.707794 427.278517 209.707794 
z
" clip-path="url(#p9db4f0b5e5)" style="fill: #ff7f0e; fill-opacity: 0.7; stroke: #ffffff; stroke-opacity: 0.7; stroke-width: 0.715542"/>
    <path d="M 345.990124 92.315064 
C 347.176148 92.315064 348.313756 91.843851 349.152402 91.005205 
C 349.991047 90.166559 350.46226 89.028952 350.46226 87.842928 
C 350.46226 86.656903 349.991047 85.519296 349.152402 84.68065 
C 348.313756 83.842004 347.176148 83.370792 345.990124 83.370792 
C 344.8041 83.370792 343.666492 83.842004 342.827846 84.68065 
C 341.9892 85.519296 341.517988 86.656903 341.517988 87.842928 
C 341.517988 89.028952 341.9892 90.166559 342.827846 91.005205 
C 343.666492 91.843851 344.8041 92.315064 345.990124 92.315064 
z
" clip-path="url(#p9db4f0b5e5)" style="fill: #1f77b4; fill-opacity: 0.7; stroke: #ffffff; stroke-opacity: 0.7; stroke-width: 0.715542"/>
    <path d="M 191.676852 232.341584 
C 192.862876 232.341584 194.000484 231.870371 194.83913 231.031725 
C 195.677776 230.19308 196.148988 229.055472 196.148988 227.869448 
C 196.148988 226.683423 195.677776 225.545816 194.83913 224.70717 
C 194.000484 223.868524 192.862876 223.397312 191.676852 223.397312 
C 190.490828 223.397312 189.35322 223.868524 188.514575 224.70717 
C 187.675929 225.545816 187.204716 226.683423 187.204716 227.869448 
C 187.204716 229.055472 187.675929 230.19308 188.514575 231.031725 
C 189.35322 231.870371 190.490828 232.341584 191.676852 232.341584 
z
" clip-path="url(#p9db4f0b5e5)" style="fill: #1f77b4; fill-opacity: 0.7; stroke: #ffffff; stroke-opacity: 0.7; stroke-width: 0.715542"/>
    <path d="M 270.508448 155.350189 
C 271.694473 155.350189 272.83208 154.878976 273.670726 154.04033 
C 274.509372 153.201685 274.980584 152.064077 274.980584 150.878053 
C 274.980584 149.692028 274.509372 148.554421 273.670726 147.715775 
C 272.83208 146.877129 271.694473 146.405917 270.508448 146.405917 
C 269.322424 146.405917 268.184816 146.877129 267.346171 147.715775 
C 266.507525 148.554421 266.036312 149.692028 266.036312 150.878053 
C 266.036312 152.064077 266.507525 153.201685 267.346171 154.04033 
C 268.184816 154.878976 269.322424 155.350189 270.508448 155.350189 
z
" clip-path="url(#p9db4f0b5e5)" style="fill: #1f77b4; fill-opacity: 0.7; stroke: #ffffff; stroke-opacity: 0.7; stroke-width: 0.715542"/>
    <path d="M 286.587502 393.144264 
C 287.773526 393.144264 288.911134 392.673051 289.74978 391.834405 
C 290.588426 390.995759 291.059638 389.858152 291.059638 388.672128 
C 291.059638 387.486103 290.588426 386.348496 289.74978 385.50985 
C 288.911134 384.671204 287.773526 384.199992 286.587502 384.199992 
C 285.401478 384.199992 284.26387 384.671204 283.425224 385.50985 
C 282.586579 386.348496 282.115366 387.486103 282.115366 388.672128 
C 282.115366 389.858152 282.586579 390.995759 283.425224 391.834405 
C 284.26387 392.673051 285.401478 393.144264 286.587502 393.144264 
z
" clip-path="url(#p9db4f0b5e5)" style="fill: #ff7f0e; fill-opacity: 0.7; stroke: #ffffff; stroke-opacity: 0.7; stroke-width: 0.715542"/>
    <path d="M 436.657729 278.415003 
C 437.843754 278.415003 438.981361 277.943791 439.820007 277.105145 
C 440.658653 276.266499 441.129865 275.128891 441.129865 273.942867 
C 441.129865 272.756843 440.658653 271.619235 439.820007 270.780589 
C 438.981361 269.941944 437.843754 269.470731 436.657729 269.470731 
C 435.471705 269.470731 434.334098 269.941944 433.495452 270.780589 
C 432.656806 271.619235 432.185593 272.756843 432.185593 273.942867 
C 432.185593 275.128891 432.656806 276.266499 433.495452 277.105145 
C 434.334098 277.943791 435.471705 278.415003 436.657729 278.415003 
z
" clip-path="url(#p9db4f0b5e5)" style="fill: #1f77b4; fill-opacity: 0.7; stroke: #ffffff; stroke-opacity: 0.7; stroke-width: 0.715542"/>
    <path d="M 216.241995 127.221966 
C 217.428019 127.221966 218.565627 126.750754 219.404272 125.912108 
C 220.242918 125.073462 220.714131 123.935855 220.714131 122.749831 
C 220.714131 121.563806 220.242918 120.426199 219.404272 119.587553 
C 218.565627 118.748907 217.428019 118.277695 216.241995 118.277695 
C 215.05597 118.277695 213.918363 118.748907 213.079717 119.587553 
C 212.241071 120.426199 211.769859 121.563806 211.769859 122.749831 
C 211.769859 123.935855 212.241071 125.073462 213.079717 125.912108 
C 213.918363 126.750754 215.05597 127.221966 216.241995 127.221966 
z
" clip-path="url(#p9db4f0b5e5)" style="fill: #1f77b4; fill-opacity: 0.7; stroke: #ffffff; stroke-opacity: 0.7; stroke-width: 0.715542"/>
    <path d="M 469.708961 188.883549 
C 470.894985 188.883549 472.032593 188.412336 472.871238 187.57369 
C 473.709884 186.735045 474.181097 185.597437 474.181097 184.411413 
C 474.181097 183.225388 473.709884 182.087781 472.871238 181.249135 
C 472.032593 180.410489 470.894985 179.939277 469.708961 179.939277 
C 468.522936 179.939277 467.385329 180.410489 466.546683 181.249135 
C 465.708037 182.087781 465.236825 183.225388 465.236825 184.411413 
C 465.236825 185.597437 465.708037 186.735045 466.546683 187.57369 
C 467.385329 188.412336 468.522936 188.883549 469.708961 188.883549 
z
" clip-path="url(#p9db4f0b5e5)" style="fill: #1f77b4; fill-opacity: 0.7; stroke: #ffffff; stroke-opacity: 0.7; stroke-width: 0.715542"/>
    <path d="M 506.110113 120.570872 
C 507.296137 120.570872 508.433745 120.099659 509.27239 119.261014 
C 510.111036 118.422368 510.582249 117.28476 510.582249 116.098736 
C 510.582249 114.912712 510.111036 113.775104 509.27239 112.936458 
C 508.433745 112.097812 507.296137 111.6266 506.110113 111.6266 
C 504.924088 111.6266 503.786481 112.097812 502.947835 112.936458 
C 502.109189 113.775104 501.637977 114.912712 501.637977 116.098736 
C 501.637977 117.28476 502.109189 118.422368 502.947835 119.261014 
C 503.786481 120.099659 504.924088 120.570872 506.110113 120.570872 
z
" clip-path="url(#p9db4f0b5e5)" style="fill: #ff7f0e; fill-opacity: 0.7; stroke: #ffffff; stroke-opacity: 0.7; stroke-width: 0.715542"/>
    <path d="M 395.120409 203.862695 
C 396.306433 203.862695 397.444041 203.391483 398.282687 202.552837 
C 399.121333 201.714191 399.592545 200.576584 399.592545 199.390559 
C 399.592545 198.204535 399.121333 197.066927 398.282687 196.228282 
C 397.444041 195.389636 396.306433 194.918423 395.120409 194.918423 
C 393.934385 194.918423 392.796777 195.389636 391.958131 196.228282 
C 391.119486 197.066927 390.648273 198.204535 390.648273 199.390559 
C 390.648273 200.576584 391.119486 201.714191 391.958131 202.552837 
C 392.796777 203.391483 393.934385 203.862695 395.120409 203.862695 
z
" clip-path="url(#p9db4f0b5e5)" style="fill: #ff7f0e; fill-opacity: 0.7; stroke: #ffffff; stroke-opacity: 0.7; stroke-width: 0.715542"/>
    <path d="M 367.205346 112.488615 
C 368.39137 112.488615 369.528978 112.017402 370.367624 111.178756 
C 371.206269 110.34011 371.677482 109.202503 371.677482 108.016479 
C 371.677482 106.830454 371.206269 105.692847 370.367624 104.854201 
C 369.528978 104.015555 368.39137 103.544343 367.205346 103.544343 
C 366.019322 103.544343 364.881714 104.015555 364.043068 104.854201 
C 363.204422 105.692847 362.73321 106.830454 362.73321 108.016479 
C 362.73321 109.202503 363.204422 110.34011 364.043068 111.178756 
C 364.881714 112.017402 366.019322 112.488615 367.205346 112.488615 
z
" clip-path="url(#p9db4f0b5e5)" style="fill: #1f77b4; fill-opacity: 0.7; stroke: #ffffff; stroke-opacity: 0.7; stroke-width: 0.715542"/>
    <path d="M 353.583089 172.11554 
C 354.769113 172.11554 355.906721 171.644328 356.745366 170.805682 
C 357.584012 169.967036 358.055225 168.829429 358.055225 167.643404 
C 358.055225 166.45738 357.584012 165.319772 356.745366 164.481127 
C 355.906721 163.642481 354.769113 163.171268 353.583089 163.171268 
C 352.397065 163.171268 351.259457 163.642481 350.420811 164.481127 
C 349.582165 165.319772 349.110953 166.45738 349.110953 167.643404 
C 349.110953 168.829429 349.582165 169.967036 350.420811 170.805682 
C 351.259457 171.644328 352.397065 172.11554 353.583089 172.11554 
z
" clip-path="url(#p9db4f0b5e5)" style="fill: #1f77b4; fill-opacity: 0.7; stroke: #ffffff; stroke-opacity: 0.7; stroke-width: 0.715542"/>
    <path d="M 170.46163 140.269296 
C 171.647654 140.269296 172.785262 139.798084 173.623908 138.959438 
C 174.462554 138.120792 174.933766 136.983185 174.933766 135.79716 
C 174.933766 134.611136 174.462554 133.473529 173.623908 132.634883 
C 172.785262 131.796237 171.647654 131.325024 170.46163 131.325024 
C 169.275606 131.325024 168.137998 131.796237 167.299352 132.634883 
C 166.460707 133.473529 165.989494 134.611136 165.989494 135.79716 
C 165.989494 136.983185 166.460707 138.120792 167.299352 138.959438 
C 168.137998 139.798084 169.275606 140.269296 170.46163 140.269296 
z
" clip-path="url(#p9db4f0b5e5)" style="fill: #1f77b4; fill-opacity: 0.7; stroke: #ffffff; stroke-opacity: 0.7; stroke-width: 0.715542"/>
    <path d="M 406.956418 147.846836 
C 408.142443 147.846836 409.28005 147.375623 410.118696 146.536977 
C 410.957342 145.698332 411.428554 144.560724 411.428554 143.3747 
C 411.428554 142.188675 410.957342 141.051068 410.118696 140.212422 
C 409.28005 139.373776 408.142443 138.902564 406.956418 138.902564 
C 405.770394 138.902564 404.632787 139.373776 403.794141 140.212422 
C 402.955495 141.051068 402.484283 142.188675 402.484283 143.3747 
C 402.484283 144.560724 402.955495 145.698332 403.794141 146.536977 
C 404.632787 147.375623 405.770394 147.846836 406.956418 147.846836 
z
" clip-path="url(#p9db4f0b5e5)" style="fill: #ff7f0e; fill-opacity: 0.7; stroke: #ffffff; stroke-opacity: 0.7; stroke-width: 0.715542"/>
    <path d="M 207.755906 293.738408 
C 208.94193 293.738408 210.079538 293.267195 210.918184 292.42855 
C 211.756829 291.589904 212.228042 290.452296 212.228042 289.266272 
C 212.228042 288.080248 211.756829 286.94264 210.918184 286.103994 
C 210.079538 285.265348 208.94193 284.794136 207.755906 284.794136 
C 206.569882 284.794136 205.432274 285.265348 204.593628 286.103994 
C 203.754982 286.94264 203.28377 288.080248 203.28377 289.266272 
C 203.28377 290.452296 203.754982 291.589904 204.593628 292.42855 
C 205.432274 293.267195 206.569882 293.738408 207.755906 293.738408 
z
" clip-path="url(#p9db4f0b5e5)" style="fill: #ff7f0e; fill-opacity: 0.7; stroke: #ffffff; stroke-opacity: 0.7; stroke-width: 0.715542"/>
    <path d="M 228.078004 182.986717 
C 229.264028 182.986717 230.401636 182.515505 231.240282 181.676859 
C 232.078928 180.838213 232.55014 179.700606 232.55014 178.514581 
C 232.55014 177.328557 232.078928 176.19095 231.240282 175.352304 
C 230.401636 174.513658 229.264028 174.042446 228.078004 174.042446 
C 226.89198 174.042446 225.754372 174.513658 224.915727 175.352304 
C 224.077081 176.19095 223.605868 177.328557 223.605868 178.514581 
C 223.605868 179.700606 224.077081 180.838213 224.915727 181.676859 
C 225.754372 182.515505 226.89198 182.986717 228.078004 182.986717 
z
" clip-path="url(#p9db4f0b5e5)" style="fill: #1f77b4; fill-opacity: 0.7; stroke: #ffffff; stroke-opacity: 0.7; stroke-width: 0.715542"/>
    <path d="M 216.241995 174.87315 
C 217.428019 174.87315 218.565627 174.401937 219.404272 173.563292 
C 220.242918 172.724646 220.714131 171.587038 220.714131 170.401014 
C 220.714131 169.21499 220.242918 168.077382 219.404272 167.238736 
C 218.565627 166.40009 217.428019 165.928878 216.241995 165.928878 
C 215.05597 165.928878 213.918363 166.40009 213.079717 167.238736 
C 212.241071 168.077382 211.769859 169.21499 211.769859 170.401014 
C 211.769859 171.587038 212.241071 172.724646 213.079717 173.563292 
C 213.918363 174.401937 215.05597 174.87315 216.241995 174.87315 
z
" clip-path="url(#p9db4f0b5e5)" style="fill: #1f77b4; fill-opacity: 0.7; stroke: #ffffff; stroke-opacity: 0.7; stroke-width: 0.715542"/>
    <path d="M 186.540684 232.421449 
C 187.726708 232.421449 188.864316 231.950236 189.702962 231.11159 
C 190.541607 230.272945 191.01282 229.135337 191.01282 227.949313 
C 191.01282 226.763289 190.541607 225.625681 189.702962 224.787035 
C 188.864316 223.948389 187.726708 223.477177 186.540684 223.477177 
C 185.35466 223.477177 184.217052 223.948389 183.378406 224.787035 
C 182.53976 225.625681 182.068548 226.763289 182.068548 227.949313 
C 182.068548 229.135337 182.53976 230.272945 183.378406 231.11159 
C 184.217052 231.950236 185.35466 232.421449 186.540684 232.421449 
z
" clip-path="url(#p9db4f0b5e5)" style="fill: #1f77b4; fill-opacity: 0.7; stroke: #ffffff; stroke-opacity: 0.7; stroke-width: 0.715542"/>
    <path d="M 540.054468 189.674905 
C 541.240492 189.674905 542.3781 189.203693 543.216746 188.365047 
C 544.055392 187.526401 544.526604 186.388794 544.526604 185.202769 
C 544.526604 184.016745 544.055392 182.879138 543.216746 182.040492 
C 542.3781 181.201846 541.240492 180.730633 540.054468 180.730633 
C 538.868444 180.730633 537.730836 181.201846 536.89219 182.040492 
C 536.053545 182.879138 535.582332 184.016745 535.582332 185.202769 
C 535.582332 186.388794 536.053545 187.526401 536.89219 188.365047 
C 537.730836 189.203693 538.868444 189.674905 540.054468 189.674905 
z
" clip-path="url(#p9db4f0b5e5)" style="fill: #ff7f0e; fill-opacity: 0.7; stroke: #ffffff; stroke-opacity: 0.7; stroke-width: 0.715542"/>
   </g>
   <g id="matplotlib.axis_1">
    <g id="xtick_1">
     <g id="line2d_1">
      <path d="M 177.01727 438.28 
L 177.01727 16.815486 
" clip-path="url(#p9db4f0b5e5)" style="fill: none; stroke-dasharray: 2.96,1.28; stroke-dashoffset: 0; stroke: #b0b0b0; stroke-opacity: 0.3; stroke-width: 0.8"/>
     </g>
     <g id="line2d_2">
      <defs>
       <path id="mc1dd0c4b16" d="M 0 0 
L 0 3.5 
" style="stroke: #000000; stroke-width: 0.8"/>
      </defs>
      <g>
       <use xlink:href="#mc1dd0c4b16" x="177.01727" y="438.28" style="stroke: #000000; stroke-width: 0.8"/>
      </g>
     </g>
     <g id="text_1">
      <text style="font: 20px 'DejaVu Sans', 'Bitstream Vera Sans', 'Computer Modern Sans Serif', 'Lucida Grande', 'Verdana', 'Geneva', 'Lucid', 'Arial', 'Helvetica', 'Avant Garde', sans-serif; text-anchor: middle" x="177.01727" y="460.476875" transform="rotate(-0 177.01727 460.476875)">−1.5</text>
     </g>
    </g>
    <g id="xtick_2">
     <g id="line2d_3">
      <path d="M 237.586294 438.28 
L 237.586294 16.815486 
" clip-path="url(#p9db4f0b5e5)" style="fill: none; stroke-dasharray: 2.96,1.28; stroke-dashoffset: 0; stroke: #b0b0b0; stroke-opacity: 0.3; stroke-width: 0.8"/>
     </g>
     <g id="line2d_4">
      <g>
       <use xlink:href="#mc1dd0c4b16" x="237.586294" y="438.28" style="stroke: #000000; stroke-width: 0.8"/>
      </g>
     </g>
     <g id="text_2">
      <text style="font: 20px 'DejaVu Sans', 'Bitstream Vera Sans', 'Computer Modern Sans Serif', 'Lucida Grande', 'Verdana', 'Geneva', 'Lucid', 'Arial', 'Helvetica', 'Avant Garde', sans-serif; text-anchor: middle" x="237.586294" y="460.476875" transform="rotate(-0 237.586294 460.476875)">−1.0</text>
     </g>
    </g>
    <g id="xtick_3">
     <g id="line2d_5">
      <path d="M 298.155318 438.28 
L 298.155318 16.815486 
" clip-path="url(#p9db4f0b5e5)" style="fill: none; stroke-dasharray: 2.96,1.28; stroke-dashoffset: 0; stroke: #b0b0b0; stroke-opacity: 0.3; stroke-width: 0.8"/>
     </g>
     <g id="line2d_6">
      <g>
       <use xlink:href="#mc1dd0c4b16" x="298.155318" y="438.28" style="stroke: #000000; stroke-width: 0.8"/>
      </g>
     </g>
     <g id="text_3">
      <text style="font: 20px 'DejaVu Sans', 'Bitstream Vera Sans', 'Computer Modern Sans Serif', 'Lucida Grande', 'Verdana', 'Geneva', 'Lucid', 'Arial', 'Helvetica', 'Avant Garde', sans-serif; text-anchor: middle" x="298.155318" y="460.476875" transform="rotate(-0 298.155318 460.476875)">−0.5</text>
     </g>
    </g>
    <g id="xtick_4">
     <g id="line2d_7">
      <path d="M 358.724341 438.28 
L 358.724341 16.815486 
" clip-path="url(#p9db4f0b5e5)" style="fill: none; stroke-dasharray: 2.96,1.28; stroke-dashoffset: 0; stroke: #b0b0b0; stroke-opacity: 0.3; stroke-width: 0.8"/>
     </g>
     <g id="line2d_8">
      <g>
       <use xlink:href="#mc1dd0c4b16" x="358.724341" y="438.28" style="stroke: #000000; stroke-width: 0.8"/>
      </g>
     </g>
     <g id="text_4">
      <text style="font: 20px 'DejaVu Sans', 'Bitstream Vera Sans', 'Computer Modern Sans Serif', 'Lucida Grande', 'Verdana', 'Geneva', 'Lucid', 'Arial', 'Helvetica', 'Avant Garde', sans-serif; text-anchor: middle" x="358.724341" y="460.476875" transform="rotate(-0 358.724341 460.476875)">0.0</text>
     </g>
    </g>
    <g id="xtick_5">
     <g id="line2d_9">
      <path d="M 419.293365 438.28 
L 419.293365 16.815486 
" clip-path="url(#p9db4f0b5e5)" style="fill: none; stroke-dasharray: 2.96,1.28; stroke-dashoffset: 0; stroke: #b0b0b0; stroke-opacity: 0.3; stroke-width: 0.8"/>
     </g>
     <g id="line2d_10">
      <g>
       <use xlink:href="#mc1dd0c4b16" x="419.293365" y="438.28" style="stroke: #000000; stroke-width: 0.8"/>
      </g>
     </g>
     <g id="text_5">
      <text style="font: 20px 'DejaVu Sans', 'Bitstream Vera Sans', 'Computer Modern Sans Serif', 'Lucida Grande', 'Verdana', 'Geneva', 'Lucid', 'Arial', 'Helvetica', 'Avant Garde', sans-serif; text-anchor: middle" x="419.293365" y="460.476875" transform="rotate(-0 419.293365 460.476875)">0.5</text>
     </g>
    </g>
    <g id="xtick_6">
     <g id="line2d_11">
      <path d="M 479.862388 438.28 
L 479.862388 16.815486 
" clip-path="url(#p9db4f0b5e5)" style="fill: none; stroke-dasharray: 2.96,1.28; stroke-dashoffset: 0; stroke: #b0b0b0; stroke-opacity: 0.3; stroke-width: 0.8"/>
     </g>
     <g id="line2d_12">
      <g>
       <use xlink:href="#mc1dd0c4b16" x="479.862388" y="438.28" style="stroke: #000000; stroke-width: 0.8"/>
      </g>
     </g>
     <g id="text_6">
      <text style="font: 20px 'DejaVu Sans', 'Bitstream Vera Sans', 'Computer Modern Sans Serif', 'Lucida Grande', 'Verdana', 'Geneva', 'Lucid', 'Arial', 'Helvetica', 'Avant Garde', sans-serif; text-anchor: middle" x="479.862388" y="460.476875" transform="rotate(-0 479.862388 460.476875)">1.0</text>
     </g>
    </g>
    <g id="xtick_7">
     <g id="line2d_13">
      <path d="M 540.431412 438.28 
L 540.431412 16.815486 
" clip-path="url(#p9db4f0b5e5)" style="fill: none; stroke-dasharray: 2.96,1.28; stroke-dashoffset: 0; stroke: #b0b0b0; stroke-opacity: 0.3; stroke-width: 0.8"/>
     </g>
     <g id="line2d_14">
      <g>
       <use xlink:href="#mc1dd0c4b16" x="540.431412" y="438.28" style="stroke: #000000; stroke-width: 0.8"/>
      </g>
     </g>
     <g id="text_7">
      <text style="font: 20px 'DejaVu Sans', 'Bitstream Vera Sans', 'Computer Modern Sans Serif', 'Lucida Grande', 'Verdana', 'Geneva', 'Lucid', 'Arial', 'Helvetica', 'Avant Garde', sans-serif; text-anchor: middle" x="540.431412" y="460.476875" transform="rotate(-0 540.431412 460.476875)">1.5</text>
     </g>
    </g>
    <g id="text_8">
     <text style="font: 24px 'DejaVu Sans', 'Bitstream Vera Sans', 'Computer Modern Sans Serif', 'Lucida Grande', 'Verdana', 'Geneva', 'Lucid', 'Arial', 'Helvetica', 'Avant Garde', sans-serif; text-anchor: middle" x="345.097" y="486.8725" transform="rotate(-0 345.097 486.8725)">Standardized Residualized Reward Sensitivity</text>
    </g>
   </g>
   <g id="matplotlib.axis_2">
    <g id="ytick_1">
     <g id="line2d_15">
      <path d="M 124.994 419.122522 
L 565.2 419.122522 
" clip-path="url(#p9db4f0b5e5)" style="fill: none; stroke-dasharray: 2.96,1.28; stroke-dashoffset: 0; stroke: #b0b0b0; stroke-opacity: 0.3; stroke-width: 0.8"/>
     </g>
     <g id="line2d_16">
      <defs>
       <path id="mb3c7fcf10e" d="M 0 0 
L -3.5 0 
" style="stroke: #000000; stroke-width: 0.8"/>
      </defs>
      <g>
       <use xlink:href="#mb3c7fcf10e" x="124.994" y="419.122522" style="stroke: #000000; stroke-width: 0.8"/>
      </g>
     </g>
     <g id="text_9">
      <text style="font: 20px 'DejaVu Sans', 'Bitstream Vera Sans', 'Computer Modern Sans Serif', 'Lucida Grande', 'Verdana', 'Geneva', 'Lucid', 'Arial', 'Helvetica', 'Avant Garde', sans-serif; text-anchor: end" x="117.994" y="426.72096" transform="rotate(-0 117.994 426.72096)">-3.00</text>
     </g>
    </g>
    <g id="ytick_2">
     <g id="line2d_17">
      <path d="M 124.994 339.074785 
L 565.2 339.074785 
" clip-path="url(#p9db4f0b5e5)" style="fill: none; stroke-dasharray: 2.96,1.28; stroke-dashoffset: 0; stroke: #b0b0b0; stroke-opacity: 0.3; stroke-width: 0.8"/>
     </g>
     <g id="line2d_18">
      <g>
       <use xlink:href="#mb3c7fcf10e" x="124.994" y="339.074785" style="stroke: #000000; stroke-width: 0.8"/>
      </g>
     </g>
     <g id="text_10">
      <text style="font: 20px 'DejaVu Sans', 'Bitstream Vera Sans', 'Computer Modern Sans Serif', 'Lucida Grande', 'Verdana', 'Geneva', 'Lucid', 'Arial', 'Helvetica', 'Avant Garde', sans-serif; text-anchor: end" x="117.994" y="346.673222" transform="rotate(-0 117.994 346.673222)">-2.00</text>
     </g>
    </g>
    <g id="ytick_3">
     <g id="line2d_19">
      <path d="M 124.994 259.027047 
L 565.2 259.027047 
" clip-path="url(#p9db4f0b5e5)" style="fill: none; stroke-dasharray: 2.96,1.28; stroke-dashoffset: 0; stroke: #b0b0b0; stroke-opacity: 0.3; stroke-width: 0.8"/>
     </g>
     <g id="line2d_20">
      <g>
       <use xlink:href="#mb3c7fcf10e" x="124.994" y="259.027047" style="stroke: #000000; stroke-width: 0.8"/>
      </g>
     </g>
     <g id="text_11">
      <text style="font: 20px 'DejaVu Sans', 'Bitstream Vera Sans', 'Computer Modern Sans Serif', 'Lucida Grande', 'Verdana', 'Geneva', 'Lucid', 'Arial', 'Helvetica', 'Avant Garde', sans-serif; text-anchor: end" x="117.994" y="266.625485" transform="rotate(-0 117.994 266.625485)">-1.00</text>
     </g>
    </g>
    <g id="ytick_4">
     <g id="line2d_21">
      <path d="M 124.994 178.97931 
L 565.2 178.97931 
" clip-path="url(#p9db4f0b5e5)" style="fill: none; stroke-dasharray: 2.96,1.28; stroke-dashoffset: 0; stroke: #b0b0b0; stroke-opacity: 0.3; stroke-width: 0.8"/>
     </g>
     <g id="line2d_22">
      <g>
       <use xlink:href="#mb3c7fcf10e" x="124.994" y="178.97931" style="stroke: #000000; stroke-width: 0.8"/>
      </g>
     </g>
     <g id="text_12">
      <text style="font: 20px 'DejaVu Sans', 'Bitstream Vera Sans', 'Computer Modern Sans Serif', 'Lucida Grande', 'Verdana', 'Geneva', 'Lucid', 'Arial', 'Helvetica', 'Avant Garde', sans-serif; text-anchor: end" x="117.994" y="186.577748" transform="rotate(-0 117.994 186.577748)">0.00</text>
     </g>
    </g>
    <g id="ytick_5">
     <g id="line2d_23">
      <path d="M 124.994 98.931573 
L 565.2 98.931573 
" clip-path="url(#p9db4f0b5e5)" style="fill: none; stroke-dasharray: 2.96,1.28; stroke-dashoffset: 0; stroke: #b0b0b0; stroke-opacity: 0.3; stroke-width: 0.8"/>
     </g>
     <g id="line2d_24">
      <g>
       <use xlink:href="#mb3c7fcf10e" x="124.994" y="98.931573" style="stroke: #000000; stroke-width: 0.8"/>
      </g>
     </g>
     <g id="text_13">
      <text style="font: 20px 'DejaVu Sans', 'Bitstream Vera Sans', 'Computer Modern Sans Serif', 'Lucida Grande', 'Verdana', 'Geneva', 'Lucid', 'Arial', 'Helvetica', 'Avant Garde', sans-serif; text-anchor: end" x="117.994" y="106.53001" transform="rotate(-0 117.994 106.53001)">1.00</text>
     </g>
    </g>
    <g id="ytick_6">
     <g id="line2d_25">
      <path d="M 124.994 18.883835 
L 565.2 18.883835 
" clip-path="url(#p9db4f0b5e5)" style="fill: none; stroke-dasharray: 2.96,1.28; stroke-dashoffset: 0; stroke: #b0b0b0; stroke-opacity: 0.3; stroke-width: 0.8"/>
     </g>
     <g id="line2d_26">
      <g>
       <use xlink:href="#mb3c7fcf10e" x="124.994" y="18.883835" style="stroke: #000000; stroke-width: 0.8"/>
      </g>
     </g>
     <g id="text_14">
      <text style="font: 20px 'DejaVu Sans', 'Bitstream Vera Sans', 'Computer Modern Sans Serif', 'Lucida Grande', 'Verdana', 'Geneva', 'Lucid', 'Arial', 'Helvetica', 'Avant Garde', sans-serif; text-anchor: end" x="117.994" y="26.482273" transform="rotate(-0 117.994 26.482273)">2.00</text>
     </g>
    </g>
    <g id="text_15">
     <text style="font: 24px 'DejaVu Sans', 'Bitstream Vera Sans', 'Computer Modern Sans Serif', 'Lucida Grande', 'Verdana', 'Geneva', 'Lucid', 'Arial', 'Helvetica', 'Avant Garde', sans-serif" transform="translate(30.381125 520.679618) rotate(-90)">Standardized Residualized Behavioral Motivation</text>
     <text style="font: 24px 'DejaVu Sans', 'Bitstream Vera Sans', 'Computer Modern Sans Serif', 'Lucida Grande', 'Verdana', 'Geneva', 'Lucid', 'Arial', 'Helvetica', 'Avant Garde', sans-serif" transform="translate(57.255875 277.913993) rotate(-90)">(HS&gt;LS)</text>
    </g>
   </g>
   <g id="line2d_27"/>
   <g id="line2d_28"/>
   <g id="line2d_29">
    <path d="M 145.003364 147.04487 
L 148.959941 147.561263 
L 152.916519 148.077655 
L 156.873096 148.594048 
L 160.829674 149.11044 
L 164.786252 149.626833 
L 168.742829 150.143225 
L 172.699407 150.659618 
L 176.655985 151.17601 
L 180.612562 151.692402 
L 184.56914 152.208795 
L 188.525717 152.725187 
L 192.482295 153.24158 
L 196.438873 153.757972 
L 200.39545 154.274365 
L 204.352028 154.790757 
L 208.308605 155.30715 
L 212.265183 155.823542 
L 216.221761 156.339934 
L 220.178338 156.856327 
L 224.134916 157.372719 
L 228.091494 157.889112 
L 232.048071 158.405504 
L 236.004649 158.921897 
L 239.961226 159.438289 
L 243.917804 159.954682 
L 247.874382 160.471074 
L 251.830959 160.987466 
L 255.787537 161.503859 
L 259.744114 162.020251 
L 263.700692 162.536644 
L 267.65727 163.053036 
L 271.613847 163.569429 
L 275.570425 164.085821 
L 279.527003 164.602214 
L 283.48358 165.118606 
L 287.440158 165.634998 
L 291.396735 166.151391 
L 295.353313 166.667783 
L 299.309891 167.184176 
L 303.266468 167.700568 
L 307.223046 168.216961 
L 311.179623 168.733353 
L 315.136201 169.249746 
L 319.092779 169.766138 
L 323.049356 170.282531 
L 327.005934 170.798923 
L 330.962512 171.315315 
L 334.919089 171.831708 
L 338.875667 172.3481 
L 342.832244 172.864493 
L 346.788822 173.380885 
L 350.7454 173.897278 
L 354.701977 174.41367 
L 358.658555 174.930063 
L 362.615132 175.446455 
L 366.57171 175.962847 
L 370.528288 176.47924 
L 374.484865 176.995632 
L 378.441443 177.512025 
L 382.398021 178.028417 
L 386.354598 178.54481 
L 390.311176 179.061202 
L 394.267753 179.577595 
L 398.224331 180.093987 
L 402.180909 180.610379 
L 406.137486 181.126772 
L 410.094064 181.643164 
L 414.050641 182.159557 
L 418.007219 182.675949 
L 421.963797 183.192342 
L 425.920374 183.708734 
L 429.876952 184.225127 
L 433.83353 184.741519 
L 437.790107 185.257911 
L 441.746685 185.774304 
L 445.703262 186.290696 
L 449.65984 186.807089 
L 453.616418 187.323481 
L 457.572995 187.839874 
L 461.529573 188.356266 
L 465.48615 188.872659 
L 469.442728 189.389051 
L 473.399306 189.905443 
L 477.355883 190.421836 
L 481.312461 190.938228 
L 485.269039 191.454621 
L 489.225616 191.971013 
L 493.182194 192.487406 
L 497.138771 193.003798 
L 501.095349 193.520191 
L 505.051927 194.036583 
L 509.008504 194.552975 
L 512.965082 195.069368 
L 516.921659 195.58576 
L 520.878237 196.102153 
L 524.834815 196.618545 
L 528.791392 197.134938 
L 532.74797 197.65133 
L 536.704548 198.167723 
" clip-path="url(#p9db4f0b5e5)" style="fill: none; stroke: #1f77b4; stroke-width: 2; stroke-linecap: square"/>
   </g>
   <g id="line2d_30">
    <path d="M 190.783728 225.829418 
L 194.363596 225.145033 
L 197.943464 224.460649 
L 201.523332 223.776264 
L 205.103199 223.091879 
L 208.683067 222.407494 
L 212.262935 221.72311 
L 215.842803 221.038725 
L 219.42267 220.35434 
L 223.002538 219.669956 
L 226.582406 218.985571 
L 230.162274 218.301186 
L 233.742141 217.616801 
L 237.322009 216.932417 
L 240.901877 216.248032 
L 244.481745 215.563647 
L 248.061612 214.879262 
L 251.64148 214.194878 
L 255.221348 213.510493 
L 258.801216 212.826108 
L 262.381083 212.141724 
L 265.960951 211.457339 
L 269.540819 210.772954 
L 273.120687 210.088569 
L 276.700555 209.404185 
L 280.280422 208.7198 
L 283.86029 208.035415 
L 287.440158 207.35103 
L 291.020026 206.666646 
L 294.599893 205.982261 
L 298.179761 205.297876 
L 301.759629 204.613492 
L 305.339497 203.929107 
L 308.919364 203.244722 
L 312.499232 202.560337 
L 316.0791 201.875953 
L 319.658968 201.191568 
L 323.238835 200.507183 
L 326.818703 199.822798 
L 330.398571 199.138414 
L 333.978439 198.454029 
L 337.558306 197.769644 
L 341.138174 197.08526 
L 344.718042 196.400875 
L 348.29791 195.71649 
L 351.877777 195.032105 
L 355.457645 194.347721 
L 359.037513 193.663336 
L 362.617381 192.978951 
L 366.197248 192.294566 
L 369.777116 191.610182 
L 373.356984 190.925797 
L 376.936852 190.241412 
L 380.516719 189.557028 
L 384.096587 188.872643 
L 387.676455 188.188258 
L 391.256323 187.503873 
L 394.836191 186.819489 
L 398.416058 186.135104 
L 401.995926 185.450719 
L 405.575794 184.766335 
L 409.155662 184.08195 
L 412.735529 183.397565 
L 416.315397 182.71318 
L 419.895265 182.028796 
L 423.475133 181.344411 
L 427.055 180.660026 
L 430.634868 179.975641 
L 434.214736 179.291257 
L 437.794604 178.606872 
L 441.374471 177.922487 
L 444.954339 177.238103 
L 448.534207 176.553718 
L 452.114075 175.869333 
L 455.693942 175.184948 
L 459.27381 174.500564 
L 462.853678 173.816179 
L 466.433546 173.131794 
L 470.013413 172.447409 
L 473.593281 171.763025 
L 477.173149 171.07864 
L 480.753017 170.394255 
L 484.332884 169.709871 
L 487.912752 169.025486 
L 491.49262 168.341101 
L 495.072488 167.656716 
L 498.652356 166.972332 
L 502.232223 166.287947 
L 505.812091 165.603562 
L 509.391959 164.919177 
L 512.971827 164.234793 
L 516.551694 163.550408 
L 520.131562 162.866023 
L 523.71143 162.181639 
L 527.291298 161.497254 
L 530.871165 160.812869 
L 534.451033 160.128484 
L 538.030901 159.4441 
L 541.610769 158.759715 
L 545.190636 158.07533 
" clip-path="url(#p9db4f0b5e5)" style="fill: none; stroke-dasharray: 7.4,3.2; stroke-dashoffset: 0; stroke: #ff7f0e; stroke-width: 2"/>
   </g>
   <g id="patch_3">
    <path d="M 124.994 438.28 
L 124.994 16.815486 
" style="fill: none; stroke: #000000; stroke-linejoin: miter; stroke-linecap: square"/>
   </g>
   <g id="patch_4">
    <path d="M 124.994 438.28 
L 565.2 438.28 
" style="fill: none; stroke: #000000; stroke-linejoin: miter; stroke-linecap: square"/>
   </g>
   <g id="legend_1">
    <g id="patch_5">
     <path d="M 136.194 430.28 
L 222.2765 430.28 
Q 225.4765 430.28 225.4765 427.08 
L 225.4765 354.35375 
Q 225.4765 351.15375 222.2765 351.15375 
L 136.194 351.15375 
Q 132.994 351.15375 132.994 354.35375 
L 132.994 427.08 
Q 132.994 430.28 136.194 430.28 
z
" style="fill: #ffffff; opacity: 0.8; stroke: #cccccc; stroke-linejoin: miter"/>
    </g>
    <g id="text_16">
     <text style="font: 20px 'DejaVu Sans', 'Bitstream Vera Sans', 'Computer Modern Sans Serif', 'Lucida Grande', 'Verdana', 'Geneva', 'Lucid', 'Arial', 'Helvetica', 'Avant Garde', sans-serif; text-anchor: start" x="148.302438" y="372.750625" transform="rotate(-0 148.302438 372.750625)">TEPSa</text>
    </g>
    <g id="line2d_31">
     <defs>
      <path id="m6600baaf77" d="M 0 4.472136 
C 1.186024 4.472136 2.323632 4.000923 3.162278 3.162278 
C 4.000923 2.323632 4.472136 1.186024 4.472136 0 
C 4.472136 -1.186024 4.000923 -2.323632 3.162278 -3.162278 
C 2.323632 -4.000923 1.186024 -4.472136 0 -4.472136 
C -1.186024 -4.472136 -2.323632 -4.000923 -3.162278 -3.162278 
C -4.000923 -2.323632 -4.472136 -1.186024 -4.472136 0 
C -4.472136 1.186024 -4.000923 2.323632 -3.162278 3.162278 
C -2.323632 4.000923 -1.186024 4.472136 0 4.472136 
z
" style="stroke: #ffffff; stroke-opacity: 0.7; stroke-width: 0.715542"/>
     </defs>
     <g>
      <use xlink:href="#m6600baaf77" x="155.394" y="391.4675" style="fill: #1f77b4; fill-opacity: 0.7; stroke: #ffffff; stroke-opacity: 0.7; stroke-width: 0.715542"/>
     </g>
    </g>
    <g id="text_17">
     <text style="font: 16px 'DejaVu Sans', 'Bitstream Vera Sans', 'Computer Modern Sans Serif', 'Lucida Grande', 'Verdana', 'Geneva', 'Lucid', 'Arial', 'Helvetica', 'Avant Garde', sans-serif; text-anchor: start" x="184.194" y="397.0675" transform="rotate(-0 184.194 397.0675)">low</text>
    </g>
    <g id="line2d_32">
     <defs>
      <path id="m8effd4ef70" d="M 0 4.472136 
C 1.186024 4.472136 2.323632 4.000923 3.162278 3.162278 
C 4.000923 2.323632 4.472136 1.186024 4.472136 0 
C 4.472136 -1.186024 4.000923 -2.323632 3.162278 -3.162278 
C 2.323632 -4.000923 1.186024 -4.472136 0 -4.472136 
C -1.186024 -4.472136 -2.323632 -4.000923 -3.162278 -3.162278 
C -4.000923 -2.323632 -4.472136 -1.186024 -4.472136 0 
C -4.472136 1.186024 -4.000923 2.323632 -3.162278 3.162278 
C -2.323632 4.000923 -1.186024 4.472136 0 4.472136 
z
" style="stroke: #ffffff; stroke-opacity: 0.7; stroke-width: 0.715542"/>
     </defs>
     <g>
      <use xlink:href="#m8effd4ef70" x="155.394" y="414.9525" style="fill: #ff7f0e; fill-opacity: 0.7; stroke: #ffffff; stroke-opacity: 0.7; stroke-width: 0.715542"/>
     </g>
    </g>
    <g id="text_18">
     <text style="font: 16px 'DejaVu Sans', 'Bitstream Vera Sans', 'Computer Modern Sans Serif', 'Lucida Grande', 'Verdana', 'Geneva', 'Lucid', 'Arial', 'Helvetica', 'Avant Garde', sans-serif; text-anchor: start" x="184.194" y="420.5525" transform="rotate(-0 184.194 420.5525)">high</text>
    </g>
   </g>
  </g>
 </g>
 <defs>
  <clipPath id="p9db4f0b5e5">
   <rect x="124.994" y="16.815486" width="440.206" height="421.464514"/>
  </clipPath>
 </defs>
</svg>
