<?xml version="1.0" encoding="utf-8" standalone="no"?>
<!DOCTYPE svg PUBLIC "-//W3C//DTD SVG 1.1//EN"
  "http://www.w3.org/Graphics/SVG/1.1/DTD/svg11.dtd">
<svg xmlns:xlink="http://www.w3.org/1999/xlink" width="468pt" height="432pt" viewBox="0 0 468 432" xmlns="http://www.w3.org/2000/svg" version="1.1">
 <metadata>
  <rdf:RDF xmlns:dc="http://purl.org/dc/elements/1.1/" xmlns:cc="http://creativecommons.org/ns#" xmlns:rdf="http://www.w3.org/1999/02/22-rdf-syntax-ns#">
   <cc:Work>
    <dc:type rdf:resource="http://purl.org/dc/dcmitype/StillImage"/>
    <dc:date>2025-04-16T16:23:51.325013</dc:date>
    <dc:format>image/svg+xml</dc:format>
    <dc:creator>
     <cc:Agent>
      <dc:title>Matplotlib v3.8.4, https://matplotlib.org/</dc:title>
     </cc:Agent>
    </dc:creator>
   </cc:Work>
  </rdf:RDF>
 </metadata>
 <defs>
  <style type="text/css">*{stroke-linejoin: round; stroke-linecap: butt}</style>
 </defs>
 <g id="figure_1">
  <g id="patch_1">
   <path d="M 0 432 
L 468 432 
L 468 0 
L 0 0 
z
" style="fill: #ffffff"/>
  </g>
  <g id="axes_1">
   <g id="patch_2">
    <path d="M 124.724 366.28 
L 457.2 366.28 
L 457.2 10.8 
L 124.724 10.8 
z
" style="fill: #ffffff"/>
   </g>
   <g id="PathCollection_1">
    <path d="M 139.836545 130.389111 
C 141.162561 130.389111 142.434445 129.86228 143.372079 128.924645 
C 144.309714 127.987011 144.836545 126.715127 144.836545 125.389111 
C 144.836545 124.063096 144.309714 122.791212 143.372079 121.853577 
C 142.434445 120.915943 141.162561 120.389111 139.836545 120.389111 
C 138.51053 120.389111 137.238646 120.915943 136.301012 121.853577 
C 135.363377 122.791212 134.836545 124.063096 134.836545 125.389111 
C 134.836545 126.715127 135.363377 127.987011 136.301012 128.924645 
C 137.238646 129.86228 138.51053 130.389111 139.836545 130.389111 
z
" clip-path="url(#pa5dc726f4d)" style="stroke: #ffffff; stroke-width: 0.8"/>
    <path d="M 139.836545 149.300418 
C 141.162561 149.300418 142.434445 148.773586 143.372079 147.835952 
C 144.309714 146.898317 144.836545 145.626433 144.836545 144.300418 
C 144.836545 142.974402 144.309714 141.702518 143.372079 140.764884 
C 142.434445 139.827249 141.162561 139.300418 139.836545 139.300418 
C 138.51053 139.300418 137.238646 139.827249 136.301012 140.764884 
C 135.363377 141.702518 134.836545 142.974402 134.836545 144.300418 
C 134.836545 145.626433 135.363377 146.898317 136.301012 147.835952 
C 137.238646 148.773586 138.51053 149.300418 139.836545 149.300418 
z
" clip-path="url(#pa5dc726f4d)" style="stroke: #ffffff; stroke-width: 0.8"/>
    <path d="M 442.087455 92.44247 
C 443.41347 92.44247 444.685354 91.915639 445.622988 90.978004 
C 446.560623 90.040369 447.087455 88.768486 447.087455 87.44247 
C 447.087455 86.116455 446.560623 84.844571 445.622988 83.906936 
C 444.685354 82.969302 443.41347 82.44247 442.087455 82.44247 
C 440.761439 82.44247 439.489555 82.969302 438.551921 83.906936 
C 437.614286 84.844571 437.087455 86.116455 437.087455 87.44247 
C 437.087455 88.768486 437.614286 90.040369 438.551921 90.978004 
C 439.489555 91.915639 440.761439 92.44247 442.087455 92.44247 
z
" clip-path="url(#pa5dc726f4d)" style="fill: #808080; stroke: #ffffff; stroke-width: 0.8"/>
    <path d="M 374.920586 106.510781 
C 376.246601 106.510781 377.518485 105.98395 378.45612 105.046315 
C 379.393754 104.108681 379.920586 102.836797 379.920586 101.510781 
C 379.920586 100.184766 379.393754 98.912882 378.45612 97.975247 
C 377.518485 97.037613 376.246601 96.510781 374.920586 96.510781 
C 373.59457 96.510781 372.322687 97.037613 371.385052 97.975247 
C 370.447417 98.912882 369.920586 100.184766 369.920586 101.510781 
C 369.920586 102.836797 370.447417 104.108681 371.385052 105.046315 
C 372.322687 105.98395 373.59457 106.510781 374.920586 106.510781 
z
" clip-path="url(#pa5dc726f4d)" style="fill: #808080; stroke: #ffffff; stroke-width: 0.8"/>
    <path d="M 408.50402 165.311833 
C 409.830036 165.311833 411.10192 164.785002 412.039554 163.847367 
C 412.977189 162.909733 413.50402 161.637849 413.50402 160.311833 
C 413.50402 158.985818 412.977189 157.713934 412.039554 156.776299 
C 411.10192 155.838665 409.830036 155.311833 408.50402 155.311833 
C 407.178005 155.311833 405.906121 155.838665 404.968486 156.776299 
C 404.030852 157.713934 403.50402 158.985818 403.50402 160.311833 
C 403.50402 161.637849 404.030852 162.909733 404.968486 163.847367 
C 405.906121 164.785002 407.178005 165.311833 408.50402 165.311833 
z
" clip-path="url(#pa5dc726f4d)" style="stroke: #ffffff; stroke-width: 0.8"/>
    <path d="M 307.753717 112.936609 
C 309.079733 112.936609 310.351617 112.409778 311.289251 111.472143 
C 312.226886 110.534509 312.753717 109.262625 312.753717 107.936609 
C 312.753717 106.610594 312.226886 105.33871 311.289251 104.401075 
C 310.351617 103.463441 309.079733 102.936609 307.753717 102.936609 
C 306.427702 102.936609 305.155818 103.463441 304.218183 104.401075 
C 303.280549 105.33871 302.753717 106.610594 302.753717 107.936609 
C 302.753717 109.262625 303.280549 110.534509 304.218183 111.472143 
C 305.155818 112.409778 306.427702 112.936609 307.753717 112.936609 
z
" clip-path="url(#pa5dc726f4d)" style="stroke: #ffffff; stroke-width: 0.8"/>
    <path d="M 374.920586 127.991238 
C 376.246601 127.991238 377.518485 127.464406 378.45612 126.526772 
C 379.393754 125.589137 379.920586 124.317253 379.920586 122.991238 
C 379.920586 121.665222 379.393754 120.393339 378.45612 119.455704 
C 377.518485 118.518069 376.246601 117.991238 374.920586 117.991238 
C 373.59457 117.991238 372.322687 118.518069 371.385052 119.455704 
C 370.447417 120.393339 369.920586 121.665222 369.920586 122.991238 
C 369.920586 124.317253 370.447417 125.589137 371.385052 126.526772 
C 372.322687 127.464406 373.59457 127.991238 374.920586 127.991238 
z
" clip-path="url(#pa5dc726f4d)" style="fill: #808080; stroke: #ffffff; stroke-width: 0.8"/>
    <path d="M 307.753717 170.148923 
C 309.079733 170.148923 310.351617 169.622091 311.289251 168.684457 
C 312.226886 167.746822 312.753717 166.474938 312.753717 165.148923 
C 312.753717 163.822907 312.226886 162.551023 311.289251 161.613389 
C 310.351617 160.675754 309.079733 160.148923 307.753717 160.148923 
C 306.427702 160.148923 305.155818 160.675754 304.218183 161.613389 
C 303.280549 162.551023 302.753717 163.822907 302.753717 165.148923 
C 302.753717 166.474938 303.280549 167.746822 304.218183 168.684457 
C 305.155818 169.622091 306.427702 170.148923 307.753717 170.148923 
z
" clip-path="url(#pa5dc726f4d)" style="stroke: #ffffff; stroke-width: 0.8"/>
    <path d="M 307.753717 122.498572 
C 309.079733 122.498572 310.351617 121.971741 311.289251 121.034106 
C 312.226886 120.096472 312.753717 118.824588 312.753717 117.498572 
C 312.753717 116.172557 312.226886 114.900673 311.289251 113.963038 
C 310.351617 113.025404 309.079733 112.498572 307.753717 112.498572 
C 306.427702 112.498572 305.155818 113.025404 304.218183 113.963038 
C 303.280549 114.900673 302.753717 116.172557 302.753717 117.498572 
C 302.753717 118.824588 303.280549 120.096472 304.218183 121.034106 
C 305.155818 121.971741 306.427702 122.498572 307.753717 122.498572 
z
" clip-path="url(#pa5dc726f4d)" style="stroke: #ffffff; stroke-width: 0.8"/>
    <path d="M 173.41998 140.961016 
C 174.745995 140.961016 176.017879 140.434184 176.955514 139.49655 
C 177.893148 138.558915 178.41998 137.287031 178.41998 135.961016 
C 178.41998 134.635 177.893148 133.363117 176.955514 132.425482 
C 176.017879 131.487847 174.745995 130.961016 173.41998 130.961016 
C 172.093964 130.961016 170.82208 131.487847 169.884446 132.425482 
C 168.946811 133.363117 168.41998 134.635 168.41998 135.961016 
C 168.41998 137.287031 168.946811 138.558915 169.884446 139.49655 
C 170.82208 140.434184 172.093964 140.961016 173.41998 140.961016 
z
" clip-path="url(#pa5dc726f4d)" style="stroke: #ffffff; stroke-width: 0.8"/>
    <path d="M 307.753717 176.196761 
C 309.079733 176.196761 310.351617 175.669929 311.289251 174.732295 
C 312.226886 173.79466 312.753717 172.522776 312.753717 171.196761 
C 312.753717 169.870745 312.226886 168.598861 311.289251 167.661227 
C 310.351617 166.723592 309.079733 166.196761 307.753717 166.196761 
C 306.427702 166.196761 305.155818 166.723592 304.218183 167.661227 
C 303.280549 168.598861 302.753717 169.870745 302.753717 171.196761 
C 302.753717 172.522776 303.280549 173.79466 304.218183 174.732295 
C 305.155818 175.669929 306.427702 176.196761 307.753717 176.196761 
z
" clip-path="url(#pa5dc726f4d)" style="fill: #808080; stroke: #ffffff; stroke-width: 0.8"/>
    <path d="M 274.170283 31.958182 
C 275.496298 31.958182 276.768182 31.43135 277.705817 30.493716 
C 278.643451 29.556081 279.170283 28.284197 279.170283 26.958182 
C 279.170283 25.632166 278.643451 24.360282 277.705817 23.422648 
C 276.768182 22.485013 275.496298 21.958182 274.170283 21.958182 
C 272.844267 21.958182 271.572383 22.485013 270.634749 23.422648 
C 269.697114 24.360282 269.170283 25.632166 269.170283 26.958182 
C 269.170283 28.284197 269.697114 29.556081 270.634749 30.493716 
C 271.572383 31.43135 272.844267 31.958182 274.170283 31.958182 
z
" clip-path="url(#pa5dc726f4d)" style="stroke: #ffffff; stroke-width: 0.8"/>
    <path d="M 408.50402 101.307514 
C 409.830036 101.307514 411.10192 100.780683 412.039554 99.843048 
C 412.977189 98.905414 413.50402 97.63353 413.50402 96.307514 
C 413.50402 94.981499 412.977189 93.709615 412.039554 92.77198 
C 411.10192 91.834346 409.830036 91.307514 408.50402 91.307514 
C 407.178005 91.307514 405.906121 91.834346 404.968486 92.77198 
C 404.030852 93.709615 403.50402 94.981499 403.50402 96.307514 
C 403.50402 97.63353 404.030852 98.905414 404.968486 99.843048 
C 405.906121 100.780683 407.178005 101.307514 408.50402 101.307514 
z
" clip-path="url(#pa5dc726f4d)" style="fill: #808080; stroke: #ffffff; stroke-width: 0.8"/>
    <path d="M 442.087455 95.070681 
C 443.41347 95.070681 444.685354 94.543849 445.622988 93.606215 
C 446.560623 92.66858 447.087455 91.396697 447.087455 90.070681 
C 447.087455 88.744666 446.560623 87.472782 445.622988 86.535147 
C 444.685354 85.597513 443.41347 85.070681 442.087455 85.070681 
C 440.761439 85.070681 439.489555 85.597513 438.551921 86.535147 
C 437.614286 87.472782 437.087455 88.744666 437.087455 90.070681 
C 437.087455 91.396697 437.614286 92.66858 438.551921 93.606215 
C 439.489555 94.543849 440.761439 95.070681 442.087455 95.070681 
z
" clip-path="url(#pa5dc726f4d)" style="fill: #808080; stroke: #ffffff; stroke-width: 0.8"/>
    <path d="M 408.50402 265.27244 
C 409.830036 265.27244 411.10192 264.745609 412.039554 263.807974 
C 412.977189 262.87034 413.50402 261.598456 413.50402 260.27244 
C 413.50402 258.946425 412.977189 257.674541 412.039554 256.736907 
C 411.10192 255.799272 409.830036 255.27244 408.50402 255.27244 
C 407.178005 255.27244 405.906121 255.799272 404.968486 256.736907 
C 404.030852 257.674541 403.50402 258.946425 403.50402 260.27244 
C 403.50402 261.598456 404.030852 262.87034 404.968486 263.807974 
C 405.906121 264.745609 407.178005 265.27244 408.50402 265.27244 
z
" clip-path="url(#pa5dc726f4d)" style="stroke: #ffffff; stroke-width: 0.8"/>
    <path d="M 207.003414 126.000885 
C 208.32943 126.000885 209.601313 125.474053 210.538948 124.536419 
C 211.476583 123.598784 212.003414 122.3269 212.003414 121.000885 
C 212.003414 119.674869 211.476583 118.402985 210.538948 117.465351 
C 209.601313 116.527716 208.32943 116.000885 207.003414 116.000885 
C 205.677399 116.000885 204.405515 116.527716 203.46788 117.465351 
C 202.530246 118.402985 202.003414 119.674869 202.003414 121.000885 
C 202.003414 122.3269 202.530246 123.598784 203.46788 124.536419 
C 204.405515 125.474053 205.677399 126.000885 207.003414 126.000885 
z
" clip-path="url(#pa5dc726f4d)" style="fill: #808080; stroke: #ffffff; stroke-width: 0.8"/>
    <path d="M 442.087455 114.613939 
C 443.41347 114.613939 444.685354 114.087108 445.622988 113.149473 
C 446.560623 112.211839 447.087455 110.939955 447.087455 109.613939 
C 447.087455 108.287924 446.560623 107.01604 445.622988 106.078406 
C 444.685354 105.140771 443.41347 104.613939 442.087455 104.613939 
C 440.761439 104.613939 439.489555 105.140771 438.551921 106.078406 
C 437.614286 107.01604 437.087455 108.287924 437.087455 109.613939 
C 437.087455 110.939955 437.614286 112.211839 438.551921 113.149473 
C 439.489555 114.087108 440.761439 114.613939 442.087455 114.613939 
z
" clip-path="url(#pa5dc726f4d)" style="fill: #808080; stroke: #ffffff; stroke-width: 0.8"/>
    <path d="M 207.003414 51.572313 
C 208.32943 51.572313 209.601313 51.045482 210.538948 50.107847 
C 211.476583 49.170213 212.003414 47.898329 212.003414 46.572313 
C 212.003414 45.246298 211.476583 43.974414 210.538948 43.036779 
C 209.601313 42.099145 208.32943 41.572313 207.003414 41.572313 
C 205.677399 41.572313 204.405515 42.099145 203.46788 43.036779 
C 202.530246 43.974414 202.003414 45.246298 202.003414 46.572313 
C 202.003414 47.898329 202.530246 49.170213 203.46788 50.107847 
C 204.405515 51.045482 205.677399 51.572313 207.003414 51.572313 
z
" clip-path="url(#pa5dc726f4d)" style="fill: #808080; stroke: #ffffff; stroke-width: 0.8"/>
    <path d="M 240.586848 198.391855 
C 241.912864 198.391855 243.184748 197.865023 244.122382 196.927388 
C 245.060017 195.989754 245.586848 194.71787 245.586848 193.391855 
C 245.586848 192.065839 245.060017 190.793955 244.122382 189.856321 
C 243.184748 188.918686 241.912864 188.391855 240.586848 188.391855 
C 239.260833 188.391855 237.988949 188.918686 237.051315 189.856321 
C 236.11368 190.793955 235.586848 192.065839 235.586848 193.391855 
C 235.586848 194.71787 236.11368 195.989754 237.051315 196.927388 
C 237.988949 197.865023 239.260833 198.391855 240.586848 198.391855 
z
" clip-path="url(#pa5dc726f4d)" style="fill: #808080; stroke: #ffffff; stroke-width: 0.8"/>
    <path d="M 341.337152 355.121818 
C 342.663167 355.121818 343.935051 354.594987 344.872685 353.657352 
C 345.81032 352.719718 346.337152 351.447834 346.337152 350.121818 
C 346.337152 348.795803 345.81032 347.523919 344.872685 346.586284 
C 343.935051 345.64865 342.663167 345.121818 341.337152 345.121818 
C 340.011136 345.121818 338.739252 345.64865 337.801618 346.586284 
C 336.863983 347.523919 336.337152 348.795803 336.337152 350.121818 
C 336.337152 351.447834 336.863983 352.719718 337.801618 353.657352 
C 338.739252 354.594987 340.011136 355.121818 341.337152 355.121818 
z
" clip-path="url(#pa5dc726f4d)" style="fill: #808080; stroke: #ffffff; stroke-width: 0.8"/>
    <path d="M 408.50402 126.290283 
C 409.830036 126.290283 411.10192 125.763452 412.039554 124.825817 
C 412.977189 123.888183 413.50402 122.616299 413.50402 121.290283 
C 413.50402 119.964268 412.977189 118.692384 412.039554 117.754749 
C 411.10192 116.817115 409.830036 116.290283 408.50402 116.290283 
C 407.178005 116.290283 405.906121 116.817115 404.968486 117.754749 
C 404.030852 118.692384 403.50402 119.964268 403.50402 121.290283 
C 403.50402 122.616299 404.030852 123.888183 404.968486 124.825817 
C 405.906121 125.763452 407.178005 126.290283 408.50402 126.290283 
z
" clip-path="url(#pa5dc726f4d)" style="fill: #808080; stroke: #ffffff; stroke-width: 0.8"/>
    <path d="M 341.337152 123.396298 
C 342.663167 123.396298 343.935051 122.869467 344.872685 121.931832 
C 345.81032 120.994198 346.337152 119.722314 346.337152 118.396298 
C 346.337152 117.070283 345.81032 115.798399 344.872685 114.860764 
C 343.935051 113.92313 342.663167 113.396298 341.337152 113.396298 
C 340.011136 113.396298 338.739252 113.92313 337.801618 114.860764 
C 336.863983 115.798399 336.337152 117.070283 336.337152 118.396298 
C 336.337152 119.722314 336.863983 120.994198 337.801618 121.931832 
C 338.739252 122.869467 340.011136 123.396298 341.337152 123.396298 
z
" clip-path="url(#pa5dc726f4d)" style="fill: #808080; stroke: #ffffff; stroke-width: 0.8"/>
    <path d="M 408.50402 106.5285 
C 409.830036 106.5285 411.10192 106.001668 412.039554 105.064033 
C 412.977189 104.126399 413.50402 102.854515 413.50402 101.5285 
C 413.50402 100.202484 412.977189 98.9306 412.039554 97.992966 
C 411.10192 97.055331 409.830036 96.5285 408.50402 96.5285 
C 407.178005 96.5285 405.906121 97.055331 404.968486 97.992966 
C 404.030852 98.9306 403.50402 100.202484 403.50402 101.5285 
C 403.50402 102.854515 404.030852 104.126399 404.968486 105.064033 
C 405.906121 106.001668 407.178005 106.5285 408.50402 106.5285 
z
" clip-path="url(#pa5dc726f4d)" style="fill: #808080; stroke: #ffffff; stroke-width: 0.8"/>
    <path d="M 173.41998 141.63431 
C 174.745995 141.63431 176.017879 141.107479 176.955514 140.169844 
C 177.893148 139.23221 178.41998 137.960326 178.41998 136.63431 
C 178.41998 135.308295 177.893148 134.036411 176.955514 133.098776 
C 176.017879 132.161142 174.745995 131.63431 173.41998 131.63431 
C 172.093964 131.63431 170.82208 132.161142 169.884446 133.098776 
C 168.946811 134.036411 168.41998 135.308295 168.41998 136.63431 
C 168.41998 137.960326 168.946811 139.23221 169.884446 140.169844 
C 170.82208 141.107479 172.093964 141.63431 173.41998 141.63431 
z
" clip-path="url(#pa5dc726f4d)" style="fill: #808080; stroke: #ffffff; stroke-width: 0.8"/>
    <path d="M 274.170283 122.734816 
C 275.496298 122.734816 276.768182 122.207984 277.705817 121.27035 
C 278.643451 120.332715 279.170283 119.060831 279.170283 117.734816 
C 279.170283 116.4088 278.643451 115.136917 277.705817 114.199282 
C 276.768182 113.261648 275.496298 112.734816 274.170283 112.734816 
C 272.844267 112.734816 271.572383 113.261648 270.634749 114.199282 
C 269.697114 115.136917 269.170283 116.4088 269.170283 117.734816 
C 269.170283 119.060831 269.697114 120.332715 270.634749 121.27035 
C 271.572383 122.207984 272.844267 122.734816 274.170283 122.734816 
z
" clip-path="url(#pa5dc726f4d)" style="stroke: #ffffff; stroke-width: 0.8"/>
    <path d="M 374.920586 119.515996 
C 376.246601 119.515996 377.518485 118.989164 378.45612 118.05153 
C 379.393754 117.113895 379.920586 115.842011 379.920586 114.515996 
C 379.920586 113.18998 379.393754 111.918096 378.45612 110.980462 
C 377.518485 110.042827 376.246601 109.515996 374.920586 109.515996 
C 373.59457 109.515996 372.322687 110.042827 371.385052 110.980462 
C 370.447417 111.918096 369.920586 113.18998 369.920586 114.515996 
C 369.920586 115.842011 370.447417 117.113895 371.385052 118.05153 
C 372.322687 118.989164 373.59457 119.515996 374.920586 119.515996 
z
" clip-path="url(#pa5dc726f4d)" style="stroke: #ffffff; stroke-width: 0.8"/>
    <path d="M 207.003414 90.971853 
C 208.32943 90.971853 209.601313 90.445022 210.538948 89.507387 
C 211.476583 88.569753 212.003414 87.297869 212.003414 85.971853 
C 212.003414 84.645838 211.476583 83.373954 210.538948 82.436319 
C 209.601313 81.498685 208.32943 80.971853 207.003414 80.971853 
C 205.677399 80.971853 204.405515 81.498685 203.46788 82.436319 
C 202.530246 83.373954 202.003414 84.645838 202.003414 85.971853 
C 202.003414 87.297869 202.530246 88.569753 203.46788 89.507387 
C 204.405515 90.445022 205.677399 90.971853 207.003414 90.971853 
z
" clip-path="url(#pa5dc726f4d)" style="fill: #808080; stroke: #ffffff; stroke-width: 0.8"/>
    <path d="M 374.920586 139.053348 
C 376.246601 139.053348 377.518485 138.526517 378.45612 137.588882 
C 379.393754 136.651248 379.920586 135.379364 379.920586 134.053348 
C 379.920586 132.727333 379.393754 131.455449 378.45612 130.517814 
C 377.518485 129.58018 376.246601 129.053348 374.920586 129.053348 
C 373.59457 129.053348 372.322687 129.58018 371.385052 130.517814 
C 370.447417 131.455449 369.920586 132.727333 369.920586 134.053348 
C 369.920586 135.379364 370.447417 136.651248 371.385052 137.588882 
C 372.322687 138.526517 373.59457 139.053348 374.920586 139.053348 
z
" clip-path="url(#pa5dc726f4d)" style="fill: #808080; stroke: #ffffff; stroke-width: 0.8"/>
    <path d="M 240.586848 111.412838 
C 241.912864 111.412838 243.184748 110.886006 244.122382 109.948371 
C 245.060017 109.010737 245.586848 107.738853 245.586848 106.412838 
C 245.586848 105.086822 245.060017 103.814938 244.122382 102.877304 
C 243.184748 101.939669 241.912864 101.412838 240.586848 101.412838 
C 239.260833 101.412838 237.988949 101.939669 237.051315 102.877304 
C 236.11368 103.814938 235.586848 105.086822 235.586848 106.412838 
C 235.586848 107.738853 236.11368 109.010737 237.051315 109.948371 
C 237.988949 110.886006 239.260833 111.412838 240.586848 111.412838 
z
" clip-path="url(#pa5dc726f4d)" style="stroke: #ffffff; stroke-width: 0.8"/>
    <path d="M 139.836545 188.251095 
C 141.162561 188.251095 142.434445 187.724263 143.372079 186.786629 
C 144.309714 185.848994 144.836545 184.57711 144.836545 183.251095 
C 144.836545 181.925079 144.309714 180.653195 143.372079 179.715561 
C 142.434445 178.777926 141.162561 178.251095 139.836545 178.251095 
C 138.51053 178.251095 137.238646 178.777926 136.301012 179.715561 
C 135.363377 180.653195 134.836545 181.925079 134.836545 183.251095 
C 134.836545 184.57711 135.363377 185.848994 136.301012 186.786629 
C 137.238646 187.724263 138.51053 188.251095 139.836545 188.251095 
z
" clip-path="url(#pa5dc726f4d)" style="stroke: #ffffff; stroke-width: 0.8"/>
    <path d="M 207.003414 133.3835 
C 208.32943 133.3835 209.601313 132.856668 210.538948 131.919034 
C 211.476583 130.981399 212.003414 129.709515 212.003414 128.3835 
C 212.003414 127.057484 211.476583 125.785601 210.538948 124.847966 
C 209.601313 123.910331 208.32943 123.3835 207.003414 123.3835 
C 205.677399 123.3835 204.405515 123.910331 203.46788 124.847966 
C 202.530246 125.785601 202.003414 127.057484 202.003414 128.3835 
C 202.003414 129.709515 202.530246 130.981399 203.46788 131.919034 
C 204.405515 132.856668 205.677399 133.3835 207.003414 133.3835 
z
" clip-path="url(#pa5dc726f4d)" style="stroke: #ffffff; stroke-width: 0.8"/>
    <path d="M 240.586848 279.193099 
C 241.912864 279.193099 243.184748 278.666268 244.122382 277.728633 
C 245.060017 276.790999 245.586848 275.519115 245.586848 274.193099 
C 245.586848 272.867084 245.060017 271.5952 244.122382 270.657565 
C 243.184748 269.719931 241.912864 269.193099 240.586848 269.193099 
C 239.260833 269.193099 237.988949 269.719931 237.051315 270.657565 
C 236.11368 271.5952 235.586848 272.867084 235.586848 274.193099 
C 235.586848 275.519115 236.11368 276.790999 237.051315 277.728633 
C 237.988949 278.666268 239.260833 279.193099 240.586848 279.193099 
z
" clip-path="url(#pa5dc726f4d)" style="fill: #808080; stroke: #ffffff; stroke-width: 0.8"/>
    <path d="M 341.337152 216.925171 
C 342.663167 216.925171 343.935051 216.39834 344.872685 215.460705 
C 345.81032 214.523071 346.337152 213.251187 346.337152 211.925171 
C 346.337152 210.599156 345.81032 209.327272 344.872685 208.389637 
C 343.935051 207.452003 342.663167 206.925171 341.337152 206.925171 
C 340.011136 206.925171 338.739252 207.452003 337.801618 208.389637 
C 336.863983 209.327272 336.337152 210.599156 336.337152 211.925171 
C 336.337152 213.251187 336.863983 214.523071 337.801618 215.460705 
C 338.739252 216.39834 340.011136 216.925171 341.337152 216.925171 
z
" clip-path="url(#pa5dc726f4d)" style="stroke: #ffffff; stroke-width: 0.8"/>
    <path d="M 173.41998 106.481251 
C 174.745995 106.481251 176.017879 105.954419 176.955514 105.016785 
C 177.893148 104.07915 178.41998 102.807266 178.41998 101.481251 
C 178.41998 100.155235 177.893148 98.883351 176.955514 97.945717 
C 176.017879 97.008082 174.745995 96.481251 173.41998 96.481251 
C 172.093964 96.481251 170.82208 97.008082 169.884446 97.945717 
C 168.946811 98.883351 168.41998 100.155235 168.41998 101.481251 
C 168.41998 102.807266 168.946811 104.07915 169.884446 105.016785 
C 170.82208 105.954419 172.093964 106.481251 173.41998 106.481251 
z
" clip-path="url(#pa5dc726f4d)" style="stroke: #ffffff; stroke-width: 0.8"/>
    <path d="M 374.920586 150.942311 
C 376.246601 150.942311 377.518485 150.41548 378.45612 149.477845 
C 379.393754 148.540211 379.920586 147.268327 379.920586 145.942311 
C 379.920586 144.616296 379.393754 143.344412 378.45612 142.406777 
C 377.518485 141.469143 376.246601 140.942311 374.920586 140.942311 
C 373.59457 140.942311 372.322687 141.469143 371.385052 142.406777 
C 370.447417 143.344412 369.920586 144.616296 369.920586 145.942311 
C 369.920586 147.268327 370.447417 148.540211 371.385052 149.477845 
C 372.322687 150.41548 373.59457 150.942311 374.920586 150.942311 
z
" clip-path="url(#pa5dc726f4d)" style="stroke: #ffffff; stroke-width: 0.8"/>
    <path d="M 442.087455 75.940849 
C 443.41347 75.940849 444.685354 75.414017 445.622988 74.476383 
C 446.560623 73.538748 447.087455 72.266864 447.087455 70.940849 
C 447.087455 69.614833 446.560623 68.34295 445.622988 67.405315 
C 444.685354 66.467681 443.41347 65.940849 442.087455 65.940849 
C 440.761439 65.940849 439.489555 66.467681 438.551921 67.405315 
C 437.614286 68.34295 437.087455 69.614833 437.087455 70.940849 
C 437.087455 72.266864 437.614286 73.538748 438.551921 74.476383 
C 439.489555 75.414017 440.761439 75.940849 442.087455 75.940849 
z
" clip-path="url(#pa5dc726f4d)" style="fill: #808080; stroke: #ffffff; stroke-width: 0.8"/>
    <path d="M 307.753717 166.315869 
C 309.079733 166.315869 310.351617 165.789037 311.289251 164.851403 
C 312.226886 163.913768 312.753717 162.641884 312.753717 161.315869 
C 312.753717 159.989853 312.226886 158.71797 311.289251 157.780335 
C 310.351617 156.8427 309.079733 156.315869 307.753717 156.315869 
C 306.427702 156.315869 305.155818 156.8427 304.218183 157.780335 
C 303.280549 158.71797 302.753717 159.989853 302.753717 161.315869 
C 302.753717 162.641884 303.280549 163.913768 304.218183 164.851403 
C 305.155818 165.789037 306.427702 166.315869 307.753717 166.315869 
z
" clip-path="url(#pa5dc726f4d)" style="fill: #808080; stroke: #ffffff; stroke-width: 0.8"/>
    <path d="M 240.586848 138.120186 
C 241.912864 138.120186 243.184748 137.593354 244.122382 136.65572 
C 245.060017 135.718085 245.586848 134.446201 245.586848 133.120186 
C 245.586848 131.79417 245.060017 130.522286 244.122382 129.584652 
C 243.184748 128.647017 241.912864 128.120186 240.586848 128.120186 
C 239.260833 128.120186 237.988949 128.647017 237.051315 129.584652 
C 236.11368 130.522286 235.586848 131.79417 235.586848 133.120186 
C 235.586848 134.446201 236.11368 135.718085 237.051315 136.65572 
C 237.988949 137.593354 239.260833 138.120186 240.586848 138.120186 
z
" clip-path="url(#pa5dc726f4d)" style="stroke: #ffffff; stroke-width: 0.8"/>
    <path d="M 274.170283 144.764539 
C 275.496298 144.764539 276.768182 144.237708 277.705817 143.300073 
C 278.643451 142.362439 279.170283 141.090555 279.170283 139.764539 
C 279.170283 138.438524 278.643451 137.16664 277.705817 136.229005 
C 276.768182 135.291371 275.496298 134.764539 274.170283 134.764539 
C 272.844267 134.764539 271.572383 135.291371 270.634749 136.229005 
C 269.697114 137.16664 269.170283 138.438524 269.170283 139.764539 
C 269.170283 141.090555 269.697114 142.362439 270.634749 143.300073 
C 271.572383 144.237708 272.844267 144.764539 274.170283 144.764539 
z
" clip-path="url(#pa5dc726f4d)" style="stroke: #ffffff; stroke-width: 0.8"/>
    <path d="M 139.836545 112.735802 
C 141.162561 112.735802 142.434445 112.208971 143.372079 111.271336 
C 144.309714 110.333702 144.836545 109.061818 144.836545 107.735802 
C 144.836545 106.409787 144.309714 105.137903 143.372079 104.200268 
C 142.434445 103.262634 141.162561 102.735802 139.836545 102.735802 
C 138.51053 102.735802 137.238646 103.262634 136.301012 104.200268 
C 135.363377 105.137903 134.836545 106.409787 134.836545 107.735802 
C 134.836545 109.061818 135.363377 110.333702 136.301012 111.271336 
C 137.238646 112.208971 138.51053 112.735802 139.836545 112.735802 
z
" clip-path="url(#pa5dc726f4d)" style="stroke: #ffffff; stroke-width: 0.8"/>
    <path d="M 341.337152 110.072155 
C 342.663167 110.072155 343.935051 109.545323 344.872685 108.607689 
C 345.81032 107.670054 346.337152 106.39817 346.337152 105.072155 
C 346.337152 103.746139 345.81032 102.474255 344.872685 101.536621 
C 343.935051 100.598986 342.663167 100.072155 341.337152 100.072155 
C 340.011136 100.072155 338.739252 100.598986 337.801618 101.536621 
C 336.863983 102.474255 336.337152 103.746139 336.337152 105.072155 
C 336.337152 106.39817 336.863983 107.670054 337.801618 108.607689 
C 338.739252 109.545323 340.011136 110.072155 341.337152 110.072155 
z
" clip-path="url(#pa5dc726f4d)" style="fill: #808080; stroke: #ffffff; stroke-width: 0.8"/>
    <path d="M 173.41998 214.314679 
C 174.745995 214.314679 176.017879 213.787847 176.955514 212.850213 
C 177.893148 211.912578 178.41998 210.640694 178.41998 209.314679 
C 178.41998 207.988663 177.893148 206.716779 176.955514 205.779145 
C 176.017879 204.84151 174.745995 204.314679 173.41998 204.314679 
C 172.093964 204.314679 170.82208 204.84151 169.884446 205.779145 
C 168.946811 206.716779 168.41998 207.988663 168.41998 209.314679 
C 168.41998 210.640694 168.946811 211.912578 169.884446 212.850213 
C 170.82208 213.787847 172.093964 214.314679 173.41998 214.314679 
z
" clip-path="url(#pa5dc726f4d)" style="fill: #808080; stroke: #ffffff; stroke-width: 0.8"/>
    <path d="M 207.003414 126.119007 
C 208.32943 126.119007 209.601313 125.592175 210.538948 124.654541 
C 211.476583 123.716906 212.003414 122.445022 212.003414 121.119007 
C 212.003414 119.792991 211.476583 118.521107 210.538948 117.583473 
C 209.601313 116.645838 208.32943 116.119007 207.003414 116.119007 
C 205.677399 116.119007 204.405515 116.645838 203.46788 117.583473 
C 202.530246 118.521107 202.003414 119.792991 202.003414 121.119007 
C 202.003414 122.445022 202.530246 123.716906 203.46788 124.654541 
C 204.405515 125.592175 205.677399 126.119007 207.003414 126.119007 
z
" clip-path="url(#pa5dc726f4d)" style="stroke: #ffffff; stroke-width: 0.8"/>
    <path d="M 173.41998 138.828917 
C 174.745995 138.828917 176.017879 138.302085 176.955514 137.364451 
C 177.893148 136.426816 178.41998 135.154932 178.41998 133.828917 
C 178.41998 132.502901 177.893148 131.231017 176.955514 130.293383 
C 176.017879 129.355748 174.745995 128.828917 173.41998 128.828917 
C 172.093964 128.828917 170.82208 129.355748 169.884446 130.293383 
C 168.946811 131.231017 168.41998 132.502901 168.41998 133.828917 
C 168.41998 135.154932 168.946811 136.426816 169.884446 137.364451 
C 170.82208 138.302085 172.093964 138.828917 173.41998 138.828917 
z
" clip-path="url(#pa5dc726f4d)" style="stroke: #ffffff; stroke-width: 0.8"/>
    <path d="M 173.41998 159.677421 
C 174.745995 159.677421 176.017879 159.15059 176.955514 158.212955 
C 177.893148 157.275321 178.41998 156.003437 178.41998 154.677421 
C 178.41998 153.351406 177.893148 152.079522 176.955514 151.141888 
C 176.017879 150.204253 174.745995 149.677421 173.41998 149.677421 
C 172.093964 149.677421 170.82208 150.204253 169.884446 151.141888 
C 168.946811 152.079522 168.41998 153.351406 168.41998 154.677421 
C 168.41998 156.003437 168.946811 157.275321 169.884446 158.212955 
C 170.82208 159.15059 172.093964 159.677421 173.41998 159.677421 
z
" clip-path="url(#pa5dc726f4d)" style="stroke: #ffffff; stroke-width: 0.8"/>
    <path d="M 442.087455 143.671912 
C 443.41347 143.671912 444.685354 143.145081 445.622988 142.207446 
C 446.560623 141.269811 447.087455 139.997928 447.087455 138.671912 
C 447.087455 137.345897 446.560623 136.074013 445.622988 135.136378 
C 444.685354 134.198744 443.41347 133.671912 442.087455 133.671912 
C 440.761439 133.671912 439.489555 134.198744 438.551921 135.136378 
C 437.614286 136.074013 437.087455 137.345897 437.087455 138.671912 
C 437.087455 139.997928 437.614286 141.269811 438.551921 142.207446 
C 439.489555 143.145081 440.761439 143.671912 442.087455 143.671912 
z
" clip-path="url(#pa5dc726f4d)" style="fill: #808080; stroke: #ffffff; stroke-width: 0.8"/>
   </g>
   <g id="matplotlib.axis_1">
    <g id="xtick_1">
     <g id="line2d_1">
      <defs>
       <path id="m4085381dfc" d="M 0 0 
L 0 3.5 
" style="stroke: #000000; stroke-width: 0.8"/>
      </defs>
      <g>
       <use xlink:href="#m4085381dfc" x="157.656319" y="366.28" style="stroke: #000000; stroke-width: 0.8"/>
      </g>
     </g>
     <g id="text_1">
      <text style="font: 20px 'DejaVu Sans', 'Bitstream Vera Sans', 'Computer Modern Sans Serif', 'Lucida Grande', 'Verdana', 'Geneva', 'Lucid', 'Arial', 'Helvetica', 'Avant Garde', sans-serif; text-anchor: middle" x="157.656319" y="388.476875" transform="rotate(-0 157.656319 388.476875)">−4</text>
     </g>
    </g>
    <g id="xtick_2">
     <g id="line2d_2">
      <g>
       <use xlink:href="#m4085381dfc" x="224.823187" y="366.28" style="stroke: #000000; stroke-width: 0.8"/>
      </g>
     </g>
     <g id="text_2">
      <text style="font: 20px 'DejaVu Sans', 'Bitstream Vera Sans', 'Computer Modern Sans Serif', 'Lucida Grande', 'Verdana', 'Geneva', 'Lucid', 'Arial', 'Helvetica', 'Avant Garde', sans-serif; text-anchor: middle" x="224.823187" y="388.476875" transform="rotate(-0 224.823187 388.476875)">−2</text>
     </g>
    </g>
    <g id="xtick_3">
     <g id="line2d_3">
      <g>
       <use xlink:href="#m4085381dfc" x="291.990056" y="366.28" style="stroke: #000000; stroke-width: 0.8"/>
      </g>
     </g>
     <g id="text_3">
      <text style="font: 20px 'DejaVu Sans', 'Bitstream Vera Sans', 'Computer Modern Sans Serif', 'Lucida Grande', 'Verdana', 'Geneva', 'Lucid', 'Arial', 'Helvetica', 'Avant Garde', sans-serif; text-anchor: middle" x="291.990056" y="388.476875" transform="rotate(-0 291.990056 388.476875)">0</text>
     </g>
    </g>
    <g id="xtick_4">
     <g id="line2d_4">
      <g>
       <use xlink:href="#m4085381dfc" x="359.156925" y="366.28" style="stroke: #000000; stroke-width: 0.8"/>
      </g>
     </g>
     <g id="text_4">
      <text style="font: 20px 'DejaVu Sans', 'Bitstream Vera Sans', 'Computer Modern Sans Serif', 'Lucida Grande', 'Verdana', 'Geneva', 'Lucid', 'Arial', 'Helvetica', 'Avant Garde', sans-serif; text-anchor: middle" x="359.156925" y="388.476875" transform="rotate(-0 359.156925 388.476875)">2</text>
     </g>
    </g>
    <g id="xtick_5">
     <g id="line2d_5">
      <g>
       <use xlink:href="#m4085381dfc" x="426.323793" y="366.28" style="stroke: #000000; stroke-width: 0.8"/>
      </g>
     </g>
     <g id="text_5">
      <text style="font: 20px 'DejaVu Sans', 'Bitstream Vera Sans', 'Computer Modern Sans Serif', 'Lucida Grande', 'Verdana', 'Geneva', 'Lucid', 'Arial', 'Helvetica', 'Avant Garde', sans-serif; text-anchor: middle" x="426.323793" y="388.476875" transform="rotate(-0 426.323793 388.476875)">4</text>
     </g>
    </g>
    <g id="text_6">
     <text style="font: 24px 'DejaVu Sans', 'Bitstream Vera Sans', 'Computer Modern Sans Serif', 'Lucida Grande', 'Verdana', 'Geneva', 'Lucid', 'Arial', 'Helvetica', 'Avant Garde', sans-serif; text-anchor: middle" x="290.962" y="414.8725" transform="rotate(-0 290.962 414.8725)">Reward Sensitivity</text>
    </g>
   </g>
   <g id="matplotlib.axis_2">
    <g id="ytick_1">
     <g id="line2d_6">
      <defs>
       <path id="m20cdcfa322" d="M 0 0 
L -3.5 0 
" style="stroke: #000000; stroke-width: 0.8"/>
      </defs>
      <g>
       <use xlink:href="#m20cdcfa322" x="124.724" y="344.729556" style="stroke: #000000; stroke-width: 0.8"/>
      </g>
     </g>
     <g id="text_7">
      <text style="font: 20px 'DejaVu Sans', 'Bitstream Vera Sans', 'Computer Modern Sans Serif', 'Lucida Grande', 'Verdana', 'Geneva', 'Lucid', 'Arial', 'Helvetica', 'Avant Garde', sans-serif; text-anchor: end" x="117.724" y="352.327994" transform="rotate(-0 117.724 352.327994)">-0.04</text>
     </g>
    </g>
    <g id="ytick_2">
     <g id="line2d_7">
      <g>
       <use xlink:href="#m20cdcfa322" x="124.724" y="285.668636" style="stroke: #000000; stroke-width: 0.8"/>
      </g>
     </g>
     <g id="text_8">
      <text style="font: 20px 'DejaVu Sans', 'Bitstream Vera Sans', 'Computer Modern Sans Serif', 'Lucida Grande', 'Verdana', 'Geneva', 'Lucid', 'Arial', 'Helvetica', 'Avant Garde', sans-serif; text-anchor: end" x="117.724" y="293.267074" transform="rotate(-0 117.724 293.267074)">-0.03</text>
     </g>
    </g>
    <g id="ytick_3">
     <g id="line2d_8">
      <g>
       <use xlink:href="#m20cdcfa322" x="124.724" y="226.607716" style="stroke: #000000; stroke-width: 0.8"/>
      </g>
     </g>
     <g id="text_9">
      <text style="font: 20px 'DejaVu Sans', 'Bitstream Vera Sans', 'Computer Modern Sans Serif', 'Lucida Grande', 'Verdana', 'Geneva', 'Lucid', 'Arial', 'Helvetica', 'Avant Garde', sans-serif; text-anchor: end" x="117.724" y="234.206154" transform="rotate(-0 117.724 234.206154)">-0.02</text>
     </g>
    </g>
    <g id="ytick_4">
     <g id="line2d_9">
      <g>
       <use xlink:href="#m20cdcfa322" x="124.724" y="167.546796" style="stroke: #000000; stroke-width: 0.8"/>
      </g>
     </g>
     <g id="text_10">
      <text style="font: 20px 'DejaVu Sans', 'Bitstream Vera Sans', 'Computer Modern Sans Serif', 'Lucida Grande', 'Verdana', 'Geneva', 'Lucid', 'Arial', 'Helvetica', 'Avant Garde', sans-serif; text-anchor: end" x="117.724" y="175.145233" transform="rotate(-0 117.724 175.145233)">-0.01</text>
     </g>
    </g>
    <g id="ytick_5">
     <g id="line2d_10">
      <g>
       <use xlink:href="#m20cdcfa322" x="124.724" y="108.485876" style="stroke: #000000; stroke-width: 0.8"/>
      </g>
     </g>
     <g id="text_11">
      <text style="font: 20px 'DejaVu Sans', 'Bitstream Vera Sans', 'Computer Modern Sans Serif', 'Lucida Grande', 'Verdana', 'Geneva', 'Lucid', 'Arial', 'Helvetica', 'Avant Garde', sans-serif; text-anchor: end" x="117.724" y="116.084313" transform="rotate(-0 117.724 116.084313)">0.00</text>
     </g>
    </g>
    <g id="ytick_6">
     <g id="line2d_11">
      <g>
       <use xlink:href="#m20cdcfa322" x="124.724" y="49.424956" style="stroke: #000000; stroke-width: 0.8"/>
      </g>
     </g>
     <g id="text_12">
      <text style="font: 20px 'DejaVu Sans', 'Bitstream Vera Sans', 'Computer Modern Sans Serif', 'Lucida Grande', 'Verdana', 'Geneva', 'Lucid', 'Arial', 'Helvetica', 'Avant Garde', sans-serif; text-anchor: end" x="117.724" y="57.023393" transform="rotate(-0 117.724 57.023393)">0.01</text>
     </g>
    </g>
    <g id="text_13">
     <text style="font: 24px 'DejaVu Sans', 'Bitstream Vera Sans', 'Computer Modern Sans Serif', 'Lucida Grande', 'Verdana', 'Geneva', 'Lucid', 'Arial', 'Helvetica', 'Avant Garde', sans-serif" transform="translate(30.111125 319.505) rotate(-90)">Behavioral Motivation</text>
     <text style="font: 24px 'DejaVu Sans', 'Bitstream Vera Sans', 'Computer Modern Sans Serif', 'Lucida Grande', 'Verdana', 'Geneva', 'Lucid', 'Arial', 'Helvetica', 'Avant Garde', sans-serif" transform="translate(56.985875 238.90625) rotate(-90)">(HS&gt;LS)</text>
    </g>
   </g>
   <g id="line2d_12"/>
   <g id="line2d_13"/>
   <g id="line2d_14">
    <path d="M 139.836545 120.300139 
L 142.550358 120.695539 
L 145.264171 121.090939 
L 147.977984 121.486339 
L 150.691797 121.881739 
L 153.40561 122.277139 
L 156.119423 122.672539 
L 158.833236 123.067939 
L 161.547048 123.463339 
L 164.260861 123.858739 
L 166.974674 124.254139 
L 169.688487 124.649539 
L 172.4023 125.044939 
L 175.116113 125.440339 
L 177.829926 125.835739 
L 180.543739 126.231139 
L 183.257551 126.626539 
L 185.971364 127.021939 
L 188.685177 127.417339 
L 191.39899 127.812739 
L 194.112803 128.208139 
L 196.826616 128.603539 
L 199.540429 128.998939 
L 202.254242 129.394339 
L 204.968054 129.789739 
L 207.681867 130.185139 
L 210.39568 130.580539 
L 213.109493 130.975939 
L 215.823306 131.371339 
L 218.537119 131.766738 
L 221.250932 132.162138 
L 223.964745 132.557538 
L 226.678557 132.952938 
L 229.39237 133.348338 
L 232.106183 133.743738 
L 234.819996 134.139138 
L 237.533809 134.534538 
L 240.247622 134.929938 
L 242.961435 135.325338 
L 245.675248 135.720738 
L 248.389061 136.116138 
L 251.102873 136.511538 
L 253.816686 136.906938 
L 256.530499 137.302338 
L 259.244312 137.697738 
L 261.958125 138.093138 
L 264.671938 138.488538 
L 267.385751 138.883938 
L 270.099564 139.279338 
L 272.813376 139.674738 
L 275.527189 140.070138 
L 278.241002 140.465538 
L 280.954815 140.860938 
L 283.668628 141.256338 
L 286.382441 141.651738 
L 289.096254 142.047138 
L 291.810067 142.442538 
L 294.523879 142.837938 
L 297.237692 143.233338 
L 299.951505 143.628738 
L 302.665318 144.024138 
L 305.379131 144.419538 
L 308.092944 144.814938 
L 310.806757 145.210338 
L 313.52057 145.605738 
L 316.234382 146.001138 
L 318.948195 146.396538 
L 321.662008 146.791938 
L 324.375821 147.187338 
L 327.089634 147.582738 
L 329.803447 147.978138 
L 332.51726 148.373538 
L 335.231073 148.768938 
L 337.944885 149.164338 
L 340.658698 149.559737 
L 343.372511 149.955137 
L 346.086324 150.350537 
L 348.800137 150.745937 
L 351.51395 151.141337 
L 354.227763 151.536737 
L 356.941576 151.932137 
L 359.655388 152.327537 
L 362.369201 152.722937 
L 365.083014 153.118337 
L 367.796827 153.513737 
L 370.51064 153.909137 
L 373.224453 154.304537 
L 375.938266 154.699937 
L 378.652079 155.095337 
L 381.365891 155.490737 
L 384.079704 155.886137 
L 386.793517 156.281537 
L 389.50733 156.676937 
L 392.221143 157.072337 
L 394.934956 157.467737 
L 397.648769 157.863137 
L 400.362582 158.258537 
L 403.076394 158.653937 
L 405.790207 159.049337 
L 408.50402 159.444737 
" clip-path="url(#pa5dc726f4d)" style="fill: none; stroke: #000000; stroke-width: 2; stroke-linecap: square"/>
   </g>
   <g id="line2d_15">
    <path d="M 173.41998 168.307369 
L 176.133793 167.771021 
L 178.847606 167.234674 
L 181.561418 166.698326 
L 184.275231 166.161978 
L 186.989044 165.62563 
L 189.702857 165.089283 
L 192.41667 164.552935 
L 195.130483 164.016587 
L 197.844296 163.480239 
L 200.558109 162.943892 
L 203.271921 162.407544 
L 205.985734 161.871196 
L 208.699547 161.334848 
L 211.41336 160.7985 
L 214.127173 160.262153 
L 216.840986 159.725805 
L 219.554799 159.189457 
L 222.268612 158.653109 
L 224.982424 158.116762 
L 227.696237 157.580414 
L 230.41005 157.044066 
L 233.123863 156.507718 
L 235.837676 155.971371 
L 238.551489 155.435023 
L 241.265302 154.898675 
L 243.979115 154.362327 
L 246.692927 153.82598 
L 249.40674 153.289632 
L 252.120553 152.753284 
L 254.834366 152.216936 
L 257.548179 151.680589 
L 260.261992 151.144241 
L 262.975805 150.607893 
L 265.689618 150.071545 
L 268.40343 149.535198 
L 271.117243 148.99885 
L 273.831056 148.462502 
L 276.544869 147.926154 
L 279.258682 147.389807 
L 281.972495 146.853459 
L 284.686308 146.317111 
L 287.400121 145.780763 
L 290.113933 145.244416 
L 292.827746 144.708068 
L 295.541559 144.17172 
L 298.255372 143.635372 
L 300.969185 143.099025 
L 303.682998 142.562677 
L 306.396811 142.026329 
L 309.110624 141.489981 
L 311.824436 140.953634 
L 314.538249 140.417286 
L 317.252062 139.880938 
L 319.965875 139.34459 
L 322.679688 138.808243 
L 325.393501 138.271895 
L 328.107314 137.735547 
L 330.821127 137.199199 
L 333.534939 136.662852 
L 336.248752 136.126504 
L 338.962565 135.590156 
L 341.676378 135.053808 
L 344.390191 134.517461 
L 347.104004 133.981113 
L 349.817817 133.444765 
L 352.53163 132.908417 
L 355.245443 132.37207 
L 357.959255 131.835722 
L 360.673068 131.299374 
L 363.386881 130.763026 
L 366.100694 130.226679 
L 368.814507 129.690331 
L 371.52832 129.153983 
L 374.242133 128.617635 
L 376.955946 128.081287 
L 379.669758 127.54494 
L 382.383571 127.008592 
L 385.097384 126.472244 
L 387.811197 125.935896 
L 390.52501 125.399549 
L 393.238823 124.863201 
L 395.952636 124.326853 
L 398.666449 123.790505 
L 401.380261 123.254158 
L 404.094074 122.71781 
L 406.807887 122.181462 
L 409.5217 121.645114 
L 412.235513 121.108767 
L 414.949326 120.572419 
L 417.663139 120.036071 
L 420.376952 119.499723 
L 423.090764 118.963376 
L 425.804577 118.427028 
L 428.51839 117.89068 
L 431.232203 117.354332 
L 433.946016 116.817985 
L 436.659829 116.281637 
L 439.373642 115.745289 
L 442.087455 115.208941 
" clip-path="url(#pa5dc726f4d)" style="fill: none; stroke: #808080; stroke-width: 2; stroke-linecap: square"/>
   </g>
   <g id="patch_3">
    <path d="M 124.724 366.28 
L 124.724 10.8 
" style="fill: none; stroke: #000000; stroke-linejoin: miter; stroke-linecap: square"/>
   </g>
   <g id="patch_4">
    <path d="M 124.724 366.28 
L 457.2 366.28 
" style="fill: none; stroke: #000000; stroke-linejoin: miter; stroke-linecap: square"/>
   </g>
   <g id="legend_1">
    <g id="patch_5">
     <path d="M 135.924 358.28 
L 222.0065 358.28 
Q 225.2065 358.28 225.2065 355.08 
L 225.2065 282.35375 
Q 225.2065 279.15375 222.0065 279.15375 
L 135.924 279.15375 
Q 132.724 279.15375 132.724 282.35375 
L 132.724 355.08 
Q 132.724 358.28 135.924 358.28 
z
" style="fill: #ffffff; opacity: 0.8; stroke: #cccccc; stroke-linejoin: miter"/>
    </g>
    <g id="text_14">
     <text style="font: 20px 'DejaVu Sans', 'Bitstream Vera Sans', 'Computer Modern Sans Serif', 'Lucida Grande', 'Verdana', 'Geneva', 'Lucid', 'Arial', 'Helvetica', 'Avant Garde', sans-serif; text-anchor: start" x="148.032438" y="300.750625" transform="rotate(-0 148.032438 300.750625)">TEPSa</text>
    </g>
    <g id="line2d_16">
     <defs>
      <path id="m674b68e584" d="M 0 5 
C 1.326016 5 2.597899 4.473168 3.535534 3.535534 
C 4.473168 2.597899 5 1.326016 5 0 
C 5 -1.326016 4.473168 -2.597899 3.535534 -3.535534 
C 2.597899 -4.473168 1.326016 -5 0 -5 
C -1.326016 -5 -2.597899 -4.473168 -3.535534 -3.535534 
C -4.473168 -2.597899 -5 -1.326016 -5 0 
C -5 1.326016 -4.473168 2.597899 -3.535534 3.535534 
C -2.597899 4.473168 -1.326016 5 0 5 
z
" style="stroke: #ffffff; stroke-width: 0.8"/>
     </defs>
     <g>
      <use xlink:href="#m674b68e584" x="155.124" y="319.4675" style="stroke: #ffffff; stroke-width: 0.8"/>
     </g>
    </g>
    <g id="text_15">
     <text style="font: 16px 'DejaVu Sans', 'Bitstream Vera Sans', 'Computer Modern Sans Serif', 'Lucida Grande', 'Verdana', 'Geneva', 'Lucid', 'Arial', 'Helvetica', 'Avant Garde', sans-serif; text-anchor: start" x="183.924" y="325.0675" transform="rotate(-0 183.924 325.0675)">low</text>
    </g>
    <g id="line2d_17">
     <defs>
      <path id="mbd416049fa" d="M 0 5 
C 1.326016 5 2.597899 4.473168 3.535534 3.535534 
C 4.473168 2.597899 5 1.326016 5 0 
C 5 -1.326016 4.473168 -2.597899 3.535534 -3.535534 
C 2.597899 -4.473168 1.326016 -5 0 -5 
C -1.326016 -5 -2.597899 -4.473168 -3.535534 -3.535534 
C -4.473168 -2.597899 -5 -1.326016 -5 0 
C -5 1.326016 -4.473168 2.597899 -3.535534 3.535534 
C -2.597899 4.473168 -1.326016 5 0 5 
z
" style="stroke: #ffffff; stroke-width: 0.8"/>
     </defs>
     <g>
      <use xlink:href="#mbd416049fa" x="155.124" y="342.9525" style="fill: #808080; stroke: #ffffff; stroke-width: 0.8"/>
     </g>
    </g>
    <g id="text_16">
     <text style="font: 16px 'DejaVu Sans', 'Bitstream Vera Sans', 'Computer Modern Sans Serif', 'Lucida Grande', 'Verdana', 'Geneva', 'Lucid', 'Arial', 'Helvetica', 'Avant Garde', sans-serif; text-anchor: start" x="183.924" y="348.5525" transform="rotate(-0 183.924 348.5525)">high</text>
    </g>
   </g>
  </g>
 </g>
 <defs>
  <clipPath id="pa5dc726f4d">
   <rect x="124.724" y="10.8" width="332.476" height="355.48"/>
  </clipPath>
 </defs>
</svg>
