<?xml version="1.0" encoding="utf-8" standalone="no"?>
<!DOCTYPE svg PUBLIC "-//W3C//DTD SVG 1.1//EN"
  "http://www.w3.org/Graphics/SVG/1.1/DTD/svg11.dtd">
<svg xmlns:xlink="http://www.w3.org/1999/xlink" width="468pt" height="432pt" viewBox="0 0 468 432" xmlns="http://www.w3.org/2000/svg" version="1.1">
 <metadata>
  <rdf:RDF xmlns:dc="http://purl.org/dc/elements/1.1/" xmlns:cc="http://creativecommons.org/ns#" xmlns:rdf="http://www.w3.org/1999/02/22-rdf-syntax-ns#">
   <cc:Work>
    <dc:type rdf:resource="http://purl.org/dc/dcmitype/StillImage"/>
    <dc:date>2025-04-30T14:47:02.625709</dc:date>
    <dc:format>image/svg+xml</dc:format>
    <dc:creator>
     <cc:Agent>
      <dc:title>Matplotlib v3.9.2, https://matplotlib.org/</dc:title>
     </cc:Agent>
    </dc:creator>
   </cc:Work>
  </rdf:RDF>
 </metadata>
 <defs>
  <style type="text/css">*{stroke-linejoin: round; stroke-linecap: butt}</style>
 </defs>
 <g id="figure_1">
  <g id="patch_1">
   <path d="M 0 432 
L 468 432 
L 468 0 
L 0 0 
z
" style="fill: #ffffff"/>
  </g>
  <g id="axes_1">
   <g id="patch_2">
    <path d="M 124.994 366.28 
L 457.2 366.28 
L 457.2 10.8 
L 124.994 10.8 
z
" style="fill: #ffffff"/>
   </g>
   <g id="PathCollection_1">
    <path d="M 140.094273 130.389111 
C 141.420288 130.389111 142.692172 129.86228 143.629807 128.924645 
C 144.567441 127.987011 145.094273 126.715127 145.094273 125.389111 
C 145.094273 124.063096 144.567441 122.791212 143.629807 121.853577 
C 142.692172 120.915943 141.420288 120.389111 140.094273 120.389111 
C 138.768257 120.389111 137.496373 120.915943 136.558739 121.853577 
C 135.621104 122.791212 135.094273 124.063096 135.094273 125.389111 
C 135.094273 126.715127 135.621104 127.987011 136.558739 128.924645 
C 137.496373 129.86228 138.768257 130.389111 140.094273 130.389111 
z
" clip-path="url(#p86275aecb7)" style="stroke: #ffffff; stroke-width: 0.8"/>
    <path d="M 140.094273 149.300418 
C 141.420288 149.300418 142.692172 148.773586 143.629807 147.835952 
C 144.567441 146.898317 145.094273 145.626433 145.094273 144.300418 
C 145.094273 142.974402 144.567441 141.702518 143.629807 140.764884 
C 142.692172 139.827249 141.420288 139.300418 140.094273 139.300418 
C 138.768257 139.300418 137.496373 139.827249 136.558739 140.764884 
C 135.621104 141.702518 135.094273 142.974402 135.094273 144.300418 
C 135.094273 145.626433 135.621104 146.898317 136.558739 147.835952 
C 137.496373 148.773586 138.768257 149.300418 140.094273 149.300418 
z
" clip-path="url(#p86275aecb7)" style="stroke: #ffffff; stroke-width: 0.8"/>
    <path d="M 442.099727 92.44247 
C 443.425743 92.44247 444.697627 91.915639 445.635261 90.978004 
C 446.572896 90.040369 447.099727 88.768486 447.099727 87.44247 
C 447.099727 86.116455 446.572896 84.844571 445.635261 83.906936 
C 444.697627 82.969302 443.425743 82.44247 442.099727 82.44247 
C 440.773712 82.44247 439.501828 82.969302 438.564193 83.906936 
C 437.626559 84.844571 437.099727 86.116455 437.099727 87.44247 
C 437.099727 88.768486 437.626559 90.040369 438.564193 90.978004 
C 439.501828 91.915639 440.773712 92.44247 442.099727 92.44247 
z
" clip-path="url(#p86275aecb7)" style="fill: #808080; stroke: #ffffff; stroke-width: 0.8"/>
    <path d="M 374.987404 106.510781 
C 376.31342 106.510781 377.585303 105.98395 378.522938 105.046315 
C 379.460572 104.108681 379.987404 102.836797 379.987404 101.510781 
C 379.987404 100.184766 379.460572 98.912882 378.522938 97.975247 
C 377.585303 97.037613 376.31342 96.510781 374.987404 96.510781 
C 373.661389 96.510781 372.389505 97.037613 371.45187 97.975247 
C 370.514236 98.912882 369.987404 100.184766 369.987404 101.510781 
C 369.987404 102.836797 370.514236 104.108681 371.45187 105.046315 
C 372.389505 105.98395 373.661389 106.510781 374.987404 106.510781 
z
" clip-path="url(#p86275aecb7)" style="fill: #808080; stroke: #ffffff; stroke-width: 0.8"/>
    <path d="M 408.543566 165.311833 
C 409.869581 165.311833 411.141465 164.785002 412.0791 163.847367 
C 413.016734 162.909733 413.543566 161.637849 413.543566 160.311833 
C 413.543566 158.985818 413.016734 157.713934 412.0791 156.776299 
C 411.141465 155.838665 409.869581 155.311833 408.543566 155.311833 
C 407.21755 155.311833 405.945666 155.838665 405.008032 156.776299 
C 404.070397 157.713934 403.543566 158.985818 403.543566 160.311833 
C 403.543566 161.637849 404.070397 162.909733 405.008032 163.847367 
C 405.945666 164.785002 407.21755 165.311833 408.543566 165.311833 
z
" clip-path="url(#p86275aecb7)" style="stroke: #ffffff; stroke-width: 0.8"/>
    <path d="M 307.875081 112.936609 
C 309.201096 112.936609 310.47298 112.409778 311.410615 111.472143 
C 312.348249 110.534509 312.875081 109.262625 312.875081 107.936609 
C 312.875081 106.610594 312.348249 105.33871 311.410615 104.401075 
C 310.47298 103.463441 309.201096 102.936609 307.875081 102.936609 
C 306.549065 102.936609 305.277181 103.463441 304.339547 104.401075 
C 303.401912 105.33871 302.875081 106.610594 302.875081 107.936609 
C 302.875081 109.262625 303.401912 110.534509 304.339547 111.472143 
C 305.277181 112.409778 306.549065 112.936609 307.875081 112.936609 
z
" clip-path="url(#p86275aecb7)" style="stroke: #ffffff; stroke-width: 0.8"/>
    <path d="M 374.987404 127.991238 
C 376.31342 127.991238 377.585303 127.464406 378.522938 126.526772 
C 379.460572 125.589137 379.987404 124.317253 379.987404 122.991238 
C 379.987404 121.665222 379.460572 120.393339 378.522938 119.455704 
C 377.585303 118.518069 376.31342 117.991238 374.987404 117.991238 
C 373.661389 117.991238 372.389505 118.518069 371.45187 119.455704 
C 370.514236 120.393339 369.987404 121.665222 369.987404 122.991238 
C 369.987404 124.317253 370.514236 125.589137 371.45187 126.526772 
C 372.389505 127.464406 373.661389 127.991238 374.987404 127.991238 
z
" clip-path="url(#p86275aecb7)" style="fill: #808080; stroke: #ffffff; stroke-width: 0.8"/>
    <path d="M 307.875081 170.148923 
C 309.201096 170.148923 310.47298 169.622091 311.410615 168.684457 
C 312.348249 167.746822 312.875081 166.474938 312.875081 165.148923 
C 312.875081 163.822907 312.348249 162.551023 311.410615 161.613389 
C 310.47298 160.675754 309.201096 160.148923 307.875081 160.148923 
C 306.549065 160.148923 305.277181 160.675754 304.339547 161.613389 
C 303.401912 162.551023 302.875081 163.822907 302.875081 165.148923 
C 302.875081 166.474938 303.401912 167.746822 304.339547 168.684457 
C 305.277181 169.622091 306.549065 170.148923 307.875081 170.148923 
z
" clip-path="url(#p86275aecb7)" style="stroke: #ffffff; stroke-width: 0.8"/>
    <path d="M 307.875081 122.498572 
C 309.201096 122.498572 310.47298 121.971741 311.410615 121.034106 
C 312.348249 120.096472 312.875081 118.824588 312.875081 117.498572 
C 312.875081 116.172557 312.348249 114.900673 311.410615 113.963038 
C 310.47298 113.025404 309.201096 112.498572 307.875081 112.498572 
C 306.549065 112.498572 305.277181 113.025404 304.339547 113.963038 
C 303.401912 114.900673 302.875081 116.172557 302.875081 117.498572 
C 302.875081 118.824588 303.401912 120.096472 304.339547 121.034106 
C 305.277181 121.971741 306.549065 122.498572 307.875081 122.498572 
z
" clip-path="url(#p86275aecb7)" style="stroke: #ffffff; stroke-width: 0.8"/>
    <path d="M 173.650434 140.961016 
C 174.97645 140.961016 176.248334 140.434184 177.185968 139.49655 
C 178.123603 138.558915 178.650434 137.287031 178.650434 135.961016 
C 178.650434 134.635 178.123603 133.363117 177.185968 132.425482 
C 176.248334 131.487847 174.97645 130.961016 173.650434 130.961016 
C 172.324419 130.961016 171.052535 131.487847 170.1149 132.425482 
C 169.177266 133.363117 168.650434 134.635 168.650434 135.961016 
C 168.650434 137.287031 169.177266 138.558915 170.1149 139.49655 
C 171.052535 140.434184 172.324419 140.961016 173.650434 140.961016 
z
" clip-path="url(#p86275aecb7)" style="stroke: #ffffff; stroke-width: 0.8"/>
    <path d="M 307.875081 176.196761 
C 309.201096 176.196761 310.47298 175.669929 311.410615 174.732295 
C 312.348249 173.79466 312.875081 172.522776 312.875081 171.196761 
C 312.875081 169.870745 312.348249 168.598861 311.410615 167.661227 
C 310.47298 166.723592 309.201096 166.196761 307.875081 166.196761 
C 306.549065 166.196761 305.277181 166.723592 304.339547 167.661227 
C 303.401912 168.598861 302.875081 169.870745 302.875081 171.196761 
C 302.875081 172.522776 303.401912 173.79466 304.339547 174.732295 
C 305.277181 175.669929 306.549065 176.196761 307.875081 176.196761 
z
" clip-path="url(#p86275aecb7)" style="fill: #808080; stroke: #ffffff; stroke-width: 0.8"/>
    <path d="M 274.318919 31.958182 
C 275.644935 31.958182 276.916819 31.43135 277.854453 30.493716 
C 278.792088 29.556081 279.318919 28.284197 279.318919 26.958182 
C 279.318919 25.632166 278.792088 24.360282 277.854453 23.422648 
C 276.916819 22.485013 275.644935 21.958182 274.318919 21.958182 
C 272.992904 21.958182 271.72102 22.485013 270.783385 23.422648 
C 269.845751 24.360282 269.318919 25.632166 269.318919 26.958182 
C 269.318919 28.284197 269.845751 29.556081 270.783385 30.493716 
C 271.72102 31.43135 272.992904 31.958182 274.318919 31.958182 
z
" clip-path="url(#p86275aecb7)" style="stroke: #ffffff; stroke-width: 0.8"/>
    <path d="M 408.543566 101.307514 
C 409.869581 101.307514 411.141465 100.780683 412.0791 99.843048 
C 413.016734 98.905414 413.543566 97.63353 413.543566 96.307514 
C 413.543566 94.981499 413.016734 93.709615 412.0791 92.77198 
C 411.141465 91.834346 409.869581 91.307514 408.543566 91.307514 
C 407.21755 91.307514 405.945666 91.834346 405.008032 92.77198 
C 404.070397 93.709615 403.543566 94.981499 403.543566 96.307514 
C 403.543566 97.63353 404.070397 98.905414 405.008032 99.843048 
C 405.945666 100.780683 407.21755 101.307514 408.543566 101.307514 
z
" clip-path="url(#p86275aecb7)" style="fill: #808080; stroke: #ffffff; stroke-width: 0.8"/>
    <path d="M 442.099727 95.070681 
C 443.425743 95.070681 444.697627 94.543849 445.635261 93.606215 
C 446.572896 92.66858 447.099727 91.396697 447.099727 90.070681 
C 447.099727 88.744666 446.572896 87.472782 445.635261 86.535147 
C 444.697627 85.597513 443.425743 85.070681 442.099727 85.070681 
C 440.773712 85.070681 439.501828 85.597513 438.564193 86.535147 
C 437.626559 87.472782 437.099727 88.744666 437.099727 90.070681 
C 437.099727 91.396697 437.626559 92.66858 438.564193 93.606215 
C 439.501828 94.543849 440.773712 95.070681 442.099727 95.070681 
z
" clip-path="url(#p86275aecb7)" style="fill: #808080; stroke: #ffffff; stroke-width: 0.8"/>
    <path d="M 408.543566 265.27244 
C 409.869581 265.27244 411.141465 264.745609 412.0791 263.807974 
C 413.016734 262.87034 413.543566 261.598456 413.543566 260.27244 
C 413.543566 258.946425 413.016734 257.674541 412.0791 256.736907 
C 411.141465 255.799272 409.869581 255.27244 408.543566 255.27244 
C 407.21755 255.27244 405.945666 255.799272 405.008032 256.736907 
C 404.070397 257.674541 403.543566 258.946425 403.543566 260.27244 
C 403.543566 261.598456 404.070397 262.87034 405.008032 263.807974 
C 405.945666 264.745609 407.21755 265.27244 408.543566 265.27244 
z
" clip-path="url(#p86275aecb7)" style="stroke: #ffffff; stroke-width: 0.8"/>
    <path d="M 207.206596 126.000885 
C 208.532611 126.000885 209.804495 125.474053 210.74213 124.536419 
C 211.679764 123.598784 212.206596 122.3269 212.206596 121.000885 
C 212.206596 119.674869 211.679764 118.402985 210.74213 117.465351 
C 209.804495 116.527716 208.532611 116.000885 207.206596 116.000885 
C 205.88058 116.000885 204.608697 116.527716 203.671062 117.465351 
C 202.733428 118.402985 202.206596 119.674869 202.206596 121.000885 
C 202.206596 122.3269 202.733428 123.598784 203.671062 124.536419 
C 204.608697 125.474053 205.88058 126.000885 207.206596 126.000885 
z
" clip-path="url(#p86275aecb7)" style="fill: #808080; stroke: #ffffff; stroke-width: 0.8"/>
    <path d="M 442.099727 114.613939 
C 443.425743 114.613939 444.697627 114.087108 445.635261 113.149473 
C 446.572896 112.211839 447.099727 110.939955 447.099727 109.613939 
C 447.099727 108.287924 446.572896 107.01604 445.635261 106.078406 
C 444.697627 105.140771 443.425743 104.613939 442.099727 104.613939 
C 440.773712 104.613939 439.501828 105.140771 438.564193 106.078406 
C 437.626559 107.01604 437.099727 108.287924 437.099727 109.613939 
C 437.099727 110.939955 437.626559 112.211839 438.564193 113.149473 
C 439.501828 114.087108 440.773712 114.613939 442.099727 114.613939 
z
" clip-path="url(#p86275aecb7)" style="fill: #808080; stroke: #ffffff; stroke-width: 0.8"/>
    <path d="M 207.206596 51.572313 
C 208.532611 51.572313 209.804495 51.045482 210.74213 50.107847 
C 211.679764 49.170213 212.206596 47.898329 212.206596 46.572313 
C 212.206596 45.246298 211.679764 43.974414 210.74213 43.036779 
C 209.804495 42.099145 208.532611 41.572313 207.206596 41.572313 
C 205.88058 41.572313 204.608697 42.099145 203.671062 43.036779 
C 202.733428 43.974414 202.206596 45.246298 202.206596 46.572313 
C 202.206596 47.898329 202.733428 49.170213 203.671062 50.107847 
C 204.608697 51.045482 205.88058 51.572313 207.206596 51.572313 
z
" clip-path="url(#p86275aecb7)" style="fill: #808080; stroke: #ffffff; stroke-width: 0.8"/>
    <path d="M 240.762758 198.391855 
C 242.088773 198.391855 243.360657 197.865023 244.298291 196.927388 
C 245.235926 195.989754 245.762758 194.71787 245.762758 193.391855 
C 245.762758 192.065839 245.235926 190.793955 244.298291 189.856321 
C 243.360657 188.918686 242.088773 188.391855 240.762758 188.391855 
C 239.436742 188.391855 238.164858 188.918686 237.227224 189.856321 
C 236.289589 190.793955 235.762758 192.065839 235.762758 193.391855 
C 235.762758 194.71787 236.289589 195.989754 237.227224 196.927388 
C 238.164858 197.865023 239.436742 198.391855 240.762758 198.391855 
z
" clip-path="url(#p86275aecb7)" style="fill: #808080; stroke: #ffffff; stroke-width: 0.8"/>
    <path d="M 341.431242 355.121818 
C 342.757258 355.121818 344.029142 354.594987 344.966776 353.657352 
C 345.904411 352.719718 346.431242 351.447834 346.431242 350.121818 
C 346.431242 348.795803 345.904411 347.523919 344.966776 346.586284 
C 344.029142 345.64865 342.757258 345.121818 341.431242 345.121818 
C 340.105227 345.121818 338.833343 345.64865 337.895709 346.586284 
C 336.958074 347.523919 336.431242 348.795803 336.431242 350.121818 
C 336.431242 351.447834 336.958074 352.719718 337.895709 353.657352 
C 338.833343 354.594987 340.105227 355.121818 341.431242 355.121818 
z
" clip-path="url(#p86275aecb7)" style="fill: #808080; stroke: #ffffff; stroke-width: 0.8"/>
    <path d="M 408.543566 126.290283 
C 409.869581 126.290283 411.141465 125.763452 412.0791 124.825817 
C 413.016734 123.888183 413.543566 122.616299 413.543566 121.290283 
C 413.543566 119.964268 413.016734 118.692384 412.0791 117.754749 
C 411.141465 116.817115 409.869581 116.290283 408.543566 116.290283 
C 407.21755 116.290283 405.945666 116.817115 405.008032 117.754749 
C 404.070397 118.692384 403.543566 119.964268 403.543566 121.290283 
C 403.543566 122.616299 404.070397 123.888183 405.008032 124.825817 
C 405.945666 125.763452 407.21755 126.290283 408.543566 126.290283 
z
" clip-path="url(#p86275aecb7)" style="fill: #808080; stroke: #ffffff; stroke-width: 0.8"/>
    <path d="M 341.431242 123.396298 
C 342.757258 123.396298 344.029142 122.869467 344.966776 121.931832 
C 345.904411 120.994198 346.431242 119.722314 346.431242 118.396298 
C 346.431242 117.070283 345.904411 115.798399 344.966776 114.860764 
C 344.029142 113.92313 342.757258 113.396298 341.431242 113.396298 
C 340.105227 113.396298 338.833343 113.92313 337.895709 114.860764 
C 336.958074 115.798399 336.431242 117.070283 336.431242 118.396298 
C 336.431242 119.722314 336.958074 120.994198 337.895709 121.931832 
C 338.833343 122.869467 340.105227 123.396298 341.431242 123.396298 
z
" clip-path="url(#p86275aecb7)" style="fill: #808080; stroke: #ffffff; stroke-width: 0.8"/>
    <path d="M 408.543566 106.5285 
C 409.869581 106.5285 411.141465 106.001668 412.0791 105.064033 
C 413.016734 104.126399 413.543566 102.854515 413.543566 101.5285 
C 413.543566 100.202484 413.016734 98.9306 412.0791 97.992966 
C 411.141465 97.055331 409.869581 96.5285 408.543566 96.5285 
C 407.21755 96.5285 405.945666 97.055331 405.008032 97.992966 
C 404.070397 98.9306 403.543566 100.202484 403.543566 101.5285 
C 403.543566 102.854515 404.070397 104.126399 405.008032 105.064033 
C 405.945666 106.001668 407.21755 106.5285 408.543566 106.5285 
z
" clip-path="url(#p86275aecb7)" style="fill: #808080; stroke: #ffffff; stroke-width: 0.8"/>
    <path d="M 173.650434 141.63431 
C 174.97645 141.63431 176.248334 141.107479 177.185968 140.169844 
C 178.123603 139.23221 178.650434 137.960326 178.650434 136.63431 
C 178.650434 135.308295 178.123603 134.036411 177.185968 133.098776 
C 176.248334 132.161142 174.97645 131.63431 173.650434 131.63431 
C 172.324419 131.63431 171.052535 132.161142 170.1149 133.098776 
C 169.177266 134.036411 168.650434 135.308295 168.650434 136.63431 
C 168.650434 137.960326 169.177266 139.23221 170.1149 140.169844 
C 171.052535 141.107479 172.324419 141.63431 173.650434 141.63431 
z
" clip-path="url(#p86275aecb7)" style="fill: #808080; stroke: #ffffff; stroke-width: 0.8"/>
    <path d="M 274.318919 122.734816 
C 275.644935 122.734816 276.916819 122.207984 277.854453 121.27035 
C 278.792088 120.332715 279.318919 119.060831 279.318919 117.734816 
C 279.318919 116.4088 278.792088 115.136917 277.854453 114.199282 
C 276.916819 113.261648 275.644935 112.734816 274.318919 112.734816 
C 272.992904 112.734816 271.72102 113.261648 270.783385 114.199282 
C 269.845751 115.136917 269.318919 116.4088 269.318919 117.734816 
C 269.318919 119.060831 269.845751 120.332715 270.783385 121.27035 
C 271.72102 122.207984 272.992904 122.734816 274.318919 122.734816 
z
" clip-path="url(#p86275aecb7)" style="stroke: #ffffff; stroke-width: 0.8"/>
    <path d="M 374.987404 119.515996 
C 376.31342 119.515996 377.585303 118.989164 378.522938 118.05153 
C 379.460572 117.113895 379.987404 115.842011 379.987404 114.515996 
C 379.987404 113.18998 379.460572 111.918096 378.522938 110.980462 
C 377.585303 110.042827 376.31342 109.515996 374.987404 109.515996 
C 373.661389 109.515996 372.389505 110.042827 371.45187 110.980462 
C 370.514236 111.918096 369.987404 113.18998 369.987404 114.515996 
C 369.987404 115.842011 370.514236 117.113895 371.45187 118.05153 
C 372.389505 118.989164 373.661389 119.515996 374.987404 119.515996 
z
" clip-path="url(#p86275aecb7)" style="stroke: #ffffff; stroke-width: 0.8"/>
    <path d="M 207.206596 90.971853 
C 208.532611 90.971853 209.804495 90.445022 210.74213 89.507387 
C 211.679764 88.569753 212.206596 87.297869 212.206596 85.971853 
C 212.206596 84.645838 211.679764 83.373954 210.74213 82.436319 
C 209.804495 81.498685 208.532611 80.971853 207.206596 80.971853 
C 205.88058 80.971853 204.608697 81.498685 203.671062 82.436319 
C 202.733428 83.373954 202.206596 84.645838 202.206596 85.971853 
C 202.206596 87.297869 202.733428 88.569753 203.671062 89.507387 
C 204.608697 90.445022 205.88058 90.971853 207.206596 90.971853 
z
" clip-path="url(#p86275aecb7)" style="fill: #808080; stroke: #ffffff; stroke-width: 0.8"/>
    <path d="M 374.987404 139.053348 
C 376.31342 139.053348 377.585303 138.526517 378.522938 137.588882 
C 379.460572 136.651248 379.987404 135.379364 379.987404 134.053348 
C 379.987404 132.727333 379.460572 131.455449 378.522938 130.517814 
C 377.585303 129.58018 376.31342 129.053348 374.987404 129.053348 
C 373.661389 129.053348 372.389505 129.58018 371.45187 130.517814 
C 370.514236 131.455449 369.987404 132.727333 369.987404 134.053348 
C 369.987404 135.379364 370.514236 136.651248 371.45187 137.588882 
C 372.389505 138.526517 373.661389 139.053348 374.987404 139.053348 
z
" clip-path="url(#p86275aecb7)" style="fill: #808080; stroke: #ffffff; stroke-width: 0.8"/>
    <path d="M 240.762758 111.412838 
C 242.088773 111.412838 243.360657 110.886006 244.298291 109.948371 
C 245.235926 109.010737 245.762758 107.738853 245.762758 106.412838 
C 245.762758 105.086822 245.235926 103.814938 244.298291 102.877304 
C 243.360657 101.939669 242.088773 101.412838 240.762758 101.412838 
C 239.436742 101.412838 238.164858 101.939669 237.227224 102.877304 
C 236.289589 103.814938 235.762758 105.086822 235.762758 106.412838 
C 235.762758 107.738853 236.289589 109.010737 237.227224 109.948371 
C 238.164858 110.886006 239.436742 111.412838 240.762758 111.412838 
z
" clip-path="url(#p86275aecb7)" style="stroke: #ffffff; stroke-width: 0.8"/>
    <path d="M 140.094273 188.251095 
C 141.420288 188.251095 142.692172 187.724263 143.629807 186.786629 
C 144.567441 185.848994 145.094273 184.57711 145.094273 183.251095 
C 145.094273 181.925079 144.567441 180.653195 143.629807 179.715561 
C 142.692172 178.777926 141.420288 178.251095 140.094273 178.251095 
C 138.768257 178.251095 137.496373 178.777926 136.558739 179.715561 
C 135.621104 180.653195 135.094273 181.925079 135.094273 183.251095 
C 135.094273 184.57711 135.621104 185.848994 136.558739 186.786629 
C 137.496373 187.724263 138.768257 188.251095 140.094273 188.251095 
z
" clip-path="url(#p86275aecb7)" style="stroke: #ffffff; stroke-width: 0.8"/>
    <path d="M 207.206596 133.3835 
C 208.532611 133.3835 209.804495 132.856668 210.74213 131.919034 
C 211.679764 130.981399 212.206596 129.709515 212.206596 128.3835 
C 212.206596 127.057484 211.679764 125.785601 210.74213 124.847966 
C 209.804495 123.910331 208.532611 123.3835 207.206596 123.3835 
C 205.88058 123.3835 204.608697 123.910331 203.671062 124.847966 
C 202.733428 125.785601 202.206596 127.057484 202.206596 128.3835 
C 202.206596 129.709515 202.733428 130.981399 203.671062 131.919034 
C 204.608697 132.856668 205.88058 133.3835 207.206596 133.3835 
z
" clip-path="url(#p86275aecb7)" style="stroke: #ffffff; stroke-width: 0.8"/>
    <path d="M 240.762758 279.193099 
C 242.088773 279.193099 243.360657 278.666268 244.298291 277.728633 
C 245.235926 276.790999 245.762758 275.519115 245.762758 274.193099 
C 245.762758 272.867084 245.235926 271.5952 244.298291 270.657565 
C 243.360657 269.719931 242.088773 269.193099 240.762758 269.193099 
C 239.436742 269.193099 238.164858 269.719931 237.227224 270.657565 
C 236.289589 271.5952 235.762758 272.867084 235.762758 274.193099 
C 235.762758 275.519115 236.289589 276.790999 237.227224 277.728633 
C 238.164858 278.666268 239.436742 279.193099 240.762758 279.193099 
z
" clip-path="url(#p86275aecb7)" style="fill: #808080; stroke: #ffffff; stroke-width: 0.8"/>
    <path d="M 341.431242 216.925171 
C 342.757258 216.925171 344.029142 216.39834 344.966776 215.460705 
C 345.904411 214.523071 346.431242 213.251187 346.431242 211.925171 
C 346.431242 210.599156 345.904411 209.327272 344.966776 208.389637 
C 344.029142 207.452003 342.757258 206.925171 341.431242 206.925171 
C 340.105227 206.925171 338.833343 207.452003 337.895709 208.389637 
C 336.958074 209.327272 336.431242 210.599156 336.431242 211.925171 
C 336.431242 213.251187 336.958074 214.523071 337.895709 215.460705 
C 338.833343 216.39834 340.105227 216.925171 341.431242 216.925171 
z
" clip-path="url(#p86275aecb7)" style="stroke: #ffffff; stroke-width: 0.8"/>
    <path d="M 173.650434 106.481251 
C 174.97645 106.481251 176.248334 105.954419 177.185968 105.016785 
C 178.123603 104.07915 178.650434 102.807266 178.650434 101.481251 
C 178.650434 100.155235 178.123603 98.883351 177.185968 97.945717 
C 176.248334 97.008082 174.97645 96.481251 173.650434 96.481251 
C 172.324419 96.481251 171.052535 97.008082 170.1149 97.945717 
C 169.177266 98.883351 168.650434 100.155235 168.650434 101.481251 
C 168.650434 102.807266 169.177266 104.07915 170.1149 105.016785 
C 171.052535 105.954419 172.324419 106.481251 173.650434 106.481251 
z
" clip-path="url(#p86275aecb7)" style="stroke: #ffffff; stroke-width: 0.8"/>
    <path d="M 374.987404 150.942311 
C 376.31342 150.942311 377.585303 150.41548 378.522938 149.477845 
C 379.460572 148.540211 379.987404 147.268327 379.987404 145.942311 
C 379.987404 144.616296 379.460572 143.344412 378.522938 142.406777 
C 377.585303 141.469143 376.31342 140.942311 374.987404 140.942311 
C 373.661389 140.942311 372.389505 141.469143 371.45187 142.406777 
C 370.514236 143.344412 369.987404 144.616296 369.987404 145.942311 
C 369.987404 147.268327 370.514236 148.540211 371.45187 149.477845 
C 372.389505 150.41548 373.661389 150.942311 374.987404 150.942311 
z
" clip-path="url(#p86275aecb7)" style="stroke: #ffffff; stroke-width: 0.8"/>
    <path d="M 442.099727 75.940849 
C 443.425743 75.940849 444.697627 75.414017 445.635261 74.476383 
C 446.572896 73.538748 447.099727 72.266864 447.099727 70.940849 
C 447.099727 69.614833 446.572896 68.34295 445.635261 67.405315 
C 444.697627 66.467681 443.425743 65.940849 442.099727 65.940849 
C 440.773712 65.940849 439.501828 66.467681 438.564193 67.405315 
C 437.626559 68.34295 437.099727 69.614833 437.099727 70.940849 
C 437.099727 72.266864 437.626559 73.538748 438.564193 74.476383 
C 439.501828 75.414017 440.773712 75.940849 442.099727 75.940849 
z
" clip-path="url(#p86275aecb7)" style="fill: #808080; stroke: #ffffff; stroke-width: 0.8"/>
    <path d="M 307.875081 166.315869 
C 309.201096 166.315869 310.47298 165.789037 311.410615 164.851403 
C 312.348249 163.913768 312.875081 162.641884 312.875081 161.315869 
C 312.875081 159.989853 312.348249 158.71797 311.410615 157.780335 
C 310.47298 156.8427 309.201096 156.315869 307.875081 156.315869 
C 306.549065 156.315869 305.277181 156.8427 304.339547 157.780335 
C 303.401912 158.71797 302.875081 159.989853 302.875081 161.315869 
C 302.875081 162.641884 303.401912 163.913768 304.339547 164.851403 
C 305.277181 165.789037 306.549065 166.315869 307.875081 166.315869 
z
" clip-path="url(#p86275aecb7)" style="fill: #808080; stroke: #ffffff; stroke-width: 0.8"/>
    <path d="M 240.762758 138.120186 
C 242.088773 138.120186 243.360657 137.593354 244.298291 136.65572 
C 245.235926 135.718085 245.762758 134.446201 245.762758 133.120186 
C 245.762758 131.79417 245.235926 130.522286 244.298291 129.584652 
C 243.360657 128.647017 242.088773 128.120186 240.762758 128.120186 
C 239.436742 128.120186 238.164858 128.647017 237.227224 129.584652 
C 236.289589 130.522286 235.762758 131.79417 235.762758 133.120186 
C 235.762758 134.446201 236.289589 135.718085 237.227224 136.65572 
C 238.164858 137.593354 239.436742 138.120186 240.762758 138.120186 
z
" clip-path="url(#p86275aecb7)" style="stroke: #ffffff; stroke-width: 0.8"/>
    <path d="M 274.318919 144.764539 
C 275.644935 144.764539 276.916819 144.237708 277.854453 143.300073 
C 278.792088 142.362439 279.318919 141.090555 279.318919 139.764539 
C 279.318919 138.438524 278.792088 137.16664 277.854453 136.229005 
C 276.916819 135.291371 275.644935 134.764539 274.318919 134.764539 
C 272.992904 134.764539 271.72102 135.291371 270.783385 136.229005 
C 269.845751 137.16664 269.318919 138.438524 269.318919 139.764539 
C 269.318919 141.090555 269.845751 142.362439 270.783385 143.300073 
C 271.72102 144.237708 272.992904 144.764539 274.318919 144.764539 
z
" clip-path="url(#p86275aecb7)" style="stroke: #ffffff; stroke-width: 0.8"/>
    <path d="M 140.094273 112.735802 
C 141.420288 112.735802 142.692172 112.208971 143.629807 111.271336 
C 144.567441 110.333702 145.094273 109.061818 145.094273 107.735802 
C 145.094273 106.409787 144.567441 105.137903 143.629807 104.200268 
C 142.692172 103.262634 141.420288 102.735802 140.094273 102.735802 
C 138.768257 102.735802 137.496373 103.262634 136.558739 104.200268 
C 135.621104 105.137903 135.094273 106.409787 135.094273 107.735802 
C 135.094273 109.061818 135.621104 110.333702 136.558739 111.271336 
C 137.496373 112.208971 138.768257 112.735802 140.094273 112.735802 
z
" clip-path="url(#p86275aecb7)" style="stroke: #ffffff; stroke-width: 0.8"/>
    <path d="M 341.431242 110.072155 
C 342.757258 110.072155 344.029142 109.545323 344.966776 108.607689 
C 345.904411 107.670054 346.431242 106.39817 346.431242 105.072155 
C 346.431242 103.746139 345.904411 102.474255 344.966776 101.536621 
C 344.029142 100.598986 342.757258 100.072155 341.431242 100.072155 
C 340.105227 100.072155 338.833343 100.598986 337.895709 101.536621 
C 336.958074 102.474255 336.431242 103.746139 336.431242 105.072155 
C 336.431242 106.39817 336.958074 107.670054 337.895709 108.607689 
C 338.833343 109.545323 340.105227 110.072155 341.431242 110.072155 
z
" clip-path="url(#p86275aecb7)" style="fill: #808080; stroke: #ffffff; stroke-width: 0.8"/>
    <path d="M 173.650434 214.314679 
C 174.97645 214.314679 176.248334 213.787847 177.185968 212.850213 
C 178.123603 211.912578 178.650434 210.640694 178.650434 209.314679 
C 178.650434 207.988663 178.123603 206.716779 177.185968 205.779145 
C 176.248334 204.84151 174.97645 204.314679 173.650434 204.314679 
C 172.324419 204.314679 171.052535 204.84151 170.1149 205.779145 
C 169.177266 206.716779 168.650434 207.988663 168.650434 209.314679 
C 168.650434 210.640694 169.177266 211.912578 170.1149 212.850213 
C 171.052535 213.787847 172.324419 214.314679 173.650434 214.314679 
z
" clip-path="url(#p86275aecb7)" style="fill: #808080; stroke: #ffffff; stroke-width: 0.8"/>
    <path d="M 207.206596 126.119007 
C 208.532611 126.119007 209.804495 125.592175 210.74213 124.654541 
C 211.679764 123.716906 212.206596 122.445022 212.206596 121.119007 
C 212.206596 119.792991 211.679764 118.521107 210.74213 117.583473 
C 209.804495 116.645838 208.532611 116.119007 207.206596 116.119007 
C 205.88058 116.119007 204.608697 116.645838 203.671062 117.583473 
C 202.733428 118.521107 202.206596 119.792991 202.206596 121.119007 
C 202.206596 122.445022 202.733428 123.716906 203.671062 124.654541 
C 204.608697 125.592175 205.88058 126.119007 207.206596 126.119007 
z
" clip-path="url(#p86275aecb7)" style="stroke: #ffffff; stroke-width: 0.8"/>
    <path d="M 173.650434 138.828917 
C 174.97645 138.828917 176.248334 138.302085 177.185968 137.364451 
C 178.123603 136.426816 178.650434 135.154932 178.650434 133.828917 
C 178.650434 132.502901 178.123603 131.231017 177.185968 130.293383 
C 176.248334 129.355748 174.97645 128.828917 173.650434 128.828917 
C 172.324419 128.828917 171.052535 129.355748 170.1149 130.293383 
C 169.177266 131.231017 168.650434 132.502901 168.650434 133.828917 
C 168.650434 135.154932 169.177266 136.426816 170.1149 137.364451 
C 171.052535 138.302085 172.324419 138.828917 173.650434 138.828917 
z
" clip-path="url(#p86275aecb7)" style="stroke: #ffffff; stroke-width: 0.8"/>
    <path d="M 173.650434 159.677421 
C 174.97645 159.677421 176.248334 159.15059 177.185968 158.212955 
C 178.123603 157.275321 178.650434 156.003437 178.650434 154.677421 
C 178.650434 153.351406 178.123603 152.079522 177.185968 151.141888 
C 176.248334 150.204253 174.97645 149.677421 173.650434 149.677421 
C 172.324419 149.677421 171.052535 150.204253 170.1149 151.141888 
C 169.177266 152.079522 168.650434 153.351406 168.650434 154.677421 
C 168.650434 156.003437 169.177266 157.275321 170.1149 158.212955 
C 171.052535 159.15059 172.324419 159.677421 173.650434 159.677421 
z
" clip-path="url(#p86275aecb7)" style="stroke: #ffffff; stroke-width: 0.8"/>
    <path d="M 442.099727 143.671912 
C 443.425743 143.671912 444.697627 143.145081 445.635261 142.207446 
C 446.572896 141.269811 447.099727 139.997928 447.099727 138.671912 
C 447.099727 137.345897 446.572896 136.074013 445.635261 135.136378 
C 444.697627 134.198744 443.425743 133.671912 442.099727 133.671912 
C 440.773712 133.671912 439.501828 134.198744 438.564193 135.136378 
C 437.626559 136.074013 437.099727 137.345897 437.099727 138.671912 
C 437.099727 139.997928 437.626559 141.269811 438.564193 142.207446 
C 439.501828 143.145081 440.773712 143.671912 442.099727 143.671912 
z
" clip-path="url(#p86275aecb7)" style="fill: #808080; stroke: #ffffff; stroke-width: 0.8"/>
   </g>
   <g id="PolyCollection_1">
    <path d="M 140.094273 93.780657 
L 140.094273 141.574103 
L 142.805882 141.484465 
L 145.517491 141.457299 
L 148.2291 140.974941 
L 150.940709 141.229238 
L 153.652318 141.378002 
L 156.363927 141.322 
L 159.075536 141.182246 
L 161.787145 141.209948 
L 164.498754 141.292473 
L 167.210363 141.144792 
L 169.921972 141.21643 
L 172.633581 141.195515 
L 175.34519 141.379771 
L 178.056799 141.278964 
L 180.768408 141.346616 
L 183.480017 141.356036 
L 186.191626 141.565823 
L 188.903235 141.625623 
L 191.614844 141.750407 
L 194.326453 142.107024 
L 197.038062 142.254693 
L 199.749671 142.614437 
L 202.46128 142.996424 
L 205.172889 143.083748 
L 207.884498 143.327703 
L 210.596107 143.863102 
L 213.307716 144.533736 
L 216.019325 145.031581 
L 218.730934 145.679917 
L 221.442543 146.034826 
L 224.154152 146.570928 
L 226.865761 147.093395 
L 229.57737 147.629532 
L 232.288979 148.360475 
L 235.000588 148.893633 
L 237.712197 149.531911 
L 240.423806 150.281369 
L 243.135415 150.857717 
L 245.847024 151.463848 
L 248.558634 152.364276 
L 251.270243 153.000079 
L 253.981852 153.634889 
L 256.693461 154.547789 
L 259.40507 155.255674 
L 262.116679 155.86595 
L 264.828288 156.476226 
L 267.539897 157.231314 
L 270.251506 158.172022 
L 272.963115 159.106736 
L 275.674724 159.896826 
L 278.386333 160.655249 
L 281.097942 161.406575 
L 283.809551 162.173676 
L 286.52116 162.911638 
L 289.232769 163.81548 
L 291.944378 164.417936 
L 294.655987 165.075733 
L 297.367596 165.922149 
L 300.079205 166.850173 
L 302.790814 167.630408 
L 305.502423 168.656321 
L 308.214032 169.647058 
L 310.925641 170.570878 
L 313.63725 171.493977 
L 316.348859 172.411115 
L 319.060468 173.156546 
L 321.772077 173.8418 
L 324.483686 174.581569 
L 327.195295 175.592967 
L 329.906904 176.636328 
L 332.618513 177.679689 
L 335.330122 178.650361 
L 338.041731 179.521994 
L 340.75334 180.390602 
L 343.464949 181.329375 
L 346.176558 182.347755 
L 348.888167 183.366135 
L 351.599776 184.326239 
L 354.311385 185.132458 
L 357.022994 185.938678 
L 359.734603 186.743617 
L 362.446212 187.561713 
L 365.157821 188.706918 
L 367.86943 189.675098 
L 370.581039 190.53604 
L 373.292648 191.395626 
L 376.004257 192.255212 
L 378.715866 193.191301 
L 381.427475 194.17409 
L 384.139084 195.154801 
L 386.850694 196.13435 
L 389.562303 197.058953 
L 392.273912 197.870979 
L 394.985521 198.64228 
L 397.69713 199.608864 
L 400.408739 200.689813 
L 403.120348 201.723831 
L 405.831957 202.762987 
L 408.543566 203.788263 
L 408.543566 103.900984 
L 408.543566 103.900984 
L 405.831957 104.055406 
L 403.120348 104.410328 
L 400.408739 104.930267 
L 397.69713 105.450206 
L 394.985521 105.970145 
L 392.273912 106.21784 
L 389.562303 106.472049 
L 386.850694 106.892499 
L 384.139084 107.312949 
L 381.427475 107.7334 
L 378.715866 108.115312 
L 376.004257 108.398142 
L 373.292648 108.680972 
L 370.581039 108.963802 
L 367.86943 109.246632 
L 365.157821 109.58597 
L 362.446212 110.040653 
L 359.734603 110.385308 
L 357.022994 110.64997 
L 354.311385 110.914632 
L 351.599776 111.179293 
L 348.888167 111.443955 
L 346.176558 111.708616 
L 343.464949 111.973278 
L 340.75334 112.237939 
L 338.041731 112.502601 
L 335.330122 112.588771 
L 332.618513 112.673486 
L 329.906904 112.723224 
L 327.195295 112.777132 
L 324.483686 113.121749 
L 321.772077 113.483262 
L 319.060468 113.844775 
L 316.348859 114.206287 
L 313.63725 114.5678 
L 310.925641 114.524791 
L 308.214032 114.449988 
L 305.502423 114.375185 
L 302.790814 114.300382 
L 300.079205 114.225579 
L 297.367596 114.155807 
L 294.655987 114.092198 
L 291.944378 114.521506 
L 289.232769 115.007031 
L 286.52116 115.248021 
L 283.809551 115.236976 
L 281.097942 115.225932 
L 278.386333 115.214887 
L 275.674724 115.399091 
L 272.963115 115.714902 
L 270.251506 115.878933 
L 267.539897 116.11627 
L 264.828288 116.449066 
L 262.116679 116.781863 
L 259.40507 117.062664 
L 256.693461 117.171971 
L 253.981852 116.97369 
L 251.270243 116.809725 
L 248.558634 116.73456 
L 245.847024 116.649088 
L 243.135415 116.493456 
L 240.423806 116.158156 
L 237.712197 116.264163 
L 235.000588 116.296436 
L 232.288979 116.386456 
L 229.57737 116.183638 
L 226.865761 115.986397 
L 224.154152 115.629704 
L 221.442543 115.010009 
L 218.730934 114.803895 
L 216.019325 114.592936 
L 213.307716 113.947751 
L 210.596107 113.34664 
L 207.884498 112.948914 
L 205.172889 112.529208 
L 202.46128 111.970678 
L 199.749671 111.432867 
L 197.038062 110.938089 
L 194.326453 110.421563 
L 191.614844 109.736559 
L 188.903235 109.126288 
L 186.191626 108.255202 
L 183.480017 107.636047 
L 180.768408 107.015461 
L 178.056799 106.133294 
L 175.34519 105.366329 
L 172.633581 104.541244 
L 169.921972 103.720527 
L 167.210363 102.895641 
L 164.498754 102.05082 
L 161.787145 101.208843 
L 159.075536 100.413822 
L 156.363927 99.580702 
L 153.652318 98.750813 
L 150.940709 97.638197 
L 148.2291 96.595936 
L 145.517491 95.914277 
L 142.805882 94.846473 
L 140.094273 93.780657 
z
" clip-path="url(#p86275aecb7)" style="fill-opacity: 0.15"/>
   </g>
   <g id="PolyCollection_2">
    <path d="M 173.650434 114.729319 
L 173.650434 235.033151 
L 176.362043 233.908765 
L 179.073652 232.821967 
L 181.785261 231.70071 
L 184.49687 230.579452 
L 187.208479 229.458195 
L 189.920088 228.336938 
L 192.631697 227.215681 
L 195.343306 226.094424 
L 198.054916 224.973167 
L 200.766525 223.843118 
L 203.478134 222.70989 
L 206.189743 221.329805 
L 208.901352 219.835467 
L 211.612961 218.341129 
L 214.32457 217.177006 
L 217.036179 216.030388 
L 219.747788 214.878518 
L 222.459397 213.722382 
L 225.171006 212.566246 
L 227.882615 211.245425 
L 230.594224 209.882292 
L 233.305833 208.784531 
L 236.017442 207.686771 
L 238.729051 206.589011 
L 241.44066 205.49125 
L 244.152269 204.39349 
L 246.863878 203.341498 
L 249.575487 202.242948 
L 252.287096 201.102182 
L 254.998705 199.943935 
L 257.710314 198.79415 
L 260.421923 197.372155 
L 263.133532 195.814051 
L 265.845141 194.535066 
L 268.55675 193.482968 
L 271.268359 192.427822 
L 273.979968 190.97514 
L 276.691577 190.353348 
L 279.403186 189.314004 
L 282.114795 188.269792 
L 284.826404 187.22558 
L 287.538013 186.176076 
L 290.249622 185.143607 
L 292.961231 184.108286 
L 295.67284 183.064978 
L 298.384449 181.737828 
L 301.096058 180.974919 
L 303.807667 180.008815 
L 306.519276 178.966145 
L 309.230885 177.851939 
L 311.942494 176.756927 
L 314.654103 175.890523 
L 317.365712 175.473476 
L 320.077321 174.401543 
L 322.78893 173.273164 
L 325.500539 172.145651 
L 328.212148 171.018506 
L 330.923757 169.883702 
L 333.635366 169.199961 
L 336.346976 168.509432 
L 339.058585 167.813763 
L 341.770194 167.084771 
L 344.481803 166.233753 
L 347.193412 165.469962 
L 349.905021 164.70287 
L 352.61663 163.755747 
L 355.328239 163.17196 
L 358.039848 162.415663 
L 360.751457 161.724618 
L 363.463066 161.421431 
L 366.174675 160.753223 
L 368.886284 160.202258 
L 371.597893 158.631183 
L 374.309502 158.460012 
L 377.021111 158.062085 
L 379.73272 157.203785 
L 382.444329 156.953455 
L 385.155938 156.558423 
L 387.867547 156.003875 
L 390.579156 155.450958 
L 393.290765 155.363658 
L 396.002374 154.94752 
L 398.713983 154.350835 
L 401.425592 154.165614 
L 404.137201 153.977213 
L 406.84881 153.623663 
L 409.560419 153.407825 
L 412.272028 153.191077 
L 414.983637 152.974329 
L 417.695246 152.75758 
L 420.406855 152.540832 
L 423.118464 152.633888 
L 425.830073 153.059317 
L 428.541682 153.306695 
L 431.253291 153.22933 
L 433.9649 153.139535 
L 436.676509 153.048398 
L 439.388118 152.875811 
L 442.099727 152.729953 
L 442.099727 93.584956 
L 442.099727 93.584956 
L 439.388118 94.543333 
L 436.676509 95.525704 
L 433.9649 96.727773 
L 431.253291 97.358122 
L 428.541682 97.930405 
L 425.830073 98.498729 
L 423.118464 99.324924 
L 420.406855 99.932124 
L 417.695246 100.729172 
L 414.983637 101.607647 
L 412.272028 101.954364 
L 409.560419 102.78484 
L 406.84881 103.260256 
L 404.137201 104.033862 
L 401.425592 104.384294 
L 398.713983 104.988884 
L 396.002374 105.478675 
L 393.290765 105.800678 
L 390.579156 106.273109 
L 387.867547 106.671059 
L 385.155938 107.186795 
L 382.444329 107.742708 
L 379.73272 108.222716 
L 377.021111 108.575101 
L 374.309502 108.936852 
L 371.597893 109.277648 
L 368.886284 109.692241 
L 366.174675 110.047106 
L 363.463066 110.331841 
L 360.751457 110.682784 
L 358.039848 111.135291 
L 355.328239 111.385898 
L 352.61663 111.711345 
L 349.905021 111.5037 
L 347.193412 111.655776 
L 344.481803 111.802566 
L 341.770194 111.725084 
L 339.058585 112.033498 
L 336.346976 112.590622 
L 333.635366 112.6659 
L 330.923757 112.526161 
L 328.212148 112.660945 
L 325.500539 112.623584 
L 322.78893 112.591515 
L 320.077321 112.56685 
L 317.365712 112.774681 
L 314.654103 113.092302 
L 311.942494 112.944769 
L 309.230885 112.931942 
L 306.519276 113.12499 
L 303.807667 113.326559 
L 301.096058 113.528129 
L 298.384449 113.65117 
L 295.67284 113.652508 
L 292.961231 114.033772 
L 290.249622 114.312597 
L 287.538013 114.511878 
L 284.826404 114.684234 
L 282.114795 114.787748 
L 279.403186 114.835725 
L 276.691577 114.718884 
L 273.979968 114.690649 
L 271.268359 114.688803 
L 268.55675 114.686956 
L 265.845141 114.689759 
L 263.133532 114.696248 
L 260.421923 114.849314 
L 257.710314 114.933271 
L 254.998705 114.939229 
L 252.287096 114.945188 
L 249.575487 114.951146 
L 246.863878 114.958413 
L 244.152269 114.967402 
L 241.44066 115.057932 
L 238.729051 115.120785 
L 236.017442 115.200393 
L 233.305833 114.988168 
L 230.594224 114.992854 
L 227.882615 114.998812 
L 225.171006 115.004771 
L 222.459397 115.010729 
L 219.747788 115.016687 
L 217.036179 115.022646 
L 214.32457 115.028604 
L 211.612961 115.034562 
L 208.901352 114.786318 
L 206.189743 114.787703 
L 203.478134 114.848173 
L 200.766525 114.724795 
L 198.054916 114.721823 
L 195.343306 114.718851 
L 192.631697 114.72218 
L 189.920088 114.726984 
L 187.208479 114.723957 
L 184.49687 114.718527 
L 181.785261 114.721225 
L 179.073652 114.723923 
L 176.362043 114.726621 
L 173.650434 114.729319 
z
" clip-path="url(#p86275aecb7)" style="fill: #808080; fill-opacity: 0.15"/>
   </g>
   <g id="matplotlib.axis_1">
    <g id="xtick_1">
     <g id="line2d_1">
      <defs>
       <path id="m2c6908ad4e" d="M 0 0 
L 0 3.5 
" style="stroke: #000000; stroke-width: 0.8"/>
      </defs>
      <g>
       <use xlink:href="#m2c6908ad4e" x="157.899575" y="366.28" style="stroke: #000000; stroke-width: 0.8"/>
      </g>
     </g>
     <g id="text_1">
      <text style="font: 20px 'DejaVu Sans', 'Bitstream Vera Sans', 'Computer Modern Sans Serif', 'Lucida Grande', 'Verdana', 'Geneva', 'Lucid', 'Arial', 'Helvetica', 'Avant Garde', sans-serif; text-anchor: middle" x="157.899575" y="388.476875" transform="rotate(-0 157.899575 388.476875)">−4</text>
     </g>
    </g>
    <g id="xtick_2">
     <g id="line2d_2">
      <g>
       <use xlink:href="#m2c6908ad4e" x="225.011898" y="366.28" style="stroke: #000000; stroke-width: 0.8"/>
      </g>
     </g>
     <g id="text_2">
      <text style="font: 20px 'DejaVu Sans', 'Bitstream Vera Sans', 'Computer Modern Sans Serif', 'Lucida Grande', 'Verdana', 'Geneva', 'Lucid', 'Arial', 'Helvetica', 'Avant Garde', sans-serif; text-anchor: middle" x="225.011898" y="388.476875" transform="rotate(-0 225.011898 388.476875)">−2</text>
     </g>
    </g>
    <g id="xtick_3">
     <g id="line2d_3">
      <g>
       <use xlink:href="#m2c6908ad4e" x="292.124221" y="366.28" style="stroke: #000000; stroke-width: 0.8"/>
      </g>
     </g>
     <g id="text_3">
      <text style="font: 20px 'DejaVu Sans', 'Bitstream Vera Sans', 'Computer Modern Sans Serif', 'Lucida Grande', 'Verdana', 'Geneva', 'Lucid', 'Arial', 'Helvetica', 'Avant Garde', sans-serif; text-anchor: middle" x="292.124221" y="388.476875" transform="rotate(-0 292.124221 388.476875)">0</text>
     </g>
    </g>
    <g id="xtick_4">
     <g id="line2d_4">
      <g>
       <use xlink:href="#m2c6908ad4e" x="359.236544" y="366.28" style="stroke: #000000; stroke-width: 0.8"/>
      </g>
     </g>
     <g id="text_4">
      <text style="font: 20px 'DejaVu Sans', 'Bitstream Vera Sans', 'Computer Modern Sans Serif', 'Lucida Grande', 'Verdana', 'Geneva', 'Lucid', 'Arial', 'Helvetica', 'Avant Garde', sans-serif; text-anchor: middle" x="359.236544" y="388.476875" transform="rotate(-0 359.236544 388.476875)">2</text>
     </g>
    </g>
    <g id="xtick_5">
     <g id="line2d_5">
      <g>
       <use xlink:href="#m2c6908ad4e" x="426.348868" y="366.28" style="stroke: #000000; stroke-width: 0.8"/>
      </g>
     </g>
     <g id="text_5">
      <text style="font: 20px 'DejaVu Sans', 'Bitstream Vera Sans', 'Computer Modern Sans Serif', 'Lucida Grande', 'Verdana', 'Geneva', 'Lucid', 'Arial', 'Helvetica', 'Avant Garde', sans-serif; text-anchor: middle" x="426.348868" y="388.476875" transform="rotate(-0 426.348868 388.476875)">4</text>
     </g>
    </g>
    <g id="text_6">
     <text style="font: 24px 'DejaVu Sans', 'Bitstream Vera Sans', 'Computer Modern Sans Serif', 'Lucida Grande', 'Verdana', 'Geneva', 'Lucid', 'Arial', 'Helvetica', 'Avant Garde', sans-serif; text-anchor: middle" x="291.097" y="414.8725" transform="rotate(-0 291.097 414.8725)">Reward Sensitivity</text>
    </g>
   </g>
   <g id="matplotlib.axis_2">
    <g id="ytick_1">
     <g id="line2d_6">
      <defs>
       <path id="m8a351ac91c" d="M 0 0 
L -3.5 0 
" style="stroke: #000000; stroke-width: 0.8"/>
      </defs>
      <g>
       <use xlink:href="#m8a351ac91c" x="124.994" y="344.729556" style="stroke: #000000; stroke-width: 0.8"/>
      </g>
     </g>
     <g id="text_7">
      <text style="font: 20px 'DejaVu Sans', 'Bitstream Vera Sans', 'Computer Modern Sans Serif', 'Lucida Grande', 'Verdana', 'Geneva', 'Lucid', 'Arial', 'Helvetica', 'Avant Garde', sans-serif; text-anchor: end" x="117.994" y="352.327994" transform="rotate(-0 117.994 352.327994)">-0.04</text>
     </g>
    </g>
    <g id="ytick_2">
     <g id="line2d_7">
      <g>
       <use xlink:href="#m8a351ac91c" x="124.994" y="285.668636" style="stroke: #000000; stroke-width: 0.8"/>
      </g>
     </g>
     <g id="text_8">
      <text style="font: 20px 'DejaVu Sans', 'Bitstream Vera Sans', 'Computer Modern Sans Serif', 'Lucida Grande', 'Verdana', 'Geneva', 'Lucid', 'Arial', 'Helvetica', 'Avant Garde', sans-serif; text-anchor: end" x="117.994" y="293.267074" transform="rotate(-0 117.994 293.267074)">-0.03</text>
     </g>
    </g>
    <g id="ytick_3">
     <g id="line2d_8">
      <g>
       <use xlink:href="#m8a351ac91c" x="124.994" y="226.607716" style="stroke: #000000; stroke-width: 0.8"/>
      </g>
     </g>
     <g id="text_9">
      <text style="font: 20px 'DejaVu Sans', 'Bitstream Vera Sans', 'Computer Modern Sans Serif', 'Lucida Grande', 'Verdana', 'Geneva', 'Lucid', 'Arial', 'Helvetica', 'Avant Garde', sans-serif; text-anchor: end" x="117.994" y="234.206154" transform="rotate(-0 117.994 234.206154)">-0.02</text>
     </g>
    </g>
    <g id="ytick_4">
     <g id="line2d_9">
      <g>
       <use xlink:href="#m8a351ac91c" x="124.994" y="167.546796" style="stroke: #000000; stroke-width: 0.8"/>
      </g>
     </g>
     <g id="text_10">
      <text style="font: 20px 'DejaVu Sans', 'Bitstream Vera Sans', 'Computer Modern Sans Serif', 'Lucida Grande', 'Verdana', 'Geneva', 'Lucid', 'Arial', 'Helvetica', 'Avant Garde', sans-serif; text-anchor: end" x="117.994" y="175.145233" transform="rotate(-0 117.994 175.145233)">-0.01</text>
     </g>
    </g>
    <g id="ytick_5">
     <g id="line2d_10">
      <g>
       <use xlink:href="#m8a351ac91c" x="124.994" y="108.485876" style="stroke: #000000; stroke-width: 0.8"/>
      </g>
     </g>
     <g id="text_11">
      <text style="font: 20px 'DejaVu Sans', 'Bitstream Vera Sans', 'Computer Modern Sans Serif', 'Lucida Grande', 'Verdana', 'Geneva', 'Lucid', 'Arial', 'Helvetica', 'Avant Garde', sans-serif; text-anchor: end" x="117.994" y="116.084313" transform="rotate(-0 117.994 116.084313)">0.00</text>
     </g>
    </g>
    <g id="ytick_6">
     <g id="line2d_11">
      <g>
       <use xlink:href="#m8a351ac91c" x="124.994" y="49.424956" style="stroke: #000000; stroke-width: 0.8"/>
      </g>
     </g>
     <g id="text_12">
      <text style="font: 20px 'DejaVu Sans', 'Bitstream Vera Sans', 'Computer Modern Sans Serif', 'Lucida Grande', 'Verdana', 'Geneva', 'Lucid', 'Arial', 'Helvetica', 'Avant Garde', sans-serif; text-anchor: end" x="117.994" y="57.023393" transform="rotate(-0 117.994 57.023393)">0.01</text>
     </g>
    </g>
    <g id="text_13">
     <text style="font: 24px 'DejaVu Sans', 'Bitstream Vera Sans', 'Computer Modern Sans Serif', 'Lucida Grande', 'Verdana', 'Geneva', 'Lucid', 'Arial', 'Helvetica', 'Avant Garde', sans-serif" transform="translate(30.381125 319.505) rotate(-90)">Behavioral Motivation</text>
     <text style="font: 24px 'DejaVu Sans', 'Bitstream Vera Sans', 'Computer Modern Sans Serif', 'Lucida Grande', 'Verdana', 'Geneva', 'Lucid', 'Arial', 'Helvetica', 'Avant Garde', sans-serif" transform="translate(57.255875 238.90625) rotate(-90)">(HS&gt;LS)</text>
    </g>
   </g>
   <g id="line2d_12"/>
   <g id="line2d_13"/>
   <g id="line2d_14">
    <path d="M 140.094273 120.300139 
L 142.805882 120.695539 
L 145.517491 121.090939 
L 148.2291 121.486339 
L 150.940709 121.881739 
L 153.652318 122.277139 
L 156.363927 122.672539 
L 159.075536 123.067939 
L 161.787145 123.463339 
L 164.498754 123.858739 
L 167.210363 124.254139 
L 169.921972 124.649539 
L 172.633581 125.044939 
L 175.34519 125.440339 
L 178.056799 125.835739 
L 180.768408 126.231139 
L 183.480017 126.626539 
L 186.191626 127.021939 
L 188.903235 127.417339 
L 191.614844 127.812739 
L 194.326453 128.208139 
L 197.038062 128.603539 
L 199.749671 128.998939 
L 202.46128 129.394339 
L 205.172889 129.789739 
L 207.884498 130.185139 
L 210.596107 130.580539 
L 213.307716 130.975939 
L 216.019325 131.371339 
L 218.730934 131.766738 
L 221.442543 132.162138 
L 224.154152 132.557538 
L 226.865761 132.952938 
L 229.57737 133.348338 
L 232.288979 133.743738 
L 235.000588 134.139138 
L 237.712197 134.534538 
L 240.423806 134.929938 
L 243.135415 135.325338 
L 245.847024 135.720738 
L 248.558634 136.116138 
L 251.270243 136.511538 
L 253.981852 136.906938 
L 256.693461 137.302338 
L 259.40507 137.697738 
L 262.116679 138.093138 
L 264.828288 138.488538 
L 267.539897 138.883938 
L 270.251506 139.279338 
L 272.963115 139.674738 
L 275.674724 140.070138 
L 278.386333 140.465538 
L 281.097942 140.860938 
L 283.809551 141.256338 
L 286.52116 141.651738 
L 289.232769 142.047138 
L 291.944378 142.442538 
L 294.655987 142.837938 
L 297.367596 143.233338 
L 300.079205 143.628738 
L 302.790814 144.024138 
L 305.502423 144.419538 
L 308.214032 144.814938 
L 310.925641 145.210338 
L 313.63725 145.605738 
L 316.348859 146.001138 
L 319.060468 146.396538 
L 321.772077 146.791938 
L 324.483686 147.187338 
L 327.195295 147.582738 
L 329.906904 147.978138 
L 332.618513 148.373538 
L 335.330122 148.768938 
L 338.041731 149.164338 
L 340.75334 149.559737 
L 343.464949 149.955137 
L 346.176558 150.350537 
L 348.888167 150.745937 
L 351.599776 151.141337 
L 354.311385 151.536737 
L 357.022994 151.932137 
L 359.734603 152.327537 
L 362.446212 152.722937 
L 365.157821 153.118337 
L 367.86943 153.513737 
L 370.581039 153.909137 
L 373.292648 154.304537 
L 376.004257 154.699937 
L 378.715866 155.095337 
L 381.427475 155.490737 
L 384.139084 155.886137 
L 386.850694 156.281537 
L 389.562303 156.676937 
L 392.273912 157.072337 
L 394.985521 157.467737 
L 397.69713 157.863137 
L 400.408739 158.258537 
L 403.120348 158.653937 
L 405.831957 159.049337 
L 408.543566 159.444737 
" clip-path="url(#p86275aecb7)" style="fill: none; stroke: #000000; stroke-width: 2; stroke-linecap: square"/>
   </g>
   <g id="line2d_15">
    <path d="M 173.650434 168.307369 
L 176.362043 167.771021 
L 179.073652 167.234674 
L 181.785261 166.698326 
L 184.49687 166.161978 
L 187.208479 165.62563 
L 189.920088 165.089283 
L 192.631697 164.552935 
L 195.343306 164.016587 
L 198.054916 163.480239 
L 200.766525 162.943892 
L 203.478134 162.407544 
L 206.189743 161.871196 
L 208.901352 161.334848 
L 211.612961 160.7985 
L 214.32457 160.262153 
L 217.036179 159.725805 
L 219.747788 159.189457 
L 222.459397 158.653109 
L 225.171006 158.116762 
L 227.882615 157.580414 
L 230.594224 157.044066 
L 233.305833 156.507718 
L 236.017442 155.971371 
L 238.729051 155.435023 
L 241.44066 154.898675 
L 244.152269 154.362327 
L 246.863878 153.82598 
L 249.575487 153.289632 
L 252.287096 152.753284 
L 254.998705 152.216936 
L 257.710314 151.680589 
L 260.421923 151.144241 
L 263.133532 150.607893 
L 265.845141 150.071545 
L 268.55675 149.535198 
L 271.268359 148.99885 
L 273.979968 148.462502 
L 276.691577 147.926154 
L 279.403186 147.389807 
L 282.114795 146.853459 
L 284.826404 146.317111 
L 287.538013 145.780763 
L 290.249622 145.244416 
L 292.961231 144.708068 
L 295.67284 144.17172 
L 298.384449 143.635372 
L 301.096058 143.099025 
L 303.807667 142.562677 
L 306.519276 142.026329 
L 309.230885 141.489981 
L 311.942494 140.953634 
L 314.654103 140.417286 
L 317.365712 139.880938 
L 320.077321 139.34459 
L 322.78893 138.808243 
L 325.500539 138.271895 
L 328.212148 137.735547 
L 330.923757 137.199199 
L 333.635366 136.662852 
L 336.346976 136.126504 
L 339.058585 135.590156 
L 341.770194 135.053808 
L 344.481803 134.517461 
L 347.193412 133.981113 
L 349.905021 133.444765 
L 352.61663 132.908417 
L 355.328239 132.37207 
L 358.039848 131.835722 
L 360.751457 131.299374 
L 363.463066 130.763026 
L 366.174675 130.226679 
L 368.886284 129.690331 
L 371.597893 129.153983 
L 374.309502 128.617635 
L 377.021111 128.081287 
L 379.73272 127.54494 
L 382.444329 127.008592 
L 385.155938 126.472244 
L 387.867547 125.935896 
L 390.579156 125.399549 
L 393.290765 124.863201 
L 396.002374 124.326853 
L 398.713983 123.790505 
L 401.425592 123.254158 
L 404.137201 122.71781 
L 406.84881 122.181462 
L 409.560419 121.645114 
L 412.272028 121.108767 
L 414.983637 120.572419 
L 417.695246 120.036071 
L 420.406855 119.499723 
L 423.118464 118.963376 
L 425.830073 118.427028 
L 428.541682 117.89068 
L 431.253291 117.354332 
L 433.9649 116.817985 
L 436.676509 116.281637 
L 439.388118 115.745289 
L 442.099727 115.208941 
" clip-path="url(#p86275aecb7)" style="fill: none; stroke: #808080; stroke-width: 2; stroke-linecap: square"/>
   </g>
   <g id="patch_3">
    <path d="M 124.994 366.28 
L 124.994 10.8 
" style="fill: none; stroke: #000000; stroke-linejoin: miter; stroke-linecap: square"/>
   </g>
   <g id="patch_4">
    <path d="M 124.994 366.28 
L 457.2 366.28 
" style="fill: none; stroke: #000000; stroke-linejoin: miter; stroke-linecap: square"/>
   </g>
   <g id="legend_1">
    <g id="patch_5">
     <path d="M 136.194 358.28 
L 222.2765 358.28 
Q 225.4765 358.28 225.4765 355.08 
L 225.4765 282.35375 
Q 225.4765 279.15375 222.2765 279.15375 
L 136.194 279.15375 
Q 132.994 279.15375 132.994 282.35375 
L 132.994 355.08 
Q 132.994 358.28 136.194 358.28 
z
" style="fill: #ffffff; opacity: 0.8; stroke: #cccccc; stroke-linejoin: miter"/>
    </g>
    <g id="text_14">
     <text style="font: 20px 'DejaVu Sans', 'Bitstream Vera Sans', 'Computer Modern Sans Serif', 'Lucida Grande', 'Verdana', 'Geneva', 'Lucid', 'Arial', 'Helvetica', 'Avant Garde', sans-serif; text-anchor: start" x="148.302438" y="300.750625" transform="rotate(-0 148.302438 300.750625)">TEPSa</text>
    </g>
    <g id="line2d_16">
     <defs>
      <path id="m7249585e9b" d="M 0 5 
C 1.326016 5 2.597899 4.473168 3.535534 3.535534 
C 4.473168 2.597899 5 1.326016 5 0 
C 5 -1.326016 4.473168 -2.597899 3.535534 -3.535534 
C 2.597899 -4.473168 1.326016 -5 0 -5 
C -1.326016 -5 -2.597899 -4.473168 -3.535534 -3.535534 
C -4.473168 -2.597899 -5 -1.326016 -5 0 
C -5 1.326016 -4.473168 2.597899 -3.535534 3.535534 
C -2.597899 4.473168 -1.326016 5 0 5 
z
" style="stroke: #ffffff; stroke-width: 0.8"/>
     </defs>
     <g>
      <use xlink:href="#m7249585e9b" x="155.394" y="319.4675" style="stroke: #ffffff; stroke-width: 0.8"/>
     </g>
    </g>
    <g id="text_15">
     <text style="font: 16px 'DejaVu Sans', 'Bitstream Vera Sans', 'Computer Modern Sans Serif', 'Lucida Grande', 'Verdana', 'Geneva', 'Lucid', 'Arial', 'Helvetica', 'Avant Garde', sans-serif; text-anchor: start" x="184.194" y="325.0675" transform="rotate(-0 184.194 325.0675)">low</text>
    </g>
    <g id="line2d_17">
     <defs>
      <path id="m2a89f90705" d="M 0 5 
C 1.326016 5 2.597899 4.473168 3.535534 3.535534 
C 4.473168 2.597899 5 1.326016 5 0 
C 5 -1.326016 4.473168 -2.597899 3.535534 -3.535534 
C 2.597899 -4.473168 1.326016 -5 0 -5 
C -1.326016 -5 -2.597899 -4.473168 -3.535534 -3.535534 
C -4.473168 -2.597899 -5 -1.326016 -5 0 
C -5 1.326016 -4.473168 2.597899 -3.535534 3.535534 
C -2.597899 4.473168 -1.326016 5 0 5 
z
" style="stroke: #ffffff; stroke-width: 0.8"/>
     </defs>
     <g>
      <use xlink:href="#m2a89f90705" x="155.394" y="342.9525" style="fill: #808080; stroke: #ffffff; stroke-width: 0.8"/>
     </g>
    </g>
    <g id="text_16">
     <text style="font: 16px 'DejaVu Sans', 'Bitstream Vera Sans', 'Computer Modern Sans Serif', 'Lucida Grande', 'Verdana', 'Geneva', 'Lucid', 'Arial', 'Helvetica', 'Avant Garde', sans-serif; text-anchor: start" x="184.194" y="348.5525" transform="rotate(-0 184.194 348.5525)">high</text>
    </g>
   </g>
  </g>
 </g>
 <defs>
  <clipPath id="p86275aecb7">
   <rect x="124.994" y="10.8" width="332.206" height="355.48"/>
  </clipPath>
 </defs>
</svg>
