<?xml version="1.0" encoding="utf-8" standalone="no"?>
<!DOCTYPE svg PUBLIC "-//W3C//DTD SVG 1.1//EN"
  "http://www.w3.org/Graphics/SVG/1.1/DTD/svg11.dtd">
<svg xmlns:xlink="http://www.w3.org/1999/xlink" width="468pt" height="432pt" viewBox="0 0 468 432" xmlns="http://www.w3.org/2000/svg" version="1.1">
 <metadata>
  <rdf:RDF xmlns:dc="http://purl.org/dc/elements/1.1/" xmlns:cc="http://creativecommons.org/ns#" xmlns:rdf="http://www.w3.org/1999/02/22-rdf-syntax-ns#">
   <cc:Work>
    <dc:type rdf:resource="http://purl.org/dc/dcmitype/StillImage"/>
    <dc:date>2025-04-30T15:01:26.830726</dc:date>
    <dc:format>image/svg+xml</dc:format>
    <dc:creator>
     <cc:Agent>
      <dc:title>Matplotlib v3.9.2, https://matplotlib.org/</dc:title>
     </cc:Agent>
    </dc:creator>
   </cc:Work>
  </rdf:RDF>
 </metadata>
 <defs>
  <style type="text/css">*{stroke-linejoin: round; stroke-linecap: butt}</style>
 </defs>
 <g id="figure_1">
  <g id="patch_1">
   <path d="M 0 432 
L 468 432 
L 468 0 
L 0 0 
z
" style="fill: #ffffff"/>
  </g>
  <g id="axes_1">
   <g id="patch_2">
    <path d="M 124.994 366.28 
L 457.2 366.28 
L 457.2 10.8 
L 124.994 10.8 
z
" style="fill: #ffffff"/>
   </g>
   <g id="PathCollection_1">
    <path d="M 140.094273 129.861247 
C 141.280297 129.861247 142.417905 129.390035 143.25655 128.551389 
C 144.095196 127.712743 144.566409 126.575136 144.566409 125.389111 
C 144.566409 124.203087 144.095196 123.065479 143.25655 122.226834 
C 142.417905 121.388188 141.280297 120.916975 140.094273 120.916975 
C 138.908248 120.916975 137.770641 121.388188 136.931995 122.226834 
C 136.093349 123.065479 135.622137 124.203087 135.622137 125.389111 
C 135.622137 126.575136 136.093349 127.712743 136.931995 128.551389 
C 137.770641 129.390035 138.908248 129.861247 140.094273 129.861247 
z
" clip-path="url(#p6d3d57e521)" style="fill-opacity: 0.7; stroke: #ffffff; stroke-opacity: 0.7; stroke-width: 0.715542"/>
    <path d="M 140.094273 148.772554 
C 141.280297 148.772554 142.417905 148.301341 143.25655 147.462695 
C 144.095196 146.62405 144.566409 145.486442 144.566409 144.300418 
C 144.566409 143.114394 144.095196 141.976786 143.25655 141.13814 
C 142.417905 140.299494 141.280297 139.828282 140.094273 139.828282 
C 138.908248 139.828282 137.770641 140.299494 136.931995 141.13814 
C 136.093349 141.976786 135.622137 143.114394 135.622137 144.300418 
C 135.622137 145.486442 136.093349 146.62405 136.931995 147.462695 
C 137.770641 148.301341 138.908248 148.772554 140.094273 148.772554 
z
" clip-path="url(#p6d3d57e521)" style="fill-opacity: 0.7; stroke: #ffffff; stroke-opacity: 0.7; stroke-width: 0.715542"/>
    <path d="M 442.099727 91.914606 
C 443.285752 91.914606 444.423359 91.443394 445.262005 90.604748 
C 446.100651 89.766102 446.571863 88.628494 446.571863 87.44247 
C 446.571863 86.256446 446.100651 85.118838 445.262005 84.280192 
C 444.423359 83.441547 443.285752 82.970334 442.099727 82.970334 
C 440.913703 82.970334 439.776095 83.441547 438.93745 84.280192 
C 438.098804 85.118838 437.627591 86.256446 437.627591 87.44247 
C 437.627591 88.628494 438.098804 89.766102 438.93745 90.604748 
C 439.776095 91.443394 440.913703 91.914606 442.099727 91.914606 
z
" clip-path="url(#p6d3d57e521)" style="fill: #808080; fill-opacity: 0.7; stroke: #ffffff; stroke-opacity: 0.7; stroke-width: 0.715542"/>
    <path d="M 374.987404 105.982917 
C 376.173428 105.982917 377.311036 105.511705 378.149682 104.673059 
C 378.988328 103.834413 379.45954 102.696806 379.45954 101.510781 
C 379.45954 100.324757 378.988328 99.187149 378.149682 98.348504 
C 377.311036 97.509858 376.173428 97.038645 374.987404 97.038645 
C 373.80138 97.038645 372.663772 97.509858 371.825126 98.348504 
C 370.986481 99.187149 370.515268 100.324757 370.515268 101.510781 
C 370.515268 102.696806 370.986481 103.834413 371.825126 104.673059 
C 372.663772 105.511705 373.80138 105.982917 374.987404 105.982917 
z
" clip-path="url(#p6d3d57e521)" style="fill: #808080; fill-opacity: 0.7; stroke: #ffffff; stroke-opacity: 0.7; stroke-width: 0.715542"/>
    <path d="M 408.543566 164.783969 
C 409.72959 164.783969 410.867197 164.312757 411.705843 163.474111 
C 412.544489 162.635465 413.015702 161.497858 413.015702 160.311833 
C 413.015702 159.125809 412.544489 157.988201 411.705843 157.149556 
C 410.867197 156.31091 409.72959 155.839697 408.543566 155.839697 
C 407.357541 155.839697 406.219934 156.31091 405.381288 157.149556 
C 404.542642 157.988201 404.07143 159.125809 404.07143 160.311833 
C 404.07143 161.497858 404.542642 162.635465 405.381288 163.474111 
C 406.219934 164.312757 407.357541 164.783969 408.543566 164.783969 
z
" clip-path="url(#p6d3d57e521)" style="fill-opacity: 0.7; stroke: #ffffff; stroke-opacity: 0.7; stroke-width: 0.715542"/>
    <path d="M 307.875081 112.408745 
C 309.061105 112.408745 310.198713 111.937533 311.037358 111.098887 
C 311.876004 110.260241 312.347217 109.122634 312.347217 107.936609 
C 312.347217 106.750585 311.876004 105.612978 311.037358 104.774332 
C 310.198713 103.935686 309.061105 103.464473 307.875081 103.464473 
C 306.689056 103.464473 305.551449 103.935686 304.712803 104.774332 
C 303.874157 105.612978 303.402945 106.750585 303.402945 107.936609 
C 303.402945 109.122634 303.874157 110.260241 304.712803 111.098887 
C 305.551449 111.937533 306.689056 112.408745 307.875081 112.408745 
z
" clip-path="url(#p6d3d57e521)" style="fill-opacity: 0.7; stroke: #ffffff; stroke-opacity: 0.7; stroke-width: 0.715542"/>
    <path d="M 374.987404 127.463374 
C 376.173428 127.463374 377.311036 126.992161 378.149682 126.153516 
C 378.988328 125.31487 379.45954 124.177262 379.45954 122.991238 
C 379.45954 121.805214 378.988328 120.667606 378.149682 119.82896 
C 377.311036 118.990314 376.173428 118.519102 374.987404 118.519102 
C 373.80138 118.519102 372.663772 118.990314 371.825126 119.82896 
C 370.986481 120.667606 370.515268 121.805214 370.515268 122.991238 
C 370.515268 124.177262 370.986481 125.31487 371.825126 126.153516 
C 372.663772 126.992161 373.80138 127.463374 374.987404 127.463374 
z
" clip-path="url(#p6d3d57e521)" style="fill: #808080; fill-opacity: 0.7; stroke: #ffffff; stroke-opacity: 0.7; stroke-width: 0.715542"/>
    <path d="M 307.875081 169.621059 
C 309.061105 169.621059 310.198713 169.149846 311.037358 168.3112 
C 311.876004 167.472554 312.347217 166.334947 312.347217 165.148923 
C 312.347217 163.962898 311.876004 162.825291 311.037358 161.986645 
C 310.198713 161.147999 309.061105 160.676787 307.875081 160.676787 
C 306.689056 160.676787 305.551449 161.147999 304.712803 161.986645 
C 303.874157 162.825291 303.402945 163.962898 303.402945 165.148923 
C 303.402945 166.334947 303.874157 167.472554 304.712803 168.3112 
C 305.551449 169.149846 306.689056 169.621059 307.875081 169.621059 
z
" clip-path="url(#p6d3d57e521)" style="fill-opacity: 0.7; stroke: #ffffff; stroke-opacity: 0.7; stroke-width: 0.715542"/>
    <path d="M 307.875081 121.970708 
C 309.061105 121.970708 310.198713 121.499496 311.037358 120.66085 
C 311.876004 119.822204 312.347217 118.684597 312.347217 117.498572 
C 312.347217 116.312548 311.876004 115.17494 311.037358 114.336295 
C 310.198713 113.497649 309.061105 113.026436 307.875081 113.026436 
C 306.689056 113.026436 305.551449 113.497649 304.712803 114.336295 
C 303.874157 115.17494 303.402945 116.312548 303.402945 117.498572 
C 303.402945 118.684597 303.874157 119.822204 304.712803 120.66085 
C 305.551449 121.499496 306.689056 121.970708 307.875081 121.970708 
z
" clip-path="url(#p6d3d57e521)" style="fill-opacity: 0.7; stroke: #ffffff; stroke-opacity: 0.7; stroke-width: 0.715542"/>
    <path d="M 173.650434 140.433152 
C 174.836459 140.433152 175.974066 139.961939 176.812712 139.123294 
C 177.651358 138.284648 178.12257 137.14704 178.12257 135.961016 
C 178.12257 134.774992 177.651358 133.637384 176.812712 132.798738 
C 175.974066 131.960092 174.836459 131.48888 173.650434 131.48888 
C 172.46441 131.48888 171.326803 131.960092 170.488157 132.798738 
C 169.649511 133.637384 169.178298 134.774992 169.178298 135.961016 
C 169.178298 137.14704 169.649511 138.284648 170.488157 139.123294 
C 171.326803 139.961939 172.46441 140.433152 173.650434 140.433152 
z
" clip-path="url(#p6d3d57e521)" style="fill-opacity: 0.7; stroke: #ffffff; stroke-opacity: 0.7; stroke-width: 0.715542"/>
    <path d="M 307.875081 175.668897 
C 309.061105 175.668897 310.198713 175.197684 311.037358 174.359038 
C 311.876004 173.520393 312.347217 172.382785 312.347217 171.196761 
C 312.347217 170.010737 311.876004 168.873129 311.037358 168.034483 
C 310.198713 167.195837 309.061105 166.724625 307.875081 166.724625 
C 306.689056 166.724625 305.551449 167.195837 304.712803 168.034483 
C 303.874157 168.873129 303.402945 170.010737 303.402945 171.196761 
C 303.402945 172.382785 303.874157 173.520393 304.712803 174.359038 
C 305.551449 175.197684 306.689056 175.668897 307.875081 175.668897 
z
" clip-path="url(#p6d3d57e521)" style="fill: #808080; fill-opacity: 0.7; stroke: #ffffff; stroke-opacity: 0.7; stroke-width: 0.715542"/>
    <path d="M 274.318919 31.430318 
C 275.504944 31.430318 276.642551 30.959105 277.481197 30.120459 
C 278.319843 29.281814 278.791055 28.144206 278.791055 26.958182 
C 278.791055 25.772157 278.319843 24.63455 277.481197 23.795904 
C 276.642551 22.957258 275.504944 22.486046 274.318919 22.486046 
C 273.132895 22.486046 271.995287 22.957258 271.156642 23.795904 
C 270.317996 24.63455 269.846783 25.772157 269.846783 26.958182 
C 269.846783 28.144206 270.317996 29.281814 271.156642 30.120459 
C 271.995287 30.959105 273.132895 31.430318 274.318919 31.430318 
z
" clip-path="url(#p6d3d57e521)" style="fill-opacity: 0.7; stroke: #ffffff; stroke-opacity: 0.7; stroke-width: 0.715542"/>
    <path d="M 408.543566 100.77965 
C 409.72959 100.77965 410.867197 100.308438 411.705843 99.469792 
C 412.544489 98.631146 413.015702 97.493538 413.015702 96.307514 
C 413.015702 95.12149 412.544489 93.983882 411.705843 93.145237 
C 410.867197 92.306591 409.72959 91.835378 408.543566 91.835378 
C 407.357541 91.835378 406.219934 92.306591 405.381288 93.145237 
C 404.542642 93.983882 404.07143 95.12149 404.07143 96.307514 
C 404.07143 97.493538 404.542642 98.631146 405.381288 99.469792 
C 406.219934 100.308438 407.357541 100.77965 408.543566 100.77965 
z
" clip-path="url(#p6d3d57e521)" style="fill: #808080; fill-opacity: 0.7; stroke: #ffffff; stroke-opacity: 0.7; stroke-width: 0.715542"/>
    <path d="M 442.099727 94.542817 
C 443.285752 94.542817 444.423359 94.071605 445.262005 93.232959 
C 446.100651 92.394313 446.571863 91.256705 446.571863 90.070681 
C 446.571863 88.884657 446.100651 87.747049 445.262005 86.908403 
C 444.423359 86.069758 443.285752 85.598545 442.099727 85.598545 
C 440.913703 85.598545 439.776095 86.069758 438.93745 86.908403 
C 438.098804 87.747049 437.627591 88.884657 437.627591 90.070681 
C 437.627591 91.256705 438.098804 92.394313 438.93745 93.232959 
C 439.776095 94.071605 440.913703 94.542817 442.099727 94.542817 
z
" clip-path="url(#p6d3d57e521)" style="fill: #808080; fill-opacity: 0.7; stroke: #ffffff; stroke-opacity: 0.7; stroke-width: 0.715542"/>
    <path d="M 408.543566 264.744576 
C 409.72959 264.744576 410.867197 264.273364 411.705843 263.434718 
C 412.544489 262.596072 413.015702 261.458465 413.015702 260.27244 
C 413.015702 259.086416 412.544489 257.948809 411.705843 257.110163 
C 410.867197 256.271517 409.72959 255.800305 408.543566 255.800305 
C 407.357541 255.800305 406.219934 256.271517 405.381288 257.110163 
C 404.542642 257.948809 404.07143 259.086416 404.07143 260.27244 
C 404.07143 261.458465 404.542642 262.596072 405.381288 263.434718 
C 406.219934 264.273364 407.357541 264.744576 408.543566 264.744576 
z
" clip-path="url(#p6d3d57e521)" style="fill-opacity: 0.7; stroke: #ffffff; stroke-opacity: 0.7; stroke-width: 0.715542"/>
    <path d="M 207.206596 125.473021 
C 208.39262 125.473021 209.530228 125.001808 210.368874 124.163163 
C 211.207519 123.324517 211.678732 122.186909 211.678732 121.000885 
C 211.678732 119.814861 211.207519 118.677253 210.368874 117.838607 
C 209.530228 116.999961 208.39262 116.528749 207.206596 116.528749 
C 206.020572 116.528749 204.882964 116.999961 204.044318 117.838607 
C 203.205672 118.677253 202.73446 119.814861 202.73446 121.000885 
C 202.73446 122.186909 203.205672 123.324517 204.044318 124.163163 
C 204.882964 125.001808 206.020572 125.473021 207.206596 125.473021 
z
" clip-path="url(#p6d3d57e521)" style="fill: #808080; fill-opacity: 0.7; stroke: #ffffff; stroke-opacity: 0.7; stroke-width: 0.715542"/>
    <path d="M 442.099727 114.086075 
C 443.285752 114.086075 444.423359 113.614863 445.262005 112.776217 
C 446.100651 111.937571 446.571863 110.799964 446.571863 109.613939 
C 446.571863 108.427915 446.100651 107.290308 445.262005 106.451662 
C 444.423359 105.613016 443.285752 105.141804 442.099727 105.141804 
C 440.913703 105.141804 439.776095 105.613016 438.93745 106.451662 
C 438.098804 107.290308 437.627591 108.427915 437.627591 109.613939 
C 437.627591 110.799964 438.098804 111.937571 438.93745 112.776217 
C 439.776095 113.614863 440.913703 114.086075 442.099727 114.086075 
z
" clip-path="url(#p6d3d57e521)" style="fill: #808080; fill-opacity: 0.7; stroke: #ffffff; stroke-opacity: 0.7; stroke-width: 0.715542"/>
    <path d="M 207.206596 51.044449 
C 208.39262 51.044449 209.530228 50.573237 210.368874 49.734591 
C 211.207519 48.895945 211.678732 47.758338 211.678732 46.572313 
C 211.678732 45.386289 211.207519 44.248682 210.368874 43.410036 
C 209.530228 42.57139 208.39262 42.100177 207.206596 42.100177 
C 206.020572 42.100177 204.882964 42.57139 204.044318 43.410036 
C 203.205672 44.248682 202.73446 45.386289 202.73446 46.572313 
C 202.73446 47.758338 203.205672 48.895945 204.044318 49.734591 
C 204.882964 50.573237 206.020572 51.044449 207.206596 51.044449 
z
" clip-path="url(#p6d3d57e521)" style="fill: #808080; fill-opacity: 0.7; stroke: #ffffff; stroke-opacity: 0.7; stroke-width: 0.715542"/>
    <path d="M 240.762758 197.863991 
C 241.948782 197.863991 243.086389 197.392778 243.925035 196.554132 
C 244.763681 195.715486 245.234894 194.577879 245.234894 193.391855 
C 245.234894 192.20583 244.763681 191.068223 243.925035 190.229577 
C 243.086389 189.390931 241.948782 188.919719 240.762758 188.919719 
C 239.576733 188.919719 238.439126 189.390931 237.60048 190.229577 
C 236.761834 191.068223 236.290622 192.20583 236.290622 193.391855 
C 236.290622 194.577879 236.761834 195.715486 237.60048 196.554132 
C 238.439126 197.392778 239.576733 197.863991 240.762758 197.863991 
z
" clip-path="url(#p6d3d57e521)" style="fill: #808080; fill-opacity: 0.7; stroke: #ffffff; stroke-opacity: 0.7; stroke-width: 0.715542"/>
    <path d="M 341.431242 354.593954 
C 342.617267 354.593954 343.754874 354.122742 344.59352 353.284096 
C 345.432166 352.44545 345.903378 351.307843 345.903378 350.121818 
C 345.903378 348.935794 345.432166 347.798186 344.59352 346.959541 
C 343.754874 346.120895 342.617267 345.649682 341.431242 345.649682 
C 340.245218 345.649682 339.107611 346.120895 338.268965 346.959541 
C 337.430319 347.798186 336.959106 348.935794 336.959106 350.121818 
C 336.959106 351.307843 337.430319 352.44545 338.268965 353.284096 
C 339.107611 354.122742 340.245218 354.593954 341.431242 354.593954 
z
" clip-path="url(#p6d3d57e521)" style="fill: #808080; fill-opacity: 0.7; stroke: #ffffff; stroke-opacity: 0.7; stroke-width: 0.715542"/>
    <path d="M 408.543566 125.762419 
C 409.72959 125.762419 410.867197 125.291207 411.705843 124.452561 
C 412.544489 123.613915 413.015702 122.476308 413.015702 121.290283 
C 413.015702 120.104259 412.544489 118.966652 411.705843 118.128006 
C 410.867197 117.28936 409.72959 116.818147 408.543566 116.818147 
C 407.357541 116.818147 406.219934 117.28936 405.381288 118.128006 
C 404.542642 118.966652 404.07143 120.104259 404.07143 121.290283 
C 404.07143 122.476308 404.542642 123.613915 405.381288 124.452561 
C 406.219934 125.291207 407.357541 125.762419 408.543566 125.762419 
z
" clip-path="url(#p6d3d57e521)" style="fill: #808080; fill-opacity: 0.7; stroke: #ffffff; stroke-opacity: 0.7; stroke-width: 0.715542"/>
    <path d="M 341.431242 122.868434 
C 342.617267 122.868434 343.754874 122.397222 344.59352 121.558576 
C 345.432166 120.71993 345.903378 119.582323 345.903378 118.396298 
C 345.903378 117.210274 345.432166 116.072666 344.59352 115.234021 
C 343.754874 114.395375 342.617267 113.924162 341.431242 113.924162 
C 340.245218 113.924162 339.107611 114.395375 338.268965 115.234021 
C 337.430319 116.072666 336.959106 117.210274 336.959106 118.396298 
C 336.959106 119.582323 337.430319 120.71993 338.268965 121.558576 
C 339.107611 122.397222 340.245218 122.868434 341.431242 122.868434 
z
" clip-path="url(#p6d3d57e521)" style="fill: #808080; fill-opacity: 0.7; stroke: #ffffff; stroke-opacity: 0.7; stroke-width: 0.715542"/>
    <path d="M 408.543566 106.000635 
C 409.72959 106.000635 410.867197 105.529423 411.705843 104.690777 
C 412.544489 103.852131 413.015702 102.714524 413.015702 101.5285 
C 413.015702 100.342475 412.544489 99.204868 411.705843 98.366222 
C 410.867197 97.527576 409.72959 97.056364 408.543566 97.056364 
C 407.357541 97.056364 406.219934 97.527576 405.381288 98.366222 
C 404.542642 99.204868 404.07143 100.342475 404.07143 101.5285 
C 404.07143 102.714524 404.542642 103.852131 405.381288 104.690777 
C 406.219934 105.529423 407.357541 106.000635 408.543566 106.000635 
z
" clip-path="url(#p6d3d57e521)" style="fill: #808080; fill-opacity: 0.7; stroke: #ffffff; stroke-opacity: 0.7; stroke-width: 0.715542"/>
    <path d="M 173.650434 141.106446 
C 174.836459 141.106446 175.974066 140.635234 176.812712 139.796588 
C 177.651358 138.957942 178.12257 137.820335 178.12257 136.63431 
C 178.12257 135.448286 177.651358 134.310679 176.812712 133.472033 
C 175.974066 132.633387 174.836459 132.162174 173.650434 132.162174 
C 172.46441 132.162174 171.326803 132.633387 170.488157 133.472033 
C 169.649511 134.310679 169.178298 135.448286 169.178298 136.63431 
C 169.178298 137.820335 169.649511 138.957942 170.488157 139.796588 
C 171.326803 140.635234 172.46441 141.106446 173.650434 141.106446 
z
" clip-path="url(#p6d3d57e521)" style="fill: #808080; fill-opacity: 0.7; stroke: #ffffff; stroke-opacity: 0.7; stroke-width: 0.715542"/>
    <path d="M 274.318919 122.206952 
C 275.504944 122.206952 276.642551 121.735739 277.481197 120.897094 
C 278.319843 120.058448 278.791055 118.92084 278.791055 117.734816 
C 278.791055 116.548792 278.319843 115.411184 277.481197 114.572538 
C 276.642551 113.733892 275.504944 113.26268 274.318919 113.26268 
C 273.132895 113.26268 271.995287 113.733892 271.156642 114.572538 
C 270.317996 115.411184 269.846783 116.548792 269.846783 117.734816 
C 269.846783 118.92084 270.317996 120.058448 271.156642 120.897094 
C 271.995287 121.735739 273.132895 122.206952 274.318919 122.206952 
z
" clip-path="url(#p6d3d57e521)" style="fill-opacity: 0.7; stroke: #ffffff; stroke-opacity: 0.7; stroke-width: 0.715542"/>
    <path d="M 374.987404 118.988132 
C 376.173428 118.988132 377.311036 118.516919 378.149682 117.678273 
C 378.988328 116.839628 379.45954 115.70202 379.45954 114.515996 
C 379.45954 113.329972 378.988328 112.192364 378.149682 111.353718 
C 377.311036 110.515072 376.173428 110.04386 374.987404 110.04386 
C 373.80138 110.04386 372.663772 110.515072 371.825126 111.353718 
C 370.986481 112.192364 370.515268 113.329972 370.515268 114.515996 
C 370.515268 115.70202 370.986481 116.839628 371.825126 117.678273 
C 372.663772 118.516919 373.80138 118.988132 374.987404 118.988132 
z
" clip-path="url(#p6d3d57e521)" style="fill-opacity: 0.7; stroke: #ffffff; stroke-opacity: 0.7; stroke-width: 0.715542"/>
    <path d="M 207.206596 90.443989 
C 208.39262 90.443989 209.530228 89.972777 210.368874 89.134131 
C 211.207519 88.295485 211.678732 87.157877 211.678732 85.971853 
C 211.678732 84.785829 211.207519 83.648221 210.368874 82.809575 
C 209.530228 81.97093 208.39262 81.499717 207.206596 81.499717 
C 206.020572 81.499717 204.882964 81.97093 204.044318 82.809575 
C 203.205672 83.648221 202.73446 84.785829 202.73446 85.971853 
C 202.73446 87.157877 203.205672 88.295485 204.044318 89.134131 
C 204.882964 89.972777 206.020572 90.443989 207.206596 90.443989 
z
" clip-path="url(#p6d3d57e521)" style="fill: #808080; fill-opacity: 0.7; stroke: #ffffff; stroke-opacity: 0.7; stroke-width: 0.715542"/>
    <path d="M 374.987404 138.525484 
C 376.173428 138.525484 377.311036 138.054272 378.149682 137.215626 
C 378.988328 136.37698 379.45954 135.239373 379.45954 134.053348 
C 379.45954 132.867324 378.988328 131.729716 378.149682 130.891071 
C 377.311036 130.052425 376.173428 129.581212 374.987404 129.581212 
C 373.80138 129.581212 372.663772 130.052425 371.825126 130.891071 
C 370.986481 131.729716 370.515268 132.867324 370.515268 134.053348 
C 370.515268 135.239373 370.986481 136.37698 371.825126 137.215626 
C 372.663772 138.054272 373.80138 138.525484 374.987404 138.525484 
z
" clip-path="url(#p6d3d57e521)" style="fill: #808080; fill-opacity: 0.7; stroke: #ffffff; stroke-opacity: 0.7; stroke-width: 0.715542"/>
    <path d="M 240.762758 110.884974 
C 241.948782 110.884974 243.086389 110.413761 243.925035 109.575115 
C 244.763681 108.736469 245.234894 107.598862 245.234894 106.412838 
C 245.234894 105.226813 244.763681 104.089206 243.925035 103.25056 
C 243.086389 102.411914 241.948782 101.940702 240.762758 101.940702 
C 239.576733 101.940702 238.439126 102.411914 237.60048 103.25056 
C 236.761834 104.089206 236.290622 105.226813 236.290622 106.412838 
C 236.290622 107.598862 236.761834 108.736469 237.60048 109.575115 
C 238.439126 110.413761 239.576733 110.884974 240.762758 110.884974 
z
" clip-path="url(#p6d3d57e521)" style="fill-opacity: 0.7; stroke: #ffffff; stroke-opacity: 0.7; stroke-width: 0.715542"/>
    <path d="M 140.094273 187.723231 
C 141.280297 187.723231 142.417905 187.252018 143.25655 186.413372 
C 144.095196 185.574726 144.566409 184.437119 144.566409 183.251095 
C 144.566409 182.06507 144.095196 180.927463 143.25655 180.088817 
C 142.417905 179.250171 141.280297 178.778959 140.094273 178.778959 
C 138.908248 178.778959 137.770641 179.250171 136.931995 180.088817 
C 136.093349 180.927463 135.622137 182.06507 135.622137 183.251095 
C 135.622137 184.437119 136.093349 185.574726 136.931995 186.413372 
C 137.770641 187.252018 138.908248 187.723231 140.094273 187.723231 
z
" clip-path="url(#p6d3d57e521)" style="fill-opacity: 0.7; stroke: #ffffff; stroke-opacity: 0.7; stroke-width: 0.715542"/>
    <path d="M 207.206596 132.855636 
C 208.39262 132.855636 209.530228 132.384423 210.368874 131.545778 
C 211.207519 130.707132 211.678732 129.569524 211.678732 128.3835 
C 211.678732 127.197476 211.207519 126.059868 210.368874 125.221222 
C 209.530228 124.382576 208.39262 123.911364 207.206596 123.911364 
C 206.020572 123.911364 204.882964 124.382576 204.044318 125.221222 
C 203.205672 126.059868 202.73446 127.197476 202.73446 128.3835 
C 202.73446 129.569524 203.205672 130.707132 204.044318 131.545778 
C 204.882964 132.384423 206.020572 132.855636 207.206596 132.855636 
z
" clip-path="url(#p6d3d57e521)" style="fill-opacity: 0.7; stroke: #ffffff; stroke-opacity: 0.7; stroke-width: 0.715542"/>
    <path d="M 240.762758 278.665235 
C 241.948782 278.665235 243.086389 278.194023 243.925035 277.355377 
C 244.763681 276.516731 245.234894 275.379124 245.234894 274.193099 
C 245.234894 273.007075 244.763681 271.869468 243.925035 271.030822 
C 243.086389 270.192176 241.948782 269.720963 240.762758 269.720963 
C 239.576733 269.720963 238.439126 270.192176 237.60048 271.030822 
C 236.761834 271.869468 236.290622 273.007075 236.290622 274.193099 
C 236.290622 275.379124 236.761834 276.516731 237.60048 277.355377 
C 238.439126 278.194023 239.576733 278.665235 240.762758 278.665235 
z
" clip-path="url(#p6d3d57e521)" style="fill: #808080; fill-opacity: 0.7; stroke: #ffffff; stroke-opacity: 0.7; stroke-width: 0.715542"/>
    <path d="M 341.431242 216.397307 
C 342.617267 216.397307 343.754874 215.926095 344.59352 215.087449 
C 345.432166 214.248803 345.903378 213.111196 345.903378 211.925171 
C 345.903378 210.739147 345.432166 209.601539 344.59352 208.762894 
C 343.754874 207.924248 342.617267 207.453035 341.431242 207.453035 
C 340.245218 207.453035 339.107611 207.924248 338.268965 208.762894 
C 337.430319 209.601539 336.959106 210.739147 336.959106 211.925171 
C 336.959106 213.111196 337.430319 214.248803 338.268965 215.087449 
C 339.107611 215.926095 340.245218 216.397307 341.431242 216.397307 
z
" clip-path="url(#p6d3d57e521)" style="fill-opacity: 0.7; stroke: #ffffff; stroke-opacity: 0.7; stroke-width: 0.715542"/>
    <path d="M 173.650434 105.953387 
C 174.836459 105.953387 175.974066 105.482174 176.812712 104.643528 
C 177.651358 103.804883 178.12257 102.667275 178.12257 101.481251 
C 178.12257 100.295226 177.651358 99.157619 176.812712 98.318973 
C 175.974066 97.480327 174.836459 97.009115 173.650434 97.009115 
C 172.46441 97.009115 171.326803 97.480327 170.488157 98.318973 
C 169.649511 99.157619 169.178298 100.295226 169.178298 101.481251 
C 169.178298 102.667275 169.649511 103.804883 170.488157 104.643528 
C 171.326803 105.482174 172.46441 105.953387 173.650434 105.953387 
z
" clip-path="url(#p6d3d57e521)" style="fill-opacity: 0.7; stroke: #ffffff; stroke-opacity: 0.7; stroke-width: 0.715542"/>
    <path d="M 374.987404 150.414447 
C 376.173428 150.414447 377.311036 149.943235 378.149682 149.104589 
C 378.988328 148.265943 379.45954 147.128336 379.45954 145.942311 
C 379.45954 144.756287 378.988328 143.61868 378.149682 142.780034 
C 377.311036 141.941388 376.173428 141.470175 374.987404 141.470175 
C 373.80138 141.470175 372.663772 141.941388 371.825126 142.780034 
C 370.986481 143.61868 370.515268 144.756287 370.515268 145.942311 
C 370.515268 147.128336 370.986481 148.265943 371.825126 149.104589 
C 372.663772 149.943235 373.80138 150.414447 374.987404 150.414447 
z
" clip-path="url(#p6d3d57e521)" style="fill-opacity: 0.7; stroke: #ffffff; stroke-opacity: 0.7; stroke-width: 0.715542"/>
    <path d="M 442.099727 75.412985 
C 443.285752 75.412985 444.423359 74.941772 445.262005 74.103127 
C 446.100651 73.264481 446.571863 72.126873 446.571863 70.940849 
C 446.571863 69.754825 446.100651 68.617217 445.262005 67.778571 
C 444.423359 66.939925 443.285752 66.468713 442.099727 66.468713 
C 440.913703 66.468713 439.776095 66.939925 438.93745 67.778571 
C 438.098804 68.617217 437.627591 69.754825 437.627591 70.940849 
C 437.627591 72.126873 438.098804 73.264481 438.93745 74.103127 
C 439.776095 74.941772 440.913703 75.412985 442.099727 75.412985 
z
" clip-path="url(#p6d3d57e521)" style="fill: #808080; fill-opacity: 0.7; stroke: #ffffff; stroke-opacity: 0.7; stroke-width: 0.715542"/>
    <path d="M 307.875081 165.788005 
C 309.061105 165.788005 310.198713 165.316792 311.037358 164.478147 
C 311.876004 163.639501 312.347217 162.501893 312.347217 161.315869 
C 312.347217 160.129845 311.876004 158.992237 311.037358 158.153591 
C 310.198713 157.314945 309.061105 156.843733 307.875081 156.843733 
C 306.689056 156.843733 305.551449 157.314945 304.712803 158.153591 
C 303.874157 158.992237 303.402945 160.129845 303.402945 161.315869 
C 303.402945 162.501893 303.874157 163.639501 304.712803 164.478147 
C 305.551449 165.316792 306.689056 165.788005 307.875081 165.788005 
z
" clip-path="url(#p6d3d57e521)" style="fill: #808080; fill-opacity: 0.7; stroke: #ffffff; stroke-opacity: 0.7; stroke-width: 0.715542"/>
    <path d="M 240.762758 137.592322 
C 241.948782 137.592322 243.086389 137.121109 243.925035 136.282463 
C 244.763681 135.443817 245.234894 134.30621 245.234894 133.120186 
C 245.234894 131.934161 244.763681 130.796554 243.925035 129.957908 
C 243.086389 129.119262 241.948782 128.64805 240.762758 128.64805 
C 239.576733 128.64805 238.439126 129.119262 237.60048 129.957908 
C 236.761834 130.796554 236.290622 131.934161 236.290622 133.120186 
C 236.290622 134.30621 236.761834 135.443817 237.60048 136.282463 
C 238.439126 137.121109 239.576733 137.592322 240.762758 137.592322 
z
" clip-path="url(#p6d3d57e521)" style="fill-opacity: 0.7; stroke: #ffffff; stroke-opacity: 0.7; stroke-width: 0.715542"/>
    <path d="M 274.318919 144.236675 
C 275.504944 144.236675 276.642551 143.765463 277.481197 142.926817 
C 278.319843 142.088171 278.791055 140.950563 278.791055 139.764539 
C 278.791055 138.578515 278.319843 137.440907 277.481197 136.602261 
C 276.642551 135.763616 275.504944 135.292403 274.318919 135.292403 
C 273.132895 135.292403 271.995287 135.763616 271.156642 136.602261 
C 270.317996 137.440907 269.846783 138.578515 269.846783 139.764539 
C 269.846783 140.950563 270.317996 142.088171 271.156642 142.926817 
C 271.995287 143.765463 273.132895 144.236675 274.318919 144.236675 
z
" clip-path="url(#p6d3d57e521)" style="fill-opacity: 0.7; stroke: #ffffff; stroke-opacity: 0.7; stroke-width: 0.715542"/>
    <path d="M 140.094273 112.207938 
C 141.280297 112.207938 142.417905 111.736726 143.25655 110.89808 
C 144.095196 110.059434 144.566409 108.921827 144.566409 107.735802 
C 144.566409 106.549778 144.095196 105.41217 143.25655 104.573525 
C 142.417905 103.734879 141.280297 103.263666 140.094273 103.263666 
C 138.908248 103.263666 137.770641 103.734879 136.931995 104.573525 
C 136.093349 105.41217 135.622137 106.549778 135.622137 107.735802 
C 135.622137 108.921827 136.093349 110.059434 136.931995 110.89808 
C 137.770641 111.736726 138.908248 112.207938 140.094273 112.207938 
z
" clip-path="url(#p6d3d57e521)" style="fill-opacity: 0.7; stroke: #ffffff; stroke-opacity: 0.7; stroke-width: 0.715542"/>
    <path d="M 341.431242 109.544291 
C 342.617267 109.544291 343.754874 109.073078 344.59352 108.234432 
C 345.432166 107.395787 345.903378 106.258179 345.903378 105.072155 
C 345.903378 103.88613 345.432166 102.748523 344.59352 101.909877 
C 343.754874 101.071231 342.617267 100.600019 341.431242 100.600019 
C 340.245218 100.600019 339.107611 101.071231 338.268965 101.909877 
C 337.430319 102.748523 336.959106 103.88613 336.959106 105.072155 
C 336.959106 106.258179 337.430319 107.395787 338.268965 108.234432 
C 339.107611 109.073078 340.245218 109.544291 341.431242 109.544291 
z
" clip-path="url(#p6d3d57e521)" style="fill: #808080; fill-opacity: 0.7; stroke: #ffffff; stroke-opacity: 0.7; stroke-width: 0.715542"/>
    <path d="M 173.650434 213.786815 
C 174.836459 213.786815 175.974066 213.315602 176.812712 212.476956 
C 177.651358 211.63831 178.12257 210.500703 178.12257 209.314679 
C 178.12257 208.128654 177.651358 206.991047 176.812712 206.152401 
C 175.974066 205.313755 174.836459 204.842543 173.650434 204.842543 
C 172.46441 204.842543 171.326803 205.313755 170.488157 206.152401 
C 169.649511 206.991047 169.178298 208.128654 169.178298 209.314679 
C 169.178298 210.500703 169.649511 211.63831 170.488157 212.476956 
C 171.326803 213.315602 172.46441 213.786815 173.650434 213.786815 
z
" clip-path="url(#p6d3d57e521)" style="fill: #808080; fill-opacity: 0.7; stroke: #ffffff; stroke-opacity: 0.7; stroke-width: 0.715542"/>
    <path d="M 207.206596 125.591143 
C 208.39262 125.591143 209.530228 125.11993 210.368874 124.281284 
C 211.207519 123.442639 211.678732 122.305031 211.678732 121.119007 
C 211.678732 119.932982 211.207519 118.795375 210.368874 117.956729 
C 209.530228 117.118083 208.39262 116.646871 207.206596 116.646871 
C 206.020572 116.646871 204.882964 117.118083 204.044318 117.956729 
C 203.205672 118.795375 202.73446 119.932982 202.73446 121.119007 
C 202.73446 122.305031 203.205672 123.442639 204.044318 124.281284 
C 204.882964 125.11993 206.020572 125.591143 207.206596 125.591143 
z
" clip-path="url(#p6d3d57e521)" style="fill-opacity: 0.7; stroke: #ffffff; stroke-opacity: 0.7; stroke-width: 0.715542"/>
    <path d="M 173.650434 138.301053 
C 174.836459 138.301053 175.974066 137.82984 176.812712 136.991194 
C 177.651358 136.152549 178.12257 135.014941 178.12257 133.828917 
C 178.12257 132.642892 177.651358 131.505285 176.812712 130.666639 
C 175.974066 129.827993 174.836459 129.356781 173.650434 129.356781 
C 172.46441 129.356781 171.326803 129.827993 170.488157 130.666639 
C 169.649511 131.505285 169.178298 132.642892 169.178298 133.828917 
C 169.178298 135.014941 169.649511 136.152549 170.488157 136.991194 
C 171.326803 137.82984 172.46441 138.301053 173.650434 138.301053 
z
" clip-path="url(#p6d3d57e521)" style="fill-opacity: 0.7; stroke: #ffffff; stroke-opacity: 0.7; stroke-width: 0.715542"/>
    <path d="M 173.650434 159.149557 
C 174.836459 159.149557 175.974066 158.678345 176.812712 157.839699 
C 177.651358 157.001053 178.12257 155.863446 178.12257 154.677421 
C 178.12257 153.491397 177.651358 152.35379 176.812712 151.515144 
C 175.974066 150.676498 174.836459 150.205286 173.650434 150.205286 
C 172.46441 150.205286 171.326803 150.676498 170.488157 151.515144 
C 169.649511 152.35379 169.178298 153.491397 169.178298 154.677421 
C 169.178298 155.863446 169.649511 157.001053 170.488157 157.839699 
C 171.326803 158.678345 172.46441 159.149557 173.650434 159.149557 
z
" clip-path="url(#p6d3d57e521)" style="fill-opacity: 0.7; stroke: #ffffff; stroke-opacity: 0.7; stroke-width: 0.715542"/>
    <path d="M 442.099727 143.144048 
C 443.285752 143.144048 444.423359 142.672836 445.262005 141.83419 
C 446.100651 140.995544 446.571863 139.857936 446.571863 138.671912 
C 446.571863 137.485888 446.100651 136.34828 445.262005 135.509634 
C 444.423359 134.670989 443.285752 134.199776 442.099727 134.199776 
C 440.913703 134.199776 439.776095 134.670989 438.93745 135.509634 
C 438.098804 136.34828 437.627591 137.485888 437.627591 138.671912 
C 437.627591 139.857936 438.098804 140.995544 438.93745 141.83419 
C 439.776095 142.672836 440.913703 143.144048 442.099727 143.144048 
z
" clip-path="url(#p6d3d57e521)" style="fill: #808080; fill-opacity: 0.7; stroke: #ffffff; stroke-opacity: 0.7; stroke-width: 0.715542"/>
   </g>
   <g id="matplotlib.axis_1">
    <g id="xtick_1">
     <g id="line2d_1">
      <defs>
       <path id="m6dc5fb3972" d="M 0 0 
L 0 3.5 
" style="stroke: #000000; stroke-width: 0.8"/>
      </defs>
      <g>
       <use xlink:href="#m6dc5fb3972" x="157.899575" y="366.28" style="stroke: #000000; stroke-width: 0.8"/>
      </g>
     </g>
     <g id="text_1">
      <text style="font: 20px 'DejaVu Sans', 'Bitstream Vera Sans', 'Computer Modern Sans Serif', 'Lucida Grande', 'Verdana', 'Geneva', 'Lucid', 'Arial', 'Helvetica', 'Avant Garde', sans-serif; text-anchor: middle" x="157.899575" y="388.476875" transform="rotate(-0 157.899575 388.476875)">−4</text>
     </g>
    </g>
    <g id="xtick_2">
     <g id="line2d_2">
      <g>
       <use xlink:href="#m6dc5fb3972" x="225.011898" y="366.28" style="stroke: #000000; stroke-width: 0.8"/>
      </g>
     </g>
     <g id="text_2">
      <text style="font: 20px 'DejaVu Sans', 'Bitstream Vera Sans', 'Computer Modern Sans Serif', 'Lucida Grande', 'Verdana', 'Geneva', 'Lucid', 'Arial', 'Helvetica', 'Avant Garde', sans-serif; text-anchor: middle" x="225.011898" y="388.476875" transform="rotate(-0 225.011898 388.476875)">−2</text>
     </g>
    </g>
    <g id="xtick_3">
     <g id="line2d_3">
      <g>
       <use xlink:href="#m6dc5fb3972" x="292.124221" y="366.28" style="stroke: #000000; stroke-width: 0.8"/>
      </g>
     </g>
     <g id="text_3">
      <text style="font: 20px 'DejaVu Sans', 'Bitstream Vera Sans', 'Computer Modern Sans Serif', 'Lucida Grande', 'Verdana', 'Geneva', 'Lucid', 'Arial', 'Helvetica', 'Avant Garde', sans-serif; text-anchor: middle" x="292.124221" y="388.476875" transform="rotate(-0 292.124221 388.476875)">0</text>
     </g>
    </g>
    <g id="xtick_4">
     <g id="line2d_4">
      <g>
       <use xlink:href="#m6dc5fb3972" x="359.236544" y="366.28" style="stroke: #000000; stroke-width: 0.8"/>
      </g>
     </g>
     <g id="text_4">
      <text style="font: 20px 'DejaVu Sans', 'Bitstream Vera Sans', 'Computer Modern Sans Serif', 'Lucida Grande', 'Verdana', 'Geneva', 'Lucid', 'Arial', 'Helvetica', 'Avant Garde', sans-serif; text-anchor: middle" x="359.236544" y="388.476875" transform="rotate(-0 359.236544 388.476875)">2</text>
     </g>
    </g>
    <g id="xtick_5">
     <g id="line2d_5">
      <g>
       <use xlink:href="#m6dc5fb3972" x="426.348868" y="366.28" style="stroke: #000000; stroke-width: 0.8"/>
      </g>
     </g>
     <g id="text_5">
      <text style="font: 20px 'DejaVu Sans', 'Bitstream Vera Sans', 'Computer Modern Sans Serif', 'Lucida Grande', 'Verdana', 'Geneva', 'Lucid', 'Arial', 'Helvetica', 'Avant Garde', sans-serif; text-anchor: middle" x="426.348868" y="388.476875" transform="rotate(-0 426.348868 388.476875)">4</text>
     </g>
    </g>
    <g id="text_6">
     <text style="font: 24px 'DejaVu Sans', 'Bitstream Vera Sans', 'Computer Modern Sans Serif', 'Lucida Grande', 'Verdana', 'Geneva', 'Lucid', 'Arial', 'Helvetica', 'Avant Garde', sans-serif; text-anchor: middle" x="291.097" y="414.8725" transform="rotate(-0 291.097 414.8725)">Reward Sensitivity</text>
    </g>
   </g>
   <g id="matplotlib.axis_2">
    <g id="ytick_1">
     <g id="line2d_6">
      <defs>
       <path id="m21a6a9bf07" d="M 0 0 
L -3.5 0 
" style="stroke: #000000; stroke-width: 0.8"/>
      </defs>
      <g>
       <use xlink:href="#m21a6a9bf07" x="124.994" y="344.729556" style="stroke: #000000; stroke-width: 0.8"/>
      </g>
     </g>
     <g id="text_7">
      <text style="font: 20px 'DejaVu Sans', 'Bitstream Vera Sans', 'Computer Modern Sans Serif', 'Lucida Grande', 'Verdana', 'Geneva', 'Lucid', 'Arial', 'Helvetica', 'Avant Garde', sans-serif; text-anchor: end" x="117.994" y="352.327994" transform="rotate(-0 117.994 352.327994)">-0.04</text>
     </g>
    </g>
    <g id="ytick_2">
     <g id="line2d_7">
      <g>
       <use xlink:href="#m21a6a9bf07" x="124.994" y="285.668636" style="stroke: #000000; stroke-width: 0.8"/>
      </g>
     </g>
     <g id="text_8">
      <text style="font: 20px 'DejaVu Sans', 'Bitstream Vera Sans', 'Computer Modern Sans Serif', 'Lucida Grande', 'Verdana', 'Geneva', 'Lucid', 'Arial', 'Helvetica', 'Avant Garde', sans-serif; text-anchor: end" x="117.994" y="293.267074" transform="rotate(-0 117.994 293.267074)">-0.03</text>
     </g>
    </g>
    <g id="ytick_3">
     <g id="line2d_8">
      <g>
       <use xlink:href="#m21a6a9bf07" x="124.994" y="226.607716" style="stroke: #000000; stroke-width: 0.8"/>
      </g>
     </g>
     <g id="text_9">
      <text style="font: 20px 'DejaVu Sans', 'Bitstream Vera Sans', 'Computer Modern Sans Serif', 'Lucida Grande', 'Verdana', 'Geneva', 'Lucid', 'Arial', 'Helvetica', 'Avant Garde', sans-serif; text-anchor: end" x="117.994" y="234.206154" transform="rotate(-0 117.994 234.206154)">-0.02</text>
     </g>
    </g>
    <g id="ytick_4">
     <g id="line2d_9">
      <g>
       <use xlink:href="#m21a6a9bf07" x="124.994" y="167.546796" style="stroke: #000000; stroke-width: 0.8"/>
      </g>
     </g>
     <g id="text_10">
      <text style="font: 20px 'DejaVu Sans', 'Bitstream Vera Sans', 'Computer Modern Sans Serif', 'Lucida Grande', 'Verdana', 'Geneva', 'Lucid', 'Arial', 'Helvetica', 'Avant Garde', sans-serif; text-anchor: end" x="117.994" y="175.145233" transform="rotate(-0 117.994 175.145233)">-0.01</text>
     </g>
    </g>
    <g id="ytick_5">
     <g id="line2d_10">
      <g>
       <use xlink:href="#m21a6a9bf07" x="124.994" y="108.485876" style="stroke: #000000; stroke-width: 0.8"/>
      </g>
     </g>
     <g id="text_11">
      <text style="font: 20px 'DejaVu Sans', 'Bitstream Vera Sans', 'Computer Modern Sans Serif', 'Lucida Grande', 'Verdana', 'Geneva', 'Lucid', 'Arial', 'Helvetica', 'Avant Garde', sans-serif; text-anchor: end" x="117.994" y="116.084313" transform="rotate(-0 117.994 116.084313)">0.00</text>
     </g>
    </g>
    <g id="ytick_6">
     <g id="line2d_11">
      <g>
       <use xlink:href="#m21a6a9bf07" x="124.994" y="49.424956" style="stroke: #000000; stroke-width: 0.8"/>
      </g>
     </g>
     <g id="text_12">
      <text style="font: 20px 'DejaVu Sans', 'Bitstream Vera Sans', 'Computer Modern Sans Serif', 'Lucida Grande', 'Verdana', 'Geneva', 'Lucid', 'Arial', 'Helvetica', 'Avant Garde', sans-serif; text-anchor: end" x="117.994" y="57.023393" transform="rotate(-0 117.994 57.023393)">0.01</text>
     </g>
    </g>
    <g id="text_13">
     <text style="font: 24px 'DejaVu Sans', 'Bitstream Vera Sans', 'Computer Modern Sans Serif', 'Lucida Grande', 'Verdana', 'Geneva', 'Lucid', 'Arial', 'Helvetica', 'Avant Garde', sans-serif" transform="translate(30.381125 319.505) rotate(-90)">Behavioral Motivation</text>
     <text style="font: 24px 'DejaVu Sans', 'Bitstream Vera Sans', 'Computer Modern Sans Serif', 'Lucida Grande', 'Verdana', 'Geneva', 'Lucid', 'Arial', 'Helvetica', 'Avant Garde', sans-serif" transform="translate(57.255875 238.90625) rotate(-90)">(HS&gt;LS)</text>
    </g>
   </g>
   <g id="line2d_12"/>
   <g id="line2d_13"/>
   <g id="line2d_14">
    <path d="M 140.094273 120.300139 
L 142.805882 120.695539 
L 145.517491 121.090939 
L 148.2291 121.486339 
L 150.940709 121.881739 
L 153.652318 122.277139 
L 156.363927 122.672539 
L 159.075536 123.067939 
L 161.787145 123.463339 
L 164.498754 123.858739 
L 167.210363 124.254139 
L 169.921972 124.649539 
L 172.633581 125.044939 
L 175.34519 125.440339 
L 178.056799 125.835739 
L 180.768408 126.231139 
L 183.480017 126.626539 
L 186.191626 127.021939 
L 188.903235 127.417339 
L 191.614844 127.812739 
L 194.326453 128.208139 
L 197.038062 128.603539 
L 199.749671 128.998939 
L 202.46128 129.394339 
L 205.172889 129.789739 
L 207.884498 130.185139 
L 210.596107 130.580539 
L 213.307716 130.975939 
L 216.019325 131.371339 
L 218.730934 131.766738 
L 221.442543 132.162138 
L 224.154152 132.557538 
L 226.865761 132.952938 
L 229.57737 133.348338 
L 232.288979 133.743738 
L 235.000588 134.139138 
L 237.712197 134.534538 
L 240.423806 134.929938 
L 243.135415 135.325338 
L 245.847024 135.720738 
L 248.558634 136.116138 
L 251.270243 136.511538 
L 253.981852 136.906938 
L 256.693461 137.302338 
L 259.40507 137.697738 
L 262.116679 138.093138 
L 264.828288 138.488538 
L 267.539897 138.883938 
L 270.251506 139.279338 
L 272.963115 139.674738 
L 275.674724 140.070138 
L 278.386333 140.465538 
L 281.097942 140.860938 
L 283.809551 141.256338 
L 286.52116 141.651738 
L 289.232769 142.047138 
L 291.944378 142.442538 
L 294.655987 142.837938 
L 297.367596 143.233338 
L 300.079205 143.628738 
L 302.790814 144.024138 
L 305.502423 144.419538 
L 308.214032 144.814938 
L 310.925641 145.210338 
L 313.63725 145.605738 
L 316.348859 146.001138 
L 319.060468 146.396538 
L 321.772077 146.791938 
L 324.483686 147.187338 
L 327.195295 147.582738 
L 329.906904 147.978138 
L 332.618513 148.373538 
L 335.330122 148.768938 
L 338.041731 149.164338 
L 340.75334 149.559737 
L 343.464949 149.955137 
L 346.176558 150.350537 
L 348.888167 150.745937 
L 351.599776 151.141337 
L 354.311385 151.536737 
L 357.022994 151.932137 
L 359.734603 152.327537 
L 362.446212 152.722937 
L 365.157821 153.118337 
L 367.86943 153.513737 
L 370.581039 153.909137 
L 373.292648 154.304537 
L 376.004257 154.699937 
L 378.715866 155.095337 
L 381.427475 155.490737 
L 384.139084 155.886137 
L 386.850694 156.281537 
L 389.562303 156.676937 
L 392.273912 157.072337 
L 394.985521 157.467737 
L 397.69713 157.863137 
L 400.408739 158.258537 
L 403.120348 158.653937 
L 405.831957 159.049337 
L 408.543566 159.444737 
" clip-path="url(#p6d3d57e521)" style="fill: none; stroke: #000000; stroke-width: 2; stroke-linecap: square"/>
   </g>
   <g id="line2d_15">
    <path d="M 173.650434 168.307369 
L 176.362043 167.771021 
L 179.073652 167.234674 
L 181.785261 166.698326 
L 184.49687 166.161978 
L 187.208479 165.62563 
L 189.920088 165.089283 
L 192.631697 164.552935 
L 195.343306 164.016587 
L 198.054916 163.480239 
L 200.766525 162.943892 
L 203.478134 162.407544 
L 206.189743 161.871196 
L 208.901352 161.334848 
L 211.612961 160.7985 
L 214.32457 160.262153 
L 217.036179 159.725805 
L 219.747788 159.189457 
L 222.459397 158.653109 
L 225.171006 158.116762 
L 227.882615 157.580414 
L 230.594224 157.044066 
L 233.305833 156.507718 
L 236.017442 155.971371 
L 238.729051 155.435023 
L 241.44066 154.898675 
L 244.152269 154.362327 
L 246.863878 153.82598 
L 249.575487 153.289632 
L 252.287096 152.753284 
L 254.998705 152.216936 
L 257.710314 151.680589 
L 260.421923 151.144241 
L 263.133532 150.607893 
L 265.845141 150.071545 
L 268.55675 149.535198 
L 271.268359 148.99885 
L 273.979968 148.462502 
L 276.691577 147.926154 
L 279.403186 147.389807 
L 282.114795 146.853459 
L 284.826404 146.317111 
L 287.538013 145.780763 
L 290.249622 145.244416 
L 292.961231 144.708068 
L 295.67284 144.17172 
L 298.384449 143.635372 
L 301.096058 143.099025 
L 303.807667 142.562677 
L 306.519276 142.026329 
L 309.230885 141.489981 
L 311.942494 140.953634 
L 314.654103 140.417286 
L 317.365712 139.880938 
L 320.077321 139.34459 
L 322.78893 138.808243 
L 325.500539 138.271895 
L 328.212148 137.735547 
L 330.923757 137.199199 
L 333.635366 136.662852 
L 336.346976 136.126504 
L 339.058585 135.590156 
L 341.770194 135.053808 
L 344.481803 134.517461 
L 347.193412 133.981113 
L 349.905021 133.444765 
L 352.61663 132.908417 
L 355.328239 132.37207 
L 358.039848 131.835722 
L 360.751457 131.299374 
L 363.463066 130.763026 
L 366.174675 130.226679 
L 368.886284 129.690331 
L 371.597893 129.153983 
L 374.309502 128.617635 
L 377.021111 128.081287 
L 379.73272 127.54494 
L 382.444329 127.008592 
L 385.155938 126.472244 
L 387.867547 125.935896 
L 390.579156 125.399549 
L 393.290765 124.863201 
L 396.002374 124.326853 
L 398.713983 123.790505 
L 401.425592 123.254158 
L 404.137201 122.71781 
L 406.84881 122.181462 
L 409.560419 121.645114 
L 412.272028 121.108767 
L 414.983637 120.572419 
L 417.695246 120.036071 
L 420.406855 119.499723 
L 423.118464 118.963376 
L 425.830073 118.427028 
L 428.541682 117.89068 
L 431.253291 117.354332 
L 433.9649 116.817985 
L 436.676509 116.281637 
L 439.388118 115.745289 
L 442.099727 115.208941 
" clip-path="url(#p6d3d57e521)" style="fill: none; stroke: #808080; stroke-width: 2; stroke-linecap: square"/>
   </g>
   <g id="line2d_16">
    <path d="M 292.124221 366.28 
L 292.124221 10.8 
" clip-path="url(#p6d3d57e521)" style="fill: none; stroke-dasharray: 3.7,1.6; stroke-dashoffset: 0; stroke: #000000; stroke-opacity: 0.3"/>
   </g>
   <g id="line2d_17">
    <path d="M 124.994 108.485876 
L 457.2 108.485876 
" clip-path="url(#p6d3d57e521)" style="fill: none; stroke-dasharray: 3.7,1.6; stroke-dashoffset: 0; stroke: #000000; stroke-opacity: 0.3"/>
   </g>
   <g id="patch_3">
    <path d="M 124.994 366.28 
L 124.994 10.8 
" style="fill: none; stroke: #000000; stroke-linejoin: miter; stroke-linecap: square"/>
   </g>
   <g id="patch_4">
    <path d="M 124.994 366.28 
L 457.2 366.28 
" style="fill: none; stroke: #000000; stroke-linejoin: miter; stroke-linecap: square"/>
   </g>
   <g id="legend_1">
    <g id="patch_5">
     <path d="M 136.194 358.28 
L 222.2765 358.28 
Q 225.4765 358.28 225.4765 355.08 
L 225.4765 282.35375 
Q 225.4765 279.15375 222.2765 279.15375 
L 136.194 279.15375 
Q 132.994 279.15375 132.994 282.35375 
L 132.994 355.08 
Q 132.994 358.28 136.194 358.28 
z
" style="fill: #ffffff; opacity: 0.8; stroke: #cccccc; stroke-linejoin: miter"/>
    </g>
    <g id="text_14">
     <text style="font: 20px 'DejaVu Sans', 'Bitstream Vera Sans', 'Computer Modern Sans Serif', 'Lucida Grande', 'Verdana', 'Geneva', 'Lucid', 'Arial', 'Helvetica', 'Avant Garde', sans-serif; text-anchor: start" x="148.302438" y="300.750625" transform="rotate(-0 148.302438 300.750625)">TEPSa</text>
    </g>
    <g id="line2d_18">
     <defs>
      <path id="m0041efe939" d="M 0 4.472136 
C 1.186024 4.472136 2.323632 4.000923 3.162278 3.162278 
C 4.000923 2.323632 4.472136 1.186024 4.472136 0 
C 4.472136 -1.186024 4.000923 -2.323632 3.162278 -3.162278 
C 2.323632 -4.000923 1.186024 -4.472136 0 -4.472136 
C -1.186024 -4.472136 -2.323632 -4.000923 -3.162278 -3.162278 
C -4.000923 -2.323632 -4.472136 -1.186024 -4.472136 0 
C -4.472136 1.186024 -4.000923 2.323632 -3.162278 3.162278 
C -2.323632 4.000923 -1.186024 4.472136 0 4.472136 
z
" style="stroke: #ffffff; stroke-opacity: 0.7; stroke-width: 0.715542"/>
     </defs>
     <g>
      <use xlink:href="#m0041efe939" x="155.394" y="319.4675" style="fill-opacity: 0.7; stroke: #ffffff; stroke-opacity: 0.7; stroke-width: 0.715542"/>
     </g>
    </g>
    <g id="text_15">
     <text style="font: 16px 'DejaVu Sans', 'Bitstream Vera Sans', 'Computer Modern Sans Serif', 'Lucida Grande', 'Verdana', 'Geneva', 'Lucid', 'Arial', 'Helvetica', 'Avant Garde', sans-serif; text-anchor: start" x="184.194" y="325.0675" transform="rotate(-0 184.194 325.0675)">low</text>
    </g>
    <g id="line2d_19">
     <defs>
      <path id="mc42016e142" d="M 0 4.472136 
C 1.186024 4.472136 2.323632 4.000923 3.162278 3.162278 
C 4.000923 2.323632 4.472136 1.186024 4.472136 0 
C 4.472136 -1.186024 4.000923 -2.323632 3.162278 -3.162278 
C 2.323632 -4.000923 1.186024 -4.472136 0 -4.472136 
C -1.186024 -4.472136 -2.323632 -4.000923 -3.162278 -3.162278 
C -4.000923 -2.323632 -4.472136 -1.186024 -4.472136 0 
C -4.472136 1.186024 -4.000923 2.323632 -3.162278 3.162278 
C -2.323632 4.000923 -1.186024 4.472136 0 4.472136 
z
" style="stroke: #ffffff; stroke-opacity: 0.7; stroke-width: 0.715542"/>
     </defs>
     <g>
      <use xlink:href="#mc42016e142" x="155.394" y="342.9525" style="fill: #808080; fill-opacity: 0.7; stroke: #ffffff; stroke-opacity: 0.7; stroke-width: 0.715542"/>
     </g>
    </g>
    <g id="text_16">
     <text style="font: 16px 'DejaVu Sans', 'Bitstream Vera Sans', 'Computer Modern Sans Serif', 'Lucida Grande', 'Verdana', 'Geneva', 'Lucid', 'Arial', 'Helvetica', 'Avant Garde', sans-serif; text-anchor: start" x="184.194" y="348.5525" transform="rotate(-0 184.194 348.5525)">high</text>
    </g>
   </g>
  </g>
 </g>
 <defs>
  <clipPath id="p6d3d57e521">
   <rect x="124.994" y="10.8" width="332.206" height="355.48"/>
  </clipPath>
 </defs>
</svg>
