<?xml version="1.0" encoding="utf-8" standalone="no"?>
<!DOCTYPE svg PUBLIC "-//W3C//DTD SVG 1.1//EN"
  "http://www.w3.org/Graphics/SVG/1.1/DTD/svg11.dtd">
<svg xmlns:xlink="http://www.w3.org/1999/xlink" width="576pt" height="432pt" viewBox="0 0 576 432" xmlns="http://www.w3.org/2000/svg" version="1.1">
 <metadata>
  <rdf:RDF xmlns:dc="http://purl.org/dc/elements/1.1/" xmlns:cc="http://creativecommons.org/ns#" xmlns:rdf="http://www.w3.org/1999/02/22-rdf-syntax-ns#">
   <cc:Work>
    <dc:type rdf:resource="http://purl.org/dc/dcmitype/StillImage"/>
    <dc:date>2025-04-30T17:45:38.729916</dc:date>
    <dc:format>image/svg+xml</dc:format>
    <dc:creator>
     <cc:Agent>
      <dc:title>Matplotlib v3.9.2, https://matplotlib.org/</dc:title>
     </cc:Agent>
    </dc:creator>
   </cc:Work>
  </rdf:RDF>
 </metadata>
 <defs>
  <style type="text/css">*{stroke-linejoin: round; stroke-linecap: butt}</style>
 </defs>
 <g id="figure_1">
  <g id="patch_1">
   <path d="M 0 432 
L 576 432 
L 576 0 
L 0 0 
z
" style="fill: #ffffff"/>
  </g>
  <g id="axes_1">
   <g id="patch_2">
    <path d="M 76.655 384.9325 
L 565.2 384.9325 
L 565.2 10.8 
L 76.655 10.8 
z
" style="fill: #ffffff"/>
   </g>
   <g id="matplotlib.axis_1">
    <g id="xtick_1">
     <g id="text_1">
      <text style="fill: #262626; font: 12px 'Arial', 'DejaVu Sans', 'Liberation Sans', 'Bitstream Vera Sans', sans-serif; text-anchor: middle" x="198.79125" y="400.521875" transform="rotate(-0 198.79125 400.521875)">Low RS</text>
     </g>
    </g>
    <g id="xtick_2">
     <g id="text_2">
      <text style="fill: #262626; font: 12px 'Arial', 'DejaVu Sans', 'Liberation Sans', 'Bitstream Vera Sans', sans-serif; text-anchor: middle" x="443.06375" y="400.668125" transform="rotate(-0 443.06375 400.668125)">High RS</text>
     </g>
    </g>
    <g id="text_3">
     <text style="fill: #262626; font: 16px 'Arial', 'DejaVu Sans', 'Liberation Sans', 'Bitstream Vera Sans', sans-serif; text-anchor: middle" x="320.9275" y="418.84125" transform="rotate(-0 320.9275 418.84125)">Residual Reward Sensitivity</text>
    </g>
   </g>
   <g id="matplotlib.axis_2">
    <g id="ytick_1">
     <g id="text_4">
      <text style="fill: #262626; font: 12px 'Arial', 'DejaVu Sans', 'Liberation Sans', 'Bitstream Vera Sans', sans-serif; text-anchor: end" x="69.655" y="381.597218" transform="rotate(-0 69.655 381.597218)">−2.0</text>
     </g>
    </g>
    <g id="ytick_2">
     <g id="text_5">
      <text style="fill: #262626; font: 12px 'Arial', 'DejaVu Sans', 'Liberation Sans', 'Bitstream Vera Sans', sans-serif; text-anchor: end" x="69.655" y="332.657044" transform="rotate(-0 69.655 332.657044)">−1.5</text>
     </g>
    </g>
    <g id="ytick_3">
     <g id="text_6">
      <text style="fill: #262626; font: 12px 'Arial', 'DejaVu Sans', 'Liberation Sans', 'Bitstream Vera Sans', sans-serif; text-anchor: end" x="69.655" y="283.71687" transform="rotate(-0 69.655 283.71687)">−1.0</text>
     </g>
    </g>
    <g id="ytick_4">
     <g id="text_7">
      <text style="fill: #262626; font: 12px 'Arial', 'DejaVu Sans', 'Liberation Sans', 'Bitstream Vera Sans', sans-serif; text-anchor: end" x="69.655" y="234.776697" transform="rotate(-0 69.655 234.776697)">−0.5</text>
     </g>
    </g>
    <g id="ytick_5">
     <g id="text_8">
      <text style="fill: #262626; font: 12px 'Arial', 'DejaVu Sans', 'Liberation Sans', 'Bitstream Vera Sans', sans-serif; text-anchor: end" x="69.655" y="185.836523" transform="rotate(-0 69.655 185.836523)">0.0</text>
     </g>
    </g>
    <g id="ytick_6">
     <g id="text_9">
      <text style="fill: #262626; font: 12px 'Arial', 'DejaVu Sans', 'Liberation Sans', 'Bitstream Vera Sans', sans-serif; text-anchor: end" x="69.655" y="136.896349" transform="rotate(-0 69.655 136.896349)">0.5</text>
     </g>
    </g>
    <g id="ytick_7">
     <g id="text_10">
      <text style="fill: #262626; font: 12px 'Arial', 'DejaVu Sans', 'Liberation Sans', 'Bitstream Vera Sans', sans-serif; text-anchor: end" x="69.655" y="87.956176" transform="rotate(-0 69.655 87.956176)">1.0</text>
     </g>
    </g>
    <g id="ytick_8">
     <g id="text_11">
      <text style="fill: #262626; font: 12px 'Arial', 'DejaVu Sans', 'Liberation Sans', 'Bitstream Vera Sans', sans-serif; text-anchor: end" x="69.655" y="39.016002" transform="rotate(-0 69.655 39.016002)">1.5</text>
     </g>
    </g>
    <g id="text_12">
     <text style="fill: #262626; font: 16px 'Arial', 'DejaVu Sans', 'Liberation Sans', 'Bitstream Vera Sans', sans-serif" transform="translate(21.25425 301.0075) rotate(-90)">Residual DMN-VS (Salience)</text>
     <text style="fill: #262626; font: 16px 'Arial', 'DejaVu Sans', 'Liberation Sans', 'Bitstream Vera Sans', sans-serif" transform="translate(38.59875 220.0875) rotate(-90)">(zstat)</text>
    </g>
   </g>
   <g id="PolyCollection_1">
    <defs>
     <path id="m49cbe03239" d="M 198.79125 -139.993782 
L 194.940474 -139.993782 
L 194.14444 -142.662471 
L 193.226434 -145.331159 
L 192.177263 -147.999848 
L 190.988945 -150.668537 
L 189.655094 -153.337226 
L 188.17129 -156.005915 
L 186.535414 -158.674604 
L 184.747922 -161.343292 
L 182.812043 -164.011981 
L 180.73387 -166.68067 
L 178.522353 -169.349359 
L 176.189167 -172.018048 
L 173.748463 -174.686737 
L 171.216515 -177.355426 
L 168.611271 -180.024114 
L 165.951834 -182.692803 
L 163.257904 -185.361492 
L 160.549216 -188.030181 
L 157.844998 -190.69887 
L 155.163486 -193.367559 
L 152.521532 -196.036247 
L 149.934305 -198.704936 
L 147.415113 -201.373625 
L 144.975332 -204.042314 
L 142.624446 -206.711003 
L 140.370161 -209.379692 
L 138.218579 -212.048381 
L 136.174391 -214.717069 
L 134.241059 -217.385758 
L 132.42096 -220.054447 
L 130.715455 -222.723136 
L 129.124882 -225.391825 
L 127.648463 -228.060514 
L 126.284138 -230.729202 
L 125.028333 -233.397891 
L 123.875721 -236.06658 
L 122.818989 -238.735269 
L 121.848668 -241.403958 
L 120.953069 -244.072647 
L 120.118353 -246.741335 
L 119.328777 -249.410024 
L 118.567116 -252.078713 
L 117.815272 -254.747402 
L 117.055046 -257.416091 
L 116.269042 -260.08478 
L 115.441657 -262.753469 
L 114.560101 -265.422157 
L 113.615373 -268.090846 
L 112.603144 -270.759535 
L 111.524465 -273.428224 
L 110.386264 -276.096913 
L 109.201579 -278.765602 
L 107.989499 -281.43429 
L 106.774823 -284.102979 
L 105.587413 -286.771668 
L 104.461309 -289.440357 
L 103.433609 -292.109046 
L 102.543199 -294.777735 
L 101.82937 -297.446424 
L 101.330416 -300.115112 
L 101.08225 -302.783801 
L 101.117124 -305.45249 
L 101.462494 -308.121179 
L 102.140084 -310.789868 
L 103.165166 -313.458557 
L 104.546096 -316.127245 
L 106.28409 -318.795934 
L 108.373252 -321.464623 
L 110.800826 -324.133312 
L 113.547653 -326.802001 
L 116.588798 -329.47069 
L 119.894318 -332.139378 
L 123.430129 -334.808067 
L 127.158935 -337.476756 
L 131.041195 -340.145445 
L 135.036079 -342.814134 
L 139.102408 -345.482823 
L 143.199533 -348.151512 
L 147.288147 -350.8202 
L 151.33101 -353.488889 
L 155.293576 -356.157578 
L 159.144517 -358.826267 
L 162.856133 -361.494956 
L 166.40465 -364.163645 
L 169.770405 -366.832333 
L 172.937926 -369.501022 
L 175.895901 -372.169711 
L 178.637061 -374.8384 
L 181.157969 -377.507089 
L 183.458736 -380.175778 
L 185.542682 -382.844467 
L 187.415942 -385.513155 
L 189.087045 -388.181844 
L 190.566479 -390.850533 
L 191.866245 -393.519222 
L 192.99943 -396.187911 
L 193.979801 -398.8566 
L 194.82143 -401.525288 
L 195.538361 -404.193977 
L 198.79125 -404.193977 
L 198.79125 -404.193977 
L 198.79125 -401.525288 
L 198.79125 -398.8566 
L 198.79125 -396.187911 
L 198.79125 -393.519222 
L 198.79125 -390.850533 
L 198.79125 -388.181844 
L 198.79125 -385.513155 
L 198.79125 -382.844467 
L 198.79125 -380.175778 
L 198.79125 -377.507089 
L 198.79125 -374.8384 
L 198.79125 -372.169711 
L 198.79125 -369.501022 
L 198.79125 -366.832333 
L 198.79125 -364.163645 
L 198.79125 -361.494956 
L 198.79125 -358.826267 
L 198.79125 -356.157578 
L 198.79125 -353.488889 
L 198.79125 -350.8202 
L 198.79125 -348.151512 
L 198.79125 -345.482823 
L 198.79125 -342.814134 
L 198.79125 -340.145445 
L 198.79125 -337.476756 
L 198.79125 -334.808067 
L 198.79125 -332.139378 
L 198.79125 -329.47069 
L 198.79125 -326.802001 
L 198.79125 -324.133312 
L 198.79125 -321.464623 
L 198.79125 -318.795934 
L 198.79125 -316.127245 
L 198.79125 -313.458557 
L 198.79125 -310.789868 
L 198.79125 -308.121179 
L 198.79125 -305.45249 
L 198.79125 -302.783801 
L 198.79125 -300.115112 
L 198.79125 -297.446424 
L 198.79125 -294.777735 
L 198.79125 -292.109046 
L 198.79125 -289.440357 
L 198.79125 -286.771668 
L 198.79125 -284.102979 
L 198.79125 -281.43429 
L 198.79125 -278.765602 
L 198.79125 -276.096913 
L 198.79125 -273.428224 
L 198.79125 -270.759535 
L 198.79125 -268.090846 
L 198.79125 -265.422157 
L 198.79125 -262.753469 
L 198.79125 -260.08478 
L 198.79125 -257.416091 
L 198.79125 -254.747402 
L 198.79125 -252.078713 
L 198.79125 -249.410024 
L 198.79125 -246.741335 
L 198.79125 -244.072647 
L 198.79125 -241.403958 
L 198.79125 -238.735269 
L 198.79125 -236.06658 
L 198.79125 -233.397891 
L 198.79125 -230.729202 
L 198.79125 -228.060514 
L 198.79125 -225.391825 
L 198.79125 -222.723136 
L 198.79125 -220.054447 
L 198.79125 -217.385758 
L 198.79125 -214.717069 
L 198.79125 -212.048381 
L 198.79125 -209.379692 
L 198.79125 -206.711003 
L 198.79125 -204.042314 
L 198.79125 -201.373625 
L 198.79125 -198.704936 
L 198.79125 -196.036247 
L 198.79125 -193.367559 
L 198.79125 -190.69887 
L 198.79125 -188.030181 
L 198.79125 -185.361492 
L 198.79125 -182.692803 
L 198.79125 -180.024114 
L 198.79125 -177.355426 
L 198.79125 -174.686737 
L 198.79125 -172.018048 
L 198.79125 -169.349359 
L 198.79125 -166.68067 
L 198.79125 -164.011981 
L 198.79125 -161.343292 
L 198.79125 -158.674604 
L 198.79125 -156.005915 
L 198.79125 -153.337226 
L 198.79125 -150.668537 
L 198.79125 -147.999848 
L 198.79125 -145.331159 
L 198.79125 -142.662471 
L 198.79125 -139.993782 
z
" style="stroke: #000000; stroke-width: 1.25"/>
    </defs>
    <g clip-path="url(#p381e4b4e3c)">
     <use xlink:href="#m49cbe03239" x="0" y="432" style="fill: #808080; stroke: #000000; stroke-width: 1.25"/>
    </g>
   </g>
   <g id="PolyCollection_2">
    <defs>
     <path id="mfca13180e5" d="M 200.701614 -83.831271 
L 198.79125 -83.831271 
L 198.79125 -86.957124 
L 198.79125 -90.082978 
L 198.79125 -93.208832 
L 198.79125 -96.334685 
L 198.79125 -99.460539 
L 198.79125 -102.586393 
L 198.79125 -105.712247 
L 198.79125 -108.8381 
L 198.79125 -111.963954 
L 198.79125 -115.089808 
L 198.79125 -118.215661 
L 198.79125 -121.341515 
L 198.79125 -124.467369 
L 198.79125 -127.593223 
L 198.79125 -130.719076 
L 198.79125 -133.84493 
L 198.79125 -136.970784 
L 198.79125 -140.096638 
L 198.79125 -143.222491 
L 198.79125 -146.348345 
L 198.79125 -149.474199 
L 198.79125 -152.600052 
L 198.79125 -155.725906 
L 198.79125 -158.85176 
L 198.79125 -161.977614 
L 198.79125 -165.103467 
L 198.79125 -168.229321 
L 198.79125 -171.355175 
L 198.79125 -174.481028 
L 198.79125 -177.606882 
L 198.79125 -180.732736 
L 198.79125 -183.85859 
L 198.79125 -186.984443 
L 198.79125 -190.110297 
L 198.79125 -193.236151 
L 198.79125 -196.362004 
L 198.79125 -199.487858 
L 198.79125 -202.613712 
L 198.79125 -205.739566 
L 198.79125 -208.865419 
L 198.79125 -211.991273 
L 198.79125 -215.117127 
L 198.79125 -218.242981 
L 198.79125 -221.368834 
L 198.79125 -224.494688 
L 198.79125 -227.620542 
L 198.79125 -230.746395 
L 198.79125 -233.872249 
L 198.79125 -236.998103 
L 198.79125 -240.123957 
L 198.79125 -243.24981 
L 198.79125 -246.375664 
L 198.79125 -249.501518 
L 198.79125 -252.627371 
L 198.79125 -255.753225 
L 198.79125 -258.879079 
L 198.79125 -262.004933 
L 198.79125 -265.130786 
L 198.79125 -268.25664 
L 198.79125 -271.382494 
L 198.79125 -274.508348 
L 198.79125 -277.634201 
L 198.79125 -280.760055 
L 198.79125 -283.885909 
L 198.79125 -287.011762 
L 198.79125 -290.137616 
L 198.79125 -293.26347 
L 198.79125 -296.389324 
L 198.79125 -299.515177 
L 198.79125 -302.641031 
L 198.79125 -305.766885 
L 198.79125 -308.892738 
L 198.79125 -312.018592 
L 198.79125 -315.144446 
L 198.79125 -318.2703 
L 198.79125 -321.396153 
L 198.79125 -324.522007 
L 198.79125 -327.647861 
L 198.79125 -330.773715 
L 198.79125 -333.899568 
L 198.79125 -337.025422 
L 198.79125 -340.151276 
L 198.79125 -343.277129 
L 198.79125 -346.402983 
L 198.79125 -349.528837 
L 198.79125 -352.654691 
L 198.79125 -355.780544 
L 198.79125 -358.906398 
L 198.79125 -362.032252 
L 198.79125 -365.158105 
L 198.79125 -368.283959 
L 198.79125 -371.409813 
L 198.79125 -374.535667 
L 198.79125 -377.66152 
L 198.79125 -380.787374 
L 198.79125 -383.913228 
L 198.79125 -387.039081 
L 198.79125 -390.164935 
L 198.79125 -393.290789 
L 201.458924 -393.290789 
L 201.458924 -393.290789 
L 202.059195 -390.164935 
L 202.762323 -387.039081 
L 203.578142 -383.913228 
L 204.515714 -380.787374 
L 205.582915 -377.66152 
L 206.785994 -374.535667 
L 208.129135 -371.409813 
L 209.614047 -368.283959 
L 211.239597 -365.158105 
L 213.001524 -362.032252 
L 214.892244 -358.906398 
L 216.900791 -355.780544 
L 219.012888 -352.654691 
L 221.211176 -349.528837 
L 223.475596 -346.402983 
L 225.78392 -343.277129 
L 228.112419 -340.151276 
L 230.436641 -337.025422 
L 232.732265 -333.899568 
L 234.975996 -330.773715 
L 237.146447 -327.647861 
L 239.224984 -324.522007 
L 241.196459 -321.396153 
L 243.049822 -318.2703 
L 244.77855 -315.144446 
L 246.3809 -312.018592 
L 247.859939 -308.892738 
L 249.223377 -305.766885 
L 250.483193 -302.641031 
L 251.655082 -299.515177 
L 252.757747 -296.389324 
L 253.812064 -293.26347 
L 254.840166 -290.137616 
L 255.864465 -287.011762 
L 256.906667 -283.885909 
L 257.986792 -280.760055 
L 259.122248 -277.634201 
L 260.326959 -274.508348 
L 261.610596 -271.382494 
L 262.977911 -268.25664 
L 264.428202 -265.130786 
L 265.954924 -262.004933 
L 267.545479 -258.879079 
L 269.181187 -255.753225 
L 270.837476 -252.627371 
L 272.484299 -249.501518 
L 274.086797 -246.375664 
L 275.606204 -243.24981 
L 277.000993 -240.123957 
L 278.228236 -236.998103 
L 279.245138 -233.872249 
L 280.010687 -230.746395 
L 280.487353 -227.620542 
L 280.642742 -224.494688 
L 280.451132 -221.368834 
L 279.89477 -218.242981 
L 278.964878 -215.117127 
L 277.662269 -211.991273 
L 275.997536 -208.865419 
L 273.990786 -205.739566 
L 271.670918 -202.613712 
L 269.074484 -199.487858 
L 266.244192 -196.362004 
L 263.227133 -193.236151 
L 260.072847 -190.110297 
L 256.831329 -186.984443 
L 253.5511 -183.85859 
L 250.277458 -180.732736 
L 247.050984 -177.606882 
L 243.906399 -174.481028 
L 240.871806 -171.355175 
L 237.968334 -168.229321 
L 235.21018 -165.103467 
L 232.605018 -161.977614 
L 230.154698 -158.85176 
L 227.856184 -155.725906 
L 225.702633 -152.600052 
L 223.684534 -149.474199 
L 221.790835 -146.348345 
L 220.009967 -143.222491 
L 218.330733 -140.096638 
L 216.743005 -136.970784 
L 215.238216 -133.84493 
L 213.80964 -130.719076 
L 212.452473 -127.593223 
L 211.16375 -124.467369 
L 209.942111 -121.341515 
L 208.787476 -118.215661 
L 207.700664 -115.089808 
L 206.682988 -111.963954 
L 205.735874 -108.8381 
L 204.860518 -105.712247 
L 204.057607 -102.586393 
L 203.327124 -99.460539 
L 202.668218 -96.334685 
L 202.079166 -93.208832 
L 201.557391 -90.082978 
L 201.099541 -86.957124 
L 200.701614 -83.831271 
z
" style="stroke: #000000; stroke-width: 1.25"/>
    </defs>
    <g clip-path="url(#p381e4b4e3c)">
     <use xlink:href="#mfca13180e5" x="0" y="432" style="stroke: #000000; stroke-width: 1.25"/>
    </g>
   </g>
   <g id="PolyCollection_3">
    <defs>
     <path id="m3cd9fe616d" d="M 443.06375 -64.073523 
L 440.840625 -64.073523 
L 440.355909 -67.332724 
L 439.79595 -70.591924 
L 439.156145 -73.851125 
L 438.433045 -77.110326 
L 437.624567 -80.369527 
L 436.730145 -83.628728 
L 435.750798 -86.887928 
L 434.689074 -90.147129 
L 433.548887 -93.40633 
L 432.335215 -96.665531 
L 431.053679 -99.924732 
L 429.710019 -103.183932 
L 428.309499 -106.443133 
L 426.856286 -109.702334 
L 425.352849 -112.961535 
L 423.799455 -116.220736 
L 422.193801 -119.479936 
L 420.530849 -122.739137 
L 418.802903 -125.998338 
L 416.999951 -129.257539 
L 415.110284 -132.51674 
L 413.121348 -135.77594 
L 411.020813 -139.035141 
L 408.797756 -142.294342 
L 406.443892 -145.553543 
L 403.954732 -148.812744 
L 401.33058 -152.071944 
L 398.577256 -155.331145 
L 395.70648 -158.590346 
L 392.735841 -161.849547 
L 389.688358 -165.108748 
L 386.591624 -168.367948 
L 383.476594 -171.627149 
L 380.376116 -174.88635 
L 377.323301 -178.145551 
L 374.349875 -181.404752 
L 371.484653 -184.663952 
L 368.752258 -187.923153 
L 366.172203 -191.182354 
L 363.758412 -194.441555 
L 361.519224 -197.700756 
L 359.457876 -200.959956 
L 357.573425 -204.219157 
L 355.862015 -207.478358 
L 354.318378 -210.737559 
L 352.937425 -213.99676 
L 351.715776 -217.25596 
L 350.653084 -220.515161 
L 349.753031 -223.774362 
L 349.023884 -227.033563 
L 348.478554 -230.292764 
L 348.13415 -233.551965 
L 348.011041 -236.811165 
L 348.131499 -240.070366 
L 348.518037 -243.329567 
L 349.191567 -246.588768 
L 350.169538 -249.847969 
L 351.464192 -253.107169 
L 353.081097 -256.36637 
L 355.018068 -259.625571 
L 357.264565 -262.884772 
L 359.801629 -266.143973 
L 362.602345 -269.403173 
L 365.632814 -272.662374 
L 368.853551 -275.921575 
L 372.221206 -279.180776 
L 375.690484 -282.439977 
L 379.21611 -285.699177 
L 382.754726 -288.958378 
L 386.266568 -292.217579 
L 389.716837 -295.47678 
L 393.076672 -298.735981 
L 396.323703 -301.995181 
L 399.442157 -305.254382 
L 402.422564 -308.513583 
L 405.261107 -311.772784 
L 407.9587 -315.031985 
L 410.519894 -318.291185 
L 412.951698 -321.550386 
L 415.262433 -324.809587 
L 417.460671 -328.068788 
L 419.554367 -331.327989 
L 421.550192 -334.587189 
L 423.453117 -337.84639 
L 425.266236 -341.105591 
L 426.990807 -344.364792 
L 428.626487 -347.623993 
L 430.171693 -350.883193 
L 431.624063 -354.142394 
L 432.980939 -357.401595 
L 434.239847 -360.660796 
L 435.398908 -363.919997 
L 436.457183 -367.179197 
L 437.414898 -370.438398 
L 438.273576 -373.697599 
L 439.036052 -376.9568 
L 439.706405 -380.216001 
L 440.289805 -383.475201 
L 440.792312 -386.734402 
L 443.06375 -386.734402 
L 443.06375 -386.734402 
L 443.06375 -383.475201 
L 443.06375 -380.216001 
L 443.06375 -376.9568 
L 443.06375 -373.697599 
L 443.06375 -370.438398 
L 443.06375 -367.179197 
L 443.06375 -363.919997 
L 443.06375 -360.660796 
L 443.06375 -357.401595 
L 443.06375 -354.142394 
L 443.06375 -350.883193 
L 443.06375 -347.623993 
L 443.06375 -344.364792 
L 443.06375 -341.105591 
L 443.06375 -337.84639 
L 443.06375 -334.587189 
L 443.06375 -331.327989 
L 443.06375 -328.068788 
L 443.06375 -324.809587 
L 443.06375 -321.550386 
L 443.06375 -318.291185 
L 443.06375 -315.031985 
L 443.06375 -311.772784 
L 443.06375 -308.513583 
L 443.06375 -305.254382 
L 443.06375 -301.995181 
L 443.06375 -298.735981 
L 443.06375 -295.47678 
L 443.06375 -292.217579 
L 443.06375 -288.958378 
L 443.06375 -285.699177 
L 443.06375 -282.439977 
L 443.06375 -279.180776 
L 443.06375 -275.921575 
L 443.06375 -272.662374 
L 443.06375 -269.403173 
L 443.06375 -266.143973 
L 443.06375 -262.884772 
L 443.06375 -259.625571 
L 443.06375 -256.36637 
L 443.06375 -253.107169 
L 443.06375 -249.847969 
L 443.06375 -246.588768 
L 443.06375 -243.329567 
L 443.06375 -240.070366 
L 443.06375 -236.811165 
L 443.06375 -233.551965 
L 443.06375 -230.292764 
L 443.06375 -227.033563 
L 443.06375 -223.774362 
L 443.06375 -220.515161 
L 443.06375 -217.25596 
L 443.06375 -213.99676 
L 443.06375 -210.737559 
L 443.06375 -207.478358 
L 443.06375 -204.219157 
L 443.06375 -200.959956 
L 443.06375 -197.700756 
L 443.06375 -194.441555 
L 443.06375 -191.182354 
L 443.06375 -187.923153 
L 443.06375 -184.663952 
L 443.06375 -181.404752 
L 443.06375 -178.145551 
L 443.06375 -174.88635 
L 443.06375 -171.627149 
L 443.06375 -168.367948 
L 443.06375 -165.108748 
L 443.06375 -161.849547 
L 443.06375 -158.590346 
L 443.06375 -155.331145 
L 443.06375 -152.071944 
L 443.06375 -148.812744 
L 443.06375 -145.553543 
L 443.06375 -142.294342 
L 443.06375 -139.035141 
L 443.06375 -135.77594 
L 443.06375 -132.51674 
L 443.06375 -129.257539 
L 443.06375 -125.998338 
L 443.06375 -122.739137 
L 443.06375 -119.479936 
L 443.06375 -116.220736 
L 443.06375 -112.961535 
L 443.06375 -109.702334 
L 443.06375 -106.443133 
L 443.06375 -103.183932 
L 443.06375 -99.924732 
L 443.06375 -96.665531 
L 443.06375 -93.40633 
L 443.06375 -90.147129 
L 443.06375 -86.887928 
L 443.06375 -83.628728 
L 443.06375 -80.369527 
L 443.06375 -77.110326 
L 443.06375 -73.851125 
L 443.06375 -70.591924 
L 443.06375 -67.332724 
L 443.06375 -64.073523 
z
" style="stroke: #000000; stroke-width: 1.25"/>
    </defs>
    <g clip-path="url(#p381e4b4e3c)">
     <use xlink:href="#m3cd9fe616d" x="0" y="432" style="fill: #808080; stroke: #000000; stroke-width: 1.25"/>
    </g>
   </g>
   <g id="PolyCollection_4">
    <defs>
     <path id="m5841ebcf18" d="M 445.34058 -126.393124 
L 443.06375 -126.393124 
L 443.06375 -128.93703 
L 443.06375 -131.480936 
L 443.06375 -134.024842 
L 443.06375 -136.568748 
L 443.06375 -139.112654 
L 443.06375 -141.65656 
L 443.06375 -144.200466 
L 443.06375 -146.744372 
L 443.06375 -149.288279 
L 443.06375 -151.832185 
L 443.06375 -154.376091 
L 443.06375 -156.919997 
L 443.06375 -159.463903 
L 443.06375 -162.007809 
L 443.06375 -164.551715 
L 443.06375 -167.095621 
L 443.06375 -169.639527 
L 443.06375 -172.183433 
L 443.06375 -174.72734 
L 443.06375 -177.271246 
L 443.06375 -179.815152 
L 443.06375 -182.359058 
L 443.06375 -184.902964 
L 443.06375 -187.44687 
L 443.06375 -189.990776 
L 443.06375 -192.534682 
L 443.06375 -195.078588 
L 443.06375 -197.622495 
L 443.06375 -200.166401 
L 443.06375 -202.710307 
L 443.06375 -205.254213 
L 443.06375 -207.798119 
L 443.06375 -210.342025 
L 443.06375 -212.885931 
L 443.06375 -215.429837 
L 443.06375 -217.973743 
L 443.06375 -220.517649 
L 443.06375 -223.061556 
L 443.06375 -225.605462 
L 443.06375 -228.149368 
L 443.06375 -230.693274 
L 443.06375 -233.23718 
L 443.06375 -235.781086 
L 443.06375 -238.324992 
L 443.06375 -240.868898 
L 443.06375 -243.412804 
L 443.06375 -245.956711 
L 443.06375 -248.500617 
L 443.06375 -251.044523 
L 443.06375 -253.588429 
L 443.06375 -256.132335 
L 443.06375 -258.676241 
L 443.06375 -261.220147 
L 443.06375 -263.764053 
L 443.06375 -266.307959 
L 443.06375 -268.851866 
L 443.06375 -271.395772 
L 443.06375 -273.939678 
L 443.06375 -276.483584 
L 443.06375 -279.02749 
L 443.06375 -281.571396 
L 443.06375 -284.115302 
L 443.06375 -286.659208 
L 443.06375 -289.203114 
L 443.06375 -291.74702 
L 443.06375 -294.290927 
L 443.06375 -296.834833 
L 443.06375 -299.378739 
L 443.06375 -301.922645 
L 443.06375 -304.466551 
L 443.06375 -307.010457 
L 443.06375 -309.554363 
L 443.06375 -312.098269 
L 443.06375 -314.642175 
L 443.06375 -317.186082 
L 443.06375 -319.729988 
L 443.06375 -322.273894 
L 443.06375 -324.8178 
L 443.06375 -327.361706 
L 443.06375 -329.905612 
L 443.06375 -332.449518 
L 443.06375 -334.993424 
L 443.06375 -337.53733 
L 443.06375 -340.081236 
L 443.06375 -342.625143 
L 443.06375 -345.169049 
L 443.06375 -347.712955 
L 443.06375 -350.256861 
L 443.06375 -352.800767 
L 443.06375 -355.344673 
L 443.06375 -357.888579 
L 443.06375 -360.432485 
L 443.06375 -362.976391 
L 443.06375 -365.520298 
L 443.06375 -368.064204 
L 443.06375 -370.60811 
L 443.06375 -373.152016 
L 443.06375 -375.695922 
L 443.06375 -378.239828 
L 445.570729 -378.239828 
L 445.570729 -378.239828 
L 446.137974 -375.695922 
L 446.802777 -373.152016 
L 447.574719 -370.60811 
L 448.462866 -368.064204 
L 449.475467 -365.520298 
L 450.619649 -362.976391 
L 451.901122 -360.432485 
L 453.323915 -357.888579 
L 454.890152 -355.344673 
L 456.599883 -352.800767 
L 458.450973 -350.256861 
L 460.439069 -347.712955 
L 462.557628 -345.169049 
L 464.79802 -342.625143 
L 467.149684 -340.081236 
L 469.600341 -337.53733 
L 472.13624 -334.993424 
L 474.742434 -332.449518 
L 477.403064 -329.905612 
L 480.101652 -327.361706 
L 482.821378 -324.8178 
L 485.545357 -322.273894 
L 488.256901 -319.729988 
L 490.939767 -317.186082 
L 493.578405 -314.642175 
L 496.158204 -312.098269 
L 498.66574 -309.554363 
L 501.089032 -307.010457 
L 503.417806 -304.466551 
L 505.64376 -301.922645 
L 507.760828 -299.378739 
L 509.765418 -296.834833 
L 511.65662 -294.290927 
L 513.436353 -291.74702 
L 515.109434 -289.203114 
L 516.683537 -286.659208 
L 518.169031 -284.115302 
L 519.578667 -281.571396 
L 520.927103 -279.02749 
L 522.230272 -276.483584 
L 523.504577 -273.939678 
L 524.765957 -271.395772 
L 526.028834 -268.851866 
L 527.30499 -266.307959 
L 528.602441 -263.764053 
L 529.924366 -261.220147 
L 531.268162 -258.676241 
L 532.624723 -256.132335 
L 533.977997 -253.588429 
L 535.304897 -251.044523 
L 536.575611 -248.500617 
L 537.754341 -245.956711 
L 538.800464 -243.412804 
L 539.670083 -240.868898 
L 540.317905 -238.324992 
L 540.699345 -235.781086 
L 540.77275 -233.23718 
L 540.501587 -230.693274 
L 539.856474 -228.149368 
L 538.816903 -225.605462 
L 537.372537 -223.061556 
L 535.523993 -220.517649 
L 533.283043 -217.973743 
L 530.672229 -215.429837 
L 527.723901 -212.885931 
L 524.478762 -210.342025 
L 520.984017 -207.798119 
L 517.291246 -205.254213 
L 513.454165 -202.710307 
L 509.526404 -200.166401 
L 505.55946 -197.622495 
L 501.600923 -195.078588 
L 497.693091 -192.534682 
L 493.872005 -189.990776 
L 490.166942 -187.44687 
L 486.600343 -184.902964 
L 483.18812 -182.359058 
L 479.940292 -179.815152 
L 476.861837 -177.271246 
L 473.953683 -174.72734 
L 471.213734 -172.183433 
L 468.637862 -169.639527 
L 466.220779 -167.095621 
L 463.956755 -164.551715 
L 461.840148 -162.007809 
L 459.86575 -159.463903 
L 458.028942 -156.919997 
L 456.325705 -154.376091 
L 454.752501 -151.832185 
L 453.306088 -149.288279 
L 451.98328 -146.744372 
L 450.780721 -144.200466 
L 449.694669 -141.65656 
L 448.720843 -139.112654 
L 447.854325 -136.568748 
L 447.089528 -134.024842 
L 446.420225 -131.480936 
L 445.839641 -128.93703 
L 445.34058 -126.393124 
z
" style="stroke: #000000; stroke-width: 1.25"/>
    </defs>
    <g clip-path="url(#p381e4b4e3c)">
     <use xlink:href="#m5841ebcf18" x="0" y="432" style="stroke: #000000; stroke-width: 1.25"/>
    </g>
   </g>
   <g id="patch_3">
    <path d="M 198.79125 181.541836 
L 198.79125 181.541836 
L 198.79125 181.541836 
L 198.79125 181.541836 
z
" clip-path="url(#p381e4b4e3c)" style="fill: #808080; stroke: #000000; stroke-width: 1.25; stroke-linejoin: miter"/>
   </g>
   <g id="patch_4">
    <path d="M 198.79125 181.541836 
L 198.79125 181.541836 
L 198.79125 181.541836 
L 198.79125 181.541836 
z
" clip-path="url(#p381e4b4e3c)" style="stroke: #000000; stroke-width: 1.25; stroke-linejoin: miter"/>
   </g>
   <g id="line2d_1">
    <path d="M 121.345351 189.09627 
L 198.79125 189.09627 
" clip-path="url(#p381e4b4e3c)" style="fill: none; stroke-dasharray: 1.5625,0.9375; stroke-dashoffset: 0; stroke: #000000; stroke-width: 1.25"/>
   </g>
   <g id="line2d_2">
    <path d="M 105.519131 145.066515 
L 198.79125 145.066515 
" clip-path="url(#p381e4b4e3c)" style="fill: none; stroke-dasharray: 3.125,1.25; stroke-dashoffset: 0; stroke: #000000; stroke-width: 1.25"/>
   </g>
   <g id="line2d_3">
    <path d="M 102.113257 121.315789 
L 198.79125 121.315789 
" clip-path="url(#p381e4b4e3c)" style="fill: none; stroke-dasharray: 1.5625,0.9375; stroke-dashoffset: 0; stroke: #000000; stroke-width: 1.25"/>
   </g>
   <g id="line2d_4">
    <path d="M 198.79125 219.56912 
L 277.845463 219.56912 
" clip-path="url(#p381e4b4e3c)" style="fill: none; stroke-dasharray: 1.5625,0.9375; stroke-dashoffset: 0; stroke: #000000; stroke-width: 1.25"/>
   </g>
   <g id="line2d_5">
    <path d="M 198.79125 205.794254 
L 280.557684 205.794254 
" clip-path="url(#p381e4b4e3c)" style="fill: none; stroke-dasharray: 3.125,1.25; stroke-dashoffset: 0; stroke: #000000; stroke-width: 1.25"/>
   </g>
   <g id="line2d_6">
    <path d="M 198.79125 153.349467 
L 258.753069 153.349467 
" clip-path="url(#p381e4b4e3c)" style="fill: none; stroke-dasharray: 1.5625,0.9375; stroke-dashoffset: 0; stroke: #000000; stroke-width: 1.25"/>
   </g>
   <g id="line2d_7">
    <path d="M 365.673851 240.14475 
L 443.06375 240.14475 
" clip-path="url(#p381e4b4e3c)" style="fill: none; stroke-dasharray: 1.5625,0.9375; stroke-dashoffset: 0; stroke: #000000; stroke-width: 1.25"/>
   </g>
   <g id="line2d_8">
    <path d="M 348.129294 198.31947 
L 443.06375 198.31947 
" clip-path="url(#p381e4b4e3c)" style="fill: none; stroke-dasharray: 3.125,1.25; stroke-dashoffset: 0; stroke: #000000; stroke-width: 1.25"/>
   </g>
   <g id="line2d_9">
    <path d="M 353.719137 174.560047 
L 443.06375 174.560047 
" clip-path="url(#p381e4b4e3c)" style="fill: none; stroke-dasharray: 1.5625,0.9375; stroke-dashoffset: 0; stroke: #000000; stroke-width: 1.25"/>
   </g>
   <g id="line2d_10">
    <path d="M 443.06375 208.405976 
L 537.674859 208.405976 
" clip-path="url(#p381e4b4e3c)" style="fill: none; stroke-dasharray: 1.5625,0.9375; stroke-dashoffset: 0; stroke: #000000; stroke-width: 1.25"/>
   </g>
   <g id="line2d_11">
    <path d="M 443.06375 186.704564 
L 538.026275 186.704564 
" clip-path="url(#p381e4b4e3c)" style="fill: none; stroke-dasharray: 3.125,1.25; stroke-dashoffset: 0; stroke: #000000; stroke-width: 1.25"/>
   </g>
   <g id="line2d_12">
    <path d="M 443.06375 148.797105 
L 518.674616 148.797105 
" clip-path="url(#p381e4b4e3c)" style="fill: none; stroke-dasharray: 1.5625,0.9375; stroke-dashoffset: 0; stroke: #000000; stroke-width: 1.25"/>
   </g>
   <g id="patch_5">
    <path d="M 76.655 384.9325 
L 76.655 10.8 
" style="fill: none; stroke: #808080; stroke-linejoin: miter; stroke-linecap: square"/>
   </g>
   <g id="patch_6">
    <path d="M 76.655 384.9325 
L 565.2 384.9325 
" style="fill: none; stroke: #808080; stroke-linejoin: miter; stroke-linecap: square"/>
   </g>
   <g id="legend_1">
    <g id="patch_7">
     <path d="M 485.852187 103.276875 
L 556.8 103.276875 
Q 559.2 103.276875 559.2 100.876875 
L 559.2 19.2 
Q 559.2 16.8 556.8 16.8 
L 485.852187 16.8 
Q 483.452187 16.8 483.452187 19.2 
L 483.452187 100.876875 
Q 483.452187 103.276875 485.852187 103.276875 
z
" style="fill: #ffffff; opacity: 0.8; stroke: #cccccc; stroke-linejoin: miter"/>
    </g>
    <g id="text_13">
     <text style="fill: #262626; font: 14px 'Arial', 'DejaVu Sans', 'Liberation Sans', 'Bitstream Vera Sans', sans-serif" transform="translate(488.252187 31.620938)">Behavioral</text>
     <text style="fill: #262626; font: 14px 'Arial', 'DejaVu Sans', 'Liberation Sans', 'Bitstream Vera Sans', sans-serif" transform="translate(488.252187 46.428562)">Motivation</text>
     <text style="fill: #262626; font: 14px 'Arial', 'DejaVu Sans', 'Liberation Sans', 'Bitstream Vera Sans', sans-serif" transform="translate(488.252187 61.440938)">(HS&gt;LS)</text>
    </g>
    <g id="patch_8">
     <path d="M 493.183281 78.976875 
L 517.183281 78.976875 
L 517.183281 70.576875 
L 493.183281 70.576875 
z
" style="fill: #808080; stroke: #000000; stroke-width: 1.25; stroke-linejoin: miter"/>
    </g>
    <g id="text_14">
     <text style="fill: #262626; font: 12px 'Arial', 'DejaVu Sans', 'Liberation Sans', 'Bitstream Vera Sans', sans-serif; text-anchor: start" x="526.783281" y="78.976875" transform="rotate(-0 526.783281 78.976875)">high</text>
    </g>
    <g id="patch_9">
     <path d="M 493.183281 96.091875 
L 517.183281 96.091875 
L 517.183281 87.691875 
L 493.183281 87.691875 
z
" style="stroke: #000000; stroke-width: 1.25; stroke-linejoin: miter"/>
    </g>
    <g id="text_15">
     <text style="fill: #262626; font: 12px 'Arial', 'DejaVu Sans', 'Liberation Sans', 'Bitstream Vera Sans', sans-serif; text-anchor: start" x="526.783281" y="96.091875" transform="rotate(-0 526.783281 96.091875)">low</text>
    </g>
   </g>
  </g>
 </g>
 <defs>
  <clipPath id="p381e4b4e3c">
   <rect x="76.655" y="10.8" width="488.545" height="374.1325"/>
  </clipPath>
 </defs>
</svg>
