<?xml version="1.0" encoding="utf-8" standalone="no"?>
<!DOCTYPE svg PUBLIC "-//W3C//DTD SVG 1.1//EN"
  "http://www.w3.org/Graphics/SVG/1.1/DTD/svg11.dtd">
<svg xmlns:xlink="http://www.w3.org/1999/xlink" width="360pt" height="360pt" viewBox="0 0 360 360" xmlns="http://www.w3.org/2000/svg" version="1.1">
 <metadata>
  <rdf:RDF xmlns:dc="http://purl.org/dc/elements/1.1/" xmlns:cc="http://creativecommons.org/ns#" xmlns:rdf="http://www.w3.org/1999/02/22-rdf-syntax-ns#">
   <cc:Work>
    <dc:type rdf:resource="http://purl.org/dc/dcmitype/StillImage"/>
    <dc:date>2023-07-26T14:48:28.597221</dc:date>
    <dc:format>image/svg+xml</dc:format>
    <dc:creator>
     <cc:Agent>
      <dc:title>Matplotlib v3.7.1, https://matplotlib.org/</dc:title>
     </cc:Agent>
    </dc:creator>
   </cc:Work>
  </rdf:RDF>
 </metadata>
 <defs>
  <style type="text/css">*{stroke-linejoin: round; stroke-linecap: butt}</style>
 </defs>
 <g id="figure_1">
  <g id="patch_1">
   <path d="M 0 360 
L 360 360 
L 360 0 
L 0 0 
z
" style="fill: #ffffff"/>
  </g>
  <g id="axes_1">
   <g id="patch_2">
    <path d="M 60.48 311.07375 
L 347.04 311.07375 
L 347.04 12.96 
L 60.48 12.96 
z
" style="fill: #ffffff"/>
   </g>
   <g id="PathCollection_1">
    <defs>
     <path id="m4d22e52817" d="M 0 3 
C 0.795609 3 1.55874 2.683901 2.12132 2.12132 
C 2.683901 1.55874 3 0.795609 3 0 
C 3 -0.795609 2.683901 -1.55874 2.12132 -2.12132 
C 1.55874 -2.683901 0.795609 -3 0 -3 
C -0.795609 -3 -1.55874 -2.683901 -2.12132 -2.12132 
C -2.683901 -1.55874 -3 -0.795609 -3 0 
C -3 0.795609 -2.683901 1.55874 -2.12132 2.12132 
C -1.55874 2.683901 -0.795609 3 0 3 
z
" style="stroke: #1f77b4; stroke-opacity: 0.8"/>
    </defs>
    <g clip-path="url(#p40aa7f57bb)">
     <use xlink:href="#m4d22e52817" x="218.232727" y="127.735314" style="fill: #1f77b4; fill-opacity: 0.8; stroke: #1f77b4; stroke-opacity: 0.8"/>
     <use xlink:href="#m4d22e52817" x="218.232727" y="106.658359" style="fill: #1f77b4; fill-opacity: 0.8; stroke: #1f77b4; stroke-opacity: 0.8"/>
     <use xlink:href="#m4d22e52817" x="276.123636" y="45.825893" style="fill: #1f77b4; fill-opacity: 0.8; stroke: #1f77b4; stroke-opacity: 0.8"/>
     <use xlink:href="#m4d22e52817" x="189.287273" y="73.553487" style="fill: #1f77b4; fill-opacity: 0.8; stroke: #1f77b4; stroke-opacity: 0.8"/>
     <use xlink:href="#m4d22e52817" x="247.178182" y="69.539744" style="fill: #1f77b4; fill-opacity: 0.8; stroke: #1f77b4; stroke-opacity: 0.8"/>
     <use xlink:href="#m4d22e52817" x="160.341818" y="52.528163" style="fill: #1f77b4; fill-opacity: 0.8; stroke: #1f77b4; stroke-opacity: 0.8"/>
     <use xlink:href="#m4d22e52817" x="276.123636" y="56.905187" style="fill: #1f77b4; fill-opacity: 0.8; stroke: #1f77b4; stroke-opacity: 0.8"/>
     <use xlink:href="#m4d22e52817" x="73.505455" y="97.932043" style="fill: #1f77b4; fill-opacity: 0.8; stroke: #1f77b4; stroke-opacity: 0.8"/>
     <use xlink:href="#m4d22e52817" x="334.014545" y="105.376299" style="fill: #1f77b4; fill-opacity: 0.8; stroke: #1f77b4; stroke-opacity: 0.8"/>
     <use xlink:href="#m4d22e52817" x="102.450909" y="34.426169" style="fill: #1f77b4; fill-opacity: 0.8; stroke: #1f77b4; stroke-opacity: 0.8"/>
     <use xlink:href="#m4d22e52817" x="305.069091" y="126.900655" style="fill: #1f77b4; fill-opacity: 0.8; stroke: #1f77b4; stroke-opacity: 0.8"/>
     <use xlink:href="#m4d22e52817" x="305.069091" y="203.083872" style="fill: #1f77b4; fill-opacity: 0.8; stroke: #1f77b4; stroke-opacity: 0.8"/>
     <use xlink:href="#m4d22e52817" x="160.341818" y="93.166854" style="fill: #1f77b4; fill-opacity: 0.8; stroke: #1f77b4; stroke-opacity: 0.8"/>
     <use xlink:href="#m4d22e52817" x="276.123636" y="173.235682" style="fill: #1f77b4; fill-opacity: 0.8; stroke: #1f77b4; stroke-opacity: 0.8"/>
     <use xlink:href="#m4d22e52817" x="131.396364" y="106.092603" style="fill: #1f77b4; fill-opacity: 0.8; stroke: #1f77b4; stroke-opacity: 0.8"/>
     <use xlink:href="#m4d22e52817" x="334.014545" y="71.232252" style="fill: #1f77b4; fill-opacity: 0.8; stroke: #1f77b4; stroke-opacity: 0.8"/>
     <use xlink:href="#m4d22e52817" x="102.450909" y="174.561603" style="fill: #1f77b4; fill-opacity: 0.8; stroke: #1f77b4; stroke-opacity: 0.8"/>
     <use xlink:href="#m4d22e52817" x="305.069091" y="31.039939" style="fill: #1f77b4; fill-opacity: 0.8; stroke: #1f77b4; stroke-opacity: 0.8"/>
     <use xlink:href="#m4d22e52817" x="276.123636" y="170.514724" style="fill: #1f77b4; fill-opacity: 0.8; stroke: #1f77b4; stroke-opacity: 0.8"/>
     <use xlink:href="#m4d22e52817" x="276.123636" y="114.706157" style="fill: #1f77b4; fill-opacity: 0.8; stroke: #1f77b4; stroke-opacity: 0.8"/>
     <use xlink:href="#m4d22e52817" x="131.396364" y="221.625225" style="fill: #1f77b4; fill-opacity: 0.8; stroke: #1f77b4; stroke-opacity: 0.8"/>
     <use xlink:href="#m4d22e52817" x="334.014545" y="92.91718" style="fill: #1f77b4; fill-opacity: 0.8; stroke: #1f77b4; stroke-opacity: 0.8"/>
     <use xlink:href="#m4d22e52817" x="189.287273" y="297.523125" style="fill: #1f77b4; fill-opacity: 0.8; stroke: #1f77b4; stroke-opacity: 0.8"/>
     <use xlink:href="#m4d22e52817" x="131.396364" y="175.951417" style="fill: #1f77b4; fill-opacity: 0.8; stroke: #1f77b4; stroke-opacity: 0.8"/>
     <use xlink:href="#m4d22e52817" x="73.505455" y="278.139075" style="fill: #1f77b4; fill-opacity: 0.8; stroke: #1f77b4; stroke-opacity: 0.8"/>
     <use xlink:href="#m4d22e52817" x="131.396364" y="228.169583" style="fill: #1f77b4; fill-opacity: 0.8; stroke: #1f77b4; stroke-opacity: 0.8"/>
     <use xlink:href="#m4d22e52817" x="334.014545" y="146.26158" style="fill: #1f77b4; fill-opacity: 0.8; stroke: #1f77b4; stroke-opacity: 0.8"/>
     <use xlink:href="#m4d22e52817" x="218.232727" y="75.822682" style="fill: #1f77b4; fill-opacity: 0.8; stroke: #1f77b4; stroke-opacity: 0.8"/>
     <use xlink:href="#m4d22e52817" x="247.178182" y="109.558179" style="fill: #1f77b4; fill-opacity: 0.8; stroke: #1f77b4; stroke-opacity: 0.8"/>
     <use xlink:href="#m4d22e52817" x="334.014545" y="168.524319" style="fill: #1f77b4; fill-opacity: 0.8; stroke: #1f77b4; stroke-opacity: 0.8"/>
     <use xlink:href="#m4d22e52817" x="160.341818" y="129.738818" style="fill: #1f77b4; fill-opacity: 0.8; stroke: #1f77b4; stroke-opacity: 0.8"/>
     <use xlink:href="#m4d22e52817" x="218.232727" y="133.456884" style="fill: #1f77b4; fill-opacity: 0.8; stroke: #1f77b4; stroke-opacity: 0.8"/>
     <use xlink:href="#m4d22e52817" x="102.450909" y="78.57831" style="fill: #1f77b4; fill-opacity: 0.8; stroke: #1f77b4; stroke-opacity: 0.8"/>
     <use xlink:href="#m4d22e52817" x="131.396364" y="173.526856" style="fill: #1f77b4; fill-opacity: 0.8; stroke: #1f77b4; stroke-opacity: 0.8"/>
     <use xlink:href="#m4d22e52817" x="73.505455" y="112.094662" style="fill: #1f77b4; fill-opacity: 0.8; stroke: #1f77b4; stroke-opacity: 0.8"/>
     <use xlink:href="#m4d22e52817" x="305.069091" y="26.510625" style="fill: #1f77b4; fill-opacity: 0.8; stroke: #1f77b4; stroke-opacity: 0.8"/>
     <use xlink:href="#m4d22e52817" x="73.505455" y="60.489562" style="fill: #1f77b4; fill-opacity: 0.8; stroke: #1f77b4; stroke-opacity: 0.8"/>
     <use xlink:href="#m4d22e52817" x="102.450909" y="118.472919" style="fill: #1f77b4; fill-opacity: 0.8; stroke: #1f77b4; stroke-opacity: 0.8"/>
     <use xlink:href="#m4d22e52817" x="189.287273" y="60.489586" style="fill: #1f77b4; fill-opacity: 0.8; stroke: #1f77b4; stroke-opacity: 0.8"/>
     <use xlink:href="#m4d22e52817" x="305.069091" y="87.448709" style="fill: #1f77b4; fill-opacity: 0.8; stroke: #1f77b4; stroke-opacity: 0.8"/>
     <use xlink:href="#m4d22e52817" x="247.178182" y="114.281238" style="fill: #1f77b4; fill-opacity: 0.8; stroke: #1f77b4; stroke-opacity: 0.8"/>
     <use xlink:href="#m4d22e52817" x="102.450909" y="95.086999" style="fill: #1f77b4; fill-opacity: 0.8; stroke: #1f77b4; stroke-opacity: 0.8"/>
     <use xlink:href="#m4d22e52817" x="160.341818" y="102.910429" style="fill: #1f77b4; fill-opacity: 0.8; stroke: #1f77b4; stroke-opacity: 0.8"/>
     <use xlink:href="#m4d22e52817" x="102.450909" y="74.271469" style="fill: #1f77b4; fill-opacity: 0.8; stroke: #1f77b4; stroke-opacity: 0.8"/>
     <use xlink:href="#m4d22e52817" x="218.232727" y="148.298367" style="fill: #1f77b4; fill-opacity: 0.8; stroke: #1f77b4; stroke-opacity: 0.8"/>
     <use xlink:href="#m4d22e52817" x="247.178182" y="124.417297" style="fill: #1f77b4; fill-opacity: 0.8; stroke: #1f77b4; stroke-opacity: 0.8"/>
    </g>
   </g>
   <g id="PolyCollection_1">
    <path d="M 73.505455 97.852594 
L 73.505455 166.865999 
L 76.13686 166.032385 
L 78.768264 165.198772 
L 81.399669 164.365158 
L 84.031074 163.669093 
L 86.662479 162.833868 
L 89.293884 161.986257 
L 91.925289 161.268866 
L 94.556694 160.633439 
L 97.188099 159.994274 
L 99.819504 159.214723 
L 102.450909 158.49631 
L 105.082314 157.881326 
L 107.713719 157.266342 
L 110.345124 156.651358 
L 112.976529 156.036374 
L 115.607934 155.346253 
L 118.239339 154.579944 
L 120.870744 154.031987 
L 123.502149 153.542896 
L 126.133554 152.854841 
L 128.764959 151.94931 
L 131.396364 151.304885 
L 134.027769 150.65674 
L 136.659174 150.017247 
L 139.290579 149.374356 
L 141.921983 148.742039 
L 144.553388 148.25061 
L 147.184793 147.759181 
L 149.816198 147.267752 
L 152.447603 146.709118 
L 155.079008 146.080932 
L 157.710413 145.445751 
L 160.341818 144.917703 
L 162.973223 144.267428 
L 165.604628 143.736697 
L 168.236033 143.138324 
L 170.867438 142.690946 
L 173.498843 142.243466 
L 176.130248 141.438878 
L 178.761653 140.708837 
L 181.393058 140.267921 
L 184.024463 139.827004 
L 186.655868 139.410662 
L 189.287273 139.012345 
L 191.918678 138.543202 
L 194.550083 138.212311 
L 197.181488 137.610053 
L 199.812893 136.856746 
L 202.444298 136.033597 
L 205.075702 135.850236 
L 207.707107 135.664983 
L 210.338512 135.402266 
L 212.969917 134.952483 
L 215.601322 134.521062 
L 218.232727 134.207299 
L 220.864132 134.016772 
L 223.495537 133.525683 
L 226.126942 133.034258 
L 228.758347 132.540404 
L 231.389752 132.131445 
L 234.021157 131.710204 
L 236.652562 131.514248 
L 239.283967 131.365982 
L 241.915372 131.149125 
L 244.546777 130.975141 
L 247.178182 130.708569 
L 249.809587 130.614691 
L 252.440992 130.440995 
L 255.072397 130.373589 
L 257.703802 130.608894 
L 260.335207 130.407714 
L 262.966612 130.043866 
L 265.598017 130.042925 
L 268.229421 129.987142 
L 270.860826 130.094217 
L 273.492231 129.766072 
L 276.123636 129.329273 
L 278.755041 129.625014 
L 281.386446 130.128992 
L 284.017851 130.201213 
L 286.649256 130.263289 
L 289.280661 130.348731 
L 291.912066 130.728986 
L 294.543471 130.632262 
L 297.174876 130.919368 
L 299.806281 131.119296 
L 302.437686 131.260739 
L 305.069091 131.437646 
L 307.700496 131.626708 
L 310.331901 131.739848 
L 312.963306 131.846401 
L 315.594711 132.021927 
L 318.226116 132.28397 
L 320.857521 132.533502 
L 323.488926 132.37596 
L 326.120331 132.403805 
L 328.751736 132.686573 
L 331.38314 132.934217 
L 334.014545 133.280287 
L 334.014545 78.312344 
L 334.014545 78.312344 
L 331.38314 78.967881 
L 328.751736 79.625462 
L 326.120331 80.283044 
L 323.488926 80.978224 
L 320.857521 81.786493 
L 318.226116 82.598865 
L 315.594711 83.413982 
L 312.963306 84.211598 
L 310.331901 84.979757 
L 307.700496 85.505662 
L 305.069091 86.001391 
L 302.437686 86.557472 
L 299.806281 87.239186 
L 297.174876 88.104225 
L 294.543471 88.819686 
L 291.912066 89.468762 
L 289.280661 90.276973 
L 286.649256 91.036056 
L 284.017851 91.440095 
L 281.386446 91.947556 
L 278.755041 92.357081 
L 276.123636 92.794935 
L 273.492231 93.35742 
L 270.860826 93.937221 
L 268.229421 94.259333 
L 265.598017 94.714606 
L 262.966612 95.26148 
L 260.335207 95.78846 
L 257.703802 96.047378 
L 255.072397 96.203913 
L 252.440992 96.521335 
L 249.809587 96.99516 
L 247.178182 97.41847 
L 244.546777 98.089108 
L 241.915372 98.36437 
L 239.283967 98.553165 
L 236.652562 98.881956 
L 234.021157 99.327064 
L 231.389752 99.696128 
L 228.758347 100.096933 
L 226.126942 100.147624 
L 223.495537 100.350412 
L 220.864132 100.278419 
L 218.232727 100.490033 
L 215.601322 100.786423 
L 212.969917 101.092961 
L 210.338512 101.460845 
L 207.707107 101.666521 
L 205.075702 101.95806 
L 202.444298 102.196866 
L 199.812893 102.180547 
L 197.181488 102.554701 
L 194.550083 102.818603 
L 191.918678 102.783428 
L 189.287273 102.893788 
L 186.655868 102.846383 
L 184.024463 102.836757 
L 181.393058 102.995181 
L 178.761653 103.173171 
L 176.130248 103.285204 
L 173.498843 103.550432 
L 170.867438 103.401888 
L 168.236033 103.234297 
L 165.604628 103.207172 
L 162.973223 103.019736 
L 160.341818 102.872839 
L 157.710413 102.869787 
L 155.079008 102.639453 
L 152.447603 102.576574 
L 149.816198 102.534025 
L 147.184793 102.379083 
L 144.553388 102.353239 
L 141.921983 102.210162 
L 139.290579 102.150975 
L 136.659174 101.739571 
L 134.027769 101.566892 
L 131.396364 101.223355 
L 128.764959 100.937474 
L 126.133554 100.836542 
L 123.502149 100.702744 
L 120.870744 100.632247 
L 118.239339 100.530325 
L 115.607934 100.432323 
L 112.976529 100.276574 
L 110.345124 100.216092 
L 107.713719 100.048353 
L 105.082314 99.787595 
L 102.450909 99.630344 
L 99.819504 99.525373 
L 97.188099 99.535291 
L 94.556694 99.545574 
L 91.925289 99.190965 
L 89.293884 99.01019 
L 86.662479 98.885148 
L 84.031074 98.854588 
L 81.399669 98.776229 
L 78.768264 98.698953 
L 76.13686 98.258442 
L 73.505455 97.852594 
z
" clip-path="url(#p40aa7f57bb)" style="fill: #1f77b4; fill-opacity: 0.15"/>
   </g>
   <g id="matplotlib.axis_1">
    <g id="xtick_1">
     <g id="line2d_1">
      <defs>
       <path id="m44f378e3b7" d="M 0 0 
L 0 6 
" style="stroke: #000000; stroke-width: 1.25"/>
      </defs>
      <g>
       <use xlink:href="#m44f378e3b7" x="88.864267" y="311.07375" style="stroke: #000000; stroke-width: 1.25"/>
      </g>
     </g>
     <g id="text_1">
      <text style="font: 11px 'DejaVu Sans', 'Bitstream Vera Sans', 'Computer Modern Sans Serif', 'Lucida Grande', 'Verdana', 'Geneva', 'Lucid', 'Arial', 'Helvetica', 'Avant Garde', sans-serif; text-anchor: middle" x="88.864267" y="328.932031" transform="rotate(-0 88.864267 328.932031)">−4</text>
     </g>
    </g>
    <g id="xtick_2">
     <g id="line2d_2">
      <g>
       <use xlink:href="#m44f378e3b7" x="146.755176" y="311.07375" style="stroke: #000000; stroke-width: 1.25"/>
      </g>
     </g>
     <g id="text_2">
      <text style="font: 11px 'DejaVu Sans', 'Bitstream Vera Sans', 'Computer Modern Sans Serif', 'Lucida Grande', 'Verdana', 'Geneva', 'Lucid', 'Arial', 'Helvetica', 'Avant Garde', sans-serif; text-anchor: middle" x="146.755176" y="328.932031" transform="rotate(-0 146.755176 328.932031)">−2</text>
     </g>
    </g>
    <g id="xtick_3">
     <g id="line2d_3">
      <g>
       <use xlink:href="#m44f378e3b7" x="204.646085" y="311.07375" style="stroke: #000000; stroke-width: 1.25"/>
      </g>
     </g>
     <g id="text_3">
      <text style="font: 11px 'DejaVu Sans', 'Bitstream Vera Sans', 'Computer Modern Sans Serif', 'Lucida Grande', 'Verdana', 'Geneva', 'Lucid', 'Arial', 'Helvetica', 'Avant Garde', sans-serif; text-anchor: middle" x="204.646085" y="328.932031" transform="rotate(-0 204.646085 328.932031)">0</text>
     </g>
    </g>
    <g id="xtick_4">
     <g id="line2d_4">
      <g>
       <use xlink:href="#m44f378e3b7" x="262.536994" y="311.07375" style="stroke: #000000; stroke-width: 1.25"/>
      </g>
     </g>
     <g id="text_4">
      <text style="font: 11px 'DejaVu Sans', 'Bitstream Vera Sans', 'Computer Modern Sans Serif', 'Lucida Grande', 'Verdana', 'Geneva', 'Lucid', 'Arial', 'Helvetica', 'Avant Garde', sans-serif; text-anchor: middle" x="262.536994" y="328.932031" transform="rotate(-0 262.536994 328.932031)">2</text>
     </g>
    </g>
    <g id="xtick_5">
     <g id="line2d_5">
      <g>
       <use xlink:href="#m44f378e3b7" x="320.427904" y="311.07375" style="stroke: #000000; stroke-width: 1.25"/>
      </g>
     </g>
     <g id="text_5">
      <text style="font: 11px 'DejaVu Sans', 'Bitstream Vera Sans', 'Computer Modern Sans Serif', 'Lucida Grande', 'Verdana', 'Geneva', 'Lucid', 'Arial', 'Helvetica', 'Avant Garde', sans-serif; text-anchor: middle" x="320.427904" y="328.932031" transform="rotate(-0 320.427904 328.932031)">4</text>
     </g>
    </g>
    <g id="text_6">
     <text style="font: 12px 'DejaVu Sans', 'Bitstream Vera Sans', 'Computer Modern Sans Serif', 'Lucida Grande', 'Verdana', 'Geneva', 'Lucid', 'Arial', 'Helvetica', 'Avant Garde', sans-serif; text-anchor: middle" x="203.76" y="344.337812" transform="rotate(-0 203.76 344.337812)">Trait Reward Sensitivity</text>
    </g>
   </g>
   <g id="matplotlib.axis_2">
    <g id="ytick_1">
     <g id="line2d_6">
      <defs>
       <path id="m0a4db1fd64" d="M 0 0 
L -6 0 
" style="stroke: #000000; stroke-width: 1.25"/>
      </defs>
      <g>
       <use xlink:href="#m0a4db1fd64" x="60.48" y="269.572427" style="stroke: #000000; stroke-width: 1.25"/>
      </g>
     </g>
     <g id="text_7">
      <text style="font: 11px 'DejaVu Sans', 'Bitstream Vera Sans', 'Computer Modern Sans Serif', 'Lucida Grande', 'Verdana', 'Geneva', 'Lucid', 'Arial', 'Helvetica', 'Avant Garde', sans-serif; text-anchor: end" x="50.98" y="273.751567" transform="rotate(-0 50.98 273.751567)">−60</text>
     </g>
    </g>
    <g id="ytick_2">
     <g id="line2d_7">
      <g>
       <use xlink:href="#m0a4db1fd64" x="60.48" y="226.724616" style="stroke: #000000; stroke-width: 1.25"/>
      </g>
     </g>
     <g id="text_8">
      <text style="font: 11px 'DejaVu Sans', 'Bitstream Vera Sans', 'Computer Modern Sans Serif', 'Lucida Grande', 'Verdana', 'Geneva', 'Lucid', 'Arial', 'Helvetica', 'Avant Garde', sans-serif; text-anchor: end" x="50.98" y="230.903757" transform="rotate(-0 50.98 230.903757)">−40</text>
     </g>
    </g>
    <g id="ytick_3">
     <g id="line2d_8">
      <g>
       <use xlink:href="#m0a4db1fd64" x="60.48" y="183.876805" style="stroke: #000000; stroke-width: 1.25"/>
      </g>
     </g>
     <g id="text_9">
      <text style="font: 11px 'DejaVu Sans', 'Bitstream Vera Sans', 'Computer Modern Sans Serif', 'Lucida Grande', 'Verdana', 'Geneva', 'Lucid', 'Arial', 'Helvetica', 'Avant Garde', sans-serif; text-anchor: end" x="50.98" y="188.055946" transform="rotate(-0 50.98 188.055946)">−20</text>
     </g>
    </g>
    <g id="ytick_4">
     <g id="line2d_9">
      <g>
       <use xlink:href="#m0a4db1fd64" x="60.48" y="141.028994" style="stroke: #000000; stroke-width: 1.25"/>
      </g>
     </g>
     <g id="text_10">
      <text style="font: 11px 'DejaVu Sans', 'Bitstream Vera Sans', 'Computer Modern Sans Serif', 'Lucida Grande', 'Verdana', 'Geneva', 'Lucid', 'Arial', 'Helvetica', 'Avant Garde', sans-serif; text-anchor: end" x="50.98" y="145.208135" transform="rotate(-0 50.98 145.208135)">0</text>
     </g>
    </g>
    <g id="ytick_5">
     <g id="line2d_10">
      <g>
       <use xlink:href="#m0a4db1fd64" x="60.48" y="98.181183" style="stroke: #000000; stroke-width: 1.25"/>
      </g>
     </g>
     <g id="text_11">
      <text style="font: 11px 'DejaVu Sans', 'Bitstream Vera Sans', 'Computer Modern Sans Serif', 'Lucida Grande', 'Verdana', 'Geneva', 'Lucid', 'Arial', 'Helvetica', 'Avant Garde', sans-serif; text-anchor: end" x="50.98" y="102.360324" transform="rotate(-0 50.98 102.360324)">20</text>
     </g>
    </g>
    <g id="ytick_6">
     <g id="line2d_11">
      <g>
       <use xlink:href="#m0a4db1fd64" x="60.48" y="55.333373" style="stroke: #000000; stroke-width: 1.25"/>
      </g>
     </g>
     <g id="text_12">
      <text style="font: 11px 'DejaVu Sans', 'Bitstream Vera Sans', 'Computer Modern Sans Serif', 'Lucida Grande', 'Verdana', 'Geneva', 'Lucid', 'Arial', 'Helvetica', 'Avant Garde', sans-serif; text-anchor: end" x="50.98" y="59.512513" transform="rotate(-0 50.98 59.512513)">40</text>
     </g>
    </g>
    <g id="text_13">
     <text style="font: 12px 'DejaVu Sans', 'Bitstream Vera Sans', 'Computer Modern Sans Serif', 'Lucida Grande', 'Verdana', 'Geneva', 'Lucid', 'Arial', 'Helvetica', 'Avant Garde', sans-serif" transform="translate(7.831844 226.047188) rotate(-90)">Striatal Activation (β)</text>
     <text style="font: 12px 'DejaVu Sans', 'Bitstream Vera Sans', 'Computer Modern Sans Serif', 'Lucida Grande', 'Verdana', 'Geneva', 'Lucid', 'Arial', 'Helvetica', 'Avant Garde', sans-serif" transform="translate(21.269219 197.814375) rotate(-90)">Gain &gt; Loss</text>
    </g>
   </g>
   <g id="line2d_12">
    <path d="M 73.505455 131.984092 
L 76.13686 131.722375 
L 78.768264 131.460658 
L 81.399669 131.19894 
L 84.031074 130.937223 
L 86.662479 130.675506 
L 89.293884 130.413788 
L 91.925289 130.152071 
L 94.556694 129.890354 
L 97.188099 129.628636 
L 99.819504 129.366919 
L 102.450909 129.105202 
L 105.082314 128.843484 
L 107.713719 128.581767 
L 110.345124 128.32005 
L 112.976529 128.058332 
L 115.607934 127.796615 
L 118.239339 127.534898 
L 120.870744 127.27318 
L 123.502149 127.011463 
L 126.133554 126.749746 
L 128.764959 126.488028 
L 131.396364 126.226311 
L 134.027769 125.964594 
L 136.659174 125.702876 
L 139.290579 125.441159 
L 141.921983 125.179442 
L 144.553388 124.917724 
L 147.184793 124.656007 
L 149.816198 124.39429 
L 152.447603 124.132572 
L 155.079008 123.870855 
L 157.710413 123.609138 
L 160.341818 123.34742 
L 162.973223 123.085703 
L 165.604628 122.823986 
L 168.236033 122.562268 
L 170.867438 122.300551 
L 173.498843 122.038834 
L 176.130248 121.777116 
L 178.761653 121.515399 
L 181.393058 121.253682 
L 184.024463 120.991964 
L 186.655868 120.730247 
L 189.287273 120.46853 
L 191.918678 120.206812 
L 194.550083 119.945095 
L 197.181488 119.683378 
L 199.812893 119.42166 
L 202.444298 119.159943 
L 205.075702 118.898226 
L 207.707107 118.636508 
L 210.338512 118.374791 
L 212.969917 118.113074 
L 215.601322 117.851356 
L 218.232727 117.589639 
L 220.864132 117.327922 
L 223.495537 117.066204 
L 226.126942 116.804487 
L 228.758347 116.54277 
L 231.389752 116.281052 
L 234.021157 116.019335 
L 236.652562 115.757618 
L 239.283967 115.4959 
L 241.915372 115.234183 
L 244.546777 114.972466 
L 247.178182 114.710748 
L 249.809587 114.449031 
L 252.440992 114.187314 
L 255.072397 113.925596 
L 257.703802 113.663879 
L 260.335207 113.402162 
L 262.966612 113.140444 
L 265.598017 112.878727 
L 268.229421 112.61701 
L 270.860826 112.355292 
L 273.492231 112.093575 
L 276.123636 111.831858 
L 278.755041 111.57014 
L 281.386446 111.308423 
L 284.017851 111.046706 
L 286.649256 110.784988 
L 289.280661 110.523271 
L 291.912066 110.261553 
L 294.543471 109.999836 
L 297.174876 109.738119 
L 299.806281 109.476401 
L 302.437686 109.214684 
L 305.069091 108.952967 
L 307.700496 108.691249 
L 310.331901 108.429532 
L 312.963306 108.167815 
L 315.594711 107.906097 
L 318.226116 107.64438 
L 320.857521 107.382663 
L 323.488926 107.120945 
L 326.120331 106.859228 
L 328.751736 106.597511 
L 331.38314 106.335793 
L 334.014545 106.074076 
" clip-path="url(#p40aa7f57bb)" style="fill: none; stroke: #1f77b4; stroke-width: 2.25; stroke-linecap: square"/>
   </g>
   <g id="patch_3">
    <path d="M 60.48 311.07375 
L 60.48 12.96 
" style="fill: none; stroke: #000000; stroke-width: 1.25; stroke-linejoin: miter; stroke-linecap: square"/>
   </g>
   <g id="patch_4">
    <path d="M 60.48 311.07375 
L 347.04 311.07375 
" style="fill: none; stroke: #000000; stroke-width: 1.25; stroke-linejoin: miter; stroke-linecap: square"/>
   </g>
  </g>
 </g>
 <defs>
  <clipPath id="p40aa7f57bb">
   <rect x="60.48" y="12.96" width="286.56" height="298.11375"/>
  </clipPath>
 </defs>
</svg>
