<?xml version="1.0" encoding="utf-8" standalone="no"?>
<!DOCTYPE svg PUBLIC "-//W3C//DTD SVG 1.1//EN"
  "http://www.w3.org/Graphics/SVG/1.1/DTD/svg11.dtd">
<svg xmlns:xlink="http://www.w3.org/1999/xlink" width="360pt" height="360pt" viewBox="0 0 360 360" xmlns="http://www.w3.org/2000/svg" version="1.1">
 <metadata>
  <rdf:RDF xmlns:dc="http://purl.org/dc/elements/1.1/" xmlns:cc="http://creativecommons.org/ns#" xmlns:rdf="http://www.w3.org/1999/02/22-rdf-syntax-ns#">
   <cc:Work>
    <dc:type rdf:resource="http://purl.org/dc/dcmitype/StillImage"/>
    <dc:date>2023-07-27T15:58:42.801565</dc:date>
    <dc:format>image/svg+xml</dc:format>
    <dc:creator>
     <cc:Agent>
      <dc:title>Matplotlib v3.7.1, https://matplotlib.org/</dc:title>
     </cc:Agent>
    </dc:creator>
   </cc:Work>
  </rdf:RDF>
 </metadata>
 <defs>
  <style type="text/css">*{stroke-linejoin: round; stroke-linecap: butt}</style>
 </defs>
 <g id="figure_1">
  <g id="patch_1">
   <path d="M 0 360 
L 360 360 
L 360 0 
L 0 0 
z
" style="fill: #ffffff"/>
  </g>
  <g id="axes_1">
   <g id="patch_2">
    <path d="M 60.48 311.43375 
L 347.04 311.43375 
L 347.04 12.96 
L 60.48 12.96 
z
" style="fill: #ffffff"/>
   </g>
   <g id="PathCollection_1">
    <defs>
     <path id="m327f927ee9" d="M 0 3 
C 0.795609 3 1.55874 2.683901 2.12132 2.12132 
C 2.683901 1.55874 3 0.795609 3 0 
C 3 -0.795609 2.683901 -1.55874 2.12132 -2.12132 
C 1.55874 -2.683901 0.795609 -3 0 -3 
C -0.795609 -3 -1.55874 -2.683901 -2.12132 -2.12132 
C -2.683901 -1.55874 -3 -0.795609 -3 0 
C -3 0.795609 -2.683901 1.55874 -2.12132 2.12132 
C -1.55874 2.683901 -0.795609 3 0 3 
z
" style="stroke: #1f77b4; stroke-opacity: 0.8"/>
    </defs>
    <g clip-path="url(#p6b9e45ad58)">
     <use xlink:href="#m327f927ee9" x="261.650909" y="121.896464" style="fill: #1f77b4; fill-opacity: 0.8; stroke: #1f77b4; stroke-opacity: 0.8"/>
     <use xlink:href="#m327f927ee9" x="232.705455" y="88.046328" style="fill: #1f77b4; fill-opacity: 0.8; stroke: #1f77b4; stroke-opacity: 0.8"/>
     <use xlink:href="#m327f927ee9" x="295.420606" y="235.757287" style="fill: #1f77b4; fill-opacity: 0.8; stroke: #1f77b4; stroke-opacity: 0.8"/>
     <use xlink:href="#m327f927ee9" x="169.990303" y="155.073694" style="fill: #1f77b4; fill-opacity: 0.8; stroke: #1f77b4; stroke-opacity: 0.8"/>
     <use xlink:href="#m327f927ee9" x="309.893333" y="115.14701" style="fill: #1f77b4; fill-opacity: 0.8; stroke: #1f77b4; stroke-opacity: 0.8"/>
     <use xlink:href="#m327f927ee9" x="78.329697" y="43.426063" style="fill: #1f77b4; fill-opacity: 0.8; stroke: #1f77b4; stroke-opacity: 0.8"/>
     <use xlink:href="#m327f927ee9" x="237.529697" y="297.866761" style="fill: #1f77b4; fill-opacity: 0.8; stroke: #1f77b4; stroke-opacity: 0.8"/>
     <use xlink:href="#m327f927ee9" x="237.529697" y="171.020622" style="fill: #1f77b4; fill-opacity: 0.8; stroke: #1f77b4; stroke-opacity: 0.8"/>
     <use xlink:href="#m327f927ee9" x="276.123636" y="190.634044" style="fill: #1f77b4; fill-opacity: 0.8; stroke: #1f77b4; stroke-opacity: 0.8"/>
     <use xlink:href="#m327f927ee9" x="285.772121" y="148.211685" style="fill: #1f77b4; fill-opacity: 0.8; stroke: #1f77b4; stroke-opacity: 0.8"/>
     <use xlink:href="#m327f927ee9" x="324.366061" y="213.516633" style="fill: #1f77b4; fill-opacity: 0.8; stroke: #1f77b4; stroke-opacity: 0.8"/>
     <use xlink:href="#m327f927ee9" x="285.772121" y="46.134215" style="fill: #1f77b4; fill-opacity: 0.8; stroke: #1f77b4; stroke-opacity: 0.8"/>
     <use xlink:href="#m327f927ee9" x="73.505455" y="168.373803" style="fill: #1f77b4; fill-opacity: 0.8; stroke: #1f77b4; stroke-opacity: 0.8"/>
     <use xlink:href="#m327f927ee9" x="223.05697" y="72.900771" style="fill: #1f77b4; fill-opacity: 0.8; stroke: #1f77b4; stroke-opacity: 0.8"/>
     <use xlink:href="#m327f927ee9" x="261.650909" y="181.767721" style="fill: #1f77b4; fill-opacity: 0.8; stroke: #1f77b4; stroke-opacity: 0.8"/>
     <use xlink:href="#m327f927ee9" x="300.244848" y="224.614525" style="fill: #1f77b4; fill-opacity: 0.8; stroke: #1f77b4; stroke-opacity: 0.8"/>
     <use xlink:href="#m327f927ee9" x="300.244848" y="115.799365" style="fill: #1f77b4; fill-opacity: 0.8; stroke: #1f77b4; stroke-opacity: 0.8"/>
     <use xlink:href="#m327f927ee9" x="314.717576" y="162.46715" style="fill: #1f77b4; fill-opacity: 0.8; stroke: #1f77b4; stroke-opacity: 0.8"/>
     <use xlink:href="#m327f927ee9" x="334.014545" y="115.17264" style="fill: #1f77b4; fill-opacity: 0.8; stroke: #1f77b4; stroke-opacity: 0.8"/>
     <use xlink:href="#m327f927ee9" x="334.014545" y="54.216306" style="fill: #1f77b4; fill-opacity: 0.8; stroke: #1f77b4; stroke-opacity: 0.8"/>
     <use xlink:href="#m327f927ee9" x="266.475152" y="99.277039" style="fill: #1f77b4; fill-opacity: 0.8; stroke: #1f77b4; stroke-opacity: 0.8"/>
     <use xlink:href="#m327f927ee9" x="309.893333" y="281.113107" style="fill: #1f77b4; fill-opacity: 0.8; stroke: #1f77b4; stroke-opacity: 0.8"/>
     <use xlink:href="#m327f927ee9" x="285.772121" y="26.526989" style="fill: #1f77b4; fill-opacity: 0.8; stroke: #1f77b4; stroke-opacity: 0.8"/>
     <use xlink:href="#m327f927ee9" x="276.123636" y="131.820034" style="fill: #1f77b4; fill-opacity: 0.8; stroke: #1f77b4; stroke-opacity: 0.8"/>
     <use xlink:href="#m327f927ee9" x="285.772121" y="122.570028" style="fill: #1f77b4; fill-opacity: 0.8; stroke: #1f77b4; stroke-opacity: 0.8"/>
     <use xlink:href="#m327f927ee9" x="232.705455" y="130.336583" style="fill: #1f77b4; fill-opacity: 0.8; stroke: #1f77b4; stroke-opacity: 0.8"/>
     <use xlink:href="#m327f927ee9" x="295.420606" y="236.232285" style="fill: #1f77b4; fill-opacity: 0.8; stroke: #1f77b4; stroke-opacity: 0.8"/>
     <use xlink:href="#m327f927ee9" x="184.46303" y="53.74369" style="fill: #1f77b4; fill-opacity: 0.8; stroke: #1f77b4; stroke-opacity: 0.8"/>
     <use xlink:href="#m327f927ee9" x="305.069091" y="171.688479" style="fill: #1f77b4; fill-opacity: 0.8; stroke: #1f77b4; stroke-opacity: 0.8"/>
     <use xlink:href="#m327f927ee9" x="290.596364" y="181.725171" style="fill: #1f77b4; fill-opacity: 0.8; stroke: #1f77b4; stroke-opacity: 0.8"/>
     <use xlink:href="#m327f927ee9" x="276.123636" y="197.286868" style="fill: #1f77b4; fill-opacity: 0.8; stroke: #1f77b4; stroke-opacity: 0.8"/>
     <use xlink:href="#m327f927ee9" x="319.541818" y="148.723625" style="fill: #1f77b4; fill-opacity: 0.8; stroke: #1f77b4; stroke-opacity: 0.8"/>
     <use xlink:href="#m327f927ee9" x="247.178182" y="244.277973" style="fill: #1f77b4; fill-opacity: 0.8; stroke: #1f77b4; stroke-opacity: 0.8"/>
     <use xlink:href="#m327f927ee9" x="295.420606" y="169.883828" style="fill: #1f77b4; fill-opacity: 0.8; stroke: #1f77b4; stroke-opacity: 0.8"/>
     <use xlink:href="#m327f927ee9" x="242.353939" y="101.805986" style="fill: #1f77b4; fill-opacity: 0.8; stroke: #1f77b4; stroke-opacity: 0.8"/>
     <use xlink:href="#m327f927ee9" x="237.529697" y="165.669291" style="fill: #1f77b4; fill-opacity: 0.8; stroke: #1f77b4; stroke-opacity: 0.8"/>
     <use xlink:href="#m327f927ee9" x="208.584242" y="240.363287" style="fill: #1f77b4; fill-opacity: 0.8; stroke: #1f77b4; stroke-opacity: 0.8"/>
     <use xlink:href="#m327f927ee9" x="247.178182" y="46.89586" style="fill: #1f77b4; fill-opacity: 0.8; stroke: #1f77b4; stroke-opacity: 0.8"/>
     <use xlink:href="#m327f927ee9" x="198.935758" y="136.476201" style="fill: #1f77b4; fill-opacity: 0.8; stroke: #1f77b4; stroke-opacity: 0.8"/>
     <use xlink:href="#m327f927ee9" x="87.978182" y="147.68806" style="fill: #1f77b4; fill-opacity: 0.8; stroke: #1f77b4; stroke-opacity: 0.8"/>
     <use xlink:href="#m327f927ee9" x="237.529697" y="89.434929" style="fill: #1f77b4; fill-opacity: 0.8; stroke: #1f77b4; stroke-opacity: 0.8"/>
     <use xlink:href="#m327f927ee9" x="223.05697" y="178.302414" style="fill: #1f77b4; fill-opacity: 0.8; stroke: #1f77b4; stroke-opacity: 0.8"/>
     <use xlink:href="#m327f927ee9" x="295.420606" y="107.135143" style="fill: #1f77b4; fill-opacity: 0.8; stroke: #1f77b4; stroke-opacity: 0.8"/>
     <use xlink:href="#m327f927ee9" x="285.772121" y="195.882688" style="fill: #1f77b4; fill-opacity: 0.8; stroke: #1f77b4; stroke-opacity: 0.8"/>
     <use xlink:href="#m327f927ee9" x="227.881212" y="101.920712" style="fill: #1f77b4; fill-opacity: 0.8; stroke: #1f77b4; stroke-opacity: 0.8"/>
     <use xlink:href="#m327f927ee9" x="237.529697" y="239.643523" style="fill: #1f77b4; fill-opacity: 0.8; stroke: #1f77b4; stroke-opacity: 0.8"/>
    </g>
   </g>
   <g id="PolyCollection_1">
    <path d="M 73.505455 62.498282 
L 73.505455 180.134267 
L 76.13686 179.458784 
L 78.768264 179.020498 
L 81.399669 178.898362 
L 84.031074 178.776226 
L 86.662479 178.654089 
L 89.293884 178.531953 
L 91.925289 178.190419 
L 94.556694 177.65104 
L 97.188099 177.111661 
L 99.819504 176.572283 
L 102.450909 176.037316 
L 105.082314 175.743016 
L 107.713719 175.448715 
L 110.345124 175.154415 
L 112.976529 174.860115 
L 115.607934 174.565814 
L 118.239339 174.268289 
L 120.870744 173.969948 
L 123.502149 173.671607 
L 126.133554 173.370155 
L 128.764959 173.063259 
L 131.396364 172.756363 
L 134.027769 172.449466 
L 136.659174 172.357797 
L 139.290579 172.458378 
L 141.921983 172.542734 
L 144.553388 171.946093 
L 147.184793 171.349451 
L 149.816198 170.944427 
L 152.447603 170.750068 
L 155.079008 170.547299 
L 157.710413 170.34453 
L 160.341818 170.141761 
L 162.973223 170.029907 
L 165.604628 169.752647 
L 168.236033 169.565844 
L 170.867438 169.37904 
L 173.498843 169.247779 
L 176.130248 169.182901 
L 178.761653 168.796532 
L 181.393058 168.608536 
L 184.024463 168.414624 
L 186.655868 168.214509 
L 189.287273 167.712736 
L 191.918678 167.436494 
L 194.550083 166.934053 
L 197.181488 166.682872 
L 199.812893 166.683546 
L 202.444298 166.529261 
L 205.075702 166.36662 
L 207.707107 166.523364 
L 210.338512 166.05837 
L 212.969917 165.899807 
L 215.601322 165.848647 
L 218.232727 165.785875 
L 220.864132 165.725347 
L 223.495537 165.678178 
L 226.126942 165.43854 
L 228.758347 165.660971 
L 231.389752 165.56089 
L 234.021157 165.668035 
L 236.652562 165.811495 
L 239.283967 166.001016 
L 241.915372 166.188267 
L 244.546777 166.384754 
L 247.178182 166.307022 
L 249.809587 166.623912 
L 252.440992 166.941085 
L 255.072397 167.497333 
L 257.703802 168.104476 
L 260.335207 168.723267 
L 262.966612 169.387174 
L 265.598017 169.976306 
L 268.229421 170.580602 
L 270.860826 171.11538 
L 273.492231 171.684948 
L 276.123636 172.409805 
L 278.755041 172.836539 
L 281.386446 173.37055 
L 284.017851 174.136121 
L 286.649256 174.989452 
L 289.280661 175.741186 
L 291.912066 176.505135 
L 294.543471 177.353431 
L 297.174876 177.692092 
L 299.806281 178.680925 
L 302.437686 179.366853 
L 305.069091 179.934084 
L 307.700496 180.531069 
L 310.331901 181.648394 
L 312.963306 182.754588 
L 315.594711 183.933375 
L 318.226116 184.989447 
L 320.857521 185.668416 
L 323.488926 186.444947 
L 326.120331 187.363525 
L 328.751736 188.287698 
L 331.38314 189.212747 
L 334.014545 190.502843 
L 334.014545 129.67812 
L 334.014545 129.67812 
L 331.38314 129.991815 
L 328.751736 130.258147 
L 326.120331 130.683686 
L 323.488926 131.109306 
L 320.857521 131.351045 
L 318.226116 131.853071 
L 315.594711 132.097103 
L 312.963306 132.558415 
L 310.331901 132.502417 
L 307.700496 132.984202 
L 305.069091 133.134244 
L 302.437686 133.199595 
L 299.806281 133.643913 
L 297.174876 133.645547 
L 294.543471 133.693635 
L 291.912066 133.575106 
L 289.280661 133.349498 
L 286.649256 133.419846 
L 284.017851 133.663839 
L 281.386446 133.43624 
L 278.755041 133.319146 
L 276.123636 133.338773 
L 273.492231 133.322346 
L 270.860826 133.251961 
L 268.229421 132.846735 
L 265.598017 132.676996 
L 262.966612 132.337991 
L 260.335207 132.234045 
L 257.703802 131.913565 
L 255.072397 131.600092 
L 252.440992 131.327497 
L 249.809587 131.107104 
L 247.178182 130.570636 
L 244.546777 129.640578 
L 241.915372 129.150854 
L 239.283967 128.651159 
L 236.652562 127.953428 
L 234.021157 127.656752 
L 231.389752 126.976162 
L 228.758347 126.620717 
L 226.126942 126.216432 
L 223.495537 125.101436 
L 220.864132 124.198247 
L 218.232727 123.544354 
L 215.601322 122.880813 
L 212.969917 122.117138 
L 210.338512 120.876388 
L 207.707107 120.191231 
L 205.075702 119.304048 
L 202.444298 118.23272 
L 199.812893 117.403482 
L 197.181488 116.171608 
L 194.550083 114.942032 
L 191.918678 113.942746 
L 189.287273 113.121045 
L 186.655868 112.166127 
L 184.024463 111.161761 
L 181.393058 110.462843 
L 178.761653 109.478399 
L 176.130248 108.213603 
L 173.498843 107.006987 
L 170.867438 106.025988 
L 168.236033 105.021321 
L 165.604628 104.024079 
L 162.973223 103.026837 
L 160.341818 102.029595 
L 157.710413 101.033333 
L 155.079008 99.803586 
L 152.447603 98.546754 
L 149.816198 97.289922 
L 147.184793 96.03309 
L 144.553388 94.552467 
L 141.921983 93.177988 
L 139.290579 91.740376 
L 136.659174 90.264042 
L 134.027769 88.79113 
L 131.396364 87.415986 
L 128.764959 86.167567 
L 126.133554 84.919148 
L 123.502149 83.670728 
L 120.870744 82.433135 
L 118.239339 81.195956 
L 115.607934 79.958776 
L 112.976529 78.770951 
L 110.345124 77.774519 
L 107.713719 76.837689 
L 105.082314 75.87758 
L 102.450909 74.667432 
L 99.819504 73.635657 
L 97.188099 72.603882 
L 94.556694 71.572107 
L 91.925289 70.540331 
L 89.293884 69.508556 
L 86.662479 68.482224 
L 84.031074 67.456017 
L 81.399669 66.374612 
L 78.768264 65.082502 
L 76.13686 63.790392 
L 73.505455 62.498282 
z
" clip-path="url(#p6b9e45ad58)" style="fill: #1f77b4; fill-opacity: 0.15"/>
   </g>
   <g id="matplotlib.axis_1">
    <g id="xtick_1">
     <g id="line2d_1">
      <defs>
       <path id="m479bdbedf3" d="M 0 0 
L 0 6 
" style="stroke: #000000; stroke-width: 1.25"/>
      </defs>
      <g>
       <use xlink:href="#m479bdbedf3" x="107.275152" y="311.43375" style="stroke: #000000; stroke-width: 1.25"/>
      </g>
     </g>
     <g id="text_1">
      <text style="font: 11px 'DejaVu Sans', 'Bitstream Vera Sans', 'Computer Modern Sans Serif', 'Lucida Grande', 'Verdana', 'Geneva', 'Lucid', 'Arial', 'Helvetica', 'Avant Garde', sans-serif; text-anchor: middle" x="107.275152" y="329.292031" transform="rotate(-0 107.275152 329.292031)">30</text>
     </g>
    </g>
    <g id="xtick_2">
     <g id="line2d_2">
      <g>
       <use xlink:href="#m479bdbedf3" x="155.517576" y="311.43375" style="stroke: #000000; stroke-width: 1.25"/>
      </g>
     </g>
     <g id="text_2">
      <text style="font: 11px 'DejaVu Sans', 'Bitstream Vera Sans', 'Computer Modern Sans Serif', 'Lucida Grande', 'Verdana', 'Geneva', 'Lucid', 'Arial', 'Helvetica', 'Avant Garde', sans-serif; text-anchor: middle" x="155.517576" y="329.292031" transform="rotate(-0 155.517576 329.292031)">35</text>
     </g>
    </g>
    <g id="xtick_3">
     <g id="line2d_3">
      <g>
       <use xlink:href="#m479bdbedf3" x="203.76" y="311.43375" style="stroke: #000000; stroke-width: 1.25"/>
      </g>
     </g>
     <g id="text_3">
      <text style="font: 11px 'DejaVu Sans', 'Bitstream Vera Sans', 'Computer Modern Sans Serif', 'Lucida Grande', 'Verdana', 'Geneva', 'Lucid', 'Arial', 'Helvetica', 'Avant Garde', sans-serif; text-anchor: middle" x="203.76" y="329.292031" transform="rotate(-0 203.76 329.292031)">40</text>
     </g>
    </g>
    <g id="xtick_4">
     <g id="line2d_4">
      <g>
       <use xlink:href="#m479bdbedf3" x="252.002424" y="311.43375" style="stroke: #000000; stroke-width: 1.25"/>
      </g>
     </g>
     <g id="text_4">
      <text style="font: 11px 'DejaVu Sans', 'Bitstream Vera Sans', 'Computer Modern Sans Serif', 'Lucida Grande', 'Verdana', 'Geneva', 'Lucid', 'Arial', 'Helvetica', 'Avant Garde', sans-serif; text-anchor: middle" x="252.002424" y="329.292031" transform="rotate(-0 252.002424 329.292031)">45</text>
     </g>
    </g>
    <g id="xtick_5">
     <g id="line2d_5">
      <g>
       <use xlink:href="#m479bdbedf3" x="300.244848" y="311.43375" style="stroke: #000000; stroke-width: 1.25"/>
      </g>
     </g>
     <g id="text_5">
      <text style="font: 11px 'DejaVu Sans', 'Bitstream Vera Sans', 'Computer Modern Sans Serif', 'Lucida Grande', 'Verdana', 'Geneva', 'Lucid', 'Arial', 'Helvetica', 'Avant Garde', sans-serif; text-anchor: middle" x="300.244848" y="329.292031" transform="rotate(-0 300.244848 329.292031)">50</text>
     </g>
    </g>
    <g id="text_6">
     <text style="font: 12px 'DejaVu Sans', 'Bitstream Vera Sans', 'Computer Modern Sans Serif', 'Lucida Grande', 'Verdana', 'Geneva', 'Lucid', 'Arial', 'Helvetica', 'Avant Garde', sans-serif; text-anchor: middle" x="203.76" y="344.697812" transform="rotate(-0 203.76 344.697812)">Trait Experience of Pleasure</text>
    </g>
   </g>
   <g id="matplotlib.axis_2">
    <g id="ytick_1">
     <g id="line2d_6">
      <defs>
       <path id="m2d466e5d9a" d="M 0 0 
L -6 0 
" style="stroke: #000000; stroke-width: 1.25"/>
      </defs>
      <g>
       <use xlink:href="#m2d466e5d9a" x="60.48" y="278.456853" style="stroke: #000000; stroke-width: 1.25"/>
      </g>
     </g>
     <g id="text_7">
      <text style="font: 11px 'DejaVu Sans', 'Bitstream Vera Sans', 'Computer Modern Sans Serif', 'Lucida Grande', 'Verdana', 'Geneva', 'Lucid', 'Arial', 'Helvetica', 'Avant Garde', sans-serif; text-anchor: end" x="50.98" y="282.635994" transform="rotate(-0 50.98 282.635994)">−40</text>
     </g>
    </g>
    <g id="ytick_2">
     <g id="line2d_7">
      <g>
       <use xlink:href="#m2d466e5d9a" x="60.48" y="223.587592" style="stroke: #000000; stroke-width: 1.25"/>
      </g>
     </g>
     <g id="text_8">
      <text style="font: 11px 'DejaVu Sans', 'Bitstream Vera Sans', 'Computer Modern Sans Serif', 'Lucida Grande', 'Verdana', 'Geneva', 'Lucid', 'Arial', 'Helvetica', 'Avant Garde', sans-serif; text-anchor: end" x="50.98" y="227.766733" transform="rotate(-0 50.98 227.766733)">−20</text>
     </g>
    </g>
    <g id="ytick_3">
     <g id="line2d_8">
      <g>
       <use xlink:href="#m2d466e5d9a" x="60.48" y="168.718331" style="stroke: #000000; stroke-width: 1.25"/>
      </g>
     </g>
     <g id="text_9">
      <text style="font: 11px 'DejaVu Sans', 'Bitstream Vera Sans', 'Computer Modern Sans Serif', 'Lucida Grande', 'Verdana', 'Geneva', 'Lucid', 'Arial', 'Helvetica', 'Avant Garde', sans-serif; text-anchor: end" x="50.98" y="172.897471" transform="rotate(-0 50.98 172.897471)">0</text>
     </g>
    </g>
    <g id="ytick_4">
     <g id="line2d_9">
      <g>
       <use xlink:href="#m2d466e5d9a" x="60.48" y="113.84907" style="stroke: #000000; stroke-width: 1.25"/>
      </g>
     </g>
     <g id="text_10">
      <text style="font: 11px 'DejaVu Sans', 'Bitstream Vera Sans', 'Computer Modern Sans Serif', 'Lucida Grande', 'Verdana', 'Geneva', 'Lucid', 'Arial', 'Helvetica', 'Avant Garde', sans-serif; text-anchor: end" x="50.98" y="118.02821" transform="rotate(-0 50.98 118.02821)">20</text>
     </g>
    </g>
    <g id="ytick_5">
     <g id="line2d_10">
      <g>
       <use xlink:href="#m2d466e5d9a" x="60.48" y="58.979808" style="stroke: #000000; stroke-width: 1.25"/>
      </g>
     </g>
     <g id="text_11">
      <text style="font: 11px 'DejaVu Sans', 'Bitstream Vera Sans', 'Computer Modern Sans Serif', 'Lucida Grande', 'Verdana', 'Geneva', 'Lucid', 'Arial', 'Helvetica', 'Avant Garde', sans-serif; text-anchor: end" x="50.98" y="63.158949" transform="rotate(-0 50.98 63.158949)">40</text>
     </g>
    </g>
    <g id="text_12">
     <text style="font: 12px 'DejaVu Sans', 'Bitstream Vera Sans', 'Computer Modern Sans Serif', 'Lucida Grande', 'Verdana', 'Geneva', 'Lucid', 'Arial', 'Helvetica', 'Avant Garde', sans-serif" transform="translate(7.831844 226.227188) rotate(-90)">Striatal Activation (β)</text>
     <text style="font: 12px 'DejaVu Sans', 'Bitstream Vera Sans', 'Computer Modern Sans Serif', 'Lucida Grande', 'Verdana', 'Geneva', 'Lucid', 'Arial', 'Helvetica', 'Avant Garde', sans-serif" transform="translate(21.269219 235.989375) rotate(-90)">Large Gain &gt; Small Gain</text>
    </g>
   </g>
   <g id="line2d_11">
    <path d="M 73.505455 122.139337 
L 76.13686 122.533015 
L 78.768264 122.926692 
L 81.399669 123.32037 
L 84.031074 123.714047 
L 86.662479 124.107725 
L 89.293884 124.501402 
L 91.925289 124.89508 
L 94.556694 125.288757 
L 97.188099 125.682435 
L 99.819504 126.076112 
L 102.450909 126.46979 
L 105.082314 126.863468 
L 107.713719 127.257145 
L 110.345124 127.650823 
L 112.976529 128.0445 
L 115.607934 128.438178 
L 118.239339 128.831855 
L 120.870744 129.225533 
L 123.502149 129.61921 
L 126.133554 130.012888 
L 128.764959 130.406565 
L 131.396364 130.800243 
L 134.027769 131.19392 
L 136.659174 131.587598 
L 139.290579 131.981275 
L 141.921983 132.374953 
L 144.553388 132.76863 
L 147.184793 133.162308 
L 149.816198 133.555985 
L 152.447603 133.949663 
L 155.079008 134.34334 
L 157.710413 134.737018 
L 160.341818 135.130696 
L 162.973223 135.524373 
L 165.604628 135.918051 
L 168.236033 136.311728 
L 170.867438 136.705406 
L 173.498843 137.099083 
L 176.130248 137.492761 
L 178.761653 137.886438 
L 181.393058 138.280116 
L 184.024463 138.673793 
L 186.655868 139.067471 
L 189.287273 139.461148 
L 191.918678 139.854826 
L 194.550083 140.248503 
L 197.181488 140.642181 
L 199.812893 141.035858 
L 202.444298 141.429536 
L 205.075702 141.823213 
L 207.707107 142.216891 
L 210.338512 142.610568 
L 212.969917 143.004246 
L 215.601322 143.397924 
L 218.232727 143.791601 
L 220.864132 144.185279 
L 223.495537 144.578956 
L 226.126942 144.972634 
L 228.758347 145.366311 
L 231.389752 145.759989 
L 234.021157 146.153666 
L 236.652562 146.547344 
L 239.283967 146.941021 
L 241.915372 147.334699 
L 244.546777 147.728376 
L 247.178182 148.122054 
L 249.809587 148.515731 
L 252.440992 148.909409 
L 255.072397 149.303086 
L 257.703802 149.696764 
L 260.335207 150.090441 
L 262.966612 150.484119 
L 265.598017 150.877796 
L 268.229421 151.271474 
L 270.860826 151.665152 
L 273.492231 152.058829 
L 276.123636 152.452507 
L 278.755041 152.846184 
L 281.386446 153.239862 
L 284.017851 153.633539 
L 286.649256 154.027217 
L 289.280661 154.420894 
L 291.912066 154.814572 
L 294.543471 155.208249 
L 297.174876 155.601927 
L 299.806281 155.995604 
L 302.437686 156.389282 
L 305.069091 156.782959 
L 307.700496 157.176637 
L 310.331901 157.570314 
L 312.963306 157.963992 
L 315.594711 158.357669 
L 318.226116 158.751347 
L 320.857521 159.145024 
L 323.488926 159.538702 
L 326.120331 159.93238 
L 328.751736 160.326057 
L 331.38314 160.719735 
L 334.014545 161.113412 
" clip-path="url(#p6b9e45ad58)" style="fill: none; stroke: #1f77b4; stroke-width: 2.25; stroke-linecap: square"/>
   </g>
   <g id="patch_3">
    <path d="M 60.48 311.43375 
L 60.48 12.96 
" style="fill: none; stroke: #000000; stroke-width: 1.25; stroke-linejoin: miter; stroke-linecap: square"/>
   </g>
   <g id="patch_4">
    <path d="M 60.48 311.43375 
L 347.04 311.43375 
" style="fill: none; stroke: #000000; stroke-width: 1.25; stroke-linejoin: miter; stroke-linecap: square"/>
   </g>
  </g>
 </g>
 <defs>
  <clipPath id="p6b9e45ad58">
   <rect x="60.48" y="12.96" width="286.56" height="298.47375"/>
  </clipPath>
 </defs>
</svg>
