<?xml version="1.0" encoding="utf-8" standalone="no"?>
<!DOCTYPE svg PUBLIC "-//W3C//DTD SVG 1.1//EN"
  "http://www.w3.org/Graphics/SVG/1.1/DTD/svg11.dtd">
<svg xmlns:xlink="http://www.w3.org/1999/xlink" width="360pt" height="360pt" viewBox="0 0 360 360" xmlns="http://www.w3.org/2000/svg" version="1.1">
 <metadata>
  <rdf:RDF xmlns:dc="http://purl.org/dc/elements/1.1/" xmlns:cc="http://creativecommons.org/ns#" xmlns:rdf="http://www.w3.org/1999/02/22-rdf-syntax-ns#">
   <cc:Work>
    <dc:type rdf:resource="http://purl.org/dc/dcmitype/StillImage"/>
    <dc:date>2023-07-26T14:48:33.852650</dc:date>
    <dc:format>image/svg+xml</dc:format>
    <dc:creator>
     <cc:Agent>
      <dc:title>Matplotlib v3.7.1, https://matplotlib.org/</dc:title>
     </cc:Agent>
    </dc:creator>
   </cc:Work>
  </rdf:RDF>
 </metadata>
 <defs>
  <style type="text/css">*{stroke-linejoin: round; stroke-linecap: butt}</style>
 </defs>
 <g id="figure_1">
  <g id="patch_1">
   <path d="M 0 360 
L 360 360 
L 360 0 
L 0 0 
z
" style="fill: #ffffff"/>
  </g>
  <g id="axes_1">
   <g id="patch_2">
    <path d="M 60.48 311.43375 
L 347.04 311.43375 
L 347.04 12.96 
L 60.48 12.96 
z
" style="fill: #ffffff"/>
   </g>
   <g id="PathCollection_1">
    <defs>
     <path id="m9d7f2906cb" d="M 0 3 
C 0.795609 3 1.55874 2.683901 2.12132 2.12132 
C 2.683901 1.55874 3 0.795609 3 0 
C 3 -0.795609 2.683901 -1.55874 2.12132 -2.12132 
C 1.55874 -2.683901 0.795609 -3 0 -3 
C -0.795609 -3 -1.55874 -2.683901 -2.12132 -2.12132 
C -2.683901 -1.55874 -3 -0.795609 -3 0 
C -3 0.795609 -2.683901 1.55874 -2.12132 2.12132 
C -1.55874 2.683901 -0.795609 3 0 3 
z
" style="stroke: #1f77b4; stroke-opacity: 0.8"/>
    </defs>
    <g clip-path="url(#p3f87e3421e)">
     <use xlink:href="#m9d7f2906cb" x="261.650909" y="130.059378" style="fill: #1f77b4; fill-opacity: 0.8; stroke: #1f77b4; stroke-opacity: 0.8"/>
     <use xlink:href="#m9d7f2906cb" x="232.705455" y="168.402418" style="fill: #1f77b4; fill-opacity: 0.8; stroke: #1f77b4; stroke-opacity: 0.8"/>
     <use xlink:href="#m9d7f2906cb" x="295.420606" y="168.780423" style="fill: #1f77b4; fill-opacity: 0.8; stroke: #1f77b4; stroke-opacity: 0.8"/>
     <use xlink:href="#m9d7f2906cb" x="169.990303" y="198.687145" style="fill: #1f77b4; fill-opacity: 0.8; stroke: #1f77b4; stroke-opacity: 0.8"/>
     <use xlink:href="#m9d7f2906cb" x="309.893333" y="265.908329" style="fill: #1f77b4; fill-opacity: 0.8; stroke: #1f77b4; stroke-opacity: 0.8"/>
     <use xlink:href="#m9d7f2906cb" x="78.329697" y="203.498618" style="fill: #1f77b4; fill-opacity: 0.8; stroke: #1f77b4; stroke-opacity: 0.8"/>
     <use xlink:href="#m9d7f2906cb" x="237.529697" y="159.241022" style="fill: #1f77b4; fill-opacity: 0.8; stroke: #1f77b4; stroke-opacity: 0.8"/>
     <use xlink:href="#m9d7f2906cb" x="237.529697" y="224.582626" style="fill: #1f77b4; fill-opacity: 0.8; stroke: #1f77b4; stroke-opacity: 0.8"/>
     <use xlink:href="#m9d7f2906cb" x="276.123636" y="155.419723" style="fill: #1f77b4; fill-opacity: 0.8; stroke: #1f77b4; stroke-opacity: 0.8"/>
     <use xlink:href="#m9d7f2906cb" x="285.772121" y="210.324698" style="fill: #1f77b4; fill-opacity: 0.8; stroke: #1f77b4; stroke-opacity: 0.8"/>
     <use xlink:href="#m9d7f2906cb" x="324.366061" y="219.609313" style="fill: #1f77b4; fill-opacity: 0.8; stroke: #1f77b4; stroke-opacity: 0.8"/>
     <use xlink:href="#m9d7f2906cb" x="285.772121" y="185.083024" style="fill: #1f77b4; fill-opacity: 0.8; stroke: #1f77b4; stroke-opacity: 0.8"/>
     <use xlink:href="#m9d7f2906cb" x="73.505455" y="250.823027" style="fill: #1f77b4; fill-opacity: 0.8; stroke: #1f77b4; stroke-opacity: 0.8"/>
     <use xlink:href="#m9d7f2906cb" x="223.05697" y="209.536193" style="fill: #1f77b4; fill-opacity: 0.8; stroke: #1f77b4; stroke-opacity: 0.8"/>
     <use xlink:href="#m9d7f2906cb" x="261.650909" y="146.483085" style="fill: #1f77b4; fill-opacity: 0.8; stroke: #1f77b4; stroke-opacity: 0.8"/>
     <use xlink:href="#m9d7f2906cb" x="300.244848" y="146.874627" style="fill: #1f77b4; fill-opacity: 0.8; stroke: #1f77b4; stroke-opacity: 0.8"/>
     <use xlink:href="#m9d7f2906cb" x="300.244848" y="152.057981" style="fill: #1f77b4; fill-opacity: 0.8; stroke: #1f77b4; stroke-opacity: 0.8"/>
     <use xlink:href="#m9d7f2906cb" x="314.717576" y="220.270423" style="fill: #1f77b4; fill-opacity: 0.8; stroke: #1f77b4; stroke-opacity: 0.8"/>
     <use xlink:href="#m9d7f2906cb" x="334.014545" y="206.813015" style="fill: #1f77b4; fill-opacity: 0.8; stroke: #1f77b4; stroke-opacity: 0.8"/>
     <use xlink:href="#m9d7f2906cb" x="334.014545" y="26.526989" style="fill: #1f77b4; fill-opacity: 0.8; stroke: #1f77b4; stroke-opacity: 0.8"/>
     <use xlink:href="#m9d7f2906cb" x="266.475152" y="194.804301" style="fill: #1f77b4; fill-opacity: 0.8; stroke: #1f77b4; stroke-opacity: 0.8"/>
     <use xlink:href="#m9d7f2906cb" x="309.893333" y="176.019951" style="fill: #1f77b4; fill-opacity: 0.8; stroke: #1f77b4; stroke-opacity: 0.8"/>
     <use xlink:href="#m9d7f2906cb" x="285.772121" y="164.684882" style="fill: #1f77b4; fill-opacity: 0.8; stroke: #1f77b4; stroke-opacity: 0.8"/>
     <use xlink:href="#m9d7f2906cb" x="276.123636" y="178.490426" style="fill: #1f77b4; fill-opacity: 0.8; stroke: #1f77b4; stroke-opacity: 0.8"/>
     <use xlink:href="#m9d7f2906cb" x="285.772121" y="192.028766" style="fill: #1f77b4; fill-opacity: 0.8; stroke: #1f77b4; stroke-opacity: 0.8"/>
     <use xlink:href="#m9d7f2906cb" x="232.705455" y="228.796956" style="fill: #1f77b4; fill-opacity: 0.8; stroke: #1f77b4; stroke-opacity: 0.8"/>
     <use xlink:href="#m9d7f2906cb" x="295.420606" y="205.244741" style="fill: #1f77b4; fill-opacity: 0.8; stroke: #1f77b4; stroke-opacity: 0.8"/>
     <use xlink:href="#m9d7f2906cb" x="184.46303" y="121.106094" style="fill: #1f77b4; fill-opacity: 0.8; stroke: #1f77b4; stroke-opacity: 0.8"/>
     <use xlink:href="#m9d7f2906cb" x="305.069091" y="187.865225" style="fill: #1f77b4; fill-opacity: 0.8; stroke: #1f77b4; stroke-opacity: 0.8"/>
     <use xlink:href="#m9d7f2906cb" x="290.596364" y="122.076235" style="fill: #1f77b4; fill-opacity: 0.8; stroke: #1f77b4; stroke-opacity: 0.8"/>
     <use xlink:href="#m9d7f2906cb" x="276.123636" y="205.603309" style="fill: #1f77b4; fill-opacity: 0.8; stroke: #1f77b4; stroke-opacity: 0.8"/>
     <use xlink:href="#m9d7f2906cb" x="319.541818" y="221.365423" style="fill: #1f77b4; fill-opacity: 0.8; stroke: #1f77b4; stroke-opacity: 0.8"/>
     <use xlink:href="#m9d7f2906cb" x="247.178182" y="125.459791" style="fill: #1f77b4; fill-opacity: 0.8; stroke: #1f77b4; stroke-opacity: 0.8"/>
     <use xlink:href="#m9d7f2906cb" x="295.420606" y="174.23248" style="fill: #1f77b4; fill-opacity: 0.8; stroke: #1f77b4; stroke-opacity: 0.8"/>
     <use xlink:href="#m9d7f2906cb" x="242.353939" y="204.770296" style="fill: #1f77b4; fill-opacity: 0.8; stroke: #1f77b4; stroke-opacity: 0.8"/>
     <use xlink:href="#m9d7f2906cb" x="237.529697" y="117.792429" style="fill: #1f77b4; fill-opacity: 0.8; stroke: #1f77b4; stroke-opacity: 0.8"/>
     <use xlink:href="#m9d7f2906cb" x="208.584242" y="297.866761" style="fill: #1f77b4; fill-opacity: 0.8; stroke: #1f77b4; stroke-opacity: 0.8"/>
     <use xlink:href="#m9d7f2906cb" x="247.178182" y="194.356181" style="fill: #1f77b4; fill-opacity: 0.8; stroke: #1f77b4; stroke-opacity: 0.8"/>
     <use xlink:href="#m9d7f2906cb" x="198.935758" y="171.725715" style="fill: #1f77b4; fill-opacity: 0.8; stroke: #1f77b4; stroke-opacity: 0.8"/>
     <use xlink:href="#m9d7f2906cb" x="87.978182" y="98.700672" style="fill: #1f77b4; fill-opacity: 0.8; stroke: #1f77b4; stroke-opacity: 0.8"/>
     <use xlink:href="#m9d7f2906cb" x="237.529697" y="180.837956" style="fill: #1f77b4; fill-opacity: 0.8; stroke: #1f77b4; stroke-opacity: 0.8"/>
     <use xlink:href="#m9d7f2906cb" x="223.05697" y="269.062102" style="fill: #1f77b4; fill-opacity: 0.8; stroke: #1f77b4; stroke-opacity: 0.8"/>
     <use xlink:href="#m9d7f2906cb" x="295.420606" y="230.153115" style="fill: #1f77b4; fill-opacity: 0.8; stroke: #1f77b4; stroke-opacity: 0.8"/>
     <use xlink:href="#m9d7f2906cb" x="285.772121" y="160.709959" style="fill: #1f77b4; fill-opacity: 0.8; stroke: #1f77b4; stroke-opacity: 0.8"/>
     <use xlink:href="#m9d7f2906cb" x="227.881212" y="178.789783" style="fill: #1f77b4; fill-opacity: 0.8; stroke: #1f77b4; stroke-opacity: 0.8"/>
     <use xlink:href="#m9d7f2906cb" x="237.529697" y="232.259689" style="fill: #1f77b4; fill-opacity: 0.8; stroke: #1f77b4; stroke-opacity: 0.8"/>
    </g>
   </g>
   <g id="PolyCollection_1">
    <path d="M 73.505455 139.686802 
L 73.505455 261.514209 
L 76.13686 260.499787 
L 78.768264 259.485365 
L 81.399669 258.470943 
L 84.031074 257.456522 
L 86.662479 256.4421 
L 89.293884 255.427678 
L 91.925289 254.413256 
L 94.556694 253.398835 
L 97.188099 252.384413 
L 99.819504 251.369991 
L 102.450909 250.355569 
L 105.082314 249.341148 
L 107.713719 248.324384 
L 110.345124 247.306527 
L 112.976529 246.28867 
L 115.607934 245.192584 
L 118.239339 244.067513 
L 120.870744 242.942443 
L 123.502149 241.817373 
L 126.133554 240.692303 
L 128.764959 239.567232 
L 131.396364 238.442162 
L 134.027769 237.317092 
L 136.659174 236.192021 
L 139.290579 235.54283 
L 141.921983 235.027499 
L 144.553388 233.843915 
L 147.184793 232.515401 
L 149.816198 231.570783 
L 152.447603 230.678029 
L 155.079008 229.607471 
L 157.710413 228.254347 
L 160.341818 227.006265 
L 162.973223 225.98158 
L 165.604628 224.780969 
L 168.236033 223.573146 
L 170.867438 222.360604 
L 173.498843 221.334711 
L 176.130248 220.441578 
L 178.761653 219.741416 
L 181.393058 218.850932 
L 184.024463 217.59797 
L 186.655868 216.376152 
L 189.287273 215.489188 
L 191.918678 214.602224 
L 194.550083 213.720457 
L 197.181488 212.998443 
L 199.812893 212.365959 
L 202.444298 211.677656 
L 205.075702 210.900574 
L 207.707107 209.758596 
L 210.338512 208.689372 
L 212.969917 207.583391 
L 215.601322 206.6665 
L 218.232727 205.78392 
L 220.864132 205.148378 
L 223.495537 204.757772 
L 226.126942 204.127872 
L 228.758347 203.281796 
L 231.389752 202.771403 
L 234.021157 202.261011 
L 236.652562 201.746562 
L 239.283967 201.16115 
L 241.915372 200.933596 
L 244.546777 200.542797 
L 247.178182 199.930139 
L 249.809587 199.463782 
L 252.440992 199.026321 
L 255.072397 198.837009 
L 257.703802 198.23478 
L 260.335207 197.825764 
L 262.966612 197.797688 
L 265.598017 197.585457 
L 268.229421 197.513076 
L 270.860826 197.716915 
L 273.492231 197.662279 
L 276.123636 197.509314 
L 278.755041 197.681914 
L 281.386446 197.610816 
L 284.017851 197.533093 
L 286.649256 197.529517 
L 289.280661 197.433434 
L 291.912066 197.560066 
L 294.543471 197.650105 
L 297.174876 198.069845 
L 299.806281 198.503489 
L 302.437686 198.929501 
L 305.069091 199.243484 
L 307.700496 199.320382 
L 310.331901 199.441758 
L 312.963306 199.807996 
L 315.594711 200.470118 
L 318.226116 200.993344 
L 320.857521 201.23165 
L 323.488926 201.612247 
L 326.120331 202.600044 
L 328.751736 203.231582 
L 331.38314 203.657449 
L 334.014545 204.083316 
L 334.014545 149.671413 
L 334.014545 149.671413 
L 331.38314 150.58136 
L 328.751736 151.368103 
L 326.120331 152.433939 
L 323.488926 153.705205 
L 320.857521 154.82963 
L 318.226116 155.472565 
L 315.594711 156.118128 
L 312.963306 156.950757 
L 310.331901 157.876552 
L 307.700496 158.714985 
L 305.069091 159.589975 
L 302.437686 160.509939 
L 299.806281 161.297702 
L 297.174876 162.326458 
L 294.543471 162.993107 
L 291.912066 163.676072 
L 289.280661 164.162262 
L 286.649256 164.744923 
L 284.017851 165.326118 
L 281.386446 165.683949 
L 278.755041 166.397385 
L 276.123636 167.017831 
L 273.492231 167.569732 
L 270.860826 168.440739 
L 268.229421 168.846546 
L 265.598017 169.171652 
L 262.966612 169.349211 
L 260.335207 169.532687 
L 257.703802 170.03734 
L 255.072397 170.44286 
L 252.440992 170.57549 
L 249.809587 170.481233 
L 247.178182 170.62864 
L 244.546777 170.886925 
L 241.915372 170.620842 
L 239.283967 170.315335 
L 236.652562 170.097937 
L 234.021157 169.92923 
L 231.389752 169.711381 
L 228.758347 169.272747 
L 226.126942 168.777725 
L 223.495537 168.443216 
L 220.864132 168.504806 
L 218.232727 167.940194 
L 215.601322 167.714573 
L 212.969917 167.334163 
L 210.338512 166.889336 
L 207.707107 166.42178 
L 205.075702 165.943604 
L 202.444298 165.421621 
L 199.812893 164.776377 
L 197.181488 164.131133 
L 194.550083 163.626752 
L 191.918678 163.192077 
L 189.287273 162.757402 
L 186.655868 162.328183 
L 184.024463 161.861668 
L 181.393058 161.37851 
L 178.761653 160.923742 
L 176.130248 160.401369 
L 173.498843 159.831959 
L 170.867438 159.21946 
L 168.236033 158.631232 
L 165.604628 158.27429 
L 162.973223 157.739932 
L 160.341818 157.205575 
L 157.710413 156.580455 
L 155.079008 155.858371 
L 152.447603 155.287633 
L 149.816198 154.953091 
L 147.184793 154.551203 
L 144.553388 154.021678 
L 141.921983 153.492152 
L 139.290579 152.962626 
L 136.659174 152.433101 
L 134.027769 151.903575 
L 131.396364 151.374049 
L 128.764959 150.844524 
L 126.133554 150.314998 
L 123.502149 149.82951 
L 120.870744 149.369705 
L 118.239339 148.909901 
L 115.607934 148.450096 
L 112.976529 147.990292 
L 110.345124 147.530487 
L 107.713719 146.889359 
L 105.082314 146.170485 
L 102.450909 145.531332 
L 99.819504 144.995164 
L 97.188099 144.46224 
L 94.556694 143.931636 
L 91.925289 143.401032 
L 89.293884 142.870428 
L 86.662479 142.339823 
L 84.031074 141.809219 
L 81.399669 141.278615 
L 78.768264 140.748011 
L 76.13686 140.217407 
L 73.505455 139.686802 
z
" clip-path="url(#p3f87e3421e)" style="fill: #1f77b4; fill-opacity: 0.15"/>
   </g>
   <g id="matplotlib.axis_1">
    <g id="xtick_1">
     <g id="line2d_1">
      <defs>
       <path id="me9af02d7c3" d="M 0 0 
L 0 6 
" style="stroke: #000000; stroke-width: 1.25"/>
      </defs>
      <g>
       <use xlink:href="#me9af02d7c3" x="107.275152" y="311.43375" style="stroke: #000000; stroke-width: 1.25"/>
      </g>
     </g>
     <g id="text_1">
      <text style="font: 11px 'DejaVu Sans', 'Bitstream Vera Sans', 'Computer Modern Sans Serif', 'Lucida Grande', 'Verdana', 'Geneva', 'Lucid', 'Arial', 'Helvetica', 'Avant Garde', sans-serif; text-anchor: middle" x="107.275152" y="329.292031" transform="rotate(-0 107.275152 329.292031)">30</text>
     </g>
    </g>
    <g id="xtick_2">
     <g id="line2d_2">
      <g>
       <use xlink:href="#me9af02d7c3" x="155.517576" y="311.43375" style="stroke: #000000; stroke-width: 1.25"/>
      </g>
     </g>
     <g id="text_2">
      <text style="font: 11px 'DejaVu Sans', 'Bitstream Vera Sans', 'Computer Modern Sans Serif', 'Lucida Grande', 'Verdana', 'Geneva', 'Lucid', 'Arial', 'Helvetica', 'Avant Garde', sans-serif; text-anchor: middle" x="155.517576" y="329.292031" transform="rotate(-0 155.517576 329.292031)">35</text>
     </g>
    </g>
    <g id="xtick_3">
     <g id="line2d_3">
      <g>
       <use xlink:href="#me9af02d7c3" x="203.76" y="311.43375" style="stroke: #000000; stroke-width: 1.25"/>
      </g>
     </g>
     <g id="text_3">
      <text style="font: 11px 'DejaVu Sans', 'Bitstream Vera Sans', 'Computer Modern Sans Serif', 'Lucida Grande', 'Verdana', 'Geneva', 'Lucid', 'Arial', 'Helvetica', 'Avant Garde', sans-serif; text-anchor: middle" x="203.76" y="329.292031" transform="rotate(-0 203.76 329.292031)">40</text>
     </g>
    </g>
    <g id="xtick_4">
     <g id="line2d_4">
      <g>
       <use xlink:href="#me9af02d7c3" x="252.002424" y="311.43375" style="stroke: #000000; stroke-width: 1.25"/>
      </g>
     </g>
     <g id="text_4">
      <text style="font: 11px 'DejaVu Sans', 'Bitstream Vera Sans', 'Computer Modern Sans Serif', 'Lucida Grande', 'Verdana', 'Geneva', 'Lucid', 'Arial', 'Helvetica', 'Avant Garde', sans-serif; text-anchor: middle" x="252.002424" y="329.292031" transform="rotate(-0 252.002424 329.292031)">45</text>
     </g>
    </g>
    <g id="xtick_5">
     <g id="line2d_5">
      <g>
       <use xlink:href="#me9af02d7c3" x="300.244848" y="311.43375" style="stroke: #000000; stroke-width: 1.25"/>
      </g>
     </g>
     <g id="text_5">
      <text style="font: 11px 'DejaVu Sans', 'Bitstream Vera Sans', 'Computer Modern Sans Serif', 'Lucida Grande', 'Verdana', 'Geneva', 'Lucid', 'Arial', 'Helvetica', 'Avant Garde', sans-serif; text-anchor: middle" x="300.244848" y="329.292031" transform="rotate(-0 300.244848 329.292031)">50</text>
     </g>
    </g>
    <g id="text_6">
     <text style="font: 12px 'DejaVu Sans', 'Bitstream Vera Sans', 'Computer Modern Sans Serif', 'Lucida Grande', 'Verdana', 'Geneva', 'Lucid', 'Arial', 'Helvetica', 'Avant Garde', sans-serif; text-anchor: middle" x="203.76" y="344.697812" transform="rotate(-0 203.76 344.697812)">Trait Experience of Pleasure</text>
    </g>
   </g>
   <g id="matplotlib.axis_2">
    <g id="ytick_1">
     <g id="line2d_6">
      <defs>
       <path id="m790a1cf79b" d="M 0 0 
L -6 0 
" style="stroke: #000000; stroke-width: 1.25"/>
      </defs>
      <g>
       <use xlink:href="#m790a1cf79b" x="60.48" y="296.629601" style="stroke: #000000; stroke-width: 1.25"/>
      </g>
     </g>
     <g id="text_7">
      <text style="font: 11px 'DejaVu Sans', 'Bitstream Vera Sans', 'Computer Modern Sans Serif', 'Lucida Grande', 'Verdana', 'Geneva', 'Lucid', 'Arial', 'Helvetica', 'Avant Garde', sans-serif; text-anchor: end" x="50.98" y="300.808741" transform="rotate(-0 50.98 300.808741)">−40</text>
     </g>
    </g>
    <g id="ytick_2">
     <g id="line2d_7">
      <g>
       <use xlink:href="#m790a1cf79b" x="60.48" y="243.07797" style="stroke: #000000; stroke-width: 1.25"/>
      </g>
     </g>
     <g id="text_8">
      <text style="font: 11px 'DejaVu Sans', 'Bitstream Vera Sans', 'Computer Modern Sans Serif', 'Lucida Grande', 'Verdana', 'Geneva', 'Lucid', 'Arial', 'Helvetica', 'Avant Garde', sans-serif; text-anchor: end" x="50.98" y="247.25711" transform="rotate(-0 50.98 247.25711)">−20</text>
     </g>
    </g>
    <g id="ytick_3">
     <g id="line2d_8">
      <g>
       <use xlink:href="#m790a1cf79b" x="60.48" y="189.526338" style="stroke: #000000; stroke-width: 1.25"/>
      </g>
     </g>
     <g id="text_9">
      <text style="font: 11px 'DejaVu Sans', 'Bitstream Vera Sans', 'Computer Modern Sans Serif', 'Lucida Grande', 'Verdana', 'Geneva', 'Lucid', 'Arial', 'Helvetica', 'Avant Garde', sans-serif; text-anchor: end" x="50.98" y="193.705479" transform="rotate(-0 50.98 193.705479)">0</text>
     </g>
    </g>
    <g id="ytick_4">
     <g id="line2d_9">
      <g>
       <use xlink:href="#m790a1cf79b" x="60.48" y="135.974707" style="stroke: #000000; stroke-width: 1.25"/>
      </g>
     </g>
     <g id="text_10">
      <text style="font: 11px 'DejaVu Sans', 'Bitstream Vera Sans', 'Computer Modern Sans Serif', 'Lucida Grande', 'Verdana', 'Geneva', 'Lucid', 'Arial', 'Helvetica', 'Avant Garde', sans-serif; text-anchor: end" x="50.98" y="140.153848" transform="rotate(-0 50.98 140.153848)">20</text>
     </g>
    </g>
    <g id="ytick_5">
     <g id="line2d_10">
      <g>
       <use xlink:href="#m790a1cf79b" x="60.48" y="82.423076" style="stroke: #000000; stroke-width: 1.25"/>
      </g>
     </g>
     <g id="text_11">
      <text style="font: 11px 'DejaVu Sans', 'Bitstream Vera Sans', 'Computer Modern Sans Serif', 'Lucida Grande', 'Verdana', 'Geneva', 'Lucid', 'Arial', 'Helvetica', 'Avant Garde', sans-serif; text-anchor: end" x="50.98" y="86.602216" transform="rotate(-0 50.98 86.602216)">40</text>
     </g>
    </g>
    <g id="ytick_6">
     <g id="line2d_11">
      <g>
       <use xlink:href="#m790a1cf79b" x="60.48" y="28.871444" style="stroke: #000000; stroke-width: 1.25"/>
      </g>
     </g>
     <g id="text_12">
      <text style="font: 11px 'DejaVu Sans', 'Bitstream Vera Sans', 'Computer Modern Sans Serif', 'Lucida Grande', 'Verdana', 'Geneva', 'Lucid', 'Arial', 'Helvetica', 'Avant Garde', sans-serif; text-anchor: end" x="50.98" y="33.050585" transform="rotate(-0 50.98 33.050585)">60</text>
     </g>
    </g>
    <g id="text_13">
     <text style="font: 12px 'DejaVu Sans', 'Bitstream Vera Sans', 'Computer Modern Sans Serif', 'Lucida Grande', 'Verdana', 'Geneva', 'Lucid', 'Arial', 'Helvetica', 'Avant Garde', sans-serif" transform="translate(7.831844 226.227188) rotate(-90)">Striatal Activation (β)</text>
     <text style="font: 12px 'DejaVu Sans', 'Bitstream Vera Sans', 'Computer Modern Sans Serif', 'Lucida Grande', 'Verdana', 'Geneva', 'Lucid', 'Arial', 'Helvetica', 'Avant Garde', sans-serif" transform="translate(21.269219 234.72) rotate(-90)">Large Loss &gt; Small Loss</text>
    </g>
   </g>
   <g id="line2d_12">
    <path d="M 73.505455 195.857344 
L 76.13686 195.691801 
L 78.768264 195.526259 
L 81.399669 195.360716 
L 84.031074 195.195174 
L 86.662479 195.029631 
L 89.293884 194.864089 
L 91.925289 194.698546 
L 94.556694 194.533004 
L 97.188099 194.367462 
L 99.819504 194.201919 
L 102.450909 194.036377 
L 105.082314 193.870834 
L 107.713719 193.705292 
L 110.345124 193.539749 
L 112.976529 193.374207 
L 115.607934 193.208664 
L 118.239339 193.043122 
L 120.870744 192.877579 
L 123.502149 192.712037 
L 126.133554 192.546494 
L 128.764959 192.380952 
L 131.396364 192.215409 
L 134.027769 192.049867 
L 136.659174 191.884325 
L 139.290579 191.718782 
L 141.921983 191.55324 
L 144.553388 191.387697 
L 147.184793 191.222155 
L 149.816198 191.056612 
L 152.447603 190.89107 
L 155.079008 190.725527 
L 157.710413 190.559985 
L 160.341818 190.394442 
L 162.973223 190.2289 
L 165.604628 190.063357 
L 168.236033 189.897815 
L 170.867438 189.732272 
L 173.498843 189.56673 
L 176.130248 189.401187 
L 178.761653 189.235645 
L 181.393058 189.070103 
L 184.024463 188.90456 
L 186.655868 188.739018 
L 189.287273 188.573475 
L 191.918678 188.407933 
L 194.550083 188.24239 
L 197.181488 188.076848 
L 199.812893 187.911305 
L 202.444298 187.745763 
L 205.075702 187.58022 
L 207.707107 187.414678 
L 210.338512 187.249135 
L 212.969917 187.083593 
L 215.601322 186.91805 
L 218.232727 186.752508 
L 220.864132 186.586965 
L 223.495537 186.421423 
L 226.126942 186.255881 
L 228.758347 186.090338 
L 231.389752 185.924796 
L 234.021157 185.759253 
L 236.652562 185.593711 
L 239.283967 185.428168 
L 241.915372 185.262626 
L 244.546777 185.097083 
L 247.178182 184.931541 
L 249.809587 184.765998 
L 252.440992 184.600456 
L 255.072397 184.434913 
L 257.703802 184.269371 
L 260.335207 184.103828 
L 262.966612 183.938286 
L 265.598017 183.772743 
L 268.229421 183.607201 
L 270.860826 183.441659 
L 273.492231 183.276116 
L 276.123636 183.110574 
L 278.755041 182.945031 
L 281.386446 182.779489 
L 284.017851 182.613946 
L 286.649256 182.448404 
L 289.280661 182.282861 
L 291.912066 182.117319 
L 294.543471 181.951776 
L 297.174876 181.786234 
L 299.806281 181.620691 
L 302.437686 181.455149 
L 305.069091 181.289606 
L 307.700496 181.124064 
L 310.331901 180.958522 
L 312.963306 180.792979 
L 315.594711 180.627437 
L 318.226116 180.461894 
L 320.857521 180.296352 
L 323.488926 180.130809 
L 326.120331 179.965267 
L 328.751736 179.799724 
L 331.38314 179.634182 
L 334.014545 179.468639 
" clip-path="url(#p3f87e3421e)" style="fill: none; stroke: #1f77b4; stroke-width: 2.25; stroke-linecap: square"/>
   </g>
   <g id="patch_3">
    <path d="M 60.48 311.43375 
L 60.48 12.96 
" style="fill: none; stroke: #000000; stroke-width: 1.25; stroke-linejoin: miter; stroke-linecap: square"/>
   </g>
   <g id="patch_4">
    <path d="M 60.48 311.43375 
L 347.04 311.43375 
" style="fill: none; stroke: #000000; stroke-width: 1.25; stroke-linejoin: miter; stroke-linecap: square"/>
   </g>
  </g>
 </g>
 <defs>
  <clipPath id="p3f87e3421e">
   <rect x="60.48" y="12.96" width="286.56" height="298.47375"/>
  </clipPath>
 </defs>
</svg>
