<?xml version="1.0" encoding="utf-8" standalone="no"?>
<!DOCTYPE svg PUBLIC "-//W3C//DTD SVG 1.1//EN"
  "http://www.w3.org/Graphics/SVG/1.1/DTD/svg11.dtd">
<svg xmlns:xlink="http://www.w3.org/1999/xlink" width="360pt" height="360pt" viewBox="0 0 360 360" xmlns="http://www.w3.org/2000/svg" version="1.1">
 <metadata>
  <rdf:RDF xmlns:dc="http://purl.org/dc/elements/1.1/" xmlns:cc="http://creativecommons.org/ns#" xmlns:rdf="http://www.w3.org/1999/02/22-rdf-syntax-ns#">
   <cc:Work>
    <dc:type rdf:resource="http://purl.org/dc/dcmitype/StillImage"/>
    <dc:date>2022-11-22T21:46:46.038119</dc:date>
    <dc:format>image/svg+xml</dc:format>
    <dc:creator>
     <cc:Agent>
      <dc:title>Matplotlib v3.5.3, https://matplotlib.org/</dc:title>
     </cc:Agent>
    </dc:creator>
   </cc:Work>
  </rdf:RDF>
 </metadata>
 <defs>
  <style type="text/css">*{stroke-linejoin: round; stroke-linecap: butt}</style>
 </defs>
 <g id="figure_1">
  <g id="patch_1">
   <path d="M 0 360 
L 360 360 
L 360 0 
L 0 0 
z
" style="fill: #ffffff"/>
  </g>
  <g id="axes_1">
   <g id="patch_2">
    <path d="M 56.18 317.93875 
L 349.2 317.93875 
L 349.2 10.8 
L 56.18 10.8 
z
" style="fill: #ffffff"/>
   </g>
   <g id="PathCollection_1">
    <defs>
     <path id="mfc3fb84712" d="M 0 3 
C 0.795609 3 1.55874 2.683901 2.12132 2.12132 
C 2.683901 1.55874 3 0.795609 3 0 
C 3 -0.795609 2.683901 -1.55874 2.12132 -2.12132 
C 1.55874 -2.683901 0.795609 -3 0 -3 
C -0.795609 -3 -1.55874 -2.683901 -2.12132 -2.12132 
C -2.683901 -1.55874 -3 -0.795609 -3 0 
C -3 0.795609 -2.683901 1.55874 -2.12132 2.12132 
C -1.55874 2.683901 -0.795609 3 0 3 
z
" style="stroke: #1f77b4; stroke-opacity: 0.8"/>
    </defs>
    <g clip-path="url(#pe5f3d70eb3)">
     <use xlink:href="#mfc3fb84712" x="217.48899" y="142.636262" style="fill: #1f77b4; fill-opacity: 0.8; stroke: #1f77b4; stroke-opacity: 0.8"/>
     <use xlink:href="#mfc3fb84712" x="217.48899" y="57.156639" style="fill: #1f77b4; fill-opacity: 0.8; stroke: #1f77b4; stroke-opacity: 0.8"/>
     <use xlink:href="#mfc3fb84712" x="276.684949" y="65.146819" style="fill: #1f77b4; fill-opacity: 0.8; stroke: #1f77b4; stroke-opacity: 0.8"/>
     <use xlink:href="#mfc3fb84712" x="187.89101" y="303.977898" style="fill: #1f77b4; fill-opacity: 0.8; stroke: #1f77b4; stroke-opacity: 0.8"/>
     <use xlink:href="#mfc3fb84712" x="247.08697" y="122.25229" style="fill: #1f77b4; fill-opacity: 0.8; stroke: #1f77b4; stroke-opacity: 0.8"/>
     <use xlink:href="#mfc3fb84712" x="158.29303" y="36.089706" style="fill: #1f77b4; fill-opacity: 0.8; stroke: #1f77b4; stroke-opacity: 0.8"/>
     <use xlink:href="#mfc3fb84712" x="276.684949" y="136.489445" style="fill: #1f77b4; fill-opacity: 0.8; stroke: #1f77b4; stroke-opacity: 0.8"/>
     <use xlink:href="#mfc3fb84712" x="69.499091" y="93.843566" style="fill: #1f77b4; fill-opacity: 0.8; stroke: #1f77b4; stroke-opacity: 0.8"/>
     <use xlink:href="#mfc3fb84712" x="335.880909" y="164.034682" style="fill: #1f77b4; fill-opacity: 0.8; stroke: #1f77b4; stroke-opacity: 0.8"/>
     <use xlink:href="#mfc3fb84712" x="99.097071" y="77.596326" style="fill: #1f77b4; fill-opacity: 0.8; stroke: #1f77b4; stroke-opacity: 0.8"/>
     <use xlink:href="#mfc3fb84712" x="306.282929" y="106.931079" style="fill: #1f77b4; fill-opacity: 0.8; stroke: #1f77b4; stroke-opacity: 0.8"/>
     <use xlink:href="#mfc3fb84712" x="276.684949" y="97.103841" style="fill: #1f77b4; fill-opacity: 0.8; stroke: #1f77b4; stroke-opacity: 0.8"/>
     <use xlink:href="#mfc3fb84712" x="158.29303" y="75.448328" style="fill: #1f77b4; fill-opacity: 0.8; stroke: #1f77b4; stroke-opacity: 0.8"/>
     <use xlink:href="#mfc3fb84712" x="276.684949" y="53.635299" style="fill: #1f77b4; fill-opacity: 0.8; stroke: #1f77b4; stroke-opacity: 0.8"/>
     <use xlink:href="#mfc3fb84712" x="128.695051" y="69.458001" style="fill: #1f77b4; fill-opacity: 0.8; stroke: #1f77b4; stroke-opacity: 0.8"/>
     <use xlink:href="#mfc3fb84712" x="335.880909" y="108.307462" style="fill: #1f77b4; fill-opacity: 0.8; stroke: #1f77b4; stroke-opacity: 0.8"/>
     <use xlink:href="#mfc3fb84712" x="99.097071" y="135.964843" style="fill: #1f77b4; fill-opacity: 0.8; stroke: #1f77b4; stroke-opacity: 0.8"/>
     <use xlink:href="#mfc3fb84712" x="306.282929" y="141.556462" style="fill: #1f77b4; fill-opacity: 0.8; stroke: #1f77b4; stroke-opacity: 0.8"/>
     <use xlink:href="#mfc3fb84712" x="276.684949" y="70.984522" style="fill: #1f77b4; fill-opacity: 0.8; stroke: #1f77b4; stroke-opacity: 0.8"/>
     <use xlink:href="#mfc3fb84712" x="247.08697" y="102.152953" style="fill: #1f77b4; fill-opacity: 0.8; stroke: #1f77b4; stroke-opacity: 0.8"/>
     <use xlink:href="#mfc3fb84712" x="158.29303" y="87.502459" style="fill: #1f77b4; fill-opacity: 0.8; stroke: #1f77b4; stroke-opacity: 0.8"/>
     <use xlink:href="#mfc3fb84712" x="128.695051" y="128.219289" style="fill: #1f77b4; fill-opacity: 0.8; stroke: #1f77b4; stroke-opacity: 0.8"/>
     <use xlink:href="#mfc3fb84712" x="335.880909" y="59.745022" style="fill: #1f77b4; fill-opacity: 0.8; stroke: #1f77b4; stroke-opacity: 0.8"/>
     <use xlink:href="#mfc3fb84712" x="187.89101" y="57.053162" style="fill: #1f77b4; fill-opacity: 0.8; stroke: #1f77b4; stroke-opacity: 0.8"/>
     <use xlink:href="#mfc3fb84712" x="128.695051" y="90.304173" style="fill: #1f77b4; fill-opacity: 0.8; stroke: #1f77b4; stroke-opacity: 0.8"/>
     <use xlink:href="#mfc3fb84712" x="69.499091" y="130.189019" style="fill: #1f77b4; fill-opacity: 0.8; stroke: #1f77b4; stroke-opacity: 0.8"/>
     <use xlink:href="#mfc3fb84712" x="128.695051" y="82.087525" style="fill: #1f77b4; fill-opacity: 0.8; stroke: #1f77b4; stroke-opacity: 0.8"/>
     <use xlink:href="#mfc3fb84712" x="335.880909" y="64.570105" style="fill: #1f77b4; fill-opacity: 0.8; stroke: #1f77b4; stroke-opacity: 0.8"/>
     <use xlink:href="#mfc3fb84712" x="217.48899" y="132.605158" style="fill: #1f77b4; fill-opacity: 0.8; stroke: #1f77b4; stroke-opacity: 0.8"/>
     <use xlink:href="#mfc3fb84712" x="247.08697" y="24.760852" style="fill: #1f77b4; fill-opacity: 0.8; stroke: #1f77b4; stroke-opacity: 0.8"/>
     <use xlink:href="#mfc3fb84712" x="335.880909" y="120.345213" style="fill: #1f77b4; fill-opacity: 0.8; stroke: #1f77b4; stroke-opacity: 0.8"/>
     <use xlink:href="#mfc3fb84712" x="158.29303" y="167.601416" style="fill: #1f77b4; fill-opacity: 0.8; stroke: #1f77b4; stroke-opacity: 0.8"/>
     <use xlink:href="#mfc3fb84712" x="217.48899" y="44.284745" style="fill: #1f77b4; fill-opacity: 0.8; stroke: #1f77b4; stroke-opacity: 0.8"/>
     <use xlink:href="#mfc3fb84712" x="99.097071" y="39.371384" style="fill: #1f77b4; fill-opacity: 0.8; stroke: #1f77b4; stroke-opacity: 0.8"/>
     <use xlink:href="#mfc3fb84712" x="128.695051" y="147.339685" style="fill: #1f77b4; fill-opacity: 0.8; stroke: #1f77b4; stroke-opacity: 0.8"/>
     <use xlink:href="#mfc3fb84712" x="69.499091" y="105.284857" style="fill: #1f77b4; fill-opacity: 0.8; stroke: #1f77b4; stroke-opacity: 0.8"/>
     <use xlink:href="#mfc3fb84712" x="306.282929" y="91.901359" style="fill: #1f77b4; fill-opacity: 0.8; stroke: #1f77b4; stroke-opacity: 0.8"/>
     <use xlink:href="#mfc3fb84712" x="69.499091" y="122.006441" style="fill: #1f77b4; fill-opacity: 0.8; stroke: #1f77b4; stroke-opacity: 0.8"/>
     <use xlink:href="#mfc3fb84712" x="99.097071" y="290.845549" style="fill: #1f77b4; fill-opacity: 0.8; stroke: #1f77b4; stroke-opacity: 0.8"/>
     <use xlink:href="#mfc3fb84712" x="187.89101" y="212.354861" style="fill: #1f77b4; fill-opacity: 0.8; stroke: #1f77b4; stroke-opacity: 0.8"/>
     <use xlink:href="#mfc3fb84712" x="306.282929" y="113.490613" style="fill: #1f77b4; fill-opacity: 0.8; stroke: #1f77b4; stroke-opacity: 0.8"/>
     <use xlink:href="#mfc3fb84712" x="247.08697" y="101.315447" style="fill: #1f77b4; fill-opacity: 0.8; stroke: #1f77b4; stroke-opacity: 0.8"/>
     <use xlink:href="#mfc3fb84712" x="99.097071" y="41.687181" style="fill: #1f77b4; fill-opacity: 0.8; stroke: #1f77b4; stroke-opacity: 0.8"/>
     <use xlink:href="#mfc3fb84712" x="158.29303" y="71.652277" style="fill: #1f77b4; fill-opacity: 0.8; stroke: #1f77b4; stroke-opacity: 0.8"/>
     <use xlink:href="#mfc3fb84712" x="99.097071" y="76.337192" style="fill: #1f77b4; fill-opacity: 0.8; stroke: #1f77b4; stroke-opacity: 0.8"/>
     <use xlink:href="#mfc3fb84712" x="217.48899" y="105.124022" style="fill: #1f77b4; fill-opacity: 0.8; stroke: #1f77b4; stroke-opacity: 0.8"/>
     <use xlink:href="#mfc3fb84712" x="247.08697" y="70.09963" style="fill: #1f77b4; fill-opacity: 0.8; stroke: #1f77b4; stroke-opacity: 0.8"/>
    </g>
   </g>
   <g id="PolyCollection_1">
    <path d="M 69.499091 84.09279 
L 69.499091 143.964799 
L 72.189816 143.467359 
L 74.880542 142.969337 
L 77.571267 142.471315 
L 80.261993 141.972799 
L 82.952718 141.47095 
L 85.643444 140.964413 
L 88.334169 140.312863 
L 91.024894 139.698502 
L 93.71562 139.228366 
L 96.406345 138.758229 
L 99.097071 138.288093 
L 101.787796 137.817957 
L 104.478522 137.347821 
L 107.169247 136.877684 
L 109.859972 136.407548 
L 112.550698 135.937412 
L 115.241423 135.467276 
L 117.932149 134.994386 
L 120.622874 134.497189 
L 123.3136 133.999192 
L 126.004325 133.413817 
L 128.695051 132.848793 
L 131.385776 132.477345 
L 134.076501 132.009397 
L 136.767227 131.577025 
L 139.457952 131.014292 
L 142.148678 130.401617 
L 144.839403 129.973495 
L 147.530129 129.518529 
L 150.220854 129.15987 
L 152.911579 128.602986 
L 155.602305 128.028668 
L 158.29303 127.530646 
L 160.983756 127.185109 
L 163.674481 126.671053 
L 166.365207 126.219152 
L 169.055932 125.717667 
L 171.746657 125.212533 
L 174.437383 124.610474 
L 177.128108 124.211931 
L 179.818834 123.748876 
L 182.509559 123.423403 
L 185.200285 123.004619 
L 187.89101 122.493997 
L 190.581736 122.231773 
L 193.272461 121.85407 
L 195.963186 121.523554 
L 198.653912 121.320067 
L 201.344637 121.153791 
L 204.035363 120.858947 
L 206.726088 120.535363 
L 209.416814 120.214399 
L 212.107539 119.893767 
L 214.798264 119.613938 
L 217.48899 119.340421 
L 220.179715 119.185766 
L 222.870441 119.015348 
L 225.561166 118.627897 
L 228.251892 118.478275 
L 230.942617 118.474052 
L 233.633343 118.302871 
L 236.324068 117.967742 
L 239.014793 117.672572 
L 241.705519 117.862337 
L 244.396244 118.056799 
L 247.08697 117.90778 
L 249.777695 117.759547 
L 252.468421 117.611335 
L 255.159146 117.371301 
L 257.849871 117.295387 
L 260.540597 117.261603 
L 263.231322 117.178523 
L 265.922048 117.129617 
L 268.612773 116.932098 
L 271.303499 116.706656 
L 273.994224 116.268249 
L 276.684949 116.187926 
L 279.375675 116.192085 
L 282.0664 116.150463 
L 284.757126 116.043543 
L 287.447851 115.876027 
L 290.138577 115.876192 
L 292.829302 116.094367 
L 295.520028 116.377978 
L 298.210753 116.618317 
L 300.901478 116.516837 
L 303.592204 116.401894 
L 306.282929 116.396844 
L 308.973655 116.511647 
L 311.66438 116.729871 
L 314.355106 116.764719 
L 317.045831 116.860568 
L 319.736556 116.973704 
L 322.427282 117.08684 
L 325.118007 117.199976 
L 327.808733 117.300406 
L 330.499458 117.432991 
L 333.190184 117.553123 
L 335.880909 117.673255 
L 335.880909 78.389101 
L 335.880909 78.389101 
L 333.190184 78.799635 
L 330.499458 79.216753 
L 327.808733 79.63387 
L 325.118007 80.050987 
L 322.427282 80.418145 
L 319.736556 80.639666 
L 317.045831 80.861187 
L 314.355106 81.235897 
L 311.66438 81.800749 
L 308.973655 82.145414 
L 306.282929 82.333291 
L 303.592204 82.62915 
L 300.901478 83.120566 
L 298.210753 83.72274 
L 295.520028 83.910217 
L 292.829302 84.33133 
L 290.138577 84.578861 
L 287.447851 84.773055 
L 284.757126 85.362188 
L 282.0664 85.680503 
L 279.375675 86.00499 
L 276.684949 86.32296 
L 273.994224 86.584394 
L 271.303499 86.704758 
L 268.612773 86.951465 
L 265.922048 87.302365 
L 263.231322 87.633613 
L 260.540597 87.844588 
L 257.849871 88.057707 
L 255.159146 88.271692 
L 252.468421 88.600772 
L 249.777695 88.880945 
L 247.08697 89.392985 
L 244.396244 89.566981 
L 241.705519 89.607664 
L 239.014793 89.726497 
L 236.324068 89.858254 
L 233.633343 89.968401 
L 230.942617 90.1751 
L 228.251892 90.173976 
L 225.561166 90.063986 
L 222.870441 89.972134 
L 220.179715 90.182127 
L 217.48899 90.290627 
L 214.798264 90.205328 
L 212.107539 90.304997 
L 209.416814 90.146849 
L 206.726088 90.348399 
L 204.035363 90.305949 
L 201.344637 90.255442 
L 198.653912 90.413615 
L 195.963186 90.457235 
L 193.272461 90.341829 
L 190.581736 90.388859 
L 187.89101 90.420267 
L 185.200285 90.280802 
L 182.509559 90.135864 
L 179.818834 89.993459 
L 177.128108 89.863174 
L 174.437383 89.755247 
L 171.746657 89.628123 
L 169.055932 89.702396 
L 166.365207 89.674959 
L 163.674481 89.631337 
L 160.983756 89.475169 
L 158.29303 89.548829 
L 155.602305 89.576379 
L 152.911579 89.702357 
L 150.220854 89.828335 
L 147.530129 89.935396 
L 144.839403 89.755023 
L 142.148678 89.512387 
L 139.457952 89.262069 
L 136.767227 89.213903 
L 134.076501 89.027448 
L 131.385776 88.836353 
L 128.695051 88.655033 
L 126.004325 88.476706 
L 123.3136 88.354317 
L 120.622874 88.109279 
L 117.932149 87.926213 
L 115.241423 87.885733 
L 112.550698 87.559545 
L 109.859972 87.371893 
L 107.169247 87.184241 
L 104.478522 86.996589 
L 101.787796 86.814691 
L 99.097071 86.613923 
L 96.406345 86.303388 
L 93.71562 86.041442 
L 91.024894 85.736514 
L 88.334169 85.442152 
L 85.643444 85.057292 
L 82.952718 84.91086 
L 80.261993 84.85712 
L 77.571267 84.667987 
L 74.880542 84.422891 
L 72.189816 84.248428 
L 69.499091 84.09279 
z
" clip-path="url(#pe5f3d70eb3)" style="fill: #1f77b4; fill-opacity: 0.15"/>
   </g>
   <g id="matplotlib.axis_1">
    <g id="xtick_1">
     <g id="line2d_1">
      <defs>
       <path id="ma6ecc6a314" d="M 0 0 
L 0 3.5 
" style="stroke: #000000; stroke-width: 0.8"/>
      </defs>
      <g>
       <use xlink:href="#ma6ecc6a314" x="85.204141" y="317.93875" style="stroke: #000000; stroke-width: 0.8"/>
      </g>
     </g>
     <g id="text_1">
      <text style="font: 10px 'sans-serif'; text-anchor: middle" x="85.204141" y="332.537188" transform="rotate(-0, 85.204141, 332.537188)">−4</text>
     </g>
    </g>
    <g id="xtick_2">
     <g id="line2d_2">
      <g>
       <use xlink:href="#ma6ecc6a314" x="144.400101" y="317.93875" style="stroke: #000000; stroke-width: 0.8"/>
      </g>
     </g>
     <g id="text_2">
      <text style="font: 10px 'sans-serif'; text-anchor: middle" x="144.400101" y="332.537188" transform="rotate(-0, 144.400101, 332.537188)">−2</text>
     </g>
    </g>
    <g id="xtick_3">
     <g id="line2d_3">
      <g>
       <use xlink:href="#ma6ecc6a314" x="203.596061" y="317.93875" style="stroke: #000000; stroke-width: 0.8"/>
      </g>
     </g>
     <g id="text_3">
      <text style="font: 10px 'sans-serif'; text-anchor: middle" x="203.596061" y="332.537188" transform="rotate(-0, 203.596061, 332.537188)">0</text>
     </g>
    </g>
    <g id="xtick_4">
     <g id="line2d_4">
      <g>
       <use xlink:href="#ma6ecc6a314" x="262.79202" y="317.93875" style="stroke: #000000; stroke-width: 0.8"/>
      </g>
     </g>
     <g id="text_4">
      <text style="font: 10px 'sans-serif'; text-anchor: middle" x="262.79202" y="332.537188" transform="rotate(-0, 262.79202, 332.537188)">2</text>
     </g>
    </g>
    <g id="xtick_5">
     <g id="line2d_5">
      <g>
       <use xlink:href="#ma6ecc6a314" x="321.98798" y="317.93875" style="stroke: #000000; stroke-width: 0.8"/>
      </g>
     </g>
     <g id="text_5">
      <text style="font: 10px 'sans-serif'; text-anchor: middle" x="321.98798" y="332.537188" transform="rotate(-0, 321.98798, 332.537188)">4</text>
     </g>
    </g>
    <g id="text_6">
     <text style="font: 10px 'sans-serif'; text-anchor: middle" x="202.69" y="346.215312" transform="rotate(-0, 202.69, 346.215312)">Composite_Reward</text>
    </g>
   </g>
   <g id="matplotlib.axis_2">
    <g id="ytick_1">
     <g id="line2d_6">
      <defs>
       <path id="mdb045673fc" d="M 0 0 
L -3.5 0 
" style="stroke: #000000; stroke-width: 0.8"/>
      </defs>
      <g>
       <use xlink:href="#mdb045673fc" x="56.18" y="285.300576" style="stroke: #000000; stroke-width: 0.8"/>
      </g>
     </g>
     <g id="text_7">
      <text style="font: 10px 'sans-serif'; text-anchor: end" x="49.18" y="289.099795" transform="rotate(-0, 49.18, 289.099795)">−0.8</text>
     </g>
    </g>
    <g id="ytick_2">
     <g id="line2d_7">
      <g>
       <use xlink:href="#mdb045673fc" x="56.18" y="238.121836" style="stroke: #000000; stroke-width: 0.8"/>
      </g>
     </g>
     <g id="text_8">
      <text style="font: 10px 'sans-serif'; text-anchor: end" x="49.18" y="241.921055" transform="rotate(-0, 49.18, 241.921055)">−0.6</text>
     </g>
    </g>
    <g id="ytick_3">
     <g id="line2d_8">
      <g>
       <use xlink:href="#mdb045673fc" x="56.18" y="190.943096" style="stroke: #000000; stroke-width: 0.8"/>
      </g>
     </g>
     <g id="text_9">
      <text style="font: 10px 'sans-serif'; text-anchor: end" x="49.18" y="194.742315" transform="rotate(-0, 49.18, 194.742315)">−0.4</text>
     </g>
    </g>
    <g id="ytick_4">
     <g id="line2d_9">
      <g>
       <use xlink:href="#mdb045673fc" x="56.18" y="143.764356" style="stroke: #000000; stroke-width: 0.8"/>
      </g>
     </g>
     <g id="text_10">
      <text style="font: 10px 'sans-serif'; text-anchor: end" x="49.18" y="147.563574" transform="rotate(-0, 49.18, 147.563574)">−0.2</text>
     </g>
    </g>
    <g id="ytick_5">
     <g id="line2d_10">
      <g>
       <use xlink:href="#mdb045673fc" x="56.18" y="96.585616" style="stroke: #000000; stroke-width: 0.8"/>
      </g>
     </g>
     <g id="text_11">
      <text style="font: 10px 'sans-serif'; text-anchor: end" x="49.18" y="100.384834" transform="rotate(-0, 49.18, 100.384834)">0.0</text>
     </g>
    </g>
    <g id="ytick_6">
     <g id="line2d_11">
      <g>
       <use xlink:href="#mdb045673fc" x="56.18" y="49.406875" style="stroke: #000000; stroke-width: 0.8"/>
      </g>
     </g>
     <g id="text_12">
      <text style="font: 10px 'sans-serif'; text-anchor: end" x="49.18" y="53.206094" transform="rotate(-0, 49.18, 53.206094)">0.2</text>
     </g>
    </g>
    <g id="text_13">
     <text style="font: 10px 'sans-serif'; text-anchor: middle" x="18.8175" y="164.369375" transform="rotate(-90, 18.8175, 164.369375)">Conn LG-SG</text>
    </g>
   </g>
   <g id="line2d_12">
    <path d="M 69.499091 111.720991 
L 72.189816 111.585908 
L 74.880542 111.450825 
L 77.571267 111.315742 
L 80.261993 111.180659 
L 82.952718 111.045576 
L 85.643444 110.910494 
L 88.334169 110.775411 
L 91.024894 110.640328 
L 93.71562 110.505245 
L 96.406345 110.370162 
L 99.097071 110.235079 
L 101.787796 110.099996 
L 104.478522 109.964913 
L 107.169247 109.82983 
L 109.859972 109.694747 
L 112.550698 109.559664 
L 115.241423 109.424582 
L 117.932149 109.289499 
L 120.622874 109.154416 
L 123.3136 109.019333 
L 126.004325 108.88425 
L 128.695051 108.749167 
L 131.385776 108.614084 
L 134.076501 108.479001 
L 136.767227 108.343918 
L 139.457952 108.208835 
L 142.148678 108.073752 
L 144.839403 107.93867 
L 147.530129 107.803587 
L 150.220854 107.668504 
L 152.911579 107.533421 
L 155.602305 107.398338 
L 158.29303 107.263255 
L 160.983756 107.128172 
L 163.674481 106.993089 
L 166.365207 106.858006 
L 169.055932 106.722923 
L 171.746657 106.587841 
L 174.437383 106.452758 
L 177.128108 106.317675 
L 179.818834 106.182592 
L 182.509559 106.047509 
L 185.200285 105.912426 
L 187.89101 105.777343 
L 190.581736 105.64226 
L 193.272461 105.507177 
L 195.963186 105.372094 
L 198.653912 105.237011 
L 201.344637 105.101929 
L 204.035363 104.966846 
L 206.726088 104.831763 
L 209.416814 104.69668 
L 212.107539 104.561597 
L 214.798264 104.426514 
L 217.48899 104.291431 
L 220.179715 104.156348 
L 222.870441 104.021265 
L 225.561166 103.886182 
L 228.251892 103.751099 
L 230.942617 103.616017 
L 233.633343 103.480934 
L 236.324068 103.345851 
L 239.014793 103.210768 
L 241.705519 103.075685 
L 244.396244 102.940602 
L 247.08697 102.805519 
L 249.777695 102.670436 
L 252.468421 102.535353 
L 255.159146 102.40027 
L 257.849871 102.265187 
L 260.540597 102.130105 
L 263.231322 101.995022 
L 265.922048 101.859939 
L 268.612773 101.724856 
L 271.303499 101.589773 
L 273.994224 101.45469 
L 276.684949 101.319607 
L 279.375675 101.184524 
L 282.0664 101.049441 
L 284.757126 100.914358 
L 287.447851 100.779276 
L 290.138577 100.644193 
L 292.829302 100.50911 
L 295.520028 100.374027 
L 298.210753 100.238944 
L 300.901478 100.103861 
L 303.592204 99.968778 
L 306.282929 99.833695 
L 308.973655 99.698612 
L 311.66438 99.563529 
L 314.355106 99.428446 
L 317.045831 99.293364 
L 319.736556 99.158281 
L 322.427282 99.023198 
L 325.118007 98.888115 
L 327.808733 98.753032 
L 330.499458 98.617949 
L 333.190184 98.482866 
L 335.880909 98.347783 
" clip-path="url(#pe5f3d70eb3)" style="fill: none; stroke: #1f77b4; stroke-width: 2.25; stroke-linecap: square"/>
   </g>
   <g id="patch_3">
    <path d="M 56.18 317.93875 
L 56.18 10.8 
" style="fill: none; stroke: #000000; stroke-width: 0.8; stroke-linejoin: miter; stroke-linecap: square"/>
   </g>
   <g id="patch_4">
    <path d="M 56.18 317.93875 
L 349.2 317.93875 
" style="fill: none; stroke: #000000; stroke-width: 0.8; stroke-linejoin: miter; stroke-linecap: square"/>
   </g>
  </g>
 </g>
 <defs>
  <clipPath id="pe5f3d70eb3">
   <rect x="56.18" y="10.8" width="293.02" height="307.13875"/>
  </clipPath>
 </defs>
</svg>
