<?xml version="1.0" encoding="utf-8" standalone="no"?>
<!DOCTYPE svg PUBLIC "-//W3C//DTD SVG 1.1//EN"
  "http://www.w3.org/Graphics/SVG/1.1/DTD/svg11.dtd">
<svg xmlns:xlink="http://www.w3.org/1999/xlink" width="360pt" height="360pt" viewBox="0 0 360 360" xmlns="http://www.w3.org/2000/svg" version="1.1">
 <metadata>
  <rdf:RDF xmlns:dc="http://purl.org/dc/elements/1.1/" xmlns:cc="http://creativecommons.org/ns#" xmlns:rdf="http://www.w3.org/1999/02/22-rdf-syntax-ns#">
   <cc:Work>
    <dc:type rdf:resource="http://purl.org/dc/dcmitype/StillImage"/>
    <dc:date>2022-11-22T21:46:42.931579</dc:date>
    <dc:format>image/svg+xml</dc:format>
    <dc:creator>
     <cc:Agent>
      <dc:title>Matplotlib v3.5.3, https://matplotlib.org/</dc:title>
     </cc:Agent>
    </dc:creator>
   </cc:Work>
  </rdf:RDF>
 </metadata>
 <defs>
  <style type="text/css">*{stroke-linejoin: round; stroke-linecap: butt}</style>
 </defs>
 <g id="figure_1">
  <g id="patch_1">
   <path d="M 0 360 
L 360 360 
L 360 0 
L 0 0 
z
" style="fill: #ffffff"/>
  </g>
  <g id="axes_1">
   <g id="patch_2">
    <path d="M 56.18 317.93875 
L 349.2 317.93875 
L 349.2 10.8 
L 56.18 10.8 
z
" style="fill: #ffffff"/>
   </g>
   <g id="PathCollection_1">
    <defs>
     <path id="m878ee8e876" d="M 0 3 
C 0.795609 3 1.55874 2.683901 2.12132 2.12132 
C 2.683901 1.55874 3 0.795609 3 0 
C 3 -0.795609 2.683901 -1.55874 2.12132 -2.12132 
C 1.55874 -2.683901 0.795609 -3 0 -3 
C -0.795609 -3 -1.55874 -2.683901 -2.12132 -2.12132 
C -2.683901 -1.55874 -3 -0.795609 -3 0 
C -3 0.795609 -2.683901 1.55874 -2.12132 2.12132 
C -1.55874 2.683901 -0.795609 3 0 3 
z
" style="stroke: #1f77b4; stroke-opacity: 0.8"/>
    </defs>
    <g clip-path="url(#ped0d05898f)">
     <use xlink:href="#m878ee8e876" x="217.48899" y="63.180496" style="fill: #1f77b4; fill-opacity: 0.8; stroke: #1f77b4; stroke-opacity: 0.8"/>
     <use xlink:href="#m878ee8e876" x="217.48899" y="109.513161" style="fill: #1f77b4; fill-opacity: 0.8; stroke: #1f77b4; stroke-opacity: 0.8"/>
     <use xlink:href="#m878ee8e876" x="276.684949" y="219.871858" style="fill: #1f77b4; fill-opacity: 0.8; stroke: #1f77b4; stroke-opacity: 0.8"/>
     <use xlink:href="#m878ee8e876" x="187.89101" y="209.230597" style="fill: #1f77b4; fill-opacity: 0.8; stroke: #1f77b4; stroke-opacity: 0.8"/>
     <use xlink:href="#m878ee8e876" x="247.08697" y="24.760852" style="fill: #1f77b4; fill-opacity: 0.8; stroke: #1f77b4; stroke-opacity: 0.8"/>
     <use xlink:href="#m878ee8e876" x="158.29303" y="88.568588" style="fill: #1f77b4; fill-opacity: 0.8; stroke: #1f77b4; stroke-opacity: 0.8"/>
     <use xlink:href="#m878ee8e876" x="276.684949" y="91.310217" style="fill: #1f77b4; fill-opacity: 0.8; stroke: #1f77b4; stroke-opacity: 0.8"/>
     <use xlink:href="#m878ee8e876" x="69.499091" y="161.491576" style="fill: #1f77b4; fill-opacity: 0.8; stroke: #1f77b4; stroke-opacity: 0.8"/>
     <use xlink:href="#m878ee8e876" x="335.880909" y="121.563266" style="fill: #1f77b4; fill-opacity: 0.8; stroke: #1f77b4; stroke-opacity: 0.8"/>
     <use xlink:href="#m878ee8e876" x="99.097071" y="146.841256" style="fill: #1f77b4; fill-opacity: 0.8; stroke: #1f77b4; stroke-opacity: 0.8"/>
     <use xlink:href="#m878ee8e876" x="306.282929" y="136.33793" style="fill: #1f77b4; fill-opacity: 0.8; stroke: #1f77b4; stroke-opacity: 0.8"/>
     <use xlink:href="#m878ee8e876" x="276.684949" y="104.783725" style="fill: #1f77b4; fill-opacity: 0.8; stroke: #1f77b4; stroke-opacity: 0.8"/>
     <use xlink:href="#m878ee8e876" x="158.29303" y="66.159129" style="fill: #1f77b4; fill-opacity: 0.8; stroke: #1f77b4; stroke-opacity: 0.8"/>
     <use xlink:href="#m878ee8e876" x="276.684949" y="72.644971" style="fill: #1f77b4; fill-opacity: 0.8; stroke: #1f77b4; stroke-opacity: 0.8"/>
     <use xlink:href="#m878ee8e876" x="128.695051" y="173.2822" style="fill: #1f77b4; fill-opacity: 0.8; stroke: #1f77b4; stroke-opacity: 0.8"/>
     <use xlink:href="#m878ee8e876" x="335.880909" y="186.348766" style="fill: #1f77b4; fill-opacity: 0.8; stroke: #1f77b4; stroke-opacity: 0.8"/>
     <use xlink:href="#m878ee8e876" x="99.097071" y="62.315967" style="fill: #1f77b4; fill-opacity: 0.8; stroke: #1f77b4; stroke-opacity: 0.8"/>
     <use xlink:href="#m878ee8e876" x="306.282929" y="122.885936" style="fill: #1f77b4; fill-opacity: 0.8; stroke: #1f77b4; stroke-opacity: 0.8"/>
     <use xlink:href="#m878ee8e876" x="276.684949" y="182.384359" style="fill: #1f77b4; fill-opacity: 0.8; stroke: #1f77b4; stroke-opacity: 0.8"/>
     <use xlink:href="#m878ee8e876" x="247.08697" y="120.883396" style="fill: #1f77b4; fill-opacity: 0.8; stroke: #1f77b4; stroke-opacity: 0.8"/>
     <use xlink:href="#m878ee8e876" x="158.29303" y="122.015769" style="fill: #1f77b4; fill-opacity: 0.8; stroke: #1f77b4; stroke-opacity: 0.8"/>
     <use xlink:href="#m878ee8e876" x="128.695051" y="100.57895" style="fill: #1f77b4; fill-opacity: 0.8; stroke: #1f77b4; stroke-opacity: 0.8"/>
     <use xlink:href="#m878ee8e876" x="335.880909" y="84.826626" style="fill: #1f77b4; fill-opacity: 0.8; stroke: #1f77b4; stroke-opacity: 0.8"/>
     <use xlink:href="#m878ee8e876" x="187.89101" y="40.04313" style="fill: #1f77b4; fill-opacity: 0.8; stroke: #1f77b4; stroke-opacity: 0.8"/>
     <use xlink:href="#m878ee8e876" x="128.695051" y="132.207191" style="fill: #1f77b4; fill-opacity: 0.8; stroke: #1f77b4; stroke-opacity: 0.8"/>
     <use xlink:href="#m878ee8e876" x="69.499091" y="95.275801" style="fill: #1f77b4; fill-opacity: 0.8; stroke: #1f77b4; stroke-opacity: 0.8"/>
     <use xlink:href="#m878ee8e876" x="128.695051" y="176.826557" style="fill: #1f77b4; fill-opacity: 0.8; stroke: #1f77b4; stroke-opacity: 0.8"/>
     <use xlink:href="#m878ee8e876" x="335.880909" y="123.03482" style="fill: #1f77b4; fill-opacity: 0.8; stroke: #1f77b4; stroke-opacity: 0.8"/>
     <use xlink:href="#m878ee8e876" x="217.48899" y="52.003551" style="fill: #1f77b4; fill-opacity: 0.8; stroke: #1f77b4; stroke-opacity: 0.8"/>
     <use xlink:href="#m878ee8e876" x="247.08697" y="101.213993" style="fill: #1f77b4; fill-opacity: 0.8; stroke: #1f77b4; stroke-opacity: 0.8"/>
     <use xlink:href="#m878ee8e876" x="335.880909" y="155.731118" style="fill: #1f77b4; fill-opacity: 0.8; stroke: #1f77b4; stroke-opacity: 0.8"/>
     <use xlink:href="#m878ee8e876" x="158.29303" y="47.748966" style="fill: #1f77b4; fill-opacity: 0.8; stroke: #1f77b4; stroke-opacity: 0.8"/>
     <use xlink:href="#m878ee8e876" x="217.48899" y="109.723519" style="fill: #1f77b4; fill-opacity: 0.8; stroke: #1f77b4; stroke-opacity: 0.8"/>
     <use xlink:href="#m878ee8e876" x="99.097071" y="116.678535" style="fill: #1f77b4; fill-opacity: 0.8; stroke: #1f77b4; stroke-opacity: 0.8"/>
     <use xlink:href="#m878ee8e876" x="128.695051" y="177.830787" style="fill: #1f77b4; fill-opacity: 0.8; stroke: #1f77b4; stroke-opacity: 0.8"/>
     <use xlink:href="#m878ee8e876" x="69.499091" y="126.099428" style="fill: #1f77b4; fill-opacity: 0.8; stroke: #1f77b4; stroke-opacity: 0.8"/>
     <use xlink:href="#m878ee8e876" x="306.282929" y="97.30905" style="fill: #1f77b4; fill-opacity: 0.8; stroke: #1f77b4; stroke-opacity: 0.8"/>
     <use xlink:href="#m878ee8e876" x="69.499091" y="156.446939" style="fill: #1f77b4; fill-opacity: 0.8; stroke: #1f77b4; stroke-opacity: 0.8"/>
     <use xlink:href="#m878ee8e876" x="99.097071" y="156.688529" style="fill: #1f77b4; fill-opacity: 0.8; stroke: #1f77b4; stroke-opacity: 0.8"/>
     <use xlink:href="#m878ee8e876" x="187.89101" y="89.150212" style="fill: #1f77b4; fill-opacity: 0.8; stroke: #1f77b4; stroke-opacity: 0.8"/>
     <use xlink:href="#m878ee8e876" x="306.282929" y="129.773417" style="fill: #1f77b4; fill-opacity: 0.8; stroke: #1f77b4; stroke-opacity: 0.8"/>
     <use xlink:href="#m878ee8e876" x="247.08697" y="159.794921" style="fill: #1f77b4; fill-opacity: 0.8; stroke: #1f77b4; stroke-opacity: 0.8"/>
     <use xlink:href="#m878ee8e876" x="99.097071" y="303.977898" style="fill: #1f77b4; fill-opacity: 0.8; stroke: #1f77b4; stroke-opacity: 0.8"/>
     <use xlink:href="#m878ee8e876" x="158.29303" y="211.389235" style="fill: #1f77b4; fill-opacity: 0.8; stroke: #1f77b4; stroke-opacity: 0.8"/>
     <use xlink:href="#m878ee8e876" x="99.097071" y="166.456123" style="fill: #1f77b4; fill-opacity: 0.8; stroke: #1f77b4; stroke-opacity: 0.8"/>
     <use xlink:href="#m878ee8e876" x="217.48899" y="107.0651" style="fill: #1f77b4; fill-opacity: 0.8; stroke: #1f77b4; stroke-opacity: 0.8"/>
     <use xlink:href="#m878ee8e876" x="247.08697" y="69.786149" style="fill: #1f77b4; fill-opacity: 0.8; stroke: #1f77b4; stroke-opacity: 0.8"/>
    </g>
   </g>
   <g id="PolyCollection_1">
    <path d="M 69.499091 110.47936 
L 69.499091 168.738571 
L 72.189816 168.121971 
L 74.880542 167.505371 
L 77.571267 166.886439 
L 80.261993 166.263524 
L 82.952718 165.640608 
L 85.643444 165.017692 
L 88.334169 164.394777 
L 91.024894 163.687653 
L 93.71562 162.899377 
L 96.406345 162.111101 
L 99.097071 161.322825 
L 101.787796 160.637756 
L 104.478522 160.262151 
L 107.169247 159.712178 
L 109.859972 158.951193 
L 112.550698 158.182111 
L 115.241423 157.41211 
L 117.932149 156.56677 
L 120.622874 155.616662 
L 123.3136 154.961194 
L 126.004325 154.31981 
L 128.695051 153.657767 
L 131.385776 153.00838 
L 134.076501 152.358994 
L 136.767227 151.709607 
L 139.457952 151.06022 
L 142.148678 150.536768 
L 144.839403 150.116408 
L 147.530129 149.693719 
L 150.220854 149.032357 
L 152.911579 148.281337 
L 155.602305 147.804411 
L 158.29303 147.393824 
L 160.983756 146.983236 
L 163.674481 146.500557 
L 166.365207 145.910225 
L 169.055932 145.262969 
L 171.746657 144.82518 
L 174.437383 144.010355 
L 177.128108 143.639011 
L 179.818834 143.158954 
L 182.509559 142.74463 
L 185.200285 142.132923 
L 187.89101 141.832065 
L 190.581736 141.658059 
L 193.272461 141.435324 
L 195.963186 141.267929 
L 198.653912 140.993619 
L 201.344637 140.403806 
L 204.035363 140.060013 
L 206.726088 139.721683 
L 209.416814 139.376616 
L 212.107539 139.030778 
L 214.798264 138.845818 
L 217.48899 138.445896 
L 220.179715 138.117718 
L 222.870441 137.710044 
L 225.561166 137.598097 
L 228.251892 137.215744 
L 230.942617 136.91107 
L 233.633343 136.475711 
L 236.324068 136.08604 
L 239.014793 135.685689 
L 241.705519 135.652494 
L 244.396244 135.566642 
L 247.08697 135.075313 
L 249.777695 135.015417 
L 252.468421 135.103926 
L 255.159146 135.107831 
L 257.849871 135.118301 
L 260.540597 134.855199 
L 263.231322 134.889054 
L 265.922048 134.919942 
L 268.612773 135.0706 
L 271.303499 135.084169 
L 273.994224 135.075837 
L 276.684949 135.038998 
L 279.375675 134.945375 
L 282.0664 134.818487 
L 284.757126 134.954914 
L 287.447851 134.998043 
L 290.138577 135.032425 
L 292.829302 135.100204 
L 295.520028 135.039176 
L 298.210753 135.065303 
L 300.901478 135.048558 
L 303.592204 135.021464 
L 306.282929 135.038288 
L 308.973655 135.064502 
L 311.66438 134.995362 
L 314.355106 134.973899 
L 317.045831 134.952436 
L 319.736556 135.055581 
L 322.427282 135.189754 
L 325.118007 135.242779 
L 327.808733 135.244234 
L 330.499458 135.275771 
L 333.190184 135.293608 
L 335.880909 135.310598 
L 335.880909 85.185106 
L 335.880909 85.185106 
L 333.190184 85.536343 
L 330.499458 86.112626 
L 327.808733 86.86115 
L 325.118007 87.660929 
L 322.427282 88.282767 
L 319.736556 88.733701 
L 317.045831 89.184635 
L 314.355106 89.666699 
L 311.66438 90.400522 
L 308.973655 91.150559 
L 306.282929 91.934232 
L 303.592204 92.596776 
L 300.901478 93.324961 
L 298.210753 93.727891 
L 295.520028 94.186743 
L 292.829302 94.746351 
L 290.138577 95.349264 
L 287.447851 96.023226 
L 284.757126 96.704196 
L 282.0664 97.386116 
L 279.375675 97.978294 
L 276.684949 98.501703 
L 273.994224 99.17191 
L 271.303499 99.818754 
L 268.612773 100.263538 
L 265.922048 100.937691 
L 263.231322 101.641544 
L 260.540597 102.208374 
L 257.849871 102.604299 
L 255.159146 103.16253 
L 252.468421 103.455016 
L 249.777695 104.048245 
L 247.08697 104.713874 
L 244.396244 105.057074 
L 241.705519 105.589511 
L 239.014793 105.884562 
L 236.324068 106.292409 
L 233.633343 106.791692 
L 230.942617 107.350177 
L 228.251892 107.711609 
L 225.561166 107.961191 
L 222.870441 108.299163 
L 220.179715 108.578841 
L 217.48899 108.694301 
L 214.798264 109.123595 
L 212.107539 109.285166 
L 209.416814 109.608912 
L 206.726088 109.854867 
L 204.035363 110.114816 
L 201.344637 110.445975 
L 198.653912 110.723779 
L 195.963186 110.650438 
L 193.272461 110.980421 
L 190.581736 111.326688 
L 187.89101 111.464556 
L 185.200285 111.488581 
L 182.509559 111.751573 
L 179.818834 111.843795 
L 177.128108 111.753213 
L 174.437383 111.977519 
L 171.746657 112.272293 
L 169.055932 112.375546 
L 166.365207 112.433499 
L 163.674481 112.475589 
L 160.983756 112.384435 
L 158.29303 112.127406 
L 155.602305 112.1053 
L 152.911579 112.107111 
L 150.220854 112.25448 
L 147.530129 112.143869 
L 144.839403 112.17231 
L 142.148678 112.226197 
L 139.457952 112.193724 
L 136.767227 112.266248 
L 134.076501 112.249856 
L 131.385776 112.061232 
L 128.695051 112.011961 
L 126.004325 112.106457 
L 123.3136 112.100015 
L 120.622874 111.9621 
L 117.932149 111.875225 
L 115.241423 111.795194 
L 112.550698 111.74897 
L 109.859972 111.702338 
L 107.169247 111.655706 
L 104.478522 111.612593 
L 101.787796 111.570865 
L 99.097071 111.523987 
L 96.406345 111.474677 
L 93.71562 111.425367 
L 91.024894 111.28282 
L 88.334169 111.126554 
L 85.643444 110.976016 
L 82.952718 110.885158 
L 80.261993 110.843477 
L 77.571267 110.761064 
L 74.880542 110.80022 
L 72.189816 110.647974 
L 69.499091 110.47936 
z
" clip-path="url(#ped0d05898f)" style="fill: #1f77b4; fill-opacity: 0.15"/>
   </g>
   <g id="matplotlib.axis_1">
    <g id="xtick_1">
     <g id="line2d_1">
      <defs>
       <path id="mfa7f19c214" d="M 0 0 
L 0 3.5 
" style="stroke: #000000; stroke-width: 0.8"/>
      </defs>
      <g>
       <use xlink:href="#mfa7f19c214" x="85.204141" y="317.93875" style="stroke: #000000; stroke-width: 0.8"/>
      </g>
     </g>
     <g id="text_1">
      <text style="font: 10px 'sans-serif'; text-anchor: middle" x="85.204141" y="332.537188" transform="rotate(-0, 85.204141, 332.537188)">−4</text>
     </g>
    </g>
    <g id="xtick_2">
     <g id="line2d_2">
      <g>
       <use xlink:href="#mfa7f19c214" x="144.400101" y="317.93875" style="stroke: #000000; stroke-width: 0.8"/>
      </g>
     </g>
     <g id="text_2">
      <text style="font: 10px 'sans-serif'; text-anchor: middle" x="144.400101" y="332.537188" transform="rotate(-0, 144.400101, 332.537188)">−2</text>
     </g>
    </g>
    <g id="xtick_3">
     <g id="line2d_3">
      <g>
       <use xlink:href="#mfa7f19c214" x="203.596061" y="317.93875" style="stroke: #000000; stroke-width: 0.8"/>
      </g>
     </g>
     <g id="text_3">
      <text style="font: 10px 'sans-serif'; text-anchor: middle" x="203.596061" y="332.537188" transform="rotate(-0, 203.596061, 332.537188)">0</text>
     </g>
    </g>
    <g id="xtick_4">
     <g id="line2d_4">
      <g>
       <use xlink:href="#mfa7f19c214" x="262.79202" y="317.93875" style="stroke: #000000; stroke-width: 0.8"/>
      </g>
     </g>
     <g id="text_4">
      <text style="font: 10px 'sans-serif'; text-anchor: middle" x="262.79202" y="332.537188" transform="rotate(-0, 262.79202, 332.537188)">2</text>
     </g>
    </g>
    <g id="xtick_5">
     <g id="line2d_5">
      <g>
       <use xlink:href="#mfa7f19c214" x="321.98798" y="317.93875" style="stroke: #000000; stroke-width: 0.8"/>
      </g>
     </g>
     <g id="text_5">
      <text style="font: 10px 'sans-serif'; text-anchor: middle" x="321.98798" y="332.537188" transform="rotate(-0, 321.98798, 332.537188)">4</text>
     </g>
    </g>
    <g id="text_6">
     <text style="font: 10px 'sans-serif'; text-anchor: middle" x="202.69" y="346.215312" transform="rotate(-0, 202.69, 346.215312)">Composite_Reward</text>
    </g>
   </g>
   <g id="matplotlib.axis_2">
    <g id="ytick_1">
     <g id="line2d_6">
      <defs>
       <path id="m7ca35f61ce" d="M 0 0 
L -3.5 0 
" style="stroke: #000000; stroke-width: 0.8"/>
      </defs>
      <g>
       <use xlink:href="#m7ca35f61ce" x="56.18" y="317.544169" style="stroke: #000000; stroke-width: 0.8"/>
      </g>
     </g>
     <g id="text_7">
      <text style="font: 10px 'sans-serif'; text-anchor: end" x="49.18" y="321.343388" transform="rotate(-0, 49.18, 321.343388)">−1.5</text>
     </g>
    </g>
    <g id="ytick_2">
     <g id="line2d_7">
      <g>
       <use xlink:href="#m7ca35f61ce" x="56.18" y="255.406106" style="stroke: #000000; stroke-width: 0.8"/>
      </g>
     </g>
     <g id="text_8">
      <text style="font: 10px 'sans-serif'; text-anchor: end" x="49.18" y="259.205325" transform="rotate(-0, 49.18, 259.205325)">−1.0</text>
     </g>
    </g>
    <g id="ytick_3">
     <g id="line2d_8">
      <g>
       <use xlink:href="#m7ca35f61ce" x="56.18" y="193.268043" style="stroke: #000000; stroke-width: 0.8"/>
      </g>
     </g>
     <g id="text_9">
      <text style="font: 10px 'sans-serif'; text-anchor: end" x="49.18" y="197.067262" transform="rotate(-0, 49.18, 197.067262)">−0.5</text>
     </g>
    </g>
    <g id="ytick_4">
     <g id="line2d_9">
      <g>
       <use xlink:href="#m7ca35f61ce" x="56.18" y="131.12998" style="stroke: #000000; stroke-width: 0.8"/>
      </g>
     </g>
     <g id="text_10">
      <text style="font: 10px 'sans-serif'; text-anchor: end" x="49.18" y="134.929199" transform="rotate(-0, 49.18, 134.929199)">0.0</text>
     </g>
    </g>
    <g id="ytick_5">
     <g id="line2d_10">
      <g>
       <use xlink:href="#m7ca35f61ce" x="56.18" y="68.991917" style="stroke: #000000; stroke-width: 0.8"/>
      </g>
     </g>
     <g id="text_11">
      <text style="font: 10px 'sans-serif'; text-anchor: end" x="49.18" y="72.791136" transform="rotate(-0, 49.18, 72.791136)">0.5</text>
     </g>
    </g>
    <g id="text_12">
     <text style="font: 10px 'sans-serif'; text-anchor: middle" x="18.8175" y="164.369375" transform="rotate(-90, 18.8175, 164.369375)">Conn Gain&gt;Neut</text>
    </g>
   </g>
   <g id="line2d_11">
    <path d="M 69.499091 137.674283 
L 72.189816 137.41599 
L 74.880542 137.157697 
L 77.571267 136.899404 
L 80.261993 136.641111 
L 82.952718 136.382818 
L 85.643444 136.124525 
L 88.334169 135.866232 
L 91.024894 135.607939 
L 93.71562 135.349646 
L 96.406345 135.091353 
L 99.097071 134.83306 
L 101.787796 134.574767 
L 104.478522 134.316474 
L 107.169247 134.058181 
L 109.859972 133.799888 
L 112.550698 133.541595 
L 115.241423 133.283302 
L 117.932149 133.025009 
L 120.622874 132.766716 
L 123.3136 132.508424 
L 126.004325 132.250131 
L 128.695051 131.991838 
L 131.385776 131.733545 
L 134.076501 131.475252 
L 136.767227 131.216959 
L 139.457952 130.958666 
L 142.148678 130.700373 
L 144.839403 130.44208 
L 147.530129 130.183787 
L 150.220854 129.925494 
L 152.911579 129.667201 
L 155.602305 129.408908 
L 158.29303 129.150615 
L 160.983756 128.892322 
L 163.674481 128.634029 
L 166.365207 128.375736 
L 169.055932 128.117443 
L 171.746657 127.85915 
L 174.437383 127.600857 
L 177.128108 127.342564 
L 179.818834 127.084272 
L 182.509559 126.825979 
L 185.200285 126.567686 
L 187.89101 126.309393 
L 190.581736 126.0511 
L 193.272461 125.792807 
L 195.963186 125.534514 
L 198.653912 125.276221 
L 201.344637 125.017928 
L 204.035363 124.759635 
L 206.726088 124.501342 
L 209.416814 124.243049 
L 212.107539 123.984756 
L 214.798264 123.726463 
L 217.48899 123.46817 
L 220.179715 123.209877 
L 222.870441 122.951584 
L 225.561166 122.693291 
L 228.251892 122.434998 
L 230.942617 122.176705 
L 233.633343 121.918412 
L 236.324068 121.66012 
L 239.014793 121.401827 
L 241.705519 121.143534 
L 244.396244 120.885241 
L 247.08697 120.626948 
L 249.777695 120.368655 
L 252.468421 120.110362 
L 255.159146 119.852069 
L 257.849871 119.593776 
L 260.540597 119.335483 
L 263.231322 119.07719 
L 265.922048 118.818897 
L 268.612773 118.560604 
L 271.303499 118.302311 
L 273.994224 118.044018 
L 276.684949 117.785725 
L 279.375675 117.527432 
L 282.0664 117.269139 
L 284.757126 117.010846 
L 287.447851 116.752553 
L 290.138577 116.49426 
L 292.829302 116.235968 
L 295.520028 115.977675 
L 298.210753 115.719382 
L 300.901478 115.461089 
L 303.592204 115.202796 
L 306.282929 114.944503 
L 308.973655 114.68621 
L 311.66438 114.427917 
L 314.355106 114.169624 
L 317.045831 113.911331 
L 319.736556 113.653038 
L 322.427282 113.394745 
L 325.118007 113.136452 
L 327.808733 112.878159 
L 330.499458 112.619866 
L 333.190184 112.361573 
L 335.880909 112.10328 
" clip-path="url(#ped0d05898f)" style="fill: none; stroke: #1f77b4; stroke-width: 2.25; stroke-linecap: square"/>
   </g>
   <g id="patch_3">
    <path d="M 56.18 317.93875 
L 56.18 10.8 
" style="fill: none; stroke: #000000; stroke-width: 0.8; stroke-linejoin: miter; stroke-linecap: square"/>
   </g>
   <g id="patch_4">
    <path d="M 56.18 317.93875 
L 349.2 317.93875 
" style="fill: none; stroke: #000000; stroke-width: 0.8; stroke-linejoin: miter; stroke-linecap: square"/>
   </g>
  </g>
 </g>
 <defs>
  <clipPath id="ped0d05898f">
   <rect x="56.18" y="10.8" width="293.02" height="307.13875"/>
  </clipPath>
 </defs>
</svg>
