<?xml version="1.0" encoding="utf-8" standalone="no"?>
<!DOCTYPE svg PUBLIC "-//W3C//DTD SVG 1.1//EN"
  "http://www.w3.org/Graphics/SVG/1.1/DTD/svg11.dtd">
<svg xmlns:xlink="http://www.w3.org/1999/xlink" width="360pt" height="360pt" viewBox="0 0 360 360" xmlns="http://www.w3.org/2000/svg" version="1.1">
 <metadata>
  <rdf:RDF xmlns:dc="http://purl.org/dc/elements/1.1/" xmlns:cc="http://creativecommons.org/ns#" xmlns:rdf="http://www.w3.org/1999/02/22-rdf-syntax-ns#">
   <cc:Work>
    <dc:type rdf:resource="http://purl.org/dc/dcmitype/StillImage"/>
    <dc:date>2022-11-22T21:36:27.699945</dc:date>
    <dc:format>image/svg+xml</dc:format>
    <dc:creator>
     <cc:Agent>
      <dc:title>Matplotlib v3.5.3, https://matplotlib.org/</dc:title>
     </cc:Agent>
    </dc:creator>
   </cc:Work>
  </rdf:RDF>
 </metadata>
 <defs>
  <style type="text/css">*{stroke-linejoin: round; stroke-linecap: butt}</style>
 </defs>
 <g id="figure_1">
  <g id="patch_1">
   <path d="M 0 360 
L 360 360 
L 360 0 
L 0 0 
z
" style="fill: #ffffff"/>
  </g>
  <g id="axes_1">
   <g id="patch_2">
    <path d="M 62.57 317.93875 
L 349.2 317.93875 
L 349.2 10.8 
L 62.57 10.8 
z
" style="fill: #ffffff"/>
   </g>
   <g id="PathCollection_1">
    <defs>
     <path id="m087b5711a2" d="M 0 3 
C 0.795609 3 1.55874 2.683901 2.12132 2.12132 
C 2.683901 1.55874 3 0.795609 3 0 
C 3 -0.795609 2.683901 -1.55874 2.12132 -2.12132 
C 1.55874 -2.683901 0.795609 -3 0 -3 
C -0.795609 -3 -1.55874 -2.683901 -2.12132 -2.12132 
C -2.683901 -1.55874 -3 -0.795609 -3 0 
C -3 0.795609 -2.683901 1.55874 -2.12132 2.12132 
C -1.55874 2.683901 -0.795609 3 0 3 
z
" style="stroke: #1f77b4; stroke-opacity: 0.8"/>
    </defs>
    <g clip-path="url(#pf9c98e09c6)">
     <use xlink:href="#m087b5711a2" x="220.361263" y="141.224023" style="fill: #1f77b4; fill-opacity: 0.8; stroke: #1f77b4; stroke-opacity: 0.8"/>
     <use xlink:href="#m087b5711a2" x="220.361263" y="168.269443" style="fill: #1f77b4; fill-opacity: 0.8; stroke: #1f77b4; stroke-opacity: 0.8"/>
     <use xlink:href="#m087b5711a2" x="278.266313" y="169.610291" style="fill: #1f77b4; fill-opacity: 0.8; stroke: #1f77b4; stroke-opacity: 0.8"/>
     <use xlink:href="#m087b5711a2" x="191.408737" y="280.3062" style="fill: #1f77b4; fill-opacity: 0.8; stroke: #1f77b4; stroke-opacity: 0.8"/>
     <use xlink:href="#m087b5711a2" x="249.313788" y="128.91206" style="fill: #1f77b4; fill-opacity: 0.8; stroke: #1f77b4; stroke-opacity: 0.8"/>
     <use xlink:href="#m087b5711a2" x="162.456212" y="178.436821" style="fill: #1f77b4; fill-opacity: 0.8; stroke: #1f77b4; stroke-opacity: 0.8"/>
     <use xlink:href="#m087b5711a2" x="278.266313" y="163.601041" style="fill: #1f77b4; fill-opacity: 0.8; stroke: #1f77b4; stroke-opacity: 0.8"/>
     <use xlink:href="#m087b5711a2" x="75.598636" y="143.482354" style="fill: #1f77b4; fill-opacity: 0.8; stroke: #1f77b4; stroke-opacity: 0.8"/>
     <use xlink:href="#m087b5711a2" x="336.171364" y="139.419075" style="fill: #1f77b4; fill-opacity: 0.8; stroke: #1f77b4; stroke-opacity: 0.8"/>
     <use xlink:href="#m087b5711a2" x="104.551162" y="148.221291" style="fill: #1f77b4; fill-opacity: 0.8; stroke: #1f77b4; stroke-opacity: 0.8"/>
     <use xlink:href="#m087b5711a2" x="307.218838" y="153.978604" style="fill: #1f77b4; fill-opacity: 0.8; stroke: #1f77b4; stroke-opacity: 0.8"/>
     <use xlink:href="#m087b5711a2" x="278.266313" y="169.157958" style="fill: #1f77b4; fill-opacity: 0.8; stroke: #1f77b4; stroke-opacity: 0.8"/>
     <use xlink:href="#m087b5711a2" x="162.456212" y="106.482965" style="fill: #1f77b4; fill-opacity: 0.8; stroke: #1f77b4; stroke-opacity: 0.8"/>
     <use xlink:href="#m087b5711a2" x="278.266313" y="24.760852" style="fill: #1f77b4; fill-opacity: 0.8; stroke: #1f77b4; stroke-opacity: 0.8"/>
     <use xlink:href="#m087b5711a2" x="133.503687" y="176.932438" style="fill: #1f77b4; fill-opacity: 0.8; stroke: #1f77b4; stroke-opacity: 0.8"/>
     <use xlink:href="#m087b5711a2" x="336.171364" y="212.47286" style="fill: #1f77b4; fill-opacity: 0.8; stroke: #1f77b4; stroke-opacity: 0.8"/>
     <use xlink:href="#m087b5711a2" x="104.551162" y="121.131859" style="fill: #1f77b4; fill-opacity: 0.8; stroke: #1f77b4; stroke-opacity: 0.8"/>
     <use xlink:href="#m087b5711a2" x="307.218838" y="137.231094" style="fill: #1f77b4; fill-opacity: 0.8; stroke: #1f77b4; stroke-opacity: 0.8"/>
     <use xlink:href="#m087b5711a2" x="278.266313" y="166.017849" style="fill: #1f77b4; fill-opacity: 0.8; stroke: #1f77b4; stroke-opacity: 0.8"/>
     <use xlink:href="#m087b5711a2" x="249.313788" y="104.290802" style="fill: #1f77b4; fill-opacity: 0.8; stroke: #1f77b4; stroke-opacity: 0.8"/>
     <use xlink:href="#m087b5711a2" x="162.456212" y="128.159427" style="fill: #1f77b4; fill-opacity: 0.8; stroke: #1f77b4; stroke-opacity: 0.8"/>
     <use xlink:href="#m087b5711a2" x="133.503687" y="187.309387" style="fill: #1f77b4; fill-opacity: 0.8; stroke: #1f77b4; stroke-opacity: 0.8"/>
     <use xlink:href="#m087b5711a2" x="336.171364" y="111.187603" style="fill: #1f77b4; fill-opacity: 0.8; stroke: #1f77b4; stroke-opacity: 0.8"/>
     <use xlink:href="#m087b5711a2" x="191.408737" y="140.58742" style="fill: #1f77b4; fill-opacity: 0.8; stroke: #1f77b4; stroke-opacity: 0.8"/>
     <use xlink:href="#m087b5711a2" x="133.503687" y="107.008326" style="fill: #1f77b4; fill-opacity: 0.8; stroke: #1f77b4; stroke-opacity: 0.8"/>
     <use xlink:href="#m087b5711a2" x="75.598636" y="145.127599" style="fill: #1f77b4; fill-opacity: 0.8; stroke: #1f77b4; stroke-opacity: 0.8"/>
     <use xlink:href="#m087b5711a2" x="133.503687" y="142.994129" style="fill: #1f77b4; fill-opacity: 0.8; stroke: #1f77b4; stroke-opacity: 0.8"/>
     <use xlink:href="#m087b5711a2" x="336.171364" y="180.216766" style="fill: #1f77b4; fill-opacity: 0.8; stroke: #1f77b4; stroke-opacity: 0.8"/>
     <use xlink:href="#m087b5711a2" x="220.361263" y="119.935372" style="fill: #1f77b4; fill-opacity: 0.8; stroke: #1f77b4; stroke-opacity: 0.8"/>
     <use xlink:href="#m087b5711a2" x="249.313788" y="303.977898" style="fill: #1f77b4; fill-opacity: 0.8; stroke: #1f77b4; stroke-opacity: 0.8"/>
     <use xlink:href="#m087b5711a2" x="336.171364" y="123.01209" style="fill: #1f77b4; fill-opacity: 0.8; stroke: #1f77b4; stroke-opacity: 0.8"/>
     <use xlink:href="#m087b5711a2" x="162.456212" y="138.88579" style="fill: #1f77b4; fill-opacity: 0.8; stroke: #1f77b4; stroke-opacity: 0.8"/>
     <use xlink:href="#m087b5711a2" x="220.361263" y="180.057445" style="fill: #1f77b4; fill-opacity: 0.8; stroke: #1f77b4; stroke-opacity: 0.8"/>
     <use xlink:href="#m087b5711a2" x="104.551162" y="124.018634" style="fill: #1f77b4; fill-opacity: 0.8; stroke: #1f77b4; stroke-opacity: 0.8"/>
     <use xlink:href="#m087b5711a2" x="133.503687" y="183.985601" style="fill: #1f77b4; fill-opacity: 0.8; stroke: #1f77b4; stroke-opacity: 0.8"/>
     <use xlink:href="#m087b5711a2" x="75.598636" y="150.90829" style="fill: #1f77b4; fill-opacity: 0.8; stroke: #1f77b4; stroke-opacity: 0.8"/>
     <use xlink:href="#m087b5711a2" x="307.218838" y="143.715841" style="fill: #1f77b4; fill-opacity: 0.8; stroke: #1f77b4; stroke-opacity: 0.8"/>
     <use xlink:href="#m087b5711a2" x="75.598636" y="169.741891" style="fill: #1f77b4; fill-opacity: 0.8; stroke: #1f77b4; stroke-opacity: 0.8"/>
     <use xlink:href="#m087b5711a2" x="104.551162" y="203.066494" style="fill: #1f77b4; fill-opacity: 0.8; stroke: #1f77b4; stroke-opacity: 0.8"/>
     <use xlink:href="#m087b5711a2" x="191.408737" y="154.646437" style="fill: #1f77b4; fill-opacity: 0.8; stroke: #1f77b4; stroke-opacity: 0.8"/>
     <use xlink:href="#m087b5711a2" x="307.218838" y="101.259646" style="fill: #1f77b4; fill-opacity: 0.8; stroke: #1f77b4; stroke-opacity: 0.8"/>
     <use xlink:href="#m087b5711a2" x="249.313788" y="150.066774" style="fill: #1f77b4; fill-opacity: 0.8; stroke: #1f77b4; stroke-opacity: 0.8"/>
     <use xlink:href="#m087b5711a2" x="104.551162" y="98.249814" style="fill: #1f77b4; fill-opacity: 0.8; stroke: #1f77b4; stroke-opacity: 0.8"/>
     <use xlink:href="#m087b5711a2" x="162.456212" y="163.419192" style="fill: #1f77b4; fill-opacity: 0.8; stroke: #1f77b4; stroke-opacity: 0.8"/>
     <use xlink:href="#m087b5711a2" x="104.551162" y="158.715089" style="fill: #1f77b4; fill-opacity: 0.8; stroke: #1f77b4; stroke-opacity: 0.8"/>
     <use xlink:href="#m087b5711a2" x="220.361263" y="115.883622" style="fill: #1f77b4; fill-opacity: 0.8; stroke: #1f77b4; stroke-opacity: 0.8"/>
     <use xlink:href="#m087b5711a2" x="249.313788" y="153.498437" style="fill: #1f77b4; fill-opacity: 0.8; stroke: #1f77b4; stroke-opacity: 0.8"/>
    </g>
   </g>
   <g id="PolyCollection_1">
    <path d="M 75.598636 136.927738 
L 75.598636 170.103027 
L 78.230684 169.984955 
L 80.862732 169.76001 
L 83.49478 169.543222 
L 86.126827 169.214091 
L 88.758875 169.095877 
L 91.390923 168.98384 
L 94.022971 168.894706 
L 96.655018 168.805573 
L 99.287066 168.728116 
L 101.919114 168.634511 
L 104.551162 168.544749 
L 107.183209 168.451108 
L 109.815257 168.293087 
L 112.447305 167.892019 
L 115.079353 167.490951 
L 117.7114 167.087896 
L 120.343448 167.003861 
L 122.975496 166.981442 
L 125.607544 166.723984 
L 128.239591 166.617921 
L 130.871639 166.507125 
L 133.503687 166.393359 
L 136.135735 166.26471 
L 138.767782 166.178735 
L 141.39983 166.06904 
L 144.031878 165.879754 
L 146.663926 165.817207 
L 149.295973 165.741415 
L 151.928021 165.634074 
L 154.560069 165.526361 
L 157.192117 165.417186 
L 159.824164 165.310422 
L 162.456212 165.203659 
L 165.08826 165.064863 
L 167.720308 164.933167 
L 170.352355 164.852791 
L 172.984403 164.780992 
L 175.616451 164.837236 
L 178.248499 164.891609 
L 180.880546 164.905828 
L 183.512594 164.816685 
L 186.144642 164.814019 
L 188.77669 164.800625 
L 191.408737 164.743982 
L 194.040785 164.622836 
L 196.672833 164.653176 
L 199.304881 164.726821 
L 201.936928 164.81161 
L 204.568976 164.795041 
L 207.201024 165.071222 
L 209.833072 165.109803 
L 212.465119 165.181056 
L 215.097167 165.22361 
L 217.729215 165.340464 
L 220.361263 165.503174 
L 222.99331 165.656683 
L 225.625358 165.835765 
L 228.257406 165.919886 
L 230.889454 166.04073 
L 233.521501 166.28838 
L 236.153549 166.500876 
L 238.785597 166.580223 
L 241.417645 166.83588 
L 244.049692 167.066547 
L 246.68174 167.274058 
L 249.313788 167.335888 
L 251.945836 167.502557 
L 254.577883 167.669226 
L 257.209931 167.835895 
L 259.841979 168.132065 
L 262.474027 168.472051 
L 265.106074 168.658488 
L 267.738122 168.815223 
L 270.37017 168.957283 
L 273.002218 169.191519 
L 275.634265 169.351142 
L 278.266313 169.595038 
L 280.898361 169.782303 
L 283.530409 169.936076 
L 286.162456 170.004664 
L 288.794504 170.113713 
L 291.426552 170.267303 
L 294.0586 170.465368 
L 296.690647 170.685894 
L 299.322695 171.066748 
L 301.954743 171.279733 
L 304.586791 171.466494 
L 307.218838 171.66068 
L 309.850886 171.839799 
L 312.482934 172.152412 
L 315.114982 172.348396 
L 317.747029 172.540936 
L 320.379077 172.733476 
L 323.011125 172.926015 
L 325.643173 173.148894 
L 328.27522 173.420082 
L 330.907268 173.795567 
L 333.539316 174.124166 
L 336.171364 174.373804 
L 336.171364 124.837365 
L 336.171364 124.837365 
L 333.539316 125.191793 
L 330.907268 125.545419 
L 328.27522 125.866538 
L 325.643173 126.187657 
L 323.011125 126.514511 
L 320.379077 126.826141 
L 317.747029 127.143299 
L 315.114982 127.383727 
L 312.482934 127.652731 
L 309.850886 127.9336 
L 307.218838 128.21447 
L 304.586791 128.496944 
L 301.954743 128.782486 
L 299.322695 129.068028 
L 296.690647 129.429224 
L 294.0586 129.808397 
L 291.426552 130.084492 
L 288.794504 130.360586 
L 286.162456 130.636681 
L 283.530409 130.912775 
L 280.898361 131.18887 
L 278.266313 131.465031 
L 275.634265 131.772318 
L 273.002218 132.019217 
L 270.37017 132.293248 
L 267.738122 132.571723 
L 265.106074 132.962198 
L 262.474027 133.36578 
L 259.841979 133.769362 
L 257.209931 134.128811 
L 254.577883 134.260152 
L 251.945836 134.441727 
L 249.313788 134.832966 
L 246.68174 135.052182 
L 244.049692 135.351735 
L 241.417645 135.761247 
L 238.785597 136.174042 
L 236.153549 136.333663 
L 233.521501 136.432807 
L 230.889454 136.440083 
L 228.257406 136.71076 
L 225.625358 137.109216 
L 222.99331 137.573491 
L 220.361263 137.905648 
L 217.729215 138.264192 
L 215.097167 138.397503 
L 212.465119 138.533019 
L 209.833072 138.711313 
L 207.201024 138.995613 
L 204.568976 139.31742 
L 201.936928 139.532979 
L 199.304881 139.791544 
L 196.672833 140.098354 
L 194.040785 140.371797 
L 191.408737 140.456914 
L 188.77669 140.461142 
L 186.144642 140.797854 
L 183.512594 141.116487 
L 180.880546 141.076091 
L 178.248499 141.023774 
L 175.616451 140.971456 
L 172.984403 140.923698 
L 170.352355 140.881783 
L 167.720308 140.79511 
L 165.08826 140.801086 
L 162.456212 140.793958 
L 159.824164 141.005893 
L 157.192117 140.977345 
L 154.560069 140.821207 
L 151.928021 140.769296 
L 149.295973 140.829329 
L 146.663926 140.772124 
L 144.031878 140.734256 
L 141.39983 140.605943 
L 138.767782 140.519839 
L 136.135735 140.453398 
L 133.503687 140.458679 
L 130.871639 140.373844 
L 128.239591 140.275811 
L 125.607544 140.188666 
L 122.975496 140.009906 
L 120.343448 139.958023 
L 117.7114 139.908528 
L 115.079353 139.859033 
L 112.447305 139.79412 
L 109.815257 139.609169 
L 107.183209 139.529381 
L 104.551162 139.295805 
L 101.919114 139.111558 
L 99.287066 138.887901 
L 96.655018 138.64331 
L 94.022971 138.569002 
L 91.390923 138.352163 
L 88.758875 138.116156 
L 86.126827 137.878378 
L 83.49478 137.638882 
L 80.862732 137.399935 
L 78.230684 137.163226 
L 75.598636 136.927738 
z
" clip-path="url(#pf9c98e09c6)" style="fill: #1f77b4; fill-opacity: 0.15"/>
   </g>
   <g id="matplotlib.axis_1">
    <g id="xtick_1">
     <g id="line2d_1">
      <defs>
       <path id="m8332d9ed85" d="M 0 0 
L 0 3.5 
" style="stroke: #000000; stroke-width: 0.8"/>
      </defs>
      <g>
       <use xlink:href="#m8332d9ed85" x="90.961201" y="317.93875" style="stroke: #000000; stroke-width: 0.8"/>
      </g>
     </g>
     <g id="text_1">
      <text style="font: 10px 'sans-serif'; text-anchor: middle" x="90.961201" y="332.537188" transform="rotate(-0, 90.961201, 332.537188)">−4</text>
     </g>
    </g>
    <g id="xtick_2">
     <g id="line2d_2">
      <g>
       <use xlink:href="#m8332d9ed85" x="148.866251" y="317.93875" style="stroke: #000000; stroke-width: 0.8"/>
      </g>
     </g>
     <g id="text_2">
      <text style="font: 10px 'sans-serif'; text-anchor: middle" x="148.866251" y="332.537188" transform="rotate(-0, 148.866251, 332.537188)">−2</text>
     </g>
    </g>
    <g id="xtick_3">
     <g id="line2d_3">
      <g>
       <use xlink:href="#m8332d9ed85" x="206.771302" y="317.93875" style="stroke: #000000; stroke-width: 0.8"/>
      </g>
     </g>
     <g id="text_3">
      <text style="font: 10px 'sans-serif'; text-anchor: middle" x="206.771302" y="332.537188" transform="rotate(-0, 206.771302, 332.537188)">0</text>
     </g>
    </g>
    <g id="xtick_4">
     <g id="line2d_4">
      <g>
       <use xlink:href="#m8332d9ed85" x="264.676352" y="317.93875" style="stroke: #000000; stroke-width: 0.8"/>
      </g>
     </g>
     <g id="text_4">
      <text style="font: 10px 'sans-serif'; text-anchor: middle" x="264.676352" y="332.537188" transform="rotate(-0, 264.676352, 332.537188)">2</text>
     </g>
    </g>
    <g id="xtick_5">
     <g id="line2d_5">
      <g>
       <use xlink:href="#m8332d9ed85" x="322.581403" y="317.93875" style="stroke: #000000; stroke-width: 0.8"/>
      </g>
     </g>
     <g id="text_5">
      <text style="font: 10px 'sans-serif'; text-anchor: middle" x="322.581403" y="332.537188" transform="rotate(-0, 322.581403, 332.537188)">4</text>
     </g>
    </g>
    <g id="text_6">
     <text style="font: 10px 'sans-serif'; text-anchor: middle" x="205.885" y="346.215312" transform="rotate(-0, 205.885, 346.215312)">Composite_Reward</text>
    </g>
   </g>
   <g id="matplotlib.axis_2">
    <g id="ytick_1">
     <g id="line2d_6">
      <defs>
       <path id="m4eae4fb521" d="M 0 0 
L -3.5 0 
" style="stroke: #000000; stroke-width: 0.8"/>
      </defs>
      <g>
       <use xlink:href="#m4eae4fb521" x="62.57" y="305.09774" style="stroke: #000000; stroke-width: 0.8"/>
      </g>
     </g>
     <g id="text_7">
      <text style="font: 10px 'sans-serif'; text-anchor: end" x="55.57" y="308.896959" transform="rotate(-0, 55.57, 308.896959)">−1.00</text>
     </g>
    </g>
    <g id="ytick_2">
     <g id="line2d_7">
      <g>
       <use xlink:href="#m4eae4fb521" x="62.57" y="264.421906" style="stroke: #000000; stroke-width: 0.8"/>
      </g>
     </g>
     <g id="text_8">
      <text style="font: 10px 'sans-serif'; text-anchor: end" x="55.57" y="268.221125" transform="rotate(-0, 55.57, 268.221125)">−0.75</text>
     </g>
    </g>
    <g id="ytick_3">
     <g id="line2d_8">
      <g>
       <use xlink:href="#m4eae4fb521" x="62.57" y="223.746072" style="stroke: #000000; stroke-width: 0.8"/>
      </g>
     </g>
     <g id="text_9">
      <text style="font: 10px 'sans-serif'; text-anchor: end" x="55.57" y="227.545291" transform="rotate(-0, 55.57, 227.545291)">−0.50</text>
     </g>
    </g>
    <g id="ytick_4">
     <g id="line2d_9">
      <g>
       <use xlink:href="#m4eae4fb521" x="62.57" y="183.070238" style="stroke: #000000; stroke-width: 0.8"/>
      </g>
     </g>
     <g id="text_10">
      <text style="font: 10px 'sans-serif'; text-anchor: end" x="55.57" y="186.869456" transform="rotate(-0, 55.57, 186.869456)">−0.25</text>
     </g>
    </g>
    <g id="ytick_5">
     <g id="line2d_10">
      <g>
       <use xlink:href="#m4eae4fb521" x="62.57" y="142.394403" style="stroke: #000000; stroke-width: 0.8"/>
      </g>
     </g>
     <g id="text_11">
      <text style="font: 10px 'sans-serif'; text-anchor: end" x="55.57" y="146.193622" transform="rotate(-0, 55.57, 146.193622)">0.00</text>
     </g>
    </g>
    <g id="ytick_6">
     <g id="line2d_11">
      <g>
       <use xlink:href="#m4eae4fb521" x="62.57" y="101.718569" style="stroke: #000000; stroke-width: 0.8"/>
      </g>
     </g>
     <g id="text_12">
      <text style="font: 10px 'sans-serif'; text-anchor: end" x="55.57" y="105.517788" transform="rotate(-0, 55.57, 105.517788)">0.25</text>
     </g>
    </g>
    <g id="ytick_7">
     <g id="line2d_12">
      <g>
       <use xlink:href="#m4eae4fb521" x="62.57" y="61.042735" style="stroke: #000000; stroke-width: 0.8"/>
      </g>
     </g>
     <g id="text_13">
      <text style="font: 10px 'sans-serif'; text-anchor: end" x="55.57" y="64.841953" transform="rotate(-0, 55.57, 64.841953)">0.50</text>
     </g>
    </g>
    <g id="ytick_8">
     <g id="line2d_13">
      <g>
       <use xlink:href="#m4eae4fb521" x="62.57" y="20.3669" style="stroke: #000000; stroke-width: 0.8"/>
      </g>
     </g>
     <g id="text_14">
      <text style="font: 10px 'sans-serif'; text-anchor: end" x="55.57" y="24.166119" transform="rotate(-0, 55.57, 24.166119)">0.75</text>
     </g>
    </g>
    <g id="text_15">
     <text style="font: 10px 'sans-serif'; text-anchor: middle" x="18.845" y="164.369375" transform="rotate(-90, 18.845, 164.369375)">Conn LG-SG</text>
    </g>
   </g>
   <g id="line2d_14">
    <path d="M 75.598636 153.363273 
L 78.230684 153.322364 
L 80.862732 153.281456 
L 83.49478 153.240547 
L 86.126827 153.199638 
L 88.758875 153.15873 
L 91.390923 153.117821 
L 94.022971 153.076912 
L 96.655018 153.036004 
L 99.287066 152.995095 
L 101.919114 152.954187 
L 104.551162 152.913278 
L 107.183209 152.872369 
L 109.815257 152.831461 
L 112.447305 152.790552 
L 115.079353 152.749643 
L 117.7114 152.708735 
L 120.343448 152.667826 
L 122.975496 152.626918 
L 125.607544 152.586009 
L 128.239591 152.5451 
L 130.871639 152.504192 
L 133.503687 152.463283 
L 136.135735 152.422374 
L 138.767782 152.381466 
L 141.39983 152.340557 
L 144.031878 152.299649 
L 146.663926 152.25874 
L 149.295973 152.217831 
L 151.928021 152.176923 
L 154.560069 152.136014 
L 157.192117 152.095105 
L 159.824164 152.054197 
L 162.456212 152.013288 
L 165.08826 151.97238 
L 167.720308 151.931471 
L 170.352355 151.890562 
L 172.984403 151.849654 
L 175.616451 151.808745 
L 178.248499 151.767836 
L 180.880546 151.726928 
L 183.512594 151.686019 
L 186.144642 151.64511 
L 188.77669 151.604202 
L 191.408737 151.563293 
L 194.040785 151.522385 
L 196.672833 151.481476 
L 199.304881 151.440567 
L 201.936928 151.399659 
L 204.568976 151.35875 
L 207.201024 151.317841 
L 209.833072 151.276933 
L 212.465119 151.236024 
L 215.097167 151.195116 
L 217.729215 151.154207 
L 220.361263 151.113298 
L 222.99331 151.07239 
L 225.625358 151.031481 
L 228.257406 150.990572 
L 230.889454 150.949664 
L 233.521501 150.908755 
L 236.153549 150.867847 
L 238.785597 150.826938 
L 241.417645 150.786029 
L 244.049692 150.745121 
L 246.68174 150.704212 
L 249.313788 150.663303 
L 251.945836 150.622395 
L 254.577883 150.581486 
L 257.209931 150.540578 
L 259.841979 150.499669 
L 262.474027 150.45876 
L 265.106074 150.417852 
L 267.738122 150.376943 
L 270.37017 150.336034 
L 273.002218 150.295126 
L 275.634265 150.254217 
L 278.266313 150.213309 
L 280.898361 150.1724 
L 283.530409 150.131491 
L 286.162456 150.090583 
L 288.794504 150.049674 
L 291.426552 150.008765 
L 294.0586 149.967857 
L 296.690647 149.926948 
L 299.322695 149.88604 
L 301.954743 149.845131 
L 304.586791 149.804222 
L 307.218838 149.763314 
L 309.850886 149.722405 
L 312.482934 149.681496 
L 315.114982 149.640588 
L 317.747029 149.599679 
L 320.379077 149.558771 
L 323.011125 149.517862 
L 325.643173 149.476953 
L 328.27522 149.436045 
L 330.907268 149.395136 
L 333.539316 149.354227 
L 336.171364 149.313319 
" clip-path="url(#pf9c98e09c6)" style="fill: none; stroke: #1f77b4; stroke-width: 2.25; stroke-linecap: square"/>
   </g>
   <g id="patch_3">
    <path d="M 62.57 317.93875 
L 62.57 10.8 
" style="fill: none; stroke: #000000; stroke-width: 0.8; stroke-linejoin: miter; stroke-linecap: square"/>
   </g>
   <g id="patch_4">
    <path d="M 62.57 317.93875 
L 349.2 317.93875 
" style="fill: none; stroke: #000000; stroke-width: 0.8; stroke-linejoin: miter; stroke-linecap: square"/>
   </g>
  </g>
 </g>
 <defs>
  <clipPath id="pf9c98e09c6">
   <rect x="62.57" y="10.8" width="286.63" height="307.13875"/>
  </clipPath>
 </defs>
</svg>
