<?xml version="1.0" encoding="utf-8" standalone="no"?>
<!DOCTYPE svg PUBLIC "-//W3C//DTD SVG 1.1//EN"
  "http://www.w3.org/Graphics/SVG/1.1/DTD/svg11.dtd">
<svg xmlns:xlink="http://www.w3.org/1999/xlink" width="360pt" height="360pt" viewBox="0 0 360 360" xmlns="http://www.w3.org/2000/svg" version="1.1">
 <metadata>
  <rdf:RDF xmlns:dc="http://purl.org/dc/elements/1.1/" xmlns:cc="http://creativecommons.org/ns#" xmlns:rdf="http://www.w3.org/1999/02/22-rdf-syntax-ns#">
   <cc:Work>
    <dc:type rdf:resource="http://purl.org/dc/dcmitype/StillImage"/>
    <dc:date>2022-11-22T21:46:45.239395</dc:date>
    <dc:format>image/svg+xml</dc:format>
    <dc:creator>
     <cc:Agent>
      <dc:title>Matplotlib v3.5.3, https://matplotlib.org/</dc:title>
     </cc:Agent>
    </dc:creator>
   </cc:Work>
  </rdf:RDF>
 </metadata>
 <defs>
  <style type="text/css">*{stroke-linejoin: round; stroke-linecap: butt}</style>
 </defs>
 <g id="figure_1">
  <g id="patch_1">
   <path d="M 0 360 
L 360 360 
L 360 0 
L 0 0 
z
" style="fill: #ffffff"/>
  </g>
  <g id="axes_1">
   <g id="patch_2">
    <path d="M 56.18 317.93875 
L 349.2 317.93875 
L 349.2 10.8 
L 56.18 10.8 
z
" style="fill: #ffffff"/>
   </g>
   <g id="PathCollection_1">
    <defs>
     <path id="mc5103faa21" d="M 0 3 
C 0.795609 3 1.55874 2.683901 2.12132 2.12132 
C 2.683901 1.55874 3 0.795609 3 0 
C 3 -0.795609 2.683901 -1.55874 2.12132 -2.12132 
C 1.55874 -2.683901 0.795609 -3 0 -3 
C -0.795609 -3 -1.55874 -2.683901 -2.12132 -2.12132 
C -2.683901 -1.55874 -3 -0.795609 -3 0 
C -3 0.795609 -2.683901 1.55874 -2.12132 2.12132 
C -1.55874 2.683901 -0.795609 3 0 3 
z
" style="stroke: #1f77b4; stroke-opacity: 0.8"/>
    </defs>
    <g clip-path="url(#p747f5ece08)">
     <use xlink:href="#mc5103faa21" x="217.48899" y="178.618084" style="fill: #1f77b4; fill-opacity: 0.8; stroke: #1f77b4; stroke-opacity: 0.8"/>
     <use xlink:href="#mc5103faa21" x="217.48899" y="212.257943" style="fill: #1f77b4; fill-opacity: 0.8; stroke: #1f77b4; stroke-opacity: 0.8"/>
     <use xlink:href="#mc5103faa21" x="276.684949" y="131.758278" style="fill: #1f77b4; fill-opacity: 0.8; stroke: #1f77b4; stroke-opacity: 0.8"/>
     <use xlink:href="#mc5103faa21" x="187.89101" y="155.475187" style="fill: #1f77b4; fill-opacity: 0.8; stroke: #1f77b4; stroke-opacity: 0.8"/>
     <use xlink:href="#mc5103faa21" x="247.08697" y="154.415399" style="fill: #1f77b4; fill-opacity: 0.8; stroke: #1f77b4; stroke-opacity: 0.8"/>
     <use xlink:href="#mc5103faa21" x="158.29303" y="111.822317" style="fill: #1f77b4; fill-opacity: 0.8; stroke: #1f77b4; stroke-opacity: 0.8"/>
     <use xlink:href="#mc5103faa21" x="276.684949" y="151.605957" style="fill: #1f77b4; fill-opacity: 0.8; stroke: #1f77b4; stroke-opacity: 0.8"/>
     <use xlink:href="#mc5103faa21" x="69.499091" y="114.011917" style="fill: #1f77b4; fill-opacity: 0.8; stroke: #1f77b4; stroke-opacity: 0.8"/>
     <use xlink:href="#mc5103faa21" x="335.880909" y="134.864314" style="fill: #1f77b4; fill-opacity: 0.8; stroke: #1f77b4; stroke-opacity: 0.8"/>
     <use xlink:href="#mc5103faa21" x="99.097071" y="175.587107" style="fill: #1f77b4; fill-opacity: 0.8; stroke: #1f77b4; stroke-opacity: 0.8"/>
     <use xlink:href="#mc5103faa21" x="306.282929" y="169.220884" style="fill: #1f77b4; fill-opacity: 0.8; stroke: #1f77b4; stroke-opacity: 0.8"/>
     <use xlink:href="#mc5103faa21" x="276.684949" y="203.739923" style="fill: #1f77b4; fill-opacity: 0.8; stroke: #1f77b4; stroke-opacity: 0.8"/>
     <use xlink:href="#mc5103faa21" x="158.29303" y="117.747752" style="fill: #1f77b4; fill-opacity: 0.8; stroke: #1f77b4; stroke-opacity: 0.8"/>
     <use xlink:href="#mc5103faa21" x="276.684949" y="95.53243" style="fill: #1f77b4; fill-opacity: 0.8; stroke: #1f77b4; stroke-opacity: 0.8"/>
     <use xlink:href="#mc5103faa21" x="128.695051" y="76.077501" style="fill: #1f77b4; fill-opacity: 0.8; stroke: #1f77b4; stroke-opacity: 0.8"/>
     <use xlink:href="#mc5103faa21" x="335.880909" y="163.210536" style="fill: #1f77b4; fill-opacity: 0.8; stroke: #1f77b4; stroke-opacity: 0.8"/>
     <use xlink:href="#mc5103faa21" x="99.097071" y="303.977898" style="fill: #1f77b4; fill-opacity: 0.8; stroke: #1f77b4; stroke-opacity: 0.8"/>
     <use xlink:href="#mc5103faa21" x="306.282929" y="164.969879" style="fill: #1f77b4; fill-opacity: 0.8; stroke: #1f77b4; stroke-opacity: 0.8"/>
     <use xlink:href="#mc5103faa21" x="276.684949" y="96.382001" style="fill: #1f77b4; fill-opacity: 0.8; stroke: #1f77b4; stroke-opacity: 0.8"/>
     <use xlink:href="#mc5103faa21" x="247.08697" y="131.696088" style="fill: #1f77b4; fill-opacity: 0.8; stroke: #1f77b4; stroke-opacity: 0.8"/>
     <use xlink:href="#mc5103faa21" x="158.29303" y="140.647603" style="fill: #1f77b4; fill-opacity: 0.8; stroke: #1f77b4; stroke-opacity: 0.8"/>
     <use xlink:href="#mc5103faa21" x="128.695051" y="143.772436" style="fill: #1f77b4; fill-opacity: 0.8; stroke: #1f77b4; stroke-opacity: 0.8"/>
     <use xlink:href="#mc5103faa21" x="335.880909" y="84.012767" style="fill: #1f77b4; fill-opacity: 0.8; stroke: #1f77b4; stroke-opacity: 0.8"/>
     <use xlink:href="#mc5103faa21" x="187.89101" y="236.891568" style="fill: #1f77b4; fill-opacity: 0.8; stroke: #1f77b4; stroke-opacity: 0.8"/>
     <use xlink:href="#mc5103faa21" x="128.695051" y="122.132789" style="fill: #1f77b4; fill-opacity: 0.8; stroke: #1f77b4; stroke-opacity: 0.8"/>
     <use xlink:href="#mc5103faa21" x="69.499091" y="175.745807" style="fill: #1f77b4; fill-opacity: 0.8; stroke: #1f77b4; stroke-opacity: 0.8"/>
     <use xlink:href="#mc5103faa21" x="128.695051" y="94.648555" style="fill: #1f77b4; fill-opacity: 0.8; stroke: #1f77b4; stroke-opacity: 0.8"/>
     <use xlink:href="#mc5103faa21" x="335.880909" y="166.229305" style="fill: #1f77b4; fill-opacity: 0.8; stroke: #1f77b4; stroke-opacity: 0.8"/>
     <use xlink:href="#mc5103faa21" x="217.48899" y="24.760852" style="fill: #1f77b4; fill-opacity: 0.8; stroke: #1f77b4; stroke-opacity: 0.8"/>
     <use xlink:href="#mc5103faa21" x="247.08697" y="130.154184" style="fill: #1f77b4; fill-opacity: 0.8; stroke: #1f77b4; stroke-opacity: 0.8"/>
     <use xlink:href="#mc5103faa21" x="335.880909" y="141.778852" style="fill: #1f77b4; fill-opacity: 0.8; stroke: #1f77b4; stroke-opacity: 0.8"/>
     <use xlink:href="#mc5103faa21" x="158.29303" y="137.861334" style="fill: #1f77b4; fill-opacity: 0.8; stroke: #1f77b4; stroke-opacity: 0.8"/>
     <use xlink:href="#mc5103faa21" x="217.48899" y="56.952081" style="fill: #1f77b4; fill-opacity: 0.8; stroke: #1f77b4; stroke-opacity: 0.8"/>
     <use xlink:href="#mc5103faa21" x="99.097071" y="106.722789" style="fill: #1f77b4; fill-opacity: 0.8; stroke: #1f77b4; stroke-opacity: 0.8"/>
     <use xlink:href="#mc5103faa21" x="128.695051" y="119.73513" style="fill: #1f77b4; fill-opacity: 0.8; stroke: #1f77b4; stroke-opacity: 0.8"/>
     <use xlink:href="#mc5103faa21" x="69.499091" y="80.965384" style="fill: #1f77b4; fill-opacity: 0.8; stroke: #1f77b4; stroke-opacity: 0.8"/>
     <use xlink:href="#mc5103faa21" x="306.282929" y="131.969339" style="fill: #1f77b4; fill-opacity: 0.8; stroke: #1f77b4; stroke-opacity: 0.8"/>
     <use xlink:href="#mc5103faa21" x="69.499091" y="89.881133" style="fill: #1f77b4; fill-opacity: 0.8; stroke: #1f77b4; stroke-opacity: 0.8"/>
     <use xlink:href="#mc5103faa21" x="99.097071" y="116.811686" style="fill: #1f77b4; fill-opacity: 0.8; stroke: #1f77b4; stroke-opacity: 0.8"/>
     <use xlink:href="#mc5103faa21" x="187.89101" y="125.299731" style="fill: #1f77b4; fill-opacity: 0.8; stroke: #1f77b4; stroke-opacity: 0.8"/>
     <use xlink:href="#mc5103faa21" x="306.282929" y="101.212229" style="fill: #1f77b4; fill-opacity: 0.8; stroke: #1f77b4; stroke-opacity: 0.8"/>
     <use xlink:href="#mc5103faa21" x="247.08697" y="170.938716" style="fill: #1f77b4; fill-opacity: 0.8; stroke: #1f77b4; stroke-opacity: 0.8"/>
     <use xlink:href="#mc5103faa21" x="99.097071" y="213.332732" style="fill: #1f77b4; fill-opacity: 0.8; stroke: #1f77b4; stroke-opacity: 0.8"/>
     <use xlink:href="#mc5103faa21" x="158.29303" y="157.720089" style="fill: #1f77b4; fill-opacity: 0.8; stroke: #1f77b4; stroke-opacity: 0.8"/>
     <use xlink:href="#mc5103faa21" x="99.097071" y="127.740031" style="fill: #1f77b4; fill-opacity: 0.8; stroke: #1f77b4; stroke-opacity: 0.8"/>
     <use xlink:href="#mc5103faa21" x="217.48899" y="130.386294" style="fill: #1f77b4; fill-opacity: 0.8; stroke: #1f77b4; stroke-opacity: 0.8"/>
     <use xlink:href="#mc5103faa21" x="247.08697" y="126.793624" style="fill: #1f77b4; fill-opacity: 0.8; stroke: #1f77b4; stroke-opacity: 0.8"/>
    </g>
   </g>
   <g id="PolyCollection_1">
    <path d="M 69.499091 112.669209 
L 69.499091 170.017316 
L 72.189816 169.671717 
L 74.880542 169.326117 
L 77.571267 168.980518 
L 80.261993 168.648856 
L 82.952718 168.318709 
L 85.643444 167.947224 
L 88.334169 167.601581 
L 91.024894 167.241511 
L 93.71562 166.825475 
L 96.406345 166.40944 
L 99.097071 165.993404 
L 101.787796 165.65212 
L 104.478522 165.318222 
L 107.169247 164.984324 
L 109.859972 164.650314 
L 112.550698 164.184227 
L 115.241423 163.630805 
L 117.932149 163.311709 
L 120.622874 163.014037 
L 123.3136 162.716366 
L 126.004325 162.418694 
L 128.695051 162.121023 
L 131.385776 161.822391 
L 134.076501 161.383891 
L 136.767227 160.829564 
L 139.457952 160.457403 
L 142.148678 160.06578 
L 144.839403 159.752816 
L 147.530129 159.400218 
L 150.220854 159.035287 
L 152.911579 158.558541 
L 155.602305 158.081795 
L 158.29303 157.68568 
L 160.983756 157.553394 
L 163.674481 157.425088 
L 166.365207 157.299326 
L 169.055932 157.173564 
L 171.746657 156.860437 
L 174.437383 156.38336 
L 177.128108 155.906028 
L 179.818834 155.437501 
L 182.509559 154.973876 
L 185.200285 154.979849 
L 187.89101 154.865877 
L 190.581736 154.637011 
L 193.272461 154.52572 
L 195.963186 154.420007 
L 198.653912 154.111971 
L 201.344637 153.674794 
L 204.035363 153.090331 
L 206.726088 152.635082 
L 209.416814 152.379219 
L 212.107539 152.055127 
L 214.798264 151.738296 
L 217.48899 151.610586 
L 220.179715 151.541235 
L 222.870441 151.56208 
L 225.561166 151.435773 
L 228.251892 151.330628 
L 230.942617 151.109291 
L 233.633343 151.149968 
L 236.324068 151.251875 
L 239.014793 151.2867 
L 241.705519 151.199044 
L 244.396244 151.105009 
L 247.08697 151.139217 
L 249.777695 151.148665 
L 252.468421 151.196653 
L 255.159146 151.123265 
L 257.849871 151.106689 
L 260.540597 151.236201 
L 263.231322 151.122051 
L 265.922048 151.407059 
L 268.612773 151.508605 
L 271.303499 151.841595 
L 273.994224 152.058761 
L 276.684949 152.161145 
L 279.375675 152.428095 
L 282.0664 152.69958 
L 284.757126 152.913795 
L 287.447851 153.128484 
L 290.138577 153.343824 
L 292.829302 153.559164 
L 295.520028 153.774504 
L 298.210753 153.971049 
L 300.901478 154.205097 
L 303.592204 154.420525 
L 306.282929 154.635499 
L 308.973655 154.850021 
L 311.66438 155.064544 
L 314.355106 155.279067 
L 317.045831 155.49359 
L 319.736556 155.725719 
L 322.427282 156.098319 
L 325.118007 156.312794 
L 327.808733 156.553851 
L 330.499458 156.868541 
L 333.190184 157.066864 
L 335.880909 157.26508 
L 335.880909 115.064195 
L 335.880909 115.064195 
L 333.190184 115.387163 
L 330.499458 115.781439 
L 327.808733 116.175715 
L 325.118007 116.386201 
L 322.427282 116.583607 
L 319.736556 116.781014 
L 317.045831 116.97842 
L 314.355106 117.178265 
L 311.66438 117.381908 
L 308.973655 117.683839 
L 306.282929 118.04275 
L 303.592204 118.438351 
L 300.901478 118.841109 
L 298.210753 119.243867 
L 295.520028 119.382138 
L 292.829302 119.90014 
L 290.138577 120.237722 
L 287.447851 120.417677 
L 284.757126 120.416326 
L 282.0664 120.535205 
L 279.375675 120.814539 
L 276.684949 121.201698 
L 273.994224 121.592863 
L 271.303499 121.988628 
L 268.612773 122.384394 
L 265.922048 122.697317 
L 263.231322 123.019724 
L 260.540597 123.571691 
L 257.849871 123.857188 
L 255.159146 124.219961 
L 252.468421 124.611948 
L 249.777695 124.945739 
L 247.08697 124.943675 
L 244.396244 124.973835 
L 241.705519 125.175825 
L 239.014793 125.373895 
L 236.324068 125.42499 
L 233.633343 125.378712 
L 230.942617 125.397426 
L 228.251892 125.317615 
L 225.561166 125.400139 
L 222.870441 125.515754 
L 220.179715 126.00285 
L 217.48899 126.170164 
L 214.798264 126.21658 
L 212.107539 126.048411 
L 209.416814 125.958665 
L 206.726088 125.997253 
L 204.035363 125.742664 
L 201.344637 125.572135 
L 198.653912 125.572501 
L 195.963186 125.544329 
L 193.272461 125.423513 
L 190.581736 125.298165 
L 187.89101 125.132525 
L 185.200285 124.904741 
L 182.509559 124.745535 
L 179.818834 124.578095 
L 177.128108 124.313104 
L 174.437383 124.073288 
L 171.746657 123.937214 
L 169.055932 123.814993 
L 166.365207 123.577159 
L 163.674481 123.466491 
L 160.983756 123.183441 
L 158.29303 122.960569 
L 155.602305 122.618251 
L 152.911579 122.257908 
L 150.220854 121.913507 
L 147.530129 121.670209 
L 144.839403 121.326338 
L 142.148678 120.923747 
L 139.457952 120.559883 
L 136.767227 120.466995 
L 134.076501 120.191405 
L 131.385776 119.988516 
L 128.695051 119.771586 
L 126.004325 119.509329 
L 123.3136 119.251196 
L 120.622874 119.042584 
L 117.932149 118.680773 
L 115.241423 118.29759 
L 112.550698 117.91544 
L 109.859972 117.534932 
L 107.169247 117.154423 
L 104.478522 116.815477 
L 101.787796 116.573016 
L 99.097071 116.34209 
L 96.406345 115.86665 
L 93.71562 115.54948 
L 91.024894 115.259492 
L 88.334169 114.969504 
L 85.643444 114.679517 
L 82.952718 114.316559 
L 80.261993 113.886318 
L 77.571267 113.563497 
L 74.880542 113.150025 
L 72.189816 112.852816 
L 69.499091 112.669209 
z
" clip-path="url(#p747f5ece08)" style="fill: #1f77b4; fill-opacity: 0.15"/>
   </g>
   <g id="matplotlib.axis_1">
    <g id="xtick_1">
     <g id="line2d_1">
      <defs>
       <path id="m1e9c8310a1" d="M 0 0 
L 0 3.5 
" style="stroke: #000000; stroke-width: 0.8"/>
      </defs>
      <g>
       <use xlink:href="#m1e9c8310a1" x="85.204141" y="317.93875" style="stroke: #000000; stroke-width: 0.8"/>
      </g>
     </g>
     <g id="text_1">
      <text style="font: 10px 'sans-serif'; text-anchor: middle" x="85.204141" y="332.537188" transform="rotate(-0, 85.204141, 332.537188)">−4</text>
     </g>
    </g>
    <g id="xtick_2">
     <g id="line2d_2">
      <g>
       <use xlink:href="#m1e9c8310a1" x="144.400101" y="317.93875" style="stroke: #000000; stroke-width: 0.8"/>
      </g>
     </g>
     <g id="text_2">
      <text style="font: 10px 'sans-serif'; text-anchor: middle" x="144.400101" y="332.537188" transform="rotate(-0, 144.400101, 332.537188)">−2</text>
     </g>
    </g>
    <g id="xtick_3">
     <g id="line2d_3">
      <g>
       <use xlink:href="#m1e9c8310a1" x="203.596061" y="317.93875" style="stroke: #000000; stroke-width: 0.8"/>
      </g>
     </g>
     <g id="text_3">
      <text style="font: 10px 'sans-serif'; text-anchor: middle" x="203.596061" y="332.537188" transform="rotate(-0, 203.596061, 332.537188)">0</text>
     </g>
    </g>
    <g id="xtick_4">
     <g id="line2d_4">
      <g>
       <use xlink:href="#m1e9c8310a1" x="262.79202" y="317.93875" style="stroke: #000000; stroke-width: 0.8"/>
      </g>
     </g>
     <g id="text_4">
      <text style="font: 10px 'sans-serif'; text-anchor: middle" x="262.79202" y="332.537188" transform="rotate(-0, 262.79202, 332.537188)">2</text>
     </g>
    </g>
    <g id="xtick_5">
     <g id="line2d_5">
      <g>
       <use xlink:href="#m1e9c8310a1" x="321.98798" y="317.93875" style="stroke: #000000; stroke-width: 0.8"/>
      </g>
     </g>
     <g id="text_5">
      <text style="font: 10px 'sans-serif'; text-anchor: middle" x="321.98798" y="332.537188" transform="rotate(-0, 321.98798, 332.537188)">4</text>
     </g>
    </g>
    <g id="text_6">
     <text style="font: 10px 'sans-serif'; text-anchor: middle" x="202.69" y="346.215312" transform="rotate(-0, 202.69, 346.215312)">Composite_Reward</text>
    </g>
   </g>
   <g id="matplotlib.axis_2">
    <g id="ytick_1">
     <g id="line2d_6">
      <defs>
       <path id="m83ce9e91ac" d="M 0 0 
L -3.5 0 
" style="stroke: #000000; stroke-width: 0.8"/>
      </defs>
      <g>
       <use xlink:href="#m83ce9e91ac" x="56.18" y="312.214395" style="stroke: #000000; stroke-width: 0.8"/>
      </g>
     </g>
     <g id="text_7">
      <text style="font: 10px 'sans-serif'; text-anchor: end" x="49.18" y="316.013614" transform="rotate(-0, 49.18, 316.013614)">−1.5</text>
     </g>
    </g>
    <g id="ytick_2">
     <g id="line2d_7">
      <g>
       <use xlink:href="#m83ce9e91ac" x="56.18" y="249.040071" style="stroke: #000000; stroke-width: 0.8"/>
      </g>
     </g>
     <g id="text_8">
      <text style="font: 10px 'sans-serif'; text-anchor: end" x="49.18" y="252.83929" transform="rotate(-0, 49.18, 252.83929)">−1.0</text>
     </g>
    </g>
    <g id="ytick_3">
     <g id="line2d_8">
      <g>
       <use xlink:href="#m83ce9e91ac" x="56.18" y="185.865746" style="stroke: #000000; stroke-width: 0.8"/>
      </g>
     </g>
     <g id="text_9">
      <text style="font: 10px 'sans-serif'; text-anchor: end" x="49.18" y="189.664965" transform="rotate(-0, 49.18, 189.664965)">−0.5</text>
     </g>
    </g>
    <g id="ytick_4">
     <g id="line2d_9">
      <g>
       <use xlink:href="#m83ce9e91ac" x="56.18" y="122.691422" style="stroke: #000000; stroke-width: 0.8"/>
      </g>
     </g>
     <g id="text_10">
      <text style="font: 10px 'sans-serif'; text-anchor: end" x="49.18" y="126.490641" transform="rotate(-0, 49.18, 126.490641)">0.0</text>
     </g>
    </g>
    <g id="ytick_5">
     <g id="line2d_10">
      <g>
       <use xlink:href="#m83ce9e91ac" x="56.18" y="59.517098" style="stroke: #000000; stroke-width: 0.8"/>
      </g>
     </g>
     <g id="text_11">
      <text style="font: 10px 'sans-serif'; text-anchor: end" x="49.18" y="63.316317" transform="rotate(-0, 49.18, 63.316317)">0.5</text>
     </g>
    </g>
    <g id="text_12">
     <text style="font: 10px 'sans-serif'; text-anchor: middle" x="18.8175" y="164.369375" transform="rotate(-90, 18.8175, 164.369375)">Conn Hit-Miss</text>
    </g>
   </g>
   <g id="line2d_11">
    <path d="M 69.499091 138.337985 
L 72.189816 138.336333 
L 74.880542 138.334681 
L 77.571267 138.333028 
L 80.261993 138.331376 
L 82.952718 138.329724 
L 85.643444 138.328071 
L 88.334169 138.326419 
L 91.024894 138.324767 
L 93.71562 138.323114 
L 96.406345 138.321462 
L 99.097071 138.31981 
L 101.787796 138.318157 
L 104.478522 138.316505 
L 107.169247 138.314853 
L 109.859972 138.3132 
L 112.550698 138.311548 
L 115.241423 138.309896 
L 117.932149 138.308243 
L 120.622874 138.306591 
L 123.3136 138.304939 
L 126.004325 138.303287 
L 128.695051 138.301634 
L 131.385776 138.299982 
L 134.076501 138.29833 
L 136.767227 138.296677 
L 139.457952 138.295025 
L 142.148678 138.293373 
L 144.839403 138.29172 
L 147.530129 138.290068 
L 150.220854 138.288416 
L 152.911579 138.286763 
L 155.602305 138.285111 
L 158.29303 138.283459 
L 160.983756 138.281806 
L 163.674481 138.280154 
L 166.365207 138.278502 
L 169.055932 138.276849 
L 171.746657 138.275197 
L 174.437383 138.273545 
L 177.128108 138.271892 
L 179.818834 138.27024 
L 182.509559 138.268588 
L 185.200285 138.266935 
L 187.89101 138.265283 
L 190.581736 138.263631 
L 193.272461 138.261978 
L 195.963186 138.260326 
L 198.653912 138.258674 
L 201.344637 138.257021 
L 204.035363 138.255369 
L 206.726088 138.253717 
L 209.416814 138.252064 
L 212.107539 138.250412 
L 214.798264 138.24876 
L 217.48899 138.247107 
L 220.179715 138.245455 
L 222.870441 138.243803 
L 225.561166 138.24215 
L 228.251892 138.240498 
L 230.942617 138.238846 
L 233.633343 138.237193 
L 236.324068 138.235541 
L 239.014793 138.233889 
L 241.705519 138.232236 
L 244.396244 138.230584 
L 247.08697 138.228932 
L 249.777695 138.227279 
L 252.468421 138.225627 
L 255.159146 138.223975 
L 257.849871 138.222322 
L 260.540597 138.22067 
L 263.231322 138.219018 
L 265.922048 138.217365 
L 268.612773 138.215713 
L 271.303499 138.214061 
L 273.994224 138.212408 
L 276.684949 138.210756 
L 279.375675 138.209104 
L 282.0664 138.207452 
L 284.757126 138.205799 
L 287.447851 138.204147 
L 290.138577 138.202495 
L 292.829302 138.200842 
L 295.520028 138.19919 
L 298.210753 138.197538 
L 300.901478 138.195885 
L 303.592204 138.194233 
L 306.282929 138.192581 
L 308.973655 138.190928 
L 311.66438 138.189276 
L 314.355106 138.187624 
L 317.045831 138.185971 
L 319.736556 138.184319 
L 322.427282 138.182667 
L 325.118007 138.181014 
L 327.808733 138.179362 
L 330.499458 138.17771 
L 333.190184 138.176057 
L 335.880909 138.174405 
" clip-path="url(#p747f5ece08)" style="fill: none; stroke: #1f77b4; stroke-width: 2.25; stroke-linecap: square"/>
   </g>
   <g id="patch_3">
    <path d="M 56.18 317.93875 
L 56.18 10.8 
" style="fill: none; stroke: #000000; stroke-width: 0.8; stroke-linejoin: miter; stroke-linecap: square"/>
   </g>
   <g id="patch_4">
    <path d="M 56.18 317.93875 
L 349.2 317.93875 
" style="fill: none; stroke: #000000; stroke-width: 0.8; stroke-linejoin: miter; stroke-linecap: square"/>
   </g>
  </g>
 </g>
 <defs>
  <clipPath id="p747f5ece08">
   <rect x="56.18" y="10.8" width="293.02" height="307.13875"/>
  </clipPath>
 </defs>
</svg>
