<?xml version="1.0" encoding="utf-8" standalone="no"?>
<!DOCTYPE svg PUBLIC "-//W3C//DTD SVG 1.1//EN"
  "http://www.w3.org/Graphics/SVG/1.1/DTD/svg11.dtd">
<svg xmlns:xlink="http://www.w3.org/1999/xlink" width="360pt" height="360pt" viewBox="0 0 360 360" xmlns="http://www.w3.org/2000/svg" version="1.1">
 <metadata>
  <rdf:RDF xmlns:dc="http://purl.org/dc/elements/1.1/" xmlns:cc="http://creativecommons.org/ns#" xmlns:rdf="http://www.w3.org/1999/02/22-rdf-syntax-ns#">
   <cc:Work>
    <dc:type rdf:resource="http://purl.org/dc/dcmitype/StillImage"/>
    <dc:date>2022-11-22T21:44:42.622476</dc:date>
    <dc:format>image/svg+xml</dc:format>
    <dc:creator>
     <cc:Agent>
      <dc:title>Matplotlib v3.5.3, https://matplotlib.org/</dc:title>
     </cc:Agent>
    </dc:creator>
   </cc:Work>
  </rdf:RDF>
 </metadata>
 <defs>
  <style type="text/css">*{stroke-linejoin: round; stroke-linecap: butt}</style>
 </defs>
 <g id="figure_1">
  <g id="patch_1">
   <path d="M 0 360 
L 360 360 
L 360 0 
L 0 0 
z
" style="fill: #ffffff"/>
  </g>
  <g id="axes_1">
   <g id="patch_2">
    <path d="M 56.18 317.93875 
L 349.2 317.93875 
L 349.2 10.8 
L 56.18 10.8 
z
" style="fill: #ffffff"/>
   </g>
   <g id="PathCollection_1">
    <defs>
     <path id="mda0c2c8bc0" d="M 0 3 
C 0.795609 3 1.55874 2.683901 2.12132 2.12132 
C 2.683901 1.55874 3 0.795609 3 0 
C 3 -0.795609 2.683901 -1.55874 2.12132 -2.12132 
C 1.55874 -2.683901 0.795609 -3 0 -3 
C -0.795609 -3 -1.55874 -2.683901 -2.12132 -2.12132 
C -2.683901 -1.55874 -3 -0.795609 -3 0 
C -3 0.795609 -2.683901 1.55874 -2.12132 2.12132 
C -1.55874 2.683901 -0.795609 3 0 3 
z
" style="stroke: #1f77b4; stroke-opacity: 0.8"/>
    </defs>
    <g clip-path="url(#pb4830c9f48)">
     <use xlink:href="#mda0c2c8bc0" x="217.48899" y="194.370371" style="fill: #1f77b4; fill-opacity: 0.8; stroke: #1f77b4; stroke-opacity: 0.8"/>
     <use xlink:href="#mda0c2c8bc0" x="217.48899" y="81.296289" style="fill: #1f77b4; fill-opacity: 0.8; stroke: #1f77b4; stroke-opacity: 0.8"/>
     <use xlink:href="#mda0c2c8bc0" x="276.684949" y="242.725169" style="fill: #1f77b4; fill-opacity: 0.8; stroke: #1f77b4; stroke-opacity: 0.8"/>
     <use xlink:href="#mda0c2c8bc0" x="187.89101" y="218.755848" style="fill: #1f77b4; fill-opacity: 0.8; stroke: #1f77b4; stroke-opacity: 0.8"/>
     <use xlink:href="#mda0c2c8bc0" x="247.08697" y="148.912339" style="fill: #1f77b4; fill-opacity: 0.8; stroke: #1f77b4; stroke-opacity: 0.8"/>
     <use xlink:href="#mda0c2c8bc0" x="158.29303" y="220.459221" style="fill: #1f77b4; fill-opacity: 0.8; stroke: #1f77b4; stroke-opacity: 0.8"/>
     <use xlink:href="#mda0c2c8bc0" x="276.684949" y="213.360461" style="fill: #1f77b4; fill-opacity: 0.8; stroke: #1f77b4; stroke-opacity: 0.8"/>
     <use xlink:href="#mda0c2c8bc0" x="69.499091" y="256.079291" style="fill: #1f77b4; fill-opacity: 0.8; stroke: #1f77b4; stroke-opacity: 0.8"/>
     <use xlink:href="#mda0c2c8bc0" x="335.880909" y="187.611909" style="fill: #1f77b4; fill-opacity: 0.8; stroke: #1f77b4; stroke-opacity: 0.8"/>
     <use xlink:href="#mda0c2c8bc0" x="99.097071" y="217.276613" style="fill: #1f77b4; fill-opacity: 0.8; stroke: #1f77b4; stroke-opacity: 0.8"/>
     <use xlink:href="#mda0c2c8bc0" x="306.282929" y="213.593686" style="fill: #1f77b4; fill-opacity: 0.8; stroke: #1f77b4; stroke-opacity: 0.8"/>
     <use xlink:href="#mda0c2c8bc0" x="276.684949" y="214.615009" style="fill: #1f77b4; fill-opacity: 0.8; stroke: #1f77b4; stroke-opacity: 0.8"/>
     <use xlink:href="#mda0c2c8bc0" x="158.29303" y="181.270511" style="fill: #1f77b4; fill-opacity: 0.8; stroke: #1f77b4; stroke-opacity: 0.8"/>
     <use xlink:href="#mda0c2c8bc0" x="276.684949" y="222.252937" style="fill: #1f77b4; fill-opacity: 0.8; stroke: #1f77b4; stroke-opacity: 0.8"/>
     <use xlink:href="#mda0c2c8bc0" x="128.695051" y="235.491374" style="fill: #1f77b4; fill-opacity: 0.8; stroke: #1f77b4; stroke-opacity: 0.8"/>
     <use xlink:href="#mda0c2c8bc0" x="335.880909" y="270.984477" style="fill: #1f77b4; fill-opacity: 0.8; stroke: #1f77b4; stroke-opacity: 0.8"/>
     <use xlink:href="#mda0c2c8bc0" x="99.097071" y="192.452324" style="fill: #1f77b4; fill-opacity: 0.8; stroke: #1f77b4; stroke-opacity: 0.8"/>
     <use xlink:href="#mda0c2c8bc0" x="306.282929" y="186.347734" style="fill: #1f77b4; fill-opacity: 0.8; stroke: #1f77b4; stroke-opacity: 0.8"/>
     <use xlink:href="#mda0c2c8bc0" x="276.684949" y="207.670531" style="fill: #1f77b4; fill-opacity: 0.8; stroke: #1f77b4; stroke-opacity: 0.8"/>
     <use xlink:href="#mda0c2c8bc0" x="247.08697" y="303.977898" style="fill: #1f77b4; fill-opacity: 0.8; stroke: #1f77b4; stroke-opacity: 0.8"/>
     <use xlink:href="#mda0c2c8bc0" x="158.29303" y="192.745956" style="fill: #1f77b4; fill-opacity: 0.8; stroke: #1f77b4; stroke-opacity: 0.8"/>
     <use xlink:href="#mda0c2c8bc0" x="128.695051" y="200.562798" style="fill: #1f77b4; fill-opacity: 0.8; stroke: #1f77b4; stroke-opacity: 0.8"/>
     <use xlink:href="#mda0c2c8bc0" x="335.880909" y="242.805483" style="fill: #1f77b4; fill-opacity: 0.8; stroke: #1f77b4; stroke-opacity: 0.8"/>
     <use xlink:href="#mda0c2c8bc0" x="187.89101" y="218.892305" style="fill: #1f77b4; fill-opacity: 0.8; stroke: #1f77b4; stroke-opacity: 0.8"/>
     <use xlink:href="#mda0c2c8bc0" x="128.695051" y="208.229546" style="fill: #1f77b4; fill-opacity: 0.8; stroke: #1f77b4; stroke-opacity: 0.8"/>
     <use xlink:href="#mda0c2c8bc0" x="69.499091" y="168.784104" style="fill: #1f77b4; fill-opacity: 0.8; stroke: #1f77b4; stroke-opacity: 0.8"/>
     <use xlink:href="#mda0c2c8bc0" x="128.695051" y="192.67721" style="fill: #1f77b4; fill-opacity: 0.8; stroke: #1f77b4; stroke-opacity: 0.8"/>
     <use xlink:href="#mda0c2c8bc0" x="335.880909" y="190.643232" style="fill: #1f77b4; fill-opacity: 0.8; stroke: #1f77b4; stroke-opacity: 0.8"/>
     <use xlink:href="#mda0c2c8bc0" x="217.48899" y="263.493805" style="fill: #1f77b4; fill-opacity: 0.8; stroke: #1f77b4; stroke-opacity: 0.8"/>
     <use xlink:href="#mda0c2c8bc0" x="247.08697" y="227.546628" style="fill: #1f77b4; fill-opacity: 0.8; stroke: #1f77b4; stroke-opacity: 0.8"/>
     <use xlink:href="#mda0c2c8bc0" x="335.880909" y="181.338094" style="fill: #1f77b4; fill-opacity: 0.8; stroke: #1f77b4; stroke-opacity: 0.8"/>
     <use xlink:href="#mda0c2c8bc0" x="158.29303" y="188.525655" style="fill: #1f77b4; fill-opacity: 0.8; stroke: #1f77b4; stroke-opacity: 0.8"/>
     <use xlink:href="#mda0c2c8bc0" x="217.48899" y="161.841021" style="fill: #1f77b4; fill-opacity: 0.8; stroke: #1f77b4; stroke-opacity: 0.8"/>
     <use xlink:href="#mda0c2c8bc0" x="99.097071" y="159.184158" style="fill: #1f77b4; fill-opacity: 0.8; stroke: #1f77b4; stroke-opacity: 0.8"/>
     <use xlink:href="#mda0c2c8bc0" x="128.695051" y="174.611075" style="fill: #1f77b4; fill-opacity: 0.8; stroke: #1f77b4; stroke-opacity: 0.8"/>
     <use xlink:href="#mda0c2c8bc0" x="69.499091" y="256.085086" style="fill: #1f77b4; fill-opacity: 0.8; stroke: #1f77b4; stroke-opacity: 0.8"/>
     <use xlink:href="#mda0c2c8bc0" x="306.282929" y="218.006846" style="fill: #1f77b4; fill-opacity: 0.8; stroke: #1f77b4; stroke-opacity: 0.8"/>
     <use xlink:href="#mda0c2c8bc0" x="69.499091" y="249.266425" style="fill: #1f77b4; fill-opacity: 0.8; stroke: #1f77b4; stroke-opacity: 0.8"/>
     <use xlink:href="#mda0c2c8bc0" x="99.097071" y="197.150431" style="fill: #1f77b4; fill-opacity: 0.8; stroke: #1f77b4; stroke-opacity: 0.8"/>
     <use xlink:href="#mda0c2c8bc0" x="187.89101" y="92.217007" style="fill: #1f77b4; fill-opacity: 0.8; stroke: #1f77b4; stroke-opacity: 0.8"/>
     <use xlink:href="#mda0c2c8bc0" x="306.282929" y="215.77656" style="fill: #1f77b4; fill-opacity: 0.8; stroke: #1f77b4; stroke-opacity: 0.8"/>
     <use xlink:href="#mda0c2c8bc0" x="247.08697" y="212.819913" style="fill: #1f77b4; fill-opacity: 0.8; stroke: #1f77b4; stroke-opacity: 0.8"/>
     <use xlink:href="#mda0c2c8bc0" x="99.097071" y="24.760852" style="fill: #1f77b4; fill-opacity: 0.8; stroke: #1f77b4; stroke-opacity: 0.8"/>
     <use xlink:href="#mda0c2c8bc0" x="158.29303" y="208.046863" style="fill: #1f77b4; fill-opacity: 0.8; stroke: #1f77b4; stroke-opacity: 0.8"/>
     <use xlink:href="#mda0c2c8bc0" x="99.097071" y="242.790411" style="fill: #1f77b4; fill-opacity: 0.8; stroke: #1f77b4; stroke-opacity: 0.8"/>
     <use xlink:href="#mda0c2c8bc0" x="217.48899" y="175.264051" style="fill: #1f77b4; fill-opacity: 0.8; stroke: #1f77b4; stroke-opacity: 0.8"/>
     <use xlink:href="#mda0c2c8bc0" x="247.08697" y="196.837903" style="fill: #1f77b4; fill-opacity: 0.8; stroke: #1f77b4; stroke-opacity: 0.8"/>
    </g>
   </g>
   <g id="PolyCollection_1">
    <path d="M 69.499091 156.494858 
L 69.499091 217.24376 
L 72.189816 217.052598 
L 74.880542 216.861436 
L 77.571267 216.665807 
L 80.261993 216.518248 
L 82.952718 216.376341 
L 85.643444 216.313314 
L 88.334169 216.181148 
L 91.024894 215.95297 
L 93.71562 215.747173 
L 96.406345 215.605634 
L 99.097071 215.435639 
L 101.787796 215.322479 
L 104.478522 215.179204 
L 107.169247 215.041593 
L 109.859972 214.981975 
L 112.550698 214.837094 
L 115.241423 214.706 
L 117.932149 214.567916 
L 120.622874 214.470282 
L 123.3136 214.292764 
L 126.004325 214.282456 
L 128.695051 214.127768 
L 131.385776 214.075492 
L 134.076501 213.982713 
L 136.767227 213.930281 
L 139.457952 213.910613 
L 142.148678 213.886149 
L 144.839403 213.677071 
L 147.530129 213.494726 
L 150.220854 213.545899 
L 152.911579 213.555505 
L 155.602305 213.404556 
L 158.29303 213.461526 
L 160.983756 213.378708 
L 163.674481 213.429939 
L 166.365207 213.360489 
L 169.055932 213.350718 
L 171.746657 213.339225 
L 174.437383 213.438368 
L 177.128108 213.557032 
L 179.818834 213.635435 
L 182.509559 213.620437 
L 185.200285 213.75336 
L 187.89101 213.948852 
L 190.581736 214.032758 
L 193.272461 213.989983 
L 195.963186 213.95027 
L 198.653912 214.033934 
L 201.344637 214.167161 
L 204.035363 214.302677 
L 206.726088 214.436117 
L 209.416814 214.569557 
L 212.107539 214.800322 
L 214.798264 214.857111 
L 217.48899 214.911279 
L 220.179715 215.053884 
L 222.870441 215.305379 
L 225.561166 215.555337 
L 228.251892 215.806935 
L 230.942617 215.999347 
L 233.633343 216.122854 
L 236.324068 216.254426 
L 239.014793 216.603268 
L 241.705519 216.851485 
L 244.396244 217.149379 
L 247.08697 217.403956 
L 249.777695 217.627369 
L 252.468421 217.762692 
L 255.159146 218.039673 
L 257.849871 218.34764 
L 260.540597 218.583982 
L 263.231322 219.039804 
L 265.922048 219.321317 
L 268.612773 219.72628 
L 271.303499 220.010346 
L 273.994224 220.391185 
L 276.684949 220.677644 
L 279.375675 220.84073 
L 282.0664 221.066296 
L 284.757126 221.462617 
L 287.447851 221.837011 
L 290.138577 222.292762 
L 292.829302 222.708536 
L 295.520028 223.039247 
L 298.210753 223.434154 
L 300.901478 223.696982 
L 303.592204 224.06321 
L 306.282929 224.474216 
L 308.973655 225.128446 
L 311.66438 225.777378 
L 314.355106 226.425262 
L 317.045831 226.774806 
L 319.736556 227.27736 
L 322.427282 227.809899 
L 325.118007 228.272473 
L 327.808733 228.9591 
L 330.499458 229.519368 
L 333.190184 229.919676 
L 335.880909 230.22023 
L 335.880909 188.542578 
L 335.880909 188.542578 
L 333.190184 188.468351 
L 330.499458 188.457331 
L 327.808733 188.722431 
L 325.118007 189.04613 
L 322.427282 189.297423 
L 319.736556 189.440442 
L 317.045831 189.516667 
L 314.355106 189.702131 
L 311.66438 189.7334 
L 308.973655 189.83933 
L 306.282929 189.948408 
L 303.592204 190.216722 
L 300.901478 190.540811 
L 298.210753 190.704539 
L 295.520028 190.714963 
L 292.829302 190.796692 
L 290.138577 190.946067 
L 287.447851 190.974774 
L 284.757126 191.003378 
L 282.0664 191.063279 
L 279.375675 191.124601 
L 276.684949 191.138921 
L 273.994224 191.241783 
L 271.303499 191.298194 
L 268.612773 191.364174 
L 265.922048 191.423656 
L 263.231322 191.384473 
L 260.540597 191.545395 
L 257.849871 191.596052 
L 255.159146 191.390912 
L 252.468421 190.877325 
L 249.777695 190.681883 
L 247.08697 190.650762 
L 244.396244 190.564923 
L 241.705519 190.621921 
L 239.014793 190.376494 
L 236.324068 190.175749 
L 233.633343 189.74274 
L 230.942617 189.670003 
L 228.251892 189.525326 
L 225.561166 189.308732 
L 222.870441 189.027766 
L 220.179715 188.737274 
L 217.48899 188.479036 
L 214.798264 188.175867 
L 212.107539 187.720048 
L 209.416814 187.380328 
L 206.726088 187.023909 
L 204.035363 186.580516 
L 201.344637 186.00937 
L 198.653912 185.437333 
L 195.963186 184.865722 
L 193.272461 184.291902 
L 190.581736 183.718715 
L 187.89101 183.402025 
L 185.200285 182.726295 
L 182.509559 182.211742 
L 179.818834 181.891379 
L 177.128108 181.318317 
L 174.437383 180.697282 
L 171.746657 180.074118 
L 169.055932 179.452582 
L 166.365207 178.836852 
L 163.674481 178.285837 
L 160.983756 177.610376 
L 158.29303 176.975691 
L 155.602305 176.398557 
L 152.911579 175.767657 
L 150.220854 175.134964 
L 147.530129 174.561401 
L 144.839403 173.987839 
L 142.148678 173.414277 
L 139.457952 172.840715 
L 136.767227 172.269569 
L 134.076501 171.700966 
L 131.385776 171.133145 
L 128.695051 170.553581 
L 126.004325 169.978146 
L 123.3136 169.402711 
L 120.622874 168.827277 
L 117.932149 168.252217 
L 115.241423 167.678654 
L 112.550698 167.105092 
L 109.859972 166.53153 
L 107.169247 165.957968 
L 104.478522 165.384405 
L 101.787796 164.673648 
L 99.097071 163.901578 
L 96.406345 163.129509 
L 93.71562 162.357439 
L 91.024894 161.58537 
L 88.334169 160.848043 
L 85.643444 160.223851 
L 82.952718 159.59966 
L 80.261993 158.975468 
L 77.571267 158.354937 
L 74.880542 157.73491 
L 72.189816 157.114884 
L 69.499091 156.494858 
z
" clip-path="url(#pb4830c9f48)" style="fill: #1f77b4; fill-opacity: 0.15"/>
   </g>
   <g id="matplotlib.axis_1">
    <g id="xtick_1">
     <g id="line2d_1">
      <defs>
       <path id="mc1cb4cf0fb" d="M 0 0 
L 0 3.5 
" style="stroke: #000000; stroke-width: 0.8"/>
      </defs>
      <g>
       <use xlink:href="#mc1cb4cf0fb" x="85.204141" y="317.93875" style="stroke: #000000; stroke-width: 0.8"/>
      </g>
     </g>
     <g id="text_1">
      <text style="font: 10px 'sans-serif'; text-anchor: middle" x="85.204141" y="332.537188" transform="rotate(-0, 85.204141, 332.537188)">−4</text>
     </g>
    </g>
    <g id="xtick_2">
     <g id="line2d_2">
      <g>
       <use xlink:href="#mc1cb4cf0fb" x="144.400101" y="317.93875" style="stroke: #000000; stroke-width: 0.8"/>
      </g>
     </g>
     <g id="text_2">
      <text style="font: 10px 'sans-serif'; text-anchor: middle" x="144.400101" y="332.537188" transform="rotate(-0, 144.400101, 332.537188)">−2</text>
     </g>
    </g>
    <g id="xtick_3">
     <g id="line2d_3">
      <g>
       <use xlink:href="#mc1cb4cf0fb" x="203.596061" y="317.93875" style="stroke: #000000; stroke-width: 0.8"/>
      </g>
     </g>
     <g id="text_3">
      <text style="font: 10px 'sans-serif'; text-anchor: middle" x="203.596061" y="332.537188" transform="rotate(-0, 203.596061, 332.537188)">0</text>
     </g>
    </g>
    <g id="xtick_4">
     <g id="line2d_4">
      <g>
       <use xlink:href="#mc1cb4cf0fb" x="262.79202" y="317.93875" style="stroke: #000000; stroke-width: 0.8"/>
      </g>
     </g>
     <g id="text_4">
      <text style="font: 10px 'sans-serif'; text-anchor: middle" x="262.79202" y="332.537188" transform="rotate(-0, 262.79202, 332.537188)">2</text>
     </g>
    </g>
    <g id="xtick_5">
     <g id="line2d_5">
      <g>
       <use xlink:href="#mc1cb4cf0fb" x="321.98798" y="317.93875" style="stroke: #000000; stroke-width: 0.8"/>
      </g>
     </g>
     <g id="text_5">
      <text style="font: 10px 'sans-serif'; text-anchor: middle" x="321.98798" y="332.537188" transform="rotate(-0, 321.98798, 332.537188)">4</text>
     </g>
    </g>
    <g id="text_6">
     <text style="font: 10px 'sans-serif'; text-anchor: middle" x="202.69" y="346.215312" transform="rotate(-0, 202.69, 346.215312)">Composite_Reward</text>
    </g>
   </g>
   <g id="matplotlib.axis_2">
    <g id="ytick_1">
     <g id="line2d_6">
      <defs>
       <path id="m4f6dc95251" d="M 0 0 
L -3.5 0 
" style="stroke: #000000; stroke-width: 0.8"/>
      </defs>
      <g>
       <use xlink:href="#m4f6dc95251" x="56.18" y="309.313918" style="stroke: #000000; stroke-width: 0.8"/>
      </g>
     </g>
     <g id="text_7">
      <text style="font: 10px 'sans-serif'; text-anchor: end" x="49.18" y="313.113136" transform="rotate(-0, 49.18, 313.113136)">−0.6</text>
     </g>
    </g>
    <g id="ytick_2">
     <g id="line2d_7">
      <g>
       <use xlink:href="#m4f6dc95251" x="56.18" y="274.992046" style="stroke: #000000; stroke-width: 0.8"/>
      </g>
     </g>
     <g id="text_8">
      <text style="font: 10px 'sans-serif'; text-anchor: end" x="49.18" y="278.791265" transform="rotate(-0, 49.18, 278.791265)">−0.4</text>
     </g>
    </g>
    <g id="ytick_3">
     <g id="line2d_8">
      <g>
       <use xlink:href="#m4f6dc95251" x="56.18" y="240.670174" style="stroke: #000000; stroke-width: 0.8"/>
      </g>
     </g>
     <g id="text_9">
      <text style="font: 10px 'sans-serif'; text-anchor: end" x="49.18" y="244.469393" transform="rotate(-0, 49.18, 244.469393)">−0.2</text>
     </g>
    </g>
    <g id="ytick_4">
     <g id="line2d_9">
      <g>
       <use xlink:href="#m4f6dc95251" x="56.18" y="206.348302" style="stroke: #000000; stroke-width: 0.8"/>
      </g>
     </g>
     <g id="text_10">
      <text style="font: 10px 'sans-serif'; text-anchor: end" x="49.18" y="210.147521" transform="rotate(-0, 49.18, 210.147521)">0.0</text>
     </g>
    </g>
    <g id="ytick_5">
     <g id="line2d_10">
      <g>
       <use xlink:href="#m4f6dc95251" x="56.18" y="172.02643" style="stroke: #000000; stroke-width: 0.8"/>
      </g>
     </g>
     <g id="text_11">
      <text style="font: 10px 'sans-serif'; text-anchor: end" x="49.18" y="175.825649" transform="rotate(-0, 49.18, 175.825649)">0.2</text>
     </g>
    </g>
    <g id="ytick_6">
     <g id="line2d_11">
      <g>
       <use xlink:href="#m4f6dc95251" x="56.18" y="137.704559" style="stroke: #000000; stroke-width: 0.8"/>
      </g>
     </g>
     <g id="text_12">
      <text style="font: 10px 'sans-serif'; text-anchor: end" x="49.18" y="141.503777" transform="rotate(-0, 49.18, 141.503777)">0.4</text>
     </g>
    </g>
    <g id="ytick_7">
     <g id="line2d_12">
      <g>
       <use xlink:href="#m4f6dc95251" x="56.18" y="103.382687" style="stroke: #000000; stroke-width: 0.8"/>
      </g>
     </g>
     <g id="text_13">
      <text style="font: 10px 'sans-serif'; text-anchor: end" x="49.18" y="107.181906" transform="rotate(-0, 49.18, 107.181906)">0.6</text>
     </g>
    </g>
    <g id="ytick_8">
     <g id="line2d_13">
      <g>
       <use xlink:href="#m4f6dc95251" x="56.18" y="69.060815" style="stroke: #000000; stroke-width: 0.8"/>
      </g>
     </g>
     <g id="text_14">
      <text style="font: 10px 'sans-serif'; text-anchor: end" x="49.18" y="72.860034" transform="rotate(-0, 49.18, 72.860034)">0.8</text>
     </g>
    </g>
    <g id="ytick_9">
     <g id="line2d_14">
      <g>
       <use xlink:href="#m4f6dc95251" x="56.18" y="34.738943" style="stroke: #000000; stroke-width: 0.8"/>
      </g>
     </g>
     <g id="text_15">
      <text style="font: 10px 'sans-serif'; text-anchor: end" x="49.18" y="38.538162" transform="rotate(-0, 49.18, 38.538162)">1.0</text>
     </g>
    </g>
    <g id="text_16">
     <text style="font: 10px 'sans-serif'; text-anchor: middle" x="18.8175" y="164.369375" transform="rotate(-90, 18.8175, 164.369375)">Conn LL-SL</text>
    </g>
   </g>
   <g id="line2d_15">
    <path d="M 69.499091 192.471912 
L 72.189816 192.655561 
L 74.880542 192.839209 
L 77.571267 193.022857 
L 80.261993 193.206506 
L 82.952718 193.390154 
L 85.643444 193.573802 
L 88.334169 193.75745 
L 91.024894 193.941099 
L 93.71562 194.124747 
L 96.406345 194.308395 
L 99.097071 194.492044 
L 101.787796 194.675692 
L 104.478522 194.85934 
L 107.169247 195.042988 
L 109.859972 195.226637 
L 112.550698 195.410285 
L 115.241423 195.593933 
L 117.932149 195.777581 
L 120.622874 195.96123 
L 123.3136 196.144878 
L 126.004325 196.328526 
L 128.695051 196.512175 
L 131.385776 196.695823 
L 134.076501 196.879471 
L 136.767227 197.063119 
L 139.457952 197.246768 
L 142.148678 197.430416 
L 144.839403 197.614064 
L 147.530129 197.797713 
L 150.220854 197.981361 
L 152.911579 198.165009 
L 155.602305 198.348657 
L 158.29303 198.532306 
L 160.983756 198.715954 
L 163.674481 198.899602 
L 166.365207 199.083251 
L 169.055932 199.266899 
L 171.746657 199.450547 
L 174.437383 199.634195 
L 177.128108 199.817844 
L 179.818834 200.001492 
L 182.509559 200.18514 
L 185.200285 200.368788 
L 187.89101 200.552437 
L 190.581736 200.736085 
L 193.272461 200.919733 
L 195.963186 201.103382 
L 198.653912 201.28703 
L 201.344637 201.470678 
L 204.035363 201.654326 
L 206.726088 201.837975 
L 209.416814 202.021623 
L 212.107539 202.205271 
L 214.798264 202.38892 
L 217.48899 202.572568 
L 220.179715 202.756216 
L 222.870441 202.939864 
L 225.561166 203.123513 
L 228.251892 203.307161 
L 230.942617 203.490809 
L 233.633343 203.674458 
L 236.324068 203.858106 
L 239.014793 204.041754 
L 241.705519 204.225402 
L 244.396244 204.409051 
L 247.08697 204.592699 
L 249.777695 204.776347 
L 252.468421 204.959995 
L 255.159146 205.143644 
L 257.849871 205.327292 
L 260.540597 205.51094 
L 263.231322 205.694589 
L 265.922048 205.878237 
L 268.612773 206.061885 
L 271.303499 206.245533 
L 273.994224 206.429182 
L 276.684949 206.61283 
L 279.375675 206.796478 
L 282.0664 206.980127 
L 284.757126 207.163775 
L 287.447851 207.347423 
L 290.138577 207.531071 
L 292.829302 207.71472 
L 295.520028 207.898368 
L 298.210753 208.082016 
L 300.901478 208.265664 
L 303.592204 208.449313 
L 306.282929 208.632961 
L 308.973655 208.816609 
L 311.66438 209.000258 
L 314.355106 209.183906 
L 317.045831 209.367554 
L 319.736556 209.551202 
L 322.427282 209.734851 
L 325.118007 209.918499 
L 327.808733 210.102147 
L 330.499458 210.285796 
L 333.190184 210.469444 
L 335.880909 210.653092 
" clip-path="url(#pb4830c9f48)" style="fill: none; stroke: #1f77b4; stroke-width: 2.25; stroke-linecap: square"/>
   </g>
   <g id="patch_3">
    <path d="M 56.18 317.93875 
L 56.18 10.8 
" style="fill: none; stroke: #000000; stroke-width: 0.8; stroke-linejoin: miter; stroke-linecap: square"/>
   </g>
   <g id="patch_4">
    <path d="M 56.18 317.93875 
L 349.2 317.93875 
" style="fill: none; stroke: #000000; stroke-width: 0.8; stroke-linejoin: miter; stroke-linecap: square"/>
   </g>
  </g>
 </g>
 <defs>
  <clipPath id="pb4830c9f48">
   <rect x="56.18" y="10.8" width="293.02" height="307.13875"/>
  </clipPath>
 </defs>
</svg>
