<?xml version="1.0" encoding="utf-8" standalone="no"?>
<!DOCTYPE svg PUBLIC "-//W3C//DTD SVG 1.1//EN"
  "http://www.w3.org/Graphics/SVG/1.1/DTD/svg11.dtd">
<svg xmlns:xlink="http://www.w3.org/1999/xlink" width="360pt" height="360pt" viewBox="0 0 360 360" xmlns="http://www.w3.org/2000/svg" version="1.1">
 <metadata>
  <rdf:RDF xmlns:dc="http://purl.org/dc/elements/1.1/" xmlns:cc="http://creativecommons.org/ns#" xmlns:rdf="http://www.w3.org/1999/02/22-rdf-syntax-ns#">
   <cc:Work>
    <dc:type rdf:resource="http://purl.org/dc/dcmitype/StillImage"/>
    <dc:date>2022-11-22T21:50:56.238401</dc:date>
    <dc:format>image/svg+xml</dc:format>
    <dc:creator>
     <cc:Agent>
      <dc:title>Matplotlib v3.5.3, https://matplotlib.org/</dc:title>
     </cc:Agent>
    </dc:creator>
   </cc:Work>
  </rdf:RDF>
 </metadata>
 <defs>
  <style type="text/css">*{stroke-linejoin: round; stroke-linecap: butt}</style>
 </defs>
 <g id="figure_1">
  <g id="patch_1">
   <path d="M 0 360 
L 360 360 
L 360 0 
L 0 0 
z
" style="fill: #ffffff"/>
  </g>
  <g id="axes_1">
   <g id="patch_2">
    <path d="M 56.18 317.93875 
L 349.2 317.93875 
L 349.2 10.8 
L 56.18 10.8 
z
" style="fill: #ffffff"/>
   </g>
   <g id="PathCollection_1">
    <defs>
     <path id="mdbac83ef54" d="M 0 3 
C 0.795609 3 1.55874 2.683901 2.12132 2.12132 
C 2.683901 1.55874 3 0.795609 3 0 
C 3 -0.795609 2.683901 -1.55874 2.12132 -2.12132 
C 1.55874 -2.683901 0.795609 -3 0 -3 
C -0.795609 -3 -1.55874 -2.683901 -2.12132 -2.12132 
C -2.683901 -1.55874 -3 -0.795609 -3 0 
C -3 0.795609 -2.683901 1.55874 -2.12132 2.12132 
C -1.55874 2.683901 -0.795609 3 0 3 
z
" style="stroke: #1f77b4; stroke-opacity: 0.8"/>
    </defs>
    <g clip-path="url(#pa9f20cf2be)">
     <use xlink:href="#mdbac83ef54" x="217.48899" y="201.460982" style="fill: #1f77b4; fill-opacity: 0.8; stroke: #1f77b4; stroke-opacity: 0.8"/>
     <use xlink:href="#mdbac83ef54" x="217.48899" y="269.395328" style="fill: #1f77b4; fill-opacity: 0.8; stroke: #1f77b4; stroke-opacity: 0.8"/>
     <use xlink:href="#mdbac83ef54" x="276.684949" y="256.409319" style="fill: #1f77b4; fill-opacity: 0.8; stroke: #1f77b4; stroke-opacity: 0.8"/>
     <use xlink:href="#mdbac83ef54" x="187.89101" y="24.760852" style="fill: #1f77b4; fill-opacity: 0.8; stroke: #1f77b4; stroke-opacity: 0.8"/>
     <use xlink:href="#mdbac83ef54" x="247.08697" y="123.284038" style="fill: #1f77b4; fill-opacity: 0.8; stroke: #1f77b4; stroke-opacity: 0.8"/>
     <use xlink:href="#mdbac83ef54" x="158.29303" y="129.631915" style="fill: #1f77b4; fill-opacity: 0.8; stroke: #1f77b4; stroke-opacity: 0.8"/>
     <use xlink:href="#mdbac83ef54" x="276.684949" y="164.781061" style="fill: #1f77b4; fill-opacity: 0.8; stroke: #1f77b4; stroke-opacity: 0.8"/>
     <use xlink:href="#mdbac83ef54" x="69.499091" y="183.538787" style="fill: #1f77b4; fill-opacity: 0.8; stroke: #1f77b4; stroke-opacity: 0.8"/>
     <use xlink:href="#mdbac83ef54" x="335.880909" y="220.040007" style="fill: #1f77b4; fill-opacity: 0.8; stroke: #1f77b4; stroke-opacity: 0.8"/>
     <use xlink:href="#mdbac83ef54" x="99.097071" y="192.963608" style="fill: #1f77b4; fill-opacity: 0.8; stroke: #1f77b4; stroke-opacity: 0.8"/>
     <use xlink:href="#mdbac83ef54" x="306.282929" y="145.27323" style="fill: #1f77b4; fill-opacity: 0.8; stroke: #1f77b4; stroke-opacity: 0.8"/>
     <use xlink:href="#mdbac83ef54" x="276.684949" y="273.958223" style="fill: #1f77b4; fill-opacity: 0.8; stroke: #1f77b4; stroke-opacity: 0.8"/>
     <use xlink:href="#mdbac83ef54" x="158.29303" y="196.862071" style="fill: #1f77b4; fill-opacity: 0.8; stroke: #1f77b4; stroke-opacity: 0.8"/>
     <use xlink:href="#mdbac83ef54" x="276.684949" y="147.535278" style="fill: #1f77b4; fill-opacity: 0.8; stroke: #1f77b4; stroke-opacity: 0.8"/>
     <use xlink:href="#mdbac83ef54" x="128.695051" y="182.736231" style="fill: #1f77b4; fill-opacity: 0.8; stroke: #1f77b4; stroke-opacity: 0.8"/>
     <use xlink:href="#mdbac83ef54" x="335.880909" y="173.491957" style="fill: #1f77b4; fill-opacity: 0.8; stroke: #1f77b4; stroke-opacity: 0.8"/>
     <use xlink:href="#mdbac83ef54" x="99.097071" y="227.334411" style="fill: #1f77b4; fill-opacity: 0.8; stroke: #1f77b4; stroke-opacity: 0.8"/>
     <use xlink:href="#mdbac83ef54" x="306.282929" y="149.422507" style="fill: #1f77b4; fill-opacity: 0.8; stroke: #1f77b4; stroke-opacity: 0.8"/>
     <use xlink:href="#mdbac83ef54" x="276.684949" y="184.706313" style="fill: #1f77b4; fill-opacity: 0.8; stroke: #1f77b4; stroke-opacity: 0.8"/>
     <use xlink:href="#mdbac83ef54" x="247.08697" y="303.977898" style="fill: #1f77b4; fill-opacity: 0.8; stroke: #1f77b4; stroke-opacity: 0.8"/>
     <use xlink:href="#mdbac83ef54" x="158.29303" y="170.296119" style="fill: #1f77b4; fill-opacity: 0.8; stroke: #1f77b4; stroke-opacity: 0.8"/>
     <use xlink:href="#mdbac83ef54" x="128.695051" y="181.650757" style="fill: #1f77b4; fill-opacity: 0.8; stroke: #1f77b4; stroke-opacity: 0.8"/>
     <use xlink:href="#mdbac83ef54" x="335.880909" y="303.837152" style="fill: #1f77b4; fill-opacity: 0.8; stroke: #1f77b4; stroke-opacity: 0.8"/>
     <use xlink:href="#mdbac83ef54" x="187.89101" y="235.047346" style="fill: #1f77b4; fill-opacity: 0.8; stroke: #1f77b4; stroke-opacity: 0.8"/>
     <use xlink:href="#mdbac83ef54" x="128.695051" y="212.514558" style="fill: #1f77b4; fill-opacity: 0.8; stroke: #1f77b4; stroke-opacity: 0.8"/>
     <use xlink:href="#mdbac83ef54" x="69.499091" y="232.271726" style="fill: #1f77b4; fill-opacity: 0.8; stroke: #1f77b4; stroke-opacity: 0.8"/>
     <use xlink:href="#mdbac83ef54" x="128.695051" y="159.347031" style="fill: #1f77b4; fill-opacity: 0.8; stroke: #1f77b4; stroke-opacity: 0.8"/>
     <use xlink:href="#mdbac83ef54" x="335.880909" y="231.807602" style="fill: #1f77b4; fill-opacity: 0.8; stroke: #1f77b4; stroke-opacity: 0.8"/>
     <use xlink:href="#mdbac83ef54" x="217.48899" y="181.918847" style="fill: #1f77b4; fill-opacity: 0.8; stroke: #1f77b4; stroke-opacity: 0.8"/>
     <use xlink:href="#mdbac83ef54" x="247.08697" y="167.156473" style="fill: #1f77b4; fill-opacity: 0.8; stroke: #1f77b4; stroke-opacity: 0.8"/>
     <use xlink:href="#mdbac83ef54" x="335.880909" y="133.604559" style="fill: #1f77b4; fill-opacity: 0.8; stroke: #1f77b4; stroke-opacity: 0.8"/>
     <use xlink:href="#mdbac83ef54" x="158.29303" y="267.473623" style="fill: #1f77b4; fill-opacity: 0.8; stroke: #1f77b4; stroke-opacity: 0.8"/>
     <use xlink:href="#mdbac83ef54" x="217.48899" y="203.543237" style="fill: #1f77b4; fill-opacity: 0.8; stroke: #1f77b4; stroke-opacity: 0.8"/>
     <use xlink:href="#mdbac83ef54" x="99.097071" y="226.347181" style="fill: #1f77b4; fill-opacity: 0.8; stroke: #1f77b4; stroke-opacity: 0.8"/>
     <use xlink:href="#mdbac83ef54" x="128.695051" y="223.525776" style="fill: #1f77b4; fill-opacity: 0.8; stroke: #1f77b4; stroke-opacity: 0.8"/>
     <use xlink:href="#mdbac83ef54" x="69.499091" y="91.573104" style="fill: #1f77b4; fill-opacity: 0.8; stroke: #1f77b4; stroke-opacity: 0.8"/>
     <use xlink:href="#mdbac83ef54" x="306.282929" y="244.626939" style="fill: #1f77b4; fill-opacity: 0.8; stroke: #1f77b4; stroke-opacity: 0.8"/>
     <use xlink:href="#mdbac83ef54" x="69.499091" y="147.821808" style="fill: #1f77b4; fill-opacity: 0.8; stroke: #1f77b4; stroke-opacity: 0.8"/>
     <use xlink:href="#mdbac83ef54" x="99.097071" y="195.32382" style="fill: #1f77b4; fill-opacity: 0.8; stroke: #1f77b4; stroke-opacity: 0.8"/>
     <use xlink:href="#mdbac83ef54" x="187.89101" y="249.925221" style="fill: #1f77b4; fill-opacity: 0.8; stroke: #1f77b4; stroke-opacity: 0.8"/>
     <use xlink:href="#mdbac83ef54" x="306.282929" y="219.234525" style="fill: #1f77b4; fill-opacity: 0.8; stroke: #1f77b4; stroke-opacity: 0.8"/>
     <use xlink:href="#mdbac83ef54" x="247.08697" y="253.471149" style="fill: #1f77b4; fill-opacity: 0.8; stroke: #1f77b4; stroke-opacity: 0.8"/>
     <use xlink:href="#mdbac83ef54" x="99.097071" y="141.737888" style="fill: #1f77b4; fill-opacity: 0.8; stroke: #1f77b4; stroke-opacity: 0.8"/>
     <use xlink:href="#mdbac83ef54" x="158.29303" y="280.091117" style="fill: #1f77b4; fill-opacity: 0.8; stroke: #1f77b4; stroke-opacity: 0.8"/>
     <use xlink:href="#mdbac83ef54" x="99.097071" y="219.09027" style="fill: #1f77b4; fill-opacity: 0.8; stroke: #1f77b4; stroke-opacity: 0.8"/>
     <use xlink:href="#mdbac83ef54" x="217.48899" y="172.783196" style="fill: #1f77b4; fill-opacity: 0.8; stroke: #1f77b4; stroke-opacity: 0.8"/>
     <use xlink:href="#mdbac83ef54" x="247.08697" y="178.672164" style="fill: #1f77b4; fill-opacity: 0.8; stroke: #1f77b4; stroke-opacity: 0.8"/>
    </g>
   </g>
   <g id="PolyCollection_1">
    <path d="M 69.499091 160.754705 
L 69.499091 211.924562 
L 72.189816 211.760619 
L 74.880542 211.70244 
L 77.571267 211.586155 
L 80.261993 211.310038 
L 82.952718 210.965424 
L 85.643444 210.567155 
L 88.334169 210.29299 
L 91.024894 209.987874 
L 93.71562 209.766442 
L 96.406345 209.696615 
L 99.097071 209.626788 
L 101.787796 209.556961 
L 104.478522 209.464107 
L 107.169247 209.144447 
L 109.859972 209.017114 
L 112.550698 209.202744 
L 115.241423 209.0911 
L 117.932149 209.010125 
L 120.622874 209.011074 
L 123.3136 208.81224 
L 126.004325 208.780042 
L 128.695051 208.868889 
L 131.385776 208.911993 
L 134.076501 209.156084 
L 136.767227 208.949372 
L 139.457952 208.991258 
L 142.148678 209.223207 
L 144.839403 209.330529 
L 147.530129 209.201136 
L 150.220854 209.35166 
L 152.911579 209.547015 
L 155.602305 209.773715 
L 158.29303 210.037932 
L 160.983756 209.998325 
L 163.674481 209.895677 
L 166.365207 209.784883 
L 169.055932 209.829939 
L 171.746657 209.845443 
L 174.437383 209.728992 
L 177.128108 209.862451 
L 179.818834 210.371261 
L 182.509559 210.561164 
L 185.200285 210.971816 
L 187.89101 211.33038 
L 190.581736 211.447532 
L 193.272461 211.690904 
L 195.963186 211.968173 
L 198.653912 212.308684 
L 201.344637 212.713266 
L 204.035363 213.1486 
L 206.726088 213.622562 
L 209.416814 214.024824 
L 212.107539 214.456472 
L 214.798264 214.893974 
L 217.48899 215.582682 
L 220.179715 215.76648 
L 222.870441 216.201037 
L 225.561166 216.634354 
L 228.251892 217.070151 
L 230.942617 217.460521 
L 233.633343 217.924343 
L 236.324068 218.312038 
L 239.014793 218.813461 
L 241.705519 219.249831 
L 244.396244 219.684032 
L 247.08697 219.990148 
L 249.777695 220.555071 
L 252.468421 220.979934 
L 255.159146 221.426356 
L 257.849871 221.86343 
L 260.540597 222.300504 
L 263.231322 222.737578 
L 265.922048 223.174652 
L 268.612773 223.658323 
L 271.303499 224.22027 
L 273.994224 224.782217 
L 276.684949 225.344164 
L 279.375675 225.910639 
L 282.0664 226.482616 
L 284.757126 227.080892 
L 287.447851 227.883768 
L 290.138577 228.501925 
L 292.829302 229.123143 
L 295.520028 229.516323 
L 298.210753 230.042685 
L 300.901478 230.740569 
L 303.592204 231.443036 
L 306.282929 232.048586 
L 308.973655 232.558894 
L 311.66438 233.036109 
L 314.355106 233.527383 
L 317.045831 233.975607 
L 319.736556 234.368629 
L 322.427282 234.930687 
L 325.118007 235.492746 
L 327.808733 235.992212 
L 330.499458 236.487048 
L 333.190184 237.04601 
L 335.880909 237.690812 
L 335.880909 179.266477 
L 335.880909 179.266477 
L 333.190184 179.599371 
L 330.499458 179.933964 
L 327.808733 180.142307 
L 325.118007 180.521118 
L 322.427282 180.771879 
L 319.736556 180.883469 
L 317.045831 180.995761 
L 314.355106 181.110169 
L 311.66438 181.224578 
L 308.973655 181.296326 
L 306.282929 181.287002 
L 303.592204 181.404618 
L 300.901478 181.682211 
L 298.210753 181.79662 
L 295.520028 181.911028 
L 292.829302 181.979401 
L 290.138577 182.14114 
L 287.447851 182.186868 
L 284.757126 182.368662 
L 282.0664 182.48307 
L 279.375675 182.736717 
L 276.684949 182.982425 
L 273.994224 182.958968 
L 271.303499 182.975979 
L 268.612773 183.191901 
L 265.922048 183.226092 
L 263.231322 183.275573 
L 260.540597 183.334856 
L 257.849871 183.312596 
L 255.159146 183.274822 
L 252.468421 183.468113 
L 249.777695 183.449739 
L 247.08697 183.450737 
L 244.396244 183.48001 
L 241.705519 183.50322 
L 239.014793 183.616415 
L 236.324068 183.578359 
L 233.633343 183.610344 
L 230.942617 183.679622 
L 228.251892 183.592056 
L 225.561166 183.692202 
L 222.870441 183.461971 
L 220.179715 183.258839 
L 217.48899 182.908792 
L 214.798264 182.698959 
L 212.107539 182.6347 
L 209.416814 182.522139 
L 206.726088 182.597091 
L 204.035363 182.407452 
L 201.344637 182.370018 
L 198.653912 182.085317 
L 195.963186 182.018681 
L 193.272461 181.983005 
L 190.581736 181.609461 
L 187.89101 181.22206 
L 185.200285 180.927889 
L 182.509559 180.707388 
L 179.818834 180.373552 
L 177.128108 180.249451 
L 174.437383 179.826577 
L 171.746657 179.403377 
L 169.055932 178.795036 
L 166.365207 178.405968 
L 163.674481 178.156588 
L 160.983756 177.90259 
L 158.29303 177.270015 
L 155.602305 176.860622 
L 152.911579 176.498795 
L 150.220854 175.996464 
L 147.530129 175.559723 
L 144.839403 175.129624 
L 142.148678 174.701491 
L 139.457952 174.274124 
L 136.767227 173.650484 
L 134.076501 173.322201 
L 131.385776 172.994705 
L 128.695051 172.48098 
L 126.004325 172.046646 
L 123.3136 171.649433 
L 120.622874 171.256401 
L 117.932149 170.860267 
L 115.241423 170.428747 
L 112.550698 169.996231 
L 109.859972 169.563716 
L 107.169247 168.976079 
L 104.478522 168.185444 
L 101.787796 167.338592 
L 99.097071 166.881852 
L 96.406345 166.299409 
L 93.71562 165.632296 
L 91.024894 164.965184 
L 88.334169 164.396171 
L 85.643444 163.887739 
L 82.952718 163.379306 
L 80.261993 162.871784 
L 77.571267 162.279436 
L 74.880542 161.664521 
L 72.189816 161.17045 
L 69.499091 160.754705 
z
" clip-path="url(#pa9f20cf2be)" style="fill: #1f77b4; fill-opacity: 0.15"/>
   </g>
   <g id="matplotlib.axis_1">
    <g id="xtick_1">
     <g id="line2d_1">
      <defs>
       <path id="m93f3b3b92e" d="M 0 0 
L 0 3.5 
" style="stroke: #000000; stroke-width: 0.8"/>
      </defs>
      <g>
       <use xlink:href="#m93f3b3b92e" x="85.204141" y="317.93875" style="stroke: #000000; stroke-width: 0.8"/>
      </g>
     </g>
     <g id="text_1">
      <text style="font: 10px 'sans-serif'; text-anchor: middle" x="85.204141" y="332.537188" transform="rotate(-0, 85.204141, 332.537188)">−4</text>
     </g>
    </g>
    <g id="xtick_2">
     <g id="line2d_2">
      <g>
       <use xlink:href="#m93f3b3b92e" x="144.400101" y="317.93875" style="stroke: #000000; stroke-width: 0.8"/>
      </g>
     </g>
     <g id="text_2">
      <text style="font: 10px 'sans-serif'; text-anchor: middle" x="144.400101" y="332.537188" transform="rotate(-0, 144.400101, 332.537188)">−2</text>
     </g>
    </g>
    <g id="xtick_3">
     <g id="line2d_3">
      <g>
       <use xlink:href="#m93f3b3b92e" x="203.596061" y="317.93875" style="stroke: #000000; stroke-width: 0.8"/>
      </g>
     </g>
     <g id="text_3">
      <text style="font: 10px 'sans-serif'; text-anchor: middle" x="203.596061" y="332.537188" transform="rotate(-0, 203.596061, 332.537188)">0</text>
     </g>
    </g>
    <g id="xtick_4">
     <g id="line2d_4">
      <g>
       <use xlink:href="#m93f3b3b92e" x="262.79202" y="317.93875" style="stroke: #000000; stroke-width: 0.8"/>
      </g>
     </g>
     <g id="text_4">
      <text style="font: 10px 'sans-serif'; text-anchor: middle" x="262.79202" y="332.537188" transform="rotate(-0, 262.79202, 332.537188)">2</text>
     </g>
    </g>
    <g id="xtick_5">
     <g id="line2d_5">
      <g>
       <use xlink:href="#m93f3b3b92e" x="321.98798" y="317.93875" style="stroke: #000000; stroke-width: 0.8"/>
      </g>
     </g>
     <g id="text_5">
      <text style="font: 10px 'sans-serif'; text-anchor: middle" x="321.98798" y="332.537188" transform="rotate(-0, 321.98798, 332.537188)">4</text>
     </g>
    </g>
    <g id="text_6">
     <text style="font: 10px 'sans-serif'; text-anchor: middle" x="202.69" y="346.215312" transform="rotate(-0, 202.69, 346.215312)">Composite_Reward</text>
    </g>
   </g>
   <g id="matplotlib.axis_2">
    <g id="ytick_1">
     <g id="line2d_6">
      <defs>
       <path id="mbc9b29c60c" d="M 0 0 
L -3.5 0 
" style="stroke: #000000; stroke-width: 0.8"/>
      </defs>
      <g>
       <use xlink:href="#mbc9b29c60c" x="56.18" y="313.9362" style="stroke: #000000; stroke-width: 0.8"/>
      </g>
     </g>
     <g id="text_7">
      <text style="font: 10px 'sans-serif'; text-anchor: end" x="49.18" y="317.735418" transform="rotate(-0, 49.18, 317.735418)">−1.0</text>
     </g>
    </g>
    <g id="ytick_2">
     <g id="line2d_7">
      <g>
       <use xlink:href="#mbc9b29c60c" x="56.18" y="259.319004" style="stroke: #000000; stroke-width: 0.8"/>
      </g>
     </g>
     <g id="text_8">
      <text style="font: 10px 'sans-serif'; text-anchor: end" x="49.18" y="263.118222" transform="rotate(-0, 49.18, 263.118222)">−0.5</text>
     </g>
    </g>
    <g id="ytick_3">
     <g id="line2d_8">
      <g>
       <use xlink:href="#mbc9b29c60c" x="56.18" y="204.701808" style="stroke: #000000; stroke-width: 0.8"/>
      </g>
     </g>
     <g id="text_9">
      <text style="font: 10px 'sans-serif'; text-anchor: end" x="49.18" y="208.501026" transform="rotate(-0, 49.18, 208.501026)">0.0</text>
     </g>
    </g>
    <g id="ytick_4">
     <g id="line2d_9">
      <g>
       <use xlink:href="#mbc9b29c60c" x="56.18" y="150.084611" style="stroke: #000000; stroke-width: 0.8"/>
      </g>
     </g>
     <g id="text_10">
      <text style="font: 10px 'sans-serif'; text-anchor: end" x="49.18" y="153.88383" transform="rotate(-0, 49.18, 153.88383)">0.5</text>
     </g>
    </g>
    <g id="ytick_5">
     <g id="line2d_10">
      <g>
       <use xlink:href="#mbc9b29c60c" x="56.18" y="95.467415" style="stroke: #000000; stroke-width: 0.8"/>
      </g>
     </g>
     <g id="text_11">
      <text style="font: 10px 'sans-serif'; text-anchor: end" x="49.18" y="99.266634" transform="rotate(-0, 49.18, 99.266634)">1.0</text>
     </g>
    </g>
    <g id="ytick_6">
     <g id="line2d_11">
      <g>
       <use xlink:href="#mbc9b29c60c" x="56.18" y="40.850219" style="stroke: #000000; stroke-width: 0.8"/>
      </g>
     </g>
     <g id="text_12">
      <text style="font: 10px 'sans-serif'; text-anchor: end" x="49.18" y="44.649438" transform="rotate(-0, 49.18, 44.649438)">1.5</text>
     </g>
    </g>
    <g id="text_13">
     <text style="font: 10px 'sans-serif'; text-anchor: middle" x="18.8175" y="164.369375" transform="rotate(-90, 18.8175, 164.369375)">Conn Gain&gt;Neut</text>
    </g>
   </g>
   <g id="line2d_12">
    <path d="M 69.499091 186.218853 
L 72.189816 186.44568 
L 74.880542 186.672508 
L 77.571267 186.899335 
L 80.261993 187.126162 
L 82.952718 187.35299 
L 85.643444 187.579817 
L 88.334169 187.806644 
L 91.024894 188.033472 
L 93.71562 188.260299 
L 96.406345 188.487126 
L 99.097071 188.713954 
L 101.787796 188.940781 
L 104.478522 189.167608 
L 107.169247 189.394436 
L 109.859972 189.621263 
L 112.550698 189.84809 
L 115.241423 190.074917 
L 117.932149 190.301745 
L 120.622874 190.528572 
L 123.3136 190.755399 
L 126.004325 190.982227 
L 128.695051 191.209054 
L 131.385776 191.435881 
L 134.076501 191.662709 
L 136.767227 191.889536 
L 139.457952 192.116363 
L 142.148678 192.343191 
L 144.839403 192.570018 
L 147.530129 192.796845 
L 150.220854 193.023673 
L 152.911579 193.2505 
L 155.602305 193.477327 
L 158.29303 193.704155 
L 160.983756 193.930982 
L 163.674481 194.157809 
L 166.365207 194.384637 
L 169.055932 194.611464 
L 171.746657 194.838291 
L 174.437383 195.065118 
L 177.128108 195.291946 
L 179.818834 195.518773 
L 182.509559 195.7456 
L 185.200285 195.972428 
L 187.89101 196.199255 
L 190.581736 196.426082 
L 193.272461 196.65291 
L 195.963186 196.879737 
L 198.653912 197.106564 
L 201.344637 197.333392 
L 204.035363 197.560219 
L 206.726088 197.787046 
L 209.416814 198.013874 
L 212.107539 198.240701 
L 214.798264 198.467528 
L 217.48899 198.694356 
L 220.179715 198.921183 
L 222.870441 199.14801 
L 225.561166 199.374838 
L 228.251892 199.601665 
L 230.942617 199.828492 
L 233.633343 200.055319 
L 236.324068 200.282147 
L 239.014793 200.508974 
L 241.705519 200.735801 
L 244.396244 200.962629 
L 247.08697 201.189456 
L 249.777695 201.416283 
L 252.468421 201.643111 
L 255.159146 201.869938 
L 257.849871 202.096765 
L 260.540597 202.323593 
L 263.231322 202.55042 
L 265.922048 202.777247 
L 268.612773 203.004075 
L 271.303499 203.230902 
L 273.994224 203.457729 
L 276.684949 203.684557 
L 279.375675 203.911384 
L 282.0664 204.138211 
L 284.757126 204.365039 
L 287.447851 204.591866 
L 290.138577 204.818693 
L 292.829302 205.04552 
L 295.520028 205.272348 
L 298.210753 205.499175 
L 300.901478 205.726002 
L 303.592204 205.95283 
L 306.282929 206.179657 
L 308.973655 206.406484 
L 311.66438 206.633312 
L 314.355106 206.860139 
L 317.045831 207.086966 
L 319.736556 207.313794 
L 322.427282 207.540621 
L 325.118007 207.767448 
L 327.808733 207.994276 
L 330.499458 208.221103 
L 333.190184 208.44793 
L 335.880909 208.674758 
" clip-path="url(#pa9f20cf2be)" style="fill: none; stroke: #1f77b4; stroke-width: 2.25; stroke-linecap: square"/>
   </g>
   <g id="patch_3">
    <path d="M 56.18 317.93875 
L 56.18 10.8 
" style="fill: none; stroke: #000000; stroke-width: 0.8; stroke-linejoin: miter; stroke-linecap: square"/>
   </g>
   <g id="patch_4">
    <path d="M 56.18 317.93875 
L 349.2 317.93875 
" style="fill: none; stroke: #000000; stroke-width: 0.8; stroke-linejoin: miter; stroke-linecap: square"/>
   </g>
  </g>
 </g>
 <defs>
  <clipPath id="pa9f20cf2be">
   <rect x="56.18" y="10.8" width="293.02" height="307.13875"/>
  </clipPath>
 </defs>
</svg>
