<?xml version="1.0" encoding="utf-8" standalone="no"?>
<!DOCTYPE svg PUBLIC "-//W3C//DTD SVG 1.1//EN"
  "http://www.w3.org/Graphics/SVG/1.1/DTD/svg11.dtd">
<svg xmlns:xlink="http://www.w3.org/1999/xlink" width="360pt" height="360pt" viewBox="0 0 360 360" xmlns="http://www.w3.org/2000/svg" version="1.1">
 <metadata>
  <rdf:RDF xmlns:dc="http://purl.org/dc/elements/1.1/" xmlns:cc="http://creativecommons.org/ns#" xmlns:rdf="http://www.w3.org/1999/02/22-rdf-syntax-ns#">
   <cc:Work>
    <dc:type rdf:resource="http://purl.org/dc/dcmitype/StillImage"/>
    <dc:date>2022-11-22T21:50:58.574352</dc:date>
    <dc:format>image/svg+xml</dc:format>
    <dc:creator>
     <cc:Agent>
      <dc:title>Matplotlib v3.5.3, https://matplotlib.org/</dc:title>
     </cc:Agent>
    </dc:creator>
   </cc:Work>
  </rdf:RDF>
 </metadata>
 <defs>
  <style type="text/css">*{stroke-linejoin: round; stroke-linecap: butt}</style>
 </defs>
 <g id="figure_1">
  <g id="patch_1">
   <path d="M 0 360 
L 360 360 
L 360 0 
L 0 0 
z
" style="fill: #ffffff"/>
  </g>
  <g id="axes_1">
   <g id="patch_2">
    <path d="M 46.64 317.93875 
L 349.2 317.93875 
L 349.2 11.688021 
L 46.64 11.688021 
z
" style="fill: #ffffff"/>
   </g>
   <g id="PathCollection_1">
    <defs>
     <path id="m0dddb2ac97" d="M 0 3 
C 0.795609 3 1.55874 2.683901 2.12132 2.12132 
C 2.683901 1.55874 3 0.795609 3 0 
C 3 -0.795609 2.683901 -1.55874 2.12132 -2.12132 
C 1.55874 -2.683901 0.795609 -3 0 -3 
C -0.795609 -3 -1.55874 -2.683901 -2.12132 -2.12132 
C -2.683901 -1.55874 -3 -0.795609 -3 0 
C -3 0.795609 -2.683901 1.55874 -2.12132 2.12132 
C -1.55874 2.683901 -0.795609 3 0 3 
z
" style="stroke: #1f77b4; stroke-opacity: 0.8"/>
    </defs>
    <g clip-path="url(#p0e9522fb04)">
     <use xlink:href="#m0dddb2ac97" x="213.200808" y="139.265113" style="fill: #1f77b4; fill-opacity: 0.8; stroke: #1f77b4; stroke-opacity: 0.8"/>
     <use xlink:href="#m0dddb2ac97" x="213.200808" y="168.211872" style="fill: #1f77b4; fill-opacity: 0.8; stroke: #1f77b4; stroke-opacity: 0.8"/>
     <use xlink:href="#m0dddb2ac97" x="274.32404" y="180.337933" style="fill: #1f77b4; fill-opacity: 0.8; stroke: #1f77b4; stroke-opacity: 0.8"/>
     <use xlink:href="#m0dddb2ac97" x="182.639192" y="25.608508" style="fill: #1f77b4; fill-opacity: 0.8; stroke: #1f77b4; stroke-opacity: 0.8"/>
     <use xlink:href="#m0dddb2ac97" x="243.762424" y="205.79056" style="fill: #1f77b4; fill-opacity: 0.8; stroke: #1f77b4; stroke-opacity: 0.8"/>
     <use xlink:href="#m0dddb2ac97" x="152.077576" y="195.245392" style="fill: #1f77b4; fill-opacity: 0.8; stroke: #1f77b4; stroke-opacity: 0.8"/>
     <use xlink:href="#m0dddb2ac97" x="274.32404" y="177.469015" style="fill: #1f77b4; fill-opacity: 0.8; stroke: #1f77b4; stroke-opacity: 0.8"/>
     <use xlink:href="#m0dddb2ac97" x="60.392727" y="204.525221" style="fill: #1f77b4; fill-opacity: 0.8; stroke: #1f77b4; stroke-opacity: 0.8"/>
     <use xlink:href="#m0dddb2ac97" x="335.447273" y="204.249476" style="fill: #1f77b4; fill-opacity: 0.8; stroke: #1f77b4; stroke-opacity: 0.8"/>
     <use xlink:href="#m0dddb2ac97" x="90.954343" y="232.481567" style="fill: #1f77b4; fill-opacity: 0.8; stroke: #1f77b4; stroke-opacity: 0.8"/>
     <use xlink:href="#m0dddb2ac97" x="304.885657" y="178.445009" style="fill: #1f77b4; fill-opacity: 0.8; stroke: #1f77b4; stroke-opacity: 0.8"/>
     <use xlink:href="#m0dddb2ac97" x="274.32404" y="207.105915" style="fill: #1f77b4; fill-opacity: 0.8; stroke: #1f77b4; stroke-opacity: 0.8"/>
     <use xlink:href="#m0dddb2ac97" x="152.077576" y="226.827868" style="fill: #1f77b4; fill-opacity: 0.8; stroke: #1f77b4; stroke-opacity: 0.8"/>
     <use xlink:href="#m0dddb2ac97" x="274.32404" y="165.086764" style="fill: #1f77b4; fill-opacity: 0.8; stroke: #1f77b4; stroke-opacity: 0.8"/>
     <use xlink:href="#m0dddb2ac97" x="121.51596" y="182.812603" style="fill: #1f77b4; fill-opacity: 0.8; stroke: #1f77b4; stroke-opacity: 0.8"/>
     <use xlink:href="#m0dddb2ac97" x="335.447273" y="184.726382" style="fill: #1f77b4; fill-opacity: 0.8; stroke: #1f77b4; stroke-opacity: 0.8"/>
     <use xlink:href="#m0dddb2ac97" x="90.954343" y="271.259881" style="fill: #1f77b4; fill-opacity: 0.8; stroke: #1f77b4; stroke-opacity: 0.8"/>
     <use xlink:href="#m0dddb2ac97" x="304.885657" y="194.93229" style="fill: #1f77b4; fill-opacity: 0.8; stroke: #1f77b4; stroke-opacity: 0.8"/>
     <use xlink:href="#m0dddb2ac97" x="274.32404" y="227.985353" style="fill: #1f77b4; fill-opacity: 0.8; stroke: #1f77b4; stroke-opacity: 0.8"/>
     <use xlink:href="#m0dddb2ac97" x="243.762424" y="253.793283" style="fill: #1f77b4; fill-opacity: 0.8; stroke: #1f77b4; stroke-opacity: 0.8"/>
     <use xlink:href="#m0dddb2ac97" x="152.077576" y="181.92352" style="fill: #1f77b4; fill-opacity: 0.8; stroke: #1f77b4; stroke-opacity: 0.8"/>
     <use xlink:href="#m0dddb2ac97" x="121.51596" y="197.298841" style="fill: #1f77b4; fill-opacity: 0.8; stroke: #1f77b4; stroke-opacity: 0.8"/>
     <use xlink:href="#m0dddb2ac97" x="335.447273" y="246.735625" style="fill: #1f77b4; fill-opacity: 0.8; stroke: #1f77b4; stroke-opacity: 0.8"/>
     <use xlink:href="#m0dddb2ac97" x="182.639192" y="267.889547" style="fill: #1f77b4; fill-opacity: 0.8; stroke: #1f77b4; stroke-opacity: 0.8"/>
     <use xlink:href="#m0dddb2ac97" x="121.51596" y="178.842513" style="fill: #1f77b4; fill-opacity: 0.8; stroke: #1f77b4; stroke-opacity: 0.8"/>
     <use xlink:href="#m0dddb2ac97" x="60.392727" y="223.841704" style="fill: #1f77b4; fill-opacity: 0.8; stroke: #1f77b4; stroke-opacity: 0.8"/>
     <use xlink:href="#m0dddb2ac97" x="121.51596" y="101.638481" style="fill: #1f77b4; fill-opacity: 0.8; stroke: #1f77b4; stroke-opacity: 0.8"/>
     <use xlink:href="#m0dddb2ac97" x="335.447273" y="229.649988" style="fill: #1f77b4; fill-opacity: 0.8; stroke: #1f77b4; stroke-opacity: 0.8"/>
     <use xlink:href="#m0dddb2ac97" x="213.200808" y="81.708762" style="fill: #1f77b4; fill-opacity: 0.8; stroke: #1f77b4; stroke-opacity: 0.8"/>
     <use xlink:href="#m0dddb2ac97" x="243.762424" y="201.484439" style="fill: #1f77b4; fill-opacity: 0.8; stroke: #1f77b4; stroke-opacity: 0.8"/>
     <use xlink:href="#m0dddb2ac97" x="335.447273" y="231.940131" style="fill: #1f77b4; fill-opacity: 0.8; stroke: #1f77b4; stroke-opacity: 0.8"/>
     <use xlink:href="#m0dddb2ac97" x="152.077576" y="193.696354" style="fill: #1f77b4; fill-opacity: 0.8; stroke: #1f77b4; stroke-opacity: 0.8"/>
     <use xlink:href="#m0dddb2ac97" x="213.200808" y="209.461479" style="fill: #1f77b4; fill-opacity: 0.8; stroke: #1f77b4; stroke-opacity: 0.8"/>
     <use xlink:href="#m0dddb2ac97" x="90.954343" y="193.638554" style="fill: #1f77b4; fill-opacity: 0.8; stroke: #1f77b4; stroke-opacity: 0.8"/>
     <use xlink:href="#m0dddb2ac97" x="121.51596" y="236.154645" style="fill: #1f77b4; fill-opacity: 0.8; stroke: #1f77b4; stroke-opacity: 0.8"/>
     <use xlink:href="#m0dddb2ac97" x="60.392727" y="190.572073" style="fill: #1f77b4; fill-opacity: 0.8; stroke: #1f77b4; stroke-opacity: 0.8"/>
     <use xlink:href="#m0dddb2ac97" x="304.885657" y="177.694415" style="fill: #1f77b4; fill-opacity: 0.8; stroke: #1f77b4; stroke-opacity: 0.8"/>
     <use xlink:href="#m0dddb2ac97" x="60.392727" y="230.445098" style="fill: #1f77b4; fill-opacity: 0.8; stroke: #1f77b4; stroke-opacity: 0.8"/>
     <use xlink:href="#m0dddb2ac97" x="90.954343" y="247.928689" style="fill: #1f77b4; fill-opacity: 0.8; stroke: #1f77b4; stroke-opacity: 0.8"/>
     <use xlink:href="#m0dddb2ac97" x="182.639192" y="304.018262" style="fill: #1f77b4; fill-opacity: 0.8; stroke: #1f77b4; stroke-opacity: 0.8"/>
     <use xlink:href="#m0dddb2ac97" x="304.885657" y="202.062599" style="fill: #1f77b4; fill-opacity: 0.8; stroke: #1f77b4; stroke-opacity: 0.8"/>
     <use xlink:href="#m0dddb2ac97" x="243.762424" y="185.430002" style="fill: #1f77b4; fill-opacity: 0.8; stroke: #1f77b4; stroke-opacity: 0.8"/>
     <use xlink:href="#m0dddb2ac97" x="90.954343" y="190.892334" style="fill: #1f77b4; fill-opacity: 0.8; stroke: #1f77b4; stroke-opacity: 0.8"/>
     <use xlink:href="#m0dddb2ac97" x="152.077576" y="144.702303" style="fill: #1f77b4; fill-opacity: 0.8; stroke: #1f77b4; stroke-opacity: 0.8"/>
     <use xlink:href="#m0dddb2ac97" x="90.954343" y="165.228421" style="fill: #1f77b4; fill-opacity: 0.8; stroke: #1f77b4; stroke-opacity: 0.8"/>
     <use xlink:href="#m0dddb2ac97" x="213.200808" y="215.456389" style="fill: #1f77b4; fill-opacity: 0.8; stroke: #1f77b4; stroke-opacity: 0.8"/>
     <use xlink:href="#m0dddb2ac97" x="243.762424" y="205.509821" style="fill: #1f77b4; fill-opacity: 0.8; stroke: #1f77b4; stroke-opacity: 0.8"/>
    </g>
   </g>
   <g id="PolyCollection_1">
    <path d="M 60.392727 173.783239 
L 60.392727 220.238648 
L 63.171056 219.900619 
L 65.949385 219.621088 
L 68.727713 219.393298 
L 71.506042 219.11144 
L 74.284371 218.841634 
L 77.0627 218.650432 
L 79.841028 218.261078 
L 82.619357 218.069983 
L 85.397686 217.95401 
L 88.176015 217.838037 
L 90.954343 217.68493 
L 93.732672 217.418467 
L 96.511001 217.130921 
L 99.28933 216.787473 
L 102.067658 216.444025 
L 104.845987 216.100577 
L 107.624316 215.757129 
L 110.402645 215.413467 
L 113.180973 215.21049 
L 115.959302 215.088805 
L 118.737631 214.971449 
L 121.51596 214.717253 
L 124.294288 214.485038 
L 127.072617 214.222942 
L 129.850946 214.028356 
L 132.629275 213.892143 
L 135.407603 213.75593 
L 138.185932 213.608243 
L 140.964261 213.487874 
L 143.74259 213.319913 
L 146.520918 213.086974 
L 149.299247 212.981979 
L 152.077576 212.731177 
L 154.855904 212.481575 
L 157.634233 212.348021 
L 160.412562 212.254248 
L 163.190891 212.144263 
L 165.969219 211.99107 
L 168.747548 211.93621 
L 171.525877 211.751764 
L 174.304206 211.684346 
L 177.082534 211.616928 
L 179.860863 211.498963 
L 182.639192 211.252798 
L 185.417521 211.003762 
L 188.195849 210.90799 
L 190.974178 210.817011 
L 193.752507 210.68452 
L 196.530836 210.489684 
L 199.309164 210.325863 
L 202.087493 210.172523 
L 204.865822 209.902397 
L 207.644151 209.794849 
L 210.422479 209.728747 
L 213.200808 209.806909 
L 215.979137 209.876319 
L 218.757466 209.759703 
L 221.535794 209.649659 
L 224.314123 209.653933 
L 227.092452 209.58128 
L 229.870781 209.508627 
L 232.649109 209.435974 
L 235.427438 209.413456 
L 238.205767 209.559043 
L 240.984096 209.581837 
L 243.762424 209.490723 
L 246.540753 209.367768 
L 249.319082 209.437243 
L 252.09741 209.437753 
L 254.875739 209.542074 
L 257.654068 209.63539 
L 260.432397 209.611748 
L 263.210725 209.546498 
L 265.989054 209.481247 
L 268.767383 209.415996 
L 271.545712 209.613586 
L 274.32404 209.605025 
L 277.102369 209.601137 
L 279.880698 209.593547 
L 282.659027 209.540382 
L 285.437355 209.582186 
L 288.215684 209.494892 
L 290.994013 209.406358 
L 293.772342 209.493685 
L 296.55067 209.54397 
L 299.328999 209.614478 
L 302.107328 209.761909 
L 304.885657 209.808725 
L 307.663985 209.838543 
L 310.442314 209.865097 
L 313.220643 210.030183 
L 315.998972 210.155882 
L 318.7773 210.281582 
L 321.555629 210.389321 
L 324.333958 210.479947 
L 327.112287 210.570572 
L 329.890615 210.661198 
L 332.668944 210.805385 
L 335.447273 211.04129 
L 335.447273 176.928206 
L 335.447273 176.928206 
L 332.668944 177.159135 
L 329.890615 177.367499 
L 327.112287 177.587022 
L 324.333958 177.864532 
L 321.555629 178.214694 
L 318.7773 178.409261 
L 315.998972 178.553625 
L 313.220643 178.876611 
L 310.442314 179.100484 
L 307.663985 179.298667 
L 304.885657 179.617234 
L 302.107328 179.774016 
L 299.328999 179.887692 
L 296.55067 180.08758 
L 293.772342 180.28753 
L 290.994013 180.638755 
L 288.215684 180.991289 
L 285.437355 181.346444 
L 282.659027 181.609322 
L 279.880698 181.739238 
L 277.102369 182.084559 
L 274.32404 182.173236 
L 271.545712 182.22596 
L 268.767383 182.279236 
L 265.989054 182.411646 
L 263.210725 182.710353 
L 260.432397 182.855326 
L 257.654068 182.893757 
L 254.875739 182.929504 
L 252.09741 183.192846 
L 249.319082 183.196839 
L 246.540753 183.405087 
L 243.762424 183.563297 
L 240.984096 183.62922 
L 238.205767 183.85262 
L 235.427438 183.811238 
L 232.649109 183.93577 
L 229.870781 184.006422 
L 227.092452 184.168434 
L 224.314123 184.092764 
L 221.535794 184.024298 
L 218.757466 184.149423 
L 215.979137 184.149226 
L 213.200808 184.11052 
L 210.422479 183.861666 
L 207.644151 183.945353 
L 204.865822 183.647424 
L 202.087493 183.647033 
L 199.309164 183.559355 
L 196.530836 183.609979 
L 193.752507 183.383773 
L 190.974178 183.487534 
L 188.195849 183.528461 
L 185.417521 183.261814 
L 182.639192 182.995167 
L 179.860863 182.901437 
L 177.082534 182.80765 
L 174.304206 182.690984 
L 171.525877 182.511005 
L 168.747548 182.483764 
L 165.969219 182.412741 
L 163.190891 182.080828 
L 160.412562 181.854681 
L 157.634233 181.644797 
L 154.855904 181.424704 
L 152.077576 181.209962 
L 149.299247 180.995633 
L 146.520918 180.781305 
L 143.74259 180.628687 
L 140.964261 180.501697 
L 138.185932 180.375205 
L 135.407603 180.249668 
L 132.629275 179.953838 
L 129.850946 179.761581 
L 127.072617 179.504893 
L 124.294288 179.277154 
L 121.51596 179.015369 
L 118.737631 178.753584 
L 115.959302 178.491798 
L 113.180973 178.230013 
L 110.402645 177.968508 
L 107.624316 177.748146 
L 104.845987 177.530389 
L 102.067658 177.312631 
L 99.28933 177.094873 
L 96.511001 176.877195 
L 93.732672 176.659523 
L 90.954343 176.432885 
L 88.176015 176.095782 
L 85.397686 175.952723 
L 82.619357 175.70632 
L 79.841028 175.381829 
L 77.0627 175.308866 
L 74.284371 175.138933 
L 71.506042 174.919438 
L 68.727713 174.702473 
L 65.949385 174.485742 
L 63.171056 174.144818 
L 60.392727 173.783239 
z
" clip-path="url(#p0e9522fb04)" style="fill: #1f77b4; fill-opacity: 0.15"/>
   </g>
   <g id="matplotlib.axis_1">
    <g id="xtick_1">
     <g id="line2d_1">
      <defs>
       <path id="m07be2c4fda" d="M 0 0 
L 0 3.5 
" style="stroke: #000000; stroke-width: 0.8"/>
      </defs>
      <g>
       <use xlink:href="#m07be2c4fda" x="76.609095" y="317.93875" style="stroke: #000000; stroke-width: 0.8"/>
      </g>
     </g>
     <g id="text_1">
      <text style="font: 10px 'sans-serif'; text-anchor: middle" x="76.609095" y="332.537188" transform="rotate(-0, 76.609095, 332.537188)">−4</text>
     </g>
    </g>
    <g id="xtick_2">
     <g id="line2d_2">
      <g>
       <use xlink:href="#m07be2c4fda" x="137.732327" y="317.93875" style="stroke: #000000; stroke-width: 0.8"/>
      </g>
     </g>
     <g id="text_2">
      <text style="font: 10px 'sans-serif'; text-anchor: middle" x="137.732327" y="332.537188" transform="rotate(-0, 137.732327, 332.537188)">−2</text>
     </g>
    </g>
    <g id="xtick_3">
     <g id="line2d_3">
      <g>
       <use xlink:href="#m07be2c4fda" x="198.85556" y="317.93875" style="stroke: #000000; stroke-width: 0.8"/>
      </g>
     </g>
     <g id="text_3">
      <text style="font: 10px 'sans-serif'; text-anchor: middle" x="198.85556" y="332.537188" transform="rotate(-0, 198.85556, 332.537188)">0</text>
     </g>
    </g>
    <g id="xtick_4">
     <g id="line2d_4">
      <g>
       <use xlink:href="#m07be2c4fda" x="259.978792" y="317.93875" style="stroke: #000000; stroke-width: 0.8"/>
      </g>
     </g>
     <g id="text_4">
      <text style="font: 10px 'sans-serif'; text-anchor: middle" x="259.978792" y="332.537188" transform="rotate(-0, 259.978792, 332.537188)">2</text>
     </g>
    </g>
    <g id="xtick_5">
     <g id="line2d_5">
      <g>
       <use xlink:href="#m07be2c4fda" x="321.102024" y="317.93875" style="stroke: #000000; stroke-width: 0.8"/>
      </g>
     </g>
     <g id="text_5">
      <text style="font: 10px 'sans-serif'; text-anchor: middle" x="321.102024" y="332.537188" transform="rotate(-0, 321.102024, 332.537188)">4</text>
     </g>
    </g>
    <g id="text_6">
     <text style="font: 10px 'sans-serif'; text-anchor: middle" x="197.92" y="346.215312" transform="rotate(-0, 197.92, 346.215312)">Composite_Reward</text>
    </g>
   </g>
   <g id="matplotlib.axis_2">
    <g id="ytick_1">
     <g id="line2d_6">
      <defs>
       <path id="md3f7231394" d="M 0 0 
L -3.5 0 
" style="stroke: #000000; stroke-width: 0.8"/>
      </defs>
      <g>
       <use xlink:href="#md3f7231394" x="46.64" y="262.276927" style="stroke: #000000; stroke-width: 0.8"/>
      </g>
     </g>
     <g id="text_7">
      <text style="font: 10px 'sans-serif'; text-anchor: end" x="39.64" y="266.076146" transform="rotate(-0, 39.64, 266.076146)">−1</text>
     </g>
    </g>
    <g id="ytick_2">
     <g id="line2d_7">
      <g>
       <use xlink:href="#md3f7231394" x="46.64" y="200.405477" style="stroke: #000000; stroke-width: 0.8"/>
      </g>
     </g>
     <g id="text_8">
      <text style="font: 10px 'sans-serif'; text-anchor: end" x="39.64" y="204.204696" transform="rotate(-0, 39.64, 204.204696)">0</text>
     </g>
    </g>
    <g id="ytick_3">
     <g id="line2d_8">
      <g>
       <use xlink:href="#md3f7231394" x="46.64" y="138.534027" style="stroke: #000000; stroke-width: 0.8"/>
      </g>
     </g>
     <g id="text_9">
      <text style="font: 10px 'sans-serif'; text-anchor: end" x="39.64" y="142.333246" transform="rotate(-0, 39.64, 142.333246)">1</text>
     </g>
    </g>
    <g id="ytick_4">
     <g id="line2d_9">
      <g>
       <use xlink:href="#md3f7231394" x="46.64" y="76.662577" style="stroke: #000000; stroke-width: 0.8"/>
      </g>
     </g>
     <g id="text_10">
      <text style="font: 10px 'sans-serif'; text-anchor: end" x="39.64" y="80.461796" transform="rotate(-0, 39.64, 80.461796)">2</text>
     </g>
    </g>
    <g id="ytick_5">
     <g id="line2d_10">
      <g>
       <use xlink:href="#md3f7231394" x="46.64" y="14.791127" style="stroke: #000000; stroke-width: 0.8"/>
      </g>
     </g>
     <g id="text_11">
      <text style="font: 10px 'sans-serif'; text-anchor: end" x="39.64" y="18.590346" transform="rotate(-0, 39.64, 18.590346)">3</text>
     </g>
    </g>
    <g id="text_12">
     <text style="font: 10px 'sans-serif'; text-anchor: middle" x="18.818125" y="164.813385" transform="rotate(-90, 18.818125, 164.813385)">Conn Hit-Miss</text>
    </g>
   </g>
   <g id="line2d_11">
    <path d="M 60.392727 197.999307 
L 63.171056 197.980276 
L 65.949385 197.961245 
L 68.727713 197.942213 
L 71.506042 197.923182 
L 74.284371 197.904151 
L 77.0627 197.885119 
L 79.841028 197.866088 
L 82.619357 197.847056 
L 85.397686 197.828025 
L 88.176015 197.808994 
L 90.954343 197.789962 
L 93.732672 197.770931 
L 96.511001 197.7519 
L 99.28933 197.732868 
L 102.067658 197.713837 
L 104.845987 197.694806 
L 107.624316 197.675774 
L 110.402645 197.656743 
L 113.180973 197.637711 
L 115.959302 197.61868 
L 118.737631 197.599649 
L 121.51596 197.580617 
L 124.294288 197.561586 
L 127.072617 197.542555 
L 129.850946 197.523523 
L 132.629275 197.504492 
L 135.407603 197.485461 
L 138.185932 197.466429 
L 140.964261 197.447398 
L 143.74259 197.428366 
L 146.520918 197.409335 
L 149.299247 197.390304 
L 152.077576 197.371272 
L 154.855904 197.352241 
L 157.634233 197.33321 
L 160.412562 197.314178 
L 163.190891 197.295147 
L 165.969219 197.276116 
L 168.747548 197.257084 
L 171.525877 197.238053 
L 174.304206 197.219021 
L 177.082534 197.19999 
L 179.860863 197.180959 
L 182.639192 197.161927 
L 185.417521 197.142896 
L 188.195849 197.123865 
L 190.974178 197.104833 
L 193.752507 197.085802 
L 196.530836 197.066771 
L 199.309164 197.047739 
L 202.087493 197.028708 
L 204.865822 197.009676 
L 207.644151 196.990645 
L 210.422479 196.971614 
L 213.200808 196.952582 
L 215.979137 196.933551 
L 218.757466 196.91452 
L 221.535794 196.895488 
L 224.314123 196.876457 
L 227.092452 196.857425 
L 229.870781 196.838394 
L 232.649109 196.819363 
L 235.427438 196.800331 
L 238.205767 196.7813 
L 240.984096 196.762269 
L 243.762424 196.743237 
L 246.540753 196.724206 
L 249.319082 196.705175 
L 252.09741 196.686143 
L 254.875739 196.667112 
L 257.654068 196.64808 
L 260.432397 196.629049 
L 263.210725 196.610018 
L 265.989054 196.590986 
L 268.767383 196.571955 
L 271.545712 196.552924 
L 274.32404 196.533892 
L 277.102369 196.514861 
L 279.880698 196.49583 
L 282.659027 196.476798 
L 285.437355 196.457767 
L 288.215684 196.438735 
L 290.994013 196.419704 
L 293.772342 196.400673 
L 296.55067 196.381641 
L 299.328999 196.36261 
L 302.107328 196.343579 
L 304.885657 196.324547 
L 307.663985 196.305516 
L 310.442314 196.286485 
L 313.220643 196.267453 
L 315.998972 196.248422 
L 318.7773 196.22939 
L 321.555629 196.210359 
L 324.333958 196.191328 
L 327.112287 196.172296 
L 329.890615 196.153265 
L 332.668944 196.134234 
L 335.447273 196.115202 
" clip-path="url(#p0e9522fb04)" style="fill: none; stroke: #1f77b4; stroke-width: 2.25; stroke-linecap: square"/>
   </g>
   <g id="patch_3">
    <path d="M 46.64 317.93875 
L 46.64 11.688021 
" style="fill: none; stroke: #000000; stroke-width: 0.8; stroke-linejoin: miter; stroke-linecap: square"/>
   </g>
   <g id="patch_4">
    <path d="M 46.64 317.93875 
L 349.2 317.93875 
" style="fill: none; stroke: #000000; stroke-width: 0.8; stroke-linejoin: miter; stroke-linecap: square"/>
   </g>
  </g>
 </g>
 <defs>
  <clipPath id="p0e9522fb04">
   <rect x="46.64" y="11.688021" width="302.56" height="306.250729"/>
  </clipPath>
 </defs>
</svg>
