<?xml version="1.0" encoding="utf-8" standalone="no"?>
<!DOCTYPE svg PUBLIC "-//W3C//DTD SVG 1.1//EN"
  "http://www.w3.org/Graphics/SVG/1.1/DTD/svg11.dtd">
<svg xmlns:xlink="http://www.w3.org/1999/xlink" width="360pt" height="360pt" viewBox="0 0 360 360" xmlns="http://www.w3.org/2000/svg" version="1.1">
 <metadata>
  <rdf:RDF xmlns:dc="http://purl.org/dc/elements/1.1/" xmlns:cc="http://creativecommons.org/ns#" xmlns:rdf="http://www.w3.org/1999/02/22-rdf-syntax-ns#">
   <cc:Work>
    <dc:type rdf:resource="http://purl.org/dc/dcmitype/StillImage"/>
    <dc:date>2022-11-22T21:44:41.810488</dc:date>
    <dc:format>image/svg+xml</dc:format>
    <dc:creator>
     <cc:Agent>
      <dc:title>Matplotlib v3.5.3, https://matplotlib.org/</dc:title>
     </cc:Agent>
    </dc:creator>
   </cc:Work>
  </rdf:RDF>
 </metadata>
 <defs>
  <style type="text/css">*{stroke-linejoin: round; stroke-linecap: butt}</style>
 </defs>
 <g id="figure_1">
  <g id="patch_1">
   <path d="M 0 360 
L 360 360 
L 360 0 
L 0 0 
z
" style="fill: #ffffff"/>
  </g>
  <g id="axes_1">
   <g id="patch_2">
    <path d="M 62.57 317.93875 
L 349.2 317.93875 
L 349.2 10.8 
L 62.57 10.8 
z
" style="fill: #ffffff"/>
   </g>
   <g id="PathCollection_1">
    <defs>
     <path id="m299df54736" d="M 0 3 
C 0.795609 3 1.55874 2.683901 2.12132 2.12132 
C 2.683901 1.55874 3 0.795609 3 0 
C 3 -0.795609 2.683901 -1.55874 2.12132 -2.12132 
C 1.55874 -2.683901 0.795609 -3 0 -3 
C -0.795609 -3 -1.55874 -2.683901 -2.12132 -2.12132 
C -2.683901 -1.55874 -3 -0.795609 -3 0 
C -3 0.795609 -2.683901 1.55874 -2.12132 2.12132 
C -1.55874 2.683901 -0.795609 3 0 3 
z
" style="stroke: #1f77b4; stroke-opacity: 0.8"/>
    </defs>
    <g clip-path="url(#pe687c55458)">
     <use xlink:href="#m299df54736" x="220.361263" y="157.547607" style="fill: #1f77b4; fill-opacity: 0.8; stroke: #1f77b4; stroke-opacity: 0.8"/>
     <use xlink:href="#m299df54736" x="220.361263" y="125.502436" style="fill: #1f77b4; fill-opacity: 0.8; stroke: #1f77b4; stroke-opacity: 0.8"/>
     <use xlink:href="#m299df54736" x="278.266313" y="236.329532" style="fill: #1f77b4; fill-opacity: 0.8; stroke: #1f77b4; stroke-opacity: 0.8"/>
     <use xlink:href="#m299df54736" x="191.408737" y="141.587454" style="fill: #1f77b4; fill-opacity: 0.8; stroke: #1f77b4; stroke-opacity: 0.8"/>
     <use xlink:href="#m299df54736" x="249.313788" y="176.238106" style="fill: #1f77b4; fill-opacity: 0.8; stroke: #1f77b4; stroke-opacity: 0.8"/>
     <use xlink:href="#m299df54736" x="162.456212" y="124.965811" style="fill: #1f77b4; fill-opacity: 0.8; stroke: #1f77b4; stroke-opacity: 0.8"/>
     <use xlink:href="#m299df54736" x="278.266313" y="186.189817" style="fill: #1f77b4; fill-opacity: 0.8; stroke: #1f77b4; stroke-opacity: 0.8"/>
     <use xlink:href="#m299df54736" x="75.598636" y="145.88531" style="fill: #1f77b4; fill-opacity: 0.8; stroke: #1f77b4; stroke-opacity: 0.8"/>
     <use xlink:href="#m299df54736" x="336.171364" y="212.151219" style="fill: #1f77b4; fill-opacity: 0.8; stroke: #1f77b4; stroke-opacity: 0.8"/>
     <use xlink:href="#m299df54736" x="104.551162" y="196.554197" style="fill: #1f77b4; fill-opacity: 0.8; stroke: #1f77b4; stroke-opacity: 0.8"/>
     <use xlink:href="#m299df54736" x="307.218838" y="163.970331" style="fill: #1f77b4; fill-opacity: 0.8; stroke: #1f77b4; stroke-opacity: 0.8"/>
     <use xlink:href="#m299df54736" x="278.266313" y="177.448498" style="fill: #1f77b4; fill-opacity: 0.8; stroke: #1f77b4; stroke-opacity: 0.8"/>
     <use xlink:href="#m299df54736" x="162.456212" y="157.797175" style="fill: #1f77b4; fill-opacity: 0.8; stroke: #1f77b4; stroke-opacity: 0.8"/>
     <use xlink:href="#m299df54736" x="278.266313" y="191.809327" style="fill: #1f77b4; fill-opacity: 0.8; stroke: #1f77b4; stroke-opacity: 0.8"/>
     <use xlink:href="#m299df54736" x="133.503687" y="126.128999" style="fill: #1f77b4; fill-opacity: 0.8; stroke: #1f77b4; stroke-opacity: 0.8"/>
     <use xlink:href="#m299df54736" x="336.171364" y="147.420017" style="fill: #1f77b4; fill-opacity: 0.8; stroke: #1f77b4; stroke-opacity: 0.8"/>
     <use xlink:href="#m299df54736" x="104.551162" y="200.431919" style="fill: #1f77b4; fill-opacity: 0.8; stroke: #1f77b4; stroke-opacity: 0.8"/>
     <use xlink:href="#m299df54736" x="307.218838" y="179.183703" style="fill: #1f77b4; fill-opacity: 0.8; stroke: #1f77b4; stroke-opacity: 0.8"/>
     <use xlink:href="#m299df54736" x="278.266313" y="162.65142" style="fill: #1f77b4; fill-opacity: 0.8; stroke: #1f77b4; stroke-opacity: 0.8"/>
     <use xlink:href="#m299df54736" x="249.313788" y="24.760852" style="fill: #1f77b4; fill-opacity: 0.8; stroke: #1f77b4; stroke-opacity: 0.8"/>
     <use xlink:href="#m299df54736" x="162.456212" y="160.076598" style="fill: #1f77b4; fill-opacity: 0.8; stroke: #1f77b4; stroke-opacity: 0.8"/>
     <use xlink:href="#m299df54736" x="133.503687" y="199.628183" style="fill: #1f77b4; fill-opacity: 0.8; stroke: #1f77b4; stroke-opacity: 0.8"/>
     <use xlink:href="#m299df54736" x="336.171364" y="154.5138" style="fill: #1f77b4; fill-opacity: 0.8; stroke: #1f77b4; stroke-opacity: 0.8"/>
     <use xlink:href="#m299df54736" x="191.408737" y="173.115717" style="fill: #1f77b4; fill-opacity: 0.8; stroke: #1f77b4; stroke-opacity: 0.8"/>
     <use xlink:href="#m299df54736" x="133.503687" y="169.06323" style="fill: #1f77b4; fill-opacity: 0.8; stroke: #1f77b4; stroke-opacity: 0.8"/>
     <use xlink:href="#m299df54736" x="75.598636" y="213.423043" style="fill: #1f77b4; fill-opacity: 0.8; stroke: #1f77b4; stroke-opacity: 0.8"/>
     <use xlink:href="#m299df54736" x="133.503687" y="206.134745" style="fill: #1f77b4; fill-opacity: 0.8; stroke: #1f77b4; stroke-opacity: 0.8"/>
     <use xlink:href="#m299df54736" x="336.171364" y="172.165113" style="fill: #1f77b4; fill-opacity: 0.8; stroke: #1f77b4; stroke-opacity: 0.8"/>
     <use xlink:href="#m299df54736" x="220.361263" y="171.824699" style="fill: #1f77b4; fill-opacity: 0.8; stroke: #1f77b4; stroke-opacity: 0.8"/>
     <use xlink:href="#m299df54736" x="249.313788" y="237.054879" style="fill: #1f77b4; fill-opacity: 0.8; stroke: #1f77b4; stroke-opacity: 0.8"/>
     <use xlink:href="#m299df54736" x="336.171364" y="180.597531" style="fill: #1f77b4; fill-opacity: 0.8; stroke: #1f77b4; stroke-opacity: 0.8"/>
     <use xlink:href="#m299df54736" x="162.456212" y="215.944336" style="fill: #1f77b4; fill-opacity: 0.8; stroke: #1f77b4; stroke-opacity: 0.8"/>
     <use xlink:href="#m299df54736" x="220.361263" y="192.467532" style="fill: #1f77b4; fill-opacity: 0.8; stroke: #1f77b4; stroke-opacity: 0.8"/>
     <use xlink:href="#m299df54736" x="104.551162" y="179.064445" style="fill: #1f77b4; fill-opacity: 0.8; stroke: #1f77b4; stroke-opacity: 0.8"/>
     <use xlink:href="#m299df54736" x="133.503687" y="160.796087" style="fill: #1f77b4; fill-opacity: 0.8; stroke: #1f77b4; stroke-opacity: 0.8"/>
     <use xlink:href="#m299df54736" x="75.598636" y="198.74886" style="fill: #1f77b4; fill-opacity: 0.8; stroke: #1f77b4; stroke-opacity: 0.8"/>
     <use xlink:href="#m299df54736" x="307.218838" y="174.095204" style="fill: #1f77b4; fill-opacity: 0.8; stroke: #1f77b4; stroke-opacity: 0.8"/>
     <use xlink:href="#m299df54736" x="75.598636" y="205.999855" style="fill: #1f77b4; fill-opacity: 0.8; stroke: #1f77b4; stroke-opacity: 0.8"/>
     <use xlink:href="#m299df54736" x="104.551162" y="145.62984" style="fill: #1f77b4; fill-opacity: 0.8; stroke: #1f77b4; stroke-opacity: 0.8"/>
     <use xlink:href="#m299df54736" x="191.408737" y="303.977898" style="fill: #1f77b4; fill-opacity: 0.8; stroke: #1f77b4; stroke-opacity: 0.8"/>
     <use xlink:href="#m299df54736" x="307.218838" y="184.848041" style="fill: #1f77b4; fill-opacity: 0.8; stroke: #1f77b4; stroke-opacity: 0.8"/>
     <use xlink:href="#m299df54736" x="249.313788" y="146.48353" style="fill: #1f77b4; fill-opacity: 0.8; stroke: #1f77b4; stroke-opacity: 0.8"/>
     <use xlink:href="#m299df54736" x="104.551162" y="266.465107" style="fill: #1f77b4; fill-opacity: 0.8; stroke: #1f77b4; stroke-opacity: 0.8"/>
     <use xlink:href="#m299df54736" x="162.456212" y="191.400811" style="fill: #1f77b4; fill-opacity: 0.8; stroke: #1f77b4; stroke-opacity: 0.8"/>
     <use xlink:href="#m299df54736" x="104.551162" y="195.059223" style="fill: #1f77b4; fill-opacity: 0.8; stroke: #1f77b4; stroke-opacity: 0.8"/>
     <use xlink:href="#m299df54736" x="220.361263" y="177.06709" style="fill: #1f77b4; fill-opacity: 0.8; stroke: #1f77b4; stroke-opacity: 0.8"/>
     <use xlink:href="#m299df54736" x="249.313788" y="186.120357" style="fill: #1f77b4; fill-opacity: 0.8; stroke: #1f77b4; stroke-opacity: 0.8"/>
    </g>
   </g>
   <g id="PolyCollection_1">
    <path d="M 75.598636 169.257459 
L 75.598636 205.103037 
L 78.230684 204.660711 
L 80.862732 204.372769 
L 83.49478 204.084517 
L 86.126827 203.794562 
L 88.758875 203.500891 
L 91.390923 203.207221 
L 94.022971 202.882455 
L 96.655018 202.404941 
L 99.287066 201.990677 
L 101.919114 201.666108 
L 104.551162 201.338956 
L 107.183209 201.006924 
L 109.815257 200.485962 
L 112.447305 200.087049 
L 115.079353 199.816697 
L 117.7114 199.26956 
L 120.343448 198.741493 
L 122.975496 198.392387 
L 125.607544 198.039193 
L 128.239591 197.80997 
L 130.871639 197.632608 
L 133.503687 197.250358 
L 136.135735 196.808078 
L 138.767782 196.36342 
L 141.39983 195.935782 
L 144.031878 195.690627 
L 146.663926 195.584922 
L 149.295973 195.407775 
L 151.928021 195.028785 
L 154.560069 194.686418 
L 157.192117 194.272565 
L 159.824164 194.04738 
L 162.456212 193.614702 
L 165.08826 193.153835 
L 167.720308 192.754604 
L 170.352355 192.564309 
L 172.984403 192.282737 
L 175.616451 192.075912 
L 178.248499 191.794524 
L 180.880546 191.548447 
L 183.512594 191.420681 
L 186.144642 191.163021 
L 188.77669 190.889094 
L 191.408737 190.59866 
L 194.040785 190.349903 
L 196.672833 190.079789 
L 199.304881 189.808881 
L 201.936928 189.720273 
L 204.568976 189.42582 
L 207.201024 189.1837 
L 209.833072 188.994249 
L 212.465119 188.799692 
L 215.097167 188.607937 
L 217.729215 188.421465 
L 220.361263 188.232179 
L 222.99331 187.99309 
L 225.625358 187.722698 
L 228.257406 187.566328 
L 230.889454 187.520446 
L 233.521501 187.529555 
L 236.153549 187.368654 
L 238.785597 187.098162 
L 241.417645 186.916975 
L 244.049692 186.840246 
L 246.68174 186.687724 
L 249.313788 186.6972 
L 251.945836 186.65162 
L 254.577883 186.74433 
L 257.209931 186.727201 
L 259.841979 186.738722 
L 262.474027 186.603446 
L 265.106074 186.549114 
L 267.738122 186.537518 
L 270.37017 186.473176 
L 273.002218 186.571049 
L 275.634265 186.520689 
L 278.266313 186.554296 
L 280.898361 186.591263 
L 283.530409 186.626472 
L 286.162456 186.536228 
L 288.794504 186.412504 
L 291.426552 186.288491 
L 294.0586 186.164477 
L 296.690647 186.232171 
L 299.322695 186.197192 
L 301.954743 185.974978 
L 304.586791 185.952097 
L 307.218838 186.077159 
L 309.850886 186.048414 
L 312.482934 185.952694 
L 315.114982 185.884602 
L 317.747029 185.85679 
L 320.379077 185.911235 
L 323.011125 185.965679 
L 325.643173 186.020124 
L 328.27522 186.020603 
L 330.907268 186.0015 
L 333.539316 186.092763 
L 336.171364 186.20967 
L 336.171364 149.75803 
L 336.171364 149.75803 
L 333.539316 150.2024 
L 330.907268 150.64677 
L 328.27522 151.092417 
L 325.643173 151.535743 
L 323.011125 151.979881 
L 320.379077 152.424251 
L 317.747029 152.874918 
L 315.114982 153.33379 
L 312.482934 153.79299 
L 309.850886 154.251534 
L 307.218838 154.710407 
L 304.586791 155.103794 
L 301.954743 155.531459 
L 299.322695 155.974126 
L 296.690647 156.416793 
L 294.0586 156.668665 
L 291.426552 157.130685 
L 288.794504 157.666533 
L 286.162456 157.962696 
L 283.530409 158.473425 
L 280.898361 158.755983 
L 278.266313 159.12423 
L 275.634265 159.485548 
L 273.002218 159.755157 
L 270.37017 160.165075 
L 267.738122 160.556602 
L 265.106074 160.747566 
L 262.474027 161.005987 
L 259.841979 161.230542 
L 257.209931 161.672789 
L 254.577883 162.132114 
L 251.945836 162.518246 
L 249.313788 162.833559 
L 246.68174 163.117016 
L 244.049692 163.364073 
L 241.417645 163.603054 
L 238.785597 163.847675 
L 236.153549 164.070064 
L 233.521501 164.326829 
L 230.889454 164.587757 
L 228.257406 164.902225 
L 225.625358 165.111183 
L 222.99331 165.320141 
L 220.361263 165.562713 
L 217.729215 165.795902 
L 215.097167 165.95259 
L 212.465119 166.151306 
L 209.833072 166.444311 
L 207.201024 166.58084 
L 204.568976 166.839655 
L 201.936928 167.116612 
L 199.304881 167.398481 
L 196.672833 167.675193 
L 194.040785 167.95193 
L 191.408737 168.200775 
L 188.77669 168.163526 
L 186.144642 168.230154 
L 183.512594 168.440875 
L 180.880546 168.649191 
L 178.248499 168.852825 
L 175.616451 168.767093 
L 172.984403 169.124606 
L 170.352355 169.203795 
L 167.720308 169.2353 
L 165.08826 169.376748 
L 162.456212 169.466188 
L 159.824164 169.571994 
L 157.192117 169.566957 
L 154.560069 169.616256 
L 151.928021 169.732765 
L 149.295973 169.833002 
L 146.663926 169.93326 
L 144.031878 169.820582 
L 141.39983 169.662991 
L 138.767782 169.592179 
L 136.135735 169.493918 
L 133.503687 169.497617 
L 130.871639 169.386607 
L 128.239591 169.449806 
L 125.607544 169.56801 
L 122.975496 169.567716 
L 120.343448 169.595036 
L 117.7114 169.753749 
L 115.079353 169.798091 
L 112.447305 169.785398 
L 109.815257 169.755981 
L 107.183209 169.726565 
L 104.551162 169.697149 
L 101.919114 169.667127 
L 99.287066 169.626555 
L 96.655018 169.608942 
L 94.022971 169.553096 
L 91.390923 169.524558 
L 88.758875 169.520004 
L 86.126827 169.459245 
L 83.49478 169.427961 
L 80.862732 169.396678 
L 78.230684 169.365394 
L 75.598636 169.257459 
z
" clip-path="url(#pe687c55458)" style="fill: #1f77b4; fill-opacity: 0.15"/>
   </g>
   <g id="matplotlib.axis_1">
    <g id="xtick_1">
     <g id="line2d_1">
      <defs>
       <path id="m6de4fc6d2d" d="M 0 0 
L 0 3.5 
" style="stroke: #000000; stroke-width: 0.8"/>
      </defs>
      <g>
       <use xlink:href="#m6de4fc6d2d" x="90.961201" y="317.93875" style="stroke: #000000; stroke-width: 0.8"/>
      </g>
     </g>
     <g id="text_1">
      <text style="font: 10px 'sans-serif'; text-anchor: middle" x="90.961201" y="332.537188" transform="rotate(-0, 90.961201, 332.537188)">−4</text>
     </g>
    </g>
    <g id="xtick_2">
     <g id="line2d_2">
      <g>
       <use xlink:href="#m6de4fc6d2d" x="148.866251" y="317.93875" style="stroke: #000000; stroke-width: 0.8"/>
      </g>
     </g>
     <g id="text_2">
      <text style="font: 10px 'sans-serif'; text-anchor: middle" x="148.866251" y="332.537188" transform="rotate(-0, 148.866251, 332.537188)">−2</text>
     </g>
    </g>
    <g id="xtick_3">
     <g id="line2d_3">
      <g>
       <use xlink:href="#m6de4fc6d2d" x="206.771302" y="317.93875" style="stroke: #000000; stroke-width: 0.8"/>
      </g>
     </g>
     <g id="text_3">
      <text style="font: 10px 'sans-serif'; text-anchor: middle" x="206.771302" y="332.537188" transform="rotate(-0, 206.771302, 332.537188)">0</text>
     </g>
    </g>
    <g id="xtick_4">
     <g id="line2d_4">
      <g>
       <use xlink:href="#m6de4fc6d2d" x="264.676352" y="317.93875" style="stroke: #000000; stroke-width: 0.8"/>
      </g>
     </g>
     <g id="text_4">
      <text style="font: 10px 'sans-serif'; text-anchor: middle" x="264.676352" y="332.537188" transform="rotate(-0, 264.676352, 332.537188)">2</text>
     </g>
    </g>
    <g id="xtick_5">
     <g id="line2d_5">
      <g>
       <use xlink:href="#m6de4fc6d2d" x="322.581403" y="317.93875" style="stroke: #000000; stroke-width: 0.8"/>
      </g>
     </g>
     <g id="text_5">
      <text style="font: 10px 'sans-serif'; text-anchor: middle" x="322.581403" y="332.537188" transform="rotate(-0, 322.581403, 332.537188)">4</text>
     </g>
    </g>
    <g id="text_6">
     <text style="font: 10px 'sans-serif'; text-anchor: middle" x="205.885" y="346.215312" transform="rotate(-0, 205.885, 346.215312)">Composite_Reward</text>
    </g>
   </g>
   <g id="matplotlib.axis_2">
    <g id="ytick_1">
     <g id="line2d_6">
      <defs>
       <path id="m3023ec98ae" d="M 0 0 
L -3.5 0 
" style="stroke: #000000; stroke-width: 0.8"/>
      </defs>
      <g>
       <use xlink:href="#m3023ec98ae" x="62.57" y="284.128108" style="stroke: #000000; stroke-width: 0.8"/>
      </g>
     </g>
     <g id="text_7">
      <text style="font: 10px 'sans-serif'; text-anchor: end" x="55.57" y="287.927326" transform="rotate(-0, 55.57, 287.927326)">−0.75</text>
     </g>
    </g>
    <g id="ytick_2">
     <g id="line2d_7">
      <g>
       <use xlink:href="#m3023ec98ae" x="62.57" y="248.019342" style="stroke: #000000; stroke-width: 0.8"/>
      </g>
     </g>
     <g id="text_8">
      <text style="font: 10px 'sans-serif'; text-anchor: end" x="55.57" y="251.81856" transform="rotate(-0, 55.57, 251.81856)">−0.50</text>
     </g>
    </g>
    <g id="ytick_3">
     <g id="line2d_8">
      <g>
       <use xlink:href="#m3023ec98ae" x="62.57" y="211.910575" style="stroke: #000000; stroke-width: 0.8"/>
      </g>
     </g>
     <g id="text_9">
      <text style="font: 10px 'sans-serif'; text-anchor: end" x="55.57" y="215.709794" transform="rotate(-0, 55.57, 215.709794)">−0.25</text>
     </g>
    </g>
    <g id="ytick_4">
     <g id="line2d_9">
      <g>
       <use xlink:href="#m3023ec98ae" x="62.57" y="175.801809" style="stroke: #000000; stroke-width: 0.8"/>
      </g>
     </g>
     <g id="text_10">
      <text style="font: 10px 'sans-serif'; text-anchor: end" x="55.57" y="179.601028" transform="rotate(-0, 55.57, 179.601028)">0.00</text>
     </g>
    </g>
    <g id="ytick_5">
     <g id="line2d_10">
      <g>
       <use xlink:href="#m3023ec98ae" x="62.57" y="139.693043" style="stroke: #000000; stroke-width: 0.8"/>
      </g>
     </g>
     <g id="text_11">
      <text style="font: 10px 'sans-serif'; text-anchor: end" x="55.57" y="143.492262" transform="rotate(-0, 55.57, 143.492262)">0.25</text>
     </g>
    </g>
    <g id="ytick_6">
     <g id="line2d_11">
      <g>
       <use xlink:href="#m3023ec98ae" x="62.57" y="103.584277" style="stroke: #000000; stroke-width: 0.8"/>
      </g>
     </g>
     <g id="text_12">
      <text style="font: 10px 'sans-serif'; text-anchor: end" x="55.57" y="107.383496" transform="rotate(-0, 55.57, 107.383496)">0.50</text>
     </g>
    </g>
    <g id="ytick_7">
     <g id="line2d_12">
      <g>
       <use xlink:href="#m3023ec98ae" x="62.57" y="67.475511" style="stroke: #000000; stroke-width: 0.8"/>
      </g>
     </g>
     <g id="text_13">
      <text style="font: 10px 'sans-serif'; text-anchor: end" x="55.57" y="71.27473" transform="rotate(-0, 55.57, 71.27473)">0.75</text>
     </g>
    </g>
    <g id="ytick_8">
     <g id="line2d_13">
      <g>
       <use xlink:href="#m3023ec98ae" x="62.57" y="31.366745" style="stroke: #000000; stroke-width: 0.8"/>
      </g>
     </g>
     <g id="text_14">
      <text style="font: 10px 'sans-serif'; text-anchor: end" x="55.57" y="35.165964" transform="rotate(-0, 55.57, 35.165964)">1.00</text>
     </g>
    </g>
    <g id="text_15">
     <text style="font: 10px 'sans-serif'; text-anchor: middle" x="18.845" y="164.369375" transform="rotate(-90, 18.845, 164.369375)">Conn LG-SG</text>
    </g>
   </g>
   <g id="line2d_14">
    <path d="M 75.598636 187.064301 
L 78.230684 186.893001 
L 80.862732 186.721701 
L 83.49478 186.550401 
L 86.126827 186.379101 
L 88.758875 186.207802 
L 91.390923 186.036502 
L 94.022971 185.865202 
L 96.655018 185.693902 
L 99.287066 185.522602 
L 101.919114 185.351302 
L 104.551162 185.180002 
L 107.183209 185.008703 
L 109.815257 184.837403 
L 112.447305 184.666103 
L 115.079353 184.494803 
L 117.7114 184.323503 
L 120.343448 184.152203 
L 122.975496 183.980903 
L 125.607544 183.809604 
L 128.239591 183.638304 
L 130.871639 183.467004 
L 133.503687 183.295704 
L 136.135735 183.124404 
L 138.767782 182.953104 
L 141.39983 182.781805 
L 144.031878 182.610505 
L 146.663926 182.439205 
L 149.295973 182.267905 
L 151.928021 182.096605 
L 154.560069 181.925305 
L 157.192117 181.754005 
L 159.824164 181.582706 
L 162.456212 181.411406 
L 165.08826 181.240106 
L 167.720308 181.068806 
L 170.352355 180.897506 
L 172.984403 180.726206 
L 175.616451 180.554906 
L 178.248499 180.383607 
L 180.880546 180.212307 
L 183.512594 180.041007 
L 186.144642 179.869707 
L 188.77669 179.698407 
L 191.408737 179.527107 
L 194.040785 179.355808 
L 196.672833 179.184508 
L 199.304881 179.013208 
L 201.936928 178.841908 
L 204.568976 178.670608 
L 207.201024 178.499308 
L 209.833072 178.328008 
L 212.465119 178.156709 
L 215.097167 177.985409 
L 217.729215 177.814109 
L 220.361263 177.642809 
L 222.99331 177.471509 
L 225.625358 177.300209 
L 228.257406 177.128909 
L 230.889454 176.95761 
L 233.521501 176.78631 
L 236.153549 176.61501 
L 238.785597 176.44371 
L 241.417645 176.27241 
L 244.049692 176.10111 
L 246.68174 175.929811 
L 249.313788 175.758511 
L 251.945836 175.587211 
L 254.577883 175.415911 
L 257.209931 175.244611 
L 259.841979 175.073311 
L 262.474027 174.902011 
L 265.106074 174.730712 
L 267.738122 174.559412 
L 270.37017 174.388112 
L 273.002218 174.216812 
L 275.634265 174.045512 
L 278.266313 173.874212 
L 280.898361 173.702912 
L 283.530409 173.531613 
L 286.162456 173.360313 
L 288.794504 173.189013 
L 291.426552 173.017713 
L 294.0586 172.846413 
L 296.690647 172.675113 
L 299.322695 172.503814 
L 301.954743 172.332514 
L 304.586791 172.161214 
L 307.218838 171.989914 
L 309.850886 171.818614 
L 312.482934 171.647314 
L 315.114982 171.476014 
L 317.747029 171.304715 
L 320.379077 171.133415 
L 323.011125 170.962115 
L 325.643173 170.790815 
L 328.27522 170.619515 
L 330.907268 170.448215 
L 333.539316 170.276915 
L 336.171364 170.105616 
" clip-path="url(#pe687c55458)" style="fill: none; stroke: #1f77b4; stroke-width: 2.25; stroke-linecap: square"/>
   </g>
   <g id="patch_3">
    <path d="M 62.57 317.93875 
L 62.57 10.8 
" style="fill: none; stroke: #000000; stroke-width: 0.8; stroke-linejoin: miter; stroke-linecap: square"/>
   </g>
   <g id="patch_4">
    <path d="M 62.57 317.93875 
L 349.2 317.93875 
" style="fill: none; stroke: #000000; stroke-width: 0.8; stroke-linejoin: miter; stroke-linecap: square"/>
   </g>
  </g>
 </g>
 <defs>
  <clipPath id="pe687c55458">
   <rect x="62.57" y="10.8" width="286.63" height="307.13875"/>
  </clipPath>
 </defs>
</svg>
