<?xml version="1.0" encoding="utf-8" standalone="no"?>
<!DOCTYPE svg PUBLIC "-//W3C//DTD SVG 1.1//EN"
  "http://www.w3.org/Graphics/SVG/1.1/DTD/svg11.dtd">
<svg xmlns:xlink="http://www.w3.org/1999/xlink" width="360pt" height="360pt" viewBox="0 0 360 360" xmlns="http://www.w3.org/2000/svg" version="1.1">
 <metadata>
  <rdf:RDF xmlns:dc="http://purl.org/dc/elements/1.1/" xmlns:cc="http://creativecommons.org/ns#" xmlns:rdf="http://www.w3.org/1999/02/22-rdf-syntax-ns#">
   <cc:Work>
    <dc:type rdf:resource="http://purl.org/dc/dcmitype/StillImage"/>
    <dc:date>2022-11-22T21:42:44.115398</dc:date>
    <dc:format>image/svg+xml</dc:format>
    <dc:creator>
     <cc:Agent>
      <dc:title>Matplotlib v3.5.3, https://matplotlib.org/</dc:title>
     </cc:Agent>
    </dc:creator>
   </cc:Work>
  </rdf:RDF>
 </metadata>
 <defs>
  <style type="text/css">*{stroke-linejoin: round; stroke-linecap: butt}</style>
 </defs>
 <g id="figure_1">
  <g id="patch_1">
   <path d="M 0 360 
L 360 360 
L 360 0 
L 0 0 
z
" style="fill: #ffffff"/>
  </g>
  <g id="axes_1">
   <g id="patch_2">
    <path d="M 62.57 317.93875 
L 349.2 317.93875 
L 349.2 10.8 
L 62.57 10.8 
z
" style="fill: #ffffff"/>
   </g>
   <g id="PathCollection_1">
    <defs>
     <path id="m317a4639bb" d="M 0 3 
C 0.795609 3 1.55874 2.683901 2.12132 2.12132 
C 2.683901 1.55874 3 0.795609 3 0 
C 3 -0.795609 2.683901 -1.55874 2.12132 -2.12132 
C 1.55874 -2.683901 0.795609 -3 0 -3 
C -0.795609 -3 -1.55874 -2.683901 -2.12132 -2.12132 
C -2.683901 -1.55874 -3 -0.795609 -3 0 
C -3 0.795609 -2.683901 1.55874 -2.12132 2.12132 
C -1.55874 2.683901 -0.795609 3 0 3 
z
" style="stroke: #1f77b4; stroke-opacity: 0.8"/>
    </defs>
    <g clip-path="url(#p63084a3387)">
     <use xlink:href="#m317a4639bb" x="220.361263" y="242.854874" style="fill: #1f77b4; fill-opacity: 0.8; stroke: #1f77b4; stroke-opacity: 0.8"/>
     <use xlink:href="#m317a4639bb" x="220.361263" y="24.760852" style="fill: #1f77b4; fill-opacity: 0.8; stroke: #1f77b4; stroke-opacity: 0.8"/>
     <use xlink:href="#m317a4639bb" x="278.266313" y="266.233583" style="fill: #1f77b4; fill-opacity: 0.8; stroke: #1f77b4; stroke-opacity: 0.8"/>
     <use xlink:href="#m317a4639bb" x="191.408737" y="200.240484" style="fill: #1f77b4; fill-opacity: 0.8; stroke: #1f77b4; stroke-opacity: 0.8"/>
     <use xlink:href="#m317a4639bb" x="249.313788" y="292.408942" style="fill: #1f77b4; fill-opacity: 0.8; stroke: #1f77b4; stroke-opacity: 0.8"/>
     <use xlink:href="#m317a4639bb" x="162.456212" y="205.279286" style="fill: #1f77b4; fill-opacity: 0.8; stroke: #1f77b4; stroke-opacity: 0.8"/>
     <use xlink:href="#m317a4639bb" x="278.266313" y="263.350088" style="fill: #1f77b4; fill-opacity: 0.8; stroke: #1f77b4; stroke-opacity: 0.8"/>
     <use xlink:href="#m317a4639bb" x="75.598636" y="190.386999" style="fill: #1f77b4; fill-opacity: 0.8; stroke: #1f77b4; stroke-opacity: 0.8"/>
     <use xlink:href="#m317a4639bb" x="336.171364" y="158.650778" style="fill: #1f77b4; fill-opacity: 0.8; stroke: #1f77b4; stroke-opacity: 0.8"/>
     <use xlink:href="#m317a4639bb" x="104.551162" y="250.49354" style="fill: #1f77b4; fill-opacity: 0.8; stroke: #1f77b4; stroke-opacity: 0.8"/>
     <use xlink:href="#m317a4639bb" x="307.218838" y="177.454188" style="fill: #1f77b4; fill-opacity: 0.8; stroke: #1f77b4; stroke-opacity: 0.8"/>
     <use xlink:href="#m317a4639bb" x="278.266313" y="219.387229" style="fill: #1f77b4; fill-opacity: 0.8; stroke: #1f77b4; stroke-opacity: 0.8"/>
     <use xlink:href="#m317a4639bb" x="162.456212" y="267.93812" style="fill: #1f77b4; fill-opacity: 0.8; stroke: #1f77b4; stroke-opacity: 0.8"/>
     <use xlink:href="#m317a4639bb" x="278.266313" y="199.528224" style="fill: #1f77b4; fill-opacity: 0.8; stroke: #1f77b4; stroke-opacity: 0.8"/>
     <use xlink:href="#m317a4639bb" x="133.503687" y="232.91475" style="fill: #1f77b4; fill-opacity: 0.8; stroke: #1f77b4; stroke-opacity: 0.8"/>
     <use xlink:href="#m317a4639bb" x="336.171364" y="276.867858" style="fill: #1f77b4; fill-opacity: 0.8; stroke: #1f77b4; stroke-opacity: 0.8"/>
     <use xlink:href="#m317a4639bb" x="104.551162" y="189.478183" style="fill: #1f77b4; fill-opacity: 0.8; stroke: #1f77b4; stroke-opacity: 0.8"/>
     <use xlink:href="#m317a4639bb" x="307.218838" y="195.150598" style="fill: #1f77b4; fill-opacity: 0.8; stroke: #1f77b4; stroke-opacity: 0.8"/>
     <use xlink:href="#m317a4639bb" x="278.266313" y="214.583288" style="fill: #1f77b4; fill-opacity: 0.8; stroke: #1f77b4; stroke-opacity: 0.8"/>
     <use xlink:href="#m317a4639bb" x="249.313788" y="239.666527" style="fill: #1f77b4; fill-opacity: 0.8; stroke: #1f77b4; stroke-opacity: 0.8"/>
     <use xlink:href="#m317a4639bb" x="162.456212" y="226.796817" style="fill: #1f77b4; fill-opacity: 0.8; stroke: #1f77b4; stroke-opacity: 0.8"/>
     <use xlink:href="#m317a4639bb" x="133.503687" y="228.781516" style="fill: #1f77b4; fill-opacity: 0.8; stroke: #1f77b4; stroke-opacity: 0.8"/>
     <use xlink:href="#m317a4639bb" x="336.171364" y="204.642595" style="fill: #1f77b4; fill-opacity: 0.8; stroke: #1f77b4; stroke-opacity: 0.8"/>
     <use xlink:href="#m317a4639bb" x="191.408737" y="232.684771" style="fill: #1f77b4; fill-opacity: 0.8; stroke: #1f77b4; stroke-opacity: 0.8"/>
     <use xlink:href="#m317a4639bb" x="133.503687" y="278.227217" style="fill: #1f77b4; fill-opacity: 0.8; stroke: #1f77b4; stroke-opacity: 0.8"/>
     <use xlink:href="#m317a4639bb" x="75.598636" y="187.639542" style="fill: #1f77b4; fill-opacity: 0.8; stroke: #1f77b4; stroke-opacity: 0.8"/>
     <use xlink:href="#m317a4639bb" x="133.503687" y="195.482279" style="fill: #1f77b4; fill-opacity: 0.8; stroke: #1f77b4; stroke-opacity: 0.8"/>
     <use xlink:href="#m317a4639bb" x="336.171364" y="228.440636" style="fill: #1f77b4; fill-opacity: 0.8; stroke: #1f77b4; stroke-opacity: 0.8"/>
     <use xlink:href="#m317a4639bb" x="220.361263" y="227.596312" style="fill: #1f77b4; fill-opacity: 0.8; stroke: #1f77b4; stroke-opacity: 0.8"/>
     <use xlink:href="#m317a4639bb" x="249.313788" y="303.977898" style="fill: #1f77b4; fill-opacity: 0.8; stroke: #1f77b4; stroke-opacity: 0.8"/>
     <use xlink:href="#m317a4639bb" x="336.171364" y="251.640845" style="fill: #1f77b4; fill-opacity: 0.8; stroke: #1f77b4; stroke-opacity: 0.8"/>
     <use xlink:href="#m317a4639bb" x="162.456212" y="216.654315" style="fill: #1f77b4; fill-opacity: 0.8; stroke: #1f77b4; stroke-opacity: 0.8"/>
     <use xlink:href="#m317a4639bb" x="220.361263" y="203.044064" style="fill: #1f77b4; fill-opacity: 0.8; stroke: #1f77b4; stroke-opacity: 0.8"/>
     <use xlink:href="#m317a4639bb" x="104.551162" y="202.197299" style="fill: #1f77b4; fill-opacity: 0.8; stroke: #1f77b4; stroke-opacity: 0.8"/>
     <use xlink:href="#m317a4639bb" x="133.503687" y="244.136293" style="fill: #1f77b4; fill-opacity: 0.8; stroke: #1f77b4; stroke-opacity: 0.8"/>
     <use xlink:href="#m317a4639bb" x="75.598636" y="231.233495" style="fill: #1f77b4; fill-opacity: 0.8; stroke: #1f77b4; stroke-opacity: 0.8"/>
     <use xlink:href="#m317a4639bb" x="307.218838" y="240.682326" style="fill: #1f77b4; fill-opacity: 0.8; stroke: #1f77b4; stroke-opacity: 0.8"/>
     <use xlink:href="#m317a4639bb" x="75.598636" y="202.760359" style="fill: #1f77b4; fill-opacity: 0.8; stroke: #1f77b4; stroke-opacity: 0.8"/>
     <use xlink:href="#m317a4639bb" x="104.551162" y="186.756362" style="fill: #1f77b4; fill-opacity: 0.8; stroke: #1f77b4; stroke-opacity: 0.8"/>
     <use xlink:href="#m317a4639bb" x="191.408737" y="256.733007" style="fill: #1f77b4; fill-opacity: 0.8; stroke: #1f77b4; stroke-opacity: 0.8"/>
     <use xlink:href="#m317a4639bb" x="307.218838" y="123.307043" style="fill: #1f77b4; fill-opacity: 0.8; stroke: #1f77b4; stroke-opacity: 0.8"/>
     <use xlink:href="#m317a4639bb" x="249.313788" y="186.273557" style="fill: #1f77b4; fill-opacity: 0.8; stroke: #1f77b4; stroke-opacity: 0.8"/>
     <use xlink:href="#m317a4639bb" x="104.551162" y="235.249455" style="fill: #1f77b4; fill-opacity: 0.8; stroke: #1f77b4; stroke-opacity: 0.8"/>
     <use xlink:href="#m317a4639bb" x="162.456212" y="217.064535" style="fill: #1f77b4; fill-opacity: 0.8; stroke: #1f77b4; stroke-opacity: 0.8"/>
     <use xlink:href="#m317a4639bb" x="104.551162" y="220.685218" style="fill: #1f77b4; fill-opacity: 0.8; stroke: #1f77b4; stroke-opacity: 0.8"/>
     <use xlink:href="#m317a4639bb" x="220.361263" y="200.130995" style="fill: #1f77b4; fill-opacity: 0.8; stroke: #1f77b4; stroke-opacity: 0.8"/>
     <use xlink:href="#m317a4639bb" x="249.313788" y="178.653439" style="fill: #1f77b4; fill-opacity: 0.8; stroke: #1f77b4; stroke-opacity: 0.8"/>
    </g>
   </g>
   <g id="PolyCollection_1">
    <path d="M 75.598636 202.796634 
L 75.598636 236.777859 
L 78.230684 236.435839 
L 80.862732 236.088733 
L 83.49478 235.741627 
L 86.126827 235.39452 
L 88.758875 235.102819 
L 91.390923 234.904727 
L 94.022971 234.680652 
L 96.655018 234.402087 
L 99.287066 234.289639 
L 101.919114 234.124983 
L 104.551162 233.932519 
L 107.183209 233.740055 
L 109.815257 233.546417 
L 112.447305 233.348517 
L 115.079353 233.145205 
L 117.7114 232.904825 
L 120.343448 232.567138 
L 122.975496 232.229451 
L 125.607544 231.889084 
L 128.239591 231.507342 
L 130.871639 231.143045 
L 133.503687 230.658701 
L 136.135735 230.434265 
L 138.767782 230.195224 
L 141.39983 229.992857 
L 144.031878 229.839838 
L 146.663926 229.643278 
L 149.295973 229.649873 
L 151.928021 229.639955 
L 154.560069 229.595299 
L 157.192117 229.6656 
L 159.824164 229.745754 
L 162.456212 229.811695 
L 165.08826 229.844519 
L 167.720308 229.781102 
L 170.352355 229.670545 
L 172.984403 229.710519 
L 175.616451 229.752878 
L 178.248499 229.793779 
L 180.880546 229.697676 
L 183.512594 229.780517 
L 186.144642 229.877407 
L 188.77669 229.826019 
L 191.408737 229.747217 
L 194.040785 229.782185 
L 196.672833 230.064681 
L 199.304881 230.096781 
L 201.936928 230.093634 
L 204.568976 230.219199 
L 207.201024 230.369064 
L 209.833072 230.609098 
L 212.465119 230.815522 
L 215.097167 230.963536 
L 217.729215 231.025749 
L 220.361263 231.057225 
L 222.99331 231.152771 
L 225.625358 231.243594 
L 228.257406 231.39895 
L 230.889454 231.604369 
L 233.521501 231.705999 
L 236.153549 231.944408 
L 238.785597 232.053549 
L 241.417645 232.253914 
L 244.049692 232.353947 
L 246.68174 232.485454 
L 249.313788 232.761617 
L 251.945836 233.092042 
L 254.577883 233.422467 
L 257.209931 233.752891 
L 259.841979 234.083316 
L 262.474027 234.412427 
L 265.106074 234.71219 
L 267.738122 234.967714 
L 270.37017 235.030686 
L 273.002218 235.293834 
L 275.634265 235.745129 
L 278.266313 236.194712 
L 280.898361 236.441759 
L 283.530409 236.841042 
L 286.162456 237.23949 
L 288.794504 237.541653 
L 291.426552 237.812243 
L 294.0586 237.938446 
L 296.690647 237.958236 
L 299.322695 238.23661 
L 301.954743 238.55117 
L 304.586791 238.86573 
L 307.218838 239.10355 
L 309.850886 239.289802 
L 312.482934 239.476053 
L 315.114982 239.662305 
L 317.747029 239.968718 
L 320.379077 240.323948 
L 323.011125 240.678194 
L 325.643173 241.032224 
L 328.27522 241.386254 
L 330.907268 241.740285 
L 333.539316 242.094315 
L 336.171364 242.401647 
L 336.171364 189.229331 
L 336.171364 189.229331 
L 333.539316 189.6167 
L 330.907268 190.022743 
L 328.27522 190.428787 
L 325.643173 190.83483 
L 323.011125 191.241974 
L 320.379077 191.525569 
L 317.747029 191.659692 
L 315.114982 192.053903 
L 312.482934 192.518632 
L 309.850886 192.841918 
L 307.218838 193.203562 
L 304.586791 193.612519 
L 301.954743 193.739663 
L 299.322695 194.260388 
L 296.690647 194.605362 
L 294.0586 194.705616 
L 291.426552 194.710933 
L 288.794504 194.979218 
L 286.162456 195.298521 
L 283.530409 195.647405 
L 280.898361 195.981044 
L 278.266313 196.230682 
L 275.634265 196.404896 
L 273.002218 196.57911 
L 270.37017 196.791851 
L 267.738122 197.138988 
L 265.106074 197.486306 
L 262.474027 197.833624 
L 259.841979 198.14444 
L 257.209931 198.363437 
L 254.577883 198.533704 
L 251.945836 198.684391 
L 249.313788 199.029997 
L 246.68174 199.267007 
L 244.049692 199.577797 
L 241.417645 199.758188 
L 238.785597 199.938579 
L 236.153549 200.138598 
L 233.521501 200.480018 
L 230.889454 200.725426 
L 228.257406 200.80927 
L 225.625358 201.005634 
L 222.99331 201.226274 
L 220.361263 201.483775 
L 217.729215 201.762624 
L 215.097167 202.040513 
L 212.465119 202.378687 
L 209.833072 202.698896 
L 207.201024 203.019105 
L 204.568976 203.184154 
L 201.936928 203.336656 
L 199.304881 203.708956 
L 196.672833 203.98837 
L 194.040785 204.268062 
L 191.408737 204.520806 
L 188.77669 204.739127 
L 186.144642 204.890396 
L 183.512594 205.097209 
L 180.880546 205.105733 
L 178.248499 205.091394 
L 175.616451 205.126753 
L 172.984403 205.301629 
L 170.352355 205.471857 
L 167.720308 205.642085 
L 165.08826 205.754739 
L 162.456212 205.691047 
L 159.824164 205.790242 
L 157.192117 205.801776 
L 154.560069 205.679733 
L 151.928021 205.74709 
L 149.295973 205.655589 
L 146.663926 205.770683 
L 144.031878 205.803357 
L 141.39983 205.697431 
L 138.767782 205.597217 
L 136.135735 205.586065 
L 133.503687 205.75235 
L 130.871639 205.478892 
L 128.239591 205.37388 
L 125.607544 205.416131 
L 122.975496 205.514103 
L 120.343448 205.200771 
L 117.7114 205.142499 
L 115.079353 205.044196 
L 112.447305 204.883201 
L 109.815257 204.724227 
L 107.183209 204.567188 
L 104.551162 204.318794 
L 101.919114 204.135177 
L 99.287066 204.031374 
L 96.655018 203.93651 
L 94.022971 203.822643 
L 91.390923 203.716238 
L 88.758875 203.498677 
L 86.126827 203.315543 
L 83.49478 203.258999 
L 80.862732 203.104726 
L 78.230684 202.992556 
L 75.598636 202.796634 
z
" clip-path="url(#p63084a3387)" style="fill: #1f77b4; fill-opacity: 0.15"/>
   </g>
   <g id="matplotlib.axis_1">
    <g id="xtick_1">
     <g id="line2d_1">
      <defs>
       <path id="m77e1f90585" d="M 0 0 
L 0 3.5 
" style="stroke: #000000; stroke-width: 0.8"/>
      </defs>
      <g>
       <use xlink:href="#m77e1f90585" x="90.961201" y="317.93875" style="stroke: #000000; stroke-width: 0.8"/>
      </g>
     </g>
     <g id="text_1">
      <text style="font: 10px 'sans-serif'; text-anchor: middle" x="90.961201" y="332.537188" transform="rotate(-0, 90.961201, 332.537188)">−4</text>
     </g>
    </g>
    <g id="xtick_2">
     <g id="line2d_2">
      <g>
       <use xlink:href="#m77e1f90585" x="148.866251" y="317.93875" style="stroke: #000000; stroke-width: 0.8"/>
      </g>
     </g>
     <g id="text_2">
      <text style="font: 10px 'sans-serif'; text-anchor: middle" x="148.866251" y="332.537188" transform="rotate(-0, 148.866251, 332.537188)">−2</text>
     </g>
    </g>
    <g id="xtick_3">
     <g id="line2d_3">
      <g>
       <use xlink:href="#m77e1f90585" x="206.771302" y="317.93875" style="stroke: #000000; stroke-width: 0.8"/>
      </g>
     </g>
     <g id="text_3">
      <text style="font: 10px 'sans-serif'; text-anchor: middle" x="206.771302" y="332.537188" transform="rotate(-0, 206.771302, 332.537188)">0</text>
     </g>
    </g>
    <g id="xtick_4">
     <g id="line2d_4">
      <g>
       <use xlink:href="#m77e1f90585" x="264.676352" y="317.93875" style="stroke: #000000; stroke-width: 0.8"/>
      </g>
     </g>
     <g id="text_4">
      <text style="font: 10px 'sans-serif'; text-anchor: middle" x="264.676352" y="332.537188" transform="rotate(-0, 264.676352, 332.537188)">2</text>
     </g>
    </g>
    <g id="xtick_5">
     <g id="line2d_5">
      <g>
       <use xlink:href="#m77e1f90585" x="322.581403" y="317.93875" style="stroke: #000000; stroke-width: 0.8"/>
      </g>
     </g>
     <g id="text_5">
      <text style="font: 10px 'sans-serif'; text-anchor: middle" x="322.581403" y="332.537188" transform="rotate(-0, 322.581403, 332.537188)">4</text>
     </g>
    </g>
    <g id="text_6">
     <text style="font: 10px 'sans-serif'; text-anchor: middle" x="205.885" y="346.215312" transform="rotate(-0, 205.885, 346.215312)">Composite_Reward</text>
    </g>
   </g>
   <g id="matplotlib.axis_2">
    <g id="ytick_1">
     <g id="line2d_6">
      <defs>
       <path id="m662c9dc878" d="M 0 0 
L -3.5 0 
" style="stroke: #000000; stroke-width: 0.8"/>
      </defs>
      <g>
       <use xlink:href="#m662c9dc878" x="62.57" y="298.32945" style="stroke: #000000; stroke-width: 0.8"/>
      </g>
     </g>
     <g id="text_7">
      <text style="font: 10px 'sans-serif'; text-anchor: end" x="55.57" y="302.128668" transform="rotate(-0, 55.57, 302.128668)">−0.50</text>
     </g>
    </g>
    <g id="ytick_2">
     <g id="line2d_7">
      <g>
       <use xlink:href="#m662c9dc878" x="62.57" y="260.934146" style="stroke: #000000; stroke-width: 0.8"/>
      </g>
     </g>
     <g id="text_8">
      <text style="font: 10px 'sans-serif'; text-anchor: end" x="55.57" y="264.733365" transform="rotate(-0, 55.57, 264.733365)">−0.25</text>
     </g>
    </g>
    <g id="ytick_3">
     <g id="line2d_8">
      <g>
       <use xlink:href="#m662c9dc878" x="62.57" y="223.538843" style="stroke: #000000; stroke-width: 0.8"/>
      </g>
     </g>
     <g id="text_9">
      <text style="font: 10px 'sans-serif'; text-anchor: end" x="55.57" y="227.338062" transform="rotate(-0, 55.57, 227.338062)">0.00</text>
     </g>
    </g>
    <g id="ytick_4">
     <g id="line2d_9">
      <g>
       <use xlink:href="#m662c9dc878" x="62.57" y="186.143539" style="stroke: #000000; stroke-width: 0.8"/>
      </g>
     </g>
     <g id="text_10">
      <text style="font: 10px 'sans-serif'; text-anchor: end" x="55.57" y="189.942758" transform="rotate(-0, 55.57, 189.942758)">0.25</text>
     </g>
    </g>
    <g id="ytick_5">
     <g id="line2d_10">
      <g>
       <use xlink:href="#m662c9dc878" x="62.57" y="148.748236" style="stroke: #000000; stroke-width: 0.8"/>
      </g>
     </g>
     <g id="text_11">
      <text style="font: 10px 'sans-serif'; text-anchor: end" x="55.57" y="152.547455" transform="rotate(-0, 55.57, 152.547455)">0.50</text>
     </g>
    </g>
    <g id="ytick_6">
     <g id="line2d_11">
      <g>
       <use xlink:href="#m662c9dc878" x="62.57" y="111.352932" style="stroke: #000000; stroke-width: 0.8"/>
      </g>
     </g>
     <g id="text_12">
      <text style="font: 10px 'sans-serif'; text-anchor: end" x="55.57" y="115.152151" transform="rotate(-0, 55.57, 115.152151)">0.75</text>
     </g>
    </g>
    <g id="ytick_7">
     <g id="line2d_12">
      <g>
       <use xlink:href="#m662c9dc878" x="62.57" y="73.957629" style="stroke: #000000; stroke-width: 0.8"/>
      </g>
     </g>
     <g id="text_13">
      <text style="font: 10px 'sans-serif'; text-anchor: end" x="55.57" y="77.756848" transform="rotate(-0, 55.57, 77.756848)">1.00</text>
     </g>
    </g>
    <g id="ytick_8">
     <g id="line2d_13">
      <g>
       <use xlink:href="#m662c9dc878" x="62.57" y="36.562326" style="stroke: #000000; stroke-width: 0.8"/>
      </g>
     </g>
     <g id="text_14">
      <text style="font: 10px 'sans-serif'; text-anchor: end" x="55.57" y="40.361544" transform="rotate(-0, 55.57, 40.361544)">1.25</text>
     </g>
    </g>
    <g id="text_15">
     <text style="font: 10px 'sans-serif'; text-anchor: middle" x="18.845" y="164.369375" transform="rotate(-90, 18.845, 164.369375)">Conn LL-SL</text>
    </g>
   </g>
   <g id="line2d_14">
    <path d="M 75.598636 217.903366 
L 78.230684 217.893687 
L 80.862732 217.884008 
L 83.49478 217.87433 
L 86.126827 217.864651 
L 88.758875 217.854972 
L 91.390923 217.845294 
L 94.022971 217.835615 
L 96.655018 217.825937 
L 99.287066 217.816258 
L 101.919114 217.806579 
L 104.551162 217.796901 
L 107.183209 217.787222 
L 109.815257 217.777544 
L 112.447305 217.767865 
L 115.079353 217.758186 
L 117.7114 217.748508 
L 120.343448 217.738829 
L 122.975496 217.72915 
L 125.607544 217.719472 
L 128.239591 217.709793 
L 130.871639 217.700115 
L 133.503687 217.690436 
L 136.135735 217.680757 
L 138.767782 217.671079 
L 141.39983 217.6614 
L 144.031878 217.651722 
L 146.663926 217.642043 
L 149.295973 217.632364 
L 151.928021 217.622686 
L 154.560069 217.613007 
L 157.192117 217.603329 
L 159.824164 217.59365 
L 162.456212 217.583971 
L 165.08826 217.574293 
L 167.720308 217.564614 
L 170.352355 217.554935 
L 172.984403 217.545257 
L 175.616451 217.535578 
L 178.248499 217.5259 
L 180.880546 217.516221 
L 183.512594 217.506542 
L 186.144642 217.496864 
L 188.77669 217.487185 
L 191.408737 217.477507 
L 194.040785 217.467828 
L 196.672833 217.458149 
L 199.304881 217.448471 
L 201.936928 217.438792 
L 204.568976 217.429113 
L 207.201024 217.419435 
L 209.833072 217.409756 
L 212.465119 217.400078 
L 215.097167 217.390399 
L 217.729215 217.38072 
L 220.361263 217.371042 
L 222.99331 217.361363 
L 225.625358 217.351685 
L 228.257406 217.342006 
L 230.889454 217.332327 
L 233.521501 217.322649 
L 236.153549 217.31297 
L 238.785597 217.303292 
L 241.417645 217.293613 
L 244.049692 217.283934 
L 246.68174 217.274256 
L 249.313788 217.264577 
L 251.945836 217.254898 
L 254.577883 217.24522 
L 257.209931 217.235541 
L 259.841979 217.225863 
L 262.474027 217.216184 
L 265.106074 217.206505 
L 267.738122 217.196827 
L 270.37017 217.187148 
L 273.002218 217.17747 
L 275.634265 217.167791 
L 278.266313 217.158112 
L 280.898361 217.148434 
L 283.530409 217.138755 
L 286.162456 217.129076 
L 288.794504 217.119398 
L 291.426552 217.109719 
L 294.0586 217.100041 
L 296.690647 217.090362 
L 299.322695 217.080683 
L 301.954743 217.071005 
L 304.586791 217.061326 
L 307.218838 217.051648 
L 309.850886 217.041969 
L 312.482934 217.03229 
L 315.114982 217.022612 
L 317.747029 217.012933 
L 320.379077 217.003254 
L 323.011125 216.993576 
L 325.643173 216.983897 
L 328.27522 216.974219 
L 330.907268 216.96454 
L 333.539316 216.954861 
L 336.171364 216.945183 
" clip-path="url(#p63084a3387)" style="fill: none; stroke: #1f77b4; stroke-width: 2.25; stroke-linecap: square"/>
   </g>
   <g id="patch_3">
    <path d="M 62.57 317.93875 
L 62.57 10.8 
" style="fill: none; stroke: #000000; stroke-width: 0.8; stroke-linejoin: miter; stroke-linecap: square"/>
   </g>
   <g id="patch_4">
    <path d="M 62.57 317.93875 
L 349.2 317.93875 
" style="fill: none; stroke: #000000; stroke-width: 0.8; stroke-linejoin: miter; stroke-linecap: square"/>
   </g>
  </g>
 </g>
 <defs>
  <clipPath id="p63084a3387">
   <rect x="62.57" y="10.8" width="286.63" height="307.13875"/>
  </clipPath>
 </defs>
</svg>
