<?xml version="1.0" encoding="utf-8" standalone="no"?>
<!DOCTYPE svg PUBLIC "-//W3C//DTD SVG 1.1//EN"
  "http://www.w3.org/Graphics/SVG/1.1/DTD/svg11.dtd">
<svg xmlns:xlink="http://www.w3.org/1999/xlink" width="360pt" height="360pt" viewBox="0 0 360 360" xmlns="http://www.w3.org/2000/svg" version="1.1">
 <metadata>
  <rdf:RDF xmlns:dc="http://purl.org/dc/elements/1.1/" xmlns:cc="http://creativecommons.org/ns#" xmlns:rdf="http://www.w3.org/1999/02/22-rdf-syntax-ns#">
   <cc:Work>
    <dc:type rdf:resource="http://purl.org/dc/dcmitype/StillImage"/>
    <dc:date>2022-11-22T21:38:34.694693</dc:date>
    <dc:format>image/svg+xml</dc:format>
    <dc:creator>
     <cc:Agent>
      <dc:title>Matplotlib v3.5.3, https://matplotlib.org/</dc:title>
     </cc:Agent>
    </dc:creator>
   </cc:Work>
  </rdf:RDF>
 </metadata>
 <defs>
  <style type="text/css">*{stroke-linejoin: round; stroke-linecap: butt}</style>
 </defs>
 <g id="figure_1">
  <g id="patch_1">
   <path d="M 0 360 
L 360 360 
L 360 0 
L 0 0 
z
" style="fill: #ffffff"/>
  </g>
  <g id="axes_1">
   <g id="patch_2">
    <path d="M 56.18 317.93875 
L 349.2 317.93875 
L 349.2 10.8 
L 56.18 10.8 
z
" style="fill: #ffffff"/>
   </g>
   <g id="PathCollection_1">
    <defs>
     <path id="m2fa0a430ad" d="M 0 3 
C 0.795609 3 1.55874 2.683901 2.12132 2.12132 
C 2.683901 1.55874 3 0.795609 3 0 
C 3 -0.795609 2.683901 -1.55874 2.12132 -2.12132 
C 1.55874 -2.683901 0.795609 -3 0 -3 
C -0.795609 -3 -1.55874 -2.683901 -2.12132 -2.12132 
C -2.683901 -1.55874 -3 -0.795609 -3 0 
C -3 0.795609 -2.683901 1.55874 -2.12132 2.12132 
C -1.55874 2.683901 -0.795609 3 0 3 
z
" style="stroke: #1f77b4; stroke-opacity: 0.8"/>
    </defs>
    <g clip-path="url(#p4f8861f682)">
     <use xlink:href="#m2fa0a430ad" x="217.48899" y="260.374162" style="fill: #1f77b4; fill-opacity: 0.8; stroke: #1f77b4; stroke-opacity: 0.8"/>
     <use xlink:href="#m2fa0a430ad" x="217.48899" y="231.559455" style="fill: #1f77b4; fill-opacity: 0.8; stroke: #1f77b4; stroke-opacity: 0.8"/>
     <use xlink:href="#m2fa0a430ad" x="276.684949" y="275.806624" style="fill: #1f77b4; fill-opacity: 0.8; stroke: #1f77b4; stroke-opacity: 0.8"/>
     <use xlink:href="#m2fa0a430ad" x="187.89101" y="252.336948" style="fill: #1f77b4; fill-opacity: 0.8; stroke: #1f77b4; stroke-opacity: 0.8"/>
     <use xlink:href="#m2fa0a430ad" x="247.08697" y="205.78906" style="fill: #1f77b4; fill-opacity: 0.8; stroke: #1f77b4; stroke-opacity: 0.8"/>
     <use xlink:href="#m2fa0a430ad" x="158.29303" y="177.624195" style="fill: #1f77b4; fill-opacity: 0.8; stroke: #1f77b4; stroke-opacity: 0.8"/>
     <use xlink:href="#m2fa0a430ad" x="276.684949" y="193.816755" style="fill: #1f77b4; fill-opacity: 0.8; stroke: #1f77b4; stroke-opacity: 0.8"/>
     <use xlink:href="#m2fa0a430ad" x="69.499091" y="202.412303" style="fill: #1f77b4; fill-opacity: 0.8; stroke: #1f77b4; stroke-opacity: 0.8"/>
     <use xlink:href="#m2fa0a430ad" x="335.880909" y="61.555061" style="fill: #1f77b4; fill-opacity: 0.8; stroke: #1f77b4; stroke-opacity: 0.8"/>
     <use xlink:href="#m2fa0a430ad" x="99.097071" y="151.502694" style="fill: #1f77b4; fill-opacity: 0.8; stroke: #1f77b4; stroke-opacity: 0.8"/>
     <use xlink:href="#m2fa0a430ad" x="306.282929" y="173.785984" style="fill: #1f77b4; fill-opacity: 0.8; stroke: #1f77b4; stroke-opacity: 0.8"/>
     <use xlink:href="#m2fa0a430ad" x="276.684949" y="206.510385" style="fill: #1f77b4; fill-opacity: 0.8; stroke: #1f77b4; stroke-opacity: 0.8"/>
     <use xlink:href="#m2fa0a430ad" x="158.29303" y="218.775367" style="fill: #1f77b4; fill-opacity: 0.8; stroke: #1f77b4; stroke-opacity: 0.8"/>
     <use xlink:href="#m2fa0a430ad" x="276.684949" y="76.698674" style="fill: #1f77b4; fill-opacity: 0.8; stroke: #1f77b4; stroke-opacity: 0.8"/>
     <use xlink:href="#m2fa0a430ad" x="128.695051" y="247.196625" style="fill: #1f77b4; fill-opacity: 0.8; stroke: #1f77b4; stroke-opacity: 0.8"/>
     <use xlink:href="#m2fa0a430ad" x="335.880909" y="185.904791" style="fill: #1f77b4; fill-opacity: 0.8; stroke: #1f77b4; stroke-opacity: 0.8"/>
     <use xlink:href="#m2fa0a430ad" x="99.097071" y="281.413281" style="fill: #1f77b4; fill-opacity: 0.8; stroke: #1f77b4; stroke-opacity: 0.8"/>
     <use xlink:href="#m2fa0a430ad" x="306.282929" y="224.04126" style="fill: #1f77b4; fill-opacity: 0.8; stroke: #1f77b4; stroke-opacity: 0.8"/>
     <use xlink:href="#m2fa0a430ad" x="276.684949" y="160.978285" style="fill: #1f77b4; fill-opacity: 0.8; stroke: #1f77b4; stroke-opacity: 0.8"/>
     <use xlink:href="#m2fa0a430ad" x="247.08697" y="185.905792" style="fill: #1f77b4; fill-opacity: 0.8; stroke: #1f77b4; stroke-opacity: 0.8"/>
     <use xlink:href="#m2fa0a430ad" x="158.29303" y="248.737413" style="fill: #1f77b4; fill-opacity: 0.8; stroke: #1f77b4; stroke-opacity: 0.8"/>
     <use xlink:href="#m2fa0a430ad" x="128.695051" y="205.156836" style="fill: #1f77b4; fill-opacity: 0.8; stroke: #1f77b4; stroke-opacity: 0.8"/>
     <use xlink:href="#m2fa0a430ad" x="335.880909" y="284.650625" style="fill: #1f77b4; fill-opacity: 0.8; stroke: #1f77b4; stroke-opacity: 0.8"/>
     <use xlink:href="#m2fa0a430ad" x="187.89101" y="120.289955" style="fill: #1f77b4; fill-opacity: 0.8; stroke: #1f77b4; stroke-opacity: 0.8"/>
     <use xlink:href="#m2fa0a430ad" x="128.695051" y="119.8094" style="fill: #1f77b4; fill-opacity: 0.8; stroke: #1f77b4; stroke-opacity: 0.8"/>
     <use xlink:href="#m2fa0a430ad" x="69.499091" y="184.037258" style="fill: #1f77b4; fill-opacity: 0.8; stroke: #1f77b4; stroke-opacity: 0.8"/>
     <use xlink:href="#m2fa0a430ad" x="128.695051" y="254.63397" style="fill: #1f77b4; fill-opacity: 0.8; stroke: #1f77b4; stroke-opacity: 0.8"/>
     <use xlink:href="#m2fa0a430ad" x="335.880909" y="223.118627" style="fill: #1f77b4; fill-opacity: 0.8; stroke: #1f77b4; stroke-opacity: 0.8"/>
     <use xlink:href="#m2fa0a430ad" x="217.48899" y="161.807709" style="fill: #1f77b4; fill-opacity: 0.8; stroke: #1f77b4; stroke-opacity: 0.8"/>
     <use xlink:href="#m2fa0a430ad" x="247.08697" y="243.379208" style="fill: #1f77b4; fill-opacity: 0.8; stroke: #1f77b4; stroke-opacity: 0.8"/>
     <use xlink:href="#m2fa0a430ad" x="335.880909" y="245.91826" style="fill: #1f77b4; fill-opacity: 0.8; stroke: #1f77b4; stroke-opacity: 0.8"/>
     <use xlink:href="#m2fa0a430ad" x="158.29303" y="209.18099" style="fill: #1f77b4; fill-opacity: 0.8; stroke: #1f77b4; stroke-opacity: 0.8"/>
     <use xlink:href="#m2fa0a430ad" x="217.48899" y="61.220242" style="fill: #1f77b4; fill-opacity: 0.8; stroke: #1f77b4; stroke-opacity: 0.8"/>
     <use xlink:href="#m2fa0a430ad" x="99.097071" y="236.148028" style="fill: #1f77b4; fill-opacity: 0.8; stroke: #1f77b4; stroke-opacity: 0.8"/>
     <use xlink:href="#m2fa0a430ad" x="128.695051" y="303.977898" style="fill: #1f77b4; fill-opacity: 0.8; stroke: #1f77b4; stroke-opacity: 0.8"/>
     <use xlink:href="#m2fa0a430ad" x="69.499091" y="178.675475" style="fill: #1f77b4; fill-opacity: 0.8; stroke: #1f77b4; stroke-opacity: 0.8"/>
     <use xlink:href="#m2fa0a430ad" x="306.282929" y="221.538287" style="fill: #1f77b4; fill-opacity: 0.8; stroke: #1f77b4; stroke-opacity: 0.8"/>
     <use xlink:href="#m2fa0a430ad" x="69.499091" y="169.656469" style="fill: #1f77b4; fill-opacity: 0.8; stroke: #1f77b4; stroke-opacity: 0.8"/>
     <use xlink:href="#m2fa0a430ad" x="99.097071" y="223.426053" style="fill: #1f77b4; fill-opacity: 0.8; stroke: #1f77b4; stroke-opacity: 0.8"/>
     <use xlink:href="#m2fa0a430ad" x="187.89101" y="34.676575" style="fill: #1f77b4; fill-opacity: 0.8; stroke: #1f77b4; stroke-opacity: 0.8"/>
     <use xlink:href="#m2fa0a430ad" x="306.282929" y="24.760852" style="fill: #1f77b4; fill-opacity: 0.8; stroke: #1f77b4; stroke-opacity: 0.8"/>
     <use xlink:href="#m2fa0a430ad" x="247.08697" y="164.128763" style="fill: #1f77b4; fill-opacity: 0.8; stroke: #1f77b4; stroke-opacity: 0.8"/>
     <use xlink:href="#m2fa0a430ad" x="99.097071" y="210.611773" style="fill: #1f77b4; fill-opacity: 0.8; stroke: #1f77b4; stroke-opacity: 0.8"/>
     <use xlink:href="#m2fa0a430ad" x="158.29303" y="87.724276" style="fill: #1f77b4; fill-opacity: 0.8; stroke: #1f77b4; stroke-opacity: 0.8"/>
     <use xlink:href="#m2fa0a430ad" x="99.097071" y="286.857434" style="fill: #1f77b4; fill-opacity: 0.8; stroke: #1f77b4; stroke-opacity: 0.8"/>
     <use xlink:href="#m2fa0a430ad" x="217.48899" y="153.512995" style="fill: #1f77b4; fill-opacity: 0.8; stroke: #1f77b4; stroke-opacity: 0.8"/>
     <use xlink:href="#m2fa0a430ad" x="247.08697" y="182.928524" style="fill: #1f77b4; fill-opacity: 0.8; stroke: #1f77b4; stroke-opacity: 0.8"/>
    </g>
   </g>
   <g id="PolyCollection_1">
    <path d="M 69.499091 177.580219 
L 69.499091 235.525439 
L 72.189816 234.585042 
L 74.880542 234.013009 
L 77.571267 233.088587 
L 80.261993 232.411469 
L 82.952718 231.812736 
L 85.643444 231.090006 
L 88.334169 230.198195 
L 91.024894 229.468892 
L 93.71562 228.868819 
L 96.406345 228.130344 
L 99.097071 227.673937 
L 101.787796 227.017854 
L 104.478522 226.479818 
L 107.169247 225.541331 
L 109.859972 224.809489 
L 112.550698 224.407607 
L 115.241423 223.848696 
L 117.932149 223.016844 
L 120.622874 222.480405 
L 123.3136 221.393922 
L 126.004325 220.78491 
L 128.695051 220.582565 
L 131.385776 220.097196 
L 134.076501 219.48753 
L 136.767227 219.074291 
L 139.457952 218.185683 
L 142.148678 217.564421 
L 144.839403 217.216109 
L 147.530129 216.911103 
L 150.220854 216.505719 
L 152.911579 215.737623 
L 155.602305 215.144483 
L 158.29303 214.544048 
L 160.983756 214.165508 
L 163.674481 213.70493 
L 166.365207 213.234977 
L 169.055932 212.956509 
L 171.746657 212.965094 
L 174.437383 212.523116 
L 177.128108 212.012573 
L 179.818834 211.740463 
L 182.509559 211.68132 
L 185.200285 211.128449 
L 187.89101 210.994684 
L 190.581736 210.857933 
L 193.272461 210.592299 
L 195.963186 210.505398 
L 198.653912 210.350867 
L 201.344637 210.063378 
L 204.035363 209.887341 
L 206.726088 209.706175 
L 209.416814 209.530898 
L 212.107539 209.184614 
L 214.798264 208.930845 
L 217.48899 208.92863 
L 220.179715 208.766368 
L 222.870441 208.582248 
L 225.561166 208.472251 
L 228.251892 208.125625 
L 230.942617 208.080116 
L 233.633343 207.943249 
L 236.324068 207.947478 
L 239.014793 207.927614 
L 241.705519 207.865686 
L 244.396244 207.820459 
L 247.08697 207.777546 
L 249.777695 207.746694 
L 252.468421 207.707468 
L 255.159146 207.74315 
L 257.849871 207.969011 
L 260.540597 208.194872 
L 263.231322 208.309101 
L 265.922048 208.285907 
L 268.612773 208.507957 
L 271.303499 208.626017 
L 273.994224 208.631867 
L 276.684949 208.640001 
L 279.375675 208.770862 
L 282.0664 208.869013 
L 284.757126 209.060857 
L 287.447851 209.268769 
L 290.138577 209.082578 
L 292.829302 209.046474 
L 295.520028 209.092345 
L 298.210753 209.207736 
L 300.901478 209.424048 
L 303.592204 209.64036 
L 306.282929 209.851775 
L 308.973655 210.062434 
L 311.66438 210.273094 
L 314.355106 210.483753 
L 317.045831 210.654023 
L 319.736556 210.655744 
L 322.427282 210.654853 
L 325.118007 210.682417 
L 327.808733 210.826684 
L 330.499458 210.834976 
L 333.190184 210.841034 
L 335.880909 210.861318 
L 335.880909 133.82203 
L 335.880909 133.82203 
L 333.190184 134.471705 
L 330.499458 135.12138 
L 327.808733 136.066361 
L 325.118007 137.118406 
L 322.427282 137.939397 
L 319.736556 138.679102 
L 317.045831 139.425147 
L 314.355106 140.171192 
L 311.66438 140.917237 
L 308.973655 141.899061 
L 306.282929 142.921786 
L 303.592204 143.928348 
L 300.901478 144.698023 
L 298.210753 145.686829 
L 295.520028 146.683302 
L 292.829302 147.645798 
L 290.138577 148.324754 
L 287.447851 148.8096 
L 284.757126 149.834238 
L 282.0664 150.484494 
L 279.375675 151.144456 
L 276.684949 151.80673 
L 273.994224 152.963434 
L 271.303499 154.009804 
L 268.612773 154.7598 
L 265.922048 155.766997 
L 263.231322 156.781689 
L 260.540597 157.695152 
L 257.849871 158.260354 
L 255.159146 158.825556 
L 252.468421 159.450911 
L 249.777695 160.342465 
L 247.08697 161.225616 
L 244.396244 162.104347 
L 241.705519 162.81307 
L 239.014793 163.416435 
L 236.324068 164.028213 
L 233.633343 164.6421 
L 230.942617 165.259188 
L 228.251892 165.876276 
L 225.561166 166.823166 
L 222.870441 167.818941 
L 220.179715 168.805471 
L 217.48899 169.461369 
L 214.798264 169.990607 
L 212.107539 170.514126 
L 209.416814 171.275846 
L 206.726088 171.867724 
L 204.035363 172.124831 
L 201.344637 172.74067 
L 198.653912 173.127344 
L 195.963186 173.468047 
L 193.272461 173.765661 
L 190.581736 174.004666 
L 187.89101 174.425438 
L 185.200285 175.165766 
L 182.509559 175.518035 
L 179.818834 175.881556 
L 177.128108 176.182942 
L 174.437383 176.440659 
L 171.746657 176.470011 
L 169.055932 176.649394 
L 166.365207 176.984147 
L 163.674481 177.306887 
L 160.983756 177.199105 
L 158.29303 177.197788 
L 155.602305 177.352807 
L 152.911579 177.449584 
L 150.220854 177.672973 
L 147.530129 177.922853 
L 144.839403 178.072421 
L 142.148678 178.167218 
L 139.457952 178.242733 
L 136.767227 178.378118 
L 134.076501 178.157663 
L 131.385776 178.422127 
L 128.695051 178.687186 
L 126.004325 178.46898 
L 123.3136 178.250775 
L 120.622874 178.220966 
L 117.932149 178.233688 
L 115.241423 178.241178 
L 112.550698 178.200548 
L 109.859972 178.276739 
L 107.169247 178.290505 
L 104.478522 178.297871 
L 101.787796 178.310708 
L 99.097071 178.323545 
L 96.406345 178.336381 
L 93.71562 178.307151 
L 91.024894 178.079914 
L 88.334169 177.804853 
L 85.643444 177.715225 
L 82.952718 177.763561 
L 80.261993 177.744633 
L 77.571267 177.726545 
L 74.880542 177.586948 
L 72.189816 177.590016 
L 69.499091 177.580219 
z
" clip-path="url(#p4f8861f682)" style="fill: #1f77b4; fill-opacity: 0.15"/>
   </g>
   <g id="matplotlib.axis_1">
    <g id="xtick_1">
     <g id="line2d_1">
      <defs>
       <path id="m137d5ce2f2" d="M 0 0 
L 0 3.5 
" style="stroke: #000000; stroke-width: 0.8"/>
      </defs>
      <g>
       <use xlink:href="#m137d5ce2f2" x="85.204141" y="317.93875" style="stroke: #000000; stroke-width: 0.8"/>
      </g>
     </g>
     <g id="text_1">
      <text style="font: 10px 'sans-serif'; text-anchor: middle" x="85.204141" y="332.537188" transform="rotate(-0, 85.204141, 332.537188)">−4</text>
     </g>
    </g>
    <g id="xtick_2">
     <g id="line2d_2">
      <g>
       <use xlink:href="#m137d5ce2f2" x="144.400101" y="317.93875" style="stroke: #000000; stroke-width: 0.8"/>
      </g>
     </g>
     <g id="text_2">
      <text style="font: 10px 'sans-serif'; text-anchor: middle" x="144.400101" y="332.537188" transform="rotate(-0, 144.400101, 332.537188)">−2</text>
     </g>
    </g>
    <g id="xtick_3">
     <g id="line2d_3">
      <g>
       <use xlink:href="#m137d5ce2f2" x="203.596061" y="317.93875" style="stroke: #000000; stroke-width: 0.8"/>
      </g>
     </g>
     <g id="text_3">
      <text style="font: 10px 'sans-serif'; text-anchor: middle" x="203.596061" y="332.537188" transform="rotate(-0, 203.596061, 332.537188)">0</text>
     </g>
    </g>
    <g id="xtick_4">
     <g id="line2d_4">
      <g>
       <use xlink:href="#m137d5ce2f2" x="262.79202" y="317.93875" style="stroke: #000000; stroke-width: 0.8"/>
      </g>
     </g>
     <g id="text_4">
      <text style="font: 10px 'sans-serif'; text-anchor: middle" x="262.79202" y="332.537188" transform="rotate(-0, 262.79202, 332.537188)">2</text>
     </g>
    </g>
    <g id="xtick_5">
     <g id="line2d_5">
      <g>
       <use xlink:href="#m137d5ce2f2" x="321.98798" y="317.93875" style="stroke: #000000; stroke-width: 0.8"/>
      </g>
     </g>
     <g id="text_5">
      <text style="font: 10px 'sans-serif'; text-anchor: middle" x="321.98798" y="332.537188" transform="rotate(-0, 321.98798, 332.537188)">4</text>
     </g>
    </g>
    <g id="text_6">
     <text style="font: 10px 'sans-serif'; text-anchor: middle" x="202.69" y="346.215312" transform="rotate(-0, 202.69, 346.215312)">Composite_Reward</text>
    </g>
   </g>
   <g id="matplotlib.axis_2">
    <g id="ytick_1">
     <g id="line2d_6">
      <defs>
       <path id="mcd1c87d289" d="M 0 0 
L -3.5 0 
" style="stroke: #000000; stroke-width: 0.8"/>
      </defs>
      <g>
       <use xlink:href="#mcd1c87d289" x="56.18" y="316.266243" style="stroke: #000000; stroke-width: 0.8"/>
      </g>
     </g>
     <g id="text_7">
      <text style="font: 10px 'sans-serif'; text-anchor: end" x="49.18" y="320.065461" transform="rotate(-0, 49.18, 320.065461)">−0.4</text>
     </g>
    </g>
    <g id="ytick_2">
     <g id="line2d_7">
      <g>
       <use xlink:href="#mcd1c87d289" x="56.18" y="249.373235" style="stroke: #000000; stroke-width: 0.8"/>
      </g>
     </g>
     <g id="text_8">
      <text style="font: 10px 'sans-serif'; text-anchor: end" x="49.18" y="253.172454" transform="rotate(-0, 49.18, 253.172454)">−0.2</text>
     </g>
    </g>
    <g id="ytick_3">
     <g id="line2d_8">
      <g>
       <use xlink:href="#mcd1c87d289" x="56.18" y="182.480228" style="stroke: #000000; stroke-width: 0.8"/>
      </g>
     </g>
     <g id="text_9">
      <text style="font: 10px 'sans-serif'; text-anchor: end" x="49.18" y="186.279447" transform="rotate(-0, 49.18, 186.279447)">0.0</text>
     </g>
    </g>
    <g id="ytick_4">
     <g id="line2d_9">
      <g>
       <use xlink:href="#mcd1c87d289" x="56.18" y="115.587221" style="stroke: #000000; stroke-width: 0.8"/>
      </g>
     </g>
     <g id="text_10">
      <text style="font: 10px 'sans-serif'; text-anchor: end" x="49.18" y="119.38644" transform="rotate(-0, 49.18, 119.38644)">0.2</text>
     </g>
    </g>
    <g id="ytick_5">
     <g id="line2d_10">
      <g>
       <use xlink:href="#mcd1c87d289" x="56.18" y="48.694214" style="stroke: #000000; stroke-width: 0.8"/>
      </g>
     </g>
     <g id="text_11">
      <text style="font: 10px 'sans-serif'; text-anchor: end" x="49.18" y="52.493433" transform="rotate(-0, 49.18, 52.493433)">0.4</text>
     </g>
    </g>
    <g id="text_12">
     <text style="font: 10px 'sans-serif'; text-anchor: middle" x="18.8175" y="164.369375" transform="rotate(-90, 18.8175, 164.369375)">Conn LL-SL</text>
    </g>
   </g>
   <g id="line2d_11">
    <path d="M 69.499091 207.492062 
L 72.189816 207.172766 
L 74.880542 206.853469 
L 77.571267 206.534172 
L 80.261993 206.214876 
L 82.952718 205.895579 
L 85.643444 205.576282 
L 88.334169 205.256985 
L 91.024894 204.937689 
L 93.71562 204.618392 
L 96.406345 204.299095 
L 99.097071 203.979799 
L 101.787796 203.660502 
L 104.478522 203.341205 
L 107.169247 203.021909 
L 109.859972 202.702612 
L 112.550698 202.383315 
L 115.241423 202.064019 
L 117.932149 201.744722 
L 120.622874 201.425425 
L 123.3136 201.106129 
L 126.004325 200.786832 
L 128.695051 200.467535 
L 131.385776 200.148239 
L 134.076501 199.828942 
L 136.767227 199.509645 
L 139.457952 199.190349 
L 142.148678 198.871052 
L 144.839403 198.551755 
L 147.530129 198.232459 
L 150.220854 197.913162 
L 152.911579 197.593865 
L 155.602305 197.274569 
L 158.29303 196.955272 
L 160.983756 196.635975 
L 163.674481 196.316678 
L 166.365207 195.997382 
L 169.055932 195.678085 
L 171.746657 195.358788 
L 174.437383 195.039492 
L 177.128108 194.720195 
L 179.818834 194.400898 
L 182.509559 194.081602 
L 185.200285 193.762305 
L 187.89101 193.443008 
L 190.581736 193.123712 
L 193.272461 192.804415 
L 195.963186 192.485118 
L 198.653912 192.165822 
L 201.344637 191.846525 
L 204.035363 191.527228 
L 206.726088 191.207932 
L 209.416814 190.888635 
L 212.107539 190.569338 
L 214.798264 190.250042 
L 217.48899 189.930745 
L 220.179715 189.611448 
L 222.870441 189.292152 
L 225.561166 188.972855 
L 228.251892 188.653558 
L 230.942617 188.334261 
L 233.633343 188.014965 
L 236.324068 187.695668 
L 239.014793 187.376371 
L 241.705519 187.057075 
L 244.396244 186.737778 
L 247.08697 186.418481 
L 249.777695 186.099185 
L 252.468421 185.779888 
L 255.159146 185.460591 
L 257.849871 185.141295 
L 260.540597 184.821998 
L 263.231322 184.502701 
L 265.922048 184.183405 
L 268.612773 183.864108 
L 271.303499 183.544811 
L 273.994224 183.225515 
L 276.684949 182.906218 
L 279.375675 182.586921 
L 282.0664 182.267625 
L 284.757126 181.948328 
L 287.447851 181.629031 
L 290.138577 181.309735 
L 292.829302 180.990438 
L 295.520028 180.671141 
L 298.210753 180.351845 
L 300.901478 180.032548 
L 303.592204 179.713251 
L 306.282929 179.393954 
L 308.973655 179.074658 
L 311.66438 178.755361 
L 314.355106 178.436064 
L 317.045831 178.116768 
L 319.736556 177.797471 
L 322.427282 177.478174 
L 325.118007 177.158878 
L 327.808733 176.839581 
L 330.499458 176.520284 
L 333.190184 176.200988 
L 335.880909 175.881691 
" clip-path="url(#p4f8861f682)" style="fill: none; stroke: #1f77b4; stroke-width: 2.25; stroke-linecap: square"/>
   </g>
   <g id="patch_3">
    <path d="M 56.18 317.93875 
L 56.18 10.8 
" style="fill: none; stroke: #000000; stroke-width: 0.8; stroke-linejoin: miter; stroke-linecap: square"/>
   </g>
   <g id="patch_4">
    <path d="M 56.18 317.93875 
L 349.2 317.93875 
" style="fill: none; stroke: #000000; stroke-width: 0.8; stroke-linejoin: miter; stroke-linecap: square"/>
   </g>
  </g>
 </g>
 <defs>
  <clipPath id="p4f8861f682">
   <rect x="56.18" y="10.8" width="293.02" height="307.13875"/>
  </clipPath>
 </defs>
</svg>
