<?xml version="1.0" encoding="utf-8" standalone="no"?>
<!DOCTYPE svg PUBLIC "-//W3C//DTD SVG 1.1//EN"
  "http://www.w3.org/Graphics/SVG/1.1/DTD/svg11.dtd">
<svg xmlns:xlink="http://www.w3.org/1999/xlink" width="360pt" height="360pt" viewBox="0 0 360 360" xmlns="http://www.w3.org/2000/svg" version="1.1">
 <metadata>
  <rdf:RDF xmlns:dc="http://purl.org/dc/elements/1.1/" xmlns:cc="http://creativecommons.org/ns#" xmlns:rdf="http://www.w3.org/1999/02/22-rdf-syntax-ns#">
   <cc:Work>
    <dc:type rdf:resource="http://purl.org/dc/dcmitype/StillImage"/>
    <dc:date>2022-11-22T21:32:07.122719</dc:date>
    <dc:format>image/svg+xml</dc:format>
    <dc:creator>
     <cc:Agent>
      <dc:title>Matplotlib v3.5.3, https://matplotlib.org/</dc:title>
     </cc:Agent>
    </dc:creator>
   </cc:Work>
  </rdf:RDF>
 </metadata>
 <defs>
  <style type="text/css">*{stroke-linejoin: round; stroke-linecap: butt}</style>
 </defs>
 <g id="figure_1">
  <g id="patch_1">
   <path d="M 0 360 
L 360 360 
L 360 0 
L 0 0 
z
" style="fill: #ffffff"/>
  </g>
  <g id="axes_1">
   <g id="patch_2">
    <path d="M 56.18 317.93875 
L 349.2 317.93875 
L 349.2 10.8 
L 56.18 10.8 
z
" style="fill: #ffffff"/>
   </g>
   <g id="PathCollection_1">
    <defs>
     <path id="m68bc1e73b7" d="M 0 3 
C 0.795609 3 1.55874 2.683901 2.12132 2.12132 
C 2.683901 1.55874 3 0.795609 3 0 
C 3 -0.795609 2.683901 -1.55874 2.12132 -2.12132 
C 1.55874 -2.683901 0.795609 -3 0 -3 
C -0.795609 -3 -1.55874 -2.683901 -2.12132 -2.12132 
C -2.683901 -1.55874 -3 -0.795609 -3 0 
C -3 0.795609 -2.683901 1.55874 -2.12132 2.12132 
C -1.55874 2.683901 -0.795609 3 0 3 
z
" style="stroke: #1f77b4; stroke-opacity: 0.8"/>
    </defs>
    <g clip-path="url(#pab01612f9f)">
     <use xlink:href="#m68bc1e73b7" x="217.48899" y="128.864466" style="fill: #1f77b4; fill-opacity: 0.8; stroke: #1f77b4; stroke-opacity: 0.8"/>
     <use xlink:href="#m68bc1e73b7" x="217.48899" y="167.915761" style="fill: #1f77b4; fill-opacity: 0.8; stroke: #1f77b4; stroke-opacity: 0.8"/>
     <use xlink:href="#m68bc1e73b7" x="276.684949" y="139.644352" style="fill: #1f77b4; fill-opacity: 0.8; stroke: #1f77b4; stroke-opacity: 0.8"/>
     <use xlink:href="#m68bc1e73b7" x="187.89101" y="284.63851" style="fill: #1f77b4; fill-opacity: 0.8; stroke: #1f77b4; stroke-opacity: 0.8"/>
     <use xlink:href="#m68bc1e73b7" x="247.08697" y="201.056885" style="fill: #1f77b4; fill-opacity: 0.8; stroke: #1f77b4; stroke-opacity: 0.8"/>
     <use xlink:href="#m68bc1e73b7" x="158.29303" y="141.60175" style="fill: #1f77b4; fill-opacity: 0.8; stroke: #1f77b4; stroke-opacity: 0.8"/>
     <use xlink:href="#m68bc1e73b7" x="276.684949" y="194.930679" style="fill: #1f77b4; fill-opacity: 0.8; stroke: #1f77b4; stroke-opacity: 0.8"/>
     <use xlink:href="#m68bc1e73b7" x="69.499091" y="182.815322" style="fill: #1f77b4; fill-opacity: 0.8; stroke: #1f77b4; stroke-opacity: 0.8"/>
     <use xlink:href="#m68bc1e73b7" x="335.880909" y="185.68248" style="fill: #1f77b4; fill-opacity: 0.8; stroke: #1f77b4; stroke-opacity: 0.8"/>
     <use xlink:href="#m68bc1e73b7" x="99.097071" y="56.46323" style="fill: #1f77b4; fill-opacity: 0.8; stroke: #1f77b4; stroke-opacity: 0.8"/>
     <use xlink:href="#m68bc1e73b7" x="306.282929" y="97.54375" style="fill: #1f77b4; fill-opacity: 0.8; stroke: #1f77b4; stroke-opacity: 0.8"/>
     <use xlink:href="#m68bc1e73b7" x="276.684949" y="217.880428" style="fill: #1f77b4; fill-opacity: 0.8; stroke: #1f77b4; stroke-opacity: 0.8"/>
     <use xlink:href="#m68bc1e73b7" x="158.29303" y="167.295294" style="fill: #1f77b4; fill-opacity: 0.8; stroke: #1f77b4; stroke-opacity: 0.8"/>
     <use xlink:href="#m68bc1e73b7" x="276.684949" y="190.837336" style="fill: #1f77b4; fill-opacity: 0.8; stroke: #1f77b4; stroke-opacity: 0.8"/>
     <use xlink:href="#m68bc1e73b7" x="128.695051" y="172.306776" style="fill: #1f77b4; fill-opacity: 0.8; stroke: #1f77b4; stroke-opacity: 0.8"/>
     <use xlink:href="#m68bc1e73b7" x="335.880909" y="178.540999" style="fill: #1f77b4; fill-opacity: 0.8; stroke: #1f77b4; stroke-opacity: 0.8"/>
     <use xlink:href="#m68bc1e73b7" x="99.097071" y="222.074281" style="fill: #1f77b4; fill-opacity: 0.8; stroke: #1f77b4; stroke-opacity: 0.8"/>
     <use xlink:href="#m68bc1e73b7" x="306.282929" y="235.168649" style="fill: #1f77b4; fill-opacity: 0.8; stroke: #1f77b4; stroke-opacity: 0.8"/>
     <use xlink:href="#m68bc1e73b7" x="276.684949" y="175.826718" style="fill: #1f77b4; fill-opacity: 0.8; stroke: #1f77b4; stroke-opacity: 0.8"/>
     <use xlink:href="#m68bc1e73b7" x="247.08697" y="232.912025" style="fill: #1f77b4; fill-opacity: 0.8; stroke: #1f77b4; stroke-opacity: 0.8"/>
     <use xlink:href="#m68bc1e73b7" x="158.29303" y="243.683791" style="fill: #1f77b4; fill-opacity: 0.8; stroke: #1f77b4; stroke-opacity: 0.8"/>
     <use xlink:href="#m68bc1e73b7" x="128.695051" y="241.9378" style="fill: #1f77b4; fill-opacity: 0.8; stroke: #1f77b4; stroke-opacity: 0.8"/>
     <use xlink:href="#m68bc1e73b7" x="335.880909" y="174.121409" style="fill: #1f77b4; fill-opacity: 0.8; stroke: #1f77b4; stroke-opacity: 0.8"/>
     <use xlink:href="#m68bc1e73b7" x="187.89101" y="156.256405" style="fill: #1f77b4; fill-opacity: 0.8; stroke: #1f77b4; stroke-opacity: 0.8"/>
     <use xlink:href="#m68bc1e73b7" x="128.695051" y="182.539084" style="fill: #1f77b4; fill-opacity: 0.8; stroke: #1f77b4; stroke-opacity: 0.8"/>
     <use xlink:href="#m68bc1e73b7" x="69.499091" y="135.007369" style="fill: #1f77b4; fill-opacity: 0.8; stroke: #1f77b4; stroke-opacity: 0.8"/>
     <use xlink:href="#m68bc1e73b7" x="128.695051" y="151.632126" style="fill: #1f77b4; fill-opacity: 0.8; stroke: #1f77b4; stroke-opacity: 0.8"/>
     <use xlink:href="#m68bc1e73b7" x="335.880909" y="171.054436" style="fill: #1f77b4; fill-opacity: 0.8; stroke: #1f77b4; stroke-opacity: 0.8"/>
     <use xlink:href="#m68bc1e73b7" x="217.48899" y="110.771555" style="fill: #1f77b4; fill-opacity: 0.8; stroke: #1f77b4; stroke-opacity: 0.8"/>
     <use xlink:href="#m68bc1e73b7" x="247.08697" y="120.866177" style="fill: #1f77b4; fill-opacity: 0.8; stroke: #1f77b4; stroke-opacity: 0.8"/>
     <use xlink:href="#m68bc1e73b7" x="335.880909" y="240.39908" style="fill: #1f77b4; fill-opacity: 0.8; stroke: #1f77b4; stroke-opacity: 0.8"/>
     <use xlink:href="#m68bc1e73b7" x="158.29303" y="303.977898" style="fill: #1f77b4; fill-opacity: 0.8; stroke: #1f77b4; stroke-opacity: 0.8"/>
     <use xlink:href="#m68bc1e73b7" x="217.48899" y="98.292715" style="fill: #1f77b4; fill-opacity: 0.8; stroke: #1f77b4; stroke-opacity: 0.8"/>
     <use xlink:href="#m68bc1e73b7" x="99.097071" y="190.331882" style="fill: #1f77b4; fill-opacity: 0.8; stroke: #1f77b4; stroke-opacity: 0.8"/>
     <use xlink:href="#m68bc1e73b7" x="128.695051" y="24.760852" style="fill: #1f77b4; fill-opacity: 0.8; stroke: #1f77b4; stroke-opacity: 0.8"/>
     <use xlink:href="#m68bc1e73b7" x="69.499091" y="194.996147" style="fill: #1f77b4; fill-opacity: 0.8; stroke: #1f77b4; stroke-opacity: 0.8"/>
     <use xlink:href="#m68bc1e73b7" x="306.282929" y="200.962594" style="fill: #1f77b4; fill-opacity: 0.8; stroke: #1f77b4; stroke-opacity: 0.8"/>
     <use xlink:href="#m68bc1e73b7" x="69.499091" y="207.58111" style="fill: #1f77b4; fill-opacity: 0.8; stroke: #1f77b4; stroke-opacity: 0.8"/>
     <use xlink:href="#m68bc1e73b7" x="99.097071" y="202.0101" style="fill: #1f77b4; fill-opacity: 0.8; stroke: #1f77b4; stroke-opacity: 0.8"/>
     <use xlink:href="#m68bc1e73b7" x="187.89101" y="150.915554" style="fill: #1f77b4; fill-opacity: 0.8; stroke: #1f77b4; stroke-opacity: 0.8"/>
     <use xlink:href="#m68bc1e73b7" x="306.282929" y="163.932682" style="fill: #1f77b4; fill-opacity: 0.8; stroke: #1f77b4; stroke-opacity: 0.8"/>
     <use xlink:href="#m68bc1e73b7" x="247.08697" y="180.858348" style="fill: #1f77b4; fill-opacity: 0.8; stroke: #1f77b4; stroke-opacity: 0.8"/>
     <use xlink:href="#m68bc1e73b7" x="99.097071" y="269.059684" style="fill: #1f77b4; fill-opacity: 0.8; stroke: #1f77b4; stroke-opacity: 0.8"/>
     <use xlink:href="#m68bc1e73b7" x="158.29303" y="175.969579" style="fill: #1f77b4; fill-opacity: 0.8; stroke: #1f77b4; stroke-opacity: 0.8"/>
     <use xlink:href="#m68bc1e73b7" x="99.097071" y="176.914585" style="fill: #1f77b4; fill-opacity: 0.8; stroke: #1f77b4; stroke-opacity: 0.8"/>
     <use xlink:href="#m68bc1e73b7" x="217.48899" y="200.343486" style="fill: #1f77b4; fill-opacity: 0.8; stroke: #1f77b4; stroke-opacity: 0.8"/>
     <use xlink:href="#m68bc1e73b7" x="247.08697" y="162.443356" style="fill: #1f77b4; fill-opacity: 0.8; stroke: #1f77b4; stroke-opacity: 0.8"/>
    </g>
   </g>
   <g id="PolyCollection_1">
    <path d="M 69.499091 146.229456 
L 69.499091 207.701793 
L 72.189816 207.390594 
L 74.880542 207.075843 
L 77.571267 206.68137 
L 80.261993 206.360485 
L 82.952718 205.869289 
L 85.643444 205.377909 
L 88.334169 204.886529 
L 91.024894 204.39515 
L 93.71562 203.902602 
L 96.406345 203.570847 
L 99.097071 203.47823 
L 101.787796 203.385613 
L 104.478522 203.187834 
L 107.169247 202.770776 
L 109.859972 202.363412 
L 112.550698 201.956048 
L 115.241423 201.543275 
L 117.932149 201.129904 
L 120.622874 200.716534 
L 123.3136 200.316936 
L 126.004325 200.142879 
L 128.695051 199.968539 
L 131.385776 199.788179 
L 134.076501 199.606722 
L 136.767227 199.077159 
L 139.457952 198.848217 
L 142.148678 198.682096 
L 144.839403 198.598413 
L 147.530129 198.511913 
L 150.220854 198.226547 
L 152.911579 197.899278 
L 155.602305 197.589207 
L 158.29303 197.377919 
L 160.983756 197.127432 
L 163.674481 196.91158 
L 166.365207 196.519405 
L 169.055932 196.392731 
L 171.746657 196.334124 
L 174.437383 196.14619 
L 177.128108 196.024913 
L 179.818834 195.897094 
L 182.509559 195.768203 
L 185.200285 195.566795 
L 187.89101 195.512593 
L 190.581736 195.39405 
L 193.272461 195.268082 
L 195.963186 195.005419 
L 198.653912 194.882659 
L 201.344637 194.780803 
L 204.035363 194.675217 
L 206.726088 194.534934 
L 209.416814 194.164225 
L 212.107539 193.877078 
L 214.798264 193.588164 
L 217.48899 193.292261 
L 220.179715 193.24128 
L 222.870441 192.906473 
L 225.561166 192.52665 
L 228.251892 192.246744 
L 230.942617 192.235925 
L 233.633343 192.064306 
L 236.324068 192.132031 
L 239.014793 192.530272 
L 241.705519 192.567054 
L 244.396244 192.539529 
L 247.08697 192.635709 
L 249.777695 192.415958 
L 252.468421 192.192766 
L 255.159146 191.949299 
L 257.849871 192.005673 
L 260.540597 192.153715 
L 263.231322 192.125694 
L 265.922048 192.203181 
L 268.612773 192.171692 
L 271.303499 192.398779 
L 273.994224 192.503544 
L 276.684949 192.636207 
L 279.375675 192.939036 
L 282.0664 193.235989 
L 284.757126 193.472176 
L 287.447851 193.622973 
L 290.138577 193.9168 
L 292.829302 194.083745 
L 295.520028 194.244853 
L 298.210753 194.793941 
L 300.901478 195.341503 
L 303.592204 195.660985 
L 306.282929 196.074411 
L 308.973655 196.487818 
L 311.66438 196.761847 
L 314.355106 196.847562 
L 317.045831 197.055594 
L 319.736556 197.270869 
L 322.427282 197.20963 
L 325.118007 197.593546 
L 327.808733 198.026936 
L 330.499458 198.455804 
L 333.190184 198.584488 
L 335.880909 199.004761 
L 335.880909 156.459535 
L 335.880909 156.459535 
L 333.190184 156.759097 
L 330.499458 157.24554 
L 327.808733 157.2306 
L 325.118007 157.594741 
L 322.427282 158.019442 
L 319.736556 158.115379 
L 317.045831 158.586049 
L 314.355106 159.012167 
L 311.66438 159.595972 
L 308.973655 159.720786 
L 306.282929 159.781162 
L 303.592204 159.841538 
L 300.901478 159.913251 
L 298.210753 160.179214 
L 295.520028 160.450065 
L 292.829302 160.666313 
L 290.138577 161.089093 
L 287.447851 161.221235 
L 284.757126 161.544502 
L 282.0664 161.814675 
L 279.375675 162.274388 
L 276.684949 162.534462 
L 273.994224 162.667815 
L 271.303499 162.589903 
L 268.612773 162.634374 
L 265.922048 162.922122 
L 263.231322 163.211217 
L 260.540597 163.17944 
L 257.849871 163.300634 
L 255.159146 163.435336 
L 252.468421 163.459161 
L 249.777695 163.345279 
L 247.08697 163.463263 
L 244.396244 163.269314 
L 241.705519 163.306608 
L 239.014793 163.409197 
L 236.324068 163.514656 
L 233.633343 163.34868 
L 230.942617 163.41688 
L 228.251892 163.485933 
L 225.561166 163.553433 
L 222.870441 163.615576 
L 220.179715 163.687146 
L 217.48899 163.659274 
L 214.798264 163.338462 
L 212.107539 163.001349 
L 209.416814 163.142548 
L 206.726088 162.856782 
L 204.035363 162.564951 
L 201.344637 162.616171 
L 198.653912 162.802804 
L 195.963186 162.632067 
L 193.272461 162.356984 
L 190.581736 162.078195 
L 187.89101 161.954055 
L 185.200285 161.895857 
L 182.509559 161.495978 
L 179.818834 161.0941 
L 177.128108 160.692586 
L 174.437383 160.398952 
L 171.746657 160.116402 
L 169.055932 159.811545 
L 166.365207 159.429716 
L 163.674481 159.140527 
L 160.983756 158.996001 
L 158.29303 158.475883 
L 155.602305 158.254541 
L 152.911579 157.900086 
L 150.220854 157.742865 
L 147.530129 157.585644 
L 144.839403 157.307624 
L 142.148678 157.024381 
L 139.457952 156.723214 
L 136.767227 156.351428 
L 134.076501 155.957285 
L 131.385776 155.563141 
L 128.695051 155.226027 
L 126.004325 154.801277 
L 123.3136 154.376526 
L 120.622874 153.952547 
L 117.932149 153.532476 
L 115.241423 153.099283 
L 112.550698 152.740089 
L 109.859972 152.335535 
L 107.169247 151.823081 
L 104.478522 151.399258 
L 101.787796 151.033044 
L 99.097071 150.582622 
L 96.406345 150.124093 
L 93.71562 149.785733 
L 91.024894 149.506867 
L 88.334169 149.102715 
L 85.643444 148.648778 
L 82.952718 148.068707 
L 80.261993 147.570215 
L 77.571267 147.146699 
L 74.880542 146.831593 
L 72.189816 146.530525 
L 69.499091 146.229456 
z
" clip-path="url(#pab01612f9f)" style="fill: #1f77b4; fill-opacity: 0.15"/>
   </g>
   <g id="matplotlib.axis_1">
    <g id="xtick_1">
     <g id="line2d_1">
      <defs>
       <path id="mb735537f2a" d="M 0 0 
L 0 3.5 
" style="stroke: #000000; stroke-width: 0.8"/>
      </defs>
      <g>
       <use xlink:href="#mb735537f2a" x="85.204141" y="317.93875" style="stroke: #000000; stroke-width: 0.8"/>
      </g>
     </g>
     <g id="text_1">
      <text style="font: 10px 'sans-serif'; text-anchor: middle" x="85.204141" y="332.537188" transform="rotate(-0, 85.204141, 332.537188)">−4</text>
     </g>
    </g>
    <g id="xtick_2">
     <g id="line2d_2">
      <g>
       <use xlink:href="#mb735537f2a" x="144.400101" y="317.93875" style="stroke: #000000; stroke-width: 0.8"/>
      </g>
     </g>
     <g id="text_2">
      <text style="font: 10px 'sans-serif'; text-anchor: middle" x="144.400101" y="332.537188" transform="rotate(-0, 144.400101, 332.537188)">−2</text>
     </g>
    </g>
    <g id="xtick_3">
     <g id="line2d_3">
      <g>
       <use xlink:href="#mb735537f2a" x="203.596061" y="317.93875" style="stroke: #000000; stroke-width: 0.8"/>
      </g>
     </g>
     <g id="text_3">
      <text style="font: 10px 'sans-serif'; text-anchor: middle" x="203.596061" y="332.537188" transform="rotate(-0, 203.596061, 332.537188)">0</text>
     </g>
    </g>
    <g id="xtick_4">
     <g id="line2d_4">
      <g>
       <use xlink:href="#mb735537f2a" x="262.79202" y="317.93875" style="stroke: #000000; stroke-width: 0.8"/>
      </g>
     </g>
     <g id="text_4">
      <text style="font: 10px 'sans-serif'; text-anchor: middle" x="262.79202" y="332.537188" transform="rotate(-0, 262.79202, 332.537188)">2</text>
     </g>
    </g>
    <g id="xtick_5">
     <g id="line2d_5">
      <g>
       <use xlink:href="#mb735537f2a" x="321.98798" y="317.93875" style="stroke: #000000; stroke-width: 0.8"/>
      </g>
     </g>
     <g id="text_5">
      <text style="font: 10px 'sans-serif'; text-anchor: middle" x="321.98798" y="332.537188" transform="rotate(-0, 321.98798, 332.537188)">4</text>
     </g>
    </g>
    <g id="text_6">
     <text style="font: 10px 'sans-serif'; text-anchor: middle" x="202.69" y="346.215312" transform="rotate(-0, 202.69, 346.215312)">Composite_Reward</text>
    </g>
   </g>
   <g id="matplotlib.axis_2">
    <g id="ytick_1">
     <g id="line2d_6">
      <defs>
       <path id="m3ff0cc2c60" d="M 0 0 
L -3.5 0 
" style="stroke: #000000; stroke-width: 0.8"/>
      </defs>
      <g>
       <use xlink:href="#m3ff0cc2c60" x="56.18" y="297.070122" style="stroke: #000000; stroke-width: 0.8"/>
      </g>
     </g>
     <g id="text_7">
      <text style="font: 10px 'sans-serif'; text-anchor: end" x="49.18" y="300.869341" transform="rotate(-0, 49.18, 300.869341)">−1.0</text>
     </g>
    </g>
    <g id="ytick_2">
     <g id="line2d_7">
      <g>
       <use xlink:href="#m3ff0cc2c60" x="56.18" y="243.35188" style="stroke: #000000; stroke-width: 0.8"/>
      </g>
     </g>
     <g id="text_8">
      <text style="font: 10px 'sans-serif'; text-anchor: end" x="49.18" y="247.151099" transform="rotate(-0, 49.18, 247.151099)">−0.5</text>
     </g>
    </g>
    <g id="ytick_3">
     <g id="line2d_8">
      <g>
       <use xlink:href="#m3ff0cc2c60" x="56.18" y="189.633638" style="stroke: #000000; stroke-width: 0.8"/>
      </g>
     </g>
     <g id="text_9">
      <text style="font: 10px 'sans-serif'; text-anchor: end" x="49.18" y="193.432857" transform="rotate(-0, 49.18, 193.432857)">0.0</text>
     </g>
    </g>
    <g id="ytick_4">
     <g id="line2d_9">
      <g>
       <use xlink:href="#m3ff0cc2c60" x="56.18" y="135.915396" style="stroke: #000000; stroke-width: 0.8"/>
      </g>
     </g>
     <g id="text_10">
      <text style="font: 10px 'sans-serif'; text-anchor: end" x="49.18" y="139.714615" transform="rotate(-0, 49.18, 139.714615)">0.5</text>
     </g>
    </g>
    <g id="ytick_5">
     <g id="line2d_10">
      <g>
       <use xlink:href="#m3ff0cc2c60" x="56.18" y="82.197154" style="stroke: #000000; stroke-width: 0.8"/>
      </g>
     </g>
     <g id="text_11">
      <text style="font: 10px 'sans-serif'; text-anchor: end" x="49.18" y="85.996373" transform="rotate(-0, 49.18, 85.996373)">1.0</text>
     </g>
    </g>
    <g id="ytick_6">
     <g id="line2d_11">
      <g>
       <use xlink:href="#m3ff0cc2c60" x="56.18" y="28.478912" style="stroke: #000000; stroke-width: 0.8"/>
      </g>
     </g>
     <g id="text_12">
      <text style="font: 10px 'sans-serif'; text-anchor: end" x="49.18" y="32.278131" transform="rotate(-0, 49.18, 32.278131)">1.5</text>
     </g>
    </g>
    <g id="text_13">
     <text style="font: 10px 'sans-serif'; text-anchor: middle" x="18.8175" y="164.369375" transform="rotate(-90, 18.8175, 164.369375)">Conn Salience</text>
    </g>
   </g>
   <g id="line2d_12">
    <path d="M 69.499091 178.230935 
L 72.189816 178.243388 
L 74.880542 178.255841 
L 77.571267 178.268293 
L 80.261993 178.280746 
L 82.952718 178.293198 
L 85.643444 178.305651 
L 88.334169 178.318104 
L 91.024894 178.330556 
L 93.71562 178.343009 
L 96.406345 178.355461 
L 99.097071 178.367914 
L 101.787796 178.380367 
L 104.478522 178.392819 
L 107.169247 178.405272 
L 109.859972 178.417725 
L 112.550698 178.430177 
L 115.241423 178.44263 
L 117.932149 178.455082 
L 120.622874 178.467535 
L 123.3136 178.479988 
L 126.004325 178.49244 
L 128.695051 178.504893 
L 131.385776 178.517345 
L 134.076501 178.529798 
L 136.767227 178.542251 
L 139.457952 178.554703 
L 142.148678 178.567156 
L 144.839403 178.579608 
L 147.530129 178.592061 
L 150.220854 178.604514 
L 152.911579 178.616966 
L 155.602305 178.629419 
L 158.29303 178.641872 
L 160.983756 178.654324 
L 163.674481 178.666777 
L 166.365207 178.679229 
L 169.055932 178.691682 
L 171.746657 178.704135 
L 174.437383 178.716587 
L 177.128108 178.72904 
L 179.818834 178.741492 
L 182.509559 178.753945 
L 185.200285 178.766398 
L 187.89101 178.77885 
L 190.581736 178.791303 
L 193.272461 178.803755 
L 195.963186 178.816208 
L 198.653912 178.828661 
L 201.344637 178.841113 
L 204.035363 178.853566 
L 206.726088 178.866019 
L 209.416814 178.878471 
L 212.107539 178.890924 
L 214.798264 178.903376 
L 217.48899 178.915829 
L 220.179715 178.928282 
L 222.870441 178.940734 
L 225.561166 178.953187 
L 228.251892 178.965639 
L 230.942617 178.978092 
L 233.633343 178.990545 
L 236.324068 179.002997 
L 239.014793 179.01545 
L 241.705519 179.027902 
L 244.396244 179.040355 
L 247.08697 179.052808 
L 249.777695 179.06526 
L 252.468421 179.077713 
L 255.159146 179.090166 
L 257.849871 179.102618 
L 260.540597 179.115071 
L 263.231322 179.127523 
L 265.922048 179.139976 
L 268.612773 179.152429 
L 271.303499 179.164881 
L 273.994224 179.177334 
L 276.684949 179.189786 
L 279.375675 179.202239 
L 282.0664 179.214692 
L 284.757126 179.227144 
L 287.447851 179.239597 
L 290.138577 179.252049 
L 292.829302 179.264502 
L 295.520028 179.276955 
L 298.210753 179.289407 
L 300.901478 179.30186 
L 303.592204 179.314312 
L 306.282929 179.326765 
L 308.973655 179.339218 
L 311.66438 179.35167 
L 314.355106 179.364123 
L 317.045831 179.376576 
L 319.736556 179.389028 
L 322.427282 179.401481 
L 325.118007 179.413933 
L 327.808733 179.426386 
L 330.499458 179.438839 
L 333.190184 179.451291 
L 335.880909 179.463744 
" clip-path="url(#pab01612f9f)" style="fill: none; stroke: #1f77b4; stroke-width: 2.25; stroke-linecap: square"/>
   </g>
   <g id="patch_3">
    <path d="M 56.18 317.93875 
L 56.18 10.8 
" style="fill: none; stroke: #000000; stroke-width: 0.8; stroke-linejoin: miter; stroke-linecap: square"/>
   </g>
   <g id="patch_4">
    <path d="M 56.18 317.93875 
L 349.2 317.93875 
" style="fill: none; stroke: #000000; stroke-width: 0.8; stroke-linejoin: miter; stroke-linecap: square"/>
   </g>
  </g>
 </g>
 <defs>
  <clipPath id="pab01612f9f">
   <rect x="56.18" y="10.8" width="293.02" height="307.13875"/>
  </clipPath>
 </defs>
</svg>
