<?xml version="1.0" encoding="utf-8" standalone="no"?>
<!DOCTYPE svg PUBLIC "-//W3C//DTD SVG 1.1//EN"
  "http://www.w3.org/Graphics/SVG/1.1/DTD/svg11.dtd">
<svg xmlns:xlink="http://www.w3.org/1999/xlink" width="360pt" height="360pt" viewBox="0 0 360 360" xmlns="http://www.w3.org/2000/svg" version="1.1">
 <metadata>
  <rdf:RDF xmlns:dc="http://purl.org/dc/elements/1.1/" xmlns:cc="http://creativecommons.org/ns#" xmlns:rdf="http://www.w3.org/1999/02/22-rdf-syntax-ns#">
   <cc:Work>
    <dc:type rdf:resource="http://purl.org/dc/dcmitype/StillImage"/>
    <dc:date>2022-11-22T21:48:52.452114</dc:date>
    <dc:format>image/svg+xml</dc:format>
    <dc:creator>
     <cc:Agent>
      <dc:title>Matplotlib v3.5.3, https://matplotlib.org/</dc:title>
     </cc:Agent>
    </dc:creator>
   </cc:Work>
  </rdf:RDF>
 </metadata>
 <defs>
  <style type="text/css">*{stroke-linejoin: round; stroke-linecap: butt}</style>
 </defs>
 <g id="figure_1">
  <g id="patch_1">
   <path d="M 0 360 
L 360 360 
L 360 0 
L 0 0 
z
" style="fill: #ffffff"/>
  </g>
  <g id="axes_1">
   <g id="patch_2">
    <path d="M 56.18 317.93875 
L 349.2 317.93875 
L 349.2 10.8 
L 56.18 10.8 
z
" style="fill: #ffffff"/>
   </g>
   <g id="PathCollection_1">
    <defs>
     <path id="mbb2e5ed3a4" d="M 0 3 
C 0.795609 3 1.55874 2.683901 2.12132 2.12132 
C 2.683901 1.55874 3 0.795609 3 0 
C 3 -0.795609 2.683901 -1.55874 2.12132 -2.12132 
C 1.55874 -2.683901 0.795609 -3 0 -3 
C -0.795609 -3 -1.55874 -2.683901 -2.12132 -2.12132 
C -2.683901 -1.55874 -3 -0.795609 -3 0 
C -3 0.795609 -2.683901 1.55874 -2.12132 2.12132 
C -1.55874 2.683901 -0.795609 3 0 3 
z
" style="stroke: #1f77b4; stroke-opacity: 0.8"/>
    </defs>
    <g clip-path="url(#p9e60a7a48d)">
     <use xlink:href="#mbb2e5ed3a4" x="217.48899" y="93.152324" style="fill: #1f77b4; fill-opacity: 0.8; stroke: #1f77b4; stroke-opacity: 0.8"/>
     <use xlink:href="#mbb2e5ed3a4" x="217.48899" y="149.578393" style="fill: #1f77b4; fill-opacity: 0.8; stroke: #1f77b4; stroke-opacity: 0.8"/>
     <use xlink:href="#mbb2e5ed3a4" x="276.684949" y="69.154246" style="fill: #1f77b4; fill-opacity: 0.8; stroke: #1f77b4; stroke-opacity: 0.8"/>
     <use xlink:href="#mbb2e5ed3a4" x="187.89101" y="123.643356" style="fill: #1f77b4; fill-opacity: 0.8; stroke: #1f77b4; stroke-opacity: 0.8"/>
     <use xlink:href="#mbb2e5ed3a4" x="247.08697" y="85.106557" style="fill: #1f77b4; fill-opacity: 0.8; stroke: #1f77b4; stroke-opacity: 0.8"/>
     <use xlink:href="#mbb2e5ed3a4" x="158.29303" y="93.406255" style="fill: #1f77b4; fill-opacity: 0.8; stroke: #1f77b4; stroke-opacity: 0.8"/>
     <use xlink:href="#mbb2e5ed3a4" x="276.684949" y="98.64168" style="fill: #1f77b4; fill-opacity: 0.8; stroke: #1f77b4; stroke-opacity: 0.8"/>
     <use xlink:href="#mbb2e5ed3a4" x="69.499091" y="132.1508" style="fill: #1f77b4; fill-opacity: 0.8; stroke: #1f77b4; stroke-opacity: 0.8"/>
     <use xlink:href="#mbb2e5ed3a4" x="335.880909" y="154.492672" style="fill: #1f77b4; fill-opacity: 0.8; stroke: #1f77b4; stroke-opacity: 0.8"/>
     <use xlink:href="#mbb2e5ed3a4" x="99.097071" y="68.913412" style="fill: #1f77b4; fill-opacity: 0.8; stroke: #1f77b4; stroke-opacity: 0.8"/>
     <use xlink:href="#mbb2e5ed3a4" x="306.282929" y="90.519448" style="fill: #1f77b4; fill-opacity: 0.8; stroke: #1f77b4; stroke-opacity: 0.8"/>
     <use xlink:href="#mbb2e5ed3a4" x="276.684949" y="109.279686" style="fill: #1f77b4; fill-opacity: 0.8; stroke: #1f77b4; stroke-opacity: 0.8"/>
     <use xlink:href="#mbb2e5ed3a4" x="158.29303" y="136.538086" style="fill: #1f77b4; fill-opacity: 0.8; stroke: #1f77b4; stroke-opacity: 0.8"/>
     <use xlink:href="#mbb2e5ed3a4" x="276.684949" y="114.947952" style="fill: #1f77b4; fill-opacity: 0.8; stroke: #1f77b4; stroke-opacity: 0.8"/>
     <use xlink:href="#mbb2e5ed3a4" x="128.695051" y="141.298228" style="fill: #1f77b4; fill-opacity: 0.8; stroke: #1f77b4; stroke-opacity: 0.8"/>
     <use xlink:href="#mbb2e5ed3a4" x="335.880909" y="110.162807" style="fill: #1f77b4; fill-opacity: 0.8; stroke: #1f77b4; stroke-opacity: 0.8"/>
     <use xlink:href="#mbb2e5ed3a4" x="99.097071" y="303.977898" style="fill: #1f77b4; fill-opacity: 0.8; stroke: #1f77b4; stroke-opacity: 0.8"/>
     <use xlink:href="#mbb2e5ed3a4" x="306.282929" y="196.037957" style="fill: #1f77b4; fill-opacity: 0.8; stroke: #1f77b4; stroke-opacity: 0.8"/>
     <use xlink:href="#mbb2e5ed3a4" x="276.684949" y="86.989111" style="fill: #1f77b4; fill-opacity: 0.8; stroke: #1f77b4; stroke-opacity: 0.8"/>
     <use xlink:href="#mbb2e5ed3a4" x="247.08697" y="26.512561" style="fill: #1f77b4; fill-opacity: 0.8; stroke: #1f77b4; stroke-opacity: 0.8"/>
     <use xlink:href="#mbb2e5ed3a4" x="158.29303" y="102.918617" style="fill: #1f77b4; fill-opacity: 0.8; stroke: #1f77b4; stroke-opacity: 0.8"/>
     <use xlink:href="#mbb2e5ed3a4" x="128.695051" y="111.537375" style="fill: #1f77b4; fill-opacity: 0.8; stroke: #1f77b4; stroke-opacity: 0.8"/>
     <use xlink:href="#mbb2e5ed3a4" x="335.880909" y="149.995269" style="fill: #1f77b4; fill-opacity: 0.8; stroke: #1f77b4; stroke-opacity: 0.8"/>
     <use xlink:href="#mbb2e5ed3a4" x="187.89101" y="145.593341" style="fill: #1f77b4; fill-opacity: 0.8; stroke: #1f77b4; stroke-opacity: 0.8"/>
     <use xlink:href="#mbb2e5ed3a4" x="128.695051" y="87.122371" style="fill: #1f77b4; fill-opacity: 0.8; stroke: #1f77b4; stroke-opacity: 0.8"/>
     <use xlink:href="#mbb2e5ed3a4" x="69.499091" y="165.326667" style="fill: #1f77b4; fill-opacity: 0.8; stroke: #1f77b4; stroke-opacity: 0.8"/>
     <use xlink:href="#mbb2e5ed3a4" x="128.695051" y="39.195519" style="fill: #1f77b4; fill-opacity: 0.8; stroke: #1f77b4; stroke-opacity: 0.8"/>
     <use xlink:href="#mbb2e5ed3a4" x="335.880909" y="91.566109" style="fill: #1f77b4; fill-opacity: 0.8; stroke: #1f77b4; stroke-opacity: 0.8"/>
     <use xlink:href="#mbb2e5ed3a4" x="217.48899" y="77.667047" style="fill: #1f77b4; fill-opacity: 0.8; stroke: #1f77b4; stroke-opacity: 0.8"/>
     <use xlink:href="#mbb2e5ed3a4" x="247.08697" y="109.662278" style="fill: #1f77b4; fill-opacity: 0.8; stroke: #1f77b4; stroke-opacity: 0.8"/>
     <use xlink:href="#mbb2e5ed3a4" x="335.880909" y="74.615114" style="fill: #1f77b4; fill-opacity: 0.8; stroke: #1f77b4; stroke-opacity: 0.8"/>
     <use xlink:href="#mbb2e5ed3a4" x="158.29303" y="189.897444" style="fill: #1f77b4; fill-opacity: 0.8; stroke: #1f77b4; stroke-opacity: 0.8"/>
     <use xlink:href="#mbb2e5ed3a4" x="217.48899" y="147.347129" style="fill: #1f77b4; fill-opacity: 0.8; stroke: #1f77b4; stroke-opacity: 0.8"/>
     <use xlink:href="#mbb2e5ed3a4" x="99.097071" y="56.828256" style="fill: #1f77b4; fill-opacity: 0.8; stroke: #1f77b4; stroke-opacity: 0.8"/>
     <use xlink:href="#mbb2e5ed3a4" x="128.695051" y="82.460036" style="fill: #1f77b4; fill-opacity: 0.8; stroke: #1f77b4; stroke-opacity: 0.8"/>
     <use xlink:href="#mbb2e5ed3a4" x="69.499091" y="102.005712" style="fill: #1f77b4; fill-opacity: 0.8; stroke: #1f77b4; stroke-opacity: 0.8"/>
     <use xlink:href="#mbb2e5ed3a4" x="306.282929" y="82.809028" style="fill: #1f77b4; fill-opacity: 0.8; stroke: #1f77b4; stroke-opacity: 0.8"/>
     <use xlink:href="#mbb2e5ed3a4" x="69.499091" y="114.956338" style="fill: #1f77b4; fill-opacity: 0.8; stroke: #1f77b4; stroke-opacity: 0.8"/>
     <use xlink:href="#mbb2e5ed3a4" x="99.097071" y="175.523869" style="fill: #1f77b4; fill-opacity: 0.8; stroke: #1f77b4; stroke-opacity: 0.8"/>
     <use xlink:href="#mbb2e5ed3a4" x="187.89101" y="127.224708" style="fill: #1f77b4; fill-opacity: 0.8; stroke: #1f77b4; stroke-opacity: 0.8"/>
     <use xlink:href="#mbb2e5ed3a4" x="306.282929" y="115.225462" style="fill: #1f77b4; fill-opacity: 0.8; stroke: #1f77b4; stroke-opacity: 0.8"/>
     <use xlink:href="#mbb2e5ed3a4" x="247.08697" y="67.179104" style="fill: #1f77b4; fill-opacity: 0.8; stroke: #1f77b4; stroke-opacity: 0.8"/>
     <use xlink:href="#mbb2e5ed3a4" x="99.097071" y="93.11417" style="fill: #1f77b4; fill-opacity: 0.8; stroke: #1f77b4; stroke-opacity: 0.8"/>
     <use xlink:href="#mbb2e5ed3a4" x="158.29303" y="75.289184" style="fill: #1f77b4; fill-opacity: 0.8; stroke: #1f77b4; stroke-opacity: 0.8"/>
     <use xlink:href="#mbb2e5ed3a4" x="99.097071" y="24.760852" style="fill: #1f77b4; fill-opacity: 0.8; stroke: #1f77b4; stroke-opacity: 0.8"/>
     <use xlink:href="#mbb2e5ed3a4" x="217.48899" y="108.646208" style="fill: #1f77b4; fill-opacity: 0.8; stroke: #1f77b4; stroke-opacity: 0.8"/>
     <use xlink:href="#mbb2e5ed3a4" x="247.08697" y="117.935699" style="fill: #1f77b4; fill-opacity: 0.8; stroke: #1f77b4; stroke-opacity: 0.8"/>
    </g>
   </g>
   <g id="PolyCollection_1">
    <path d="M 69.499091 87.628589 
L 69.499091 151.878094 
L 72.189816 151.237706 
L 74.880542 150.597318 
L 77.571267 149.95693 
L 80.261993 149.316542 
L 82.952718 148.676154 
L 85.643444 148.035766 
L 88.334169 147.395378 
L 91.024894 146.775638 
L 93.71562 146.263972 
L 96.406345 145.652742 
L 99.097071 144.950933 
L 101.787796 144.249125 
L 104.478522 143.570681 
L 107.169247 142.935297 
L 109.859972 142.309216 
L 112.550698 141.709135 
L 115.241423 141.109055 
L 117.932149 140.508974 
L 120.622874 139.908894 
L 123.3136 139.308813 
L 126.004325 138.708215 
L 128.695051 138.099387 
L 131.385776 137.524664 
L 134.076501 136.999125 
L 136.767227 136.473586 
L 139.457952 135.879829 
L 142.148678 135.076228 
L 144.839403 134.77024 
L 147.530129 134.223221 
L 150.220854 133.485843 
L 152.911579 133.181666 
L 155.602305 132.848306 
L 158.29303 132.474202 
L 160.983756 132.152618 
L 163.674481 131.488824 
L 166.365207 130.783872 
L 169.055932 130.173517 
L 171.746657 129.433133 
L 174.437383 128.936959 
L 177.128108 128.224225 
L 179.818834 127.831278 
L 182.509559 127.285927 
L 185.200285 126.987416 
L 187.89101 126.643489 
L 190.581736 126.129673 
L 193.272461 125.634621 
L 195.963186 125.288284 
L 198.653912 125.035392 
L 201.344637 124.758864 
L 204.035363 124.386556 
L 206.726088 123.967896 
L 209.416814 123.669424 
L 212.107539 123.49889 
L 214.798264 123.328356 
L 217.48899 123.141633 
L 220.179715 122.933312 
L 222.870441 122.820878 
L 225.561166 122.489594 
L 228.251892 122.396564 
L 230.942617 122.164772 
L 233.633343 121.963621 
L 236.324068 121.680234 
L 239.014793 121.467431 
L 241.705519 121.239892 
L 244.396244 121.210657 
L 247.08697 121.153795 
L 249.777695 121.059399 
L 252.468421 120.96518 
L 255.159146 120.880001 
L 257.849871 121.006555 
L 260.540597 121.138013 
L 263.231322 120.979692 
L 265.922048 121.080161 
L 268.612773 120.953246 
L 271.303499 121.084647 
L 273.994224 121.255769 
L 276.684949 121.4083 
L 279.375675 121.567049 
L 282.0664 121.725182 
L 284.757126 121.951694 
L 287.447851 122.238576 
L 290.138577 122.386134 
L 292.829302 122.611715 
L 295.520028 122.822569 
L 298.210753 123.046176 
L 300.901478 123.268137 
L 303.592204 123.493791 
L 306.282929 123.719445 
L 308.973655 123.938201 
L 311.66438 124.226462 
L 314.355106 124.590603 
L 317.045831 124.924908 
L 319.736556 125.280883 
L 322.427282 125.335795 
L 325.118007 125.386626 
L 327.808733 125.683546 
L 330.499458 125.911454 
L 333.190184 126.140396 
L 335.880909 126.223954 
L 335.880909 81.274669 
L 335.880909 81.274669 
L 333.190184 82.097667 
L 330.499458 82.891129 
L 327.808733 83.681662 
L 325.118007 84.326917 
L 322.427282 84.864593 
L 319.736556 85.402634 
L 317.045831 85.857295 
L 314.355106 86.476615 
L 311.66438 86.956777 
L 308.973655 87.425814 
L 306.282929 87.891172 
L 303.592204 88.352337 
L 300.901478 88.81467 
L 298.210753 89.278503 
L 295.520028 89.742336 
L 292.829302 90.213668 
L 290.138577 90.775575 
L 287.447851 91.383592 
L 284.757126 91.841526 
L 282.0664 92.233564 
L 279.375675 92.625602 
L 276.684949 92.929848 
L 273.994224 93.461437 
L 271.303499 93.858367 
L 268.612773 94.336482 
L 265.922048 94.638898 
L 263.231322 95.150409 
L 260.540597 95.527272 
L 257.849871 95.816141 
L 255.159146 96.238171 
L 252.468421 96.529823 
L 249.777695 96.893215 
L 247.08697 97.278459 
L 244.396244 97.547718 
L 241.705519 97.649825 
L 239.014793 97.875636 
L 236.324068 97.928431 
L 233.633343 98.031694 
L 230.942617 98.185848 
L 228.251892 98.190368 
L 225.561166 98.225553 
L 222.870441 98.242979 
L 220.179715 98.332554 
L 217.48899 98.459874 
L 214.798264 98.478752 
L 212.107539 98.395574 
L 209.416814 98.467881 
L 206.726088 98.446533 
L 204.035363 98.39702 
L 201.344637 98.441071 
L 198.653912 98.555061 
L 195.963186 98.48595 
L 193.272461 98.608863 
L 190.581736 98.533459 
L 187.89101 98.337947 
L 185.200285 98.338563 
L 182.509559 98.311759 
L 179.818834 97.922466 
L 177.128108 97.771238 
L 174.437383 97.531324 
L 171.746657 97.248389 
L 169.055932 97.135368 
L 166.365207 96.966589 
L 163.674481 96.702571 
L 160.983756 96.485422 
L 158.29303 96.296332 
L 155.602305 96.139682 
L 152.911579 95.864657 
L 150.220854 95.659796 
L 147.530129 95.444376 
L 144.839403 95.350214 
L 142.148678 95.256076 
L 139.457952 95.161938 
L 136.767227 94.98243 
L 134.076501 94.481803 
L 131.385776 94.220196 
L 128.695051 94.044153 
L 126.004325 93.848456 
L 123.3136 93.652759 
L 120.622874 93.457063 
L 117.932149 93.246664 
L 115.241423 92.991219 
L 112.550698 92.551117 
L 109.859972 92.24916 
L 107.169247 91.922649 
L 104.478522 91.482399 
L 101.787796 91.048701 
L 99.097071 90.820976 
L 96.406345 90.704398 
L 93.71562 90.591839 
L 91.024894 90.479743 
L 88.334169 90.117529 
L 85.643444 89.601455 
L 82.952718 89.219623 
L 80.261993 89.002225 
L 77.571267 88.607668 
L 74.880542 88.213111 
L 72.189816 87.872547 
L 69.499091 87.628589 
z
" clip-path="url(#p9e60a7a48d)" style="fill: #1f77b4; fill-opacity: 0.15"/>
   </g>
   <g id="matplotlib.axis_1">
    <g id="xtick_1">
     <g id="line2d_1">
      <defs>
       <path id="mcfedba996c" d="M 0 0 
L 0 3.5 
" style="stroke: #000000; stroke-width: 0.8"/>
      </defs>
      <g>
       <use xlink:href="#mcfedba996c" x="85.204141" y="317.93875" style="stroke: #000000; stroke-width: 0.8"/>
      </g>
     </g>
     <g id="text_1">
      <text style="font: 10px 'sans-serif'; text-anchor: middle" x="85.204141" y="332.537188" transform="rotate(-0, 85.204141, 332.537188)">−4</text>
     </g>
    </g>
    <g id="xtick_2">
     <g id="line2d_2">
      <g>
       <use xlink:href="#mcfedba996c" x="144.400101" y="317.93875" style="stroke: #000000; stroke-width: 0.8"/>
      </g>
     </g>
     <g id="text_2">
      <text style="font: 10px 'sans-serif'; text-anchor: middle" x="144.400101" y="332.537188" transform="rotate(-0, 144.400101, 332.537188)">−2</text>
     </g>
    </g>
    <g id="xtick_3">
     <g id="line2d_3">
      <g>
       <use xlink:href="#mcfedba996c" x="203.596061" y="317.93875" style="stroke: #000000; stroke-width: 0.8"/>
      </g>
     </g>
     <g id="text_3">
      <text style="font: 10px 'sans-serif'; text-anchor: middle" x="203.596061" y="332.537188" transform="rotate(-0, 203.596061, 332.537188)">0</text>
     </g>
    </g>
    <g id="xtick_4">
     <g id="line2d_4">
      <g>
       <use xlink:href="#mcfedba996c" x="262.79202" y="317.93875" style="stroke: #000000; stroke-width: 0.8"/>
      </g>
     </g>
     <g id="text_4">
      <text style="font: 10px 'sans-serif'; text-anchor: middle" x="262.79202" y="332.537188" transform="rotate(-0, 262.79202, 332.537188)">2</text>
     </g>
    </g>
    <g id="xtick_5">
     <g id="line2d_5">
      <g>
       <use xlink:href="#mcfedba996c" x="321.98798" y="317.93875" style="stroke: #000000; stroke-width: 0.8"/>
      </g>
     </g>
     <g id="text_5">
      <text style="font: 10px 'sans-serif'; text-anchor: middle" x="321.98798" y="332.537188" transform="rotate(-0, 321.98798, 332.537188)">4</text>
     </g>
    </g>
    <g id="text_6">
     <text style="font: 10px 'sans-serif'; text-anchor: middle" x="202.69" y="346.215312" transform="rotate(-0, 202.69, 346.215312)">Composite_Reward</text>
    </g>
   </g>
   <g id="matplotlib.axis_2">
    <g id="ytick_1">
     <g id="line2d_6">
      <defs>
       <path id="mf14c92daab" d="M 0 0 
L -3.5 0 
" style="stroke: #000000; stroke-width: 0.8"/>
      </defs>
      <g>
       <use xlink:href="#mf14c92daab" x="56.18" y="271.431207" style="stroke: #000000; stroke-width: 0.8"/>
      </g>
     </g>
     <g id="text_7">
      <text style="font: 10px 'sans-serif'; text-anchor: end" x="49.18" y="275.230426" transform="rotate(-0, 49.18, 275.230426)">−1.5</text>
     </g>
    </g>
    <g id="ytick_2">
     <g id="line2d_7">
      <g>
       <use xlink:href="#mf14c92daab" x="56.18" y="218.998396" style="stroke: #000000; stroke-width: 0.8"/>
      </g>
     </g>
     <g id="text_8">
      <text style="font: 10px 'sans-serif'; text-anchor: end" x="49.18" y="222.797614" transform="rotate(-0, 49.18, 222.797614)">−1.0</text>
     </g>
    </g>
    <g id="ytick_3">
     <g id="line2d_8">
      <g>
       <use xlink:href="#mf14c92daab" x="56.18" y="166.565584" style="stroke: #000000; stroke-width: 0.8"/>
      </g>
     </g>
     <g id="text_9">
      <text style="font: 10px 'sans-serif'; text-anchor: end" x="49.18" y="170.364802" transform="rotate(-0, 49.18, 170.364802)">−0.5</text>
     </g>
    </g>
    <g id="ytick_4">
     <g id="line2d_9">
      <g>
       <use xlink:href="#mf14c92daab" x="56.18" y="114.132772" style="stroke: #000000; stroke-width: 0.8"/>
      </g>
     </g>
     <g id="text_10">
      <text style="font: 10px 'sans-serif'; text-anchor: end" x="49.18" y="117.931991" transform="rotate(-0, 49.18, 117.931991)">0.0</text>
     </g>
    </g>
    <g id="ytick_5">
     <g id="line2d_10">
      <g>
       <use xlink:href="#mf14c92daab" x="56.18" y="61.69996" style="stroke: #000000; stroke-width: 0.8"/>
      </g>
     </g>
     <g id="text_11">
      <text style="font: 10px 'sans-serif'; text-anchor: end" x="49.18" y="65.499179" transform="rotate(-0, 49.18, 65.499179)">0.5</text>
     </g>
    </g>
    <g id="text_12">
     <text style="font: 10px 'sans-serif'; text-anchor: middle" x="18.8175" y="164.369375" transform="rotate(-90, 18.8175, 164.369375)">Conn Hit-Miss</text>
    </g>
   </g>
   <g id="line2d_11">
    <path d="M 69.499091 117.05425 
L 72.189816 116.932759 
L 74.880542 116.811269 
L 77.571267 116.689778 
L 80.261993 116.568287 
L 82.952718 116.446797 
L 85.643444 116.325306 
L 88.334169 116.203815 
L 91.024894 116.082325 
L 93.71562 115.960834 
L 96.406345 115.839343 
L 99.097071 115.717853 
L 101.787796 115.596362 
L 104.478522 115.474871 
L 107.169247 115.353381 
L 109.859972 115.23189 
L 112.550698 115.110399 
L 115.241423 114.988909 
L 117.932149 114.867418 
L 120.622874 114.745928 
L 123.3136 114.624437 
L 126.004325 114.502946 
L 128.695051 114.381456 
L 131.385776 114.259965 
L 134.076501 114.138474 
L 136.767227 114.016984 
L 139.457952 113.895493 
L 142.148678 113.774002 
L 144.839403 113.652512 
L 147.530129 113.531021 
L 150.220854 113.40953 
L 152.911579 113.28804 
L 155.602305 113.166549 
L 158.29303 113.045058 
L 160.983756 112.923568 
L 163.674481 112.802077 
L 166.365207 112.680586 
L 169.055932 112.559096 
L 171.746657 112.437605 
L 174.437383 112.316114 
L 177.128108 112.194624 
L 179.818834 112.073133 
L 182.509559 111.951642 
L 185.200285 111.830152 
L 187.89101 111.708661 
L 190.581736 111.587171 
L 193.272461 111.46568 
L 195.963186 111.344189 
L 198.653912 111.222699 
L 201.344637 111.101208 
L 204.035363 110.979717 
L 206.726088 110.858227 
L 209.416814 110.736736 
L 212.107539 110.615245 
L 214.798264 110.493755 
L 217.48899 110.372264 
L 220.179715 110.250773 
L 222.870441 110.129283 
L 225.561166 110.007792 
L 228.251892 109.886301 
L 230.942617 109.764811 
L 233.633343 109.64332 
L 236.324068 109.521829 
L 239.014793 109.400339 
L 241.705519 109.278848 
L 244.396244 109.157357 
L 247.08697 109.035867 
L 249.777695 108.914376 
L 252.468421 108.792886 
L 255.159146 108.671395 
L 257.849871 108.549904 
L 260.540597 108.428414 
L 263.231322 108.306923 
L 265.922048 108.185432 
L 268.612773 108.063942 
L 271.303499 107.942451 
L 273.994224 107.82096 
L 276.684949 107.69947 
L 279.375675 107.577979 
L 282.0664 107.456488 
L 284.757126 107.334998 
L 287.447851 107.213507 
L 290.138577 107.092016 
L 292.829302 106.970526 
L 295.520028 106.849035 
L 298.210753 106.727544 
L 300.901478 106.606054 
L 303.592204 106.484563 
L 306.282929 106.363072 
L 308.973655 106.241582 
L 311.66438 106.120091 
L 314.355106 105.9986 
L 317.045831 105.87711 
L 319.736556 105.755619 
L 322.427282 105.634129 
L 325.118007 105.512638 
L 327.808733 105.391147 
L 330.499458 105.269657 
L 333.190184 105.148166 
L 335.880909 105.026675 
" clip-path="url(#p9e60a7a48d)" style="fill: none; stroke: #1f77b4; stroke-width: 2.25; stroke-linecap: square"/>
   </g>
   <g id="patch_3">
    <path d="M 56.18 317.93875 
L 56.18 10.8 
" style="fill: none; stroke: #000000; stroke-width: 0.8; stroke-linejoin: miter; stroke-linecap: square"/>
   </g>
   <g id="patch_4">
    <path d="M 56.18 317.93875 
L 349.2 317.93875 
" style="fill: none; stroke: #000000; stroke-width: 0.8; stroke-linejoin: miter; stroke-linecap: square"/>
   </g>
  </g>
 </g>
 <defs>
  <clipPath id="p9e60a7a48d">
   <rect x="56.18" y="10.8" width="293.02" height="307.13875"/>
  </clipPath>
 </defs>
</svg>
