<?xml version="1.0" encoding="utf-8" standalone="no"?>
<!DOCTYPE svg PUBLIC "-//W3C//DTD SVG 1.1//EN"
  "http://www.w3.org/Graphics/SVG/1.1/DTD/svg11.dtd">
<svg xmlns:xlink="http://www.w3.org/1999/xlink" width="360pt" height="360pt" viewBox="0 0 360 360" xmlns="http://www.w3.org/2000/svg" version="1.1">
 <metadata>
  <rdf:RDF xmlns:dc="http://purl.org/dc/elements/1.1/" xmlns:cc="http://creativecommons.org/ns#" xmlns:rdf="http://www.w3.org/1999/02/22-rdf-syntax-ns#">
   <cc:Work>
    <dc:type rdf:resource="http://purl.org/dc/dcmitype/StillImage"/>
    <dc:date>2022-11-22T21:51:00.163810</dc:date>
    <dc:format>image/svg+xml</dc:format>
    <dc:creator>
     <cc:Agent>
      <dc:title>Matplotlib v3.5.3, https://matplotlib.org/</dc:title>
     </cc:Agent>
    </dc:creator>
   </cc:Work>
  </rdf:RDF>
 </metadata>
 <defs>
  <style type="text/css">*{stroke-linejoin: round; stroke-linecap: butt}</style>
 </defs>
 <g id="figure_1">
  <g id="patch_1">
   <path d="M 0 360 
L 360 360 
L 360 0 
L 0 0 
z
" style="fill: #ffffff"/>
  </g>
  <g id="axes_1">
   <g id="patch_2">
    <path d="M 56.18 317.93875 
L 349.2 317.93875 
L 349.2 10.8 
L 56.18 10.8 
z
" style="fill: #ffffff"/>
   </g>
   <g id="PathCollection_1">
    <defs>
     <path id="md15e13a381" d="M 0 3 
C 0.795609 3 1.55874 2.683901 2.12132 2.12132 
C 2.683901 1.55874 3 0.795609 3 0 
C 3 -0.795609 2.683901 -1.55874 2.12132 -2.12132 
C 1.55874 -2.683901 0.795609 -3 0 -3 
C -0.795609 -3 -1.55874 -2.683901 -2.12132 -2.12132 
C -2.683901 -1.55874 -3 -0.795609 -3 0 
C -3 0.795609 -2.683901 1.55874 -2.12132 2.12132 
C -1.55874 2.683901 -0.795609 3 0 3 
z
" style="stroke: #1f77b4; stroke-opacity: 0.8"/>
    </defs>
    <g clip-path="url(#p5a8af90d15)">
     <use xlink:href="#md15e13a381" x="217.48899" y="289.436579" style="fill: #1f77b4; fill-opacity: 0.8; stroke: #1f77b4; stroke-opacity: 0.8"/>
     <use xlink:href="#md15e13a381" x="217.48899" y="264.271697" style="fill: #1f77b4; fill-opacity: 0.8; stroke: #1f77b4; stroke-opacity: 0.8"/>
     <use xlink:href="#md15e13a381" x="276.684949" y="177.418581" style="fill: #1f77b4; fill-opacity: 0.8; stroke: #1f77b4; stroke-opacity: 0.8"/>
     <use xlink:href="#md15e13a381" x="187.89101" y="190.741216" style="fill: #1f77b4; fill-opacity: 0.8; stroke: #1f77b4; stroke-opacity: 0.8"/>
     <use xlink:href="#md15e13a381" x="247.08697" y="79.452072" style="fill: #1f77b4; fill-opacity: 0.8; stroke: #1f77b4; stroke-opacity: 0.8"/>
     <use xlink:href="#md15e13a381" x="158.29303" y="262.593979" style="fill: #1f77b4; fill-opacity: 0.8; stroke: #1f77b4; stroke-opacity: 0.8"/>
     <use xlink:href="#md15e13a381" x="276.684949" y="103.563784" style="fill: #1f77b4; fill-opacity: 0.8; stroke: #1f77b4; stroke-opacity: 0.8"/>
     <use xlink:href="#md15e13a381" x="69.499091" y="197.786562" style="fill: #1f77b4; fill-opacity: 0.8; stroke: #1f77b4; stroke-opacity: 0.8"/>
     <use xlink:href="#md15e13a381" x="335.880909" y="119.604745" style="fill: #1f77b4; fill-opacity: 0.8; stroke: #1f77b4; stroke-opacity: 0.8"/>
     <use xlink:href="#md15e13a381" x="99.097071" y="98.303689" style="fill: #1f77b4; fill-opacity: 0.8; stroke: #1f77b4; stroke-opacity: 0.8"/>
     <use xlink:href="#md15e13a381" x="306.282929" y="105.472866" style="fill: #1f77b4; fill-opacity: 0.8; stroke: #1f77b4; stroke-opacity: 0.8"/>
     <use xlink:href="#md15e13a381" x="276.684949" y="141.067989" style="fill: #1f77b4; fill-opacity: 0.8; stroke: #1f77b4; stroke-opacity: 0.8"/>
     <use xlink:href="#md15e13a381" x="158.29303" y="156.313417" style="fill: #1f77b4; fill-opacity: 0.8; stroke: #1f77b4; stroke-opacity: 0.8"/>
     <use xlink:href="#md15e13a381" x="276.684949" y="139.545443" style="fill: #1f77b4; fill-opacity: 0.8; stroke: #1f77b4; stroke-opacity: 0.8"/>
     <use xlink:href="#md15e13a381" x="128.695051" y="144.493734" style="fill: #1f77b4; fill-opacity: 0.8; stroke: #1f77b4; stroke-opacity: 0.8"/>
     <use xlink:href="#md15e13a381" x="335.880909" y="167.623917" style="fill: #1f77b4; fill-opacity: 0.8; stroke: #1f77b4; stroke-opacity: 0.8"/>
     <use xlink:href="#md15e13a381" x="99.097071" y="108.608207" style="fill: #1f77b4; fill-opacity: 0.8; stroke: #1f77b4; stroke-opacity: 0.8"/>
     <use xlink:href="#md15e13a381" x="306.282929" y="195.352158" style="fill: #1f77b4; fill-opacity: 0.8; stroke: #1f77b4; stroke-opacity: 0.8"/>
     <use xlink:href="#md15e13a381" x="276.684949" y="180.569921" style="fill: #1f77b4; fill-opacity: 0.8; stroke: #1f77b4; stroke-opacity: 0.8"/>
     <use xlink:href="#md15e13a381" x="247.08697" y="37.317822" style="fill: #1f77b4; fill-opacity: 0.8; stroke: #1f77b4; stroke-opacity: 0.8"/>
     <use xlink:href="#md15e13a381" x="158.29303" y="291.516276" style="fill: #1f77b4; fill-opacity: 0.8; stroke: #1f77b4; stroke-opacity: 0.8"/>
     <use xlink:href="#md15e13a381" x="128.695051" y="303.977898" style="fill: #1f77b4; fill-opacity: 0.8; stroke: #1f77b4; stroke-opacity: 0.8"/>
     <use xlink:href="#md15e13a381" x="335.880909" y="145.573172" style="fill: #1f77b4; fill-opacity: 0.8; stroke: #1f77b4; stroke-opacity: 0.8"/>
     <use xlink:href="#md15e13a381" x="187.89101" y="57.946905" style="fill: #1f77b4; fill-opacity: 0.8; stroke: #1f77b4; stroke-opacity: 0.8"/>
     <use xlink:href="#md15e13a381" x="128.695051" y="24.760852" style="fill: #1f77b4; fill-opacity: 0.8; stroke: #1f77b4; stroke-opacity: 0.8"/>
     <use xlink:href="#md15e13a381" x="69.499091" y="98.191948" style="fill: #1f77b4; fill-opacity: 0.8; stroke: #1f77b4; stroke-opacity: 0.8"/>
     <use xlink:href="#md15e13a381" x="128.695051" y="173.387779" style="fill: #1f77b4; fill-opacity: 0.8; stroke: #1f77b4; stroke-opacity: 0.8"/>
     <use xlink:href="#md15e13a381" x="335.880909" y="237.660036" style="fill: #1f77b4; fill-opacity: 0.8; stroke: #1f77b4; stroke-opacity: 0.8"/>
     <use xlink:href="#md15e13a381" x="217.48899" y="254.51365" style="fill: #1f77b4; fill-opacity: 0.8; stroke: #1f77b4; stroke-opacity: 0.8"/>
     <use xlink:href="#md15e13a381" x="247.08697" y="129.95899" style="fill: #1f77b4; fill-opacity: 0.8; stroke: #1f77b4; stroke-opacity: 0.8"/>
     <use xlink:href="#md15e13a381" x="335.880909" y="295.66301" style="fill: #1f77b4; fill-opacity: 0.8; stroke: #1f77b4; stroke-opacity: 0.8"/>
     <use xlink:href="#md15e13a381" x="158.29303" y="173.166777" style="fill: #1f77b4; fill-opacity: 0.8; stroke: #1f77b4; stroke-opacity: 0.8"/>
     <use xlink:href="#md15e13a381" x="217.48899" y="96.614551" style="fill: #1f77b4; fill-opacity: 0.8; stroke: #1f77b4; stroke-opacity: 0.8"/>
     <use xlink:href="#md15e13a381" x="99.097071" y="87.141626" style="fill: #1f77b4; fill-opacity: 0.8; stroke: #1f77b4; stroke-opacity: 0.8"/>
     <use xlink:href="#md15e13a381" x="128.695051" y="120.687172" style="fill: #1f77b4; fill-opacity: 0.8; stroke: #1f77b4; stroke-opacity: 0.8"/>
     <use xlink:href="#md15e13a381" x="69.499091" y="158.938821" style="fill: #1f77b4; fill-opacity: 0.8; stroke: #1f77b4; stroke-opacity: 0.8"/>
     <use xlink:href="#md15e13a381" x="306.282929" y="198.458565" style="fill: #1f77b4; fill-opacity: 0.8; stroke: #1f77b4; stroke-opacity: 0.8"/>
     <use xlink:href="#md15e13a381" x="69.499091" y="140.814429" style="fill: #1f77b4; fill-opacity: 0.8; stroke: #1f77b4; stroke-opacity: 0.8"/>
     <use xlink:href="#md15e13a381" x="99.097071" y="183.368828" style="fill: #1f77b4; fill-opacity: 0.8; stroke: #1f77b4; stroke-opacity: 0.8"/>
     <use xlink:href="#md15e13a381" x="187.89101" y="113.031128" style="fill: #1f77b4; fill-opacity: 0.8; stroke: #1f77b4; stroke-opacity: 0.8"/>
     <use xlink:href="#md15e13a381" x="306.282929" y="67.572033" style="fill: #1f77b4; fill-opacity: 0.8; stroke: #1f77b4; stroke-opacity: 0.8"/>
     <use xlink:href="#md15e13a381" x="247.08697" y="223.82375" style="fill: #1f77b4; fill-opacity: 0.8; stroke: #1f77b4; stroke-opacity: 0.8"/>
     <use xlink:href="#md15e13a381" x="99.097071" y="242.780435" style="fill: #1f77b4; fill-opacity: 0.8; stroke: #1f77b4; stroke-opacity: 0.8"/>
     <use xlink:href="#md15e13a381" x="158.29303" y="106.561677" style="fill: #1f77b4; fill-opacity: 0.8; stroke: #1f77b4; stroke-opacity: 0.8"/>
     <use xlink:href="#md15e13a381" x="99.097071" y="241.500526" style="fill: #1f77b4; fill-opacity: 0.8; stroke: #1f77b4; stroke-opacity: 0.8"/>
     <use xlink:href="#md15e13a381" x="217.48899" y="125.56419" style="fill: #1f77b4; fill-opacity: 0.8; stroke: #1f77b4; stroke-opacity: 0.8"/>
     <use xlink:href="#md15e13a381" x="247.08697" y="201.709967" style="fill: #1f77b4; fill-opacity: 0.8; stroke: #1f77b4; stroke-opacity: 0.8"/>
    </g>
   </g>
   <g id="PolyCollection_1">
    <path d="M 69.499091 122.786354 
L 69.499091 195.915147 
L 72.189816 195.458698 
L 74.880542 195.125119 
L 77.571267 194.797556 
L 80.261993 194.478597 
L 82.952718 194.151897 
L 85.643444 193.825197 
L 88.334169 193.498496 
L 91.024894 193.171796 
L 93.71562 192.839711 
L 96.406345 192.409699 
L 99.097071 191.909404 
L 101.787796 191.542124 
L 104.478522 191.200309 
L 107.169247 190.875273 
L 109.859972 190.532321 
L 112.550698 190.189368 
L 115.241423 189.846416 
L 117.932149 189.503463 
L 120.622874 189.251249 
L 123.3136 189.004713 
L 126.004325 188.685252 
L 128.695051 188.371502 
L 131.385776 188.056871 
L 134.076501 187.882267 
L 136.767227 187.572893 
L 139.457952 187.061523 
L 142.148678 186.653521 
L 144.839403 186.240735 
L 147.530129 185.741612 
L 150.220854 185.377143 
L 152.911579 185.008823 
L 155.602305 184.690005 
L 158.29303 184.359177 
L 160.983756 184.254749 
L 163.674481 183.888395 
L 166.365207 183.904492 
L 169.055932 183.646785 
L 171.746657 183.328624 
L 174.437383 183.035165 
L 177.128108 183.20581 
L 179.818834 183.084866 
L 182.509559 183.02439 
L 185.200285 183.113362 
L 187.89101 182.957971 
L 190.581736 182.653183 
L 193.272461 182.668408 
L 195.963186 182.299949 
L 198.653912 182.526642 
L 201.344637 182.81598 
L 204.035363 182.387749 
L 206.726088 181.896304 
L 209.416814 181.792695 
L 212.107539 181.825286 
L 214.798264 181.901829 
L 217.48899 182.115571 
L 220.179715 182.176176 
L 222.870441 182.220692 
L 225.561166 182.696814 
L 228.251892 183.165645 
L 230.942617 183.129415 
L 233.633343 183.448546 
L 236.324068 183.491526 
L 239.014793 183.796597 
L 241.705519 184.338833 
L 244.396244 184.877904 
L 247.08697 185.555537 
L 249.777695 186.288547 
L 252.468421 186.861854 
L 255.159146 187.424697 
L 257.849871 187.961457 
L 260.540597 188.354632 
L 263.231322 188.667279 
L 265.922048 189.051345 
L 268.612773 189.279848 
L 271.303499 189.896507 
L 273.994224 190.413389 
L 276.684949 190.980198 
L 279.375675 191.32836 
L 282.0664 191.667389 
L 284.757126 192.107941 
L 287.447851 192.752226 
L 290.138577 193.447352 
L 292.829302 194.117481 
L 295.520028 194.444592 
L 298.210753 195.0584 
L 300.901478 195.664608 
L 303.592204 196.123078 
L 306.282929 196.880358 
L 308.973655 197.503065 
L 311.66438 197.990531 
L 314.355106 198.472184 
L 317.045831 198.963096 
L 319.736556 199.784362 
L 322.427282 200.111002 
L 325.118007 200.397264 
L 327.808733 200.877122 
L 330.499458 201.35698 
L 333.190184 201.836838 
L 335.880909 202.604113 
L 335.880909 131.505854 
L 335.880909 131.505854 
L 333.190184 132.097227 
L 330.499458 132.688599 
L 327.808733 133.225573 
L 325.118007 133.580993 
L 322.427282 133.943706 
L 319.736556 134.313998 
L 317.045831 134.734597 
L 314.355106 135.070213 
L 311.66438 135.394793 
L 308.973655 135.753338 
L 306.282929 136.110637 
L 303.592204 136.442206 
L 300.901478 136.821509 
L 298.210753 137.176946 
L 295.520028 137.532382 
L 292.829302 137.887818 
L 290.138577 138.233232 
L 287.447851 138.598718 
L 284.757126 138.875578 
L 282.0664 138.785736 
L 279.375675 138.991324 
L 276.684949 139.278156 
L 273.994224 139.462393 
L 271.303499 139.857982 
L 268.612773 140.156609 
L 265.922048 140.452861 
L 263.231322 140.521685 
L 260.540597 140.940762 
L 257.849871 141.147864 
L 255.159146 141.38602 
L 252.468421 141.743757 
L 249.777695 141.905415 
L 247.08697 142.060343 
L 244.396244 142.214975 
L 241.705519 142.46321 
L 239.014793 142.522627 
L 236.324068 142.88383 
L 233.633343 142.95312 
L 230.942617 142.982372 
L 228.251892 143.385608 
L 225.561166 143.187904 
L 222.870441 143.419409 
L 220.179715 143.220586 
L 217.48899 143.488382 
L 214.798264 143.686565 
L 212.107539 143.615057 
L 209.416814 143.515795 
L 206.726088 143.43761 
L 204.035363 143.363263 
L 201.344637 143.308006 
L 198.653912 143.182598 
L 195.963186 143.023831 
L 193.272461 142.940926 
L 190.581736 142.780984 
L 187.89101 142.530562 
L 185.200285 142.504197 
L 182.509559 142.17359 
L 179.818834 141.679006 
L 177.128108 141.503134 
L 174.437383 141.345884 
L 171.746657 140.834742 
L 169.055932 140.498923 
L 166.365207 140.166459 
L 163.674481 140.005341 
L 160.983756 139.835884 
L 158.29303 139.169915 
L 155.602305 138.823835 
L 152.911579 138.48116 
L 150.220854 138.083235 
L 147.530129 137.264946 
L 144.839403 136.678976 
L 142.148678 136.488066 
L 139.457952 136.297688 
L 136.767227 136.068157 
L 134.076501 135.892135 
L 131.385776 135.362263 
L 128.695051 135.014323 
L 126.004325 134.466289 
L 123.3136 133.918254 
L 120.622874 133.37022 
L 117.932149 132.827148 
L 115.241423 132.305327 
L 112.550698 131.734663 
L 109.859972 131.154977 
L 107.169247 130.637527 
L 104.478522 130.088959 
L 101.787796 129.540392 
L 99.097071 128.991824 
L 96.406345 128.443256 
L 93.71562 127.894688 
L 91.024894 127.34612 
L 88.334169 126.802609 
L 85.643444 126.269603 
L 82.952718 125.738828 
L 80.261993 125.16512 
L 77.571267 124.616594 
L 74.880542 123.97012 
L 72.189816 123.413877 
L 69.499091 122.786354 
z
" clip-path="url(#p5a8af90d15)" style="fill: #1f77b4; fill-opacity: 0.15"/>
   </g>
   <g id="matplotlib.axis_1">
    <g id="xtick_1">
     <g id="line2d_1">
      <defs>
       <path id="m1e4594f81b" d="M 0 0 
L 0 3.5 
" style="stroke: #000000; stroke-width: 0.8"/>
      </defs>
      <g>
       <use xlink:href="#m1e4594f81b" x="85.204141" y="317.93875" style="stroke: #000000; stroke-width: 0.8"/>
      </g>
     </g>
     <g id="text_1">
      <text style="font: 10px 'sans-serif'; text-anchor: middle" x="85.204141" y="332.537188" transform="rotate(-0, 85.204141, 332.537188)">−4</text>
     </g>
    </g>
    <g id="xtick_2">
     <g id="line2d_2">
      <g>
       <use xlink:href="#m1e4594f81b" x="144.400101" y="317.93875" style="stroke: #000000; stroke-width: 0.8"/>
      </g>
     </g>
     <g id="text_2">
      <text style="font: 10px 'sans-serif'; text-anchor: middle" x="144.400101" y="332.537188" transform="rotate(-0, 144.400101, 332.537188)">−2</text>
     </g>
    </g>
    <g id="xtick_3">
     <g id="line2d_3">
      <g>
       <use xlink:href="#m1e4594f81b" x="203.596061" y="317.93875" style="stroke: #000000; stroke-width: 0.8"/>
      </g>
     </g>
     <g id="text_3">
      <text style="font: 10px 'sans-serif'; text-anchor: middle" x="203.596061" y="332.537188" transform="rotate(-0, 203.596061, 332.537188)">0</text>
     </g>
    </g>
    <g id="xtick_4">
     <g id="line2d_4">
      <g>
       <use xlink:href="#m1e4594f81b" x="262.79202" y="317.93875" style="stroke: #000000; stroke-width: 0.8"/>
      </g>
     </g>
     <g id="text_4">
      <text style="font: 10px 'sans-serif'; text-anchor: middle" x="262.79202" y="332.537188" transform="rotate(-0, 262.79202, 332.537188)">2</text>
     </g>
    </g>
    <g id="xtick_5">
     <g id="line2d_5">
      <g>
       <use xlink:href="#m1e4594f81b" x="321.98798" y="317.93875" style="stroke: #000000; stroke-width: 0.8"/>
      </g>
     </g>
     <g id="text_5">
      <text style="font: 10px 'sans-serif'; text-anchor: middle" x="321.98798" y="332.537188" transform="rotate(-0, 321.98798, 332.537188)">4</text>
     </g>
    </g>
    <g id="text_6">
     <text style="font: 10px 'sans-serif'; text-anchor: middle" x="202.69" y="346.215312" transform="rotate(-0, 202.69, 346.215312)">Composite_Reward</text>
    </g>
   </g>
   <g id="matplotlib.axis_2">
    <g id="ytick_1">
     <g id="line2d_6">
      <defs>
       <path id="m92d44a34e0" d="M 0 0 
L -3.5 0 
" style="stroke: #000000; stroke-width: 0.8"/>
      </defs>
      <g>
       <use xlink:href="#m92d44a34e0" x="56.18" y="307.020774" style="stroke: #000000; stroke-width: 0.8"/>
      </g>
     </g>
     <g id="text_7">
      <text style="font: 10px 'sans-serif'; text-anchor: end" x="49.18" y="310.819992" transform="rotate(-0, 49.18, 310.819992)">−0.4</text>
     </g>
    </g>
    <g id="ytick_2">
     <g id="line2d_7">
      <g>
       <use xlink:href="#m92d44a34e0" x="56.18" y="241.264943" style="stroke: #000000; stroke-width: 0.8"/>
      </g>
     </g>
     <g id="text_8">
      <text style="font: 10px 'sans-serif'; text-anchor: end" x="49.18" y="245.064161" transform="rotate(-0, 49.18, 245.064161)">−0.2</text>
     </g>
    </g>
    <g id="ytick_3">
     <g id="line2d_8">
      <g>
       <use xlink:href="#m92d44a34e0" x="56.18" y="175.509112" style="stroke: #000000; stroke-width: 0.8"/>
      </g>
     </g>
     <g id="text_9">
      <text style="font: 10px 'sans-serif'; text-anchor: end" x="49.18" y="179.308331" transform="rotate(-0, 49.18, 179.308331)">0.0</text>
     </g>
    </g>
    <g id="ytick_4">
     <g id="line2d_9">
      <g>
       <use xlink:href="#m92d44a34e0" x="56.18" y="109.753281" style="stroke: #000000; stroke-width: 0.8"/>
      </g>
     </g>
     <g id="text_10">
      <text style="font: 10px 'sans-serif'; text-anchor: end" x="49.18" y="113.5525" transform="rotate(-0, 49.18, 113.5525)">0.2</text>
     </g>
    </g>
    <g id="ytick_5">
     <g id="line2d_10">
      <g>
       <use xlink:href="#m92d44a34e0" x="56.18" y="43.99745" style="stroke: #000000; stroke-width: 0.8"/>
      </g>
     </g>
     <g id="text_11">
      <text style="font: 10px 'sans-serif'; text-anchor: end" x="49.18" y="47.796669" transform="rotate(-0, 49.18, 47.796669)">0.4</text>
     </g>
    </g>
    <g id="text_12">
     <text style="font: 10px 'sans-serif'; text-anchor: middle" x="18.8175" y="164.369375" transform="rotate(-90, 18.8175, 164.369375)">Conn LL-SL</text>
    </g>
   </g>
   <g id="line2d_11">
    <path d="M 69.499091 159.16717 
L 72.189816 159.242307 
L 74.880542 159.317444 
L 77.571267 159.392581 
L 80.261993 159.467718 
L 82.952718 159.542855 
L 85.643444 159.617992 
L 88.334169 159.693129 
L 91.024894 159.768266 
L 93.71562 159.843403 
L 96.406345 159.91854 
L 99.097071 159.993677 
L 101.787796 160.068814 
L 104.478522 160.143951 
L 107.169247 160.219088 
L 109.859972 160.294225 
L 112.550698 160.369362 
L 115.241423 160.444498 
L 117.932149 160.519635 
L 120.622874 160.594772 
L 123.3136 160.669909 
L 126.004325 160.745046 
L 128.695051 160.820183 
L 131.385776 160.89532 
L 134.076501 160.970457 
L 136.767227 161.045594 
L 139.457952 161.120731 
L 142.148678 161.195868 
L 144.839403 161.271005 
L 147.530129 161.346142 
L 150.220854 161.421279 
L 152.911579 161.496416 
L 155.602305 161.571553 
L 158.29303 161.64669 
L 160.983756 161.721827 
L 163.674481 161.796964 
L 166.365207 161.872101 
L 169.055932 161.947238 
L 171.746657 162.022375 
L 174.437383 162.097511 
L 177.128108 162.172648 
L 179.818834 162.247785 
L 182.509559 162.322922 
L 185.200285 162.398059 
L 187.89101 162.473196 
L 190.581736 162.548333 
L 193.272461 162.62347 
L 195.963186 162.698607 
L 198.653912 162.773744 
L 201.344637 162.848881 
L 204.035363 162.924018 
L 206.726088 162.999155 
L 209.416814 163.074292 
L 212.107539 163.149429 
L 214.798264 163.224566 
L 217.48899 163.299703 
L 220.179715 163.37484 
L 222.870441 163.449977 
L 225.561166 163.525114 
L 228.251892 163.600251 
L 230.942617 163.675388 
L 233.633343 163.750525 
L 236.324068 163.825661 
L 239.014793 163.900798 
L 241.705519 163.975935 
L 244.396244 164.051072 
L 247.08697 164.126209 
L 249.777695 164.201346 
L 252.468421 164.276483 
L 255.159146 164.35162 
L 257.849871 164.426757 
L 260.540597 164.501894 
L 263.231322 164.577031 
L 265.922048 164.652168 
L 268.612773 164.727305 
L 271.303499 164.802442 
L 273.994224 164.877579 
L 276.684949 164.952716 
L 279.375675 165.027853 
L 282.0664 165.10299 
L 284.757126 165.178127 
L 287.447851 165.253264 
L 290.138577 165.328401 
L 292.829302 165.403538 
L 295.520028 165.478674 
L 298.210753 165.553811 
L 300.901478 165.628948 
L 303.592204 165.704085 
L 306.282929 165.779222 
L 308.973655 165.854359 
L 311.66438 165.929496 
L 314.355106 166.004633 
L 317.045831 166.07977 
L 319.736556 166.154907 
L 322.427282 166.230044 
L 325.118007 166.305181 
L 327.808733 166.380318 
L 330.499458 166.455455 
L 333.190184 166.530592 
L 335.880909 166.605729 
" clip-path="url(#p5a8af90d15)" style="fill: none; stroke: #1f77b4; stroke-width: 2.25; stroke-linecap: square"/>
   </g>
   <g id="patch_3">
    <path d="M 56.18 317.93875 
L 56.18 10.8 
" style="fill: none; stroke: #000000; stroke-width: 0.8; stroke-linejoin: miter; stroke-linecap: square"/>
   </g>
   <g id="patch_4">
    <path d="M 56.18 317.93875 
L 349.2 317.93875 
" style="fill: none; stroke: #000000; stroke-width: 0.8; stroke-linejoin: miter; stroke-linecap: square"/>
   </g>
  </g>
 </g>
 <defs>
  <clipPath id="p5a8af90d15">
   <rect x="56.18" y="10.8" width="293.02" height="307.13875"/>
  </clipPath>
 </defs>
</svg>
