<?xml version="1.0" encoding="utf-8" standalone="no"?>
<!DOCTYPE svg PUBLIC "-//W3C//DTD SVG 1.1//EN"
  "http://www.w3.org/Graphics/SVG/1.1/DTD/svg11.dtd">
<svg xmlns:xlink="http://www.w3.org/1999/xlink" width="360pt" height="360pt" viewBox="0 0 360 360" xmlns="http://www.w3.org/2000/svg" version="1.1">
 <metadata>
  <rdf:RDF xmlns:dc="http://purl.org/dc/elements/1.1/" xmlns:cc="http://creativecommons.org/ns#" xmlns:rdf="http://www.w3.org/1999/02/22-rdf-syntax-ns#">
   <cc:Work>
    <dc:type rdf:resource="http://purl.org/dc/dcmitype/StillImage"/>
    <dc:date>2022-11-22T21:42:41.938530</dc:date>
    <dc:format>image/svg+xml</dc:format>
    <dc:creator>
     <cc:Agent>
      <dc:title>Matplotlib v3.5.3, https://matplotlib.org/</dc:title>
     </cc:Agent>
    </dc:creator>
   </cc:Work>
  </rdf:RDF>
 </metadata>
 <defs>
  <style type="text/css">*{stroke-linejoin: round; stroke-linecap: butt}</style>
 </defs>
 <g id="figure_1">
  <g id="patch_1">
   <path d="M 0 360 
L 360 360 
L 360 0 
L 0 0 
z
" style="fill: #ffffff"/>
  </g>
  <g id="axes_1">
   <g id="patch_2">
    <path d="M 56.18 317.93875 
L 349.2 317.93875 
L 349.2 10.8 
L 56.18 10.8 
z
" style="fill: #ffffff"/>
   </g>
   <g id="PathCollection_1">
    <defs>
     <path id="m18dadbfee4" d="M 0 3 
C 0.795609 3 1.55874 2.683901 2.12132 2.12132 
C 2.683901 1.55874 3 0.795609 3 0 
C 3 -0.795609 2.683901 -1.55874 2.12132 -2.12132 
C 1.55874 -2.683901 0.795609 -3 0 -3 
C -0.795609 -3 -1.55874 -2.683901 -2.12132 -2.12132 
C -2.683901 -1.55874 -3 -0.795609 -3 0 
C -3 0.795609 -2.683901 1.55874 -2.12132 2.12132 
C -1.55874 2.683901 -0.795609 3 0 3 
z
" style="stroke: #1f77b4; stroke-opacity: 0.8"/>
    </defs>
    <g clip-path="url(#p9fc47edb5b)">
     <use xlink:href="#m18dadbfee4" x="217.48899" y="185.47464" style="fill: #1f77b4; fill-opacity: 0.8; stroke: #1f77b4; stroke-opacity: 0.8"/>
     <use xlink:href="#m18dadbfee4" x="217.48899" y="48.699729" style="fill: #1f77b4; fill-opacity: 0.8; stroke: #1f77b4; stroke-opacity: 0.8"/>
     <use xlink:href="#m18dadbfee4" x="276.684949" y="280.770633" style="fill: #1f77b4; fill-opacity: 0.8; stroke: #1f77b4; stroke-opacity: 0.8"/>
     <use xlink:href="#m18dadbfee4" x="187.89101" y="116.30604" style="fill: #1f77b4; fill-opacity: 0.8; stroke: #1f77b4; stroke-opacity: 0.8"/>
     <use xlink:href="#m18dadbfee4" x="247.08697" y="79.344331" style="fill: #1f77b4; fill-opacity: 0.8; stroke: #1f77b4; stroke-opacity: 0.8"/>
     <use xlink:href="#m18dadbfee4" x="158.29303" y="85.42315" style="fill: #1f77b4; fill-opacity: 0.8; stroke: #1f77b4; stroke-opacity: 0.8"/>
     <use xlink:href="#m18dadbfee4" x="276.684949" y="160.998775" style="fill: #1f77b4; fill-opacity: 0.8; stroke: #1f77b4; stroke-opacity: 0.8"/>
     <use xlink:href="#m18dadbfee4" x="69.499091" y="24.760852" style="fill: #1f77b4; fill-opacity: 0.8; stroke: #1f77b4; stroke-opacity: 0.8"/>
     <use xlink:href="#m18dadbfee4" x="335.880909" y="110.917547" style="fill: #1f77b4; fill-opacity: 0.8; stroke: #1f77b4; stroke-opacity: 0.8"/>
     <use xlink:href="#m18dadbfee4" x="99.097071" y="217.489954" style="fill: #1f77b4; fill-opacity: 0.8; stroke: #1f77b4; stroke-opacity: 0.8"/>
     <use xlink:href="#m18dadbfee4" x="306.282929" y="116.631317" style="fill: #1f77b4; fill-opacity: 0.8; stroke: #1f77b4; stroke-opacity: 0.8"/>
     <use xlink:href="#m18dadbfee4" x="276.684949" y="121.941776" style="fill: #1f77b4; fill-opacity: 0.8; stroke: #1f77b4; stroke-opacity: 0.8"/>
     <use xlink:href="#m18dadbfee4" x="158.29303" y="194.336212" style="fill: #1f77b4; fill-opacity: 0.8; stroke: #1f77b4; stroke-opacity: 0.8"/>
     <use xlink:href="#m18dadbfee4" x="276.684949" y="101.834874" style="fill: #1f77b4; fill-opacity: 0.8; stroke: #1f77b4; stroke-opacity: 0.8"/>
     <use xlink:href="#m18dadbfee4" x="128.695051" y="162.870858" style="fill: #1f77b4; fill-opacity: 0.8; stroke: #1f77b4; stroke-opacity: 0.8"/>
     <use xlink:href="#m18dadbfee4" x="335.880909" y="303.977898" style="fill: #1f77b4; fill-opacity: 0.8; stroke: #1f77b4; stroke-opacity: 0.8"/>
     <use xlink:href="#m18dadbfee4" x="99.097071" y="102.401915" style="fill: #1f77b4; fill-opacity: 0.8; stroke: #1f77b4; stroke-opacity: 0.8"/>
     <use xlink:href="#m18dadbfee4" x="306.282929" y="179.913203" style="fill: #1f77b4; fill-opacity: 0.8; stroke: #1f77b4; stroke-opacity: 0.8"/>
     <use xlink:href="#m18dadbfee4" x="276.684949" y="177.109347" style="fill: #1f77b4; fill-opacity: 0.8; stroke: #1f77b4; stroke-opacity: 0.8"/>
     <use xlink:href="#m18dadbfee4" x="247.08697" y="83.851503" style="fill: #1f77b4; fill-opacity: 0.8; stroke: #1f77b4; stroke-opacity: 0.8"/>
     <use xlink:href="#m18dadbfee4" x="158.29303" y="163.01951" style="fill: #1f77b4; fill-opacity: 0.8; stroke: #1f77b4; stroke-opacity: 0.8"/>
     <use xlink:href="#m18dadbfee4" x="128.695051" y="184.55331" style="fill: #1f77b4; fill-opacity: 0.8; stroke: #1f77b4; stroke-opacity: 0.8"/>
     <use xlink:href="#m18dadbfee4" x="335.880909" y="177.099157" style="fill: #1f77b4; fill-opacity: 0.8; stroke: #1f77b4; stroke-opacity: 0.8"/>
     <use xlink:href="#m18dadbfee4" x="187.89101" y="131.756881" style="fill: #1f77b4; fill-opacity: 0.8; stroke: #1f77b4; stroke-opacity: 0.8"/>
     <use xlink:href="#m18dadbfee4" x="128.695051" y="106.776312" style="fill: #1f77b4; fill-opacity: 0.8; stroke: #1f77b4; stroke-opacity: 0.8"/>
     <use xlink:href="#m18dadbfee4" x="69.499091" y="60.617906" style="fill: #1f77b4; fill-opacity: 0.8; stroke: #1f77b4; stroke-opacity: 0.8"/>
     <use xlink:href="#m18dadbfee4" x="128.695051" y="140.058074" style="fill: #1f77b4; fill-opacity: 0.8; stroke: #1f77b4; stroke-opacity: 0.8"/>
     <use xlink:href="#m18dadbfee4" x="335.880909" y="171.287337" style="fill: #1f77b4; fill-opacity: 0.8; stroke: #1f77b4; stroke-opacity: 0.8"/>
     <use xlink:href="#m18dadbfee4" x="217.48899" y="264.510769" style="fill: #1f77b4; fill-opacity: 0.8; stroke: #1f77b4; stroke-opacity: 0.8"/>
     <use xlink:href="#m18dadbfee4" x="247.08697" y="158.150384" style="fill: #1f77b4; fill-opacity: 0.8; stroke: #1f77b4; stroke-opacity: 0.8"/>
     <use xlink:href="#m18dadbfee4" x="335.880909" y="95.486883" style="fill: #1f77b4; fill-opacity: 0.8; stroke: #1f77b4; stroke-opacity: 0.8"/>
     <use xlink:href="#m18dadbfee4" x="158.29303" y="207.852522" style="fill: #1f77b4; fill-opacity: 0.8; stroke: #1f77b4; stroke-opacity: 0.8"/>
     <use xlink:href="#m18dadbfee4" x="217.48899" y="92.501747" style="fill: #1f77b4; fill-opacity: 0.8; stroke: #1f77b4; stroke-opacity: 0.8"/>
     <use xlink:href="#m18dadbfee4" x="99.097071" y="75.614945" style="fill: #1f77b4; fill-opacity: 0.8; stroke: #1f77b4; stroke-opacity: 0.8"/>
     <use xlink:href="#m18dadbfee4" x="128.695051" y="103.841579" style="fill: #1f77b4; fill-opacity: 0.8; stroke: #1f77b4; stroke-opacity: 0.8"/>
     <use xlink:href="#m18dadbfee4" x="69.499091" y="150.330572" style="fill: #1f77b4; fill-opacity: 0.8; stroke: #1f77b4; stroke-opacity: 0.8"/>
     <use xlink:href="#m18dadbfee4" x="306.282929" y="163.289102" style="fill: #1f77b4; fill-opacity: 0.8; stroke: #1f77b4; stroke-opacity: 0.8"/>
     <use xlink:href="#m18dadbfee4" x="69.499091" y="130.29998" style="fill: #1f77b4; fill-opacity: 0.8; stroke: #1f77b4; stroke-opacity: 0.8"/>
     <use xlink:href="#m18dadbfee4" x="99.097071" y="121.950929" style="fill: #1f77b4; fill-opacity: 0.8; stroke: #1f77b4; stroke-opacity: 0.8"/>
     <use xlink:href="#m18dadbfee4" x="187.89101" y="36.432377" style="fill: #1f77b4; fill-opacity: 0.8; stroke: #1f77b4; stroke-opacity: 0.8"/>
     <use xlink:href="#m18dadbfee4" x="306.282929" y="28.28116" style="fill: #1f77b4; fill-opacity: 0.8; stroke: #1f77b4; stroke-opacity: 0.8"/>
     <use xlink:href="#m18dadbfee4" x="247.08697" y="102.259985" style="fill: #1f77b4; fill-opacity: 0.8; stroke: #1f77b4; stroke-opacity: 0.8"/>
     <use xlink:href="#m18dadbfee4" x="99.097071" y="36.100926" style="fill: #1f77b4; fill-opacity: 0.8; stroke: #1f77b4; stroke-opacity: 0.8"/>
     <use xlink:href="#m18dadbfee4" x="158.29303" y="139.115861" style="fill: #1f77b4; fill-opacity: 0.8; stroke: #1f77b4; stroke-opacity: 0.8"/>
     <use xlink:href="#m18dadbfee4" x="99.097071" y="94.246459" style="fill: #1f77b4; fill-opacity: 0.8; stroke: #1f77b4; stroke-opacity: 0.8"/>
     <use xlink:href="#m18dadbfee4" x="217.48899" y="145.944739" style="fill: #1f77b4; fill-opacity: 0.8; stroke: #1f77b4; stroke-opacity: 0.8"/>
     <use xlink:href="#m18dadbfee4" x="247.08697" y="85.258698" style="fill: #1f77b4; fill-opacity: 0.8; stroke: #1f77b4; stroke-opacity: 0.8"/>
    </g>
   </g>
   <g id="PolyCollection_1">
    <path d="M 69.499091 80.66452 
L 69.499091 139.565324 
L 72.189816 139.583476 
L 74.880542 139.439941 
L 77.571267 139.638512 
L 80.261993 139.667271 
L 82.952718 139.691053 
L 85.643444 139.620034 
L 88.334169 139.497102 
L 91.024894 139.594771 
L 93.71562 139.495672 
L 96.406345 139.498151 
L 99.097071 139.447172 
L 101.787796 139.621924 
L 104.478522 139.5811 
L 107.169247 139.76311 
L 109.859972 139.78716 
L 112.550698 139.705883 
L 115.241423 139.630865 
L 117.932149 139.811633 
L 120.622874 140.065266 
L 123.3136 140.041594 
L 126.004325 139.982613 
L 128.695051 140.038461 
L 131.385776 140.243849 
L 134.076501 140.369147 
L 136.767227 140.527578 
L 139.457952 140.612117 
L 142.148678 140.808052 
L 144.839403 140.979638 
L 147.530129 141.28748 
L 150.220854 141.597315 
L 152.911579 141.902441 
L 155.602305 141.876033 
L 158.29303 142.322713 
L 160.983756 142.535077 
L 163.674481 142.928774 
L 166.365207 143.453513 
L 169.055932 144.002656 
L 171.746657 144.543414 
L 174.437383 145.079834 
L 177.128108 145.557833 
L 179.818834 146.164843 
L 182.509559 146.647295 
L 185.200285 147.238761 
L 187.89101 147.783731 
L 190.581736 148.320162 
L 193.272461 148.855947 
L 195.963186 149.335202 
L 198.653912 149.927516 
L 201.344637 150.364612 
L 204.035363 151.004717 
L 206.726088 151.758814 
L 209.416814 152.46971 
L 212.107539 153.241571 
L 214.798264 153.922854 
L 217.48899 154.293383 
L 220.179715 154.946592 
L 222.870441 155.506854 
L 225.561166 156.252728 
L 228.251892 156.945847 
L 230.942617 157.566488 
L 233.633343 158.227381 
L 236.324068 159.024005 
L 239.014793 159.80342 
L 241.705519 160.819872 
L 244.396244 161.450325 
L 247.08697 162.324113 
L 249.777695 163.276043 
L 252.468421 164.227973 
L 255.159146 165.185075 
L 257.849871 165.98138 
L 260.540597 166.79088 
L 263.231322 167.608358 
L 265.922048 168.413595 
L 268.612773 169.223965 
L 271.303499 170.039676 
L 273.994224 170.850115 
L 276.684949 171.660555 
L 279.375675 172.470994 
L 282.0664 173.281433 
L 284.757126 174.065611 
L 287.447851 174.909111 
L 290.138577 175.71828 
L 292.829302 176.52733 
L 295.520028 177.251251 
L 298.210753 178.142094 
L 300.901478 178.964219 
L 303.592204 179.838363 
L 306.282929 180.788293 
L 308.973655 181.832293 
L 311.66438 182.760245 
L 314.355106 183.688197 
L 317.045831 184.61615 
L 319.736556 185.551929 
L 322.427282 186.545448 
L 325.118007 187.521223 
L 327.808733 188.55856 
L 330.499458 189.595897 
L 333.190184 190.627221 
L 335.880909 191.65381 
L 335.880909 118.793311 
L 335.880909 118.793311 
L 333.190184 118.936079 
L 330.499458 119.078908 
L 327.808733 119.22575 
L 325.118007 119.381486 
L 322.427282 119.635009 
L 319.736556 119.888532 
L 317.045831 120.142054 
L 314.355106 120.395577 
L 311.66438 120.650664 
L 308.973655 120.621495 
L 306.282929 120.658498 
L 303.592204 120.921774 
L 300.901478 121.336737 
L 298.210753 121.326361 
L 295.520028 121.140079 
L 292.829302 121.09895 
L 290.138577 120.988615 
L 287.447851 120.816311 
L 284.757126 120.644018 
L 282.0664 120.497876 
L 279.375675 120.47113 
L 276.684949 120.335752 
L 273.994224 120.199186 
L 271.303499 120.079181 
L 268.612773 120.038591 
L 265.922048 119.999659 
L 263.231322 120.026132 
L 260.540597 120.090237 
L 257.849871 119.880935 
L 255.159146 119.851902 
L 252.468421 119.720312 
L 249.777695 119.653006 
L 247.08697 119.72114 
L 244.396244 119.679875 
L 241.705519 119.648269 
L 239.014793 119.665674 
L 236.324068 119.468107 
L 233.633343 119.232638 
L 230.942617 119.00176 
L 228.251892 118.667892 
L 225.561166 118.281088 
L 222.870441 117.979504 
L 220.179715 117.814924 
L 217.48899 117.588094 
L 214.798264 117.220448 
L 212.107539 116.799207 
L 209.416814 116.499761 
L 206.726088 116.1865 
L 204.035363 115.974011 
L 201.344637 115.887621 
L 198.653912 115.651441 
L 195.963186 115.507084 
L 193.272461 115.058594 
L 190.581736 114.594415 
L 187.89101 114.162259 
L 185.200285 113.714768 
L 182.509559 113.23601 
L 179.818834 112.463201 
L 177.128108 111.937081 
L 174.437383 111.172344 
L 171.746657 110.511248 
L 169.055932 109.921402 
L 166.365207 109.258139 
L 163.674481 108.38213 
L 160.983756 107.73946 
L 158.29303 106.940165 
L 155.602305 106.122823 
L 152.911579 105.339502 
L 150.220854 104.543369 
L 147.530129 103.829954 
L 144.839403 103.219975 
L 142.148678 102.60693 
L 139.457952 101.678156 
L 136.767227 100.641138 
L 134.076501 99.720176 
L 131.385776 99.060187 
L 128.695051 98.428023 
L 126.004325 97.779472 
L 123.3136 97.011142 
L 120.622874 95.979923 
L 117.932149 95.218053 
L 115.241423 94.472572 
L 112.550698 93.721072 
L 109.859972 92.970612 
L 107.169247 92.22165 
L 104.478522 91.472689 
L 101.787796 90.723727 
L 99.097071 89.975946 
L 96.406345 89.221849 
L 93.71562 88.466941 
L 91.024894 87.47508 
L 88.334169 86.597555 
L 85.643444 85.823279 
L 82.952718 84.954389 
L 80.261993 83.821617 
L 77.571267 82.922575 
L 74.880542 82.168897 
L 72.189816 81.44797 
L 69.499091 80.66452 
z
" clip-path="url(#p9fc47edb5b)" style="fill: #1f77b4; fill-opacity: 0.15"/>
   </g>
   <g id="matplotlib.axis_1">
    <g id="xtick_1">
     <g id="line2d_1">
      <defs>
       <path id="ma4247c5d5e" d="M 0 0 
L 0 3.5 
" style="stroke: #000000; stroke-width: 0.8"/>
      </defs>
      <g>
       <use xlink:href="#ma4247c5d5e" x="85.204141" y="317.93875" style="stroke: #000000; stroke-width: 0.8"/>
      </g>
     </g>
     <g id="text_1">
      <text style="font: 10px 'sans-serif'; text-anchor: middle" x="85.204141" y="332.537188" transform="rotate(-0, 85.204141, 332.537188)">−4</text>
     </g>
    </g>
    <g id="xtick_2">
     <g id="line2d_2">
      <g>
       <use xlink:href="#ma4247c5d5e" x="144.400101" y="317.93875" style="stroke: #000000; stroke-width: 0.8"/>
      </g>
     </g>
     <g id="text_2">
      <text style="font: 10px 'sans-serif'; text-anchor: middle" x="144.400101" y="332.537188" transform="rotate(-0, 144.400101, 332.537188)">−2</text>
     </g>
    </g>
    <g id="xtick_3">
     <g id="line2d_3">
      <g>
       <use xlink:href="#ma4247c5d5e" x="203.596061" y="317.93875" style="stroke: #000000; stroke-width: 0.8"/>
      </g>
     </g>
     <g id="text_3">
      <text style="font: 10px 'sans-serif'; text-anchor: middle" x="203.596061" y="332.537188" transform="rotate(-0, 203.596061, 332.537188)">0</text>
     </g>
    </g>
    <g id="xtick_4">
     <g id="line2d_4">
      <g>
       <use xlink:href="#ma4247c5d5e" x="262.79202" y="317.93875" style="stroke: #000000; stroke-width: 0.8"/>
      </g>
     </g>
     <g id="text_4">
      <text style="font: 10px 'sans-serif'; text-anchor: middle" x="262.79202" y="332.537188" transform="rotate(-0, 262.79202, 332.537188)">2</text>
     </g>
    </g>
    <g id="xtick_5">
     <g id="line2d_5">
      <g>
       <use xlink:href="#ma4247c5d5e" x="321.98798" y="317.93875" style="stroke: #000000; stroke-width: 0.8"/>
      </g>
     </g>
     <g id="text_5">
      <text style="font: 10px 'sans-serif'; text-anchor: middle" x="321.98798" y="332.537188" transform="rotate(-0, 321.98798, 332.537188)">4</text>
     </g>
    </g>
    <g id="text_6">
     <text style="font: 10px 'sans-serif'; text-anchor: middle" x="202.69" y="346.215312" transform="rotate(-0, 202.69, 346.215312)">Composite_Reward</text>
    </g>
   </g>
   <g id="matplotlib.axis_2">
    <g id="ytick_1">
     <g id="line2d_6">
      <defs>
       <path id="m040902ec9e" d="M 0 0 
L -3.5 0 
" style="stroke: #000000; stroke-width: 0.8"/>
      </defs>
      <g>
       <use xlink:href="#m040902ec9e" x="56.18" y="299.523733" style="stroke: #000000; stroke-width: 0.8"/>
      </g>
     </g>
     <g id="text_7">
      <text style="font: 10px 'sans-serif'; text-anchor: end" x="49.18" y="303.322951" transform="rotate(-0, 49.18, 303.322951)">−2.0</text>
     </g>
    </g>
    <g id="ytick_2">
     <g id="line2d_7">
      <g>
       <use xlink:href="#m040902ec9e" x="56.18" y="262.830244" style="stroke: #000000; stroke-width: 0.8"/>
      </g>
     </g>
     <g id="text_8">
      <text style="font: 10px 'sans-serif'; text-anchor: end" x="49.18" y="266.629462" transform="rotate(-0, 49.18, 266.629462)">−1.5</text>
     </g>
    </g>
    <g id="ytick_3">
     <g id="line2d_8">
      <g>
       <use xlink:href="#m040902ec9e" x="56.18" y="226.136755" style="stroke: #000000; stroke-width: 0.8"/>
      </g>
     </g>
     <g id="text_9">
      <text style="font: 10px 'sans-serif'; text-anchor: end" x="49.18" y="229.935973" transform="rotate(-0, 49.18, 229.935973)">−1.0</text>
     </g>
    </g>
    <g id="ytick_4">
     <g id="line2d_9">
      <g>
       <use xlink:href="#m040902ec9e" x="56.18" y="189.443266" style="stroke: #000000; stroke-width: 0.8"/>
      </g>
     </g>
     <g id="text_10">
      <text style="font: 10px 'sans-serif'; text-anchor: end" x="49.18" y="193.242485" transform="rotate(-0, 49.18, 193.242485)">−0.5</text>
     </g>
    </g>
    <g id="ytick_5">
     <g id="line2d_10">
      <g>
       <use xlink:href="#m040902ec9e" x="56.18" y="152.749777" style="stroke: #000000; stroke-width: 0.8"/>
      </g>
     </g>
     <g id="text_11">
      <text style="font: 10px 'sans-serif'; text-anchor: end" x="49.18" y="156.548996" transform="rotate(-0, 49.18, 156.548996)">0.0</text>
     </g>
    </g>
    <g id="ytick_6">
     <g id="line2d_11">
      <g>
       <use xlink:href="#m040902ec9e" x="56.18" y="116.056288" style="stroke: #000000; stroke-width: 0.8"/>
      </g>
     </g>
     <g id="text_12">
      <text style="font: 10px 'sans-serif'; text-anchor: end" x="49.18" y="119.855507" transform="rotate(-0, 49.18, 119.855507)">0.5</text>
     </g>
    </g>
    <g id="ytick_7">
     <g id="line2d_12">
      <g>
       <use xlink:href="#m040902ec9e" x="56.18" y="79.362799" style="stroke: #000000; stroke-width: 0.8"/>
      </g>
     </g>
     <g id="text_13">
      <text style="font: 10px 'sans-serif'; text-anchor: end" x="49.18" y="83.162018" transform="rotate(-0, 49.18, 83.162018)">1.0</text>
     </g>
    </g>
    <g id="ytick_8">
     <g id="line2d_13">
      <g>
       <use xlink:href="#m040902ec9e" x="56.18" y="42.66931" style="stroke: #000000; stroke-width: 0.8"/>
      </g>
     </g>
     <g id="text_14">
      <text style="font: 10px 'sans-serif'; text-anchor: end" x="49.18" y="46.468529" transform="rotate(-0, 49.18, 46.468529)">1.5</text>
     </g>
    </g>
    <g id="text_15">
     <text style="font: 10px 'sans-serif'; text-anchor: middle" x="18.8175" y="164.369375" transform="rotate(-90, 18.8175, 164.369375)">Conn Salience</text>
    </g>
   </g>
   <g id="line2d_14">
    <path d="M 69.499091 109.295272 
L 72.189816 109.764888 
L 74.880542 110.234505 
L 77.571267 110.704122 
L 80.261993 111.173739 
L 82.952718 111.643356 
L 85.643444 112.112973 
L 88.334169 112.582589 
L 91.024894 113.052206 
L 93.71562 113.521823 
L 96.406345 113.99144 
L 99.097071 114.461057 
L 101.787796 114.930674 
L 104.478522 115.40029 
L 107.169247 115.869907 
L 109.859972 116.339524 
L 112.550698 116.809141 
L 115.241423 117.278758 
L 117.932149 117.748375 
L 120.622874 118.217991 
L 123.3136 118.687608 
L 126.004325 119.157225 
L 128.695051 119.626842 
L 131.385776 120.096459 
L 134.076501 120.566076 
L 136.767227 121.035692 
L 139.457952 121.505309 
L 142.148678 121.974926 
L 144.839403 122.444543 
L 147.530129 122.91416 
L 150.220854 123.383777 
L 152.911579 123.853393 
L 155.602305 124.32301 
L 158.29303 124.792627 
L 160.983756 125.262244 
L 163.674481 125.731861 
L 166.365207 126.201478 
L 169.055932 126.671095 
L 171.746657 127.140711 
L 174.437383 127.610328 
L 177.128108 128.079945 
L 179.818834 128.549562 
L 182.509559 129.019179 
L 185.200285 129.488796 
L 187.89101 129.958412 
L 190.581736 130.428029 
L 193.272461 130.897646 
L 195.963186 131.367263 
L 198.653912 131.83688 
L 201.344637 132.306497 
L 204.035363 132.776113 
L 206.726088 133.24573 
L 209.416814 133.715347 
L 212.107539 134.184964 
L 214.798264 134.654581 
L 217.48899 135.124198 
L 220.179715 135.593814 
L 222.870441 136.063431 
L 225.561166 136.533048 
L 228.251892 137.002665 
L 230.942617 137.472282 
L 233.633343 137.941899 
L 236.324068 138.411515 
L 239.014793 138.881132 
L 241.705519 139.350749 
L 244.396244 139.820366 
L 247.08697 140.289983 
L 249.777695 140.7596 
L 252.468421 141.229216 
L 255.159146 141.698833 
L 257.849871 142.16845 
L 260.540597 142.638067 
L 263.231322 143.107684 
L 265.922048 143.577301 
L 268.612773 144.046917 
L 271.303499 144.516534 
L 273.994224 144.986151 
L 276.684949 145.455768 
L 279.375675 145.925385 
L 282.0664 146.395002 
L 284.757126 146.864619 
L 287.447851 147.334235 
L 290.138577 147.803852 
L 292.829302 148.273469 
L 295.520028 148.743086 
L 298.210753 149.212703 
L 300.901478 149.68232 
L 303.592204 150.151936 
L 306.282929 150.621553 
L 308.973655 151.09117 
L 311.66438 151.560787 
L 314.355106 152.030404 
L 317.045831 152.500021 
L 319.736556 152.969637 
L 322.427282 153.439254 
L 325.118007 153.908871 
L 327.808733 154.378488 
L 330.499458 154.848105 
L 333.190184 155.317722 
L 335.880909 155.787338 
" clip-path="url(#p9fc47edb5b)" style="fill: none; stroke: #1f77b4; stroke-width: 2.25; stroke-linecap: square"/>
   </g>
   <g id="patch_3">
    <path d="M 56.18 317.93875 
L 56.18 10.8 
" style="fill: none; stroke: #000000; stroke-width: 0.8; stroke-linejoin: miter; stroke-linecap: square"/>
   </g>
   <g id="patch_4">
    <path d="M 56.18 317.93875 
L 349.2 317.93875 
" style="fill: none; stroke: #000000; stroke-width: 0.8; stroke-linejoin: miter; stroke-linecap: square"/>
   </g>
  </g>
 </g>
 <defs>
  <clipPath id="p9fc47edb5b">
   <rect x="56.18" y="10.8" width="293.02" height="307.13875"/>
  </clipPath>
 </defs>
</svg>
