<?xml version="1.0" encoding="utf-8" standalone="no"?>
<!DOCTYPE svg PUBLIC "-//W3C//DTD SVG 1.1//EN"
  "http://www.w3.org/Graphics/SVG/1.1/DTD/svg11.dtd">
<svg xmlns:xlink="http://www.w3.org/1999/xlink" width="360pt" height="360pt" viewBox="0 0 360 360" xmlns="http://www.w3.org/2000/svg" version="1.1">
 <metadata>
  <rdf:RDF xmlns:dc="http://purl.org/dc/elements/1.1/" xmlns:cc="http://creativecommons.org/ns#" xmlns:rdf="http://www.w3.org/1999/02/22-rdf-syntax-ns#">
   <cc:Work>
    <dc:type rdf:resource="http://purl.org/dc/dcmitype/StillImage"/>
    <dc:date>2022-11-22T21:44:38.780684</dc:date>
    <dc:format>image/svg+xml</dc:format>
    <dc:creator>
     <cc:Agent>
      <dc:title>Matplotlib v3.5.3, https://matplotlib.org/</dc:title>
     </cc:Agent>
    </dc:creator>
   </cc:Work>
  </rdf:RDF>
 </metadata>
 <defs>
  <style type="text/css">*{stroke-linejoin: round; stroke-linecap: butt}</style>
 </defs>
 <g id="figure_1">
  <g id="patch_1">
   <path d="M 0 360 
L 360 360 
L 360 0 
L 0 0 
z
" style="fill: #ffffff"/>
  </g>
  <g id="axes_1">
   <g id="patch_2">
    <path d="M 56.18 317.93875 
L 349.2 317.93875 
L 349.2 10.8 
L 56.18 10.8 
z
" style="fill: #ffffff"/>
   </g>
   <g id="PathCollection_1">
    <defs>
     <path id="m2d4bdf3539" d="M 0 3 
C 0.795609 3 1.55874 2.683901 2.12132 2.12132 
C 2.683901 1.55874 3 0.795609 3 0 
C 3 -0.795609 2.683901 -1.55874 2.12132 -2.12132 
C 1.55874 -2.683901 0.795609 -3 0 -3 
C -0.795609 -3 -1.55874 -2.683901 -2.12132 -2.12132 
C -2.683901 -1.55874 -3 -0.795609 -3 0 
C -3 0.795609 -2.683901 1.55874 -2.12132 2.12132 
C -1.55874 2.683901 -0.795609 3 0 3 
z
" style="stroke: #1f77b4; stroke-opacity: 0.8"/>
    </defs>
    <g clip-path="url(#p021e0351f6)">
     <use xlink:href="#m2d4bdf3539" x="217.48899" y="69.791047" style="fill: #1f77b4; fill-opacity: 0.8; stroke: #1f77b4; stroke-opacity: 0.8"/>
     <use xlink:href="#m2d4bdf3539" x="217.48899" y="182.090352" style="fill: #1f77b4; fill-opacity: 0.8; stroke: #1f77b4; stroke-opacity: 0.8"/>
     <use xlink:href="#m2d4bdf3539" x="276.684949" y="303.977898" style="fill: #1f77b4; fill-opacity: 0.8; stroke: #1f77b4; stroke-opacity: 0.8"/>
     <use xlink:href="#m2d4bdf3539" x="187.89101" y="135.016703" style="fill: #1f77b4; fill-opacity: 0.8; stroke: #1f77b4; stroke-opacity: 0.8"/>
     <use xlink:href="#m2d4bdf3539" x="247.08697" y="172.926412" style="fill: #1f77b4; fill-opacity: 0.8; stroke: #1f77b4; stroke-opacity: 0.8"/>
     <use xlink:href="#m2d4bdf3539" x="158.29303" y="83.447435" style="fill: #1f77b4; fill-opacity: 0.8; stroke: #1f77b4; stroke-opacity: 0.8"/>
     <use xlink:href="#m2d4bdf3539" x="276.684949" y="98.714894" style="fill: #1f77b4; fill-opacity: 0.8; stroke: #1f77b4; stroke-opacity: 0.8"/>
     <use xlink:href="#m2d4bdf3539" x="69.499091" y="80.35136" style="fill: #1f77b4; fill-opacity: 0.8; stroke: #1f77b4; stroke-opacity: 0.8"/>
     <use xlink:href="#m2d4bdf3539" x="335.880909" y="102.574912" style="fill: #1f77b4; fill-opacity: 0.8; stroke: #1f77b4; stroke-opacity: 0.8"/>
     <use xlink:href="#m2d4bdf3539" x="99.097071" y="39.538581" style="fill: #1f77b4; fill-opacity: 0.8; stroke: #1f77b4; stroke-opacity: 0.8"/>
     <use xlink:href="#m2d4bdf3539" x="306.282929" y="134.412864" style="fill: #1f77b4; fill-opacity: 0.8; stroke: #1f77b4; stroke-opacity: 0.8"/>
     <use xlink:href="#m2d4bdf3539" x="276.684949" y="80.634015" style="fill: #1f77b4; fill-opacity: 0.8; stroke: #1f77b4; stroke-opacity: 0.8"/>
     <use xlink:href="#m2d4bdf3539" x="158.29303" y="129.700018" style="fill: #1f77b4; fill-opacity: 0.8; stroke: #1f77b4; stroke-opacity: 0.8"/>
     <use xlink:href="#m2d4bdf3539" x="276.684949" y="126.816106" style="fill: #1f77b4; fill-opacity: 0.8; stroke: #1f77b4; stroke-opacity: 0.8"/>
     <use xlink:href="#m2d4bdf3539" x="128.695051" y="163.921346" style="fill: #1f77b4; fill-opacity: 0.8; stroke: #1f77b4; stroke-opacity: 0.8"/>
     <use xlink:href="#m2d4bdf3539" x="335.880909" y="137.369843" style="fill: #1f77b4; fill-opacity: 0.8; stroke: #1f77b4; stroke-opacity: 0.8"/>
     <use xlink:href="#m2d4bdf3539" x="99.097071" y="55.202539" style="fill: #1f77b4; fill-opacity: 0.8; stroke: #1f77b4; stroke-opacity: 0.8"/>
     <use xlink:href="#m2d4bdf3539" x="306.282929" y="140.507306" style="fill: #1f77b4; fill-opacity: 0.8; stroke: #1f77b4; stroke-opacity: 0.8"/>
     <use xlink:href="#m2d4bdf3539" x="276.684949" y="70.656259" style="fill: #1f77b4; fill-opacity: 0.8; stroke: #1f77b4; stroke-opacity: 0.8"/>
     <use xlink:href="#m2d4bdf3539" x="247.08697" y="190.670977" style="fill: #1f77b4; fill-opacity: 0.8; stroke: #1f77b4; stroke-opacity: 0.8"/>
     <use xlink:href="#m2d4bdf3539" x="158.29303" y="83.48063" style="fill: #1f77b4; fill-opacity: 0.8; stroke: #1f77b4; stroke-opacity: 0.8"/>
     <use xlink:href="#m2d4bdf3539" x="128.695051" y="83.762842" style="fill: #1f77b4; fill-opacity: 0.8; stroke: #1f77b4; stroke-opacity: 0.8"/>
     <use xlink:href="#m2d4bdf3539" x="335.880909" y="196.403631" style="fill: #1f77b4; fill-opacity: 0.8; stroke: #1f77b4; stroke-opacity: 0.8"/>
     <use xlink:href="#m2d4bdf3539" x="187.89101" y="57.749229" style="fill: #1f77b4; fill-opacity: 0.8; stroke: #1f77b4; stroke-opacity: 0.8"/>
     <use xlink:href="#m2d4bdf3539" x="128.695051" y="100.556164" style="fill: #1f77b4; fill-opacity: 0.8; stroke: #1f77b4; stroke-opacity: 0.8"/>
     <use xlink:href="#m2d4bdf3539" x="69.499091" y="295.318078" style="fill: #1f77b4; fill-opacity: 0.8; stroke: #1f77b4; stroke-opacity: 0.8"/>
     <use xlink:href="#m2d4bdf3539" x="128.695051" y="137.981593" style="fill: #1f77b4; fill-opacity: 0.8; stroke: #1f77b4; stroke-opacity: 0.8"/>
     <use xlink:href="#m2d4bdf3539" x="335.880909" y="100.808926" style="fill: #1f77b4; fill-opacity: 0.8; stroke: #1f77b4; stroke-opacity: 0.8"/>
     <use xlink:href="#m2d4bdf3539" x="217.48899" y="24.760852" style="fill: #1f77b4; fill-opacity: 0.8; stroke: #1f77b4; stroke-opacity: 0.8"/>
     <use xlink:href="#m2d4bdf3539" x="247.08697" y="98.447315" style="fill: #1f77b4; fill-opacity: 0.8; stroke: #1f77b4; stroke-opacity: 0.8"/>
     <use xlink:href="#m2d4bdf3539" x="335.880909" y="37.209427" style="fill: #1f77b4; fill-opacity: 0.8; stroke: #1f77b4; stroke-opacity: 0.8"/>
     <use xlink:href="#m2d4bdf3539" x="158.29303" y="161.587939" style="fill: #1f77b4; fill-opacity: 0.8; stroke: #1f77b4; stroke-opacity: 0.8"/>
     <use xlink:href="#m2d4bdf3539" x="217.48899" y="126.178623" style="fill: #1f77b4; fill-opacity: 0.8; stroke: #1f77b4; stroke-opacity: 0.8"/>
     <use xlink:href="#m2d4bdf3539" x="99.097071" y="40.365153" style="fill: #1f77b4; fill-opacity: 0.8; stroke: #1f77b4; stroke-opacity: 0.8"/>
     <use xlink:href="#m2d4bdf3539" x="128.695051" y="165.106051" style="fill: #1f77b4; fill-opacity: 0.8; stroke: #1f77b4; stroke-opacity: 0.8"/>
     <use xlink:href="#m2d4bdf3539" x="69.499091" y="147.159065" style="fill: #1f77b4; fill-opacity: 0.8; stroke: #1f77b4; stroke-opacity: 0.8"/>
     <use xlink:href="#m2d4bdf3539" x="306.282929" y="93.604298" style="fill: #1f77b4; fill-opacity: 0.8; stroke: #1f77b4; stroke-opacity: 0.8"/>
     <use xlink:href="#m2d4bdf3539" x="69.499091" y="130.465037" style="fill: #1f77b4; fill-opacity: 0.8; stroke: #1f77b4; stroke-opacity: 0.8"/>
     <use xlink:href="#m2d4bdf3539" x="99.097071" y="144.084283" style="fill: #1f77b4; fill-opacity: 0.8; stroke: #1f77b4; stroke-opacity: 0.8"/>
     <use xlink:href="#m2d4bdf3539" x="187.89101" y="41.824304" style="fill: #1f77b4; fill-opacity: 0.8; stroke: #1f77b4; stroke-opacity: 0.8"/>
     <use xlink:href="#m2d4bdf3539" x="306.282929" y="129.919755" style="fill: #1f77b4; fill-opacity: 0.8; stroke: #1f77b4; stroke-opacity: 0.8"/>
     <use xlink:href="#m2d4bdf3539" x="247.08697" y="63.923996" style="fill: #1f77b4; fill-opacity: 0.8; stroke: #1f77b4; stroke-opacity: 0.8"/>
     <use xlink:href="#m2d4bdf3539" x="99.097071" y="219.5765" style="fill: #1f77b4; fill-opacity: 0.8; stroke: #1f77b4; stroke-opacity: 0.8"/>
     <use xlink:href="#m2d4bdf3539" x="158.29303" y="158.959571" style="fill: #1f77b4; fill-opacity: 0.8; stroke: #1f77b4; stroke-opacity: 0.8"/>
     <use xlink:href="#m2d4bdf3539" x="99.097071" y="149.223063" style="fill: #1f77b4; fill-opacity: 0.8; stroke: #1f77b4; stroke-opacity: 0.8"/>
     <use xlink:href="#m2d4bdf3539" x="217.48899" y="130.24637" style="fill: #1f77b4; fill-opacity: 0.8; stroke: #1f77b4; stroke-opacity: 0.8"/>
     <use xlink:href="#m2d4bdf3539" x="247.08697" y="104.671033" style="fill: #1f77b4; fill-opacity: 0.8; stroke: #1f77b4; stroke-opacity: 0.8"/>
    </g>
   </g>
   <g id="PolyCollection_1">
    <path d="M 69.499091 93.170427 
L 69.499091 162.439448 
L 72.189816 161.867131 
L 74.880542 161.383252 
L 77.571267 160.611623 
L 80.261993 159.685429 
L 82.952718 158.957281 
L 85.643444 158.260847 
L 88.334169 157.564414 
L 91.024894 156.881529 
L 93.71562 156.24353 
L 96.406345 155.87283 
L 99.097071 155.389828 
L 101.787796 154.731583 
L 104.478522 154.235606 
L 107.169247 153.829715 
L 109.859972 153.416353 
L 112.550698 153.009479 
L 115.241423 152.357719 
L 117.932149 151.612417 
L 120.622874 150.867114 
L 123.3136 150.190543 
L 126.004325 149.548505 
L 128.695051 148.906311 
L 131.385776 148.349896 
L 134.076501 147.944455 
L 136.767227 147.542037 
L 139.457952 146.961104 
L 142.148678 146.74509 
L 144.839403 146.134435 
L 147.530129 145.639013 
L 150.220854 145.331175 
L 152.911579 145.146932 
L 155.602305 145.012689 
L 158.29303 144.994567 
L 160.983756 144.539009 
L 163.674481 143.799917 
L 166.365207 143.256765 
L 169.055932 142.952532 
L 171.746657 142.365511 
L 174.437383 141.961258 
L 177.128108 141.592321 
L 179.818834 141.317811 
L 182.509559 141.196529 
L 185.200285 140.738975 
L 187.89101 140.439796 
L 190.581736 140.073027 
L 193.272461 139.689314 
L 195.963186 139.389024 
L 198.653912 139.087207 
L 201.344637 139.056857 
L 204.035363 139.045987 
L 206.726088 138.912311 
L 209.416814 138.687329 
L 212.107539 138.750221 
L 214.798264 138.909009 
L 217.48899 138.911709 
L 220.179715 138.844792 
L 222.870441 138.801249 
L 225.561166 138.786012 
L 228.251892 138.502683 
L 230.942617 138.843112 
L 233.633343 139.348844 
L 236.324068 139.429932 
L 239.014793 139.501408 
L 241.705519 139.588984 
L 244.396244 139.516619 
L 247.08697 139.447347 
L 249.777695 139.708922 
L 252.468421 139.88136 
L 255.159146 140.18365 
L 257.849871 140.434784 
L 260.540597 140.351839 
L 263.231322 140.181381 
L 265.922048 140.259319 
L 268.612773 140.346124 
L 271.303499 140.429577 
L 273.994224 140.500858 
L 276.684949 140.851961 
L 279.375675 141.258465 
L 282.0664 141.288828 
L 284.757126 141.376491 
L 287.447851 141.755092 
L 290.138577 141.960996 
L 292.829302 142.028155 
L 295.520028 142.39502 
L 298.210753 142.761884 
L 300.901478 143.127515 
L 303.592204 143.482903 
L 306.282929 143.499297 
L 308.973655 143.831852 
L 311.66438 144.328176 
L 314.355106 144.824501 
L 317.045831 145.312768 
L 319.736556 145.682437 
L 322.427282 146.052106 
L 325.118007 146.421776 
L 327.808733 146.791445 
L 330.499458 147.216993 
L 333.190184 147.712322 
L 335.880909 148.205183 
L 335.880909 85.437339 
L 335.880909 85.437339 
L 333.190184 86.206069 
L 330.499458 86.780451 
L 327.808733 87.313472 
L 325.118007 87.735816 
L 322.427282 88.313423 
L 319.736556 88.926145 
L 317.045831 89.566654 
L 314.355106 89.929873 
L 311.66438 90.293 
L 308.973655 90.815866 
L 306.282929 91.552582 
L 303.592204 92.133196 
L 300.901478 92.651317 
L 298.210753 93.095421 
L 295.520028 93.673222 
L 292.829302 93.835099 
L 290.138577 94.265644 
L 287.447851 94.911226 
L 284.757126 95.403973 
L 282.0664 95.813547 
L 279.375675 96.226074 
L 276.684949 96.641421 
L 273.994224 97.163105 
L 271.303499 97.582629 
L 268.612773 97.924001 
L 265.922048 98.682721 
L 263.231322 99.278833 
L 260.540597 99.786723 
L 257.849871 100.325836 
L 255.159146 100.495579 
L 252.468421 100.607819 
L 249.777695 101.086264 
L 247.08697 101.504409 
L 244.396244 102.027778 
L 241.705519 102.382141 
L 239.014793 102.79432 
L 236.324068 102.826636 
L 233.633343 103.053221 
L 230.942617 103.229942 
L 228.251892 103.354849 
L 225.561166 103.376989 
L 222.870441 103.566612 
L 220.179715 103.774096 
L 217.48899 103.904452 
L 214.798264 104.339446 
L 212.107539 104.873704 
L 209.416814 105.180703 
L 206.726088 105.086962 
L 204.035363 104.993222 
L 201.344637 105.073113 
L 198.653912 105.18055 
L 195.963186 105.453859 
L 193.272461 105.417353 
L 190.581736 105.485097 
L 187.89101 105.701059 
L 185.200285 105.580608 
L 182.509559 105.544978 
L 179.818834 105.407952 
L 177.128108 105.049442 
L 174.437383 105.141238 
L 171.746657 104.935078 
L 169.055932 104.733103 
L 166.365207 104.726216 
L 163.674481 104.72695 
L 160.983756 104.769004 
L 158.29303 104.491275 
L 155.602305 104.230809 
L 152.911579 104.040104 
L 150.220854 103.81911 
L 147.530129 103.588921 
L 144.839403 103.249541 
L 142.148678 103.006391 
L 139.457952 102.790043 
L 136.767227 102.466294 
L 134.076501 102.315436 
L 131.385776 101.900622 
L 128.695051 101.449392 
L 126.004325 100.998162 
L 123.3136 100.546932 
L 120.622874 100.097526 
L 117.932149 99.943293 
L 115.241423 99.386471 
L 112.550698 98.816683 
L 109.859972 98.290782 
L 107.169247 97.839552 
L 104.478522 97.41496 
L 101.787796 96.994017 
L 99.097071 96.573818 
L 96.406345 96.180759 
L 93.71562 95.787913 
L 91.024894 95.395067 
L 88.334169 95.003815 
L 85.643444 94.858046 
L 82.952718 94.760914 
L 80.261993 94.663782 
L 77.571267 94.457586 
L 74.880542 94.028533 
L 72.189816 93.59948 
L 69.499091 93.170427 
z
" clip-path="url(#p021e0351f6)" style="fill: #1f77b4; fill-opacity: 0.15"/>
   </g>
   <g id="matplotlib.axis_1">
    <g id="xtick_1">
     <g id="line2d_1">
      <defs>
       <path id="m0767e482e1" d="M 0 0 
L 0 3.5 
" style="stroke: #000000; stroke-width: 0.8"/>
      </defs>
      <g>
       <use xlink:href="#m0767e482e1" x="85.204141" y="317.93875" style="stroke: #000000; stroke-width: 0.8"/>
      </g>
     </g>
     <g id="text_1">
      <text style="font: 10px 'sans-serif'; text-anchor: middle" x="85.204141" y="332.537188" transform="rotate(-0, 85.204141, 332.537188)">−4</text>
     </g>
    </g>
    <g id="xtick_2">
     <g id="line2d_2">
      <g>
       <use xlink:href="#m0767e482e1" x="144.400101" y="317.93875" style="stroke: #000000; stroke-width: 0.8"/>
      </g>
     </g>
     <g id="text_2">
      <text style="font: 10px 'sans-serif'; text-anchor: middle" x="144.400101" y="332.537188" transform="rotate(-0, 144.400101, 332.537188)">−2</text>
     </g>
    </g>
    <g id="xtick_3">
     <g id="line2d_3">
      <g>
       <use xlink:href="#m0767e482e1" x="203.596061" y="317.93875" style="stroke: #000000; stroke-width: 0.8"/>
      </g>
     </g>
     <g id="text_3">
      <text style="font: 10px 'sans-serif'; text-anchor: middle" x="203.596061" y="332.537188" transform="rotate(-0, 203.596061, 332.537188)">0</text>
     </g>
    </g>
    <g id="xtick_4">
     <g id="line2d_4">
      <g>
       <use xlink:href="#m0767e482e1" x="262.79202" y="317.93875" style="stroke: #000000; stroke-width: 0.8"/>
      </g>
     </g>
     <g id="text_4">
      <text style="font: 10px 'sans-serif'; text-anchor: middle" x="262.79202" y="332.537188" transform="rotate(-0, 262.79202, 332.537188)">2</text>
     </g>
    </g>
    <g id="xtick_5">
     <g id="line2d_5">
      <g>
       <use xlink:href="#m0767e482e1" x="321.98798" y="317.93875" style="stroke: #000000; stroke-width: 0.8"/>
      </g>
     </g>
     <g id="text_5">
      <text style="font: 10px 'sans-serif'; text-anchor: middle" x="321.98798" y="332.537188" transform="rotate(-0, 321.98798, 332.537188)">4</text>
     </g>
    </g>
    <g id="text_6">
     <text style="font: 10px 'sans-serif'; text-anchor: middle" x="202.69" y="346.215312" transform="rotate(-0, 202.69, 346.215312)">Composite_Reward</text>
    </g>
   </g>
   <g id="matplotlib.axis_2">
    <g id="ytick_1">
     <g id="line2d_6">
      <defs>
       <path id="me7ceae9a8b" d="M 0 0 
L -3.5 0 
" style="stroke: #000000; stroke-width: 0.8"/>
      </defs>
      <g>
       <use xlink:href="#me7ceae9a8b" x="56.18" y="285.796334" style="stroke: #000000; stroke-width: 0.8"/>
      </g>
     </g>
     <g id="text_7">
      <text style="font: 10px 'sans-serif'; text-anchor: end" x="49.18" y="289.595552" transform="rotate(-0, 49.18, 289.595552)">−1.5</text>
     </g>
    </g>
    <g id="ytick_2">
     <g id="line2d_7">
      <g>
       <use xlink:href="#me7ceae9a8b" x="56.18" y="229.478136" style="stroke: #000000; stroke-width: 0.8"/>
      </g>
     </g>
     <g id="text_8">
      <text style="font: 10px 'sans-serif'; text-anchor: end" x="49.18" y="233.277355" transform="rotate(-0, 49.18, 233.277355)">−1.0</text>
     </g>
    </g>
    <g id="ytick_3">
     <g id="line2d_8">
      <g>
       <use xlink:href="#me7ceae9a8b" x="56.18" y="173.159939" style="stroke: #000000; stroke-width: 0.8"/>
      </g>
     </g>
     <g id="text_9">
      <text style="font: 10px 'sans-serif'; text-anchor: end" x="49.18" y="176.959158" transform="rotate(-0, 49.18, 176.959158)">−0.5</text>
     </g>
    </g>
    <g id="ytick_4">
     <g id="line2d_9">
      <g>
       <use xlink:href="#me7ceae9a8b" x="56.18" y="116.841742" style="stroke: #000000; stroke-width: 0.8"/>
      </g>
     </g>
     <g id="text_10">
      <text style="font: 10px 'sans-serif'; text-anchor: end" x="49.18" y="120.640961" transform="rotate(-0, 49.18, 120.640961)">0.0</text>
     </g>
    </g>
    <g id="ytick_5">
     <g id="line2d_10">
      <g>
       <use xlink:href="#me7ceae9a8b" x="56.18" y="60.523545" style="stroke: #000000; stroke-width: 0.8"/>
      </g>
     </g>
     <g id="text_11">
      <text style="font: 10px 'sans-serif'; text-anchor: end" x="49.18" y="64.322764" transform="rotate(-0, 49.18, 64.322764)">0.5</text>
     </g>
    </g>
    <g id="text_12">
     <text style="font: 10px 'sans-serif'; text-anchor: middle" x="18.8175" y="164.369375" transform="rotate(-90, 18.8175, 164.369375)">Conn Gain&gt;Neut</text>
    </g>
   </g>
   <g id="line2d_11">
    <path d="M 69.499091 126.903901 
L 72.189816 126.798798 
L 74.880542 126.693695 
L 77.571267 126.588591 
L 80.261993 126.483488 
L 82.952718 126.378384 
L 85.643444 126.273281 
L 88.334169 126.168178 
L 91.024894 126.063074 
L 93.71562 125.957971 
L 96.406345 125.852868 
L 99.097071 125.747764 
L 101.787796 125.642661 
L 104.478522 125.537558 
L 107.169247 125.432454 
L 109.859972 125.327351 
L 112.550698 125.222247 
L 115.241423 125.117144 
L 117.932149 125.012041 
L 120.622874 124.906937 
L 123.3136 124.801834 
L 126.004325 124.696731 
L 128.695051 124.591627 
L 131.385776 124.486524 
L 134.076501 124.381421 
L 136.767227 124.276317 
L 139.457952 124.171214 
L 142.148678 124.066111 
L 144.839403 123.961007 
L 147.530129 123.855904 
L 150.220854 123.7508 
L 152.911579 123.645697 
L 155.602305 123.540594 
L 158.29303 123.43549 
L 160.983756 123.330387 
L 163.674481 123.225284 
L 166.365207 123.12018 
L 169.055932 123.015077 
L 171.746657 122.909974 
L 174.437383 122.80487 
L 177.128108 122.699767 
L 179.818834 122.594663 
L 182.509559 122.48956 
L 185.200285 122.384457 
L 187.89101 122.279353 
L 190.581736 122.17425 
L 193.272461 122.069147 
L 195.963186 121.964043 
L 198.653912 121.85894 
L 201.344637 121.753837 
L 204.035363 121.648733 
L 206.726088 121.54363 
L 209.416814 121.438527 
L 212.107539 121.333423 
L 214.798264 121.22832 
L 217.48899 121.123216 
L 220.179715 121.018113 
L 222.870441 120.91301 
L 225.561166 120.807906 
L 228.251892 120.702803 
L 230.942617 120.5977 
L 233.633343 120.492596 
L 236.324068 120.387493 
L 239.014793 120.28239 
L 241.705519 120.177286 
L 244.396244 120.072183 
L 247.08697 119.967079 
L 249.777695 119.861976 
L 252.468421 119.756873 
L 255.159146 119.651769 
L 257.849871 119.546666 
L 260.540597 119.441563 
L 263.231322 119.336459 
L 265.922048 119.231356 
L 268.612773 119.126253 
L 271.303499 119.021149 
L 273.994224 118.916046 
L 276.684949 118.810942 
L 279.375675 118.705839 
L 282.0664 118.600736 
L 284.757126 118.495632 
L 287.447851 118.390529 
L 290.138577 118.285426 
L 292.829302 118.180322 
L 295.520028 118.075219 
L 298.210753 117.970116 
L 300.901478 117.865012 
L 303.592204 117.759909 
L 306.282929 117.654806 
L 308.973655 117.549702 
L 311.66438 117.444599 
L 314.355106 117.339495 
L 317.045831 117.234392 
L 319.736556 117.129289 
L 322.427282 117.024185 
L 325.118007 116.919082 
L 327.808733 116.813979 
L 330.499458 116.708875 
L 333.190184 116.603772 
L 335.880909 116.498669 
" clip-path="url(#p021e0351f6)" style="fill: none; stroke: #1f77b4; stroke-width: 2.25; stroke-linecap: square"/>
   </g>
   <g id="patch_3">
    <path d="M 56.18 317.93875 
L 56.18 10.8 
" style="fill: none; stroke: #000000; stroke-width: 0.8; stroke-linejoin: miter; stroke-linecap: square"/>
   </g>
   <g id="patch_4">
    <path d="M 56.18 317.93875 
L 349.2 317.93875 
" style="fill: none; stroke: #000000; stroke-width: 0.8; stroke-linejoin: miter; stroke-linecap: square"/>
   </g>
  </g>
 </g>
 <defs>
  <clipPath id="p021e0351f6">
   <rect x="56.18" y="10.8" width="293.02" height="307.13875"/>
  </clipPath>
 </defs>
</svg>
