<?xml version="1.0" encoding="utf-8" standalone="no"?>
<!DOCTYPE svg PUBLIC "-//W3C//DTD SVG 1.1//EN"
  "http://www.w3.org/Graphics/SVG/1.1/DTD/svg11.dtd">
<svg xmlns:xlink="http://www.w3.org/1999/xlink" width="360pt" height="360pt" viewBox="0 0 360 360" xmlns="http://www.w3.org/2000/svg" version="1.1">
 <metadata>
  <rdf:RDF xmlns:dc="http://purl.org/dc/elements/1.1/" xmlns:cc="http://creativecommons.org/ns#" xmlns:rdf="http://www.w3.org/1999/02/22-rdf-syntax-ns#">
   <cc:Work>
    <dc:type rdf:resource="http://purl.org/dc/dcmitype/StillImage"/>
    <dc:date>2022-11-22T21:42:40.441401</dc:date>
    <dc:format>image/svg+xml</dc:format>
    <dc:creator>
     <cc:Agent>
      <dc:title>Matplotlib v3.5.3, https://matplotlib.org/</dc:title>
     </cc:Agent>
    </dc:creator>
   </cc:Work>
  </rdf:RDF>
 </metadata>
 <defs>
  <style type="text/css">*{stroke-linejoin: round; stroke-linecap: butt}</style>
 </defs>
 <g id="figure_1">
  <g id="patch_1">
   <path d="M 0 360 
L 360 360 
L 360 0 
L 0 0 
z
" style="fill: #ffffff"/>
  </g>
  <g id="axes_1">
   <g id="patch_2">
    <path d="M 56.18 317.93875 
L 349.2 317.93875 
L 349.2 10.8 
L 56.18 10.8 
z
" style="fill: #ffffff"/>
   </g>
   <g id="PathCollection_1">
    <defs>
     <path id="m05463f8c13" d="M 0 3 
C 0.795609 3 1.55874 2.683901 2.12132 2.12132 
C 2.683901 1.55874 3 0.795609 3 0 
C 3 -0.795609 2.683901 -1.55874 2.12132 -2.12132 
C 1.55874 -2.683901 0.795609 -3 0 -3 
C -0.795609 -3 -1.55874 -2.683901 -2.12132 -2.12132 
C -2.683901 -1.55874 -3 -0.795609 -3 0 
C -3 0.795609 -2.683901 1.55874 -2.12132 2.12132 
C -1.55874 2.683901 -0.795609 3 0 3 
z
" style="stroke: #1f77b4; stroke-opacity: 0.8"/>
    </defs>
    <g clip-path="url(#pc0bf2cc8e8)">
     <use xlink:href="#m05463f8c13" x="217.48899" y="191.672864" style="fill: #1f77b4; fill-opacity: 0.8; stroke: #1f77b4; stroke-opacity: 0.8"/>
     <use xlink:href="#m05463f8c13" x="217.48899" y="170.230323" style="fill: #1f77b4; fill-opacity: 0.8; stroke: #1f77b4; stroke-opacity: 0.8"/>
     <use xlink:href="#m05463f8c13" x="276.684949" y="260.883051" style="fill: #1f77b4; fill-opacity: 0.8; stroke: #1f77b4; stroke-opacity: 0.8"/>
     <use xlink:href="#m05463f8c13" x="187.89101" y="140.459366" style="fill: #1f77b4; fill-opacity: 0.8; stroke: #1f77b4; stroke-opacity: 0.8"/>
     <use xlink:href="#m05463f8c13" x="247.08697" y="62.349786" style="fill: #1f77b4; fill-opacity: 0.8; stroke: #1f77b4; stroke-opacity: 0.8"/>
     <use xlink:href="#m05463f8c13" x="158.29303" y="133.736121" style="fill: #1f77b4; fill-opacity: 0.8; stroke: #1f77b4; stroke-opacity: 0.8"/>
     <use xlink:href="#m05463f8c13" x="276.684949" y="132.278898" style="fill: #1f77b4; fill-opacity: 0.8; stroke: #1f77b4; stroke-opacity: 0.8"/>
     <use xlink:href="#m05463f8c13" x="69.499091" y="24.760852" style="fill: #1f77b4; fill-opacity: 0.8; stroke: #1f77b4; stroke-opacity: 0.8"/>
     <use xlink:href="#m05463f8c13" x="335.880909" y="157.855256" style="fill: #1f77b4; fill-opacity: 0.8; stroke: #1f77b4; stroke-opacity: 0.8"/>
     <use xlink:href="#m05463f8c13" x="99.097071" y="114.17265" style="fill: #1f77b4; fill-opacity: 0.8; stroke: #1f77b4; stroke-opacity: 0.8"/>
     <use xlink:href="#m05463f8c13" x="306.282929" y="147.484003" style="fill: #1f77b4; fill-opacity: 0.8; stroke: #1f77b4; stroke-opacity: 0.8"/>
     <use xlink:href="#m05463f8c13" x="276.684949" y="145.318407" style="fill: #1f77b4; fill-opacity: 0.8; stroke: #1f77b4; stroke-opacity: 0.8"/>
     <use xlink:href="#m05463f8c13" x="158.29303" y="234.33377" style="fill: #1f77b4; fill-opacity: 0.8; stroke: #1f77b4; stroke-opacity: 0.8"/>
     <use xlink:href="#m05463f8c13" x="276.684949" y="165.346143" style="fill: #1f77b4; fill-opacity: 0.8; stroke: #1f77b4; stroke-opacity: 0.8"/>
     <use xlink:href="#m05463f8c13" x="128.695051" y="144.429449" style="fill: #1f77b4; fill-opacity: 0.8; stroke: #1f77b4; stroke-opacity: 0.8"/>
     <use xlink:href="#m05463f8c13" x="335.880909" y="189.424844" style="fill: #1f77b4; fill-opacity: 0.8; stroke: #1f77b4; stroke-opacity: 0.8"/>
     <use xlink:href="#m05463f8c13" x="99.097071" y="148.553155" style="fill: #1f77b4; fill-opacity: 0.8; stroke: #1f77b4; stroke-opacity: 0.8"/>
     <use xlink:href="#m05463f8c13" x="306.282929" y="227.098888" style="fill: #1f77b4; fill-opacity: 0.8; stroke: #1f77b4; stroke-opacity: 0.8"/>
     <use xlink:href="#m05463f8c13" x="276.684949" y="139.761972" style="fill: #1f77b4; fill-opacity: 0.8; stroke: #1f77b4; stroke-opacity: 0.8"/>
     <use xlink:href="#m05463f8c13" x="247.08697" y="219.270437" style="fill: #1f77b4; fill-opacity: 0.8; stroke: #1f77b4; stroke-opacity: 0.8"/>
     <use xlink:href="#m05463f8c13" x="158.29303" y="179.218545" style="fill: #1f77b4; fill-opacity: 0.8; stroke: #1f77b4; stroke-opacity: 0.8"/>
     <use xlink:href="#m05463f8c13" x="128.695051" y="155.260214" style="fill: #1f77b4; fill-opacity: 0.8; stroke: #1f77b4; stroke-opacity: 0.8"/>
     <use xlink:href="#m05463f8c13" x="335.880909" y="209.837377" style="fill: #1f77b4; fill-opacity: 0.8; stroke: #1f77b4; stroke-opacity: 0.8"/>
     <use xlink:href="#m05463f8c13" x="187.89101" y="156.663073" style="fill: #1f77b4; fill-opacity: 0.8; stroke: #1f77b4; stroke-opacity: 0.8"/>
     <use xlink:href="#m05463f8c13" x="128.695051" y="140.781663" style="fill: #1f77b4; fill-opacity: 0.8; stroke: #1f77b4; stroke-opacity: 0.8"/>
     <use xlink:href="#m05463f8c13" x="69.499091" y="303.977898" style="fill: #1f77b4; fill-opacity: 0.8; stroke: #1f77b4; stroke-opacity: 0.8"/>
     <use xlink:href="#m05463f8c13" x="128.695051" y="222.939254" style="fill: #1f77b4; fill-opacity: 0.8; stroke: #1f77b4; stroke-opacity: 0.8"/>
     <use xlink:href="#m05463f8c13" x="335.880909" y="222.495146" style="fill: #1f77b4; fill-opacity: 0.8; stroke: #1f77b4; stroke-opacity: 0.8"/>
     <use xlink:href="#m05463f8c13" x="217.48899" y="204.380459" style="fill: #1f77b4; fill-opacity: 0.8; stroke: #1f77b4; stroke-opacity: 0.8"/>
     <use xlink:href="#m05463f8c13" x="247.08697" y="84.158267" style="fill: #1f77b4; fill-opacity: 0.8; stroke: #1f77b4; stroke-opacity: 0.8"/>
     <use xlink:href="#m05463f8c13" x="335.880909" y="88.333241" style="fill: #1f77b4; fill-opacity: 0.8; stroke: #1f77b4; stroke-opacity: 0.8"/>
     <use xlink:href="#m05463f8c13" x="158.29303" y="211.050468" style="fill: #1f77b4; fill-opacity: 0.8; stroke: #1f77b4; stroke-opacity: 0.8"/>
     <use xlink:href="#m05463f8c13" x="217.48899" y="141.182173" style="fill: #1f77b4; fill-opacity: 0.8; stroke: #1f77b4; stroke-opacity: 0.8"/>
     <use xlink:href="#m05463f8c13" x="99.097071" y="105.506583" style="fill: #1f77b4; fill-opacity: 0.8; stroke: #1f77b4; stroke-opacity: 0.8"/>
     <use xlink:href="#m05463f8c13" x="128.695051" y="89.801889" style="fill: #1f77b4; fill-opacity: 0.8; stroke: #1f77b4; stroke-opacity: 0.8"/>
     <use xlink:href="#m05463f8c13" x="69.499091" y="179.418672" style="fill: #1f77b4; fill-opacity: 0.8; stroke: #1f77b4; stroke-opacity: 0.8"/>
     <use xlink:href="#m05463f8c13" x="306.282929" y="158.578011" style="fill: #1f77b4; fill-opacity: 0.8; stroke: #1f77b4; stroke-opacity: 0.8"/>
     <use xlink:href="#m05463f8c13" x="69.499091" y="184.809071" style="fill: #1f77b4; fill-opacity: 0.8; stroke: #1f77b4; stroke-opacity: 0.8"/>
     <use xlink:href="#m05463f8c13" x="99.097071" y="153.866411" style="fill: #1f77b4; fill-opacity: 0.8; stroke: #1f77b4; stroke-opacity: 0.8"/>
     <use xlink:href="#m05463f8c13" x="187.89101" y="154.069866" style="fill: #1f77b4; fill-opacity: 0.8; stroke: #1f77b4; stroke-opacity: 0.8"/>
     <use xlink:href="#m05463f8c13" x="306.282929" y="111.80423" style="fill: #1f77b4; fill-opacity: 0.8; stroke: #1f77b4; stroke-opacity: 0.8"/>
     <use xlink:href="#m05463f8c13" x="247.08697" y="101.226314" style="fill: #1f77b4; fill-opacity: 0.8; stroke: #1f77b4; stroke-opacity: 0.8"/>
     <use xlink:href="#m05463f8c13" x="99.097071" y="110.684948" style="fill: #1f77b4; fill-opacity: 0.8; stroke: #1f77b4; stroke-opacity: 0.8"/>
     <use xlink:href="#m05463f8c13" x="158.29303" y="195.349828" style="fill: #1f77b4; fill-opacity: 0.8; stroke: #1f77b4; stroke-opacity: 0.8"/>
     <use xlink:href="#m05463f8c13" x="99.097071" y="147.889963" style="fill: #1f77b4; fill-opacity: 0.8; stroke: #1f77b4; stroke-opacity: 0.8"/>
     <use xlink:href="#m05463f8c13" x="217.48899" y="195.840945" style="fill: #1f77b4; fill-opacity: 0.8; stroke: #1f77b4; stroke-opacity: 0.8"/>
     <use xlink:href="#m05463f8c13" x="247.08697" y="150.008757" style="fill: #1f77b4; fill-opacity: 0.8; stroke: #1f77b4; stroke-opacity: 0.8"/>
    </g>
   </g>
   <g id="PolyCollection_1">
    <path d="M 69.499091 122.234097 
L 69.499091 186.493868 
L 72.189816 186.029104 
L 74.880542 185.694156 
L 77.571267 185.36877 
L 80.261993 185.043384 
L 82.952718 184.717998 
L 85.643444 184.392612 
L 88.334169 184.067226 
L 91.024894 183.74184 
L 93.71562 183.407362 
L 96.406345 183.056366 
L 99.097071 182.705371 
L 101.787796 182.354375 
L 104.478522 181.989317 
L 107.169247 181.589975 
L 109.859972 181.29939 
L 112.550698 180.947433 
L 115.241423 180.601664 
L 117.932149 180.246298 
L 120.622874 179.897407 
L 123.3136 179.760211 
L 126.004325 179.524385 
L 128.695051 179.206081 
L 131.385776 178.885318 
L 134.076501 178.562784 
L 136.767227 178.230099 
L 139.457952 177.896774 
L 142.148678 177.57621 
L 144.839403 177.312385 
L 147.530129 177.053645 
L 150.220854 176.892342 
L 152.911579 176.724201 
L 155.602305 176.668663 
L 158.29303 176.204783 
L 160.983756 176.214951 
L 163.674481 176.062495 
L 166.365207 175.539253 
L 169.055932 175.318128 
L 171.746657 174.857274 
L 174.437383 174.828108 
L 177.128108 174.623439 
L 179.818834 174.619336 
L 182.509559 174.569494 
L 185.200285 174.668515 
L 187.89101 174.804121 
L 190.581736 174.699635 
L 193.272461 174.557087 
L 195.963186 174.401885 
L 198.653912 174.259173 
L 201.344637 174.459877 
L 204.035363 174.347857 
L 206.726088 174.320147 
L 209.416814 174.466987 
L 212.107539 174.6119 
L 214.798264 174.760986 
L 217.48899 174.796599 
L 220.179715 175.06632 
L 222.870441 175.30286 
L 225.561166 175.608892 
L 228.251892 176.003177 
L 230.942617 176.151183 
L 233.633343 176.416616 
L 236.324068 176.584022 
L 239.014793 176.720685 
L 241.705519 176.862403 
L 244.396244 177.439979 
L 247.08697 177.767669 
L 249.777695 178.035944 
L 252.468421 178.301783 
L 255.159146 178.572493 
L 257.849871 178.845678 
L 260.540597 179.117797 
L 263.231322 179.420873 
L 265.922048 180.000656 
L 268.612773 180.188693 
L 271.303499 180.357212 
L 273.994224 180.52573 
L 276.684949 181.050552 
L 279.375675 181.711718 
L 282.0664 182.282601 
L 284.757126 182.64815 
L 287.447851 183.035917 
L 290.138577 183.704677 
L 292.829302 184.290602 
L 295.520028 184.511018 
L 298.210753 184.922684 
L 300.901478 185.525788 
L 303.592204 185.865968 
L 306.282929 186.381946 
L 308.973655 186.600929 
L 311.66438 187.193488 
L 314.355106 187.590855 
L 317.045831 187.936752 
L 319.736556 188.309962 
L 322.427282 188.991246 
L 325.118007 189.672531 
L 327.808733 190.353815 
L 330.499458 191.0351 
L 333.190184 191.716384 
L 335.880909 192.397668 
L 335.880909 138.256045 
L 335.880909 138.256045 
L 333.190184 138.401807 
L 330.499458 138.644488 
L 327.808733 139.030161 
L 325.118007 139.330624 
L 322.427282 139.642567 
L 319.736556 139.899945 
L 317.045831 140.157324 
L 314.355106 140.414702 
L 311.66438 140.672081 
L 308.973655 140.929965 
L 306.282929 141.126913 
L 303.592204 141.38551 
L 300.901478 141.647117 
L 298.210753 141.911666 
L 295.520028 142.203589 
L 292.829302 142.420352 
L 290.138577 142.370962 
L 287.447851 142.689277 
L 284.757126 142.817356 
L 282.0664 143.117473 
L 279.375675 143.417751 
L 276.684949 143.786112 
L 273.994224 144.023869 
L 271.303499 144.511501 
L 268.612773 144.688364 
L 265.922048 144.927188 
L 263.231322 145.084924 
L 260.540597 145.184192 
L 257.849871 145.309632 
L 255.159146 145.466731 
L 252.468421 145.682908 
L 249.777695 145.723884 
L 247.08697 145.981722 
L 244.396244 146.15286 
L 241.705519 146.35537 
L 239.014793 146.521837 
L 236.324068 146.618168 
L 233.633343 146.611489 
L 230.942617 146.778335 
L 228.251892 146.752927 
L 225.561166 146.339137 
L 222.870441 146.282528 
L 220.179715 146.009307 
L 217.48899 145.789821 
L 214.798264 145.673523 
L 212.107539 145.567414 
L 209.416814 145.524715 
L 206.726088 145.350695 
L 204.035363 145.129897 
L 201.344637 144.685444 
L 198.653912 144.303077 
L 195.963186 144.038653 
L 193.272461 143.766656 
L 190.581736 143.329373 
L 187.89101 143.177555 
L 185.200285 142.784523 
L 182.509559 142.277045 
L 179.818834 141.774899 
L 177.128108 141.373368 
L 174.437383 140.820387 
L 171.746657 140.515786 
L 169.055932 140.079767 
L 166.365207 139.736249 
L 163.674481 139.380395 
L 160.983756 138.99929 
L 158.29303 138.342561 
L 155.602305 137.75993 
L 152.911579 137.357313 
L 150.220854 136.810209 
L 147.530129 136.331235 
L 144.839403 135.858802 
L 142.148678 135.424898 
L 139.457952 135.056947 
L 136.767227 134.692185 
L 134.076501 134.223237 
L 131.385776 133.883093 
L 128.695051 133.53737 
L 126.004325 133.189353 
L 123.3136 132.848577 
L 120.622874 132.188719 
L 117.932149 131.835487 
L 115.241423 131.453141 
L 112.550698 130.860981 
L 109.859972 130.26882 
L 107.169247 129.676659 
L 104.478522 129.211602 
L 101.787796 128.788888 
L 99.097071 128.366174 
L 96.406345 127.943859 
L 93.71562 126.831694 
L 91.024894 126.350426 
L 88.334169 125.872208 
L 85.643444 125.395729 
L 82.952718 124.74916 
L 80.261993 124.066719 
L 77.571267 123.606075 
L 74.880542 123.146935 
L 72.189816 122.690516 
L 69.499091 122.234097 
z
" clip-path="url(#pc0bf2cc8e8)" style="fill: #1f77b4; fill-opacity: 0.15"/>
   </g>
   <g id="matplotlib.axis_1">
    <g id="xtick_1">
     <g id="line2d_1">
      <defs>
       <path id="m81a55179b7" d="M 0 0 
L 0 3.5 
" style="stroke: #000000; stroke-width: 0.8"/>
      </defs>
      <g>
       <use xlink:href="#m81a55179b7" x="85.204141" y="317.93875" style="stroke: #000000; stroke-width: 0.8"/>
      </g>
     </g>
     <g id="text_1">
      <text style="font: 10px 'sans-serif'; text-anchor: middle" x="85.204141" y="332.537188" transform="rotate(-0, 85.204141, 332.537188)">−4</text>
     </g>
    </g>
    <g id="xtick_2">
     <g id="line2d_2">
      <g>
       <use xlink:href="#m81a55179b7" x="144.400101" y="317.93875" style="stroke: #000000; stroke-width: 0.8"/>
      </g>
     </g>
     <g id="text_2">
      <text style="font: 10px 'sans-serif'; text-anchor: middle" x="144.400101" y="332.537188" transform="rotate(-0, 144.400101, 332.537188)">−2</text>
     </g>
    </g>
    <g id="xtick_3">
     <g id="line2d_3">
      <g>
       <use xlink:href="#m81a55179b7" x="203.596061" y="317.93875" style="stroke: #000000; stroke-width: 0.8"/>
      </g>
     </g>
     <g id="text_3">
      <text style="font: 10px 'sans-serif'; text-anchor: middle" x="203.596061" y="332.537188" transform="rotate(-0, 203.596061, 332.537188)">0</text>
     </g>
    </g>
    <g id="xtick_4">
     <g id="line2d_4">
      <g>
       <use xlink:href="#m81a55179b7" x="262.79202" y="317.93875" style="stroke: #000000; stroke-width: 0.8"/>
      </g>
     </g>
     <g id="text_4">
      <text style="font: 10px 'sans-serif'; text-anchor: middle" x="262.79202" y="332.537188" transform="rotate(-0, 262.79202, 332.537188)">2</text>
     </g>
    </g>
    <g id="xtick_5">
     <g id="line2d_5">
      <g>
       <use xlink:href="#m81a55179b7" x="321.98798" y="317.93875" style="stroke: #000000; stroke-width: 0.8"/>
      </g>
     </g>
     <g id="text_5">
      <text style="font: 10px 'sans-serif'; text-anchor: middle" x="321.98798" y="332.537188" transform="rotate(-0, 321.98798, 332.537188)">4</text>
     </g>
    </g>
    <g id="text_6">
     <text style="font: 10px 'sans-serif'; text-anchor: middle" x="202.69" y="346.215312" transform="rotate(-0, 202.69, 346.215312)">Composite_Reward</text>
    </g>
   </g>
   <g id="matplotlib.axis_2">
    <g id="ytick_1">
     <g id="line2d_6">
      <defs>
       <path id="mff3b65e0d1" d="M 0 0 
L -3.5 0 
" style="stroke: #000000; stroke-width: 0.8"/>
      </defs>
      <g>
       <use xlink:href="#mff3b65e0d1" x="56.18" y="307.753453" style="stroke: #000000; stroke-width: 0.8"/>
      </g>
     </g>
     <g id="text_7">
      <text style="font: 10px 'sans-serif'; text-anchor: end" x="49.18" y="311.552672" transform="rotate(-0, 49.18, 311.552672)">−1.5</text>
     </g>
    </g>
    <g id="ytick_2">
     <g id="line2d_7">
      <g>
       <use xlink:href="#mff3b65e0d1" x="56.18" y="261.16214" style="stroke: #000000; stroke-width: 0.8"/>
      </g>
     </g>
     <g id="text_8">
      <text style="font: 10px 'sans-serif'; text-anchor: end" x="49.18" y="264.961359" transform="rotate(-0, 49.18, 264.961359)">−1.0</text>
     </g>
    </g>
    <g id="ytick_3">
     <g id="line2d_8">
      <g>
       <use xlink:href="#mff3b65e0d1" x="56.18" y="214.570826" style="stroke: #000000; stroke-width: 0.8"/>
      </g>
     </g>
     <g id="text_9">
      <text style="font: 10px 'sans-serif'; text-anchor: end" x="49.18" y="218.370045" transform="rotate(-0, 49.18, 218.370045)">−0.5</text>
     </g>
    </g>
    <g id="ytick_4">
     <g id="line2d_9">
      <g>
       <use xlink:href="#mff3b65e0d1" x="56.18" y="167.979512" style="stroke: #000000; stroke-width: 0.8"/>
      </g>
     </g>
     <g id="text_10">
      <text style="font: 10px 'sans-serif'; text-anchor: end" x="49.18" y="171.778731" transform="rotate(-0, 49.18, 171.778731)">0.0</text>
     </g>
    </g>
    <g id="ytick_5">
     <g id="line2d_10">
      <g>
       <use xlink:href="#mff3b65e0d1" x="56.18" y="121.388199" style="stroke: #000000; stroke-width: 0.8"/>
      </g>
     </g>
     <g id="text_11">
      <text style="font: 10px 'sans-serif'; text-anchor: end" x="49.18" y="125.187418" transform="rotate(-0, 49.18, 125.187418)">0.5</text>
     </g>
    </g>
    <g id="ytick_6">
     <g id="line2d_11">
      <g>
       <use xlink:href="#mff3b65e0d1" x="56.18" y="74.796885" style="stroke: #000000; stroke-width: 0.8"/>
      </g>
     </g>
     <g id="text_12">
      <text style="font: 10px 'sans-serif'; text-anchor: end" x="49.18" y="78.596104" transform="rotate(-0, 49.18, 78.596104)">1.0</text>
     </g>
    </g>
    <g id="ytick_7">
     <g id="line2d_12">
      <g>
       <use xlink:href="#mff3b65e0d1" x="56.18" y="28.205571" style="stroke: #000000; stroke-width: 0.8"/>
      </g>
     </g>
     <g id="text_13">
      <text style="font: 10px 'sans-serif'; text-anchor: end" x="49.18" y="32.00479" transform="rotate(-0, 49.18, 32.00479)">1.5</text>
     </g>
    </g>
    <g id="text_14">
     <text style="font: 10px 'sans-serif'; text-anchor: middle" x="18.8175" y="164.369375" transform="rotate(-90, 18.8175, 164.369375)">Conn Gain&gt;Neut</text>
    </g>
   </g>
   <g id="line2d_13">
    <path d="M 69.499091 154.063914 
L 72.189816 154.179736 
L 74.880542 154.295559 
L 77.571267 154.411381 
L 80.261993 154.527203 
L 82.952718 154.643026 
L 85.643444 154.758848 
L 88.334169 154.87467 
L 91.024894 154.990493 
L 93.71562 155.106315 
L 96.406345 155.222137 
L 99.097071 155.337959 
L 101.787796 155.453782 
L 104.478522 155.569604 
L 107.169247 155.685426 
L 109.859972 155.801249 
L 112.550698 155.917071 
L 115.241423 156.032893 
L 117.932149 156.148716 
L 120.622874 156.264538 
L 123.3136 156.38036 
L 126.004325 156.496183 
L 128.695051 156.612005 
L 131.385776 156.727827 
L 134.076501 156.84365 
L 136.767227 156.959472 
L 139.457952 157.075294 
L 142.148678 157.191116 
L 144.839403 157.306939 
L 147.530129 157.422761 
L 150.220854 157.538583 
L 152.911579 157.654406 
L 155.602305 157.770228 
L 158.29303 157.88605 
L 160.983756 158.001873 
L 163.674481 158.117695 
L 166.365207 158.233517 
L 169.055932 158.34934 
L 171.746657 158.465162 
L 174.437383 158.580984 
L 177.128108 158.696807 
L 179.818834 158.812629 
L 182.509559 158.928451 
L 185.200285 159.044273 
L 187.89101 159.160096 
L 190.581736 159.275918 
L 193.272461 159.39174 
L 195.963186 159.507563 
L 198.653912 159.623385 
L 201.344637 159.739207 
L 204.035363 159.85503 
L 206.726088 159.970852 
L 209.416814 160.086674 
L 212.107539 160.202497 
L 214.798264 160.318319 
L 217.48899 160.434141 
L 220.179715 160.549964 
L 222.870441 160.665786 
L 225.561166 160.781608 
L 228.251892 160.89743 
L 230.942617 161.013253 
L 233.633343 161.129075 
L 236.324068 161.244897 
L 239.014793 161.36072 
L 241.705519 161.476542 
L 244.396244 161.592364 
L 247.08697 161.708187 
L 249.777695 161.824009 
L 252.468421 161.939831 
L 255.159146 162.055654 
L 257.849871 162.171476 
L 260.540597 162.287298 
L 263.231322 162.403121 
L 265.922048 162.518943 
L 268.612773 162.634765 
L 271.303499 162.750587 
L 273.994224 162.86641 
L 276.684949 162.982232 
L 279.375675 163.098054 
L 282.0664 163.213877 
L 284.757126 163.329699 
L 287.447851 163.445521 
L 290.138577 163.561344 
L 292.829302 163.677166 
L 295.520028 163.792988 
L 298.210753 163.908811 
L 300.901478 164.024633 
L 303.592204 164.140455 
L 306.282929 164.256278 
L 308.973655 164.3721 
L 311.66438 164.487922 
L 314.355106 164.603744 
L 317.045831 164.719567 
L 319.736556 164.835389 
L 322.427282 164.951211 
L 325.118007 165.067034 
L 327.808733 165.182856 
L 330.499458 165.298678 
L 333.190184 165.414501 
L 335.880909 165.530323 
" clip-path="url(#pc0bf2cc8e8)" style="fill: none; stroke: #1f77b4; stroke-width: 2.25; stroke-linecap: square"/>
   </g>
   <g id="patch_3">
    <path d="M 56.18 317.93875 
L 56.18 10.8 
" style="fill: none; stroke: #000000; stroke-width: 0.8; stroke-linejoin: miter; stroke-linecap: square"/>
   </g>
   <g id="patch_4">
    <path d="M 56.18 317.93875 
L 349.2 317.93875 
" style="fill: none; stroke: #000000; stroke-width: 0.8; stroke-linejoin: miter; stroke-linecap: square"/>
   </g>
  </g>
 </g>
 <defs>
  <clipPath id="pc0bf2cc8e8">
   <rect x="56.18" y="10.8" width="293.02" height="307.13875"/>
  </clipPath>
 </defs>
</svg>
