<?xml version="1.0" encoding="utf-8" standalone="no"?>
<!DOCTYPE svg PUBLIC "-//W3C//DTD SVG 1.1//EN"
  "http://www.w3.org/Graphics/SVG/1.1/DTD/svg11.dtd">
<svg xmlns:xlink="http://www.w3.org/1999/xlink" width="360pt" height="360pt" viewBox="0 0 360 360" xmlns="http://www.w3.org/2000/svg" version="1.1">
 <metadata>
  <rdf:RDF xmlns:dc="http://purl.org/dc/elements/1.1/" xmlns:cc="http://creativecommons.org/ns#" xmlns:rdf="http://www.w3.org/1999/02/22-rdf-syntax-ns#">
   <cc:Work>
    <dc:type rdf:resource="http://purl.org/dc/dcmitype/StillImage"/>
    <dc:date>2022-11-22T21:48:50.183368</dc:date>
    <dc:format>image/svg+xml</dc:format>
    <dc:creator>
     <cc:Agent>
      <dc:title>Matplotlib v3.5.3, https://matplotlib.org/</dc:title>
     </cc:Agent>
    </dc:creator>
   </cc:Work>
  </rdf:RDF>
 </metadata>
 <defs>
  <style type="text/css">*{stroke-linejoin: round; stroke-linecap: butt}</style>
 </defs>
 <g id="figure_1">
  <g id="patch_1">
   <path d="M 0 360 
L 360 360 
L 360 0 
L 0 0 
z
" style="fill: #ffffff"/>
  </g>
  <g id="axes_1">
   <g id="patch_2">
    <path d="M 56.18 317.93875 
L 349.2 317.93875 
L 349.2 10.8 
L 56.18 10.8 
z
" style="fill: #ffffff"/>
   </g>
   <g id="PathCollection_1">
    <defs>
     <path id="md366e42be0" d="M 0 3 
C 0.795609 3 1.55874 2.683901 2.12132 2.12132 
C 2.683901 1.55874 3 0.795609 3 0 
C 3 -0.795609 2.683901 -1.55874 2.12132 -2.12132 
C 1.55874 -2.683901 0.795609 -3 0 -3 
C -0.795609 -3 -1.55874 -2.683901 -2.12132 -2.12132 
C -2.683901 -1.55874 -3 -0.795609 -3 0 
C -3 0.795609 -2.683901 1.55874 -2.12132 2.12132 
C -1.55874 2.683901 -0.795609 3 0 3 
z
" style="stroke: #1f77b4; stroke-opacity: 0.8"/>
    </defs>
    <g clip-path="url(#pb2ef34531c)">
     <use xlink:href="#md366e42be0" x="217.48899" y="174.836827" style="fill: #1f77b4; fill-opacity: 0.8; stroke: #1f77b4; stroke-opacity: 0.8"/>
     <use xlink:href="#md366e42be0" x="217.48899" y="303.977898" style="fill: #1f77b4; fill-opacity: 0.8; stroke: #1f77b4; stroke-opacity: 0.8"/>
     <use xlink:href="#md366e42be0" x="276.684949" y="218.339349" style="fill: #1f77b4; fill-opacity: 0.8; stroke: #1f77b4; stroke-opacity: 0.8"/>
     <use xlink:href="#md366e42be0" x="187.89101" y="24.760852" style="fill: #1f77b4; fill-opacity: 0.8; stroke: #1f77b4; stroke-opacity: 0.8"/>
     <use xlink:href="#md366e42be0" x="247.08697" y="95.387435" style="fill: #1f77b4; fill-opacity: 0.8; stroke: #1f77b4; stroke-opacity: 0.8"/>
     <use xlink:href="#md366e42be0" x="158.29303" y="122.666325" style="fill: #1f77b4; fill-opacity: 0.8; stroke: #1f77b4; stroke-opacity: 0.8"/>
     <use xlink:href="#md366e42be0" x="276.684949" y="165.902756" style="fill: #1f77b4; fill-opacity: 0.8; stroke: #1f77b4; stroke-opacity: 0.8"/>
     <use xlink:href="#md366e42be0" x="69.499091" y="180.913213" style="fill: #1f77b4; fill-opacity: 0.8; stroke: #1f77b4; stroke-opacity: 0.8"/>
     <use xlink:href="#md366e42be0" x="335.880909" y="181.407696" style="fill: #1f77b4; fill-opacity: 0.8; stroke: #1f77b4; stroke-opacity: 0.8"/>
     <use xlink:href="#md366e42be0" x="99.097071" y="130.558481" style="fill: #1f77b4; fill-opacity: 0.8; stroke: #1f77b4; stroke-opacity: 0.8"/>
     <use xlink:href="#md366e42be0" x="306.282929" y="138.981808" style="fill: #1f77b4; fill-opacity: 0.8; stroke: #1f77b4; stroke-opacity: 0.8"/>
     <use xlink:href="#md366e42be0" x="276.684949" y="182.047038" style="fill: #1f77b4; fill-opacity: 0.8; stroke: #1f77b4; stroke-opacity: 0.8"/>
     <use xlink:href="#md366e42be0" x="158.29303" y="141.842504" style="fill: #1f77b4; fill-opacity: 0.8; stroke: #1f77b4; stroke-opacity: 0.8"/>
     <use xlink:href="#md366e42be0" x="276.684949" y="187.674214" style="fill: #1f77b4; fill-opacity: 0.8; stroke: #1f77b4; stroke-opacity: 0.8"/>
     <use xlink:href="#md366e42be0" x="128.695051" y="162.871668" style="fill: #1f77b4; fill-opacity: 0.8; stroke: #1f77b4; stroke-opacity: 0.8"/>
     <use xlink:href="#md366e42be0" x="335.880909" y="150.964104" style="fill: #1f77b4; fill-opacity: 0.8; stroke: #1f77b4; stroke-opacity: 0.8"/>
     <use xlink:href="#md366e42be0" x="99.097071" y="203.441149" style="fill: #1f77b4; fill-opacity: 0.8; stroke: #1f77b4; stroke-opacity: 0.8"/>
     <use xlink:href="#md366e42be0" x="306.282929" y="124.748109" style="fill: #1f77b4; fill-opacity: 0.8; stroke: #1f77b4; stroke-opacity: 0.8"/>
     <use xlink:href="#md366e42be0" x="276.684949" y="136.585279" style="fill: #1f77b4; fill-opacity: 0.8; stroke: #1f77b4; stroke-opacity: 0.8"/>
     <use xlink:href="#md366e42be0" x="247.08697" y="277.228254" style="fill: #1f77b4; fill-opacity: 0.8; stroke: #1f77b4; stroke-opacity: 0.8"/>
     <use xlink:href="#md366e42be0" x="158.29303" y="144.391678" style="fill: #1f77b4; fill-opacity: 0.8; stroke: #1f77b4; stroke-opacity: 0.8"/>
     <use xlink:href="#md366e42be0" x="128.695051" y="156.95269" style="fill: #1f77b4; fill-opacity: 0.8; stroke: #1f77b4; stroke-opacity: 0.8"/>
     <use xlink:href="#md366e42be0" x="335.880909" y="129.315414" style="fill: #1f77b4; fill-opacity: 0.8; stroke: #1f77b4; stroke-opacity: 0.8"/>
     <use xlink:href="#md366e42be0" x="187.89101" y="210.901783" style="fill: #1f77b4; fill-opacity: 0.8; stroke: #1f77b4; stroke-opacity: 0.8"/>
     <use xlink:href="#md366e42be0" x="128.695051" y="125.859035" style="fill: #1f77b4; fill-opacity: 0.8; stroke: #1f77b4; stroke-opacity: 0.8"/>
     <use xlink:href="#md366e42be0" x="69.499091" y="227.179273" style="fill: #1f77b4; fill-opacity: 0.8; stroke: #1f77b4; stroke-opacity: 0.8"/>
     <use xlink:href="#md366e42be0" x="128.695051" y="219.827245" style="fill: #1f77b4; fill-opacity: 0.8; stroke: #1f77b4; stroke-opacity: 0.8"/>
     <use xlink:href="#md366e42be0" x="335.880909" y="181.689353" style="fill: #1f77b4; fill-opacity: 0.8; stroke: #1f77b4; stroke-opacity: 0.8"/>
     <use xlink:href="#md366e42be0" x="217.48899" y="192.43726" style="fill: #1f77b4; fill-opacity: 0.8; stroke: #1f77b4; stroke-opacity: 0.8"/>
     <use xlink:href="#md366e42be0" x="247.08697" y="134.731431" style="fill: #1f77b4; fill-opacity: 0.8; stroke: #1f77b4; stroke-opacity: 0.8"/>
     <use xlink:href="#md366e42be0" x="335.880909" y="137.937721" style="fill: #1f77b4; fill-opacity: 0.8; stroke: #1f77b4; stroke-opacity: 0.8"/>
     <use xlink:href="#md366e42be0" x="158.29303" y="166.663185" style="fill: #1f77b4; fill-opacity: 0.8; stroke: #1f77b4; stroke-opacity: 0.8"/>
     <use xlink:href="#md366e42be0" x="217.48899" y="186.768055" style="fill: #1f77b4; fill-opacity: 0.8; stroke: #1f77b4; stroke-opacity: 0.8"/>
     <use xlink:href="#md366e42be0" x="99.097071" y="176.332522" style="fill: #1f77b4; fill-opacity: 0.8; stroke: #1f77b4; stroke-opacity: 0.8"/>
     <use xlink:href="#md366e42be0" x="128.695051" y="256.208745" style="fill: #1f77b4; fill-opacity: 0.8; stroke: #1f77b4; stroke-opacity: 0.8"/>
     <use xlink:href="#md366e42be0" x="69.499091" y="81.854751" style="fill: #1f77b4; fill-opacity: 0.8; stroke: #1f77b4; stroke-opacity: 0.8"/>
     <use xlink:href="#md366e42be0" x="306.282929" y="101.184877" style="fill: #1f77b4; fill-opacity: 0.8; stroke: #1f77b4; stroke-opacity: 0.8"/>
     <use xlink:href="#md366e42be0" x="69.499091" y="166.559239" style="fill: #1f77b4; fill-opacity: 0.8; stroke: #1f77b4; stroke-opacity: 0.8"/>
     <use xlink:href="#md366e42be0" x="99.097071" y="99.060927" style="fill: #1f77b4; fill-opacity: 0.8; stroke: #1f77b4; stroke-opacity: 0.8"/>
     <use xlink:href="#md366e42be0" x="187.89101" y="230.445259" style="fill: #1f77b4; fill-opacity: 0.8; stroke: #1f77b4; stroke-opacity: 0.8"/>
     <use xlink:href="#md366e42be0" x="306.282929" y="160.175404" style="fill: #1f77b4; fill-opacity: 0.8; stroke: #1f77b4; stroke-opacity: 0.8"/>
     <use xlink:href="#md366e42be0" x="247.08697" y="186.893141" style="fill: #1f77b4; fill-opacity: 0.8; stroke: #1f77b4; stroke-opacity: 0.8"/>
     <use xlink:href="#md366e42be0" x="99.097071" y="173.270701" style="fill: #1f77b4; fill-opacity: 0.8; stroke: #1f77b4; stroke-opacity: 0.8"/>
     <use xlink:href="#md366e42be0" x="158.29303" y="170.057998" style="fill: #1f77b4; fill-opacity: 0.8; stroke: #1f77b4; stroke-opacity: 0.8"/>
     <use xlink:href="#md366e42be0" x="99.097071" y="235.926059" style="fill: #1f77b4; fill-opacity: 0.8; stroke: #1f77b4; stroke-opacity: 0.8"/>
     <use xlink:href="#md366e42be0" x="217.48899" y="171.337949" style="fill: #1f77b4; fill-opacity: 0.8; stroke: #1f77b4; stroke-opacity: 0.8"/>
     <use xlink:href="#md366e42be0" x="247.08697" y="166.827551" style="fill: #1f77b4; fill-opacity: 0.8; stroke: #1f77b4; stroke-opacity: 0.8"/>
    </g>
   </g>
   <g id="PolyCollection_1">
    <path d="M 69.499091 147.812031 
L 69.499091 199.770202 
L 72.189816 199.465226 
L 74.880542 199.160251 
L 77.571267 198.692672 
L 80.261993 198.218592 
L 82.952718 197.739424 
L 85.643444 197.267401 
L 88.334169 196.807907 
L 91.024894 196.432473 
L 93.71562 196.05704 
L 96.406345 195.75294 
L 99.097071 195.471393 
L 101.787796 194.932346 
L 104.478522 194.536016 
L 107.169247 194.154643 
L 109.859972 193.806917 
L 112.550698 193.395436 
L 115.241423 192.926286 
L 117.932149 192.424685 
L 120.622874 191.975882 
L 123.3136 191.522848 
L 126.004325 191.1519 
L 128.695051 190.696883 
L 131.385776 190.416626 
L 134.076501 189.919388 
L 136.767227 189.448863 
L 139.457952 189.134704 
L 142.148678 188.820546 
L 144.839403 188.506387 
L 147.530129 188.126115 
L 150.220854 187.742395 
L 152.911579 187.291612 
L 155.602305 186.814913 
L 158.29303 186.457758 
L 160.983756 186.200909 
L 163.674481 185.82184 
L 166.365207 185.447124 
L 169.055932 185.148553 
L 171.746657 184.858643 
L 174.437383 184.694673 
L 177.128108 184.445693 
L 179.818834 184.345365 
L 182.509559 184.210607 
L 185.200285 183.864592 
L 187.89101 183.517416 
L 190.581736 183.27321 
L 193.272461 182.905422 
L 195.963186 182.668119 
L 198.653912 182.443609 
L 201.344637 182.53248 
L 204.035363 182.222663 
L 206.726088 182.086856 
L 209.416814 181.897013 
L 212.107539 181.921152 
L 214.798264 181.963187 
L 217.48899 182.110056 
L 220.179715 182.078601 
L 222.870441 182.041543 
L 225.561166 182.069852 
L 228.251892 182.026732 
L 230.942617 181.732626 
L 233.633343 181.433195 
L 236.324068 181.133259 
L 239.014793 181.185717 
L 241.705519 181.10328 
L 244.396244 181.136301 
L 247.08697 181.167401 
L 249.777695 181.198423 
L 252.468421 181.199895 
L 255.159146 181.260699 
L 257.849871 181.244463 
L 260.540597 181.123584 
L 263.231322 181.039664 
L 265.922048 181.139756 
L 268.612773 181.039089 
L 271.303499 181.116666 
L 273.994224 181.023466 
L 276.684949 181.167317 
L 279.375675 181.301615 
L 282.0664 181.20146 
L 284.757126 181.319144 
L 287.447851 181.24681 
L 290.138577 181.397405 
L 292.829302 181.58579 
L 295.520028 181.620073 
L 298.210753 181.645196 
L 300.901478 181.751448 
L 303.592204 181.876448 
L 306.282929 181.967642 
L 308.973655 182.074571 
L 311.66438 182.190097 
L 314.355106 182.30554 
L 317.045831 182.413307 
L 319.736556 182.716838 
L 322.427282 183.027498 
L 325.118007 183.228996 
L 327.808733 183.320605 
L 330.499458 183.55638 
L 333.190184 183.871365 
L 335.880909 184.18635 
L 335.880909 142.376041 
L 335.880909 142.376041 
L 333.190184 142.879262 
L 330.499458 143.479523 
L 327.808733 144.079783 
L 325.118007 144.387813 
L 322.427282 144.685941 
L 319.736556 144.975379 
L 317.045831 145.241485 
L 314.355106 145.63682 
L 311.66438 146.035559 
L 308.973655 146.35991 
L 306.282929 146.659694 
L 303.592204 146.95562 
L 300.901478 147.259746 
L 298.210753 147.533976 
L 295.520028 147.863102 
L 292.829302 148.162768 
L 290.138577 148.455811 
L 287.447851 148.572505 
L 284.757126 148.841097 
L 282.0664 149.201008 
L 279.375675 149.581617 
L 276.684949 149.737707 
L 273.994224 150.00437 
L 271.303499 150.130273 
L 268.612773 150.38804 
L 265.922048 150.64678 
L 263.231322 150.907193 
L 260.540597 151.167944 
L 257.849871 151.42587 
L 255.159146 151.685609 
L 252.468421 151.945904 
L 249.777695 152.112191 
L 247.08697 152.277544 
L 244.396244 152.393734 
L 241.705519 152.48116 
L 239.014793 152.730203 
L 236.324068 152.892159 
L 233.633343 152.830896 
L 230.942617 152.891439 
L 228.251892 152.958146 
L 225.561166 153.063951 
L 222.870441 153.292506 
L 220.179715 153.354382 
L 217.48899 153.524668 
L 214.798264 153.692356 
L 212.107539 153.861802 
L 209.416814 153.94633 
L 206.726088 154.083484 
L 204.035363 154.016137 
L 201.344637 154.072294 
L 198.653912 154.043594 
L 195.963186 154.068995 
L 193.272461 154.06373 
L 190.581736 154.058465 
L 187.89101 154.0532 
L 185.200285 153.905852 
L 182.509559 153.965539 
L 179.818834 154.020817 
L 177.128108 154.032139 
L 174.437383 153.95803 
L 171.746657 153.788881 
L 169.055932 153.738259 
L 166.365207 153.697897 
L 163.674481 153.565901 
L 160.983756 153.403936 
L 158.29303 153.180995 
L 155.602305 153.107393 
L 152.911579 153.112748 
L 150.220854 153.08681 
L 147.530129 153.031925 
L 144.839403 152.898462 
L 142.148678 152.771624 
L 139.457952 152.646645 
L 136.767227 152.383699 
L 134.076501 152.130874 
L 131.385776 152.029999 
L 128.695051 152.048904 
L 126.004325 152.066992 
L 123.3136 152.051225 
L 120.622874 151.834539 
L 117.932149 151.649906 
L 115.241423 151.521831 
L 112.550698 151.396851 
L 109.859972 151.272553 
L 107.169247 151.148177 
L 104.478522 151.04135 
L 101.787796 150.874934 
L 99.097071 150.601658 
L 96.406345 150.336866 
L 93.71562 150.026723 
L 91.024894 149.71658 
L 88.334169 149.409847 
L 85.643444 149.047732 
L 82.952718 148.677558 
L 80.261993 148.492403 
L 77.571267 148.186589 
L 74.880542 147.881266 
L 72.189816 147.83189 
L 69.499091 147.812031 
z
" clip-path="url(#pb2ef34531c)" style="fill: #1f77b4; fill-opacity: 0.15"/>
   </g>
   <g id="matplotlib.axis_1">
    <g id="xtick_1">
     <g id="line2d_1">
      <defs>
       <path id="me212345460" d="M 0 0 
L 0 3.5 
" style="stroke: #000000; stroke-width: 0.8"/>
      </defs>
      <g>
       <use xlink:href="#me212345460" x="85.204141" y="317.93875" style="stroke: #000000; stroke-width: 0.8"/>
      </g>
     </g>
     <g id="text_1">
      <text style="font: 10px 'sans-serif'; text-anchor: middle" x="85.204141" y="332.537188" transform="rotate(-0, 85.204141, 332.537188)">−4</text>
     </g>
    </g>
    <g id="xtick_2">
     <g id="line2d_2">
      <g>
       <use xlink:href="#me212345460" x="144.400101" y="317.93875" style="stroke: #000000; stroke-width: 0.8"/>
      </g>
     </g>
     <g id="text_2">
      <text style="font: 10px 'sans-serif'; text-anchor: middle" x="144.400101" y="332.537188" transform="rotate(-0, 144.400101, 332.537188)">−2</text>
     </g>
    </g>
    <g id="xtick_3">
     <g id="line2d_3">
      <g>
       <use xlink:href="#me212345460" x="203.596061" y="317.93875" style="stroke: #000000; stroke-width: 0.8"/>
      </g>
     </g>
     <g id="text_3">
      <text style="font: 10px 'sans-serif'; text-anchor: middle" x="203.596061" y="332.537188" transform="rotate(-0, 203.596061, 332.537188)">0</text>
     </g>
    </g>
    <g id="xtick_4">
     <g id="line2d_4">
      <g>
       <use xlink:href="#me212345460" x="262.79202" y="317.93875" style="stroke: #000000; stroke-width: 0.8"/>
      </g>
     </g>
     <g id="text_4">
      <text style="font: 10px 'sans-serif'; text-anchor: middle" x="262.79202" y="332.537188" transform="rotate(-0, 262.79202, 332.537188)">2</text>
     </g>
    </g>
    <g id="xtick_5">
     <g id="line2d_5">
      <g>
       <use xlink:href="#me212345460" x="321.98798" y="317.93875" style="stroke: #000000; stroke-width: 0.8"/>
      </g>
     </g>
     <g id="text_5">
      <text style="font: 10px 'sans-serif'; text-anchor: middle" x="321.98798" y="332.537188" transform="rotate(-0, 321.98798, 332.537188)">4</text>
     </g>
    </g>
    <g id="text_6">
     <text style="font: 10px 'sans-serif'; text-anchor: middle" x="202.69" y="346.215312" transform="rotate(-0, 202.69, 346.215312)">Composite_Reward</text>
    </g>
   </g>
   <g id="matplotlib.axis_2">
    <g id="ytick_1">
     <g id="line2d_6">
      <defs>
       <path id="md7cacf6cd4" d="M 0 0 
L -3.5 0 
" style="stroke: #000000; stroke-width: 0.8"/>
      </defs>
      <g>
       <use xlink:href="#md7cacf6cd4" x="56.18" y="300.29822" style="stroke: #000000; stroke-width: 0.8"/>
      </g>
     </g>
     <g id="text_7">
      <text style="font: 10px 'sans-serif'; text-anchor: end" x="49.18" y="304.097439" transform="rotate(-0, 49.18, 304.097439)">−1.5</text>
     </g>
    </g>
    <g id="ytick_2">
     <g id="line2d_7">
      <g>
       <use xlink:href="#md7cacf6cd4" x="56.18" y="255.333901" style="stroke: #000000; stroke-width: 0.8"/>
      </g>
     </g>
     <g id="text_8">
      <text style="font: 10px 'sans-serif'; text-anchor: end" x="49.18" y="259.13312" transform="rotate(-0, 49.18, 259.13312)">−1.0</text>
     </g>
    </g>
    <g id="ytick_3">
     <g id="line2d_8">
      <g>
       <use xlink:href="#md7cacf6cd4" x="56.18" y="210.369583" style="stroke: #000000; stroke-width: 0.8"/>
      </g>
     </g>
     <g id="text_9">
      <text style="font: 10px 'sans-serif'; text-anchor: end" x="49.18" y="214.168802" transform="rotate(-0, 49.18, 214.168802)">−0.5</text>
     </g>
    </g>
    <g id="ytick_4">
     <g id="line2d_9">
      <g>
       <use xlink:href="#md7cacf6cd4" x="56.18" y="165.405264" style="stroke: #000000; stroke-width: 0.8"/>
      </g>
     </g>
     <g id="text_10">
      <text style="font: 10px 'sans-serif'; text-anchor: end" x="49.18" y="169.204483" transform="rotate(-0, 49.18, 169.204483)">0.0</text>
     </g>
    </g>
    <g id="ytick_5">
     <g id="line2d_10">
      <g>
       <use xlink:href="#md7cacf6cd4" x="56.18" y="120.440946" style="stroke: #000000; stroke-width: 0.8"/>
      </g>
     </g>
     <g id="text_11">
      <text style="font: 10px 'sans-serif'; text-anchor: end" x="49.18" y="124.240165" transform="rotate(-0, 49.18, 124.240165)">0.5</text>
     </g>
    </g>
    <g id="ytick_6">
     <g id="line2d_11">
      <g>
       <use xlink:href="#md7cacf6cd4" x="56.18" y="75.476627" style="stroke: #000000; stroke-width: 0.8"/>
      </g>
     </g>
     <g id="text_12">
      <text style="font: 10px 'sans-serif'; text-anchor: end" x="49.18" y="79.275846" transform="rotate(-0, 49.18, 79.275846)">1.0</text>
     </g>
    </g>
    <g id="ytick_7">
     <g id="line2d_12">
      <g>
       <use xlink:href="#md7cacf6cd4" x="56.18" y="30.512309" style="stroke: #000000; stroke-width: 0.8"/>
      </g>
     </g>
     <g id="text_13">
      <text style="font: 10px 'sans-serif'; text-anchor: end" x="49.18" y="34.311527" transform="rotate(-0, 49.18, 34.311527)">1.5</text>
     </g>
    </g>
    <g id="text_14">
     <text style="font: 10px 'sans-serif'; text-anchor: middle" x="18.8175" y="164.369375" transform="rotate(-90, 18.8175, 164.369375)">Conn Gain&gt;Neut</text>
    </g>
   </g>
   <g id="line2d_13">
    <path d="M 69.499091 174.120996 
L 72.189816 173.996423 
L 74.880542 173.87185 
L 77.571267 173.747278 
L 80.261993 173.622705 
L 82.952718 173.498133 
L 85.643444 173.37356 
L 88.334169 173.248988 
L 91.024894 173.124415 
L 93.71562 172.999843 
L 96.406345 172.87527 
L 99.097071 172.750698 
L 101.787796 172.626125 
L 104.478522 172.501552 
L 107.169247 172.37698 
L 109.859972 172.252407 
L 112.550698 172.127835 
L 115.241423 172.003262 
L 117.932149 171.87869 
L 120.622874 171.754117 
L 123.3136 171.629545 
L 126.004325 171.504972 
L 128.695051 171.380399 
L 131.385776 171.255827 
L 134.076501 171.131254 
L 136.767227 171.006682 
L 139.457952 170.882109 
L 142.148678 170.757537 
L 144.839403 170.632964 
L 147.530129 170.508392 
L 150.220854 170.383819 
L 152.911579 170.259247 
L 155.602305 170.134674 
L 158.29303 170.010101 
L 160.983756 169.885529 
L 163.674481 169.760956 
L 166.365207 169.636384 
L 169.055932 169.511811 
L 171.746657 169.387239 
L 174.437383 169.262666 
L 177.128108 169.138094 
L 179.818834 169.013521 
L 182.509559 168.888948 
L 185.200285 168.764376 
L 187.89101 168.639803 
L 190.581736 168.515231 
L 193.272461 168.390658 
L 195.963186 168.266086 
L 198.653912 168.141513 
L 201.344637 168.016941 
L 204.035363 167.892368 
L 206.726088 167.767796 
L 209.416814 167.643223 
L 212.107539 167.51865 
L 214.798264 167.394078 
L 217.48899 167.269505 
L 220.179715 167.144933 
L 222.870441 167.02036 
L 225.561166 166.895788 
L 228.251892 166.771215 
L 230.942617 166.646643 
L 233.633343 166.52207 
L 236.324068 166.397497 
L 239.014793 166.272925 
L 241.705519 166.148352 
L 244.396244 166.02378 
L 247.08697 165.899207 
L 249.777695 165.774635 
L 252.468421 165.650062 
L 255.159146 165.52549 
L 257.849871 165.400917 
L 260.540597 165.276345 
L 263.231322 165.151772 
L 265.922048 165.027199 
L 268.612773 164.902627 
L 271.303499 164.778054 
L 273.994224 164.653482 
L 276.684949 164.528909 
L 279.375675 164.404337 
L 282.0664 164.279764 
L 284.757126 164.155192 
L 287.447851 164.030619 
L 290.138577 163.906047 
L 292.829302 163.781474 
L 295.520028 163.656901 
L 298.210753 163.532329 
L 300.901478 163.407756 
L 303.592204 163.283184 
L 306.282929 163.158611 
L 308.973655 163.034039 
L 311.66438 162.909466 
L 314.355106 162.784894 
L 317.045831 162.660321 
L 319.736556 162.535748 
L 322.427282 162.411176 
L 325.118007 162.286603 
L 327.808733 162.162031 
L 330.499458 162.037458 
L 333.190184 161.912886 
L 335.880909 161.788313 
" clip-path="url(#pb2ef34531c)" style="fill: none; stroke: #1f77b4; stroke-width: 2.25; stroke-linecap: square"/>
   </g>
   <g id="patch_3">
    <path d="M 56.18 317.93875 
L 56.18 10.8 
" style="fill: none; stroke: #000000; stroke-width: 0.8; stroke-linejoin: miter; stroke-linecap: square"/>
   </g>
   <g id="patch_4">
    <path d="M 56.18 317.93875 
L 349.2 317.93875 
" style="fill: none; stroke: #000000; stroke-width: 0.8; stroke-linejoin: miter; stroke-linecap: square"/>
   </g>
  </g>
 </g>
 <defs>
  <clipPath id="pb2ef34531c">
   <rect x="56.18" y="10.8" width="293.02" height="307.13875"/>
  </clipPath>
 </defs>
</svg>
