<?xml version="1.0" encoding="utf-8" standalone="no"?>
<!DOCTYPE svg PUBLIC "-//W3C//DTD SVG 1.1//EN"
  "http://www.w3.org/Graphics/SVG/1.1/DTD/svg11.dtd">
<svg xmlns:xlink="http://www.w3.org/1999/xlink" width="360pt" height="360pt" viewBox="0 0 360 360" xmlns="http://www.w3.org/2000/svg" version="1.1">
 <metadata>
  <rdf:RDF xmlns:dc="http://purl.org/dc/elements/1.1/" xmlns:cc="http://creativecommons.org/ns#" xmlns:rdf="http://www.w3.org/1999/02/22-rdf-syntax-ns#">
   <cc:Work>
    <dc:type rdf:resource="http://purl.org/dc/dcmitype/StillImage"/>
    <dc:date>2022-11-22T21:46:43.672313</dc:date>
    <dc:format>image/svg+xml</dc:format>
    <dc:creator>
     <cc:Agent>
      <dc:title>Matplotlib v3.5.3, https://matplotlib.org/</dc:title>
     </cc:Agent>
    </dc:creator>
   </cc:Work>
  </rdf:RDF>
 </metadata>
 <defs>
  <style type="text/css">*{stroke-linejoin: round; stroke-linecap: butt}</style>
 </defs>
 <g id="figure_1">
  <g id="patch_1">
   <path d="M 0 360 
L 360 360 
L 360 0 
L 0 0 
z
" style="fill: #ffffff"/>
  </g>
  <g id="axes_1">
   <g id="patch_2">
    <path d="M 56.18 317.93875 
L 349.2 317.93875 
L 349.2 10.8 
L 56.18 10.8 
z
" style="fill: #ffffff"/>
   </g>
   <g id="PathCollection_1">
    <defs>
     <path id="m14b549117c" d="M 0 3 
C 0.795609 3 1.55874 2.683901 2.12132 2.12132 
C 2.683901 1.55874 3 0.795609 3 0 
C 3 -0.795609 2.683901 -1.55874 2.12132 -2.12132 
C 1.55874 -2.683901 0.795609 -3 0 -3 
C -0.795609 -3 -1.55874 -2.683901 -2.12132 -2.12132 
C -2.683901 -1.55874 -3 -0.795609 -3 0 
C -3 0.795609 -2.683901 1.55874 -2.12132 2.12132 
C -1.55874 2.683901 -0.795609 3 0 3 
z
" style="stroke: #1f77b4; stroke-opacity: 0.8"/>
    </defs>
    <g clip-path="url(#pc0ac9316bd)">
     <use xlink:href="#m14b549117c" x="217.48899" y="109.973677" style="fill: #1f77b4; fill-opacity: 0.8; stroke: #1f77b4; stroke-opacity: 0.8"/>
     <use xlink:href="#m14b549117c" x="217.48899" y="45.621418" style="fill: #1f77b4; fill-opacity: 0.8; stroke: #1f77b4; stroke-opacity: 0.8"/>
     <use xlink:href="#m14b549117c" x="276.684949" y="195.448318" style="fill: #1f77b4; fill-opacity: 0.8; stroke: #1f77b4; stroke-opacity: 0.8"/>
     <use xlink:href="#m14b549117c" x="187.89101" y="302.825934" style="fill: #1f77b4; fill-opacity: 0.8; stroke: #1f77b4; stroke-opacity: 0.8"/>
     <use xlink:href="#m14b549117c" x="247.08697" y="65.219026" style="fill: #1f77b4; fill-opacity: 0.8; stroke: #1f77b4; stroke-opacity: 0.8"/>
     <use xlink:href="#m14b549117c" x="158.29303" y="182.412844" style="fill: #1f77b4; fill-opacity: 0.8; stroke: #1f77b4; stroke-opacity: 0.8"/>
     <use xlink:href="#m14b549117c" x="276.684949" y="158.521134" style="fill: #1f77b4; fill-opacity: 0.8; stroke: #1f77b4; stroke-opacity: 0.8"/>
     <use xlink:href="#m14b549117c" x="69.499091" y="236.598025" style="fill: #1f77b4; fill-opacity: 0.8; stroke: #1f77b4; stroke-opacity: 0.8"/>
     <use xlink:href="#m14b549117c" x="335.880909" y="201.753551" style="fill: #1f77b4; fill-opacity: 0.8; stroke: #1f77b4; stroke-opacity: 0.8"/>
     <use xlink:href="#m14b549117c" x="99.097071" y="162.705133" style="fill: #1f77b4; fill-opacity: 0.8; stroke: #1f77b4; stroke-opacity: 0.8"/>
     <use xlink:href="#m14b549117c" x="306.282929" y="166.402477" style="fill: #1f77b4; fill-opacity: 0.8; stroke: #1f77b4; stroke-opacity: 0.8"/>
     <use xlink:href="#m14b549117c" x="276.684949" y="143.770995" style="fill: #1f77b4; fill-opacity: 0.8; stroke: #1f77b4; stroke-opacity: 0.8"/>
     <use xlink:href="#m14b549117c" x="158.29303" y="128.443212" style="fill: #1f77b4; fill-opacity: 0.8; stroke: #1f77b4; stroke-opacity: 0.8"/>
     <use xlink:href="#m14b549117c" x="276.684949" y="252.517531" style="fill: #1f77b4; fill-opacity: 0.8; stroke: #1f77b4; stroke-opacity: 0.8"/>
     <use xlink:href="#m14b549117c" x="128.695051" y="215.301359" style="fill: #1f77b4; fill-opacity: 0.8; stroke: #1f77b4; stroke-opacity: 0.8"/>
     <use xlink:href="#m14b549117c" x="335.880909" y="199.741815" style="fill: #1f77b4; fill-opacity: 0.8; stroke: #1f77b4; stroke-opacity: 0.8"/>
     <use xlink:href="#m14b549117c" x="99.097071" y="24.760852" style="fill: #1f77b4; fill-opacity: 0.8; stroke: #1f77b4; stroke-opacity: 0.8"/>
     <use xlink:href="#m14b549117c" x="306.282929" y="156.411547" style="fill: #1f77b4; fill-opacity: 0.8; stroke: #1f77b4; stroke-opacity: 0.8"/>
     <use xlink:href="#m14b549117c" x="276.684949" y="252.573065" style="fill: #1f77b4; fill-opacity: 0.8; stroke: #1f77b4; stroke-opacity: 0.8"/>
     <use xlink:href="#m14b549117c" x="247.08697" y="111.633226" style="fill: #1f77b4; fill-opacity: 0.8; stroke: #1f77b4; stroke-opacity: 0.8"/>
     <use xlink:href="#m14b549117c" x="158.29303" y="188.106645" style="fill: #1f77b4; fill-opacity: 0.8; stroke: #1f77b4; stroke-opacity: 0.8"/>
     <use xlink:href="#m14b549117c" x="128.695051" y="162.394172" style="fill: #1f77b4; fill-opacity: 0.8; stroke: #1f77b4; stroke-opacity: 0.8"/>
     <use xlink:href="#m14b549117c" x="335.880909" y="55.354757" style="fill: #1f77b4; fill-opacity: 0.8; stroke: #1f77b4; stroke-opacity: 0.8"/>
     <use xlink:href="#m14b549117c" x="187.89101" y="88.731191" style="fill: #1f77b4; fill-opacity: 0.8; stroke: #1f77b4; stroke-opacity: 0.8"/>
     <use xlink:href="#m14b549117c" x="128.695051" y="206.396328" style="fill: #1f77b4; fill-opacity: 0.8; stroke: #1f77b4; stroke-opacity: 0.8"/>
     <use xlink:href="#m14b549117c" x="69.499091" y="161.289898" style="fill: #1f77b4; fill-opacity: 0.8; stroke: #1f77b4; stroke-opacity: 0.8"/>
     <use xlink:href="#m14b549117c" x="128.695051" y="175.335237" style="fill: #1f77b4; fill-opacity: 0.8; stroke: #1f77b4; stroke-opacity: 0.8"/>
     <use xlink:href="#m14b549117c" x="335.880909" y="189.892176" style="fill: #1f77b4; fill-opacity: 0.8; stroke: #1f77b4; stroke-opacity: 0.8"/>
     <use xlink:href="#m14b549117c" x="217.48899" y="160.663094" style="fill: #1f77b4; fill-opacity: 0.8; stroke: #1f77b4; stroke-opacity: 0.8"/>
     <use xlink:href="#m14b549117c" x="247.08697" y="157.006744" style="fill: #1f77b4; fill-opacity: 0.8; stroke: #1f77b4; stroke-opacity: 0.8"/>
     <use xlink:href="#m14b549117c" x="335.880909" y="258.427483" style="fill: #1f77b4; fill-opacity: 0.8; stroke: #1f77b4; stroke-opacity: 0.8"/>
     <use xlink:href="#m14b549117c" x="158.29303" y="36.620554" style="fill: #1f77b4; fill-opacity: 0.8; stroke: #1f77b4; stroke-opacity: 0.8"/>
     <use xlink:href="#m14b549117c" x="217.48899" y="200.424092" style="fill: #1f77b4; fill-opacity: 0.8; stroke: #1f77b4; stroke-opacity: 0.8"/>
     <use xlink:href="#m14b549117c" x="99.097071" y="125.161836" style="fill: #1f77b4; fill-opacity: 0.8; stroke: #1f77b4; stroke-opacity: 0.8"/>
     <use xlink:href="#m14b549117c" x="128.695051" y="247.65077" style="fill: #1f77b4; fill-opacity: 0.8; stroke: #1f77b4; stroke-opacity: 0.8"/>
     <use xlink:href="#m14b549117c" x="69.499091" y="159.925265" style="fill: #1f77b4; fill-opacity: 0.8; stroke: #1f77b4; stroke-opacity: 0.8"/>
     <use xlink:href="#m14b549117c" x="306.282929" y="139.57112" style="fill: #1f77b4; fill-opacity: 0.8; stroke: #1f77b4; stroke-opacity: 0.8"/>
     <use xlink:href="#m14b549117c" x="69.499091" y="190.498529" style="fill: #1f77b4; fill-opacity: 0.8; stroke: #1f77b4; stroke-opacity: 0.8"/>
     <use xlink:href="#m14b549117c" x="99.097071" y="231.764957" style="fill: #1f77b4; fill-opacity: 0.8; stroke: #1f77b4; stroke-opacity: 0.8"/>
     <use xlink:href="#m14b549117c" x="187.89101" y="137.722382" style="fill: #1f77b4; fill-opacity: 0.8; stroke: #1f77b4; stroke-opacity: 0.8"/>
     <use xlink:href="#m14b549117c" x="306.282929" y="154.808646" style="fill: #1f77b4; fill-opacity: 0.8; stroke: #1f77b4; stroke-opacity: 0.8"/>
     <use xlink:href="#m14b549117c" x="247.08697" y="176.186561" style="fill: #1f77b4; fill-opacity: 0.8; stroke: #1f77b4; stroke-opacity: 0.8"/>
     <use xlink:href="#m14b549117c" x="99.097071" y="303.977898" style="fill: #1f77b4; fill-opacity: 0.8; stroke: #1f77b4; stroke-opacity: 0.8"/>
     <use xlink:href="#m14b549117c" x="158.29303" y="302.961957" style="fill: #1f77b4; fill-opacity: 0.8; stroke: #1f77b4; stroke-opacity: 0.8"/>
     <use xlink:href="#m14b549117c" x="99.097071" y="194.380706" style="fill: #1f77b4; fill-opacity: 0.8; stroke: #1f77b4; stroke-opacity: 0.8"/>
     <use xlink:href="#m14b549117c" x="217.48899" y="168.835351" style="fill: #1f77b4; fill-opacity: 0.8; stroke: #1f77b4; stroke-opacity: 0.8"/>
     <use xlink:href="#m14b549117c" x="247.08697" y="135.296224" style="fill: #1f77b4; fill-opacity: 0.8; stroke: #1f77b4; stroke-opacity: 0.8"/>
    </g>
   </g>
   <g id="PolyCollection_1">
    <path d="M 69.499091 140.582904 
L 69.499091 211.847631 
L 72.189816 211.232678 
L 74.880542 210.617724 
L 77.571267 210.002771 
L 80.261993 209.387817 
L 82.952718 208.772863 
L 85.643444 208.15791 
L 88.334169 207.544544 
L 91.024894 206.934522 
L 93.71562 206.318305 
L 96.406345 205.654978 
L 99.097071 205.095712 
L 101.787796 204.505476 
L 104.478522 204.052388 
L 107.169247 203.61546 
L 109.859972 203.178531 
L 112.550698 202.648559 
L 115.241423 202.032376 
L 117.932149 201.547839 
L 120.622874 201.042775 
L 123.3136 200.462253 
L 126.004325 199.958304 
L 128.695051 199.414015 
L 131.385776 198.915856 
L 134.076501 198.445323 
L 136.767227 197.944178 
L 139.457952 197.439215 
L 142.148678 196.932122 
L 144.839403 196.398302 
L 147.530129 195.87442 
L 150.220854 195.426103 
L 152.911579 194.922488 
L 155.602305 194.415684 
L 158.29303 194.0502 
L 160.983756 193.819351 
L 163.674481 193.323542 
L 166.365207 192.813874 
L 169.055932 192.395831 
L 171.746657 191.93688 
L 174.437383 191.576994 
L 177.128108 190.957706 
L 179.818834 190.509874 
L 182.509559 190.100791 
L 185.200285 189.679761 
L 187.89101 189.252899 
L 190.581736 189.01034 
L 193.272461 188.973498 
L 195.963186 188.459869 
L 198.653912 188.244166 
L 201.344637 187.790568 
L 204.035363 187.311795 
L 206.726088 187.270884 
L 209.416814 187.163969 
L 212.107539 186.781315 
L 214.798264 186.687584 
L 217.48899 186.360466 
L 220.179715 186.186676 
L 222.870441 186.250075 
L 225.561166 186.187948 
L 228.251892 186.073732 
L 230.942617 186.058641 
L 233.633343 186.04353 
L 236.324068 186.129682 
L 239.014793 186.087054 
L 241.705519 186.202118 
L 244.396244 186.315816 
L 247.08697 186.172701 
L 249.777695 186.312782 
L 252.468421 186.451851 
L 255.159146 186.52799 
L 257.849871 186.578493 
L 260.540597 186.764639 
L 263.231322 187.019418 
L 265.922048 186.970333 
L 268.612773 186.905731 
L 271.303499 186.840255 
L 273.994224 186.773712 
L 276.684949 186.707169 
L 279.375675 186.984476 
L 282.0664 187.015629 
L 284.757126 187.410615 
L 287.447851 187.797851 
L 290.138577 188.067395 
L 292.829302 188.409411 
L 295.520028 188.527412 
L 298.210753 188.644364 
L 300.901478 188.761315 
L 303.592204 188.878267 
L 306.282929 188.995218 
L 308.973655 189.248528 
L 311.66438 189.57986 
L 314.355106 189.729021 
L 317.045831 189.878182 
L 319.736556 190.021886 
L 322.427282 190.223118 
L 325.118007 190.606403 
L 327.808733 190.881656 
L 330.499458 190.95389 
L 333.190184 191.37108 
L 335.880909 191.425578 
L 335.880909 129.792934 
L 335.880909 129.792934 
L 333.190184 130.592964 
L 330.499458 131.392993 
L 327.808733 132.17718 
L 325.118007 132.682116 
L 322.427282 133.187052 
L 319.736556 133.691988 
L 317.045831 134.192299 
L 314.355106 134.69185 
L 311.66438 135.372799 
L 308.973655 136.121917 
L 306.282929 136.871036 
L 303.592204 137.5333 
L 300.901478 138.001821 
L 298.210753 138.470962 
L 295.520028 138.940102 
L 292.829302 139.409242 
L 290.138577 139.878382 
L 287.447851 140.303427 
L 284.757126 140.680804 
L 282.0664 141.143021 
L 279.375675 141.778102 
L 276.684949 142.413132 
L 273.994224 143.048162 
L 271.303499 143.449401 
L 268.612773 143.829089 
L 265.922048 144.208777 
L 263.231322 144.588465 
L 260.540597 144.996419 
L 257.849871 145.459377 
L 255.159146 145.828699 
L 252.468421 146.204577 
L 249.777695 146.700944 
L 247.08697 147.205131 
L 244.396244 147.78602 
L 241.705519 148.252053 
L 239.014793 148.800726 
L 236.324068 149.207429 
L 233.633343 149.606591 
L 230.942617 150.010784 
L 228.251892 150.230427 
L 225.561166 150.50095 
L 222.870441 150.872651 
L 220.179715 151.29591 
L 217.48899 151.42579 
L 214.798264 151.451564 
L 212.107539 151.761309 
L 209.416814 152.041142 
L 206.726088 152.267059 
L 204.035363 152.069209 
L 201.344637 152.275879 
L 198.653912 152.236526 
L 195.963186 152.03959 
L 193.272461 152.161183 
L 190.581736 152.397762 
L 187.89101 152.254507 
L 185.200285 151.985804 
L 182.509559 151.759727 
L 179.818834 151.680607 
L 177.128108 151.691639 
L 174.437383 151.69512 
L 171.746657 151.463341 
L 169.055932 151.199188 
L 166.365207 151.036328 
L 163.674481 150.663546 
L 160.983756 150.547612 
L 158.29303 150.391766 
L 155.602305 149.884945 
L 152.911579 149.572344 
L 150.220854 149.298655 
L 147.530129 149.032874 
L 144.839403 148.87504 
L 142.148678 148.61341 
L 139.457952 148.306282 
L 136.767227 147.999155 
L 134.076501 147.72332 
L 131.385776 147.506129 
L 128.695051 147.28803 
L 126.004325 146.988406 
L 123.3136 146.584731 
L 120.622874 146.253232 
L 117.932149 145.900136 
L 115.241423 145.546976 
L 112.550698 145.227255 
L 109.859972 145.179444 
L 107.169247 144.946996 
L 104.478522 144.572595 
L 101.787796 144.070513 
L 99.097071 143.760844 
L 96.406345 143.455231 
L 93.71562 143.149618 
L 91.024894 142.845067 
L 88.334169 142.649994 
L 85.643444 142.492448 
L 82.952718 142.226594 
L 80.261993 141.955426 
L 77.571267 141.572598 
L 74.880542 141.24038 
L 72.189816 140.911642 
L 69.499091 140.582904 
z
" clip-path="url(#pc0ac9316bd)" style="fill: #1f77b4; fill-opacity: 0.15"/>
   </g>
   <g id="matplotlib.axis_1">
    <g id="xtick_1">
     <g id="line2d_1">
      <defs>
       <path id="m372f870267" d="M 0 0 
L 0 3.5 
" style="stroke: #000000; stroke-width: 0.8"/>
      </defs>
      <g>
       <use xlink:href="#m372f870267" x="85.204141" y="317.93875" style="stroke: #000000; stroke-width: 0.8"/>
      </g>
     </g>
     <g id="text_1">
      <text style="font: 10px 'sans-serif'; text-anchor: middle" x="85.204141" y="332.537188" transform="rotate(-0, 85.204141, 332.537188)">−4</text>
     </g>
    </g>
    <g id="xtick_2">
     <g id="line2d_2">
      <g>
       <use xlink:href="#m372f870267" x="144.400101" y="317.93875" style="stroke: #000000; stroke-width: 0.8"/>
      </g>
     </g>
     <g id="text_2">
      <text style="font: 10px 'sans-serif'; text-anchor: middle" x="144.400101" y="332.537188" transform="rotate(-0, 144.400101, 332.537188)">−2</text>
     </g>
    </g>
    <g id="xtick_3">
     <g id="line2d_3">
      <g>
       <use xlink:href="#m372f870267" x="203.596061" y="317.93875" style="stroke: #000000; stroke-width: 0.8"/>
      </g>
     </g>
     <g id="text_3">
      <text style="font: 10px 'sans-serif'; text-anchor: middle" x="203.596061" y="332.537188" transform="rotate(-0, 203.596061, 332.537188)">0</text>
     </g>
    </g>
    <g id="xtick_4">
     <g id="line2d_4">
      <g>
       <use xlink:href="#m372f870267" x="262.79202" y="317.93875" style="stroke: #000000; stroke-width: 0.8"/>
      </g>
     </g>
     <g id="text_4">
      <text style="font: 10px 'sans-serif'; text-anchor: middle" x="262.79202" y="332.537188" transform="rotate(-0, 262.79202, 332.537188)">2</text>
     </g>
    </g>
    <g id="xtick_5">
     <g id="line2d_5">
      <g>
       <use xlink:href="#m372f870267" x="321.98798" y="317.93875" style="stroke: #000000; stroke-width: 0.8"/>
      </g>
     </g>
     <g id="text_5">
      <text style="font: 10px 'sans-serif'; text-anchor: middle" x="321.98798" y="332.537188" transform="rotate(-0, 321.98798, 332.537188)">4</text>
     </g>
    </g>
    <g id="text_6">
     <text style="font: 10px 'sans-serif'; text-anchor: middle" x="202.69" y="346.215312" transform="rotate(-0, 202.69, 346.215312)">Composite_Reward</text>
    </g>
   </g>
   <g id="matplotlib.axis_2">
    <g id="ytick_1">
     <g id="line2d_6">
      <defs>
       <path id="mea4c266ddf" d="M 0 0 
L -3.5 0 
" style="stroke: #000000; stroke-width: 0.8"/>
      </defs>
      <g>
       <use xlink:href="#mea4c266ddf" x="56.18" y="317.071319" style="stroke: #000000; stroke-width: 0.8"/>
      </g>
     </g>
     <g id="text_7">
      <text style="font: 10px 'sans-serif'; text-anchor: end" x="49.18" y="320.870538" transform="rotate(-0, 49.18, 320.870538)">−0.8</text>
     </g>
    </g>
    <g id="ytick_2">
     <g id="line2d_7">
      <g>
       <use xlink:href="#mea4c266ddf" x="56.18" y="281.164015" style="stroke: #000000; stroke-width: 0.8"/>
      </g>
     </g>
     <g id="text_8">
      <text style="font: 10px 'sans-serif'; text-anchor: end" x="49.18" y="284.963233" transform="rotate(-0, 49.18, 284.963233)">−0.6</text>
     </g>
    </g>
    <g id="ytick_3">
     <g id="line2d_8">
      <g>
       <use xlink:href="#mea4c266ddf" x="56.18" y="245.256711" style="stroke: #000000; stroke-width: 0.8"/>
      </g>
     </g>
     <g id="text_9">
      <text style="font: 10px 'sans-serif'; text-anchor: end" x="49.18" y="249.055929" transform="rotate(-0, 49.18, 249.055929)">−0.4</text>
     </g>
    </g>
    <g id="ytick_4">
     <g id="line2d_9">
      <g>
       <use xlink:href="#mea4c266ddf" x="56.18" y="209.349406" style="stroke: #000000; stroke-width: 0.8"/>
      </g>
     </g>
     <g id="text_10">
      <text style="font: 10px 'sans-serif'; text-anchor: end" x="49.18" y="213.148625" transform="rotate(-0, 49.18, 213.148625)">−0.2</text>
     </g>
    </g>
    <g id="ytick_5">
     <g id="line2d_10">
      <g>
       <use xlink:href="#mea4c266ddf" x="56.18" y="173.442102" style="stroke: #000000; stroke-width: 0.8"/>
      </g>
     </g>
     <g id="text_11">
      <text style="font: 10px 'sans-serif'; text-anchor: end" x="49.18" y="177.241321" transform="rotate(-0, 49.18, 177.241321)">0.0</text>
     </g>
    </g>
    <g id="ytick_6">
     <g id="line2d_11">
      <g>
       <use xlink:href="#mea4c266ddf" x="56.18" y="137.534798" style="stroke: #000000; stroke-width: 0.8"/>
      </g>
     </g>
     <g id="text_12">
      <text style="font: 10px 'sans-serif'; text-anchor: end" x="49.18" y="141.334017" transform="rotate(-0, 49.18, 141.334017)">0.2</text>
     </g>
    </g>
    <g id="ytick_7">
     <g id="line2d_12">
      <g>
       <use xlink:href="#mea4c266ddf" x="56.18" y="101.627494" style="stroke: #000000; stroke-width: 0.8"/>
      </g>
     </g>
     <g id="text_13">
      <text style="font: 10px 'sans-serif'; text-anchor: end" x="49.18" y="105.426712" transform="rotate(-0, 49.18, 105.426712)">0.4</text>
     </g>
    </g>
    <g id="ytick_8">
     <g id="line2d_13">
      <g>
       <use xlink:href="#mea4c266ddf" x="56.18" y="65.720189" style="stroke: #000000; stroke-width: 0.8"/>
      </g>
     </g>
     <g id="text_14">
      <text style="font: 10px 'sans-serif'; text-anchor: end" x="49.18" y="69.519408" transform="rotate(-0, 49.18, 69.519408)">0.6</text>
     </g>
    </g>
    <g id="ytick_9">
     <g id="line2d_14">
      <g>
       <use xlink:href="#mea4c266ddf" x="56.18" y="29.812885" style="stroke: #000000; stroke-width: 0.8"/>
      </g>
     </g>
     <g id="text_15">
      <text style="font: 10px 'sans-serif'; text-anchor: end" x="49.18" y="33.612104" transform="rotate(-0, 49.18, 33.612104)">0.8</text>
     </g>
    </g>
    <g id="text_16">
     <text style="font: 10px 'sans-serif'; text-anchor: middle" x="18.8175" y="164.369375" transform="rotate(-90, 18.8175, 164.369375)">Conn Loss&gt;Neut</text>
    </g>
   </g>
   <g id="line2d_15">
    <path d="M 69.499091 179.234938 
L 72.189816 179.060902 
L 74.880542 178.886867 
L 77.571267 178.712831 
L 80.261993 178.538795 
L 82.952718 178.36476 
L 85.643444 178.190724 
L 88.334169 178.016688 
L 91.024894 177.842653 
L 93.71562 177.668617 
L 96.406345 177.494581 
L 99.097071 177.320546 
L 101.787796 177.14651 
L 104.478522 176.972474 
L 107.169247 176.798439 
L 109.859972 176.624403 
L 112.550698 176.450367 
L 115.241423 176.276332 
L 117.932149 176.102296 
L 120.622874 175.92826 
L 123.3136 175.754225 
L 126.004325 175.580189 
L 128.695051 175.406153 
L 131.385776 175.232118 
L 134.076501 175.058082 
L 136.767227 174.884046 
L 139.457952 174.710011 
L 142.148678 174.535975 
L 144.839403 174.36194 
L 147.530129 174.187904 
L 150.220854 174.013868 
L 152.911579 173.839833 
L 155.602305 173.665797 
L 158.29303 173.491761 
L 160.983756 173.317726 
L 163.674481 173.14369 
L 166.365207 172.969654 
L 169.055932 172.795619 
L 171.746657 172.621583 
L 174.437383 172.447547 
L 177.128108 172.273512 
L 179.818834 172.099476 
L 182.509559 171.92544 
L 185.200285 171.751405 
L 187.89101 171.577369 
L 190.581736 171.403333 
L 193.272461 171.229298 
L 195.963186 171.055262 
L 198.653912 170.881226 
L 201.344637 170.707191 
L 204.035363 170.533155 
L 206.726088 170.359119 
L 209.416814 170.185084 
L 212.107539 170.011048 
L 214.798264 169.837012 
L 217.48899 169.662977 
L 220.179715 169.488941 
L 222.870441 169.314905 
L 225.561166 169.14087 
L 228.251892 168.966834 
L 230.942617 168.792798 
L 233.633343 168.618763 
L 236.324068 168.444727 
L 239.014793 168.270691 
L 241.705519 168.096656 
L 244.396244 167.92262 
L 247.08697 167.748584 
L 249.777695 167.574549 
L 252.468421 167.400513 
L 255.159146 167.226477 
L 257.849871 167.052442 
L 260.540597 166.878406 
L 263.231322 166.70437 
L 265.922048 166.530335 
L 268.612773 166.356299 
L 271.303499 166.182263 
L 273.994224 166.008228 
L 276.684949 165.834192 
L 279.375675 165.660156 
L 282.0664 165.486121 
L 284.757126 165.312085 
L 287.447851 165.13805 
L 290.138577 164.964014 
L 292.829302 164.789978 
L 295.520028 164.615943 
L 298.210753 164.441907 
L 300.901478 164.267871 
L 303.592204 164.093836 
L 306.282929 163.9198 
L 308.973655 163.745764 
L 311.66438 163.571729 
L 314.355106 163.397693 
L 317.045831 163.223657 
L 319.736556 163.049622 
L 322.427282 162.875586 
L 325.118007 162.70155 
L 327.808733 162.527515 
L 330.499458 162.353479 
L 333.190184 162.179443 
L 335.880909 162.005408 
" clip-path="url(#pc0ac9316bd)" style="fill: none; stroke: #1f77b4; stroke-width: 2.25; stroke-linecap: square"/>
   </g>
   <g id="patch_3">
    <path d="M 56.18 317.93875 
L 56.18 10.8 
" style="fill: none; stroke: #000000; stroke-width: 0.8; stroke-linejoin: miter; stroke-linecap: square"/>
   </g>
   <g id="patch_4">
    <path d="M 56.18 317.93875 
L 349.2 317.93875 
" style="fill: none; stroke: #000000; stroke-width: 0.8; stroke-linejoin: miter; stroke-linecap: square"/>
   </g>
  </g>
 </g>
 <defs>
  <clipPath id="pc0ac9316bd">
   <rect x="56.18" y="10.8" width="293.02" height="307.13875"/>
  </clipPath>
 </defs>
</svg>
