<?xml version="1.0" encoding="utf-8" standalone="no"?>
<!DOCTYPE svg PUBLIC "-//W3C//DTD SVG 1.1//EN"
  "http://www.w3.org/Graphics/SVG/1.1/DTD/svg11.dtd">
<svg xmlns:xlink="http://www.w3.org/1999/xlink" width="360pt" height="360pt" viewBox="0 0 360 360" xmlns="http://www.w3.org/2000/svg" version="1.1">
 <metadata>
  <rdf:RDF xmlns:dc="http://purl.org/dc/elements/1.1/" xmlns:cc="http://creativecommons.org/ns#" xmlns:rdf="http://www.w3.org/1999/02/22-rdf-syntax-ns#">
   <cc:Work>
    <dc:type rdf:resource="http://purl.org/dc/dcmitype/StillImage"/>
    <dc:date>2022-11-22T21:40:37.924701</dc:date>
    <dc:format>image/svg+xml</dc:format>
    <dc:creator>
     <cc:Agent>
      <dc:title>Matplotlib v3.5.3, https://matplotlib.org/</dc:title>
     </cc:Agent>
    </dc:creator>
   </cc:Work>
  </rdf:RDF>
 </metadata>
 <defs>
  <style type="text/css">*{stroke-linejoin: round; stroke-linecap: butt}</style>
 </defs>
 <g id="figure_1">
  <g id="patch_1">
   <path d="M 0 360 
L 360 360 
L 360 0 
L 0 0 
z
" style="fill: #ffffff"/>
  </g>
  <g id="axes_1">
   <g id="patch_2">
    <path d="M 56.18 317.93875 
L 349.2 317.93875 
L 349.2 10.8 
L 56.18 10.8 
z
" style="fill: #ffffff"/>
   </g>
   <g id="PathCollection_1">
    <defs>
     <path id="m8844db4a2f" d="M 0 3 
C 0.795609 3 1.55874 2.683901 2.12132 2.12132 
C 2.683901 1.55874 3 0.795609 3 0 
C 3 -0.795609 2.683901 -1.55874 2.12132 -2.12132 
C 1.55874 -2.683901 0.795609 -3 0 -3 
C -0.795609 -3 -1.55874 -2.683901 -2.12132 -2.12132 
C -2.683901 -1.55874 -3 -0.795609 -3 0 
C -3 0.795609 -2.683901 1.55874 -2.12132 2.12132 
C -1.55874 2.683901 -0.795609 3 0 3 
z
" style="stroke: #1f77b4; stroke-opacity: 0.8"/>
    </defs>
    <g clip-path="url(#p2ed28a4ffb)">
     <use xlink:href="#m8844db4a2f" x="217.48899" y="221.177481" style="fill: #1f77b4; fill-opacity: 0.8; stroke: #1f77b4; stroke-opacity: 0.8"/>
     <use xlink:href="#m8844db4a2f" x="217.48899" y="86.426135" style="fill: #1f77b4; fill-opacity: 0.8; stroke: #1f77b4; stroke-opacity: 0.8"/>
     <use xlink:href="#m8844db4a2f" x="276.684949" y="106.167088" style="fill: #1f77b4; fill-opacity: 0.8; stroke: #1f77b4; stroke-opacity: 0.8"/>
     <use xlink:href="#m8844db4a2f" x="187.89101" y="39.434212" style="fill: #1f77b4; fill-opacity: 0.8; stroke: #1f77b4; stroke-opacity: 0.8"/>
     <use xlink:href="#m8844db4a2f" x="247.08697" y="51.436176" style="fill: #1f77b4; fill-opacity: 0.8; stroke: #1f77b4; stroke-opacity: 0.8"/>
     <use xlink:href="#m8844db4a2f" x="158.29303" y="116.359856" style="fill: #1f77b4; fill-opacity: 0.8; stroke: #1f77b4; stroke-opacity: 0.8"/>
     <use xlink:href="#m8844db4a2f" x="276.684949" y="126.75085" style="fill: #1f77b4; fill-opacity: 0.8; stroke: #1f77b4; stroke-opacity: 0.8"/>
     <use xlink:href="#m8844db4a2f" x="69.499091" y="108.451587" style="fill: #1f77b4; fill-opacity: 0.8; stroke: #1f77b4; stroke-opacity: 0.8"/>
     <use xlink:href="#m8844db4a2f" x="335.880909" y="185.300762" style="fill: #1f77b4; fill-opacity: 0.8; stroke: #1f77b4; stroke-opacity: 0.8"/>
     <use xlink:href="#m8844db4a2f" x="99.097071" y="213.758429" style="fill: #1f77b4; fill-opacity: 0.8; stroke: #1f77b4; stroke-opacity: 0.8"/>
     <use xlink:href="#m8844db4a2f" x="306.282929" y="155.281715" style="fill: #1f77b4; fill-opacity: 0.8; stroke: #1f77b4; stroke-opacity: 0.8"/>
     <use xlink:href="#m8844db4a2f" x="276.684949" y="108.359737" style="fill: #1f77b4; fill-opacity: 0.8; stroke: #1f77b4; stroke-opacity: 0.8"/>
     <use xlink:href="#m8844db4a2f" x="158.29303" y="171.143912" style="fill: #1f77b4; fill-opacity: 0.8; stroke: #1f77b4; stroke-opacity: 0.8"/>
     <use xlink:href="#m8844db4a2f" x="276.684949" y="100.787242" style="fill: #1f77b4; fill-opacity: 0.8; stroke: #1f77b4; stroke-opacity: 0.8"/>
     <use xlink:href="#m8844db4a2f" x="128.695051" y="115.804396" style="fill: #1f77b4; fill-opacity: 0.8; stroke: #1f77b4; stroke-opacity: 0.8"/>
     <use xlink:href="#m8844db4a2f" x="335.880909" y="165.2497" style="fill: #1f77b4; fill-opacity: 0.8; stroke: #1f77b4; stroke-opacity: 0.8"/>
     <use xlink:href="#m8844db4a2f" x="99.097071" y="175.607049" style="fill: #1f77b4; fill-opacity: 0.8; stroke: #1f77b4; stroke-opacity: 0.8"/>
     <use xlink:href="#m8844db4a2f" x="306.282929" y="115.487468" style="fill: #1f77b4; fill-opacity: 0.8; stroke: #1f77b4; stroke-opacity: 0.8"/>
     <use xlink:href="#m8844db4a2f" x="276.684949" y="147.409328" style="fill: #1f77b4; fill-opacity: 0.8; stroke: #1f77b4; stroke-opacity: 0.8"/>
     <use xlink:href="#m8844db4a2f" x="247.08697" y="75.484811" style="fill: #1f77b4; fill-opacity: 0.8; stroke: #1f77b4; stroke-opacity: 0.8"/>
     <use xlink:href="#m8844db4a2f" x="158.29303" y="145.059687" style="fill: #1f77b4; fill-opacity: 0.8; stroke: #1f77b4; stroke-opacity: 0.8"/>
     <use xlink:href="#m8844db4a2f" x="128.695051" y="174.226521" style="fill: #1f77b4; fill-opacity: 0.8; stroke: #1f77b4; stroke-opacity: 0.8"/>
     <use xlink:href="#m8844db4a2f" x="335.880909" y="240.28818" style="fill: #1f77b4; fill-opacity: 0.8; stroke: #1f77b4; stroke-opacity: 0.8"/>
     <use xlink:href="#m8844db4a2f" x="187.89101" y="190.096979" style="fill: #1f77b4; fill-opacity: 0.8; stroke: #1f77b4; stroke-opacity: 0.8"/>
     <use xlink:href="#m8844db4a2f" x="128.695051" y="214.816578" style="fill: #1f77b4; fill-opacity: 0.8; stroke: #1f77b4; stroke-opacity: 0.8"/>
     <use xlink:href="#m8844db4a2f" x="69.499091" y="303.977898" style="fill: #1f77b4; fill-opacity: 0.8; stroke: #1f77b4; stroke-opacity: 0.8"/>
     <use xlink:href="#m8844db4a2f" x="128.695051" y="122.582495" style="fill: #1f77b4; fill-opacity: 0.8; stroke: #1f77b4; stroke-opacity: 0.8"/>
     <use xlink:href="#m8844db4a2f" x="335.880909" y="150.289207" style="fill: #1f77b4; fill-opacity: 0.8; stroke: #1f77b4; stroke-opacity: 0.8"/>
     <use xlink:href="#m8844db4a2f" x="217.48899" y="24.760852" style="fill: #1f77b4; fill-opacity: 0.8; stroke: #1f77b4; stroke-opacity: 0.8"/>
     <use xlink:href="#m8844db4a2f" x="247.08697" y="248.557897" style="fill: #1f77b4; fill-opacity: 0.8; stroke: #1f77b4; stroke-opacity: 0.8"/>
     <use xlink:href="#m8844db4a2f" x="335.880909" y="133.034337" style="fill: #1f77b4; fill-opacity: 0.8; stroke: #1f77b4; stroke-opacity: 0.8"/>
     <use xlink:href="#m8844db4a2f" x="158.29303" y="144.460932" style="fill: #1f77b4; fill-opacity: 0.8; stroke: #1f77b4; stroke-opacity: 0.8"/>
     <use xlink:href="#m8844db4a2f" x="217.48899" y="98.788349" style="fill: #1f77b4; fill-opacity: 0.8; stroke: #1f77b4; stroke-opacity: 0.8"/>
     <use xlink:href="#m8844db4a2f" x="99.097071" y="121.713435" style="fill: #1f77b4; fill-opacity: 0.8; stroke: #1f77b4; stroke-opacity: 0.8"/>
     <use xlink:href="#m8844db4a2f" x="128.695051" y="141.056421" style="fill: #1f77b4; fill-opacity: 0.8; stroke: #1f77b4; stroke-opacity: 0.8"/>
     <use xlink:href="#m8844db4a2f" x="69.499091" y="160.521275" style="fill: #1f77b4; fill-opacity: 0.8; stroke: #1f77b4; stroke-opacity: 0.8"/>
     <use xlink:href="#m8844db4a2f" x="306.282929" y="112.238205" style="fill: #1f77b4; fill-opacity: 0.8; stroke: #1f77b4; stroke-opacity: 0.8"/>
     <use xlink:href="#m8844db4a2f" x="69.499091" y="162.358648" style="fill: #1f77b4; fill-opacity: 0.8; stroke: #1f77b4; stroke-opacity: 0.8"/>
     <use xlink:href="#m8844db4a2f" x="99.097071" y="102.964286" style="fill: #1f77b4; fill-opacity: 0.8; stroke: #1f77b4; stroke-opacity: 0.8"/>
     <use xlink:href="#m8844db4a2f" x="187.89101" y="94.382737" style="fill: #1f77b4; fill-opacity: 0.8; stroke: #1f77b4; stroke-opacity: 0.8"/>
     <use xlink:href="#m8844db4a2f" x="306.282929" y="75.030322" style="fill: #1f77b4; fill-opacity: 0.8; stroke: #1f77b4; stroke-opacity: 0.8"/>
     <use xlink:href="#m8844db4a2f" x="247.08697" y="127.243975" style="fill: #1f77b4; fill-opacity: 0.8; stroke: #1f77b4; stroke-opacity: 0.8"/>
     <use xlink:href="#m8844db4a2f" x="99.097071" y="231.66865" style="fill: #1f77b4; fill-opacity: 0.8; stroke: #1f77b4; stroke-opacity: 0.8"/>
     <use xlink:href="#m8844db4a2f" x="158.29303" y="163.481603" style="fill: #1f77b4; fill-opacity: 0.8; stroke: #1f77b4; stroke-opacity: 0.8"/>
     <use xlink:href="#m8844db4a2f" x="99.097071" y="180.156665" style="fill: #1f77b4; fill-opacity: 0.8; stroke: #1f77b4; stroke-opacity: 0.8"/>
     <use xlink:href="#m8844db4a2f" x="217.48899" y="166.108187" style="fill: #1f77b4; fill-opacity: 0.8; stroke: #1f77b4; stroke-opacity: 0.8"/>
     <use xlink:href="#m8844db4a2f" x="247.08697" y="185.532557" style="fill: #1f77b4; fill-opacity: 0.8; stroke: #1f77b4; stroke-opacity: 0.8"/>
    </g>
   </g>
   <g id="PolyCollection_1">
    <path d="M 69.499091 134.308463 
L 69.499091 190.990431 
L 72.189816 189.937868 
L 74.880542 189.150206 
L 77.571267 188.209706 
L 80.261993 187.344268 
L 82.952718 186.750018 
L 85.643444 185.883502 
L 88.334169 185.124941 
L 91.024894 184.491189 
L 93.71562 183.85307 
L 96.406345 183.212121 
L 99.097071 182.571171 
L 101.787796 181.930222 
L 104.478522 181.108961 
L 107.169247 180.422886 
L 109.859972 179.53837 
L 112.550698 178.799798 
L 115.241423 177.993813 
L 117.932149 177.524372 
L 120.622874 176.641354 
L 123.3136 175.965125 
L 126.004325 175.322642 
L 128.695051 174.918843 
L 131.385776 174.0018 
L 134.076501 173.196444 
L 136.767227 172.492557 
L 139.457952 171.755124 
L 142.148678 171.214277 
L 144.839403 170.545666 
L 147.530129 169.867095 
L 150.220854 169.423982 
L 152.911579 168.666144 
L 155.602305 168.088971 
L 158.29303 167.427866 
L 160.983756 166.868722 
L 163.674481 166.676751 
L 166.365207 165.963771 
L 169.055932 165.337205 
L 171.746657 164.631438 
L 174.437383 163.768489 
L 177.128108 163.236124 
L 179.818834 162.591267 
L 182.509559 162.25844 
L 185.200285 161.397099 
L 187.89101 161.422979 
L 190.581736 160.799261 
L 193.272461 160.198404 
L 195.963186 159.669938 
L 198.653912 159.144945 
L 201.344637 158.78302 
L 204.035363 158.552473 
L 206.726088 158.022845 
L 209.416814 157.628025 
L 212.107539 157.371718 
L 214.798264 157.226044 
L 217.48899 156.856675 
L 220.179715 156.482153 
L 222.870441 156.117021 
L 225.561166 155.854069 
L 228.251892 155.732545 
L 230.942617 155.447163 
L 233.633343 155.256772 
L 236.324068 155.407395 
L 239.014793 155.357768 
L 241.705519 154.827166 
L 244.396244 154.444176 
L 247.08697 154.292683 
L 249.777695 154.393332 
L 252.468421 154.276284 
L 255.159146 154.260213 
L 257.849871 154.240517 
L 260.540597 154.065766 
L 263.231322 154.100861 
L 265.922048 154.135957 
L 268.612773 154.171053 
L 271.303499 154.125455 
L 273.994224 153.847339 
L 276.684949 154.021629 
L 279.375675 154.102679 
L 282.0664 153.865574 
L 284.757126 153.709094 
L 287.447851 153.555586 
L 290.138577 153.533992 
L 292.829302 153.512155 
L 295.520028 153.487175 
L 298.210753 153.564995 
L 300.901478 153.774349 
L 303.592204 153.707015 
L 306.282929 153.621522 
L 308.973655 153.362279 
L 311.66438 153.368982 
L 314.355106 153.414872 
L 317.045831 153.349542 
L 319.736556 153.284181 
L 322.427282 153.434221 
L 325.118007 153.615638 
L 327.808733 153.929092 
L 330.499458 153.957931 
L 333.190184 153.991076 
L 335.880909 154.171402 
L 335.880909 95.860907 
L 335.880909 95.860907 
L 333.190184 96.819938 
L 330.499458 97.783109 
L 327.808733 98.747842 
L 325.118007 99.707509 
L 322.427282 100.663975 
L 319.736556 101.62044 
L 317.045831 102.576906 
L 314.355106 103.537831 
L 311.66438 104.499169 
L 308.973655 105.460507 
L 306.282929 106.371336 
L 303.592204 106.881685 
L 300.901478 107.507999 
L 298.210753 108.440443 
L 295.520028 109.377329 
L 292.829302 109.990365 
L 290.138577 110.503438 
L 287.447851 111.116278 
L 284.757126 111.969788 
L 282.0664 112.820164 
L 279.375675 113.654088 
L 276.684949 114.468608 
L 273.994224 115.174711 
L 271.303499 115.880813 
L 268.612773 116.588663 
L 265.922048 117.257585 
L 263.231322 118.012854 
L 260.540597 118.709518 
L 257.849871 119.340214 
L 255.159146 119.865017 
L 252.468421 120.586476 
L 249.777695 121.431645 
L 247.08697 122.235736 
L 244.396244 122.941838 
L 241.705519 123.476444 
L 239.014793 124.137675 
L 236.324068 124.591014 
L 233.633343 125.074496 
L 230.942617 125.475682 
L 228.251892 125.849355 
L 225.561166 126.13752 
L 222.870441 126.62359 
L 220.179715 127.111932 
L 217.48899 127.511332 
L 214.798264 128.119525 
L 212.107539 128.465988 
L 209.416814 129.097582 
L 206.726088 129.357908 
L 204.035363 129.529543 
L 201.344637 129.735718 
L 198.653912 130.116852 
L 195.963186 130.387267 
L 193.272461 130.625105 
L 190.581736 130.863246 
L 187.89101 131.066644 
L 185.200285 131.285531 
L 182.509559 131.601685 
L 179.818834 131.891449 
L 177.128108 132.232661 
L 174.437383 132.398534 
L 171.746657 132.652453 
L 169.055932 132.9329 
L 166.365207 133.157738 
L 163.674481 133.408125 
L 160.983756 133.637439 
L 158.29303 133.729893 
L 155.602305 133.953259 
L 152.911579 134.080336 
L 150.220854 134.057592 
L 147.530129 134.092351 
L 144.839403 134.363348 
L 142.148678 134.449506 
L 139.457952 134.501344 
L 136.767227 134.478092 
L 134.076501 134.596823 
L 131.385776 134.49408 
L 128.695051 134.609514 
L 126.004325 134.744416 
L 123.3136 134.795796 
L 120.622874 134.839921 
L 117.932149 134.888046 
L 115.241423 134.833437 
L 112.550698 134.637436 
L 109.859972 134.68462 
L 107.169247 134.734066 
L 104.478522 134.591084 
L 101.787796 134.412156 
L 99.097071 134.233228 
L 96.406345 134.269577 
L 93.71562 134.312444 
L 91.024894 134.356352 
L 88.334169 134.40026 
L 85.643444 134.444168 
L 82.952718 134.466241 
L 80.261993 134.522056 
L 77.571267 134.556864 
L 74.880542 134.591671 
L 72.189816 134.515241 
L 69.499091 134.308463 
z
" clip-path="url(#p2ed28a4ffb)" style="fill: #1f77b4; fill-opacity: 0.15"/>
   </g>
   <g id="matplotlib.axis_1">
    <g id="xtick_1">
     <g id="line2d_1">
      <defs>
       <path id="m29caac93eb" d="M 0 0 
L 0 3.5 
" style="stroke: #000000; stroke-width: 0.8"/>
      </defs>
      <g>
       <use xlink:href="#m29caac93eb" x="85.204141" y="317.93875" style="stroke: #000000; stroke-width: 0.8"/>
      </g>
     </g>
     <g id="text_1">
      <text style="font: 10px 'sans-serif'; text-anchor: middle" x="85.204141" y="332.537188" transform="rotate(-0, 85.204141, 332.537188)">−4</text>
     </g>
    </g>
    <g id="xtick_2">
     <g id="line2d_2">
      <g>
       <use xlink:href="#m29caac93eb" x="144.400101" y="317.93875" style="stroke: #000000; stroke-width: 0.8"/>
      </g>
     </g>
     <g id="text_2">
      <text style="font: 10px 'sans-serif'; text-anchor: middle" x="144.400101" y="332.537188" transform="rotate(-0, 144.400101, 332.537188)">−2</text>
     </g>
    </g>
    <g id="xtick_3">
     <g id="line2d_3">
      <g>
       <use xlink:href="#m29caac93eb" x="203.596061" y="317.93875" style="stroke: #000000; stroke-width: 0.8"/>
      </g>
     </g>
     <g id="text_3">
      <text style="font: 10px 'sans-serif'; text-anchor: middle" x="203.596061" y="332.537188" transform="rotate(-0, 203.596061, 332.537188)">0</text>
     </g>
    </g>
    <g id="xtick_4">
     <g id="line2d_4">
      <g>
       <use xlink:href="#m29caac93eb" x="262.79202" y="317.93875" style="stroke: #000000; stroke-width: 0.8"/>
      </g>
     </g>
     <g id="text_4">
      <text style="font: 10px 'sans-serif'; text-anchor: middle" x="262.79202" y="332.537188" transform="rotate(-0, 262.79202, 332.537188)">2</text>
     </g>
    </g>
    <g id="xtick_5">
     <g id="line2d_5">
      <g>
       <use xlink:href="#m29caac93eb" x="321.98798" y="317.93875" style="stroke: #000000; stroke-width: 0.8"/>
      </g>
     </g>
     <g id="text_5">
      <text style="font: 10px 'sans-serif'; text-anchor: middle" x="321.98798" y="332.537188" transform="rotate(-0, 321.98798, 332.537188)">4</text>
     </g>
    </g>
    <g id="text_6">
     <text style="font: 10px 'sans-serif'; text-anchor: middle" x="202.69" y="346.215312" transform="rotate(-0, 202.69, 346.215312)">Composite_Reward</text>
    </g>
   </g>
   <g id="matplotlib.axis_2">
    <g id="ytick_1">
     <g id="line2d_6">
      <defs>
       <path id="mac96f4dfcb" d="M 0 0 
L -3.5 0 
" style="stroke: #000000; stroke-width: 0.8"/>
      </defs>
      <g>
       <use xlink:href="#mac96f4dfcb" x="56.18" y="315.50321" style="stroke: #000000; stroke-width: 0.8"/>
      </g>
     </g>
     <g id="text_7">
      <text style="font: 10px 'sans-serif'; text-anchor: end" x="49.18" y="319.302429" transform="rotate(-0, 49.18, 319.302429)">−0.6</text>
     </g>
    </g>
    <g id="ytick_2">
     <g id="line2d_7">
      <g>
       <use xlink:href="#mac96f4dfcb" x="56.18" y="261.140411" style="stroke: #000000; stroke-width: 0.8"/>
      </g>
     </g>
     <g id="text_8">
      <text style="font: 10px 'sans-serif'; text-anchor: end" x="49.18" y="264.93963" transform="rotate(-0, 49.18, 264.93963)">−0.4</text>
     </g>
    </g>
    <g id="ytick_3">
     <g id="line2d_8">
      <g>
       <use xlink:href="#mac96f4dfcb" x="56.18" y="206.777612" style="stroke: #000000; stroke-width: 0.8"/>
      </g>
     </g>
     <g id="text_9">
      <text style="font: 10px 'sans-serif'; text-anchor: end" x="49.18" y="210.576831" transform="rotate(-0, 49.18, 210.576831)">−0.2</text>
     </g>
    </g>
    <g id="ytick_4">
     <g id="line2d_9">
      <g>
       <use xlink:href="#mac96f4dfcb" x="56.18" y="152.414813" style="stroke: #000000; stroke-width: 0.8"/>
      </g>
     </g>
     <g id="text_10">
      <text style="font: 10px 'sans-serif'; text-anchor: end" x="49.18" y="156.214031" transform="rotate(-0, 49.18, 156.214031)">0.0</text>
     </g>
    </g>
    <g id="ytick_5">
     <g id="line2d_10">
      <g>
       <use xlink:href="#mac96f4dfcb" x="56.18" y="98.052013" style="stroke: #000000; stroke-width: 0.8"/>
      </g>
     </g>
     <g id="text_11">
      <text style="font: 10px 'sans-serif'; text-anchor: end" x="49.18" y="101.851232" transform="rotate(-0, 49.18, 101.851232)">0.2</text>
     </g>
    </g>
    <g id="ytick_6">
     <g id="line2d_11">
      <g>
       <use xlink:href="#mac96f4dfcb" x="56.18" y="43.689214" style="stroke: #000000; stroke-width: 0.8"/>
      </g>
     </g>
     <g id="text_12">
      <text style="font: 10px 'sans-serif'; text-anchor: end" x="49.18" y="47.488433" transform="rotate(-0, 49.18, 47.488433)">0.4</text>
     </g>
    </g>
    <g id="text_13">
     <text style="font: 10px 'sans-serif'; text-anchor: middle" x="18.8175" y="164.369375" transform="rotate(-90, 18.8175, 164.369375)">Conn LG-SG</text>
    </g>
   </g>
   <g id="line2d_12">
    <path d="M 69.499091 162.214527 
L 72.189816 161.858333 
L 74.880542 161.502139 
L 77.571267 161.145945 
L 80.261993 160.789751 
L 82.952718 160.433557 
L 85.643444 160.077363 
L 88.334169 159.72117 
L 91.024894 159.364976 
L 93.71562 159.008782 
L 96.406345 158.652588 
L 99.097071 158.296394 
L 101.787796 157.9402 
L 104.478522 157.584006 
L 107.169247 157.227812 
L 109.859972 156.871618 
L 112.550698 156.515424 
L 115.241423 156.15923 
L 117.932149 155.803036 
L 120.622874 155.446843 
L 123.3136 155.090649 
L 126.004325 154.734455 
L 128.695051 154.378261 
L 131.385776 154.022067 
L 134.076501 153.665873 
L 136.767227 153.309679 
L 139.457952 152.953485 
L 142.148678 152.597291 
L 144.839403 152.241097 
L 147.530129 151.884903 
L 150.220854 151.528709 
L 152.911579 151.172515 
L 155.602305 150.816322 
L 158.29303 150.460128 
L 160.983756 150.103934 
L 163.674481 149.74774 
L 166.365207 149.391546 
L 169.055932 149.035352 
L 171.746657 148.679158 
L 174.437383 148.322964 
L 177.128108 147.96677 
L 179.818834 147.610576 
L 182.509559 147.254382 
L 185.200285 146.898188 
L 187.89101 146.541994 
L 190.581736 146.185801 
L 193.272461 145.829607 
L 195.963186 145.473413 
L 198.653912 145.117219 
L 201.344637 144.761025 
L 204.035363 144.404831 
L 206.726088 144.048637 
L 209.416814 143.692443 
L 212.107539 143.336249 
L 214.798264 142.980055 
L 217.48899 142.623861 
L 220.179715 142.267667 
L 222.870441 141.911474 
L 225.561166 141.55528 
L 228.251892 141.199086 
L 230.942617 140.842892 
L 233.633343 140.486698 
L 236.324068 140.130504 
L 239.014793 139.77431 
L 241.705519 139.418116 
L 244.396244 139.061922 
L 247.08697 138.705728 
L 249.777695 138.349534 
L 252.468421 137.99334 
L 255.159146 137.637146 
L 257.849871 137.280953 
L 260.540597 136.924759 
L 263.231322 136.568565 
L 265.922048 136.212371 
L 268.612773 135.856177 
L 271.303499 135.499983 
L 273.994224 135.143789 
L 276.684949 134.787595 
L 279.375675 134.431401 
L 282.0664 134.075207 
L 284.757126 133.719013 
L 287.447851 133.362819 
L 290.138577 133.006625 
L 292.829302 132.650432 
L 295.520028 132.294238 
L 298.210753 131.938044 
L 300.901478 131.58185 
L 303.592204 131.225656 
L 306.282929 130.869462 
L 308.973655 130.513268 
L 311.66438 130.157074 
L 314.355106 129.80088 
L 317.045831 129.444686 
L 319.736556 129.088492 
L 322.427282 128.732298 
L 325.118007 128.376105 
L 327.808733 128.019911 
L 330.499458 127.663717 
L 333.190184 127.307523 
L 335.880909 126.951329 
" clip-path="url(#p2ed28a4ffb)" style="fill: none; stroke: #1f77b4; stroke-width: 2.25; stroke-linecap: square"/>
   </g>
   <g id="patch_3">
    <path d="M 56.18 317.93875 
L 56.18 10.8 
" style="fill: none; stroke: #000000; stroke-width: 0.8; stroke-linejoin: miter; stroke-linecap: square"/>
   </g>
   <g id="patch_4">
    <path d="M 56.18 317.93875 
L 349.2 317.93875 
" style="fill: none; stroke: #000000; stroke-width: 0.8; stroke-linejoin: miter; stroke-linecap: square"/>
   </g>
  </g>
 </g>
 <defs>
  <clipPath id="p2ed28a4ffb">
   <rect x="56.18" y="10.8" width="293.02" height="307.13875"/>
  </clipPath>
 </defs>
</svg>
