<?xml version="1.0" encoding="utf-8" standalone="no"?>
<!DOCTYPE svg PUBLIC "-//W3C//DTD SVG 1.1//EN"
  "http://www.w3.org/Graphics/SVG/1.1/DTD/svg11.dtd">
<svg xmlns:xlink="http://www.w3.org/1999/xlink" width="360pt" height="360pt" viewBox="0 0 360 360" xmlns="http://www.w3.org/2000/svg" version="1.1">
 <metadata>
  <rdf:RDF xmlns:dc="http://purl.org/dc/elements/1.1/" xmlns:cc="http://creativecommons.org/ns#" xmlns:rdf="http://www.w3.org/1999/02/22-rdf-syntax-ns#">
   <cc:Work>
    <dc:type rdf:resource="http://purl.org/dc/dcmitype/StillImage"/>
    <dc:date>2022-11-22T21:48:49.259444</dc:date>
    <dc:format>image/svg+xml</dc:format>
    <dc:creator>
     <cc:Agent>
      <dc:title>Matplotlib v3.5.3, https://matplotlib.org/</dc:title>
     </cc:Agent>
    </dc:creator>
   </cc:Work>
  </rdf:RDF>
 </metadata>
 <defs>
  <style type="text/css">*{stroke-linejoin: round; stroke-linecap: butt}</style>
 </defs>
 <g id="figure_1">
  <g id="patch_1">
   <path d="M 0 360 
L 360 360 
L 360 0 
L 0 0 
z
" style="fill: #ffffff"/>
  </g>
  <g id="axes_1">
   <g id="patch_2">
    <path d="M 62.57 317.93875 
L 349.2 317.93875 
L 349.2 10.8 
L 62.57 10.8 
z
" style="fill: #ffffff"/>
   </g>
   <g id="PathCollection_1">
    <defs>
     <path id="m10aeb22610" d="M 0 3 
C 0.795609 3 1.55874 2.683901 2.12132 2.12132 
C 2.683901 1.55874 3 0.795609 3 0 
C 3 -0.795609 2.683901 -1.55874 2.12132 -2.12132 
C 1.55874 -2.683901 0.795609 -3 0 -3 
C -0.795609 -3 -1.55874 -2.683901 -2.12132 -2.12132 
C -2.683901 -1.55874 -3 -0.795609 -3 0 
C -3 0.795609 -2.683901 1.55874 -2.12132 2.12132 
C -1.55874 2.683901 -0.795609 3 0 3 
z
" style="stroke: #1f77b4; stroke-opacity: 0.8"/>
    </defs>
    <g clip-path="url(#pd320a3a926)">
     <use xlink:href="#m10aeb22610" x="220.361263" y="182.659558" style="fill: #1f77b4; fill-opacity: 0.8; stroke: #1f77b4; stroke-opacity: 0.8"/>
     <use xlink:href="#m10aeb22610" x="220.361263" y="281.320013" style="fill: #1f77b4; fill-opacity: 0.8; stroke: #1f77b4; stroke-opacity: 0.8"/>
     <use xlink:href="#m10aeb22610" x="278.266313" y="222.627486" style="fill: #1f77b4; fill-opacity: 0.8; stroke: #1f77b4; stroke-opacity: 0.8"/>
     <use xlink:href="#m10aeb22610" x="191.408737" y="86.279808" style="fill: #1f77b4; fill-opacity: 0.8; stroke: #1f77b4; stroke-opacity: 0.8"/>
     <use xlink:href="#m10aeb22610" x="249.313788" y="222.810232" style="fill: #1f77b4; fill-opacity: 0.8; stroke: #1f77b4; stroke-opacity: 0.8"/>
     <use xlink:href="#m10aeb22610" x="162.456212" y="292.075431" style="fill: #1f77b4; fill-opacity: 0.8; stroke: #1f77b4; stroke-opacity: 0.8"/>
     <use xlink:href="#m10aeb22610" x="278.266313" y="213.278926" style="fill: #1f77b4; fill-opacity: 0.8; stroke: #1f77b4; stroke-opacity: 0.8"/>
     <use xlink:href="#m10aeb22610" x="75.598636" y="230.22825" style="fill: #1f77b4; fill-opacity: 0.8; stroke: #1f77b4; stroke-opacity: 0.8"/>
     <use xlink:href="#m10aeb22610" x="336.171364" y="161.935855" style="fill: #1f77b4; fill-opacity: 0.8; stroke: #1f77b4; stroke-opacity: 0.8"/>
     <use xlink:href="#m10aeb22610" x="104.551162" y="194.578051" style="fill: #1f77b4; fill-opacity: 0.8; stroke: #1f77b4; stroke-opacity: 0.8"/>
     <use xlink:href="#m10aeb22610" x="307.218838" y="190.949735" style="fill: #1f77b4; fill-opacity: 0.8; stroke: #1f77b4; stroke-opacity: 0.8"/>
     <use xlink:href="#m10aeb22610" x="278.266313" y="151.634433" style="fill: #1f77b4; fill-opacity: 0.8; stroke: #1f77b4; stroke-opacity: 0.8"/>
     <use xlink:href="#m10aeb22610" x="162.456212" y="195.7473" style="fill: #1f77b4; fill-opacity: 0.8; stroke: #1f77b4; stroke-opacity: 0.8"/>
     <use xlink:href="#m10aeb22610" x="278.266313" y="202.796151" style="fill: #1f77b4; fill-opacity: 0.8; stroke: #1f77b4; stroke-opacity: 0.8"/>
     <use xlink:href="#m10aeb22610" x="133.503687" y="181.607972" style="fill: #1f77b4; fill-opacity: 0.8; stroke: #1f77b4; stroke-opacity: 0.8"/>
     <use xlink:href="#m10aeb22610" x="336.171364" y="181.500984" style="fill: #1f77b4; fill-opacity: 0.8; stroke: #1f77b4; stroke-opacity: 0.8"/>
     <use xlink:href="#m10aeb22610" x="104.551162" y="280.499286" style="fill: #1f77b4; fill-opacity: 0.8; stroke: #1f77b4; stroke-opacity: 0.8"/>
     <use xlink:href="#m10aeb22610" x="307.218838" y="147.898191" style="fill: #1f77b4; fill-opacity: 0.8; stroke: #1f77b4; stroke-opacity: 0.8"/>
     <use xlink:href="#m10aeb22610" x="278.266313" y="157.533866" style="fill: #1f77b4; fill-opacity: 0.8; stroke: #1f77b4; stroke-opacity: 0.8"/>
     <use xlink:href="#m10aeb22610" x="249.313788" y="215.664056" style="fill: #1f77b4; fill-opacity: 0.8; stroke: #1f77b4; stroke-opacity: 0.8"/>
     <use xlink:href="#m10aeb22610" x="162.456212" y="185.618122" style="fill: #1f77b4; fill-opacity: 0.8; stroke: #1f77b4; stroke-opacity: 0.8"/>
     <use xlink:href="#m10aeb22610" x="133.503687" y="211.665436" style="fill: #1f77b4; fill-opacity: 0.8; stroke: #1f77b4; stroke-opacity: 0.8"/>
     <use xlink:href="#m10aeb22610" x="336.171364" y="24.760852" style="fill: #1f77b4; fill-opacity: 0.8; stroke: #1f77b4; stroke-opacity: 0.8"/>
     <use xlink:href="#m10aeb22610" x="191.408737" y="224.792255" style="fill: #1f77b4; fill-opacity: 0.8; stroke: #1f77b4; stroke-opacity: 0.8"/>
     <use xlink:href="#m10aeb22610" x="133.503687" y="239.128719" style="fill: #1f77b4; fill-opacity: 0.8; stroke: #1f77b4; stroke-opacity: 0.8"/>
     <use xlink:href="#m10aeb22610" x="75.598636" y="264.247472" style="fill: #1f77b4; fill-opacity: 0.8; stroke: #1f77b4; stroke-opacity: 0.8"/>
     <use xlink:href="#m10aeb22610" x="133.503687" y="215.725487" style="fill: #1f77b4; fill-opacity: 0.8; stroke: #1f77b4; stroke-opacity: 0.8"/>
     <use xlink:href="#m10aeb22610" x="336.171364" y="255.080208" style="fill: #1f77b4; fill-opacity: 0.8; stroke: #1f77b4; stroke-opacity: 0.8"/>
     <use xlink:href="#m10aeb22610" x="220.361263" y="257.209992" style="fill: #1f77b4; fill-opacity: 0.8; stroke: #1f77b4; stroke-opacity: 0.8"/>
     <use xlink:href="#m10aeb22610" x="249.313788" y="296.589642" style="fill: #1f77b4; fill-opacity: 0.8; stroke: #1f77b4; stroke-opacity: 0.8"/>
     <use xlink:href="#m10aeb22610" x="336.171364" y="215.493209" style="fill: #1f77b4; fill-opacity: 0.8; stroke: #1f77b4; stroke-opacity: 0.8"/>
     <use xlink:href="#m10aeb22610" x="162.456212" y="128.686188" style="fill: #1f77b4; fill-opacity: 0.8; stroke: #1f77b4; stroke-opacity: 0.8"/>
     <use xlink:href="#m10aeb22610" x="220.361263" y="252.614372" style="fill: #1f77b4; fill-opacity: 0.8; stroke: #1f77b4; stroke-opacity: 0.8"/>
     <use xlink:href="#m10aeb22610" x="104.551162" y="188.903056" style="fill: #1f77b4; fill-opacity: 0.8; stroke: #1f77b4; stroke-opacity: 0.8"/>
     <use xlink:href="#m10aeb22610" x="133.503687" y="205.914228" style="fill: #1f77b4; fill-opacity: 0.8; stroke: #1f77b4; stroke-opacity: 0.8"/>
     <use xlink:href="#m10aeb22610" x="75.598636" y="257.246536" style="fill: #1f77b4; fill-opacity: 0.8; stroke: #1f77b4; stroke-opacity: 0.8"/>
     <use xlink:href="#m10aeb22610" x="307.218838" y="114.486807" style="fill: #1f77b4; fill-opacity: 0.8; stroke: #1f77b4; stroke-opacity: 0.8"/>
     <use xlink:href="#m10aeb22610" x="75.598636" y="200.981743" style="fill: #1f77b4; fill-opacity: 0.8; stroke: #1f77b4; stroke-opacity: 0.8"/>
     <use xlink:href="#m10aeb22610" x="104.551162" y="72.005308" style="fill: #1f77b4; fill-opacity: 0.8; stroke: #1f77b4; stroke-opacity: 0.8"/>
     <use xlink:href="#m10aeb22610" x="191.408737" y="303.977898" style="fill: #1f77b4; fill-opacity: 0.8; stroke: #1f77b4; stroke-opacity: 0.8"/>
     <use xlink:href="#m10aeb22610" x="307.218838" y="119.331101" style="fill: #1f77b4; fill-opacity: 0.8; stroke: #1f77b4; stroke-opacity: 0.8"/>
     <use xlink:href="#m10aeb22610" x="249.313788" y="273.82094" style="fill: #1f77b4; fill-opacity: 0.8; stroke: #1f77b4; stroke-opacity: 0.8"/>
     <use xlink:href="#m10aeb22610" x="104.551162" y="214.071586" style="fill: #1f77b4; fill-opacity: 0.8; stroke: #1f77b4; stroke-opacity: 0.8"/>
     <use xlink:href="#m10aeb22610" x="162.456212" y="201.171343" style="fill: #1f77b4; fill-opacity: 0.8; stroke: #1f77b4; stroke-opacity: 0.8"/>
     <use xlink:href="#m10aeb22610" x="104.551162" y="274.011873" style="fill: #1f77b4; fill-opacity: 0.8; stroke: #1f77b4; stroke-opacity: 0.8"/>
     <use xlink:href="#m10aeb22610" x="220.361263" y="208.014743" style="fill: #1f77b4; fill-opacity: 0.8; stroke: #1f77b4; stroke-opacity: 0.8"/>
     <use xlink:href="#m10aeb22610" x="249.313788" y="215.097877" style="fill: #1f77b4; fill-opacity: 0.8; stroke: #1f77b4; stroke-opacity: 0.8"/>
    </g>
   </g>
   <g id="PolyCollection_1">
    <path d="M 75.598636 202.707203 
L 75.598636 255.174443 
L 78.230684 254.168125 
L 80.862732 253.180826 
L 83.49478 252.193528 
L 86.126827 251.357856 
L 88.758875 250.569221 
L 91.390923 249.767132 
L 94.022971 248.972298 
L 96.655018 248.177112 
L 99.287066 247.381925 
L 101.919114 246.586739 
L 104.551162 245.788642 
L 107.183209 244.988894 
L 109.815257 244.107504 
L 112.447305 243.2978 
L 115.079353 242.599358 
L 117.7114 241.862125 
L 120.343448 241.318401 
L 122.975496 240.864773 
L 125.607544 239.997993 
L 128.239591 239.219148 
L 130.871639 238.111914 
L 133.503687 237.229885 
L 136.135735 236.631678 
L 138.767782 236.122297 
L 141.39983 235.387089 
L 144.031878 234.840835 
L 146.663926 234.161793 
L 149.295973 233.328514 
L 151.928021 232.625232 
L 154.560069 231.811333 
L 157.192117 231.222265 
L 159.824164 230.474658 
L 162.456212 229.72515 
L 165.08826 229.02079 
L 167.720308 228.407107 
L 170.352355 227.903343 
L 172.984403 227.423466 
L 175.616451 226.99105 
L 178.248499 226.431554 
L 180.880546 225.971963 
L 183.512594 225.388767 
L 186.144642 224.824114 
L 188.77669 224.203978 
L 191.408737 223.549121 
L 194.040785 222.811763 
L 196.672833 222.088394 
L 199.304881 221.901068 
L 201.936928 221.256525 
L 204.568976 220.741851 
L 207.201024 220.2922 
L 209.833072 219.912295 
L 212.465119 219.628817 
L 215.097167 219.240299 
L 217.729215 219.049864 
L 220.361263 218.777071 
L 222.99331 218.471293 
L 225.625358 218.146241 
L 228.257406 218.005485 
L 230.889454 217.861175 
L 233.521501 217.712242 
L 236.153549 217.257562 
L 238.785597 217.185235 
L 241.417645 216.876518 
L 244.049692 216.659404 
L 246.68174 216.379119 
L 249.313788 216.097159 
L 251.945836 215.896091 
L 254.577883 215.838273 
L 257.209931 215.521471 
L 259.841979 215.133704 
L 262.474027 214.738362 
L 265.106074 214.708451 
L 267.738122 214.357147 
L 270.37017 214.119887 
L 273.002218 213.920395 
L 275.634265 213.713399 
L 278.266313 213.506354 
L 280.898361 213.299309 
L 283.530409 213.092264 
L 286.162456 212.884157 
L 288.794504 212.678175 
L 291.426552 212.383529 
L 294.0586 212.316464 
L 296.690647 212.301635 
L 299.322695 212.286805 
L 301.954743 212.271976 
L 304.586791 212.257146 
L 307.218838 212.241667 
L 309.850886 212.220609 
L 312.482934 212.199551 
L 315.114982 211.988184 
L 317.747029 211.904117 
L 320.379077 211.762119 
L 323.011125 211.820428 
L 325.643173 211.847783 
L 328.27522 211.861088 
L 330.907268 211.871404 
L 333.539316 211.881136 
L 336.171364 212.039843 
L 336.171364 145.930519 
L 336.171364 145.930519 
L 333.539316 146.981115 
L 330.907268 148.033222 
L 328.27522 149.255153 
L 325.643173 150.518832 
L 323.011125 151.450226 
L 320.379077 152.381619 
L 317.747029 153.313013 
L 315.114982 154.299021 
L 312.482934 155.340056 
L 309.850886 156.38109 
L 307.218838 157.422125 
L 304.586791 158.46316 
L 301.954743 159.505388 
L 299.322695 160.378131 
L 296.690647 161.127977 
L 294.0586 162.217654 
L 291.426552 162.960703 
L 288.794504 163.543168 
L 286.162456 164.606284 
L 283.530409 165.6694 
L 280.898361 166.583971 
L 278.266313 167.303135 
L 275.634265 168.018308 
L 273.002218 168.732224 
L 270.37017 169.582452 
L 267.738122 170.457744 
L 265.106074 171.251955 
L 262.474027 171.838382 
L 259.841979 173.032851 
L 257.209931 174.104725 
L 254.577883 174.884506 
L 251.945836 175.572673 
L 249.313788 176.443601 
L 246.68174 177.307189 
L 244.049692 178.043132 
L 241.417645 178.64976 
L 238.785597 179.261378 
L 236.153549 179.975111 
L 233.521501 180.563153 
L 230.889454 181.176903 
L 228.257406 181.860713 
L 225.625358 182.652474 
L 222.99331 183.230557 
L 220.361263 183.815558 
L 217.729215 184.482647 
L 215.097167 185.312507 
L 212.465119 185.770609 
L 209.833072 186.446883 
L 207.201024 187.131701 
L 204.568976 187.817253 
L 201.936928 188.696512 
L 199.304881 189.285907 
L 196.672833 190.065395 
L 194.040785 190.639955 
L 191.408737 191.117797 
L 188.77669 191.627743 
L 186.144642 192.287386 
L 183.512594 192.791944 
L 180.880546 193.343945 
L 178.248499 193.902263 
L 175.616451 194.189635 
L 172.984403 194.39222 
L 170.352355 194.990796 
L 167.720308 195.157554 
L 165.08826 195.482219 
L 162.456212 195.692488 
L 159.824164 195.89796 
L 157.192117 196.06657 
L 154.560069 196.587097 
L 151.928021 196.786986 
L 149.295973 197.345703 
L 146.663926 197.75585 
L 144.031878 198.354238 
L 141.39983 198.62936 
L 138.767782 198.984078 
L 136.135735 199.334706 
L 133.503687 199.549746 
L 130.871639 199.798719 
L 128.239591 200.022429 
L 125.607544 200.099711 
L 122.975496 200.207487 
L 120.343448 200.188702 
L 117.7114 200.256355 
L 115.079353 200.30217 
L 112.447305 200.214336 
L 109.815257 200.338036 
L 107.183209 200.682873 
L 104.551162 201.020722 
L 101.919114 201.062881 
L 99.287066 201.100857 
L 96.655018 201.086927 
L 94.022971 201.145016 
L 91.390923 201.411792 
L 88.758875 201.679038 
L 86.126827 201.946285 
L 83.49478 202.213531 
L 80.862732 202.480778 
L 78.230684 202.719781 
L 75.598636 202.707203 
z
" clip-path="url(#pd320a3a926)" style="fill: #1f77b4; fill-opacity: 0.15"/>
   </g>
   <g id="matplotlib.axis_1">
    <g id="xtick_1">
     <g id="line2d_1">
      <defs>
       <path id="meef708d955" d="M 0 0 
L 0 3.5 
" style="stroke: #000000; stroke-width: 0.8"/>
      </defs>
      <g>
       <use xlink:href="#meef708d955" x="90.961201" y="317.93875" style="stroke: #000000; stroke-width: 0.8"/>
      </g>
     </g>
     <g id="text_1">
      <text style="font: 10px 'sans-serif'; text-anchor: middle" x="90.961201" y="332.537188" transform="rotate(-0, 90.961201, 332.537188)">−4</text>
     </g>
    </g>
    <g id="xtick_2">
     <g id="line2d_2">
      <g>
       <use xlink:href="#meef708d955" x="148.866251" y="317.93875" style="stroke: #000000; stroke-width: 0.8"/>
      </g>
     </g>
     <g id="text_2">
      <text style="font: 10px 'sans-serif'; text-anchor: middle" x="148.866251" y="332.537188" transform="rotate(-0, 148.866251, 332.537188)">−2</text>
     </g>
    </g>
    <g id="xtick_3">
     <g id="line2d_3">
      <g>
       <use xlink:href="#meef708d955" x="206.771302" y="317.93875" style="stroke: #000000; stroke-width: 0.8"/>
      </g>
     </g>
     <g id="text_3">
      <text style="font: 10px 'sans-serif'; text-anchor: middle" x="206.771302" y="332.537188" transform="rotate(-0, 206.771302, 332.537188)">0</text>
     </g>
    </g>
    <g id="xtick_4">
     <g id="line2d_4">
      <g>
       <use xlink:href="#meef708d955" x="264.676352" y="317.93875" style="stroke: #000000; stroke-width: 0.8"/>
      </g>
     </g>
     <g id="text_4">
      <text style="font: 10px 'sans-serif'; text-anchor: middle" x="264.676352" y="332.537188" transform="rotate(-0, 264.676352, 332.537188)">2</text>
     </g>
    </g>
    <g id="xtick_5">
     <g id="line2d_5">
      <g>
       <use xlink:href="#meef708d955" x="322.581403" y="317.93875" style="stroke: #000000; stroke-width: 0.8"/>
      </g>
     </g>
     <g id="text_5">
      <text style="font: 10px 'sans-serif'; text-anchor: middle" x="322.581403" y="332.537188" transform="rotate(-0, 322.581403, 332.537188)">4</text>
     </g>
    </g>
    <g id="text_6">
     <text style="font: 10px 'sans-serif'; text-anchor: middle" x="205.885" y="346.215312" transform="rotate(-0, 205.885, 346.215312)">Composite_Reward</text>
    </g>
   </g>
   <g id="matplotlib.axis_2">
    <g id="ytick_1">
     <g id="line2d_6">
      <defs>
       <path id="mbbb44425f8" d="M 0 0 
L -3.5 0 
" style="stroke: #000000; stroke-width: 0.8"/>
      </defs>
      <g>
       <use xlink:href="#mbbb44425f8" x="62.57" y="285.148285" style="stroke: #000000; stroke-width: 0.8"/>
      </g>
     </g>
     <g id="text_7">
      <text style="font: 10px 'sans-serif'; text-anchor: end" x="55.57" y="288.947504" transform="rotate(-0, 55.57, 288.947504)">−0.50</text>
     </g>
    </g>
    <g id="ytick_2">
     <g id="line2d_7">
      <g>
       <use xlink:href="#mbbb44425f8" x="62.57" y="247.617518" style="stroke: #000000; stroke-width: 0.8"/>
      </g>
     </g>
     <g id="text_8">
      <text style="font: 10px 'sans-serif'; text-anchor: end" x="55.57" y="251.416737" transform="rotate(-0, 55.57, 251.416737)">−0.25</text>
     </g>
    </g>
    <g id="ytick_3">
     <g id="line2d_8">
      <g>
       <use xlink:href="#mbbb44425f8" x="62.57" y="210.086751" style="stroke: #000000; stroke-width: 0.8"/>
      </g>
     </g>
     <g id="text_9">
      <text style="font: 10px 'sans-serif'; text-anchor: end" x="55.57" y="213.885969" transform="rotate(-0, 55.57, 213.885969)">0.00</text>
     </g>
    </g>
    <g id="ytick_4">
     <g id="line2d_9">
      <g>
       <use xlink:href="#mbbb44425f8" x="62.57" y="172.555983" style="stroke: #000000; stroke-width: 0.8"/>
      </g>
     </g>
     <g id="text_10">
      <text style="font: 10px 'sans-serif'; text-anchor: end" x="55.57" y="176.355202" transform="rotate(-0, 55.57, 176.355202)">0.25</text>
     </g>
    </g>
    <g id="ytick_5">
     <g id="line2d_10">
      <g>
       <use xlink:href="#mbbb44425f8" x="62.57" y="135.025216" style="stroke: #000000; stroke-width: 0.8"/>
      </g>
     </g>
     <g id="text_11">
      <text style="font: 10px 'sans-serif'; text-anchor: end" x="55.57" y="138.824435" transform="rotate(-0, 55.57, 138.824435)">0.50</text>
     </g>
    </g>
    <g id="ytick_6">
     <g id="line2d_11">
      <g>
       <use xlink:href="#mbbb44425f8" x="62.57" y="97.494449" style="stroke: #000000; stroke-width: 0.8"/>
      </g>
     </g>
     <g id="text_12">
      <text style="font: 10px 'sans-serif'; text-anchor: end" x="55.57" y="101.293668" transform="rotate(-0, 55.57, 101.293668)">0.75</text>
     </g>
    </g>
    <g id="ytick_7">
     <g id="line2d_12">
      <g>
       <use xlink:href="#mbbb44425f8" x="62.57" y="59.963682" style="stroke: #000000; stroke-width: 0.8"/>
      </g>
     </g>
     <g id="text_13">
      <text style="font: 10px 'sans-serif'; text-anchor: end" x="55.57" y="63.7629" transform="rotate(-0, 55.57, 63.7629)">1.00</text>
     </g>
    </g>
    <g id="ytick_8">
     <g id="line2d_13">
      <g>
       <use xlink:href="#mbbb44425f8" x="62.57" y="22.432914" style="stroke: #000000; stroke-width: 0.8"/>
      </g>
     </g>
     <g id="text_14">
      <text style="font: 10px 'sans-serif'; text-anchor: end" x="55.57" y="26.232133" transform="rotate(-0, 55.57, 26.232133)">1.25</text>
     </g>
    </g>
    <g id="text_15">
     <text style="font: 10px 'sans-serif'; text-anchor: middle" x="18.845" y="164.369375" transform="rotate(-90, 18.845, 164.369375)">Conn Gain&gt;Loss</text>
    </g>
   </g>
   <g id="line2d_14">
    <path d="M 75.598636 228.932995 
L 78.230684 228.437074 
L 80.862732 227.941153 
L 83.49478 227.445231 
L 86.126827 226.94931 
L 88.758875 226.453389 
L 91.390923 225.957467 
L 94.022971 225.461546 
L 96.655018 224.965625 
L 99.287066 224.469704 
L 101.919114 223.973782 
L 104.551162 223.477861 
L 107.183209 222.98194 
L 109.815257 222.486018 
L 112.447305 221.990097 
L 115.079353 221.494176 
L 117.7114 220.998254 
L 120.343448 220.502333 
L 122.975496 220.006412 
L 125.607544 219.510491 
L 128.239591 219.014569 
L 130.871639 218.518648 
L 133.503687 218.022727 
L 136.135735 217.526805 
L 138.767782 217.030884 
L 141.39983 216.534963 
L 144.031878 216.039041 
L 146.663926 215.54312 
L 149.295973 215.047199 
L 151.928021 214.551278 
L 154.560069 214.055356 
L 157.192117 213.559435 
L 159.824164 213.063514 
L 162.456212 212.567592 
L 165.08826 212.071671 
L 167.720308 211.57575 
L 170.352355 211.079828 
L 172.984403 210.583907 
L 175.616451 210.087986 
L 178.248499 209.592065 
L 180.880546 209.096143 
L 183.512594 208.600222 
L 186.144642 208.104301 
L 188.77669 207.608379 
L 191.408737 207.112458 
L 194.040785 206.616537 
L 196.672833 206.120615 
L 199.304881 205.624694 
L 201.936928 205.128773 
L 204.568976 204.632852 
L 207.201024 204.13693 
L 209.833072 203.641009 
L 212.465119 203.145088 
L 215.097167 202.649166 
L 217.729215 202.153245 
L 220.361263 201.657324 
L 222.99331 201.161402 
L 225.625358 200.665481 
L 228.257406 200.16956 
L 230.889454 199.673639 
L 233.521501 199.177717 
L 236.153549 198.681796 
L 238.785597 198.185875 
L 241.417645 197.689953 
L 244.049692 197.194032 
L 246.68174 196.698111 
L 249.313788 196.202189 
L 251.945836 195.706268 
L 254.577883 195.210347 
L 257.209931 194.714426 
L 259.841979 194.218504 
L 262.474027 193.722583 
L 265.106074 193.226662 
L 267.738122 192.73074 
L 270.37017 192.234819 
L 273.002218 191.738898 
L 275.634265 191.242976 
L 278.266313 190.747055 
L 280.898361 190.251134 
L 283.530409 189.755213 
L 286.162456 189.259291 
L 288.794504 188.76337 
L 291.426552 188.267449 
L 294.0586 187.771527 
L 296.690647 187.275606 
L 299.322695 186.779685 
L 301.954743 186.283763 
L 304.586791 185.787842 
L 307.218838 185.291921 
L 309.850886 184.796 
L 312.482934 184.300078 
L 315.114982 183.804157 
L 317.747029 183.308236 
L 320.379077 182.812314 
L 323.011125 182.316393 
L 325.643173 181.820472 
L 328.27522 181.32455 
L 330.907268 180.828629 
L 333.539316 180.332708 
L 336.171364 179.836787 
" clip-path="url(#pd320a3a926)" style="fill: none; stroke: #1f77b4; stroke-width: 2.25; stroke-linecap: square"/>
   </g>
   <g id="patch_3">
    <path d="M 62.57 317.93875 
L 62.57 10.8 
" style="fill: none; stroke: #000000; stroke-width: 0.8; stroke-linejoin: miter; stroke-linecap: square"/>
   </g>
   <g id="patch_4">
    <path d="M 62.57 317.93875 
L 349.2 317.93875 
" style="fill: none; stroke: #000000; stroke-width: 0.8; stroke-linejoin: miter; stroke-linecap: square"/>
   </g>
  </g>
 </g>
 <defs>
  <clipPath id="pd320a3a926">
   <rect x="62.57" y="10.8" width="286.63" height="307.13875"/>
  </clipPath>
 </defs>
</svg>
