<?xml version="1.0" encoding="utf-8" standalone="no"?>
<!DOCTYPE svg PUBLIC "-//W3C//DTD SVG 1.1//EN"
  "http://www.w3.org/Graphics/SVG/1.1/DTD/svg11.dtd">
<svg xmlns:xlink="http://www.w3.org/1999/xlink" width="360pt" height="360pt" viewBox="0 0 360 360" xmlns="http://www.w3.org/2000/svg" version="1.1">
 <metadata>
  <rdf:RDF xmlns:dc="http://purl.org/dc/elements/1.1/" xmlns:cc="http://creativecommons.org/ns#" xmlns:rdf="http://www.w3.org/1999/02/22-rdf-syntax-ns#">
   <cc:Work>
    <dc:type rdf:resource="http://purl.org/dc/dcmitype/StillImage"/>
    <dc:date>2022-11-22T21:44:38.003923</dc:date>
    <dc:format>image/svg+xml</dc:format>
    <dc:creator>
     <cc:Agent>
      <dc:title>Matplotlib v3.5.3, https://matplotlib.org/</dc:title>
     </cc:Agent>
    </dc:creator>
   </cc:Work>
  </rdf:RDF>
 </metadata>
 <defs>
  <style type="text/css">*{stroke-linejoin: round; stroke-linecap: butt}</style>
 </defs>
 <g id="figure_1">
  <g id="patch_1">
   <path d="M 0 360 
L 360 360 
L 360 0 
L 0 0 
z
" style="fill: #ffffff"/>
  </g>
  <g id="axes_1">
   <g id="patch_2">
    <path d="M 56.18 317.93875 
L 349.2 317.93875 
L 349.2 10.8 
L 56.18 10.8 
z
" style="fill: #ffffff"/>
   </g>
   <g id="PathCollection_1">
    <defs>
     <path id="m007029965b" d="M 0 3 
C 0.795609 3 1.55874 2.683901 2.12132 2.12132 
C 2.683901 1.55874 3 0.795609 3 0 
C 3 -0.795609 2.683901 -1.55874 2.12132 -2.12132 
C 1.55874 -2.683901 0.795609 -3 0 -3 
C -0.795609 -3 -1.55874 -2.683901 -2.12132 -2.12132 
C -2.683901 -1.55874 -3 -0.795609 -3 0 
C -3 0.795609 -2.683901 1.55874 -2.12132 2.12132 
C -1.55874 2.683901 -0.795609 3 0 3 
z
" style="stroke: #1f77b4; stroke-opacity: 0.8"/>
    </defs>
    <g clip-path="url(#p9f7cf7cb6b)">
     <use xlink:href="#m007029965b" x="217.48899" y="69.066391" style="fill: #1f77b4; fill-opacity: 0.8; stroke: #1f77b4; stroke-opacity: 0.8"/>
     <use xlink:href="#m007029965b" x="217.48899" y="183.986528" style="fill: #1f77b4; fill-opacity: 0.8; stroke: #1f77b4; stroke-opacity: 0.8"/>
     <use xlink:href="#m007029965b" x="276.684949" y="129.644153" style="fill: #1f77b4; fill-opacity: 0.8; stroke: #1f77b4; stroke-opacity: 0.8"/>
     <use xlink:href="#m007029965b" x="187.89101" y="163.786469" style="fill: #1f77b4; fill-opacity: 0.8; stroke: #1f77b4; stroke-opacity: 0.8"/>
     <use xlink:href="#m007029965b" x="247.08697" y="126.209635" style="fill: #1f77b4; fill-opacity: 0.8; stroke: #1f77b4; stroke-opacity: 0.8"/>
     <use xlink:href="#m007029965b" x="158.29303" y="196.145716" style="fill: #1f77b4; fill-opacity: 0.8; stroke: #1f77b4; stroke-opacity: 0.8"/>
     <use xlink:href="#m007029965b" x="276.684949" y="148.446383" style="fill: #1f77b4; fill-opacity: 0.8; stroke: #1f77b4; stroke-opacity: 0.8"/>
     <use xlink:href="#m007029965b" x="69.499091" y="133.66516" style="fill: #1f77b4; fill-opacity: 0.8; stroke: #1f77b4; stroke-opacity: 0.8"/>
     <use xlink:href="#m007029965b" x="335.880909" y="113.824305" style="fill: #1f77b4; fill-opacity: 0.8; stroke: #1f77b4; stroke-opacity: 0.8"/>
     <use xlink:href="#m007029965b" x="99.097071" y="24.760852" style="fill: #1f77b4; fill-opacity: 0.8; stroke: #1f77b4; stroke-opacity: 0.8"/>
     <use xlink:href="#m007029965b" x="306.282929" y="133.188705" style="fill: #1f77b4; fill-opacity: 0.8; stroke: #1f77b4; stroke-opacity: 0.8"/>
     <use xlink:href="#m007029965b" x="276.684949" y="133.559327" style="fill: #1f77b4; fill-opacity: 0.8; stroke: #1f77b4; stroke-opacity: 0.8"/>
     <use xlink:href="#m007029965b" x="158.29303" y="82.128456" style="fill: #1f77b4; fill-opacity: 0.8; stroke: #1f77b4; stroke-opacity: 0.8"/>
     <use xlink:href="#m007029965b" x="276.684949" y="126.38454" style="fill: #1f77b4; fill-opacity: 0.8; stroke: #1f77b4; stroke-opacity: 0.8"/>
     <use xlink:href="#m007029965b" x="128.695051" y="78.404527" style="fill: #1f77b4; fill-opacity: 0.8; stroke: #1f77b4; stroke-opacity: 0.8"/>
     <use xlink:href="#m007029965b" x="335.880909" y="111.254758" style="fill: #1f77b4; fill-opacity: 0.8; stroke: #1f77b4; stroke-opacity: 0.8"/>
     <use xlink:href="#m007029965b" x="99.097071" y="230.31698" style="fill: #1f77b4; fill-opacity: 0.8; stroke: #1f77b4; stroke-opacity: 0.8"/>
     <use xlink:href="#m007029965b" x="306.282929" y="144.508383" style="fill: #1f77b4; fill-opacity: 0.8; stroke: #1f77b4; stroke-opacity: 0.8"/>
     <use xlink:href="#m007029965b" x="276.684949" y="77.662245" style="fill: #1f77b4; fill-opacity: 0.8; stroke: #1f77b4; stroke-opacity: 0.8"/>
     <use xlink:href="#m007029965b" x="247.08697" y="90.850027" style="fill: #1f77b4; fill-opacity: 0.8; stroke: #1f77b4; stroke-opacity: 0.8"/>
     <use xlink:href="#m007029965b" x="158.29303" y="139.76883" style="fill: #1f77b4; fill-opacity: 0.8; stroke: #1f77b4; stroke-opacity: 0.8"/>
     <use xlink:href="#m007029965b" x="128.695051" y="115.089055" style="fill: #1f77b4; fill-opacity: 0.8; stroke: #1f77b4; stroke-opacity: 0.8"/>
     <use xlink:href="#m007029965b" x="335.880909" y="116.124585" style="fill: #1f77b4; fill-opacity: 0.8; stroke: #1f77b4; stroke-opacity: 0.8"/>
     <use xlink:href="#m007029965b" x="187.89101" y="194.543589" style="fill: #1f77b4; fill-opacity: 0.8; stroke: #1f77b4; stroke-opacity: 0.8"/>
     <use xlink:href="#m007029965b" x="128.695051" y="133.242997" style="fill: #1f77b4; fill-opacity: 0.8; stroke: #1f77b4; stroke-opacity: 0.8"/>
     <use xlink:href="#m007029965b" x="69.499091" y="303.977898" style="fill: #1f77b4; fill-opacity: 0.8; stroke: #1f77b4; stroke-opacity: 0.8"/>
     <use xlink:href="#m007029965b" x="128.695051" y="122.388956" style="fill: #1f77b4; fill-opacity: 0.8; stroke: #1f77b4; stroke-opacity: 0.8"/>
     <use xlink:href="#m007029965b" x="335.880909" y="155.902356" style="fill: #1f77b4; fill-opacity: 0.8; stroke: #1f77b4; stroke-opacity: 0.8"/>
     <use xlink:href="#m007029965b" x="217.48899" y="85.758828" style="fill: #1f77b4; fill-opacity: 0.8; stroke: #1f77b4; stroke-opacity: 0.8"/>
     <use xlink:href="#m007029965b" x="247.08697" y="130.413139" style="fill: #1f77b4; fill-opacity: 0.8; stroke: #1f77b4; stroke-opacity: 0.8"/>
     <use xlink:href="#m007029965b" x="335.880909" y="66.728224" style="fill: #1f77b4; fill-opacity: 0.8; stroke: #1f77b4; stroke-opacity: 0.8"/>
     <use xlink:href="#m007029965b" x="158.29303" y="64.27674" style="fill: #1f77b4; fill-opacity: 0.8; stroke: #1f77b4; stroke-opacity: 0.8"/>
     <use xlink:href="#m007029965b" x="217.48899" y="141.771694" style="fill: #1f77b4; fill-opacity: 0.8; stroke: #1f77b4; stroke-opacity: 0.8"/>
     <use xlink:href="#m007029965b" x="99.097071" y="65.7032" style="fill: #1f77b4; fill-opacity: 0.8; stroke: #1f77b4; stroke-opacity: 0.8"/>
     <use xlink:href="#m007029965b" x="128.695051" y="157.472237" style="fill: #1f77b4; fill-opacity: 0.8; stroke: #1f77b4; stroke-opacity: 0.8"/>
     <use xlink:href="#m007029965b" x="69.499091" y="142.911493" style="fill: #1f77b4; fill-opacity: 0.8; stroke: #1f77b4; stroke-opacity: 0.8"/>
     <use xlink:href="#m007029965b" x="306.282929" y="116.496109" style="fill: #1f77b4; fill-opacity: 0.8; stroke: #1f77b4; stroke-opacity: 0.8"/>
     <use xlink:href="#m007029965b" x="69.499091" y="61.078548" style="fill: #1f77b4; fill-opacity: 0.8; stroke: #1f77b4; stroke-opacity: 0.8"/>
     <use xlink:href="#m007029965b" x="99.097071" y="96.63333" style="fill: #1f77b4; fill-opacity: 0.8; stroke: #1f77b4; stroke-opacity: 0.8"/>
     <use xlink:href="#m007029965b" x="187.89101" y="226.527998" style="fill: #1f77b4; fill-opacity: 0.8; stroke: #1f77b4; stroke-opacity: 0.8"/>
     <use xlink:href="#m007029965b" x="306.282929" y="221.82073" style="fill: #1f77b4; fill-opacity: 0.8; stroke: #1f77b4; stroke-opacity: 0.8"/>
     <use xlink:href="#m007029965b" x="247.08697" y="105.022762" style="fill: #1f77b4; fill-opacity: 0.8; stroke: #1f77b4; stroke-opacity: 0.8"/>
     <use xlink:href="#m007029965b" x="99.097071" y="233.812442" style="fill: #1f77b4; fill-opacity: 0.8; stroke: #1f77b4; stroke-opacity: 0.8"/>
     <use xlink:href="#m007029965b" x="158.29303" y="111.975784" style="fill: #1f77b4; fill-opacity: 0.8; stroke: #1f77b4; stroke-opacity: 0.8"/>
     <use xlink:href="#m007029965b" x="99.097071" y="135.960754" style="fill: #1f77b4; fill-opacity: 0.8; stroke: #1f77b4; stroke-opacity: 0.8"/>
     <use xlink:href="#m007029965b" x="217.48899" y="120.666369" style="fill: #1f77b4; fill-opacity: 0.8; stroke: #1f77b4; stroke-opacity: 0.8"/>
     <use xlink:href="#m007029965b" x="247.08697" y="141.18717" style="fill: #1f77b4; fill-opacity: 0.8; stroke: #1f77b4; stroke-opacity: 0.8"/>
    </g>
   </g>
   <g id="PolyCollection_1">
    <path d="M 69.499091 104.856181 
L 69.499091 176.708451 
L 72.189816 176.061707 
L 74.880542 175.412312 
L 77.571267 174.75768 
L 80.261993 174.103049 
L 82.952718 173.437378 
L 85.643444 172.778673 
L 88.334169 172.14881 
L 91.024894 171.480551 
L 93.71562 170.837056 
L 96.406345 170.194585 
L 99.097071 169.544884 
L 101.787796 168.979097 
L 104.478522 168.242 
L 107.169247 167.560772 
L 109.859972 166.870623 
L 112.550698 166.244799 
L 115.241423 165.636457 
L 117.932149 164.995382 
L 120.622874 164.334755 
L 123.3136 163.626397 
L 126.004325 162.877403 
L 128.695051 162.122896 
L 131.385776 161.290139 
L 134.076501 160.421064 
L 136.767227 159.865329 
L 139.457952 159.210985 
L 142.148678 158.789139 
L 144.839403 157.999778 
L 147.530129 157.392002 
L 150.220854 156.914292 
L 152.911579 156.436403 
L 155.602305 155.593612 
L 158.29303 154.972632 
L 160.983756 154.294162 
L 163.674481 153.76927 
L 166.365207 153.265982 
L 169.055932 152.670171 
L 171.746657 152.385823 
L 174.437383 151.866613 
L 177.128108 151.230552 
L 179.818834 150.619862 
L 182.509559 149.993457 
L 185.200285 149.365379 
L 187.89101 148.752345 
L 190.581736 148.466378 
L 193.272461 148.050011 
L 195.963186 147.155812 
L 198.653912 146.587899 
L 201.344637 146.197099 
L 204.035363 145.800286 
L 206.726088 145.416274 
L 209.416814 144.985253 
L 212.107539 144.579603 
L 214.798264 144.210955 
L 217.48899 143.698394 
L 220.179715 143.252645 
L 222.870441 142.815553 
L 225.561166 142.455311 
L 228.251892 142.268013 
L 230.942617 141.975123 
L 233.633343 141.880311 
L 236.324068 141.784464 
L 239.014793 141.526674 
L 241.705519 141.319424 
L 244.396244 141.319951 
L 247.08697 141.246575 
L 249.777695 141.413284 
L 252.468421 141.670279 
L 255.159146 141.447769 
L 257.849871 141.495289 
L 260.540597 141.488056 
L 263.231322 141.572342 
L 265.922048 141.608381 
L 268.612773 141.480332 
L 271.303499 141.368006 
L 273.994224 141.686722 
L 276.684949 141.894874 
L 279.375675 142.234696 
L 282.0664 142.592352 
L 284.757126 142.727377 
L 287.447851 142.81937 
L 290.138577 143.039685 
L 292.829302 143.424488 
L 295.520028 143.759133 
L 298.210753 144.093777 
L 300.901478 144.421277 
L 303.592204 144.281988 
L 306.282929 144.531577 
L 308.973655 144.811466 
L 311.66438 144.993064 
L 314.355106 145.096216 
L 317.045831 145.297285 
L 319.736556 145.486445 
L 322.427282 145.808318 
L 325.118007 145.973096 
L 327.808733 146.179394 
L 330.499458 146.410377 
L 333.190184 146.64136 
L 335.880909 146.989399 
L 335.880909 102.150936 
L 335.880909 102.150936 
L 333.190184 102.766867 
L 330.499458 103.382798 
L 327.808733 103.99873 
L 325.118007 104.616352 
L 322.427282 105.301479 
L 319.736556 105.84808 
L 317.045831 106.326309 
L 314.355106 106.947925 
L 311.66438 107.488411 
L 308.973655 108.003082 
L 306.282929 108.541215 
L 303.592204 109.248368 
L 300.901478 109.598961 
L 298.210753 110.334 
L 295.520028 110.932216 
L 292.829302 111.436962 
L 290.138577 112.015679 
L 287.447851 112.583975 
L 284.757126 113.136296 
L 282.0664 113.648329 
L 279.375675 113.665863 
L 276.684949 114.173514 
L 273.994224 114.508109 
L 271.303499 114.890087 
L 268.612773 115.508681 
L 265.922048 115.796558 
L 263.231322 116.024846 
L 260.540597 116.221555 
L 257.849871 116.135133 
L 255.159146 116.442531 
L 252.468421 116.592214 
L 249.777695 116.674943 
L 247.08697 116.735961 
L 244.396244 116.860277 
L 241.705519 117.195905 
L 239.014793 117.54702 
L 236.324068 117.713606 
L 233.633343 117.82463 
L 230.942617 117.689143 
L 228.251892 117.61713 
L 225.561166 117.66613 
L 222.870441 117.805881 
L 220.179715 117.972433 
L 217.48899 118.102382 
L 214.798264 117.89886 
L 212.107539 117.737951 
L 209.416814 117.509349 
L 206.726088 117.208406 
L 204.035363 116.982193 
L 201.344637 116.732586 
L 198.653912 116.668531 
L 195.963186 116.474189 
L 193.272461 116.233038 
L 190.581736 115.9931 
L 187.89101 115.753163 
L 185.200285 115.513225 
L 182.509559 115.37701 
L 179.818834 115.363328 
L 177.128108 115.236062 
L 174.437383 114.903402 
L 171.746657 114.718647 
L 169.055932 114.491947 
L 166.365207 114.38745 
L 163.674481 114.400742 
L 160.983756 114.414033 
L 158.29303 114.118811 
L 155.602305 113.85448 
L 152.911579 113.621089 
L 150.220854 113.288023 
L 147.530129 113.002323 
L 144.839403 112.721665 
L 142.148678 112.552316 
L 139.457952 112.277677 
L 136.767227 111.980729 
L 134.076501 111.877768 
L 131.385776 111.692772 
L 128.695051 111.458828 
L 126.004325 111.305301 
L 123.3136 111.186652 
L 120.622874 110.792189 
L 117.932149 110.449717 
L 115.241423 110.159409 
L 112.550698 109.771399 
L 109.859972 109.383389 
L 107.169247 108.99621 
L 104.478522 108.612497 
L 101.787796 108.22449 
L 99.097071 107.901747 
L 96.406345 107.61912 
L 93.71562 107.346126 
L 91.024894 107.10476 
L 88.334169 106.863393 
L 85.643444 106.622026 
L 82.952718 106.38066 
L 80.261993 106.139293 
L 77.571267 105.897927 
L 74.880542 105.65656 
L 72.189816 105.336763 
L 69.499091 104.856181 
z
" clip-path="url(#p9f7cf7cb6b)" style="fill: #1f77b4; fill-opacity: 0.15"/>
   </g>
   <g id="matplotlib.axis_1">
    <g id="xtick_1">
     <g id="line2d_1">
      <defs>
       <path id="m06cfc86eb0" d="M 0 0 
L 0 3.5 
" style="stroke: #000000; stroke-width: 0.8"/>
      </defs>
      <g>
       <use xlink:href="#m06cfc86eb0" x="85.204141" y="317.93875" style="stroke: #000000; stroke-width: 0.8"/>
      </g>
     </g>
     <g id="text_1">
      <text style="font: 10px 'sans-serif'; text-anchor: middle" x="85.204141" y="332.537188" transform="rotate(-0, 85.204141, 332.537188)">−4</text>
     </g>
    </g>
    <g id="xtick_2">
     <g id="line2d_2">
      <g>
       <use xlink:href="#m06cfc86eb0" x="144.400101" y="317.93875" style="stroke: #000000; stroke-width: 0.8"/>
      </g>
     </g>
     <g id="text_2">
      <text style="font: 10px 'sans-serif'; text-anchor: middle" x="144.400101" y="332.537188" transform="rotate(-0, 144.400101, 332.537188)">−2</text>
     </g>
    </g>
    <g id="xtick_3">
     <g id="line2d_3">
      <g>
       <use xlink:href="#m06cfc86eb0" x="203.596061" y="317.93875" style="stroke: #000000; stroke-width: 0.8"/>
      </g>
     </g>
     <g id="text_3">
      <text style="font: 10px 'sans-serif'; text-anchor: middle" x="203.596061" y="332.537188" transform="rotate(-0, 203.596061, 332.537188)">0</text>
     </g>
    </g>
    <g id="xtick_4">
     <g id="line2d_4">
      <g>
       <use xlink:href="#m06cfc86eb0" x="262.79202" y="317.93875" style="stroke: #000000; stroke-width: 0.8"/>
      </g>
     </g>
     <g id="text_4">
      <text style="font: 10px 'sans-serif'; text-anchor: middle" x="262.79202" y="332.537188" transform="rotate(-0, 262.79202, 332.537188)">2</text>
     </g>
    </g>
    <g id="xtick_5">
     <g id="line2d_5">
      <g>
       <use xlink:href="#m06cfc86eb0" x="321.98798" y="317.93875" style="stroke: #000000; stroke-width: 0.8"/>
      </g>
     </g>
     <g id="text_5">
      <text style="font: 10px 'sans-serif'; text-anchor: middle" x="321.98798" y="332.537188" transform="rotate(-0, 321.98798, 332.537188)">4</text>
     </g>
    </g>
    <g id="text_6">
     <text style="font: 10px 'sans-serif'; text-anchor: middle" x="202.69" y="346.215312" transform="rotate(-0, 202.69, 346.215312)">Composite_Reward</text>
    </g>
   </g>
   <g id="matplotlib.axis_2">
    <g id="ytick_1">
     <g id="line2d_6">
      <defs>
       <path id="me06b8e72bd" d="M 0 0 
L -3.5 0 
" style="stroke: #000000; stroke-width: 0.8"/>
      </defs>
      <g>
       <use xlink:href="#me06b8e72bd" x="56.18" y="304.002168" style="stroke: #000000; stroke-width: 0.8"/>
      </g>
     </g>
     <g id="text_7">
      <text style="font: 10px 'sans-serif'; text-anchor: end" x="49.18" y="307.801386" transform="rotate(-0, 49.18, 307.801386)">−1.0</text>
     </g>
    </g>
    <g id="ytick_2">
     <g id="line2d_7">
      <g>
       <use xlink:href="#me06b8e72bd" x="56.18" y="268.564234" style="stroke: #000000; stroke-width: 0.8"/>
      </g>
     </g>
     <g id="text_8">
      <text style="font: 10px 'sans-serif'; text-anchor: end" x="49.18" y="272.363452" transform="rotate(-0, 49.18, 272.363452)">−0.8</text>
     </g>
    </g>
    <g id="ytick_3">
     <g id="line2d_8">
      <g>
       <use xlink:href="#me06b8e72bd" x="56.18" y="233.1263" style="stroke: #000000; stroke-width: 0.8"/>
      </g>
     </g>
     <g id="text_9">
      <text style="font: 10px 'sans-serif'; text-anchor: end" x="49.18" y="236.925518" transform="rotate(-0, 49.18, 236.925518)">−0.6</text>
     </g>
    </g>
    <g id="ytick_4">
     <g id="line2d_9">
      <g>
       <use xlink:href="#me06b8e72bd" x="56.18" y="197.688366" style="stroke: #000000; stroke-width: 0.8"/>
      </g>
     </g>
     <g id="text_10">
      <text style="font: 10px 'sans-serif'; text-anchor: end" x="49.18" y="201.487584" transform="rotate(-0, 49.18, 201.487584)">−0.4</text>
     </g>
    </g>
    <g id="ytick_5">
     <g id="line2d_10">
      <g>
       <use xlink:href="#me06b8e72bd" x="56.18" y="162.250432" style="stroke: #000000; stroke-width: 0.8"/>
      </g>
     </g>
     <g id="text_11">
      <text style="font: 10px 'sans-serif'; text-anchor: end" x="49.18" y="166.04965" transform="rotate(-0, 49.18, 166.04965)">−0.2</text>
     </g>
    </g>
    <g id="ytick_6">
     <g id="line2d_11">
      <g>
       <use xlink:href="#me06b8e72bd" x="56.18" y="126.812498" style="stroke: #000000; stroke-width: 0.8"/>
      </g>
     </g>
     <g id="text_12">
      <text style="font: 10px 'sans-serif'; text-anchor: end" x="49.18" y="130.611716" transform="rotate(-0, 49.18, 130.611716)">0.0</text>
     </g>
    </g>
    <g id="ytick_7">
     <g id="line2d_12">
      <g>
       <use xlink:href="#me06b8e72bd" x="56.18" y="91.374564" style="stroke: #000000; stroke-width: 0.8"/>
      </g>
     </g>
     <g id="text_13">
      <text style="font: 10px 'sans-serif'; text-anchor: end" x="49.18" y="95.173782" transform="rotate(-0, 49.18, 95.173782)">0.2</text>
     </g>
    </g>
    <g id="ytick_8">
     <g id="line2d_13">
      <g>
       <use xlink:href="#me06b8e72bd" x="56.18" y="55.93663" style="stroke: #000000; stroke-width: 0.8"/>
      </g>
     </g>
     <g id="text_14">
      <text style="font: 10px 'sans-serif'; text-anchor: end" x="49.18" y="59.735848" transform="rotate(-0, 49.18, 59.735848)">0.4</text>
     </g>
    </g>
    <g id="ytick_9">
     <g id="line2d_14">
      <g>
       <use xlink:href="#me06b8e72bd" x="56.18" y="20.498696" style="stroke: #000000; stroke-width: 0.8"/>
      </g>
     </g>
     <g id="text_15">
      <text style="font: 10px 'sans-serif'; text-anchor: end" x="49.18" y="24.297914" transform="rotate(-0, 49.18, 24.297914)">0.6</text>
     </g>
    </g>
    <g id="text_16">
     <text style="font: 10px 'sans-serif'; text-anchor: middle" x="18.8175" y="164.369375" transform="rotate(-90, 18.8175, 164.369375)">Conn Gain&gt;Loss</text>
    </g>
   </g>
   <g id="line2d_15">
    <path d="M 69.499091 140.248318 
L 72.189816 140.08095 
L 74.880542 139.913581 
L 77.571267 139.746212 
L 80.261993 139.578844 
L 82.952718 139.411475 
L 85.643444 139.244106 
L 88.334169 139.076738 
L 91.024894 138.909369 
L 93.71562 138.742 
L 96.406345 138.574632 
L 99.097071 138.407263 
L 101.787796 138.239894 
L 104.478522 138.072526 
L 107.169247 137.905157 
L 109.859972 137.737788 
L 112.550698 137.57042 
L 115.241423 137.403051 
L 117.932149 137.235682 
L 120.622874 137.068314 
L 123.3136 136.900945 
L 126.004325 136.733576 
L 128.695051 136.566208 
L 131.385776 136.398839 
L 134.076501 136.23147 
L 136.767227 136.064102 
L 139.457952 135.896733 
L 142.148678 135.729364 
L 144.839403 135.561996 
L 147.530129 135.394627 
L 150.220854 135.227259 
L 152.911579 135.05989 
L 155.602305 134.892521 
L 158.29303 134.725153 
L 160.983756 134.557784 
L 163.674481 134.390415 
L 166.365207 134.223047 
L 169.055932 134.055678 
L 171.746657 133.888309 
L 174.437383 133.720941 
L 177.128108 133.553572 
L 179.818834 133.386203 
L 182.509559 133.218835 
L 185.200285 133.051466 
L 187.89101 132.884097 
L 190.581736 132.716729 
L 193.272461 132.54936 
L 195.963186 132.381991 
L 198.653912 132.214623 
L 201.344637 132.047254 
L 204.035363 131.879885 
L 206.726088 131.712517 
L 209.416814 131.545148 
L 212.107539 131.377779 
L 214.798264 131.210411 
L 217.48899 131.043042 
L 220.179715 130.875673 
L 222.870441 130.708305 
L 225.561166 130.540936 
L 228.251892 130.373567 
L 230.942617 130.206199 
L 233.633343 130.03883 
L 236.324068 129.871461 
L 239.014793 129.704093 
L 241.705519 129.536724 
L 244.396244 129.369355 
L 247.08697 129.201987 
L 249.777695 129.034618 
L 252.468421 128.86725 
L 255.159146 128.699881 
L 257.849871 128.532512 
L 260.540597 128.365144 
L 263.231322 128.197775 
L 265.922048 128.030406 
L 268.612773 127.863038 
L 271.303499 127.695669 
L 273.994224 127.5283 
L 276.684949 127.360932 
L 279.375675 127.193563 
L 282.0664 127.026194 
L 284.757126 126.858826 
L 287.447851 126.691457 
L 290.138577 126.524088 
L 292.829302 126.35672 
L 295.520028 126.189351 
L 298.210753 126.021982 
L 300.901478 125.854614 
L 303.592204 125.687245 
L 306.282929 125.519876 
L 308.973655 125.352508 
L 311.66438 125.185139 
L 314.355106 125.01777 
L 317.045831 124.850402 
L 319.736556 124.683033 
L 322.427282 124.515664 
L 325.118007 124.348296 
L 327.808733 124.180927 
L 330.499458 124.013558 
L 333.190184 123.84619 
L 335.880909 123.678821 
" clip-path="url(#p9f7cf7cb6b)" style="fill: none; stroke: #1f77b4; stroke-width: 2.25; stroke-linecap: square"/>
   </g>
   <g id="patch_3">
    <path d="M 56.18 317.93875 
L 56.18 10.8 
" style="fill: none; stroke: #000000; stroke-width: 0.8; stroke-linejoin: miter; stroke-linecap: square"/>
   </g>
   <g id="patch_4">
    <path d="M 56.18 317.93875 
L 349.2 317.93875 
" style="fill: none; stroke: #000000; stroke-width: 0.8; stroke-linejoin: miter; stroke-linecap: square"/>
   </g>
  </g>
 </g>
 <defs>
  <clipPath id="p9f7cf7cb6b">
   <rect x="56.18" y="10.8" width="293.02" height="307.13875"/>
  </clipPath>
 </defs>
</svg>
