<?xml version="1.0" encoding="utf-8" standalone="no"?>
<!DOCTYPE svg PUBLIC "-//W3C//DTD SVG 1.1//EN"
  "http://www.w3.org/Graphics/SVG/1.1/DTD/svg11.dtd">
<svg xmlns:xlink="http://www.w3.org/1999/xlink" width="360pt" height="360pt" viewBox="0 0 360 360" xmlns="http://www.w3.org/2000/svg" version="1.1">
 <metadata>
  <rdf:RDF xmlns:dc="http://purl.org/dc/elements/1.1/" xmlns:cc="http://creativecommons.org/ns#" xmlns:rdf="http://www.w3.org/1999/02/22-rdf-syntax-ns#">
   <cc:Work>
    <dc:type rdf:resource="http://purl.org/dc/dcmitype/StillImage"/>
    <dc:date>2022-11-22T21:50:59.372942</dc:date>
    <dc:format>image/svg+xml</dc:format>
    <dc:creator>
     <cc:Agent>
      <dc:title>Matplotlib v3.5.3, https://matplotlib.org/</dc:title>
     </cc:Agent>
    </dc:creator>
   </cc:Work>
  </rdf:RDF>
 </metadata>
 <defs>
  <style type="text/css">*{stroke-linejoin: round; stroke-linecap: butt}</style>
 </defs>
 <g id="figure_1">
  <g id="patch_1">
   <path d="M 0 360 
L 360 360 
L 360 0 
L 0 0 
z
" style="fill: #ffffff"/>
  </g>
  <g id="axes_1">
   <g id="patch_2">
    <path d="M 62.57 317.93875 
L 349.2 317.93875 
L 349.2 10.8 
L 62.57 10.8 
z
" style="fill: #ffffff"/>
   </g>
   <g id="PathCollection_1">
    <defs>
     <path id="m5e16cf7225" d="M 0 3 
C 0.795609 3 1.55874 2.683901 2.12132 2.12132 
C 2.683901 1.55874 3 0.795609 3 0 
C 3 -0.795609 2.683901 -1.55874 2.12132 -2.12132 
C 1.55874 -2.683901 0.795609 -3 0 -3 
C -0.795609 -3 -1.55874 -2.683901 -2.12132 -2.12132 
C -2.683901 -1.55874 -3 -0.795609 -3 0 
C -3 0.795609 -2.683901 1.55874 -2.12132 2.12132 
C -1.55874 2.683901 -0.795609 3 0 3 
z
" style="stroke: #1f77b4; stroke-opacity: 0.8"/>
    </defs>
    <g clip-path="url(#p1c03069163)">
     <use xlink:href="#m5e16cf7225" x="220.361263" y="110.452274" style="fill: #1f77b4; fill-opacity: 0.8; stroke: #1f77b4; stroke-opacity: 0.8"/>
     <use xlink:href="#m5e16cf7225" x="220.361263" y="215.995908" style="fill: #1f77b4; fill-opacity: 0.8; stroke: #1f77b4; stroke-opacity: 0.8"/>
     <use xlink:href="#m5e16cf7225" x="278.266313" y="187.337565" style="fill: #1f77b4; fill-opacity: 0.8; stroke: #1f77b4; stroke-opacity: 0.8"/>
     <use xlink:href="#m5e16cf7225" x="191.408737" y="210.883903" style="fill: #1f77b4; fill-opacity: 0.8; stroke: #1f77b4; stroke-opacity: 0.8"/>
     <use xlink:href="#m5e16cf7225" x="249.313788" y="167.690048" style="fill: #1f77b4; fill-opacity: 0.8; stroke: #1f77b4; stroke-opacity: 0.8"/>
     <use xlink:href="#m5e16cf7225" x="162.456212" y="173.794883" style="fill: #1f77b4; fill-opacity: 0.8; stroke: #1f77b4; stroke-opacity: 0.8"/>
     <use xlink:href="#m5e16cf7225" x="278.266313" y="179.949436" style="fill: #1f77b4; fill-opacity: 0.8; stroke: #1f77b4; stroke-opacity: 0.8"/>
     <use xlink:href="#m5e16cf7225" x="75.598636" y="172.717193" style="fill: #1f77b4; fill-opacity: 0.8; stroke: #1f77b4; stroke-opacity: 0.8"/>
     <use xlink:href="#m5e16cf7225" x="336.171364" y="137.978915" style="fill: #1f77b4; fill-opacity: 0.8; stroke: #1f77b4; stroke-opacity: 0.8"/>
     <use xlink:href="#m5e16cf7225" x="104.551162" y="144.615406" style="fill: #1f77b4; fill-opacity: 0.8; stroke: #1f77b4; stroke-opacity: 0.8"/>
     <use xlink:href="#m5e16cf7225" x="307.218838" y="153.005599" style="fill: #1f77b4; fill-opacity: 0.8; stroke: #1f77b4; stroke-opacity: 0.8"/>
     <use xlink:href="#m5e16cf7225" x="278.266313" y="196.684431" style="fill: #1f77b4; fill-opacity: 0.8; stroke: #1f77b4; stroke-opacity: 0.8"/>
     <use xlink:href="#m5e16cf7225" x="162.456212" y="131.458844" style="fill: #1f77b4; fill-opacity: 0.8; stroke: #1f77b4; stroke-opacity: 0.8"/>
     <use xlink:href="#m5e16cf7225" x="278.266313" y="63.371506" style="fill: #1f77b4; fill-opacity: 0.8; stroke: #1f77b4; stroke-opacity: 0.8"/>
     <use xlink:href="#m5e16cf7225" x="133.503687" y="185.046899" style="fill: #1f77b4; fill-opacity: 0.8; stroke: #1f77b4; stroke-opacity: 0.8"/>
     <use xlink:href="#m5e16cf7225" x="336.171364" y="229.74454" style="fill: #1f77b4; fill-opacity: 0.8; stroke: #1f77b4; stroke-opacity: 0.8"/>
     <use xlink:href="#m5e16cf7225" x="104.551162" y="153.236757" style="fill: #1f77b4; fill-opacity: 0.8; stroke: #1f77b4; stroke-opacity: 0.8"/>
     <use xlink:href="#m5e16cf7225" x="307.218838" y="182.204878" style="fill: #1f77b4; fill-opacity: 0.8; stroke: #1f77b4; stroke-opacity: 0.8"/>
     <use xlink:href="#m5e16cf7225" x="278.266313" y="154.048081" style="fill: #1f77b4; fill-opacity: 0.8; stroke: #1f77b4; stroke-opacity: 0.8"/>
     <use xlink:href="#m5e16cf7225" x="249.313788" y="128.734498" style="fill: #1f77b4; fill-opacity: 0.8; stroke: #1f77b4; stroke-opacity: 0.8"/>
     <use xlink:href="#m5e16cf7225" x="162.456212" y="154.012368" style="fill: #1f77b4; fill-opacity: 0.8; stroke: #1f77b4; stroke-opacity: 0.8"/>
     <use xlink:href="#m5e16cf7225" x="133.503687" y="233.06574" style="fill: #1f77b4; fill-opacity: 0.8; stroke: #1f77b4; stroke-opacity: 0.8"/>
     <use xlink:href="#m5e16cf7225" x="336.171364" y="122.297429" style="fill: #1f77b4; fill-opacity: 0.8; stroke: #1f77b4; stroke-opacity: 0.8"/>
     <use xlink:href="#m5e16cf7225" x="191.408737" y="141.999721" style="fill: #1f77b4; fill-opacity: 0.8; stroke: #1f77b4; stroke-opacity: 0.8"/>
     <use xlink:href="#m5e16cf7225" x="133.503687" y="154.157943" style="fill: #1f77b4; fill-opacity: 0.8; stroke: #1f77b4; stroke-opacity: 0.8"/>
     <use xlink:href="#m5e16cf7225" x="75.598636" y="187.765579" style="fill: #1f77b4; fill-opacity: 0.8; stroke: #1f77b4; stroke-opacity: 0.8"/>
     <use xlink:href="#m5e16cf7225" x="133.503687" y="157.891071" style="fill: #1f77b4; fill-opacity: 0.8; stroke: #1f77b4; stroke-opacity: 0.8"/>
     <use xlink:href="#m5e16cf7225" x="336.171364" y="147.886713" style="fill: #1f77b4; fill-opacity: 0.8; stroke: #1f77b4; stroke-opacity: 0.8"/>
     <use xlink:href="#m5e16cf7225" x="220.361263" y="303.977898" style="fill: #1f77b4; fill-opacity: 0.8; stroke: #1f77b4; stroke-opacity: 0.8"/>
     <use xlink:href="#m5e16cf7225" x="249.313788" y="246.585219" style="fill: #1f77b4; fill-opacity: 0.8; stroke: #1f77b4; stroke-opacity: 0.8"/>
     <use xlink:href="#m5e16cf7225" x="336.171364" y="97.74412" style="fill: #1f77b4; fill-opacity: 0.8; stroke: #1f77b4; stroke-opacity: 0.8"/>
     <use xlink:href="#m5e16cf7225" x="162.456212" y="166.039393" style="fill: #1f77b4; fill-opacity: 0.8; stroke: #1f77b4; stroke-opacity: 0.8"/>
     <use xlink:href="#m5e16cf7225" x="220.361263" y="137.143996" style="fill: #1f77b4; fill-opacity: 0.8; stroke: #1f77b4; stroke-opacity: 0.8"/>
     <use xlink:href="#m5e16cf7225" x="104.551162" y="142.789632" style="fill: #1f77b4; fill-opacity: 0.8; stroke: #1f77b4; stroke-opacity: 0.8"/>
     <use xlink:href="#m5e16cf7225" x="133.503687" y="206.402328" style="fill: #1f77b4; fill-opacity: 0.8; stroke: #1f77b4; stroke-opacity: 0.8"/>
     <use xlink:href="#m5e16cf7225" x="75.598636" y="198.922659" style="fill: #1f77b4; fill-opacity: 0.8; stroke: #1f77b4; stroke-opacity: 0.8"/>
     <use xlink:href="#m5e16cf7225" x="307.218838" y="95.80009" style="fill: #1f77b4; fill-opacity: 0.8; stroke: #1f77b4; stroke-opacity: 0.8"/>
     <use xlink:href="#m5e16cf7225" x="75.598636" y="179.093861" style="fill: #1f77b4; fill-opacity: 0.8; stroke: #1f77b4; stroke-opacity: 0.8"/>
     <use xlink:href="#m5e16cf7225" x="104.551162" y="173.955869" style="fill: #1f77b4; fill-opacity: 0.8; stroke: #1f77b4; stroke-opacity: 0.8"/>
     <use xlink:href="#m5e16cf7225" x="191.408737" y="24.760852" style="fill: #1f77b4; fill-opacity: 0.8; stroke: #1f77b4; stroke-opacity: 0.8"/>
     <use xlink:href="#m5e16cf7225" x="307.218838" y="150.338152" style="fill: #1f77b4; fill-opacity: 0.8; stroke: #1f77b4; stroke-opacity: 0.8"/>
     <use xlink:href="#m5e16cf7225" x="249.313788" y="129.35284" style="fill: #1f77b4; fill-opacity: 0.8; stroke: #1f77b4; stroke-opacity: 0.8"/>
     <use xlink:href="#m5e16cf7225" x="104.551162" y="60.261058" style="fill: #1f77b4; fill-opacity: 0.8; stroke: #1f77b4; stroke-opacity: 0.8"/>
     <use xlink:href="#m5e16cf7225" x="162.456212" y="157.395469" style="fill: #1f77b4; fill-opacity: 0.8; stroke: #1f77b4; stroke-opacity: 0.8"/>
     <use xlink:href="#m5e16cf7225" x="104.551162" y="167.719937" style="fill: #1f77b4; fill-opacity: 0.8; stroke: #1f77b4; stroke-opacity: 0.8"/>
     <use xlink:href="#m5e16cf7225" x="220.361263" y="121.22007" style="fill: #1f77b4; fill-opacity: 0.8; stroke: #1f77b4; stroke-opacity: 0.8"/>
     <use xlink:href="#m5e16cf7225" x="249.313788" y="175.44608" style="fill: #1f77b4; fill-opacity: 0.8; stroke: #1f77b4; stroke-opacity: 0.8"/>
    </g>
   </g>
   <g id="PolyCollection_1">
    <path d="M 75.598636 144.678803 
L 75.598636 185.59271 
L 78.230684 185.073406 
L 80.862732 184.596892 
L 83.49478 184.239502 
L 86.126827 183.896619 
L 88.758875 183.556367 
L 91.390923 183.219035 
L 94.022971 182.858701 
L 96.655018 182.541116 
L 99.287066 182.213188 
L 101.919114 181.920825 
L 104.551162 181.531152 
L 107.183209 181.205949 
L 109.815257 180.957612 
L 112.447305 180.695437 
L 115.079353 180.403868 
L 117.7114 180.129696 
L 120.343448 179.83114 
L 122.975496 179.581031 
L 125.607544 179.330922 
L 128.239591 179.012313 
L 130.871639 178.509096 
L 133.503687 178.025594 
L 136.135735 177.706456 
L 138.767782 177.563088 
L 141.39983 177.462113 
L 144.031878 177.379065 
L 146.663926 177.287231 
L 149.295973 177.078988 
L 151.928021 176.748438 
L 154.560069 176.638968 
L 157.192117 176.50197 
L 159.824164 176.292872 
L 162.456212 176.056829 
L 165.08826 176.00376 
L 167.720308 175.946903 
L 170.352355 175.871334 
L 172.984403 175.674744 
L 175.616451 175.369901 
L 178.248499 175.135911 
L 180.880546 175.026297 
L 183.512594 174.777142 
L 186.144642 174.430792 
L 188.77669 174.05603 
L 191.408737 173.813313 
L 194.040785 173.792293 
L 196.672833 173.611446 
L 199.304881 173.692524 
L 201.936928 173.746615 
L 204.568976 173.720361 
L 207.201024 173.229489 
L 209.833072 173.400127 
L 212.465119 173.574051 
L 215.097167 173.662668 
L 217.729215 173.645591 
L 220.361263 173.602623 
L 222.99331 173.574884 
L 225.625358 173.655594 
L 228.257406 173.627487 
L 230.889454 173.552251 
L 233.521501 173.413602 
L 236.153549 173.361672 
L 238.785597 173.320668 
L 241.417645 173.278299 
L 244.049692 173.486724 
L 246.68174 173.473416 
L 249.313788 173.612991 
L 251.945836 173.557187 
L 254.577883 173.542631 
L 257.209931 173.456952 
L 259.841979 173.394603 
L 262.474027 173.376998 
L 265.106074 173.359392 
L 267.738122 173.381197 
L 270.37017 173.538975 
L 273.002218 173.544758 
L 275.634265 173.596896 
L 278.266313 173.731389 
L 280.898361 173.683402 
L 283.530409 173.656996 
L 286.162456 173.730111 
L 288.794504 173.748802 
L 291.426552 173.807483 
L 294.0586 173.940654 
L 296.690647 174.069094 
L 299.322695 174.155186 
L 301.954743 174.2789 
L 304.586791 174.465626 
L 307.218838 174.600759 
L 309.850886 174.721808 
L 312.482934 174.683574 
L 315.114982 174.64534 
L 317.747029 174.698613 
L 320.379077 174.895663 
L 323.011125 175.089934 
L 325.643173 175.276369 
L 328.27522 175.271511 
L 330.907268 175.335982 
L 333.539316 175.568246 
L 336.171364 175.765249 
L 336.171364 128.807519 
L 336.171364 128.807519 
L 333.539316 129.329645 
L 330.907268 129.851772 
L 328.27522 130.326992 
L 325.643173 130.588873 
L 323.011125 130.850755 
L 320.379077 131.112637 
L 317.747029 131.374518 
L 315.114982 131.6364 
L 312.482934 132.09327 
L 309.850886 132.570755 
L 307.218838 132.899356 
L 304.586791 133.409131 
L 301.954743 133.927681 
L 299.322695 134.452161 
L 296.690647 134.956726 
L 294.0586 135.436564 
L 291.426552 135.867055 
L 288.794504 136.237934 
L 286.162456 136.608812 
L 283.530409 136.979691 
L 280.898361 137.35057 
L 278.266313 137.721449 
L 275.634265 138.092327 
L 273.002218 138.459412 
L 270.37017 138.843866 
L 267.738122 139.195377 
L 265.106074 139.560527 
L 262.474027 139.92712 
L 259.841979 140.185284 
L 257.209931 140.637295 
L 254.577883 140.821281 
L 251.945836 141.04526 
L 249.313788 141.448009 
L 246.68174 141.834213 
L 244.049692 142.06301 
L 241.417645 142.294001 
L 238.785597 142.8181 
L 236.153549 143.348639 
L 233.521501 143.879179 
L 230.889454 144.118214 
L 228.257406 143.905064 
L 225.625358 144.067517 
L 222.99331 144.501282 
L 220.361263 144.884231 
L 217.729215 145.1718 
L 215.097167 145.260716 
L 212.465119 145.373053 
L 209.833072 145.622091 
L 207.201024 145.527463 
L 204.568976 145.614105 
L 201.936928 145.704067 
L 199.304881 145.806855 
L 196.672833 145.891522 
L 194.040785 146.058494 
L 191.408737 146.197136 
L 188.77669 146.504394 
L 186.144642 146.744532 
L 183.512594 146.701794 
L 180.880546 146.598341 
L 178.248499 146.599098 
L 175.616451 146.620081 
L 172.984403 146.918553 
L 170.352355 146.8277 
L 167.720308 146.849341 
L 165.08826 146.847821 
L 162.456212 146.828055 
L 159.824164 146.750282 
L 157.192117 146.647985 
L 154.560069 146.668872 
L 151.928021 146.914261 
L 149.295973 146.795387 
L 146.663926 146.713261 
L 144.031878 146.6662 
L 141.39983 146.558448 
L 138.767782 146.615018 
L 136.135735 146.751616 
L 133.503687 146.72058 
L 130.871639 146.490988 
L 128.239591 146.537239 
L 125.607544 146.54001 
L 122.975496 146.408329 
L 120.343448 146.399141 
L 117.7114 146.585765 
L 115.079353 146.618479 
L 112.447305 146.392056 
L 109.815257 146.362117 
L 107.183209 146.243241 
L 104.551162 145.968371 
L 101.919114 145.836516 
L 99.287066 145.832869 
L 96.655018 145.424325 
L 94.022971 145.328128 
L 91.390923 145.235298 
L 88.758875 145.142468 
L 86.126827 145.049638 
L 83.49478 144.956808 
L 80.862732 144.86501 
L 78.230684 144.886396 
L 75.598636 144.678803 
z
" clip-path="url(#p1c03069163)" style="fill: #1f77b4; fill-opacity: 0.15"/>
   </g>
   <g id="matplotlib.axis_1">
    <g id="xtick_1">
     <g id="line2d_1">
      <defs>
       <path id="m16230cb5d9" d="M 0 0 
L 0 3.5 
" style="stroke: #000000; stroke-width: 0.8"/>
      </defs>
      <g>
       <use xlink:href="#m16230cb5d9" x="90.961201" y="317.93875" style="stroke: #000000; stroke-width: 0.8"/>
      </g>
     </g>
     <g id="text_1">
      <text style="font: 10px 'sans-serif'; text-anchor: middle" x="90.961201" y="332.537188" transform="rotate(-0, 90.961201, 332.537188)">−4</text>
     </g>
    </g>
    <g id="xtick_2">
     <g id="line2d_2">
      <g>
       <use xlink:href="#m16230cb5d9" x="148.866251" y="317.93875" style="stroke: #000000; stroke-width: 0.8"/>
      </g>
     </g>
     <g id="text_2">
      <text style="font: 10px 'sans-serif'; text-anchor: middle" x="148.866251" y="332.537188" transform="rotate(-0, 148.866251, 332.537188)">−2</text>
     </g>
    </g>
    <g id="xtick_3">
     <g id="line2d_3">
      <g>
       <use xlink:href="#m16230cb5d9" x="206.771302" y="317.93875" style="stroke: #000000; stroke-width: 0.8"/>
      </g>
     </g>
     <g id="text_3">
      <text style="font: 10px 'sans-serif'; text-anchor: middle" x="206.771302" y="332.537188" transform="rotate(-0, 206.771302, 332.537188)">0</text>
     </g>
    </g>
    <g id="xtick_4">
     <g id="line2d_4">
      <g>
       <use xlink:href="#m16230cb5d9" x="264.676352" y="317.93875" style="stroke: #000000; stroke-width: 0.8"/>
      </g>
     </g>
     <g id="text_4">
      <text style="font: 10px 'sans-serif'; text-anchor: middle" x="264.676352" y="332.537188" transform="rotate(-0, 264.676352, 332.537188)">2</text>
     </g>
    </g>
    <g id="xtick_5">
     <g id="line2d_5">
      <g>
       <use xlink:href="#m16230cb5d9" x="322.581403" y="317.93875" style="stroke: #000000; stroke-width: 0.8"/>
      </g>
     </g>
     <g id="text_5">
      <text style="font: 10px 'sans-serif'; text-anchor: middle" x="322.581403" y="332.537188" transform="rotate(-0, 322.581403, 332.537188)">4</text>
     </g>
    </g>
    <g id="text_6">
     <text style="font: 10px 'sans-serif'; text-anchor: middle" x="205.885" y="346.215312" transform="rotate(-0, 205.885, 346.215312)">Composite_Reward</text>
    </g>
   </g>
   <g id="matplotlib.axis_2">
    <g id="ytick_1">
     <g id="line2d_6">
      <defs>
       <path id="m59ea499458" d="M 0 0 
L -3.5 0 
" style="stroke: #000000; stroke-width: 0.8"/>
      </defs>
      <g>
       <use xlink:href="#m59ea499458" x="62.57" y="281.75546" style="stroke: #000000; stroke-width: 0.8"/>
      </g>
     </g>
     <g id="text_7">
      <text style="font: 10px 'sans-serif'; text-anchor: end" x="55.57" y="285.554679" transform="rotate(-0, 55.57, 285.554679)">−0.75</text>
     </g>
    </g>
    <g id="ytick_2">
     <g id="line2d_7">
      <g>
       <use xlink:href="#m59ea499458" x="62.57" y="240.745258" style="stroke: #000000; stroke-width: 0.8"/>
      </g>
     </g>
     <g id="text_8">
      <text style="font: 10px 'sans-serif'; text-anchor: end" x="55.57" y="244.544476" transform="rotate(-0, 55.57, 244.544476)">−0.50</text>
     </g>
    </g>
    <g id="ytick_3">
     <g id="line2d_8">
      <g>
       <use xlink:href="#m59ea499458" x="62.57" y="199.735055" style="stroke: #000000; stroke-width: 0.8"/>
      </g>
     </g>
     <g id="text_9">
      <text style="font: 10px 'sans-serif'; text-anchor: end" x="55.57" y="203.534274" transform="rotate(-0, 55.57, 203.534274)">−0.25</text>
     </g>
    </g>
    <g id="ytick_4">
     <g id="line2d_9">
      <g>
       <use xlink:href="#m59ea499458" x="62.57" y="158.724853" style="stroke: #000000; stroke-width: 0.8"/>
      </g>
     </g>
     <g id="text_10">
      <text style="font: 10px 'sans-serif'; text-anchor: end" x="55.57" y="162.524072" transform="rotate(-0, 55.57, 162.524072)">0.00</text>
     </g>
    </g>
    <g id="ytick_5">
     <g id="line2d_10">
      <g>
       <use xlink:href="#m59ea499458" x="62.57" y="117.714651" style="stroke: #000000; stroke-width: 0.8"/>
      </g>
     </g>
     <g id="text_11">
      <text style="font: 10px 'sans-serif'; text-anchor: end" x="55.57" y="121.513869" transform="rotate(-0, 55.57, 121.513869)">0.25</text>
     </g>
    </g>
    <g id="ytick_6">
     <g id="line2d_11">
      <g>
       <use xlink:href="#m59ea499458" x="62.57" y="76.704448" style="stroke: #000000; stroke-width: 0.8"/>
      </g>
     </g>
     <g id="text_12">
      <text style="font: 10px 'sans-serif'; text-anchor: end" x="55.57" y="80.503667" transform="rotate(-0, 55.57, 80.503667)">0.50</text>
     </g>
    </g>
    <g id="ytick_7">
     <g id="line2d_12">
      <g>
       <use xlink:href="#m59ea499458" x="62.57" y="35.694246" style="stroke: #000000; stroke-width: 0.8"/>
      </g>
     </g>
     <g id="text_13">
      <text style="font: 10px 'sans-serif'; text-anchor: end" x="55.57" y="39.493465" transform="rotate(-0, 55.57, 39.493465)">0.75</text>
     </g>
    </g>
    <g id="text_14">
     <text style="font: 10px 'sans-serif'; text-anchor: middle" x="18.845" y="164.369375" transform="rotate(-90, 18.845, 164.369375)">Conn LG-SG</text>
    </g>
   </g>
   <g id="line2d_13">
    <path d="M 75.598636 168.086797 
L 78.230684 167.919221 
L 80.862732 167.751644 
L 83.49478 167.584068 
L 86.126827 167.416491 
L 88.758875 167.248914 
L 91.390923 167.081338 
L 94.022971 166.913761 
L 96.655018 166.746185 
L 99.287066 166.578608 
L 101.919114 166.411032 
L 104.551162 166.243455 
L 107.183209 166.075879 
L 109.815257 165.908302 
L 112.447305 165.740726 
L 115.079353 165.573149 
L 117.7114 165.405572 
L 120.343448 165.237996 
L 122.975496 165.070419 
L 125.607544 164.902843 
L 128.239591 164.735266 
L 130.871639 164.56769 
L 133.503687 164.400113 
L 136.135735 164.232537 
L 138.767782 164.06496 
L 141.39983 163.897384 
L 144.031878 163.729807 
L 146.663926 163.56223 
L 149.295973 163.394654 
L 151.928021 163.227077 
L 154.560069 163.059501 
L 157.192117 162.891924 
L 159.824164 162.724348 
L 162.456212 162.556771 
L 165.08826 162.389195 
L 167.720308 162.221618 
L 170.352355 162.054042 
L 172.984403 161.886465 
L 175.616451 161.718888 
L 178.248499 161.551312 
L 180.880546 161.383735 
L 183.512594 161.216159 
L 186.144642 161.048582 
L 188.77669 160.881006 
L 191.408737 160.713429 
L 194.040785 160.545853 
L 196.672833 160.378276 
L 199.304881 160.2107 
L 201.936928 160.043123 
L 204.568976 159.875547 
L 207.201024 159.70797 
L 209.833072 159.540393 
L 212.465119 159.372817 
L 215.097167 159.20524 
L 217.729215 159.037664 
L 220.361263 158.870087 
L 222.99331 158.702511 
L 225.625358 158.534934 
L 228.257406 158.367358 
L 230.889454 158.199781 
L 233.521501 158.032205 
L 236.153549 157.864628 
L 238.785597 157.697051 
L 241.417645 157.529475 
L 244.049692 157.361898 
L 246.68174 157.194322 
L 249.313788 157.026745 
L 251.945836 156.859169 
L 254.577883 156.691592 
L 257.209931 156.524016 
L 259.841979 156.356439 
L 262.474027 156.188863 
L 265.106074 156.021286 
L 267.738122 155.853709 
L 270.37017 155.686133 
L 273.002218 155.518556 
L 275.634265 155.35098 
L 278.266313 155.183403 
L 280.898361 155.015827 
L 283.530409 154.84825 
L 286.162456 154.680674 
L 288.794504 154.513097 
L 291.426552 154.345521 
L 294.0586 154.177944 
L 296.690647 154.010368 
L 299.322695 153.842791 
L 301.954743 153.675214 
L 304.586791 153.507638 
L 307.218838 153.340061 
L 309.850886 153.172485 
L 312.482934 153.004908 
L 315.114982 152.837332 
L 317.747029 152.669755 
L 320.379077 152.502179 
L 323.011125 152.334602 
L 325.643173 152.167026 
L 328.27522 151.999449 
L 330.907268 151.831872 
L 333.539316 151.664296 
L 336.171364 151.496719 
" clip-path="url(#p1c03069163)" style="fill: none; stroke: #1f77b4; stroke-width: 2.25; stroke-linecap: square"/>
   </g>
   <g id="patch_3">
    <path d="M 62.57 317.93875 
L 62.57 10.8 
" style="fill: none; stroke: #000000; stroke-width: 0.8; stroke-linejoin: miter; stroke-linecap: square"/>
   </g>
   <g id="patch_4">
    <path d="M 62.57 317.93875 
L 349.2 317.93875 
" style="fill: none; stroke: #000000; stroke-width: 0.8; stroke-linejoin: miter; stroke-linecap: square"/>
   </g>
  </g>
 </g>
 <defs>
  <clipPath id="p1c03069163">
   <rect x="62.57" y="10.8" width="286.63" height="307.13875"/>
  </clipPath>
 </defs>
</svg>
