<?xml version="1.0" encoding="utf-8" standalone="no"?>
<!DOCTYPE svg PUBLIC "-//W3C//DTD SVG 1.1//EN"
  "http://www.w3.org/Graphics/SVG/1.1/DTD/svg11.dtd">
<svg xmlns:xlink="http://www.w3.org/1999/xlink" width="360pt" height="360pt" viewBox="0 0 360 360" xmlns="http://www.w3.org/2000/svg" version="1.1">
 <metadata>
  <rdf:RDF xmlns:dc="http://purl.org/dc/elements/1.1/" xmlns:cc="http://creativecommons.org/ns#" xmlns:rdf="http://www.w3.org/1999/02/22-rdf-syntax-ns#">
   <cc:Work>
    <dc:type rdf:resource="http://purl.org/dc/dcmitype/StillImage"/>
    <dc:date>2022-11-22T21:42:39.772514</dc:date>
    <dc:format>image/svg+xml</dc:format>
    <dc:creator>
     <cc:Agent>
      <dc:title>Matplotlib v3.5.3, https://matplotlib.org/</dc:title>
     </cc:Agent>
    </dc:creator>
   </cc:Work>
  </rdf:RDF>
 </metadata>
 <defs>
  <style type="text/css">*{stroke-linejoin: round; stroke-linecap: butt}</style>
 </defs>
 <g id="figure_1">
  <g id="patch_1">
   <path d="M 0 360 
L 360 360 
L 360 0 
L 0 0 
z
" style="fill: #ffffff"/>
  </g>
  <g id="axes_1">
   <g id="patch_2">
    <path d="M 56.18 317.93875 
L 349.2 317.93875 
L 349.2 10.8 
L 56.18 10.8 
z
" style="fill: #ffffff"/>
   </g>
   <g id="PathCollection_1">
    <defs>
     <path id="mba35e7eb70" d="M 0 3 
C 0.795609 3 1.55874 2.683901 2.12132 2.12132 
C 2.683901 1.55874 3 0.795609 3 0 
C 3 -0.795609 2.683901 -1.55874 2.12132 -2.12132 
C 1.55874 -2.683901 0.795609 -3 0 -3 
C -0.795609 -3 -1.55874 -2.683901 -2.12132 -2.12132 
C -2.683901 -1.55874 -3 -0.795609 -3 0 
C -3 0.795609 -2.683901 1.55874 -2.12132 2.12132 
C -1.55874 2.683901 -0.795609 3 0 3 
z
" style="stroke: #1f77b4; stroke-opacity: 0.8"/>
    </defs>
    <g clip-path="url(#p01c8f9bd1c)">
     <use xlink:href="#mba35e7eb70" x="217.48899" y="236.498249" style="fill: #1f77b4; fill-opacity: 0.8; stroke: #1f77b4; stroke-opacity: 0.8"/>
     <use xlink:href="#mba35e7eb70" x="217.48899" y="231.897715" style="fill: #1f77b4; fill-opacity: 0.8; stroke: #1f77b4; stroke-opacity: 0.8"/>
     <use xlink:href="#mba35e7eb70" x="276.684949" y="210.272391" style="fill: #1f77b4; fill-opacity: 0.8; stroke: #1f77b4; stroke-opacity: 0.8"/>
     <use xlink:href="#mba35e7eb70" x="187.89101" y="210.678047" style="fill: #1f77b4; fill-opacity: 0.8; stroke: #1f77b4; stroke-opacity: 0.8"/>
     <use xlink:href="#mba35e7eb70" x="247.08697" y="167.475061" style="fill: #1f77b4; fill-opacity: 0.8; stroke: #1f77b4; stroke-opacity: 0.8"/>
     <use xlink:href="#mba35e7eb70" x="158.29303" y="170.922087" style="fill: #1f77b4; fill-opacity: 0.8; stroke: #1f77b4; stroke-opacity: 0.8"/>
     <use xlink:href="#mba35e7eb70" x="276.684949" y="184.200992" style="fill: #1f77b4; fill-opacity: 0.8; stroke: #1f77b4; stroke-opacity: 0.8"/>
     <use xlink:href="#mba35e7eb70" x="69.499091" y="147.284391" style="fill: #1f77b4; fill-opacity: 0.8; stroke: #1f77b4; stroke-opacity: 0.8"/>
     <use xlink:href="#mba35e7eb70" x="335.880909" y="141.762956" style="fill: #1f77b4; fill-opacity: 0.8; stroke: #1f77b4; stroke-opacity: 0.8"/>
     <use xlink:href="#mba35e7eb70" x="99.097071" y="115.722943" style="fill: #1f77b4; fill-opacity: 0.8; stroke: #1f77b4; stroke-opacity: 0.8"/>
     <use xlink:href="#mba35e7eb70" x="306.282929" y="163.706766" style="fill: #1f77b4; fill-opacity: 0.8; stroke: #1f77b4; stroke-opacity: 0.8"/>
     <use xlink:href="#mba35e7eb70" x="276.684949" y="177.863881" style="fill: #1f77b4; fill-opacity: 0.8; stroke: #1f77b4; stroke-opacity: 0.8"/>
     <use xlink:href="#mba35e7eb70" x="158.29303" y="228.723743" style="fill: #1f77b4; fill-opacity: 0.8; stroke: #1f77b4; stroke-opacity: 0.8"/>
     <use xlink:href="#mba35e7eb70" x="276.684949" y="180.41152" style="fill: #1f77b4; fill-opacity: 0.8; stroke: #1f77b4; stroke-opacity: 0.8"/>
     <use xlink:href="#mba35e7eb70" x="128.695051" y="113.14404" style="fill: #1f77b4; fill-opacity: 0.8; stroke: #1f77b4; stroke-opacity: 0.8"/>
     <use xlink:href="#mba35e7eb70" x="335.880909" y="24.760852" style="fill: #1f77b4; fill-opacity: 0.8; stroke: #1f77b4; stroke-opacity: 0.8"/>
     <use xlink:href="#mba35e7eb70" x="99.097071" y="208.649467" style="fill: #1f77b4; fill-opacity: 0.8; stroke: #1f77b4; stroke-opacity: 0.8"/>
     <use xlink:href="#mba35e7eb70" x="306.282929" y="157.1994" style="fill: #1f77b4; fill-opacity: 0.8; stroke: #1f77b4; stroke-opacity: 0.8"/>
     <use xlink:href="#mba35e7eb70" x="276.684949" y="74.380657" style="fill: #1f77b4; fill-opacity: 0.8; stroke: #1f77b4; stroke-opacity: 0.8"/>
     <use xlink:href="#mba35e7eb70" x="247.08697" y="179.283114" style="fill: #1f77b4; fill-opacity: 0.8; stroke: #1f77b4; stroke-opacity: 0.8"/>
     <use xlink:href="#mba35e7eb70" x="158.29303" y="177.132463" style="fill: #1f77b4; fill-opacity: 0.8; stroke: #1f77b4; stroke-opacity: 0.8"/>
     <use xlink:href="#mba35e7eb70" x="128.695051" y="141.904217" style="fill: #1f77b4; fill-opacity: 0.8; stroke: #1f77b4; stroke-opacity: 0.8"/>
     <use xlink:href="#mba35e7eb70" x="335.880909" y="188.056186" style="fill: #1f77b4; fill-opacity: 0.8; stroke: #1f77b4; stroke-opacity: 0.8"/>
     <use xlink:href="#mba35e7eb70" x="187.89101" y="166.493748" style="fill: #1f77b4; fill-opacity: 0.8; stroke: #1f77b4; stroke-opacity: 0.8"/>
     <use xlink:href="#mba35e7eb70" x="128.695051" y="206.885578" style="fill: #1f77b4; fill-opacity: 0.8; stroke: #1f77b4; stroke-opacity: 0.8"/>
     <use xlink:href="#mba35e7eb70" x="69.499091" y="303.977898" style="fill: #1f77b4; fill-opacity: 0.8; stroke: #1f77b4; stroke-opacity: 0.8"/>
     <use xlink:href="#mba35e7eb70" x="128.695051" y="254.553839" style="fill: #1f77b4; fill-opacity: 0.8; stroke: #1f77b4; stroke-opacity: 0.8"/>
     <use xlink:href="#mba35e7eb70" x="335.880909" y="249.673594" style="fill: #1f77b4; fill-opacity: 0.8; stroke: #1f77b4; stroke-opacity: 0.8"/>
     <use xlink:href="#mba35e7eb70" x="217.48899" y="203.224586" style="fill: #1f77b4; fill-opacity: 0.8; stroke: #1f77b4; stroke-opacity: 0.8"/>
     <use xlink:href="#mba35e7eb70" x="247.08697" y="205.300161" style="fill: #1f77b4; fill-opacity: 0.8; stroke: #1f77b4; stroke-opacity: 0.8"/>
     <use xlink:href="#mba35e7eb70" x="335.880909" y="164.349429" style="fill: #1f77b4; fill-opacity: 0.8; stroke: #1f77b4; stroke-opacity: 0.8"/>
     <use xlink:href="#mba35e7eb70" x="158.29303" y="215.999618" style="fill: #1f77b4; fill-opacity: 0.8; stroke: #1f77b4; stroke-opacity: 0.8"/>
     <use xlink:href="#mba35e7eb70" x="217.48899" y="231.621822" style="fill: #1f77b4; fill-opacity: 0.8; stroke: #1f77b4; stroke-opacity: 0.8"/>
     <use xlink:href="#mba35e7eb70" x="99.097071" y="162.069641" style="fill: #1f77b4; fill-opacity: 0.8; stroke: #1f77b4; stroke-opacity: 0.8"/>
     <use xlink:href="#mba35e7eb70" x="128.695051" y="170.938702" style="fill: #1f77b4; fill-opacity: 0.8; stroke: #1f77b4; stroke-opacity: 0.8"/>
     <use xlink:href="#mba35e7eb70" x="69.499091" y="249.860928" style="fill: #1f77b4; fill-opacity: 0.8; stroke: #1f77b4; stroke-opacity: 0.8"/>
     <use xlink:href="#mba35e7eb70" x="306.282929" y="171.909678" style="fill: #1f77b4; fill-opacity: 0.8; stroke: #1f77b4; stroke-opacity: 0.8"/>
     <use xlink:href="#mba35e7eb70" x="69.499091" y="253.341114" style="fill: #1f77b4; fill-opacity: 0.8; stroke: #1f77b4; stroke-opacity: 0.8"/>
     <use xlink:href="#mba35e7eb70" x="99.097071" y="203.093834" style="fill: #1f77b4; fill-opacity: 0.8; stroke: #1f77b4; stroke-opacity: 0.8"/>
     <use xlink:href="#mba35e7eb70" x="187.89101" y="246.79187" style="fill: #1f77b4; fill-opacity: 0.8; stroke: #1f77b4; stroke-opacity: 0.8"/>
     <use xlink:href="#mba35e7eb70" x="306.282929" y="116.788267" style="fill: #1f77b4; fill-opacity: 0.8; stroke: #1f77b4; stroke-opacity: 0.8"/>
     <use xlink:href="#mba35e7eb70" x="247.08697" y="98.560295" style="fill: #1f77b4; fill-opacity: 0.8; stroke: #1f77b4; stroke-opacity: 0.8"/>
     <use xlink:href="#mba35e7eb70" x="99.097071" y="97.633285" style="fill: #1f77b4; fill-opacity: 0.8; stroke: #1f77b4; stroke-opacity: 0.8"/>
     <use xlink:href="#mba35e7eb70" x="158.29303" y="222.287522" style="fill: #1f77b4; fill-opacity: 0.8; stroke: #1f77b4; stroke-opacity: 0.8"/>
     <use xlink:href="#mba35e7eb70" x="99.097071" y="163.759102" style="fill: #1f77b4; fill-opacity: 0.8; stroke: #1f77b4; stroke-opacity: 0.8"/>
     <use xlink:href="#mba35e7eb70" x="217.48899" y="180.287386" style="fill: #1f77b4; fill-opacity: 0.8; stroke: #1f77b4; stroke-opacity: 0.8"/>
     <use xlink:href="#mba35e7eb70" x="247.08697" y="259.392098" style="fill: #1f77b4; fill-opacity: 0.8; stroke: #1f77b4; stroke-opacity: 0.8"/>
    </g>
   </g>
   <g id="PolyCollection_1">
    <path d="M 69.499091 176.302251 
L 69.499091 237.133078 
L 72.189816 236.182745 
L 74.880542 235.257672 
L 77.571267 234.405105 
L 80.261993 233.552539 
L 82.952718 232.699973 
L 85.643444 231.821949 
L 88.334169 230.915695 
L 91.024894 230.009441 
L 93.71562 229.103187 
L 96.406345 228.194117 
L 99.097071 227.283072 
L 101.787796 226.243691 
L 104.478522 225.209084 
L 107.169247 224.462233 
L 109.859972 223.65596 
L 112.550698 222.74577 
L 115.241423 221.681957 
L 117.932149 220.931471 
L 120.622874 220.029972 
L 123.3136 219.128473 
L 126.004325 218.223305 
L 128.695051 217.313362 
L 131.385776 216.40342 
L 134.076501 215.493477 
L 136.767227 214.594484 
L 139.457952 213.903046 
L 142.148678 213.147071 
L 144.839403 212.349271 
L 147.530129 211.384458 
L 150.220854 210.427752 
L 152.911579 209.466993 
L 155.602305 208.506233 
L 158.29303 207.701316 
L 160.983756 207.110006 
L 163.674481 206.334911 
L 166.365207 205.952504 
L 169.055932 205.373559 
L 171.746657 204.614656 
L 174.437383 203.790359 
L 177.128108 203.356774 
L 179.818834 202.903002 
L 182.509559 202.483396 
L 185.200285 201.986885 
L 187.89101 201.699599 
L 190.581736 201.193027 
L 193.272461 200.610353 
L 195.963186 200.178083 
L 198.653912 199.297854 
L 201.344637 198.812101 
L 204.035363 198.417164 
L 206.726088 198.136971 
L 209.416814 197.915362 
L 212.107539 197.261106 
L 214.798264 197.111347 
L 217.48899 196.547026 
L 220.179715 196.18231 
L 222.870441 195.655007 
L 225.561166 195.064686 
L 228.251892 194.694289 
L 230.942617 194.224816 
L 233.633343 193.804882 
L 236.324068 193.627141 
L 239.014793 193.495122 
L 241.705519 193.125107 
L 244.396244 193.014902 
L 247.08697 192.668619 
L 249.777695 192.315827 
L 252.468421 192.159411 
L 255.159146 192.396877 
L 257.849871 192.668644 
L 260.540597 192.490024 
L 263.231322 192.522266 
L 265.922048 192.222106 
L 268.612773 192.054697 
L 271.303499 192.200967 
L 273.994224 192.194594 
L 276.684949 192.27327 
L 279.375675 192.282558 
L 282.0664 192.347691 
L 284.757126 192.077659 
L 287.447851 191.861163 
L 290.138577 191.782482 
L 292.829302 191.703801 
L 295.520028 191.5452 
L 298.210753 191.453722 
L 300.901478 191.161722 
L 303.592204 191.041481 
L 306.282929 190.936652 
L 308.973655 191.081317 
L 311.66438 190.970848 
L 314.355106 191.006585 
L 317.045831 191.031025 
L 319.736556 190.959439 
L 322.427282 190.887853 
L 325.118007 190.816267 
L 327.808733 190.74468 
L 330.499458 190.665824 
L 333.190184 190.58491 
L 335.880909 190.333956 
L 335.880909 130.394605 
L 335.880909 130.394605 
L 333.190184 131.454288 
L 330.499458 132.350008 
L 327.808733 133.05992 
L 325.118007 133.860446 
L 322.427282 134.732891 
L 319.736556 135.675861 
L 317.045831 136.685446 
L 314.355106 137.351125 
L 311.66438 138.2181 
L 308.973655 139.092305 
L 306.282929 139.967699 
L 303.592204 140.843386 
L 300.901478 141.770563 
L 298.210753 142.791744 
L 295.520028 143.631842 
L 292.829302 144.4479 
L 290.138577 145.474099 
L 287.447851 146.23709 
L 284.757126 146.95694 
L 282.0664 147.928512 
L 279.375675 148.700268 
L 276.684949 149.567906 
L 273.994224 150.430697 
L 271.303499 151.227054 
L 268.612773 151.825261 
L 265.922048 152.471611 
L 263.231322 153.249303 
L 260.540597 154.11816 
L 257.849871 154.987475 
L 255.159146 155.856791 
L 252.468421 156.730323 
L 249.777695 157.607889 
L 247.08697 158.477226 
L 244.396244 159.346563 
L 241.705519 160.043883 
L 239.014793 160.615724 
L 236.324068 161.185372 
L 233.633343 161.966888 
L 230.942617 162.722284 
L 228.251892 163.250695 
L 225.561166 163.963835 
L 222.870441 164.527338 
L 220.179715 165.090841 
L 217.48899 165.384384 
L 214.798264 165.779394 
L 212.107539 166.288901 
L 209.416814 166.650803 
L 206.726088 166.957792 
L 204.035363 167.386693 
L 201.344637 168.048368 
L 198.653912 168.434229 
L 195.963186 168.964355 
L 193.272461 169.610132 
L 190.581736 169.719181 
L 187.89101 169.736779 
L 185.200285 169.977928 
L 182.509559 170.447109 
L 179.818834 171.018168 
L 177.128108 171.60501 
L 174.437383 172.196165 
L 171.746657 172.735783 
L 169.055932 173.040427 
L 166.365207 173.416043 
L 163.674481 173.740963 
L 160.983756 173.752626 
L 158.29303 174.028426 
L 155.602305 174.116032 
L 152.911579 174.360463 
L 150.220854 174.463805 
L 147.530129 174.680398 
L 144.839403 174.646582 
L 142.148678 174.543005 
L 139.457952 174.572763 
L 136.767227 174.601063 
L 134.076501 174.878712 
L 131.385776 175.175272 
L 128.695051 175.325889 
L 126.004325 175.230538 
L 123.3136 175.662844 
L 120.622874 175.552426 
L 117.932149 175.441136 
L 115.241423 175.41074 
L 112.550698 175.514275 
L 109.859972 175.619765 
L 107.169247 175.493636 
L 104.478522 175.408409 
L 101.787796 175.22533 
L 99.097071 175.412543 
L 96.406345 175.60769 
L 93.71562 175.802838 
L 91.024894 175.716102 
L 88.334169 175.835347 
L 85.643444 176.03356 
L 82.952718 176.238027 
L 80.261993 176.36103 
L 77.571267 176.348658 
L 74.880542 176.336286 
L 72.189816 176.323914 
L 69.499091 176.302251 
z
" clip-path="url(#p01c8f9bd1c)" style="fill: #1f77b4; fill-opacity: 0.15"/>
   </g>
   <g id="matplotlib.axis_1">
    <g id="xtick_1">
     <g id="line2d_1">
      <defs>
       <path id="med4d7d1810" d="M 0 0 
L 0 3.5 
" style="stroke: #000000; stroke-width: 0.8"/>
      </defs>
      <g>
       <use xlink:href="#med4d7d1810" x="85.204141" y="317.93875" style="stroke: #000000; stroke-width: 0.8"/>
      </g>
     </g>
     <g id="text_1">
      <text style="font: 10px 'sans-serif'; text-anchor: middle" x="85.204141" y="332.537188" transform="rotate(-0, 85.204141, 332.537188)">−4</text>
     </g>
    </g>
    <g id="xtick_2">
     <g id="line2d_2">
      <g>
       <use xlink:href="#med4d7d1810" x="144.400101" y="317.93875" style="stroke: #000000; stroke-width: 0.8"/>
      </g>
     </g>
     <g id="text_2">
      <text style="font: 10px 'sans-serif'; text-anchor: middle" x="144.400101" y="332.537188" transform="rotate(-0, 144.400101, 332.537188)">−2</text>
     </g>
    </g>
    <g id="xtick_3">
     <g id="line2d_3">
      <g>
       <use xlink:href="#med4d7d1810" x="203.596061" y="317.93875" style="stroke: #000000; stroke-width: 0.8"/>
      </g>
     </g>
     <g id="text_3">
      <text style="font: 10px 'sans-serif'; text-anchor: middle" x="203.596061" y="332.537188" transform="rotate(-0, 203.596061, 332.537188)">0</text>
     </g>
    </g>
    <g id="xtick_4">
     <g id="line2d_4">
      <g>
       <use xlink:href="#med4d7d1810" x="262.79202" y="317.93875" style="stroke: #000000; stroke-width: 0.8"/>
      </g>
     </g>
     <g id="text_4">
      <text style="font: 10px 'sans-serif'; text-anchor: middle" x="262.79202" y="332.537188" transform="rotate(-0, 262.79202, 332.537188)">2</text>
     </g>
    </g>
    <g id="xtick_5">
     <g id="line2d_5">
      <g>
       <use xlink:href="#med4d7d1810" x="321.98798" y="317.93875" style="stroke: #000000; stroke-width: 0.8"/>
      </g>
     </g>
     <g id="text_5">
      <text style="font: 10px 'sans-serif'; text-anchor: middle" x="321.98798" y="332.537188" transform="rotate(-0, 321.98798, 332.537188)">4</text>
     </g>
    </g>
    <g id="text_6">
     <text style="font: 10px 'sans-serif'; text-anchor: middle" x="202.69" y="346.215312" transform="rotate(-0, 202.69, 346.215312)">Composite_Reward</text>
    </g>
   </g>
   <g id="matplotlib.axis_2">
    <g id="ytick_1">
     <g id="line2d_6">
      <defs>
       <path id="meb1f6a580a" d="M 0 0 
L -3.5 0 
" style="stroke: #000000; stroke-width: 0.8"/>
      </defs>
      <g>
       <use xlink:href="#meb1f6a580a" x="56.18" y="313.586762" style="stroke: #000000; stroke-width: 0.8"/>
      </g>
     </g>
     <g id="text_7">
      <text style="font: 10px 'sans-serif'; text-anchor: end" x="49.18" y="317.385981" transform="rotate(-0, 49.18, 317.385981)">−1.0</text>
     </g>
    </g>
    <g id="ytick_2">
     <g id="line2d_7">
      <g>
       <use xlink:href="#meb1f6a580a" x="56.18" y="250.436447" style="stroke: #000000; stroke-width: 0.8"/>
      </g>
     </g>
     <g id="text_8">
      <text style="font: 10px 'sans-serif'; text-anchor: end" x="49.18" y="254.235666" transform="rotate(-0, 49.18, 254.235666)">−0.5</text>
     </g>
    </g>
    <g id="ytick_3">
     <g id="line2d_8">
      <g>
       <use xlink:href="#meb1f6a580a" x="56.18" y="187.286132" style="stroke: #000000; stroke-width: 0.8"/>
      </g>
     </g>
     <g id="text_9">
      <text style="font: 10px 'sans-serif'; text-anchor: end" x="49.18" y="191.085351" transform="rotate(-0, 49.18, 191.085351)">0.0</text>
     </g>
    </g>
    <g id="ytick_4">
     <g id="line2d_9">
      <g>
       <use xlink:href="#meb1f6a580a" x="56.18" y="124.135817" style="stroke: #000000; stroke-width: 0.8"/>
      </g>
     </g>
     <g id="text_10">
      <text style="font: 10px 'sans-serif'; text-anchor: end" x="49.18" y="127.935036" transform="rotate(-0, 49.18, 127.935036)">0.5</text>
     </g>
    </g>
    <g id="ytick_5">
     <g id="line2d_10">
      <g>
       <use xlink:href="#meb1f6a580a" x="56.18" y="60.985502" style="stroke: #000000; stroke-width: 0.8"/>
      </g>
     </g>
     <g id="text_11">
      <text style="font: 10px 'sans-serif'; text-anchor: end" x="49.18" y="64.784721" transform="rotate(-0, 49.18, 64.784721)">1.0</text>
     </g>
    </g>
    <g id="text_12">
     <text style="font: 10px 'sans-serif'; text-anchor: middle" x="18.8175" y="164.369375" transform="rotate(-90, 18.8175, 164.369375)">Conn Gain&gt;Loss</text>
    </g>
   </g>
   <g id="line2d_11">
    <path d="M 69.499091 204.553778 
L 72.189816 204.128106 
L 74.880542 203.702434 
L 77.571267 203.276762 
L 80.261993 202.85109 
L 82.952718 202.425418 
L 85.643444 201.999746 
L 88.334169 201.574074 
L 91.024894 201.148402 
L 93.71562 200.72273 
L 96.406345 200.297058 
L 99.097071 199.871386 
L 101.787796 199.445714 
L 104.478522 199.020041 
L 107.169247 198.594369 
L 109.859972 198.168697 
L 112.550698 197.743025 
L 115.241423 197.317353 
L 117.932149 196.891681 
L 120.622874 196.466009 
L 123.3136 196.040337 
L 126.004325 195.614665 
L 128.695051 195.188993 
L 131.385776 194.763321 
L 134.076501 194.337649 
L 136.767227 193.911977 
L 139.457952 193.486305 
L 142.148678 193.060633 
L 144.839403 192.634961 
L 147.530129 192.209289 
L 150.220854 191.783617 
L 152.911579 191.357945 
L 155.602305 190.932272 
L 158.29303 190.5066 
L 160.983756 190.080928 
L 163.674481 189.655256 
L 166.365207 189.229584 
L 169.055932 188.803912 
L 171.746657 188.37824 
L 174.437383 187.952568 
L 177.128108 187.526896 
L 179.818834 187.101224 
L 182.509559 186.675552 
L 185.200285 186.24988 
L 187.89101 185.824208 
L 190.581736 185.398536 
L 193.272461 184.972864 
L 195.963186 184.547192 
L 198.653912 184.12152 
L 201.344637 183.695848 
L 204.035363 183.270176 
L 206.726088 182.844503 
L 209.416814 182.418831 
L 212.107539 181.993159 
L 214.798264 181.567487 
L 217.48899 181.141815 
L 220.179715 180.716143 
L 222.870441 180.290471 
L 225.561166 179.864799 
L 228.251892 179.439127 
L 230.942617 179.013455 
L 233.633343 178.587783 
L 236.324068 178.162111 
L 239.014793 177.736439 
L 241.705519 177.310767 
L 244.396244 176.885095 
L 247.08697 176.459423 
L 249.777695 176.033751 
L 252.468421 175.608079 
L 255.159146 175.182407 
L 257.849871 174.756735 
L 260.540597 174.331062 
L 263.231322 173.90539 
L 265.922048 173.479718 
L 268.612773 173.054046 
L 271.303499 172.628374 
L 273.994224 172.202702 
L 276.684949 171.77703 
L 279.375675 171.351358 
L 282.0664 170.925686 
L 284.757126 170.500014 
L 287.447851 170.074342 
L 290.138577 169.64867 
L 292.829302 169.222998 
L 295.520028 168.797326 
L 298.210753 168.371654 
L 300.901478 167.945982 
L 303.592204 167.52031 
L 306.282929 167.094638 
L 308.973655 166.668966 
L 311.66438 166.243293 
L 314.355106 165.817621 
L 317.045831 165.391949 
L 319.736556 164.966277 
L 322.427282 164.540605 
L 325.118007 164.114933 
L 327.808733 163.689261 
L 330.499458 163.263589 
L 333.190184 162.837917 
L 335.880909 162.412245 
" clip-path="url(#p01c8f9bd1c)" style="fill: none; stroke: #1f77b4; stroke-width: 2.25; stroke-linecap: square"/>
   </g>
   <g id="patch_3">
    <path d="M 56.18 317.93875 
L 56.18 10.8 
" style="fill: none; stroke: #000000; stroke-width: 0.8; stroke-linejoin: miter; stroke-linecap: square"/>
   </g>
   <g id="patch_4">
    <path d="M 56.18 317.93875 
L 349.2 317.93875 
" style="fill: none; stroke: #000000; stroke-width: 0.8; stroke-linejoin: miter; stroke-linecap: square"/>
   </g>
  </g>
 </g>
 <defs>
  <clipPath id="p01c8f9bd1c">
   <rect x="56.18" y="10.8" width="293.02" height="307.13875"/>
  </clipPath>
 </defs>
</svg>
