<?xml version="1.0" encoding="utf-8" standalone="no"?>
<!DOCTYPE svg PUBLIC "-//W3C//DTD SVG 1.1//EN"
  "http://www.w3.org/Graphics/SVG/1.1/DTD/svg11.dtd">
<svg xmlns:xlink="http://www.w3.org/1999/xlink" width="360pt" height="360pt" viewBox="0 0 360 360" xmlns="http://www.w3.org/2000/svg" version="1.1">
 <metadata>
  <rdf:RDF xmlns:dc="http://purl.org/dc/elements/1.1/" xmlns:cc="http://creativecommons.org/ns#" xmlns:rdf="http://www.w3.org/1999/02/22-rdf-syntax-ns#">
   <cc:Work>
    <dc:type rdf:resource="http://purl.org/dc/dcmitype/StillImage"/>
    <dc:date>2022-11-22T21:34:17.824387</dc:date>
    <dc:format>image/svg+xml</dc:format>
    <dc:creator>
     <cc:Agent>
      <dc:title>Matplotlib v3.5.3, https://matplotlib.org/</dc:title>
     </cc:Agent>
    </dc:creator>
   </cc:Work>
  </rdf:RDF>
 </metadata>
 <defs>
  <style type="text/css">*{stroke-linejoin: round; stroke-linecap: butt}</style>
 </defs>
 <g id="figure_1">
  <g id="patch_1">
   <path d="M 0 360 
L 360 360 
L 360 0 
L 0 0 
z
" style="fill: #ffffff"/>
  </g>
  <g id="axes_1">
   <g id="patch_2">
    <path d="M 56.18 317.93875 
L 349.2 317.93875 
L 349.2 10.8 
L 56.18 10.8 
z
" style="fill: #ffffff"/>
   </g>
   <g id="PathCollection_1">
    <defs>
     <path id="m255f4671a4" d="M 0 3 
C 0.795609 3 1.55874 2.683901 2.12132 2.12132 
C 2.683901 1.55874 3 0.795609 3 0 
C 3 -0.795609 2.683901 -1.55874 2.12132 -2.12132 
C 1.55874 -2.683901 0.795609 -3 0 -3 
C -0.795609 -3 -1.55874 -2.683901 -2.12132 -2.12132 
C -2.683901 -1.55874 -3 -0.795609 -3 0 
C -3 0.795609 -2.683901 1.55874 -2.12132 2.12132 
C -1.55874 2.683901 -0.795609 3 0 3 
z
" style="stroke: #1f77b4; stroke-opacity: 0.8"/>
    </defs>
    <g clip-path="url(#p37009b61f9)">
     <use xlink:href="#m255f4671a4" x="217.48899" y="250.611992" style="fill: #1f77b4; fill-opacity: 0.8; stroke: #1f77b4; stroke-opacity: 0.8"/>
     <use xlink:href="#m255f4671a4" x="217.48899" y="112.506123" style="fill: #1f77b4; fill-opacity: 0.8; stroke: #1f77b4; stroke-opacity: 0.8"/>
     <use xlink:href="#m255f4671a4" x="276.684949" y="257.420294" style="fill: #1f77b4; fill-opacity: 0.8; stroke: #1f77b4; stroke-opacity: 0.8"/>
     <use xlink:href="#m255f4671a4" x="187.89101" y="159.106455" style="fill: #1f77b4; fill-opacity: 0.8; stroke: #1f77b4; stroke-opacity: 0.8"/>
     <use xlink:href="#m255f4671a4" x="247.08697" y="189.129023" style="fill: #1f77b4; fill-opacity: 0.8; stroke: #1f77b4; stroke-opacity: 0.8"/>
     <use xlink:href="#m255f4671a4" x="158.29303" y="184.585297" style="fill: #1f77b4; fill-opacity: 0.8; stroke: #1f77b4; stroke-opacity: 0.8"/>
     <use xlink:href="#m255f4671a4" x="276.684949" y="165.381597" style="fill: #1f77b4; fill-opacity: 0.8; stroke: #1f77b4; stroke-opacity: 0.8"/>
     <use xlink:href="#m255f4671a4" x="69.499091" y="167.828651" style="fill: #1f77b4; fill-opacity: 0.8; stroke: #1f77b4; stroke-opacity: 0.8"/>
     <use xlink:href="#m255f4671a4" x="335.880909" y="171.079021" style="fill: #1f77b4; fill-opacity: 0.8; stroke: #1f77b4; stroke-opacity: 0.8"/>
     <use xlink:href="#m255f4671a4" x="99.097071" y="136.576905" style="fill: #1f77b4; fill-opacity: 0.8; stroke: #1f77b4; stroke-opacity: 0.8"/>
     <use xlink:href="#m255f4671a4" x="306.282929" y="139.468594" style="fill: #1f77b4; fill-opacity: 0.8; stroke: #1f77b4; stroke-opacity: 0.8"/>
     <use xlink:href="#m255f4671a4" x="276.684949" y="182.414723" style="fill: #1f77b4; fill-opacity: 0.8; stroke: #1f77b4; stroke-opacity: 0.8"/>
     <use xlink:href="#m255f4671a4" x="158.29303" y="211.513617" style="fill: #1f77b4; fill-opacity: 0.8; stroke: #1f77b4; stroke-opacity: 0.8"/>
     <use xlink:href="#m255f4671a4" x="276.684949" y="227.060669" style="fill: #1f77b4; fill-opacity: 0.8; stroke: #1f77b4; stroke-opacity: 0.8"/>
     <use xlink:href="#m255f4671a4" x="128.695051" y="194.304474" style="fill: #1f77b4; fill-opacity: 0.8; stroke: #1f77b4; stroke-opacity: 0.8"/>
     <use xlink:href="#m255f4671a4" x="335.880909" y="134.169882" style="fill: #1f77b4; fill-opacity: 0.8; stroke: #1f77b4; stroke-opacity: 0.8"/>
     <use xlink:href="#m255f4671a4" x="99.097071" y="24.760852" style="fill: #1f77b4; fill-opacity: 0.8; stroke: #1f77b4; stroke-opacity: 0.8"/>
     <use xlink:href="#m255f4671a4" x="306.282929" y="180.119553" style="fill: #1f77b4; fill-opacity: 0.8; stroke: #1f77b4; stroke-opacity: 0.8"/>
     <use xlink:href="#m255f4671a4" x="276.684949" y="104.302375" style="fill: #1f77b4; fill-opacity: 0.8; stroke: #1f77b4; stroke-opacity: 0.8"/>
     <use xlink:href="#m255f4671a4" x="247.08697" y="162.560541" style="fill: #1f77b4; fill-opacity: 0.8; stroke: #1f77b4; stroke-opacity: 0.8"/>
     <use xlink:href="#m255f4671a4" x="158.29303" y="303.977898" style="fill: #1f77b4; fill-opacity: 0.8; stroke: #1f77b4; stroke-opacity: 0.8"/>
     <use xlink:href="#m255f4671a4" x="128.695051" y="184.431456" style="fill: #1f77b4; fill-opacity: 0.8; stroke: #1f77b4; stroke-opacity: 0.8"/>
     <use xlink:href="#m255f4671a4" x="335.880909" y="230.877296" style="fill: #1f77b4; fill-opacity: 0.8; stroke: #1f77b4; stroke-opacity: 0.8"/>
     <use xlink:href="#m255f4671a4" x="187.89101" y="166.044378" style="fill: #1f77b4; fill-opacity: 0.8; stroke: #1f77b4; stroke-opacity: 0.8"/>
     <use xlink:href="#m255f4671a4" x="128.695051" y="34.147392" style="fill: #1f77b4; fill-opacity: 0.8; stroke: #1f77b4; stroke-opacity: 0.8"/>
     <use xlink:href="#m255f4671a4" x="69.499091" y="154.076707" style="fill: #1f77b4; fill-opacity: 0.8; stroke: #1f77b4; stroke-opacity: 0.8"/>
     <use xlink:href="#m255f4671a4" x="128.695051" y="209.488736" style="fill: #1f77b4; fill-opacity: 0.8; stroke: #1f77b4; stroke-opacity: 0.8"/>
     <use xlink:href="#m255f4671a4" x="335.880909" y="189.006852" style="fill: #1f77b4; fill-opacity: 0.8; stroke: #1f77b4; stroke-opacity: 0.8"/>
     <use xlink:href="#m255f4671a4" x="217.48899" y="141.16346" style="fill: #1f77b4; fill-opacity: 0.8; stroke: #1f77b4; stroke-opacity: 0.8"/>
     <use xlink:href="#m255f4671a4" x="247.08697" y="169.753692" style="fill: #1f77b4; fill-opacity: 0.8; stroke: #1f77b4; stroke-opacity: 0.8"/>
     <use xlink:href="#m255f4671a4" x="335.880909" y="88.182156" style="fill: #1f77b4; fill-opacity: 0.8; stroke: #1f77b4; stroke-opacity: 0.8"/>
     <use xlink:href="#m255f4671a4" x="158.29303" y="264.352746" style="fill: #1f77b4; fill-opacity: 0.8; stroke: #1f77b4; stroke-opacity: 0.8"/>
     <use xlink:href="#m255f4671a4" x="217.48899" y="99.780696" style="fill: #1f77b4; fill-opacity: 0.8; stroke: #1f77b4; stroke-opacity: 0.8"/>
     <use xlink:href="#m255f4671a4" x="99.097071" y="149.325084" style="fill: #1f77b4; fill-opacity: 0.8; stroke: #1f77b4; stroke-opacity: 0.8"/>
     <use xlink:href="#m255f4671a4" x="128.695051" y="169.373842" style="fill: #1f77b4; fill-opacity: 0.8; stroke: #1f77b4; stroke-opacity: 0.8"/>
     <use xlink:href="#m255f4671a4" x="69.499091" y="98.109804" style="fill: #1f77b4; fill-opacity: 0.8; stroke: #1f77b4; stroke-opacity: 0.8"/>
     <use xlink:href="#m255f4671a4" x="306.282929" y="92.400439" style="fill: #1f77b4; fill-opacity: 0.8; stroke: #1f77b4; stroke-opacity: 0.8"/>
     <use xlink:href="#m255f4671a4" x="69.499091" y="207.260306" style="fill: #1f77b4; fill-opacity: 0.8; stroke: #1f77b4; stroke-opacity: 0.8"/>
     <use xlink:href="#m255f4671a4" x="99.097071" y="172.521742" style="fill: #1f77b4; fill-opacity: 0.8; stroke: #1f77b4; stroke-opacity: 0.8"/>
     <use xlink:href="#m255f4671a4" x="187.89101" y="294.983682" style="fill: #1f77b4; fill-opacity: 0.8; stroke: #1f77b4; stroke-opacity: 0.8"/>
     <use xlink:href="#m255f4671a4" x="306.282929" y="61.487464" style="fill: #1f77b4; fill-opacity: 0.8; stroke: #1f77b4; stroke-opacity: 0.8"/>
     <use xlink:href="#m255f4671a4" x="247.08697" y="179.615397" style="fill: #1f77b4; fill-opacity: 0.8; stroke: #1f77b4; stroke-opacity: 0.8"/>
     <use xlink:href="#m255f4671a4" x="99.097071" y="272.881133" style="fill: #1f77b4; fill-opacity: 0.8; stroke: #1f77b4; stroke-opacity: 0.8"/>
     <use xlink:href="#m255f4671a4" x="158.29303" y="193.26002" style="fill: #1f77b4; fill-opacity: 0.8; stroke: #1f77b4; stroke-opacity: 0.8"/>
     <use xlink:href="#m255f4671a4" x="99.097071" y="187.301753" style="fill: #1f77b4; fill-opacity: 0.8; stroke: #1f77b4; stroke-opacity: 0.8"/>
     <use xlink:href="#m255f4671a4" x="217.48899" y="194.607364" style="fill: #1f77b4; fill-opacity: 0.8; stroke: #1f77b4; stroke-opacity: 0.8"/>
     <use xlink:href="#m255f4671a4" x="247.08697" y="183.977751" style="fill: #1f77b4; fill-opacity: 0.8; stroke: #1f77b4; stroke-opacity: 0.8"/>
    </g>
   </g>
   <g id="PolyCollection_1">
    <path d="M 69.499091 144.799155 
L 69.499091 211.267108 
L 72.189816 210.853914 
L 74.880542 210.310516 
L 77.571267 209.492194 
L 80.261993 209.020242 
L 82.952718 208.48391 
L 85.643444 207.759212 
L 88.334169 207.034515 
L 91.024894 206.513456 
L 93.71562 206.017908 
L 96.406345 205.521093 
L 99.097071 205.024278 
L 101.787796 204.52572 
L 104.478522 203.793705 
L 107.169247 203.119612 
L 109.859972 202.603533 
L 112.550698 202.184032 
L 115.241423 201.653335 
L 117.932149 201.066547 
L 120.622874 200.552993 
L 123.3136 200.031382 
L 126.004325 199.516135 
L 128.695051 199.088889 
L 131.385776 198.771592 
L 134.076501 198.386286 
L 136.767227 197.639197 
L 139.457952 196.980334 
L 142.148678 196.84934 
L 144.839403 196.561985 
L 147.530129 195.980764 
L 150.220854 195.637607 
L 152.911579 195.078241 
L 155.602305 194.648032 
L 158.29303 194.155926 
L 160.983756 193.686027 
L 163.674481 193.403972 
L 166.365207 192.572466 
L 169.055932 192.179271 
L 171.746657 191.690676 
L 174.437383 191.195493 
L 177.128108 190.727675 
L 179.818834 190.260442 
L 182.509559 189.736332 
L 185.200285 189.604215 
L 187.89101 189.472098 
L 190.581736 189.338138 
L 193.272461 189.207865 
L 195.963186 189.008502 
L 198.653912 188.799911 
L 201.344637 188.625664 
L 204.035363 188.323122 
L 206.726088 187.930144 
L 209.416814 187.550779 
L 212.107539 187.593742 
L 214.798264 187.481637 
L 217.48899 187.373823 
L 220.179715 187.264917 
L 222.870441 186.999534 
L 225.561166 186.754426 
L 228.251892 186.727717 
L 230.942617 186.501832 
L 233.633343 186.488296 
L 236.324068 186.415419 
L 239.014793 186.304703 
L 241.705519 186.3958 
L 244.396244 186.351824 
L 247.08697 186.60638 
L 249.777695 186.483774 
L 252.468421 186.698195 
L 255.159146 186.845219 
L 257.849871 186.814471 
L 260.540597 186.949134 
L 263.231322 187.138139 
L 265.922048 187.256281 
L 268.612773 187.466743 
L 271.303499 187.558725 
L 273.994224 187.778256 
L 276.684949 188.162327 
L 279.375675 188.420649 
L 282.0664 188.477828 
L 284.757126 188.921081 
L 287.447851 189.273174 
L 290.138577 189.713665 
L 292.829302 189.859218 
L 295.520028 190.009903 
L 298.210753 190.157794 
L 300.901478 190.302846 
L 303.592204 190.447899 
L 306.282929 190.592067 
L 308.973655 190.723073 
L 311.66438 190.879817 
L 314.355106 191.028108 
L 317.045831 191.1747 
L 319.736556 191.325377 
L 322.427282 191.4739 
L 325.118007 191.85368 
L 327.808733 192.214395 
L 330.499458 192.632809 
L 333.190184 193.03891 
L 335.880909 193.434835 
L 335.880909 136.427474 
L 335.880909 136.427474 
L 333.190184 137.010306 
L 330.499458 137.987012 
L 327.808733 138.254442 
L 325.118007 138.535161 
L 322.427282 139.42203 
L 319.736556 140.084161 
L 317.045831 140.588485 
L 314.355106 141.092809 
L 311.66438 141.597133 
L 308.973655 142.257104 
L 306.282929 142.615194 
L 303.592204 143.381129 
L 300.901478 144.333549 
L 298.210753 144.723732 
L 295.520028 145.076307 
L 292.829302 145.527101 
L 290.138577 145.894886 
L 287.447851 146.375076 
L 284.757126 146.983716 
L 282.0664 147.271666 
L 279.375675 147.896798 
L 276.684949 148.816947 
L 273.994224 149.102313 
L 271.303499 149.765947 
L 268.612773 150.165083 
L 265.922048 150.530326 
L 263.231322 151.025799 
L 260.540597 151.382977 
L 257.849871 151.743589 
L 255.159146 152.043723 
L 252.468421 152.230069 
L 249.777695 152.304049 
L 247.08697 152.6113 
L 244.396244 152.784979 
L 241.705519 153.208176 
L 239.014793 153.505757 
L 236.324068 153.629016 
L 233.633343 153.681772 
L 230.942617 153.734972 
L 228.251892 154.072941 
L 225.561166 154.27417 
L 222.870441 154.329879 
L 220.179715 154.429633 
L 217.48899 154.427884 
L 214.798264 154.575544 
L 212.107539 154.664735 
L 209.416814 154.740226 
L 206.726088 154.73731 
L 204.035363 154.601662 
L 201.344637 154.740926 
L 198.653912 154.748358 
L 195.963186 154.674994 
L 193.272461 154.456393 
L 190.581736 154.360904 
L 187.89101 154.195869 
L 185.200285 154.235573 
L 182.509559 154.028246 
L 179.818834 153.830442 
L 177.128108 153.534922 
L 174.437383 153.432512 
L 171.746657 153.249876 
L 169.055932 153.331222 
L 166.365207 152.909751 
L 163.674481 152.925476 
L 160.983756 152.869802 
L 158.29303 152.89376 
L 155.602305 152.795055 
L 152.911579 152.51341 
L 150.220854 152.430527 
L 147.530129 152.237989 
L 144.839403 152.047778 
L 142.148678 151.860195 
L 139.457952 151.677428 
L 136.767227 151.819783 
L 134.076501 151.920175 
L 131.385776 151.859374 
L 128.695051 151.491873 
L 126.004325 151.128958 
L 123.3136 150.947422 
L 120.622874 150.743785 
L 117.932149 150.20754 
L 115.241423 149.963331 
L 112.550698 149.768468 
L 109.859972 149.492995 
L 107.169247 148.998343 
L 104.478522 148.607051 
L 101.787796 148.53147 
L 99.097071 148.462247 
L 96.406345 148.157478 
L 93.71562 147.683852 
L 91.024894 147.67593 
L 88.334169 147.565748 
L 85.643444 147.225372 
L 82.952718 146.820819 
L 80.261993 146.455073 
L 77.571267 146.084981 
L 74.880542 145.723924 
L 72.189816 145.20659 
L 69.499091 144.799155 
z
" clip-path="url(#p37009b61f9)" style="fill: #1f77b4; fill-opacity: 0.15"/>
   </g>
   <g id="matplotlib.axis_1">
    <g id="xtick_1">
     <g id="line2d_1">
      <defs>
       <path id="m63108aa909" d="M 0 0 
L 0 3.5 
" style="stroke: #000000; stroke-width: 0.8"/>
      </defs>
      <g>
       <use xlink:href="#m63108aa909" x="85.204141" y="317.93875" style="stroke: #000000; stroke-width: 0.8"/>
      </g>
     </g>
     <g id="text_1">
      <text style="font: 10px 'sans-serif'; text-anchor: middle" x="85.204141" y="332.537188" transform="rotate(-0, 85.204141, 332.537188)">−4</text>
     </g>
    </g>
    <g id="xtick_2">
     <g id="line2d_2">
      <g>
       <use xlink:href="#m63108aa909" x="144.400101" y="317.93875" style="stroke: #000000; stroke-width: 0.8"/>
      </g>
     </g>
     <g id="text_2">
      <text style="font: 10px 'sans-serif'; text-anchor: middle" x="144.400101" y="332.537188" transform="rotate(-0, 144.400101, 332.537188)">−2</text>
     </g>
    </g>
    <g id="xtick_3">
     <g id="line2d_3">
      <g>
       <use xlink:href="#m63108aa909" x="203.596061" y="317.93875" style="stroke: #000000; stroke-width: 0.8"/>
      </g>
     </g>
     <g id="text_3">
      <text style="font: 10px 'sans-serif'; text-anchor: middle" x="203.596061" y="332.537188" transform="rotate(-0, 203.596061, 332.537188)">0</text>
     </g>
    </g>
    <g id="xtick_4">
     <g id="line2d_4">
      <g>
       <use xlink:href="#m63108aa909" x="262.79202" y="317.93875" style="stroke: #000000; stroke-width: 0.8"/>
      </g>
     </g>
     <g id="text_4">
      <text style="font: 10px 'sans-serif'; text-anchor: middle" x="262.79202" y="332.537188" transform="rotate(-0, 262.79202, 332.537188)">2</text>
     </g>
    </g>
    <g id="xtick_5">
     <g id="line2d_5">
      <g>
       <use xlink:href="#m63108aa909" x="321.98798" y="317.93875" style="stroke: #000000; stroke-width: 0.8"/>
      </g>
     </g>
     <g id="text_5">
      <text style="font: 10px 'sans-serif'; text-anchor: middle" x="321.98798" y="332.537188" transform="rotate(-0, 321.98798, 332.537188)">4</text>
     </g>
    </g>
    <g id="text_6">
     <text style="font: 10px 'sans-serif'; text-anchor: middle" x="202.69" y="346.215312" transform="rotate(-0, 202.69, 346.215312)">Composite_Reward</text>
    </g>
   </g>
   <g id="matplotlib.axis_2">
    <g id="ytick_1">
     <g id="line2d_6">
      <defs>
       <path id="m5daced6334" d="M 0 0 
L -3.5 0 
" style="stroke: #000000; stroke-width: 0.8"/>
      </defs>
      <g>
       <use xlink:href="#m5daced6334" x="56.18" y="276.903063" style="stroke: #000000; stroke-width: 0.8"/>
      </g>
     </g>
     <g id="text_7">
      <text style="font: 10px 'sans-serif'; text-anchor: end" x="49.18" y="280.702281" transform="rotate(-0, 49.18, 280.702281)">−0.4</text>
     </g>
    </g>
    <g id="ytick_2">
     <g id="line2d_7">
      <g>
       <use xlink:href="#m5daced6334" x="56.18" y="226.899408" style="stroke: #000000; stroke-width: 0.8"/>
      </g>
     </g>
     <g id="text_8">
      <text style="font: 10px 'sans-serif'; text-anchor: end" x="49.18" y="230.698626" transform="rotate(-0, 49.18, 230.698626)">−0.2</text>
     </g>
    </g>
    <g id="ytick_3">
     <g id="line2d_8">
      <g>
       <use xlink:href="#m5daced6334" x="56.18" y="176.895752" style="stroke: #000000; stroke-width: 0.8"/>
      </g>
     </g>
     <g id="text_9">
      <text style="font: 10px 'sans-serif'; text-anchor: end" x="49.18" y="180.694971" transform="rotate(-0, 49.18, 180.694971)">0.0</text>
     </g>
    </g>
    <g id="ytick_4">
     <g id="line2d_9">
      <g>
       <use xlink:href="#m5daced6334" x="56.18" y="126.892097" style="stroke: #000000; stroke-width: 0.8"/>
      </g>
     </g>
     <g id="text_10">
      <text style="font: 10px 'sans-serif'; text-anchor: end" x="49.18" y="130.691316" transform="rotate(-0, 49.18, 130.691316)">0.2</text>
     </g>
    </g>
    <g id="ytick_5">
     <g id="line2d_10">
      <g>
       <use xlink:href="#m5daced6334" x="56.18" y="76.888442" style="stroke: #000000; stroke-width: 0.8"/>
      </g>
     </g>
     <g id="text_11">
      <text style="font: 10px 'sans-serif'; text-anchor: end" x="49.18" y="80.687661" transform="rotate(-0, 49.18, 80.687661)">0.4</text>
     </g>
    </g>
    <g id="ytick_6">
     <g id="line2d_11">
      <g>
       <use xlink:href="#m5daced6334" x="56.18" y="26.884787" style="stroke: #000000; stroke-width: 0.8"/>
      </g>
     </g>
     <g id="text_12">
      <text style="font: 10px 'sans-serif'; text-anchor: end" x="49.18" y="30.684005" transform="rotate(-0, 49.18, 30.684005)">0.6</text>
     </g>
    </g>
    <g id="text_13">
     <text style="font: 10px 'sans-serif'; text-anchor: middle" x="18.8175" y="164.369375" transform="rotate(-90, 18.8175, 164.369375)">Conn Loss&gt;Neut</text>
    </g>
   </g>
   <g id="line2d_12">
    <path d="M 69.499091 177.016354 
L 72.189816 176.898398 
L 74.880542 176.780442 
L 77.571267 176.662486 
L 80.261993 176.54453 
L 82.952718 176.426574 
L 85.643444 176.308617 
L 88.334169 176.190661 
L 91.024894 176.072705 
L 93.71562 175.954749 
L 96.406345 175.836793 
L 99.097071 175.718836 
L 101.787796 175.60088 
L 104.478522 175.482924 
L 107.169247 175.364968 
L 109.859972 175.247012 
L 112.550698 175.129056 
L 115.241423 175.011099 
L 117.932149 174.893143 
L 120.622874 174.775187 
L 123.3136 174.657231 
L 126.004325 174.539275 
L 128.695051 174.421318 
L 131.385776 174.303362 
L 134.076501 174.185406 
L 136.767227 174.06745 
L 139.457952 173.949494 
L 142.148678 173.831538 
L 144.839403 173.713581 
L 147.530129 173.595625 
L 150.220854 173.477669 
L 152.911579 173.359713 
L 155.602305 173.241757 
L 158.29303 173.123801 
L 160.983756 173.005844 
L 163.674481 172.887888 
L 166.365207 172.769932 
L 169.055932 172.651976 
L 171.746657 172.53402 
L 174.437383 172.416063 
L 177.128108 172.298107 
L 179.818834 172.180151 
L 182.509559 172.062195 
L 185.200285 171.944239 
L 187.89101 171.826283 
L 190.581736 171.708326 
L 193.272461 171.59037 
L 195.963186 171.472414 
L 198.653912 171.354458 
L 201.344637 171.236502 
L 204.035363 171.118545 
L 206.726088 171.000589 
L 209.416814 170.882633 
L 212.107539 170.764677 
L 214.798264 170.646721 
L 217.48899 170.528765 
L 220.179715 170.410808 
L 222.870441 170.292852 
L 225.561166 170.174896 
L 228.251892 170.05694 
L 230.942617 169.938984 
L 233.633343 169.821027 
L 236.324068 169.703071 
L 239.014793 169.585115 
L 241.705519 169.467159 
L 244.396244 169.349203 
L 247.08697 169.231247 
L 249.777695 169.11329 
L 252.468421 168.995334 
L 255.159146 168.877378 
L 257.849871 168.759422 
L 260.540597 168.641466 
L 263.231322 168.523509 
L 265.922048 168.405553 
L 268.612773 168.287597 
L 271.303499 168.169641 
L 273.994224 168.051685 
L 276.684949 167.933729 
L 279.375675 167.815772 
L 282.0664 167.697816 
L 284.757126 167.57986 
L 287.447851 167.461904 
L 290.138577 167.343948 
L 292.829302 167.225991 
L 295.520028 167.108035 
L 298.210753 166.990079 
L 300.901478 166.872123 
L 303.592204 166.754167 
L 306.282929 166.636211 
L 308.973655 166.518254 
L 311.66438 166.400298 
L 314.355106 166.282342 
L 317.045831 166.164386 
L 319.736556 166.04643 
L 322.427282 165.928474 
L 325.118007 165.810517 
L 327.808733 165.692561 
L 330.499458 165.574605 
L 333.190184 165.456649 
L 335.880909 165.338693 
" clip-path="url(#p37009b61f9)" style="fill: none; stroke: #1f77b4; stroke-width: 2.25; stroke-linecap: square"/>
   </g>
   <g id="patch_3">
    <path d="M 56.18 317.93875 
L 56.18 10.8 
" style="fill: none; stroke: #000000; stroke-width: 0.8; stroke-linejoin: miter; stroke-linecap: square"/>
   </g>
   <g id="patch_4">
    <path d="M 56.18 317.93875 
L 349.2 317.93875 
" style="fill: none; stroke: #000000; stroke-width: 0.8; stroke-linejoin: miter; stroke-linecap: square"/>
   </g>
  </g>
 </g>
 <defs>
  <clipPath id="p37009b61f9">
   <rect x="56.18" y="10.8" width="293.02" height="307.13875"/>
  </clipPath>
 </defs>
</svg>
