<?xml version="1.0" encoding="utf-8" standalone="no"?>
<!DOCTYPE svg PUBLIC "-//W3C//DTD SVG 1.1//EN"
  "http://www.w3.org/Graphics/SVG/1.1/DTD/svg11.dtd">
<svg xmlns:xlink="http://www.w3.org/1999/xlink" width="360pt" height="360pt" viewBox="0 0 360 360" xmlns="http://www.w3.org/2000/svg" version="1.1">
 <metadata>
  <rdf:RDF xmlns:dc="http://purl.org/dc/elements/1.1/" xmlns:cc="http://creativecommons.org/ns#" xmlns:rdf="http://www.w3.org/1999/02/22-rdf-syntax-ns#">
   <cc:Work>
    <dc:type rdf:resource="http://purl.org/dc/dcmitype/StillImage"/>
    <dc:date>2022-11-22T21:44:39.545985</dc:date>
    <dc:format>image/svg+xml</dc:format>
    <dc:creator>
     <cc:Agent>
      <dc:title>Matplotlib v3.5.3, https://matplotlib.org/</dc:title>
     </cc:Agent>
    </dc:creator>
   </cc:Work>
  </rdf:RDF>
 </metadata>
 <defs>
  <style type="text/css">*{stroke-linejoin: round; stroke-linecap: butt}</style>
 </defs>
 <g id="figure_1">
  <g id="patch_1">
   <path d="M 0 360 
L 360 360 
L 360 0 
L 0 0 
z
" style="fill: #ffffff"/>
  </g>
  <g id="axes_1">
   <g id="patch_2">
    <path d="M 56.18 317.93875 
L 349.2 317.93875 
L 349.2 10.8 
L 56.18 10.8 
z
" style="fill: #ffffff"/>
   </g>
   <g id="PathCollection_1">
    <defs>
     <path id="m9bd0687f59" d="M 0 3 
C 0.795609 3 1.55874 2.683901 2.12132 2.12132 
C 2.683901 1.55874 3 0.795609 3 0 
C 3 -0.795609 2.683901 -1.55874 2.12132 -2.12132 
C 1.55874 -2.683901 0.795609 -3 0 -3 
C -0.795609 -3 -1.55874 -2.683901 -2.12132 -2.12132 
C -2.683901 -1.55874 -3 -0.795609 -3 0 
C -3 0.795609 -2.683901 1.55874 -2.12132 2.12132 
C -1.55874 2.683901 -0.795609 3 0 3 
z
" style="stroke: #1f77b4; stroke-opacity: 0.8"/>
    </defs>
    <g clip-path="url(#p2e7e210e7d)">
     <use xlink:href="#m9bd0687f59" x="217.48899" y="132.590122" style="fill: #1f77b4; fill-opacity: 0.8; stroke: #1f77b4; stroke-opacity: 0.8"/>
     <use xlink:href="#m9bd0687f59" x="217.48899" y="164.940168" style="fill: #1f77b4; fill-opacity: 0.8; stroke: #1f77b4; stroke-opacity: 0.8"/>
     <use xlink:href="#m9bd0687f59" x="276.684949" y="303.977898" style="fill: #1f77b4; fill-opacity: 0.8; stroke: #1f77b4; stroke-opacity: 0.8"/>
     <use xlink:href="#m9bd0687f59" x="187.89101" y="136.258291" style="fill: #1f77b4; fill-opacity: 0.8; stroke: #1f77b4; stroke-opacity: 0.8"/>
     <use xlink:href="#m9bd0687f59" x="247.08697" y="189.924246" style="fill: #1f77b4; fill-opacity: 0.8; stroke: #1f77b4; stroke-opacity: 0.8"/>
     <use xlink:href="#m9bd0687f59" x="158.29303" y="75.991629" style="fill: #1f77b4; fill-opacity: 0.8; stroke: #1f77b4; stroke-opacity: 0.8"/>
     <use xlink:href="#m9bd0687f59" x="276.684949" y="109.889691" style="fill: #1f77b4; fill-opacity: 0.8; stroke: #1f77b4; stroke-opacity: 0.8"/>
     <use xlink:href="#m9bd0687f59" x="69.499091" y="112.119743" style="fill: #1f77b4; fill-opacity: 0.8; stroke: #1f77b4; stroke-opacity: 0.8"/>
     <use xlink:href="#m9bd0687f59" x="335.880909" y="136.268067" style="fill: #1f77b4; fill-opacity: 0.8; stroke: #1f77b4; stroke-opacity: 0.8"/>
     <use xlink:href="#m9bd0687f59" x="99.097071" y="122.102233" style="fill: #1f77b4; fill-opacity: 0.8; stroke: #1f77b4; stroke-opacity: 0.8"/>
     <use xlink:href="#m9bd0687f59" x="306.282929" y="152.412398" style="fill: #1f77b4; fill-opacity: 0.8; stroke: #1f77b4; stroke-opacity: 0.8"/>
     <use xlink:href="#m9bd0687f59" x="276.684949" y="108.997699" style="fill: #1f77b4; fill-opacity: 0.8; stroke: #1f77b4; stroke-opacity: 0.8"/>
     <use xlink:href="#m9bd0687f59" x="158.29303" y="174.79574" style="fill: #1f77b4; fill-opacity: 0.8; stroke: #1f77b4; stroke-opacity: 0.8"/>
     <use xlink:href="#m9bd0687f59" x="276.684949" y="149.307897" style="fill: #1f77b4; fill-opacity: 0.8; stroke: #1f77b4; stroke-opacity: 0.8"/>
     <use xlink:href="#m9bd0687f59" x="128.695051" y="204.500613" style="fill: #1f77b4; fill-opacity: 0.8; stroke: #1f77b4; stroke-opacity: 0.8"/>
     <use xlink:href="#m9bd0687f59" x="335.880909" y="167.31787" style="fill: #1f77b4; fill-opacity: 0.8; stroke: #1f77b4; stroke-opacity: 0.8"/>
     <use xlink:href="#m9bd0687f59" x="99.097071" y="32.5894" style="fill: #1f77b4; fill-opacity: 0.8; stroke: #1f77b4; stroke-opacity: 0.8"/>
     <use xlink:href="#m9bd0687f59" x="306.282929" y="137.207085" style="fill: #1f77b4; fill-opacity: 0.8; stroke: #1f77b4; stroke-opacity: 0.8"/>
     <use xlink:href="#m9bd0687f59" x="276.684949" y="129.815606" style="fill: #1f77b4; fill-opacity: 0.8; stroke: #1f77b4; stroke-opacity: 0.8"/>
     <use xlink:href="#m9bd0687f59" x="247.08697" y="237.549484" style="fill: #1f77b4; fill-opacity: 0.8; stroke: #1f77b4; stroke-opacity: 0.8"/>
     <use xlink:href="#m9bd0687f59" x="158.29303" y="108.899579" style="fill: #1f77b4; fill-opacity: 0.8; stroke: #1f77b4; stroke-opacity: 0.8"/>
     <use xlink:href="#m9bd0687f59" x="128.695051" y="119.251867" style="fill: #1f77b4; fill-opacity: 0.8; stroke: #1f77b4; stroke-opacity: 0.8"/>
     <use xlink:href="#m9bd0687f59" x="335.880909" y="213.076117" style="fill: #1f77b4; fill-opacity: 0.8; stroke: #1f77b4; stroke-opacity: 0.8"/>
     <use xlink:href="#m9bd0687f59" x="187.89101" y="55.138555" style="fill: #1f77b4; fill-opacity: 0.8; stroke: #1f77b4; stroke-opacity: 0.8"/>
     <use xlink:href="#m9bd0687f59" x="128.695051" y="123.653226" style="fill: #1f77b4; fill-opacity: 0.8; stroke: #1f77b4; stroke-opacity: 0.8"/>
     <use xlink:href="#m9bd0687f59" x="69.499091" y="207.843008" style="fill: #1f77b4; fill-opacity: 0.8; stroke: #1f77b4; stroke-opacity: 0.8"/>
     <use xlink:href="#m9bd0687f59" x="128.695051" y="162.50788" style="fill: #1f77b4; fill-opacity: 0.8; stroke: #1f77b4; stroke-opacity: 0.8"/>
     <use xlink:href="#m9bd0687f59" x="335.880909" y="111.796515" style="fill: #1f77b4; fill-opacity: 0.8; stroke: #1f77b4; stroke-opacity: 0.8"/>
     <use xlink:href="#m9bd0687f59" x="217.48899" y="85.438639" style="fill: #1f77b4; fill-opacity: 0.8; stroke: #1f77b4; stroke-opacity: 0.8"/>
     <use xlink:href="#m9bd0687f59" x="247.08697" y="123.39353" style="fill: #1f77b4; fill-opacity: 0.8; stroke: #1f77b4; stroke-opacity: 0.8"/>
     <use xlink:href="#m9bd0687f59" x="335.880909" y="106.004431" style="fill: #1f77b4; fill-opacity: 0.8; stroke: #1f77b4; stroke-opacity: 0.8"/>
     <use xlink:href="#m9bd0687f59" x="158.29303" y="211.520288" style="fill: #1f77b4; fill-opacity: 0.8; stroke: #1f77b4; stroke-opacity: 0.8"/>
     <use xlink:href="#m9bd0687f59" x="217.48899" y="140.578507" style="fill: #1f77b4; fill-opacity: 0.8; stroke: #1f77b4; stroke-opacity: 0.8"/>
     <use xlink:href="#m9bd0687f59" x="99.097071" y="109.194377" style="fill: #1f77b4; fill-opacity: 0.8; stroke: #1f77b4; stroke-opacity: 0.8"/>
     <use xlink:href="#m9bd0687f59" x="128.695051" y="164.83156" style="fill: #1f77b4; fill-opacity: 0.8; stroke: #1f77b4; stroke-opacity: 0.8"/>
     <use xlink:href="#m9bd0687f59" x="69.499091" y="157.549851" style="fill: #1f77b4; fill-opacity: 0.8; stroke: #1f77b4; stroke-opacity: 0.8"/>
     <use xlink:href="#m9bd0687f59" x="306.282929" y="126.748102" style="fill: #1f77b4; fill-opacity: 0.8; stroke: #1f77b4; stroke-opacity: 0.8"/>
     <use xlink:href="#m9bd0687f59" x="69.499091" y="187.147441" style="fill: #1f77b4; fill-opacity: 0.8; stroke: #1f77b4; stroke-opacity: 0.8"/>
     <use xlink:href="#m9bd0687f59" x="99.097071" y="179.621632" style="fill: #1f77b4; fill-opacity: 0.8; stroke: #1f77b4; stroke-opacity: 0.8"/>
     <use xlink:href="#m9bd0687f59" x="187.89101" y="24.760852" style="fill: #1f77b4; fill-opacity: 0.8; stroke: #1f77b4; stroke-opacity: 0.8"/>
     <use xlink:href="#m9bd0687f59" x="306.282929" y="101.078493" style="fill: #1f77b4; fill-opacity: 0.8; stroke: #1f77b4; stroke-opacity: 0.8"/>
     <use xlink:href="#m9bd0687f59" x="247.08697" y="107.991299" style="fill: #1f77b4; fill-opacity: 0.8; stroke: #1f77b4; stroke-opacity: 0.8"/>
     <use xlink:href="#m9bd0687f59" x="99.097071" y="169.810306" style="fill: #1f77b4; fill-opacity: 0.8; stroke: #1f77b4; stroke-opacity: 0.8"/>
     <use xlink:href="#m9bd0687f59" x="158.29303" y="183.913381" style="fill: #1f77b4; fill-opacity: 0.8; stroke: #1f77b4; stroke-opacity: 0.8"/>
     <use xlink:href="#m9bd0687f59" x="99.097071" y="162.981166" style="fill: #1f77b4; fill-opacity: 0.8; stroke: #1f77b4; stroke-opacity: 0.8"/>
     <use xlink:href="#m9bd0687f59" x="217.48899" y="155.22746" style="fill: #1f77b4; fill-opacity: 0.8; stroke: #1f77b4; stroke-opacity: 0.8"/>
     <use xlink:href="#m9bd0687f59" x="247.08697" y="122.869753" style="fill: #1f77b4; fill-opacity: 0.8; stroke: #1f77b4; stroke-opacity: 0.8"/>
    </g>
   </g>
   <g id="PolyCollection_1">
    <path d="M 69.499091 115.821755 
L 69.499091 165.84231 
L 72.189816 165.482414 
L 74.880542 165.094548 
L 77.571267 164.686737 
L 80.261993 164.432004 
L 82.952718 164.177272 
L 85.643444 163.852333 
L 88.334169 163.404926 
L 91.024894 163.187421 
L 93.71562 162.973945 
L 96.406345 162.649929 
L 99.097071 162.271486 
L 101.787796 162.01518 
L 104.478522 161.714307 
L 107.169247 161.434006 
L 109.859972 161.080925 
L 112.550698 160.958118 
L 115.241423 160.624372 
L 117.932149 160.329884 
L 120.622874 160.157645 
L 123.3136 159.977855 
L 126.004325 159.857733 
L 128.695051 159.671183 
L 131.385776 159.540368 
L 134.076501 159.34671 
L 136.767227 159.113616 
L 139.457952 158.863571 
L 142.148678 158.766779 
L 144.839403 158.516105 
L 147.530129 158.365127 
L 150.220854 158.098103 
L 152.911579 157.891887 
L 155.602305 157.807092 
L 158.29303 157.702087 
L 160.983756 157.609889 
L 163.674481 157.30188 
L 166.365207 157.209173 
L 169.055932 157.266393 
L 171.746657 157.325004 
L 174.437383 157.308073 
L 177.128108 157.205011 
L 179.818834 157.382481 
L 182.509559 157.432084 
L 185.200285 157.609897 
L 187.89101 157.664444 
L 190.581736 157.713555 
L 193.272461 157.50067 
L 195.963186 157.223214 
L 198.653912 157.292668 
L 201.344637 157.663924 
L 204.035363 157.684479 
L 206.726088 157.719676 
L 209.416814 157.570483 
L 212.107539 157.639937 
L 214.798264 157.711748 
L 217.48899 157.850121 
L 220.179715 157.940513 
L 222.870441 158.181963 
L 225.561166 158.297782 
L 228.251892 158.498348 
L 230.942617 158.708451 
L 233.633343 158.843812 
L 236.324068 158.859912 
L 239.014793 158.943495 
L 241.705519 159.217009 
L 244.396244 159.494554 
L 247.08697 159.7721 
L 249.777695 160.049645 
L 252.468421 160.334982 
L 255.159146 160.690079 
L 257.849871 161.013326 
L 260.540597 161.228834 
L 263.231322 161.606747 
L 265.922048 162.004244 
L 268.612773 162.145192 
L 271.303499 162.304382 
L 273.994224 162.691091 
L 276.684949 163.077801 
L 279.375675 163.463997 
L 282.0664 163.686134 
L 284.757126 163.766161 
L 287.447851 164.240992 
L 290.138577 164.489867 
L 292.829302 165.017921 
L 295.520028 165.295036 
L 298.210753 165.48215 
L 300.901478 165.811806 
L 303.592204 166.268555 
L 306.282929 166.617433 
L 308.973655 166.910403 
L 311.66438 167.19149 
L 314.355106 167.472577 
L 317.045831 167.753663 
L 319.736556 168.03475 
L 322.427282 168.315561 
L 325.118007 168.613415 
L 327.808733 168.945533 
L 330.499458 169.190902 
L 333.190184 169.43375 
L 335.880909 169.68296 
L 335.880909 117.563508 
L 335.880909 117.563508 
L 333.190184 117.789678 
L 330.499458 118.015848 
L 327.808733 118.242018 
L 325.118007 118.468188 
L 322.427282 118.7573 
L 319.736556 118.921522 
L 317.045831 119.267526 
L 314.355106 119.651958 
L 311.66438 120.03737 
L 308.973655 120.422783 
L 306.282929 120.810356 
L 303.592204 121.158 
L 300.901478 121.581337 
L 298.210753 121.968143 
L 295.520028 122.354976 
L 292.829302 122.616679 
L 290.138577 122.886734 
L 287.447851 123.023444 
L 284.757126 123.34447 
L 282.0664 123.618373 
L 279.375675 123.594704 
L 276.684949 123.853294 
L 273.994224 123.95838 
L 271.303499 124.165073 
L 268.612773 124.32309 
L 265.922048 124.481108 
L 263.231322 124.784231 
L 260.540597 125.322594 
L 257.849871 125.738105 
L 255.159146 125.89268 
L 252.468421 126.351874 
L 249.777695 126.562794 
L 247.08697 126.824689 
L 244.396244 127.266758 
L 241.705519 127.34879 
L 239.014793 127.652709 
L 236.324068 127.836459 
L 233.633343 128.145292 
L 230.942617 128.137475 
L 228.251892 128.439573 
L 225.561166 128.635925 
L 222.870441 128.667649 
L 220.179715 128.498607 
L 217.48899 128.63815 
L 214.798264 128.583521 
L 212.107539 128.506552 
L 209.416814 128.452812 
L 206.726088 128.401874 
L 204.035363 128.43654 
L 201.344637 128.503787 
L 198.653912 128.382543 
L 195.963186 128.318903 
L 193.272461 128.136447 
L 190.581736 127.992496 
L 187.89101 127.625127 
L 185.200285 127.489728 
L 182.509559 127.370964 
L 179.818834 127.283968 
L 177.128108 127.183816 
L 174.437383 127.084728 
L 171.746657 126.811532 
L 169.055932 126.743784 
L 166.365207 126.536995 
L 163.674481 126.400576 
L 160.983756 126.265554 
L 158.29303 126.130532 
L 155.602305 125.871232 
L 152.911579 125.755377 
L 150.220854 125.63564 
L 147.530129 125.166111 
L 144.839403 124.626226 
L 142.148678 124.279041 
L 139.457952 123.93946 
L 136.767227 123.594226 
L 134.076501 123.248993 
L 131.385776 122.905756 
L 128.695051 122.564689 
L 126.004325 122.223623 
L 123.3136 121.882556 
L 120.622874 121.541489 
L 117.932149 121.200422 
L 115.241423 120.859355 
L 112.550698 120.65581 
L 109.859972 120.601431 
L 107.169247 120.547558 
L 104.478522 120.494316 
L 101.787796 119.995245 
L 99.097071 119.307518 
L 96.406345 118.667651 
L 93.71562 118.365987 
L 91.024894 118.072324 
L 88.334169 117.867835 
L 85.643444 117.781797 
L 82.952718 117.417844 
L 80.261993 116.888007 
L 77.571267 116.58949 
L 74.880542 116.294533 
L 72.189816 116.048109 
L 69.499091 115.821755 
z
" clip-path="url(#p2e7e210e7d)" style="fill: #1f77b4; fill-opacity: 0.15"/>
   </g>
   <g id="matplotlib.axis_1">
    <g id="xtick_1">
     <g id="line2d_1">
      <defs>
       <path id="ma5ceafdc88" d="M 0 0 
L 0 3.5 
" style="stroke: #000000; stroke-width: 0.8"/>
      </defs>
      <g>
       <use xlink:href="#ma5ceafdc88" x="85.204141" y="317.93875" style="stroke: #000000; stroke-width: 0.8"/>
      </g>
     </g>
     <g id="text_1">
      <text style="font: 10px 'sans-serif'; text-anchor: middle" x="85.204141" y="332.537188" transform="rotate(-0, 85.204141, 332.537188)">−4</text>
     </g>
    </g>
    <g id="xtick_2">
     <g id="line2d_2">
      <g>
       <use xlink:href="#ma5ceafdc88" x="144.400101" y="317.93875" style="stroke: #000000; stroke-width: 0.8"/>
      </g>
     </g>
     <g id="text_2">
      <text style="font: 10px 'sans-serif'; text-anchor: middle" x="144.400101" y="332.537188" transform="rotate(-0, 144.400101, 332.537188)">−2</text>
     </g>
    </g>
    <g id="xtick_3">
     <g id="line2d_3">
      <g>
       <use xlink:href="#ma5ceafdc88" x="203.596061" y="317.93875" style="stroke: #000000; stroke-width: 0.8"/>
      </g>
     </g>
     <g id="text_3">
      <text style="font: 10px 'sans-serif'; text-anchor: middle" x="203.596061" y="332.537188" transform="rotate(-0, 203.596061, 332.537188)">0</text>
     </g>
    </g>
    <g id="xtick_4">
     <g id="line2d_4">
      <g>
       <use xlink:href="#ma5ceafdc88" x="262.79202" y="317.93875" style="stroke: #000000; stroke-width: 0.8"/>
      </g>
     </g>
     <g id="text_4">
      <text style="font: 10px 'sans-serif'; text-anchor: middle" x="262.79202" y="332.537188" transform="rotate(-0, 262.79202, 332.537188)">2</text>
     </g>
    </g>
    <g id="xtick_5">
     <g id="line2d_5">
      <g>
       <use xlink:href="#ma5ceafdc88" x="321.98798" y="317.93875" style="stroke: #000000; stroke-width: 0.8"/>
      </g>
     </g>
     <g id="text_5">
      <text style="font: 10px 'sans-serif'; text-anchor: middle" x="321.98798" y="332.537188" transform="rotate(-0, 321.98798, 332.537188)">4</text>
     </g>
    </g>
    <g id="text_6">
     <text style="font: 10px 'sans-serif'; text-anchor: middle" x="202.69" y="346.215312" transform="rotate(-0, 202.69, 346.215312)">Composite_Reward</text>
    </g>
   </g>
   <g id="matplotlib.axis_2">
    <g id="ytick_1">
     <g id="line2d_6">
      <defs>
       <path id="mc185da02ff" d="M 0 0 
L -3.5 0 
" style="stroke: #000000; stroke-width: 0.8"/>
      </defs>
      <g>
       <use xlink:href="#mc185da02ff" x="56.18" y="282.281112" style="stroke: #000000; stroke-width: 0.8"/>
      </g>
     </g>
     <g id="text_7">
      <text style="font: 10px 'sans-serif'; text-anchor: end" x="49.18" y="286.08033" transform="rotate(-0, 49.18, 286.08033)">−1.5</text>
     </g>
    </g>
    <g id="ytick_2">
     <g id="line2d_7">
      <g>
       <use xlink:href="#mc185da02ff" x="56.18" y="235.095064" style="stroke: #000000; stroke-width: 0.8"/>
      </g>
     </g>
     <g id="text_8">
      <text style="font: 10px 'sans-serif'; text-anchor: end" x="49.18" y="238.894283" transform="rotate(-0, 49.18, 238.894283)">−1.0</text>
     </g>
    </g>
    <g id="ytick_3">
     <g id="line2d_8">
      <g>
       <use xlink:href="#mc185da02ff" x="56.18" y="187.909017" style="stroke: #000000; stroke-width: 0.8"/>
      </g>
     </g>
     <g id="text_9">
      <text style="font: 10px 'sans-serif'; text-anchor: end" x="49.18" y="191.708236" transform="rotate(-0, 49.18, 191.708236)">−0.5</text>
     </g>
    </g>
    <g id="ytick_4">
     <g id="line2d_9">
      <g>
       <use xlink:href="#mc185da02ff" x="56.18" y="140.72297" style="stroke: #000000; stroke-width: 0.8"/>
      </g>
     </g>
     <g id="text_10">
      <text style="font: 10px 'sans-serif'; text-anchor: end" x="49.18" y="144.522189" transform="rotate(-0, 49.18, 144.522189)">0.0</text>
     </g>
    </g>
    <g id="ytick_5">
     <g id="line2d_10">
      <g>
       <use xlink:href="#mc185da02ff" x="56.18" y="93.536923" style="stroke: #000000; stroke-width: 0.8"/>
      </g>
     </g>
     <g id="text_11">
      <text style="font: 10px 'sans-serif'; text-anchor: end" x="49.18" y="97.336141" transform="rotate(-0, 49.18, 97.336141)">0.5</text>
     </g>
    </g>
    <g id="ytick_6">
     <g id="line2d_11">
      <g>
       <use xlink:href="#mc185da02ff" x="56.18" y="46.350875" style="stroke: #000000; stroke-width: 0.8"/>
      </g>
     </g>
     <g id="text_12">
      <text style="font: 10px 'sans-serif'; text-anchor: end" x="49.18" y="50.150094" transform="rotate(-0, 49.18, 50.150094)">1.0</text>
     </g>
    </g>
    <g id="text_13">
     <text style="font: 10px 'sans-serif'; text-anchor: middle" x="18.8175" y="164.369375" transform="rotate(-90, 18.8175, 164.369375)">Conn Loss&gt;Neut</text>
    </g>
   </g>
   <g id="line2d_12">
    <path d="M 69.499091 143.023724 
L 72.189816 143.01475 
L 74.880542 143.005775 
L 77.571267 142.9968 
L 80.261993 142.987826 
L 82.952718 142.978851 
L 85.643444 142.969877 
L 88.334169 142.960902 
L 91.024894 142.951927 
L 93.71562 142.942953 
L 96.406345 142.933978 
L 99.097071 142.925004 
L 101.787796 142.916029 
L 104.478522 142.907054 
L 107.169247 142.89808 
L 109.859972 142.889105 
L 112.550698 142.880131 
L 115.241423 142.871156 
L 117.932149 142.862181 
L 120.622874 142.853207 
L 123.3136 142.844232 
L 126.004325 142.835258 
L 128.695051 142.826283 
L 131.385776 142.817308 
L 134.076501 142.808334 
L 136.767227 142.799359 
L 139.457952 142.790384 
L 142.148678 142.78141 
L 144.839403 142.772435 
L 147.530129 142.763461 
L 150.220854 142.754486 
L 152.911579 142.745511 
L 155.602305 142.736537 
L 158.29303 142.727562 
L 160.983756 142.718588 
L 163.674481 142.709613 
L 166.365207 142.700638 
L 169.055932 142.691664 
L 171.746657 142.682689 
L 174.437383 142.673715 
L 177.128108 142.66474 
L 179.818834 142.655765 
L 182.509559 142.646791 
L 185.200285 142.637816 
L 187.89101 142.628842 
L 190.581736 142.619867 
L 193.272461 142.610892 
L 195.963186 142.601918 
L 198.653912 142.592943 
L 201.344637 142.583968 
L 204.035363 142.574994 
L 206.726088 142.566019 
L 209.416814 142.557045 
L 212.107539 142.54807 
L 214.798264 142.539095 
L 217.48899 142.530121 
L 220.179715 142.521146 
L 222.870441 142.512172 
L 225.561166 142.503197 
L 228.251892 142.494222 
L 230.942617 142.485248 
L 233.633343 142.476273 
L 236.324068 142.467299 
L 239.014793 142.458324 
L 241.705519 142.449349 
L 244.396244 142.440375 
L 247.08697 142.4314 
L 249.777695 142.422425 
L 252.468421 142.413451 
L 255.159146 142.404476 
L 257.849871 142.395502 
L 260.540597 142.386527 
L 263.231322 142.377552 
L 265.922048 142.368578 
L 268.612773 142.359603 
L 271.303499 142.350629 
L 273.994224 142.341654 
L 276.684949 142.332679 
L 279.375675 142.323705 
L 282.0664 142.31473 
L 284.757126 142.305756 
L 287.447851 142.296781 
L 290.138577 142.287806 
L 292.829302 142.278832 
L 295.520028 142.269857 
L 298.210753 142.260883 
L 300.901478 142.251908 
L 303.592204 142.242933 
L 306.282929 142.233959 
L 308.973655 142.224984 
L 311.66438 142.216009 
L 314.355106 142.207035 
L 317.045831 142.19806 
L 319.736556 142.189086 
L 322.427282 142.180111 
L 325.118007 142.171136 
L 327.808733 142.162162 
L 330.499458 142.153187 
L 333.190184 142.144213 
L 335.880909 142.135238 
" clip-path="url(#p2e7e210e7d)" style="fill: none; stroke: #1f77b4; stroke-width: 2.25; stroke-linecap: square"/>
   </g>
   <g id="patch_3">
    <path d="M 56.18 317.93875 
L 56.18 10.8 
" style="fill: none; stroke: #000000; stroke-width: 0.8; stroke-linejoin: miter; stroke-linecap: square"/>
   </g>
   <g id="patch_4">
    <path d="M 56.18 317.93875 
L 349.2 317.93875 
" style="fill: none; stroke: #000000; stroke-width: 0.8; stroke-linejoin: miter; stroke-linecap: square"/>
   </g>
  </g>
 </g>
 <defs>
  <clipPath id="p2e7e210e7d">
   <rect x="56.18" y="10.8" width="293.02" height="307.13875"/>
  </clipPath>
 </defs>
</svg>
