<?xml version="1.0" encoding="utf-8" standalone="no"?>
<!DOCTYPE svg PUBLIC "-//W3C//DTD SVG 1.1//EN"
  "http://www.w3.org/Graphics/SVG/1.1/DTD/svg11.dtd">
<svg xmlns:xlink="http://www.w3.org/1999/xlink" width="360pt" height="360pt" viewBox="0 0 360 360" xmlns="http://www.w3.org/2000/svg" version="1.1">
 <metadata>
  <rdf:RDF xmlns:dc="http://purl.org/dc/elements/1.1/" xmlns:cc="http://creativecommons.org/ns#" xmlns:rdf="http://www.w3.org/1999/02/22-rdf-syntax-ns#">
   <cc:Work>
    <dc:type rdf:resource="http://purl.org/dc/dcmitype/StillImage"/>
    <dc:date>2022-11-22T21:48:53.204129</dc:date>
    <dc:format>image/svg+xml</dc:format>
    <dc:creator>
     <cc:Agent>
      <dc:title>Matplotlib v3.5.3, https://matplotlib.org/</dc:title>
     </cc:Agent>
    </dc:creator>
   </cc:Work>
  </rdf:RDF>
 </metadata>
 <defs>
  <style type="text/css">*{stroke-linejoin: round; stroke-linecap: butt}</style>
 </defs>
 <g id="figure_1">
  <g id="patch_1">
   <path d="M 0 360 
L 360 360 
L 360 0 
L 0 0 
z
" style="fill: #ffffff"/>
  </g>
  <g id="axes_1">
   <g id="patch_2">
    <path d="M 56.18 317.93875 
L 349.2 317.93875 
L 349.2 10.8 
L 56.18 10.8 
z
" style="fill: #ffffff"/>
   </g>
   <g id="PathCollection_1">
    <defs>
     <path id="m0e97831a22" d="M 0 3 
C 0.795609 3 1.55874 2.683901 2.12132 2.12132 
C 2.683901 1.55874 3 0.795609 3 0 
C 3 -0.795609 2.683901 -1.55874 2.12132 -2.12132 
C 1.55874 -2.683901 0.795609 -3 0 -3 
C -0.795609 -3 -1.55874 -2.683901 -2.12132 -2.12132 
C -2.683901 -1.55874 -3 -0.795609 -3 0 
C -3 0.795609 -2.683901 1.55874 -2.12132 2.12132 
C -1.55874 2.683901 -0.795609 3 0 3 
z
" style="stroke: #1f77b4; stroke-opacity: 0.8"/>
    </defs>
    <g clip-path="url(#p4754e528af)">
     <use xlink:href="#m0e97831a22" x="217.48899" y="120.930082" style="fill: #1f77b4; fill-opacity: 0.8; stroke: #1f77b4; stroke-opacity: 0.8"/>
     <use xlink:href="#m0e97831a22" x="217.48899" y="303.977898" style="fill: #1f77b4; fill-opacity: 0.8; stroke: #1f77b4; stroke-opacity: 0.8"/>
     <use xlink:href="#m0e97831a22" x="276.684949" y="192.197897" style="fill: #1f77b4; fill-opacity: 0.8; stroke: #1f77b4; stroke-opacity: 0.8"/>
     <use xlink:href="#m0e97831a22" x="187.89101" y="82.456665" style="fill: #1f77b4; fill-opacity: 0.8; stroke: #1f77b4; stroke-opacity: 0.8"/>
     <use xlink:href="#m0e97831a22" x="247.08697" y="101.380621" style="fill: #1f77b4; fill-opacity: 0.8; stroke: #1f77b4; stroke-opacity: 0.8"/>
     <use xlink:href="#m0e97831a22" x="158.29303" y="52.620892" style="fill: #1f77b4; fill-opacity: 0.8; stroke: #1f77b4; stroke-opacity: 0.8"/>
     <use xlink:href="#m0e97831a22" x="276.684949" y="139.948128" style="fill: #1f77b4; fill-opacity: 0.8; stroke: #1f77b4; stroke-opacity: 0.8"/>
     <use xlink:href="#m0e97831a22" x="69.499091" y="148.613975" style="fill: #1f77b4; fill-opacity: 0.8; stroke: #1f77b4; stroke-opacity: 0.8"/>
     <use xlink:href="#m0e97831a22" x="335.880909" y="122.192393" style="fill: #1f77b4; fill-opacity: 0.8; stroke: #1f77b4; stroke-opacity: 0.8"/>
     <use xlink:href="#m0e97831a22" x="99.097071" y="70.337137" style="fill: #1f77b4; fill-opacity: 0.8; stroke: #1f77b4; stroke-opacity: 0.8"/>
     <use xlink:href="#m0e97831a22" x="306.282929" y="149.730862" style="fill: #1f77b4; fill-opacity: 0.8; stroke: #1f77b4; stroke-opacity: 0.8"/>
     <use xlink:href="#m0e97831a22" x="276.684949" y="113.66343" style="fill: #1f77b4; fill-opacity: 0.8; stroke: #1f77b4; stroke-opacity: 0.8"/>
     <use xlink:href="#m0e97831a22" x="158.29303" y="76.344089" style="fill: #1f77b4; fill-opacity: 0.8; stroke: #1f77b4; stroke-opacity: 0.8"/>
     <use xlink:href="#m0e97831a22" x="276.684949" y="145.075129" style="fill: #1f77b4; fill-opacity: 0.8; stroke: #1f77b4; stroke-opacity: 0.8"/>
     <use xlink:href="#m0e97831a22" x="128.695051" y="126.110488" style="fill: #1f77b4; fill-opacity: 0.8; stroke: #1f77b4; stroke-opacity: 0.8"/>
     <use xlink:href="#m0e97831a22" x="335.880909" y="169.601222" style="fill: #1f77b4; fill-opacity: 0.8; stroke: #1f77b4; stroke-opacity: 0.8"/>
     <use xlink:href="#m0e97831a22" x="99.097071" y="171.12665" style="fill: #1f77b4; fill-opacity: 0.8; stroke: #1f77b4; stroke-opacity: 0.8"/>
     <use xlink:href="#m0e97831a22" x="306.282929" y="134.942658" style="fill: #1f77b4; fill-opacity: 0.8; stroke: #1f77b4; stroke-opacity: 0.8"/>
     <use xlink:href="#m0e97831a22" x="276.684949" y="147.845676" style="fill: #1f77b4; fill-opacity: 0.8; stroke: #1f77b4; stroke-opacity: 0.8"/>
     <use xlink:href="#m0e97831a22" x="247.08697" y="35.625035" style="fill: #1f77b4; fill-opacity: 0.8; stroke: #1f77b4; stroke-opacity: 0.8"/>
     <use xlink:href="#m0e97831a22" x="158.29303" y="119.902259" style="fill: #1f77b4; fill-opacity: 0.8; stroke: #1f77b4; stroke-opacity: 0.8"/>
     <use xlink:href="#m0e97831a22" x="128.695051" y="150.167853" style="fill: #1f77b4; fill-opacity: 0.8; stroke: #1f77b4; stroke-opacity: 0.8"/>
     <use xlink:href="#m0e97831a22" x="335.880909" y="208.216092" style="fill: #1f77b4; fill-opacity: 0.8; stroke: #1f77b4; stroke-opacity: 0.8"/>
     <use xlink:href="#m0e97831a22" x="187.89101" y="72.667558" style="fill: #1f77b4; fill-opacity: 0.8; stroke: #1f77b4; stroke-opacity: 0.8"/>
     <use xlink:href="#m0e97831a22" x="128.695051" y="153.901443" style="fill: #1f77b4; fill-opacity: 0.8; stroke: #1f77b4; stroke-opacity: 0.8"/>
     <use xlink:href="#m0e97831a22" x="69.499091" y="201.325203" style="fill: #1f77b4; fill-opacity: 0.8; stroke: #1f77b4; stroke-opacity: 0.8"/>
     <use xlink:href="#m0e97831a22" x="128.695051" y="113.87568" style="fill: #1f77b4; fill-opacity: 0.8; stroke: #1f77b4; stroke-opacity: 0.8"/>
     <use xlink:href="#m0e97831a22" x="335.880909" y="136.802373" style="fill: #1f77b4; fill-opacity: 0.8; stroke: #1f77b4; stroke-opacity: 0.8"/>
     <use xlink:href="#m0e97831a22" x="217.48899" y="154.030785" style="fill: #1f77b4; fill-opacity: 0.8; stroke: #1f77b4; stroke-opacity: 0.8"/>
     <use xlink:href="#m0e97831a22" x="247.08697" y="94.06053" style="fill: #1f77b4; fill-opacity: 0.8; stroke: #1f77b4; stroke-opacity: 0.8"/>
     <use xlink:href="#m0e97831a22" x="335.880909" y="122.182774" style="fill: #1f77b4; fill-opacity: 0.8; stroke: #1f77b4; stroke-opacity: 0.8"/>
     <use xlink:href="#m0e97831a22" x="158.29303" y="153.397487" style="fill: #1f77b4; fill-opacity: 0.8; stroke: #1f77b4; stroke-opacity: 0.8"/>
     <use xlink:href="#m0e97831a22" x="217.48899" y="73.69484" style="fill: #1f77b4; fill-opacity: 0.8; stroke: #1f77b4; stroke-opacity: 0.8"/>
     <use xlink:href="#m0e97831a22" x="99.097071" y="122.140309" style="fill: #1f77b4; fill-opacity: 0.8; stroke: #1f77b4; stroke-opacity: 0.8"/>
     <use xlink:href="#m0e97831a22" x="128.695051" y="142.105668" style="fill: #1f77b4; fill-opacity: 0.8; stroke: #1f77b4; stroke-opacity: 0.8"/>
     <use xlink:href="#m0e97831a22" x="69.499091" y="110.805538" style="fill: #1f77b4; fill-opacity: 0.8; stroke: #1f77b4; stroke-opacity: 0.8"/>
     <use xlink:href="#m0e97831a22" x="306.282929" y="109.600835" style="fill: #1f77b4; fill-opacity: 0.8; stroke: #1f77b4; stroke-opacity: 0.8"/>
     <use xlink:href="#m0e97831a22" x="69.499091" y="168.243445" style="fill: #1f77b4; fill-opacity: 0.8; stroke: #1f77b4; stroke-opacity: 0.8"/>
     <use xlink:href="#m0e97831a22" x="99.097071" y="24.760852" style="fill: #1f77b4; fill-opacity: 0.8; stroke: #1f77b4; stroke-opacity: 0.8"/>
     <use xlink:href="#m0e97831a22" x="187.89101" y="82.49186" style="fill: #1f77b4; fill-opacity: 0.8; stroke: #1f77b4; stroke-opacity: 0.8"/>
     <use xlink:href="#m0e97831a22" x="306.282929" y="61.979303" style="fill: #1f77b4; fill-opacity: 0.8; stroke: #1f77b4; stroke-opacity: 0.8"/>
     <use xlink:href="#m0e97831a22" x="247.08697" y="120.454156" style="fill: #1f77b4; fill-opacity: 0.8; stroke: #1f77b4; stroke-opacity: 0.8"/>
     <use xlink:href="#m0e97831a22" x="99.097071" y="138.456087" style="fill: #1f77b4; fill-opacity: 0.8; stroke: #1f77b4; stroke-opacity: 0.8"/>
     <use xlink:href="#m0e97831a22" x="158.29303" y="124.887563" style="fill: #1f77b4; fill-opacity: 0.8; stroke: #1f77b4; stroke-opacity: 0.8"/>
     <use xlink:href="#m0e97831a22" x="99.097071" y="186.763909" style="fill: #1f77b4; fill-opacity: 0.8; stroke: #1f77b4; stroke-opacity: 0.8"/>
     <use xlink:href="#m0e97831a22" x="217.48899" y="136.580986" style="fill: #1f77b4; fill-opacity: 0.8; stroke: #1f77b4; stroke-opacity: 0.8"/>
     <use xlink:href="#m0e97831a22" x="247.08697" y="110.087915" style="fill: #1f77b4; fill-opacity: 0.8; stroke: #1f77b4; stroke-opacity: 0.8"/>
    </g>
   </g>
   <g id="PolyCollection_1">
    <path d="M 69.499091 98.959539 
L 69.499091 146.737751 
L 72.189816 146.535437 
L 74.880542 146.309873 
L 77.571267 145.954576 
L 80.261993 145.803182 
L 82.952718 145.534898 
L 85.643444 145.339604 
L 88.334169 145.127993 
L 91.024894 145.242805 
L 93.71562 145.315274 
L 96.406345 145.139131 
L 99.097071 144.957577 
L 101.787796 144.771734 
L 104.478522 144.582887 
L 107.169247 144.400161 
L 109.859972 144.047164 
L 112.550698 143.715528 
L 115.241423 143.853631 
L 117.932149 143.680827 
L 120.622874 143.495741 
L 123.3136 143.310655 
L 126.004325 143.125568 
L 128.695051 142.940482 
L 131.385776 142.739537 
L 134.076501 142.483062 
L 136.767227 142.347452 
L 139.457952 142.213544 
L 142.148678 142.083762 
L 144.839403 141.953979 
L 147.530129 141.824197 
L 150.220854 141.694415 
L 152.911579 141.564632 
L 155.602305 141.426084 
L 158.29303 141.284326 
L 160.983756 141.142568 
L 163.674481 141.008022 
L 166.365207 140.873858 
L 169.055932 140.847673 
L 171.746657 140.854011 
L 174.437383 140.859756 
L 177.128108 140.819463 
L 179.818834 140.733681 
L 182.509559 140.732515 
L 185.200285 140.826075 
L 187.89101 140.878343 
L 190.581736 140.899737 
L 193.272461 140.883431 
L 195.963186 140.914077 
L 198.653912 140.922366 
L 201.344637 141.026942 
L 204.035363 141.121748 
L 206.726088 141.180298 
L 209.416814 141.238847 
L 212.107539 141.407727 
L 214.798264 141.67607 
L 217.48899 141.944276 
L 220.179715 142.069148 
L 222.870441 142.168922 
L 225.561166 142.27957 
L 228.251892 142.41494 
L 230.942617 142.453298 
L 233.633343 142.584186 
L 236.324068 142.941581 
L 239.014793 143.045503 
L 241.705519 143.397558 
L 244.396244 143.514853 
L 247.08697 143.66897 
L 249.777695 143.998445 
L 252.468421 144.013349 
L 255.159146 144.284589 
L 257.849871 144.635052 
L 260.540597 144.984971 
L 263.231322 145.33489 
L 265.922048 145.678632 
L 268.612773 145.718621 
L 271.303499 146.01471 
L 273.994224 146.086178 
L 276.684949 146.097992 
L 279.375675 146.237706 
L 282.0664 146.462858 
L 284.757126 146.795087 
L 287.447851 147.141082 
L 290.138577 147.493511 
L 292.829302 147.888571 
L 295.520028 148.161008 
L 298.210753 148.39908 
L 300.901478 148.444939 
L 303.592204 148.812477 
L 306.282929 149.212634 
L 308.973655 149.571359 
L 311.66438 149.740781 
L 314.355106 149.901708 
L 317.045831 150.073077 
L 319.736556 150.228889 
L 322.427282 150.616 
L 325.118007 151.083497 
L 327.808733 151.479643 
L 330.499458 151.574759 
L 333.190184 151.656449 
L 335.880909 151.743677 
L 335.880909 106.168321 
L 335.880909 106.168321 
L 333.190184 106.493549 
L 330.499458 106.904529 
L 327.808733 107.191498 
L 325.118007 107.478467 
L 322.427282 107.796811 
L 319.736556 108.155572 
L 317.045831 108.436205 
L 314.355106 108.810878 
L 311.66438 109.057782 
L 308.973655 109.189732 
L 306.282929 109.470589 
L 303.592204 109.751445 
L 300.901478 110.034647 
L 298.210753 109.960879 
L 295.520028 110.295533 
L 292.829302 110.636467 
L 290.138577 110.977401 
L 287.447851 111.250977 
L 284.757126 111.321533 
L 282.0664 111.392758 
L 279.375675 111.614607 
L 276.684949 111.704417 
L 273.994224 111.93506 
L 271.303499 112.025052 
L 268.612773 112.084061 
L 265.922048 112.373725 
L 263.231322 112.504793 
L 260.540597 112.591582 
L 257.849871 112.622183 
L 255.159146 112.652784 
L 252.468421 112.734542 
L 249.777695 112.766714 
L 247.08697 113.062473 
L 244.396244 113.437796 
L 241.705519 113.415553 
L 239.014793 113.631562 
L 236.324068 113.801908 
L 233.633343 113.870977 
L 230.942617 113.997519 
L 228.251892 114.155236 
L 225.561166 114.221099 
L 222.870441 114.289951 
L 220.179715 114.24178 
L 217.48899 114.152792 
L 214.798264 114.124911 
L 212.107539 114.099727 
L 209.416814 113.884119 
L 206.726088 113.83466 
L 204.035363 113.924283 
L 201.344637 113.76672 
L 198.653912 113.617905 
L 195.963186 113.570886 
L 193.272461 113.620153 
L 190.581736 113.431204 
L 187.89101 113.330204 
L 185.200285 113.078185 
L 182.509559 113.014547 
L 179.818834 112.808418 
L 177.128108 112.582592 
L 174.437383 112.304941 
L 171.746657 112.162645 
L 169.055932 111.941733 
L 166.365207 111.736663 
L 163.674481 111.475894 
L 160.983756 111.034013 
L 158.29303 110.788077 
L 155.602305 110.549727 
L 152.911579 110.28997 
L 150.220854 109.811224 
L 147.530129 109.33695 
L 144.839403 109.083218 
L 142.148678 108.647058 
L 139.457952 108.37988 
L 136.767227 108.110446 
L 134.076501 107.799195 
L 131.385776 107.401261 
L 128.695051 106.952859 
L 126.004325 106.508454 
L 123.3136 106.216683 
L 120.622874 106.050881 
L 117.932149 105.885079 
L 115.241423 105.674872 
L 112.550698 105.214411 
L 109.859972 104.940314 
L 107.169247 104.632044 
L 104.478522 104.360132 
L 101.787796 103.996885 
L 99.097071 103.56821 
L 96.406345 103.246386 
L 93.71562 102.951902 
L 91.024894 102.657418 
L 88.334169 102.267783 
L 85.643444 101.746368 
L 82.952718 101.224952 
L 80.261993 100.703536 
L 77.571267 100.248471 
L 74.880542 100.011437 
L 72.189816 99.485488 
L 69.499091 98.959539 
z
" clip-path="url(#p4754e528af)" style="fill: #1f77b4; fill-opacity: 0.15"/>
   </g>
   <g id="matplotlib.axis_1">
    <g id="xtick_1">
     <g id="line2d_1">
      <defs>
       <path id="m4cb672e1f9" d="M 0 0 
L 0 3.5 
" style="stroke: #000000; stroke-width: 0.8"/>
      </defs>
      <g>
       <use xlink:href="#m4cb672e1f9" x="85.204141" y="317.93875" style="stroke: #000000; stroke-width: 0.8"/>
      </g>
     </g>
     <g id="text_1">
      <text style="font: 10px 'sans-serif'; text-anchor: middle" x="85.204141" y="332.537188" transform="rotate(-0, 85.204141, 332.537188)">−4</text>
     </g>
    </g>
    <g id="xtick_2">
     <g id="line2d_2">
      <g>
       <use xlink:href="#m4cb672e1f9" x="144.400101" y="317.93875" style="stroke: #000000; stroke-width: 0.8"/>
      </g>
     </g>
     <g id="text_2">
      <text style="font: 10px 'sans-serif'; text-anchor: middle" x="144.400101" y="332.537188" transform="rotate(-0, 144.400101, 332.537188)">−2</text>
     </g>
    </g>
    <g id="xtick_3">
     <g id="line2d_3">
      <g>
       <use xlink:href="#m4cb672e1f9" x="203.596061" y="317.93875" style="stroke: #000000; stroke-width: 0.8"/>
      </g>
     </g>
     <g id="text_3">
      <text style="font: 10px 'sans-serif'; text-anchor: middle" x="203.596061" y="332.537188" transform="rotate(-0, 203.596061, 332.537188)">0</text>
     </g>
    </g>
    <g id="xtick_4">
     <g id="line2d_4">
      <g>
       <use xlink:href="#m4cb672e1f9" x="262.79202" y="317.93875" style="stroke: #000000; stroke-width: 0.8"/>
      </g>
     </g>
     <g id="text_4">
      <text style="font: 10px 'sans-serif'; text-anchor: middle" x="262.79202" y="332.537188" transform="rotate(-0, 262.79202, 332.537188)">2</text>
     </g>
    </g>
    <g id="xtick_5">
     <g id="line2d_5">
      <g>
       <use xlink:href="#m4cb672e1f9" x="321.98798" y="317.93875" style="stroke: #000000; stroke-width: 0.8"/>
      </g>
     </g>
     <g id="text_5">
      <text style="font: 10px 'sans-serif'; text-anchor: middle" x="321.98798" y="332.537188" transform="rotate(-0, 321.98798, 332.537188)">4</text>
     </g>
    </g>
    <g id="text_6">
     <text style="font: 10px 'sans-serif'; text-anchor: middle" x="202.69" y="346.215312" transform="rotate(-0, 202.69, 346.215312)">Composite_Reward</text>
    </g>
   </g>
   <g id="matplotlib.axis_2">
    <g id="ytick_1">
     <g id="line2d_6">
      <defs>
       <path id="m59c1b4ff87" d="M 0 0 
L -3.5 0 
" style="stroke: #000000; stroke-width: 0.8"/>
      </defs>
      <g>
       <use xlink:href="#m59c1b4ff87" x="56.18" y="294.817248" style="stroke: #000000; stroke-width: 0.8"/>
      </g>
     </g>
     <g id="text_7">
      <text style="font: 10px 'sans-serif'; text-anchor: end" x="49.18" y="298.616467" transform="rotate(-0, 49.18, 298.616467)">−0.8</text>
     </g>
    </g>
    <g id="ytick_2">
     <g id="line2d_7">
      <g>
       <use xlink:href="#m59c1b4ff87" x="56.18" y="255.706756" style="stroke: #000000; stroke-width: 0.8"/>
      </g>
     </g>
     <g id="text_8">
      <text style="font: 10px 'sans-serif'; text-anchor: end" x="49.18" y="259.505974" transform="rotate(-0, 49.18, 259.505974)">−0.6</text>
     </g>
    </g>
    <g id="ytick_3">
     <g id="line2d_8">
      <g>
       <use xlink:href="#m59c1b4ff87" x="56.18" y="216.596263" style="stroke: #000000; stroke-width: 0.8"/>
      </g>
     </g>
     <g id="text_9">
      <text style="font: 10px 'sans-serif'; text-anchor: end" x="49.18" y="220.395482" transform="rotate(-0, 49.18, 220.395482)">−0.4</text>
     </g>
    </g>
    <g id="ytick_4">
     <g id="line2d_9">
      <g>
       <use xlink:href="#m59c1b4ff87" x="56.18" y="177.48577" style="stroke: #000000; stroke-width: 0.8"/>
      </g>
     </g>
     <g id="text_10">
      <text style="font: 10px 'sans-serif'; text-anchor: end" x="49.18" y="181.284989" transform="rotate(-0, 49.18, 181.284989)">−0.2</text>
     </g>
    </g>
    <g id="ytick_5">
     <g id="line2d_10">
      <g>
       <use xlink:href="#m59c1b4ff87" x="56.18" y="138.375277" style="stroke: #000000; stroke-width: 0.8"/>
      </g>
     </g>
     <g id="text_11">
      <text style="font: 10px 'sans-serif'; text-anchor: end" x="49.18" y="142.174496" transform="rotate(-0, 49.18, 142.174496)">0.0</text>
     </g>
    </g>
    <g id="ytick_6">
     <g id="line2d_11">
      <g>
       <use xlink:href="#m59c1b4ff87" x="56.18" y="99.264785" style="stroke: #000000; stroke-width: 0.8"/>
      </g>
     </g>
     <g id="text_12">
      <text style="font: 10px 'sans-serif'; text-anchor: end" x="49.18" y="103.064004" transform="rotate(-0, 49.18, 103.064004)">0.2</text>
     </g>
    </g>
    <g id="ytick_7">
     <g id="line2d_12">
      <g>
       <use xlink:href="#m59c1b4ff87" x="56.18" y="60.154292" style="stroke: #000000; stroke-width: 0.8"/>
      </g>
     </g>
     <g id="text_13">
      <text style="font: 10px 'sans-serif'; text-anchor: end" x="49.18" y="63.953511" transform="rotate(-0, 49.18, 63.953511)">0.4</text>
     </g>
    </g>
    <g id="ytick_8">
     <g id="line2d_13">
      <g>
       <use xlink:href="#m59c1b4ff87" x="56.18" y="21.043799" style="stroke: #000000; stroke-width: 0.8"/>
      </g>
     </g>
     <g id="text_14">
      <text style="font: 10px 'sans-serif'; text-anchor: end" x="49.18" y="24.843018" transform="rotate(-0, 49.18, 24.843018)">0.6</text>
     </g>
    </g>
    <g id="text_15">
     <text style="font: 10px 'sans-serif'; text-anchor: middle" x="18.8175" y="164.369375" transform="rotate(-90, 18.8175, 164.369375)">Conn LG-SG</text>
    </g>
   </g>
   <g id="line2d_14">
    <path d="M 69.499091 125.516515 
L 72.189816 125.559384 
L 74.880542 125.602253 
L 77.571267 125.645122 
L 80.261993 125.687992 
L 82.952718 125.730861 
L 85.643444 125.77373 
L 88.334169 125.8166 
L 91.024894 125.859469 
L 93.71562 125.902338 
L 96.406345 125.945207 
L 99.097071 125.988077 
L 101.787796 126.030946 
L 104.478522 126.073815 
L 107.169247 126.116685 
L 109.859972 126.159554 
L 112.550698 126.202423 
L 115.241423 126.245292 
L 117.932149 126.288162 
L 120.622874 126.331031 
L 123.3136 126.3739 
L 126.004325 126.41677 
L 128.695051 126.459639 
L 131.385776 126.502508 
L 134.076501 126.545377 
L 136.767227 126.588247 
L 139.457952 126.631116 
L 142.148678 126.673985 
L 144.839403 126.716854 
L 147.530129 126.759724 
L 150.220854 126.802593 
L 152.911579 126.845462 
L 155.602305 126.888332 
L 158.29303 126.931201 
L 160.983756 126.97407 
L 163.674481 127.016939 
L 166.365207 127.059809 
L 169.055932 127.102678 
L 171.746657 127.145547 
L 174.437383 127.188417 
L 177.128108 127.231286 
L 179.818834 127.274155 
L 182.509559 127.317024 
L 185.200285 127.359894 
L 187.89101 127.402763 
L 190.581736 127.445632 
L 193.272461 127.488502 
L 195.963186 127.531371 
L 198.653912 127.57424 
L 201.344637 127.617109 
L 204.035363 127.659979 
L 206.726088 127.702848 
L 209.416814 127.745717 
L 212.107539 127.788587 
L 214.798264 127.831456 
L 217.48899 127.874325 
L 220.179715 127.917194 
L 222.870441 127.960064 
L 225.561166 128.002933 
L 228.251892 128.045802 
L 230.942617 128.088672 
L 233.633343 128.131541 
L 236.324068 128.17441 
L 239.014793 128.217279 
L 241.705519 128.260149 
L 244.396244 128.303018 
L 247.08697 128.345887 
L 249.777695 128.388757 
L 252.468421 128.431626 
L 255.159146 128.474495 
L 257.849871 128.517364 
L 260.540597 128.560234 
L 263.231322 128.603103 
L 265.922048 128.645972 
L 268.612773 128.688841 
L 271.303499 128.731711 
L 273.994224 128.77458 
L 276.684949 128.817449 
L 279.375675 128.860319 
L 282.0664 128.903188 
L 284.757126 128.946057 
L 287.447851 128.988926 
L 290.138577 129.031796 
L 292.829302 129.074665 
L 295.520028 129.117534 
L 298.210753 129.160404 
L 300.901478 129.203273 
L 303.592204 129.246142 
L 306.282929 129.289011 
L 308.973655 129.331881 
L 311.66438 129.37475 
L 314.355106 129.417619 
L 317.045831 129.460489 
L 319.736556 129.503358 
L 322.427282 129.546227 
L 325.118007 129.589096 
L 327.808733 129.631966 
L 330.499458 129.674835 
L 333.190184 129.717704 
L 335.880909 129.760574 
" clip-path="url(#p4754e528af)" style="fill: none; stroke: #1f77b4; stroke-width: 2.25; stroke-linecap: square"/>
   </g>
   <g id="patch_3">
    <path d="M 56.18 317.93875 
L 56.18 10.8 
" style="fill: none; stroke: #000000; stroke-width: 0.8; stroke-linejoin: miter; stroke-linecap: square"/>
   </g>
   <g id="patch_4">
    <path d="M 56.18 317.93875 
L 349.2 317.93875 
" style="fill: none; stroke: #000000; stroke-width: 0.8; stroke-linejoin: miter; stroke-linecap: square"/>
   </g>
  </g>
 </g>
 <defs>
  <clipPath id="p4754e528af">
   <rect x="56.18" y="10.8" width="293.02" height="307.13875"/>
  </clipPath>
 </defs>
</svg>
