<?xml version="1.0" encoding="utf-8" standalone="no"?>
<!DOCTYPE svg PUBLIC "-//W3C//DTD SVG 1.1//EN"
  "http://www.w3.org/Graphics/SVG/1.1/DTD/svg11.dtd">
<svg xmlns:xlink="http://www.w3.org/1999/xlink" width="360pt" height="360pt" viewBox="0 0 360 360" xmlns="http://www.w3.org/2000/svg" version="1.1">
 <metadata>
  <rdf:RDF xmlns:dc="http://purl.org/dc/elements/1.1/" xmlns:cc="http://creativecommons.org/ns#" xmlns:rdf="http://www.w3.org/1999/02/22-rdf-syntax-ns#">
   <cc:Work>
    <dc:type rdf:resource="http://purl.org/dc/dcmitype/StillImage"/>
    <dc:date>2022-11-22T21:40:35.700127</dc:date>
    <dc:format>image/svg+xml</dc:format>
    <dc:creator>
     <cc:Agent>
      <dc:title>Matplotlib v3.5.3, https://matplotlib.org/</dc:title>
     </cc:Agent>
    </dc:creator>
   </cc:Work>
  </rdf:RDF>
 </metadata>
 <defs>
  <style type="text/css">*{stroke-linejoin: round; stroke-linecap: butt}</style>
 </defs>
 <g id="figure_1">
  <g id="patch_1">
   <path d="M 0 360 
L 360 360 
L 360 0 
L 0 0 
z
" style="fill: #ffffff"/>
  </g>
  <g id="axes_1">
   <g id="patch_2">
    <path d="M 56.18 317.93875 
L 349.2 317.93875 
L 349.2 10.8 
L 56.18 10.8 
z
" style="fill: #ffffff"/>
   </g>
   <g id="PathCollection_1">
    <defs>
     <path id="mf0d716fbca" d="M 0 3 
C 0.795609 3 1.55874 2.683901 2.12132 2.12132 
C 2.683901 1.55874 3 0.795609 3 0 
C 3 -0.795609 2.683901 -1.55874 2.12132 -2.12132 
C 1.55874 -2.683901 0.795609 -3 0 -3 
C -0.795609 -3 -1.55874 -2.683901 -2.12132 -2.12132 
C -2.683901 -1.55874 -3 -0.795609 -3 0 
C -3 0.795609 -2.683901 1.55874 -2.12132 2.12132 
C -1.55874 2.683901 -0.795609 3 0 3 
z
" style="stroke: #1f77b4; stroke-opacity: 0.8"/>
    </defs>
    <g clip-path="url(#pe6ea70030e)">
     <use xlink:href="#mf0d716fbca" x="217.48899" y="163.034747" style="fill: #1f77b4; fill-opacity: 0.8; stroke: #1f77b4; stroke-opacity: 0.8"/>
     <use xlink:href="#mf0d716fbca" x="217.48899" y="24.760852" style="fill: #1f77b4; fill-opacity: 0.8; stroke: #1f77b4; stroke-opacity: 0.8"/>
     <use xlink:href="#mf0d716fbca" x="276.684949" y="206.260111" style="fill: #1f77b4; fill-opacity: 0.8; stroke: #1f77b4; stroke-opacity: 0.8"/>
     <use xlink:href="#mf0d716fbca" x="187.89101" y="164.61048" style="fill: #1f77b4; fill-opacity: 0.8; stroke: #1f77b4; stroke-opacity: 0.8"/>
     <use xlink:href="#mf0d716fbca" x="247.08697" y="174.796618" style="fill: #1f77b4; fill-opacity: 0.8; stroke: #1f77b4; stroke-opacity: 0.8"/>
     <use xlink:href="#mf0d716fbca" x="158.29303" y="142.468881" style="fill: #1f77b4; fill-opacity: 0.8; stroke: #1f77b4; stroke-opacity: 0.8"/>
     <use xlink:href="#mf0d716fbca" x="276.684949" y="119.774326" style="fill: #1f77b4; fill-opacity: 0.8; stroke: #1f77b4; stroke-opacity: 0.8"/>
     <use xlink:href="#mf0d716fbca" x="69.499091" y="211.525128" style="fill: #1f77b4; fill-opacity: 0.8; stroke: #1f77b4; stroke-opacity: 0.8"/>
     <use xlink:href="#mf0d716fbca" x="335.880909" y="206.879734" style="fill: #1f77b4; fill-opacity: 0.8; stroke: #1f77b4; stroke-opacity: 0.8"/>
     <use xlink:href="#mf0d716fbca" x="99.097071" y="214.048883" style="fill: #1f77b4; fill-opacity: 0.8; stroke: #1f77b4; stroke-opacity: 0.8"/>
     <use xlink:href="#mf0d716fbca" x="306.282929" y="198.924367" style="fill: #1f77b4; fill-opacity: 0.8; stroke: #1f77b4; stroke-opacity: 0.8"/>
     <use xlink:href="#mf0d716fbca" x="276.684949" y="141.79218" style="fill: #1f77b4; fill-opacity: 0.8; stroke: #1f77b4; stroke-opacity: 0.8"/>
     <use xlink:href="#mf0d716fbca" x="158.29303" y="222.001858" style="fill: #1f77b4; fill-opacity: 0.8; stroke: #1f77b4; stroke-opacity: 0.8"/>
     <use xlink:href="#mf0d716fbca" x="276.684949" y="193.642986" style="fill: #1f77b4; fill-opacity: 0.8; stroke: #1f77b4; stroke-opacity: 0.8"/>
     <use xlink:href="#mf0d716fbca" x="128.695051" y="194.073423" style="fill: #1f77b4; fill-opacity: 0.8; stroke: #1f77b4; stroke-opacity: 0.8"/>
     <use xlink:href="#mf0d716fbca" x="335.880909" y="194.894717" style="fill: #1f77b4; fill-opacity: 0.8; stroke: #1f77b4; stroke-opacity: 0.8"/>
     <use xlink:href="#mf0d716fbca" x="99.097071" y="250.651364" style="fill: #1f77b4; fill-opacity: 0.8; stroke: #1f77b4; stroke-opacity: 0.8"/>
     <use xlink:href="#mf0d716fbca" x="306.282929" y="231.523541" style="fill: #1f77b4; fill-opacity: 0.8; stroke: #1f77b4; stroke-opacity: 0.8"/>
     <use xlink:href="#mf0d716fbca" x="276.684949" y="193.151236" style="fill: #1f77b4; fill-opacity: 0.8; stroke: #1f77b4; stroke-opacity: 0.8"/>
     <use xlink:href="#mf0d716fbca" x="247.08697" y="258.367258" style="fill: #1f77b4; fill-opacity: 0.8; stroke: #1f77b4; stroke-opacity: 0.8"/>
     <use xlink:href="#mf0d716fbca" x="158.29303" y="217.243047" style="fill: #1f77b4; fill-opacity: 0.8; stroke: #1f77b4; stroke-opacity: 0.8"/>
     <use xlink:href="#mf0d716fbca" x="128.695051" y="144.522825" style="fill: #1f77b4; fill-opacity: 0.8; stroke: #1f77b4; stroke-opacity: 0.8"/>
     <use xlink:href="#mf0d716fbca" x="335.880909" y="196.933156" style="fill: #1f77b4; fill-opacity: 0.8; stroke: #1f77b4; stroke-opacity: 0.8"/>
     <use xlink:href="#mf0d716fbca" x="187.89101" y="173.580484" style="fill: #1f77b4; fill-opacity: 0.8; stroke: #1f77b4; stroke-opacity: 0.8"/>
     <use xlink:href="#mf0d716fbca" x="128.695051" y="208.910539" style="fill: #1f77b4; fill-opacity: 0.8; stroke: #1f77b4; stroke-opacity: 0.8"/>
     <use xlink:href="#mf0d716fbca" x="69.499091" y="261.496495" style="fill: #1f77b4; fill-opacity: 0.8; stroke: #1f77b4; stroke-opacity: 0.8"/>
     <use xlink:href="#mf0d716fbca" x="128.695051" y="227.471778" style="fill: #1f77b4; fill-opacity: 0.8; stroke: #1f77b4; stroke-opacity: 0.8"/>
     <use xlink:href="#mf0d716fbca" x="335.880909" y="228.634363" style="fill: #1f77b4; fill-opacity: 0.8; stroke: #1f77b4; stroke-opacity: 0.8"/>
     <use xlink:href="#mf0d716fbca" x="217.48899" y="249.431159" style="fill: #1f77b4; fill-opacity: 0.8; stroke: #1f77b4; stroke-opacity: 0.8"/>
     <use xlink:href="#mf0d716fbca" x="247.08697" y="206.15619" style="fill: #1f77b4; fill-opacity: 0.8; stroke: #1f77b4; stroke-opacity: 0.8"/>
     <use xlink:href="#mf0d716fbca" x="335.880909" y="168.507372" style="fill: #1f77b4; fill-opacity: 0.8; stroke: #1f77b4; stroke-opacity: 0.8"/>
     <use xlink:href="#mf0d716fbca" x="158.29303" y="167.37959" style="fill: #1f77b4; fill-opacity: 0.8; stroke: #1f77b4; stroke-opacity: 0.8"/>
     <use xlink:href="#mf0d716fbca" x="217.48899" y="283.536787" style="fill: #1f77b4; fill-opacity: 0.8; stroke: #1f77b4; stroke-opacity: 0.8"/>
     <use xlink:href="#mf0d716fbca" x="99.097071" y="163.134788" style="fill: #1f77b4; fill-opacity: 0.8; stroke: #1f77b4; stroke-opacity: 0.8"/>
     <use xlink:href="#mf0d716fbca" x="128.695051" y="169.795294" style="fill: #1f77b4; fill-opacity: 0.8; stroke: #1f77b4; stroke-opacity: 0.8"/>
     <use xlink:href="#mf0d716fbca" x="69.499091" y="206.560829" style="fill: #1f77b4; fill-opacity: 0.8; stroke: #1f77b4; stroke-opacity: 0.8"/>
     <use xlink:href="#mf0d716fbca" x="306.282929" y="166.410587" style="fill: #1f77b4; fill-opacity: 0.8; stroke: #1f77b4; stroke-opacity: 0.8"/>
     <use xlink:href="#mf0d716fbca" x="69.499091" y="263.762916" style="fill: #1f77b4; fill-opacity: 0.8; stroke: #1f77b4; stroke-opacity: 0.8"/>
     <use xlink:href="#mf0d716fbca" x="99.097071" y="248.129619" style="fill: #1f77b4; fill-opacity: 0.8; stroke: #1f77b4; stroke-opacity: 0.8"/>
     <use xlink:href="#mf0d716fbca" x="187.89101" y="221.287444" style="fill: #1f77b4; fill-opacity: 0.8; stroke: #1f77b4; stroke-opacity: 0.8"/>
     <use xlink:href="#mf0d716fbca" x="306.282929" y="203.49231" style="fill: #1f77b4; fill-opacity: 0.8; stroke: #1f77b4; stroke-opacity: 0.8"/>
     <use xlink:href="#mf0d716fbca" x="247.08697" y="165.691894" style="fill: #1f77b4; fill-opacity: 0.8; stroke: #1f77b4; stroke-opacity: 0.8"/>
     <use xlink:href="#mf0d716fbca" x="99.097071" y="303.977898" style="fill: #1f77b4; fill-opacity: 0.8; stroke: #1f77b4; stroke-opacity: 0.8"/>
     <use xlink:href="#mf0d716fbca" x="158.29303" y="249.036843" style="fill: #1f77b4; fill-opacity: 0.8; stroke: #1f77b4; stroke-opacity: 0.8"/>
     <use xlink:href="#mf0d716fbca" x="99.097071" y="212.447447" style="fill: #1f77b4; fill-opacity: 0.8; stroke: #1f77b4; stroke-opacity: 0.8"/>
     <use xlink:href="#mf0d716fbca" x="217.48899" y="215.247821" style="fill: #1f77b4; fill-opacity: 0.8; stroke: #1f77b4; stroke-opacity: 0.8"/>
     <use xlink:href="#mf0d716fbca" x="247.08697" y="84.833066" style="fill: #1f77b4; fill-opacity: 0.8; stroke: #1f77b4; stroke-opacity: 0.8"/>
    </g>
   </g>
   <g id="PolyCollection_1">
    <path d="M 69.499091 196.023669 
L 69.499091 237.643008 
L 72.189816 236.921229 
L 74.880542 236.235641 
L 77.571267 235.67856 
L 80.261993 235.029054 
L 82.952718 234.501492 
L 85.643444 233.926122 
L 88.334169 233.329919 
L 91.024894 232.731073 
L 93.71562 232.106435 
L 96.406345 231.402269 
L 99.097071 230.844414 
L 101.787796 229.98641 
L 104.478522 229.353106 
L 107.169247 228.934004 
L 109.859972 228.30992 
L 112.550698 227.659768 
L 115.241423 227.127035 
L 117.932149 226.601025 
L 120.622874 226.059575 
L 123.3136 225.524432 
L 126.004325 224.990473 
L 128.695051 224.458841 
L 131.385776 224.050905 
L 134.076501 223.630357 
L 136.767227 223.07784 
L 139.457952 222.401065 
L 142.148678 221.895633 
L 144.839403 221.389432 
L 147.530129 220.882685 
L 150.220854 220.375937 
L 152.911579 219.791847 
L 155.602305 219.289567 
L 158.29303 218.810347 
L 160.983756 218.364508 
L 163.674481 217.866398 
L 166.365207 217.412853 
L 169.055932 217.003063 
L 171.746657 216.535787 
L 174.437383 216.004686 
L 177.128108 215.514688 
L 179.818834 215.188084 
L 182.509559 214.703297 
L 185.200285 214.094004 
L 187.89101 213.741363 
L 190.581736 213.444989 
L 193.272461 212.918399 
L 195.963186 212.390132 
L 198.653912 211.915065 
L 201.344637 211.57352 
L 204.035363 211.222527 
L 206.726088 210.830789 
L 209.416814 210.332285 
L 212.107539 209.947683 
L 214.798264 209.647054 
L 217.48899 209.346248 
L 220.179715 209.007041 
L 222.870441 208.747078 
L 225.561166 208.446954 
L 228.251892 208.085469 
L 230.942617 207.689498 
L 233.633343 207.337355 
L 236.324068 207.104296 
L 239.014793 206.88929 
L 241.705519 206.581657 
L 244.396244 206.35354 
L 247.08697 206.056624 
L 249.777695 205.758435 
L 252.468421 205.572589 
L 255.159146 205.152302 
L 257.849871 204.874926 
L 260.540597 204.6404 
L 263.231322 204.430145 
L 265.922048 204.149897 
L 268.612773 203.828402 
L 271.303499 203.614122 
L 273.994224 203.277861 
L 276.684949 202.981479 
L 279.375675 202.880996 
L 282.0664 202.51873 
L 284.757126 202.364185 
L 287.447851 202.200022 
L 290.138577 201.89169 
L 292.829302 201.729629 
L 295.520028 201.488522 
L 298.210753 201.247321 
L 300.901478 201.011087 
L 303.592204 200.77237 
L 306.282929 200.572155 
L 308.973655 200.535652 
L 311.66438 200.499148 
L 314.355106 200.393532 
L 317.045831 200.276712 
L 319.736556 200.241708 
L 322.427282 200.204405 
L 325.118007 200.078941 
L 327.808733 199.874349 
L 330.499458 199.815965 
L 333.190184 199.757473 
L 335.880909 199.698981 
L 335.880909 154.686677 
L 335.880909 154.686677 
L 333.190184 155.444635 
L 330.499458 156.093765 
L 327.808733 156.851816 
L 325.118007 157.609037 
L 322.427282 158.358683 
L 319.736556 159.113261 
L 317.045831 159.699081 
L 314.355106 160.279308 
L 311.66438 160.859535 
L 308.973655 161.502881 
L 306.282929 162.356523 
L 303.592204 163.211951 
L 300.901478 164.031191 
L 298.210753 164.409048 
L 295.520028 164.956877 
L 292.829302 165.6755 
L 290.138577 166.435142 
L 287.447851 167.110696 
L 284.757126 167.827037 
L 282.0664 168.387358 
L 279.375675 168.847023 
L 276.684949 169.319859 
L 273.994224 169.99929 
L 271.303499 170.594575 
L 268.612773 171.163551 
L 265.922048 171.709644 
L 263.231322 172.245967 
L 260.540597 172.794129 
L 257.849871 173.327777 
L 255.159146 173.740533 
L 252.468421 174.439888 
L 249.777695 174.987581 
L 247.08697 175.535945 
L 244.396244 176.084308 
L 241.705519 176.590951 
L 239.014793 176.877046 
L 236.324068 177.59993 
L 233.633343 178.280432 
L 230.942617 178.831462 
L 228.251892 179.247956 
L 225.561166 179.944012 
L 222.870441 180.488068 
L 220.179715 180.909961 
L 217.48899 181.591061 
L 214.798264 182.138676 
L 212.107539 182.676901 
L 209.416814 183.205978 
L 206.726088 183.706507 
L 204.035363 184.236946 
L 201.344637 184.659607 
L 198.653912 185.088422 
L 195.963186 185.512863 
L 193.272461 185.915268 
L 190.581736 186.252649 
L 187.89101 186.638661 
L 185.200285 187.055061 
L 182.509559 187.400057 
L 179.818834 187.698348 
L 177.128108 188.050334 
L 174.437383 188.467825 
L 171.746657 188.915952 
L 169.055932 189.11275 
L 166.365207 189.33853 
L 163.674481 189.71096 
L 160.983756 189.918901 
L 158.29303 190.137323 
L 155.602305 190.350844 
L 152.911579 190.429411 
L 150.220854 190.768552 
L 147.530129 190.981935 
L 144.839403 191.373117 
L 142.148678 191.639769 
L 139.457952 191.969898 
L 136.767227 192.167483 
L 134.076501 192.317761 
L 131.385776 192.600998 
L 128.695051 193.038113 
L 126.004325 193.234655 
L 123.3136 193.427012 
L 120.622874 193.619368 
L 117.932149 193.818336 
L 115.241423 194.020853 
L 112.550698 194.223369 
L 109.859972 194.580604 
L 107.169247 194.833061 
L 104.478522 194.975715 
L 101.787796 195.037891 
L 99.097071 195.209259 
L 96.406345 195.317088 
L 93.71562 195.214157 
L 91.024894 195.395266 
L 88.334169 195.601779 
L 85.643444 195.808292 
L 82.952718 195.920194 
L 80.261993 195.925689 
L 77.571267 195.931184 
L 74.880542 195.936679 
L 72.189816 195.942173 
L 69.499091 196.023669 
z
" clip-path="url(#pe6ea70030e)" style="fill: #1f77b4; fill-opacity: 0.15"/>
   </g>
   <g id="matplotlib.axis_1">
    <g id="xtick_1">
     <g id="line2d_1">
      <defs>
       <path id="m706c66602f" d="M 0 0 
L 0 3.5 
" style="stroke: #000000; stroke-width: 0.8"/>
      </defs>
      <g>
       <use xlink:href="#m706c66602f" x="85.204141" y="317.93875" style="stroke: #000000; stroke-width: 0.8"/>
      </g>
     </g>
     <g id="text_1">
      <text style="font: 10px 'sans-serif'; text-anchor: middle" x="85.204141" y="332.537188" transform="rotate(-0, 85.204141, 332.537188)">−4</text>
     </g>
    </g>
    <g id="xtick_2">
     <g id="line2d_2">
      <g>
       <use xlink:href="#m706c66602f" x="144.400101" y="317.93875" style="stroke: #000000; stroke-width: 0.8"/>
      </g>
     </g>
     <g id="text_2">
      <text style="font: 10px 'sans-serif'; text-anchor: middle" x="144.400101" y="332.537188" transform="rotate(-0, 144.400101, 332.537188)">−2</text>
     </g>
    </g>
    <g id="xtick_3">
     <g id="line2d_3">
      <g>
       <use xlink:href="#m706c66602f" x="203.596061" y="317.93875" style="stroke: #000000; stroke-width: 0.8"/>
      </g>
     </g>
     <g id="text_3">
      <text style="font: 10px 'sans-serif'; text-anchor: middle" x="203.596061" y="332.537188" transform="rotate(-0, 203.596061, 332.537188)">0</text>
     </g>
    </g>
    <g id="xtick_4">
     <g id="line2d_4">
      <g>
       <use xlink:href="#m706c66602f" x="262.79202" y="317.93875" style="stroke: #000000; stroke-width: 0.8"/>
      </g>
     </g>
     <g id="text_4">
      <text style="font: 10px 'sans-serif'; text-anchor: middle" x="262.79202" y="332.537188" transform="rotate(-0, 262.79202, 332.537188)">2</text>
     </g>
    </g>
    <g id="xtick_5">
     <g id="line2d_5">
      <g>
       <use xlink:href="#m706c66602f" x="321.98798" y="317.93875" style="stroke: #000000; stroke-width: 0.8"/>
      </g>
     </g>
     <g id="text_5">
      <text style="font: 10px 'sans-serif'; text-anchor: middle" x="321.98798" y="332.537188" transform="rotate(-0, 321.98798, 332.537188)">4</text>
     </g>
    </g>
    <g id="text_6">
     <text style="font: 10px 'sans-serif'; text-anchor: middle" x="202.69" y="346.215312" transform="rotate(-0, 202.69, 346.215312)">Composite_Reward</text>
    </g>
   </g>
   <g id="matplotlib.axis_2">
    <g id="ytick_1">
     <g id="line2d_6">
      <defs>
       <path id="m3ed921cb32" d="M 0 0 
L -3.5 0 
" style="stroke: #000000; stroke-width: 0.8"/>
      </defs>
      <g>
       <use xlink:href="#m3ed921cb32" x="56.18" y="304.280476" style="stroke: #000000; stroke-width: 0.8"/>
      </g>
     </g>
     <g id="text_7">
      <text style="font: 10px 'sans-serif'; text-anchor: end" x="49.18" y="308.079695" transform="rotate(-0, 49.18, 308.079695)">−1.0</text>
     </g>
    </g>
    <g id="ytick_2">
     <g id="line2d_7">
      <g>
       <use xlink:href="#m3ed921cb32" x="56.18" y="251.690352" style="stroke: #000000; stroke-width: 0.8"/>
      </g>
     </g>
     <g id="text_8">
      <text style="font: 10px 'sans-serif'; text-anchor: end" x="49.18" y="255.48957" transform="rotate(-0, 49.18, 255.48957)">−0.5</text>
     </g>
    </g>
    <g id="ytick_3">
     <g id="line2d_8">
      <g>
       <use xlink:href="#m3ed921cb32" x="56.18" y="199.100227" style="stroke: #000000; stroke-width: 0.8"/>
      </g>
     </g>
     <g id="text_9">
      <text style="font: 10px 'sans-serif'; text-anchor: end" x="49.18" y="202.899446" transform="rotate(-0, 49.18, 202.899446)">0.0</text>
     </g>
    </g>
    <g id="ytick_4">
     <g id="line2d_9">
      <g>
       <use xlink:href="#m3ed921cb32" x="56.18" y="146.510103" style="stroke: #000000; stroke-width: 0.8"/>
      </g>
     </g>
     <g id="text_10">
      <text style="font: 10px 'sans-serif'; text-anchor: end" x="49.18" y="150.309322" transform="rotate(-0, 49.18, 150.309322)">0.5</text>
     </g>
    </g>
    <g id="ytick_5">
     <g id="line2d_10">
      <g>
       <use xlink:href="#m3ed921cb32" x="56.18" y="93.919978" style="stroke: #000000; stroke-width: 0.8"/>
      </g>
     </g>
     <g id="text_11">
      <text style="font: 10px 'sans-serif'; text-anchor: end" x="49.18" y="97.719197" transform="rotate(-0, 49.18, 97.719197)">1.0</text>
     </g>
    </g>
    <g id="ytick_6">
     <g id="line2d_11">
      <g>
       <use xlink:href="#m3ed921cb32" x="56.18" y="41.329854" style="stroke: #000000; stroke-width: 0.8"/>
      </g>
     </g>
     <g id="text_12">
      <text style="font: 10px 'sans-serif'; text-anchor: end" x="49.18" y="45.129073" transform="rotate(-0, 49.18, 45.129073)">1.5</text>
     </g>
    </g>
    <g id="text_13">
     <text style="font: 10px 'sans-serif'; text-anchor: middle" x="18.8175" y="164.369375" transform="rotate(-90, 18.8175, 164.369375)">Conn Loss&gt;Neut</text>
    </g>
   </g>
   <g id="line2d_12">
    <path d="M 69.499091 218.013739 
L 72.189816 217.61034 
L 74.880542 217.206942 
L 77.571267 216.803543 
L 80.261993 216.400145 
L 82.952718 215.996746 
L 85.643444 215.593348 
L 88.334169 215.189949 
L 91.024894 214.786551 
L 93.71562 214.383152 
L 96.406345 213.979754 
L 99.097071 213.576355 
L 101.787796 213.172957 
L 104.478522 212.769558 
L 107.169247 212.36616 
L 109.859972 211.962762 
L 112.550698 211.559363 
L 115.241423 211.155965 
L 117.932149 210.752566 
L 120.622874 210.349168 
L 123.3136 209.945769 
L 126.004325 209.542371 
L 128.695051 209.138972 
L 131.385776 208.735574 
L 134.076501 208.332175 
L 136.767227 207.928777 
L 139.457952 207.525378 
L 142.148678 207.12198 
L 144.839403 206.718581 
L 147.530129 206.315183 
L 150.220854 205.911784 
L 152.911579 205.508386 
L 155.602305 205.104987 
L 158.29303 204.701589 
L 160.983756 204.29819 
L 163.674481 203.894792 
L 166.365207 203.491393 
L 169.055932 203.087995 
L 171.746657 202.684597 
L 174.437383 202.281198 
L 177.128108 201.8778 
L 179.818834 201.474401 
L 182.509559 201.071003 
L 185.200285 200.667604 
L 187.89101 200.264206 
L 190.581736 199.860807 
L 193.272461 199.457409 
L 195.963186 199.05401 
L 198.653912 198.650612 
L 201.344637 198.247213 
L 204.035363 197.843815 
L 206.726088 197.440416 
L 209.416814 197.037018 
L 212.107539 196.633619 
L 214.798264 196.230221 
L 217.48899 195.826822 
L 220.179715 195.423424 
L 222.870441 195.020025 
L 225.561166 194.616627 
L 228.251892 194.213228 
L 230.942617 193.80983 
L 233.633343 193.406432 
L 236.324068 193.003033 
L 239.014793 192.599635 
L 241.705519 192.196236 
L 244.396244 191.792838 
L 247.08697 191.389439 
L 249.777695 190.986041 
L 252.468421 190.582642 
L 255.159146 190.179244 
L 257.849871 189.775845 
L 260.540597 189.372447 
L 263.231322 188.969048 
L 265.922048 188.56565 
L 268.612773 188.162251 
L 271.303499 187.758853 
L 273.994224 187.355454 
L 276.684949 186.952056 
L 279.375675 186.548657 
L 282.0664 186.145259 
L 284.757126 185.74186 
L 287.447851 185.338462 
L 290.138577 184.935063 
L 292.829302 184.531665 
L 295.520028 184.128267 
L 298.210753 183.724868 
L 300.901478 183.32147 
L 303.592204 182.918071 
L 306.282929 182.514673 
L 308.973655 182.111274 
L 311.66438 181.707876 
L 314.355106 181.304477 
L 317.045831 180.901079 
L 319.736556 180.49768 
L 322.427282 180.094282 
L 325.118007 179.690883 
L 327.808733 179.287485 
L 330.499458 178.884086 
L 333.190184 178.480688 
L 335.880909 178.077289 
" clip-path="url(#pe6ea70030e)" style="fill: none; stroke: #1f77b4; stroke-width: 2.25; stroke-linecap: square"/>
   </g>
   <g id="patch_3">
    <path d="M 56.18 317.93875 
L 56.18 10.8 
" style="fill: none; stroke: #000000; stroke-width: 0.8; stroke-linejoin: miter; stroke-linecap: square"/>
   </g>
   <g id="patch_4">
    <path d="M 56.18 317.93875 
L 349.2 317.93875 
" style="fill: none; stroke: #000000; stroke-width: 0.8; stroke-linejoin: miter; stroke-linecap: square"/>
   </g>
  </g>
 </g>
 <defs>
  <clipPath id="pe6ea70030e">
   <rect x="56.18" y="10.8" width="293.02" height="307.13875"/>
  </clipPath>
 </defs>
</svg>
