<?xml version="1.0" encoding="utf-8" standalone="no"?>
<!DOCTYPE svg PUBLIC "-//W3C//DTD SVG 1.1//EN"
  "http://www.w3.org/Graphics/SVG/1.1/DTD/svg11.dtd">
<svg xmlns:xlink="http://www.w3.org/1999/xlink" width="360pt" height="360pt" viewBox="0 0 360 360" xmlns="http://www.w3.org/2000/svg" version="1.1">
 <metadata>
  <rdf:RDF xmlns:dc="http://purl.org/dc/elements/1.1/" xmlns:cc="http://creativecommons.org/ns#" xmlns:rdf="http://www.w3.org/1999/02/22-rdf-syntax-ns#">
   <cc:Work>
    <dc:type rdf:resource="http://purl.org/dc/dcmitype/StillImage"/>
    <dc:date>2022-11-22T21:42:42.694370</dc:date>
    <dc:format>image/svg+xml</dc:format>
    <dc:creator>
     <cc:Agent>
      <dc:title>Matplotlib v3.5.3, https://matplotlib.org/</dc:title>
     </cc:Agent>
    </dc:creator>
   </cc:Work>
  </rdf:RDF>
 </metadata>
 <defs>
  <style type="text/css">*{stroke-linejoin: round; stroke-linecap: butt}</style>
 </defs>
 <g id="figure_1">
  <g id="patch_1">
   <path d="M 0 360 
L 360 360 
L 360 0 
L 0 0 
z
" style="fill: #ffffff"/>
  </g>
  <g id="axes_1">
   <g id="patch_2">
    <path d="M 56.18 317.93875 
L 349.2 317.93875 
L 349.2 12.895229 
L 56.18 12.895229 
z
" style="fill: #ffffff"/>
   </g>
   <g id="PathCollection_1">
    <defs>
     <path id="m824aa09d52" d="M 0 3 
C 0.795609 3 1.55874 2.683901 2.12132 2.12132 
C 2.683901 1.55874 3 0.795609 3 0 
C 3 -0.795609 2.683901 -1.55874 2.12132 -2.12132 
C 1.55874 -2.683901 0.795609 -3 0 -3 
C -0.795609 -3 -1.55874 -2.683901 -2.12132 -2.12132 
C -2.683901 -1.55874 -3 -0.795609 -3 0 
C -3 0.795609 -2.683901 1.55874 -2.12132 2.12132 
C -1.55874 2.683901 -0.795609 3 0 3 
z
" style="stroke: #1f77b4; stroke-opacity: 0.8"/>
    </defs>
    <g clip-path="url(#p3702e3bb4c)">
     <use xlink:href="#m824aa09d52" x="217.48899" y="219.890453" style="fill: #1f77b4; fill-opacity: 0.8; stroke: #1f77b4; stroke-opacity: 0.8"/>
     <use xlink:href="#m824aa09d52" x="217.48899" y="248.584129" style="fill: #1f77b4; fill-opacity: 0.8; stroke: #1f77b4; stroke-opacity: 0.8"/>
     <use xlink:href="#m824aa09d52" x="276.684949" y="190.695591" style="fill: #1f77b4; fill-opacity: 0.8; stroke: #1f77b4; stroke-opacity: 0.8"/>
     <use xlink:href="#m824aa09d52" x="187.89101" y="304.073135" style="fill: #1f77b4; fill-opacity: 0.8; stroke: #1f77b4; stroke-opacity: 0.8"/>
     <use xlink:href="#m824aa09d52" x="247.08697" y="212.60213" style="fill: #1f77b4; fill-opacity: 0.8; stroke: #1f77b4; stroke-opacity: 0.8"/>
     <use xlink:href="#m824aa09d52" x="158.29303" y="273.332611" style="fill: #1f77b4; fill-opacity: 0.8; stroke: #1f77b4; stroke-opacity: 0.8"/>
     <use xlink:href="#m824aa09d52" x="276.684949" y="132.354094" style="fill: #1f77b4; fill-opacity: 0.8; stroke: #1f77b4; stroke-opacity: 0.8"/>
     <use xlink:href="#m824aa09d52" x="69.499091" y="156.684594" style="fill: #1f77b4; fill-opacity: 0.8; stroke: #1f77b4; stroke-opacity: 0.8"/>
     <use xlink:href="#m824aa09d52" x="335.880909" y="161.033653" style="fill: #1f77b4; fill-opacity: 0.8; stroke: #1f77b4; stroke-opacity: 0.8"/>
     <use xlink:href="#m824aa09d52" x="99.097071" y="177.780987" style="fill: #1f77b4; fill-opacity: 0.8; stroke: #1f77b4; stroke-opacity: 0.8"/>
     <use xlink:href="#m824aa09d52" x="306.282929" y="29.227743" style="fill: #1f77b4; fill-opacity: 0.8; stroke: #1f77b4; stroke-opacity: 0.8"/>
     <use xlink:href="#m824aa09d52" x="276.684949" y="192.073346" style="fill: #1f77b4; fill-opacity: 0.8; stroke: #1f77b4; stroke-opacity: 0.8"/>
     <use xlink:href="#m824aa09d52" x="158.29303" y="260.120827" style="fill: #1f77b4; fill-opacity: 0.8; stroke: #1f77b4; stroke-opacity: 0.8"/>
     <use xlink:href="#m824aa09d52" x="276.684949" y="229.071795" style="fill: #1f77b4; fill-opacity: 0.8; stroke: #1f77b4; stroke-opacity: 0.8"/>
     <use xlink:href="#m824aa09d52" x="128.695051" y="176.118961" style="fill: #1f77b4; fill-opacity: 0.8; stroke: #1f77b4; stroke-opacity: 0.8"/>
     <use xlink:href="#m824aa09d52" x="335.880909" y="49.230505" style="fill: #1f77b4; fill-opacity: 0.8; stroke: #1f77b4; stroke-opacity: 0.8"/>
     <use xlink:href="#m824aa09d52" x="99.097071" y="299.30229" style="fill: #1f77b4; fill-opacity: 0.8; stroke: #1f77b4; stroke-opacity: 0.8"/>
     <use xlink:href="#m824aa09d52" x="306.282929" y="243.768037" style="fill: #1f77b4; fill-opacity: 0.8; stroke: #1f77b4; stroke-opacity: 0.8"/>
     <use xlink:href="#m824aa09d52" x="276.684949" y="253.820521" style="fill: #1f77b4; fill-opacity: 0.8; stroke: #1f77b4; stroke-opacity: 0.8"/>
     <use xlink:href="#m824aa09d52" x="247.08697" y="177.474263" style="fill: #1f77b4; fill-opacity: 0.8; stroke: #1f77b4; stroke-opacity: 0.8"/>
     <use xlink:href="#m824aa09d52" x="158.29303" y="172.771168" style="fill: #1f77b4; fill-opacity: 0.8; stroke: #1f77b4; stroke-opacity: 0.8"/>
     <use xlink:href="#m824aa09d52" x="128.695051" y="179.406859" style="fill: #1f77b4; fill-opacity: 0.8; stroke: #1f77b4; stroke-opacity: 0.8"/>
     <use xlink:href="#m824aa09d52" x="335.880909" y="282.700669" style="fill: #1f77b4; fill-opacity: 0.8; stroke: #1f77b4; stroke-opacity: 0.8"/>
     <use xlink:href="#m824aa09d52" x="187.89101" y="271.754372" style="fill: #1f77b4; fill-opacity: 0.8; stroke: #1f77b4; stroke-opacity: 0.8"/>
     <use xlink:href="#m824aa09d52" x="128.695051" y="279.934399" style="fill: #1f77b4; fill-opacity: 0.8; stroke: #1f77b4; stroke-opacity: 0.8"/>
     <use xlink:href="#m824aa09d52" x="69.499091" y="172.350023" style="fill: #1f77b4; fill-opacity: 0.8; stroke: #1f77b4; stroke-opacity: 0.8"/>
     <use xlink:href="#m824aa09d52" x="128.695051" y="88.90401" style="fill: #1f77b4; fill-opacity: 0.8; stroke: #1f77b4; stroke-opacity: 0.8"/>
     <use xlink:href="#m824aa09d52" x="335.880909" y="214.532855" style="fill: #1f77b4; fill-opacity: 0.8; stroke: #1f77b4; stroke-opacity: 0.8"/>
     <use xlink:href="#m824aa09d52" x="217.48899" y="158.67867" style="fill: #1f77b4; fill-opacity: 0.8; stroke: #1f77b4; stroke-opacity: 0.8"/>
     <use xlink:href="#m824aa09d52" x="247.08697" y="230.413603" style="fill: #1f77b4; fill-opacity: 0.8; stroke: #1f77b4; stroke-opacity: 0.8"/>
     <use xlink:href="#m824aa09d52" x="335.880909" y="103.115772" style="fill: #1f77b4; fill-opacity: 0.8; stroke: #1f77b4; stroke-opacity: 0.8"/>
     <use xlink:href="#m824aa09d52" x="158.29303" y="143.138678" style="fill: #1f77b4; fill-opacity: 0.8; stroke: #1f77b4; stroke-opacity: 0.8"/>
     <use xlink:href="#m824aa09d52" x="217.48899" y="246.493909" style="fill: #1f77b4; fill-opacity: 0.8; stroke: #1f77b4; stroke-opacity: 0.8"/>
     <use xlink:href="#m824aa09d52" x="99.097071" y="211.11617" style="fill: #1f77b4; fill-opacity: 0.8; stroke: #1f77b4; stroke-opacity: 0.8"/>
     <use xlink:href="#m824aa09d52" x="128.695051" y="89.413265" style="fill: #1f77b4; fill-opacity: 0.8; stroke: #1f77b4; stroke-opacity: 0.8"/>
     <use xlink:href="#m824aa09d52" x="69.499091" y="184.237937" style="fill: #1f77b4; fill-opacity: 0.8; stroke: #1f77b4; stroke-opacity: 0.8"/>
     <use xlink:href="#m824aa09d52" x="306.282929" y="167.879522" style="fill: #1f77b4; fill-opacity: 0.8; stroke: #1f77b4; stroke-opacity: 0.8"/>
     <use xlink:href="#m824aa09d52" x="69.499091" y="166.418923" style="fill: #1f77b4; fill-opacity: 0.8; stroke: #1f77b4; stroke-opacity: 0.8"/>
     <use xlink:href="#m824aa09d52" x="99.097071" y="133.040966" style="fill: #1f77b4; fill-opacity: 0.8; stroke: #1f77b4; stroke-opacity: 0.8"/>
     <use xlink:href="#m824aa09d52" x="187.89101" y="26.760843" style="fill: #1f77b4; fill-opacity: 0.8; stroke: #1f77b4; stroke-opacity: 0.8"/>
     <use xlink:href="#m824aa09d52" x="306.282929" y="200.639005" style="fill: #1f77b4; fill-opacity: 0.8; stroke: #1f77b4; stroke-opacity: 0.8"/>
     <use xlink:href="#m824aa09d52" x="247.08697" y="177.287198" style="fill: #1f77b4; fill-opacity: 0.8; stroke: #1f77b4; stroke-opacity: 0.8"/>
     <use xlink:href="#m824aa09d52" x="99.097071" y="207.828125" style="fill: #1f77b4; fill-opacity: 0.8; stroke: #1f77b4; stroke-opacity: 0.8"/>
     <use xlink:href="#m824aa09d52" x="158.29303" y="202.130388" style="fill: #1f77b4; fill-opacity: 0.8; stroke: #1f77b4; stroke-opacity: 0.8"/>
     <use xlink:href="#m824aa09d52" x="99.097071" y="172.444445" style="fill: #1f77b4; fill-opacity: 0.8; stroke: #1f77b4; stroke-opacity: 0.8"/>
     <use xlink:href="#m824aa09d52" x="217.48899" y="184.234874" style="fill: #1f77b4; fill-opacity: 0.8; stroke: #1f77b4; stroke-opacity: 0.8"/>
     <use xlink:href="#m824aa09d52" x="247.08697" y="181.388036" style="fill: #1f77b4; fill-opacity: 0.8; stroke: #1f77b4; stroke-opacity: 0.8"/>
    </g>
   </g>
   <g id="PolyCollection_1">
    <path d="M 69.499091 164.017449 
L 69.499091 226.586299 
L 72.189816 225.803296 
L 74.880542 224.929227 
L 77.571267 224.405551 
L 80.261993 223.970412 
L 82.952718 223.542927 
L 85.643444 222.982802 
L 88.334169 222.412693 
L 91.024894 221.622474 
L 93.71562 221.083185 
L 96.406345 220.524992 
L 99.097071 219.97635 
L 101.787796 219.423834 
L 104.478522 219.017319 
L 107.169247 218.342191 
L 109.859972 217.805385 
L 112.550698 217.242958 
L 115.241423 216.717405 
L 117.932149 216.193195 
L 120.622874 215.87361 
L 123.3136 215.306609 
L 126.004325 215.033023 
L 128.695051 214.125093 
L 131.385776 213.651275 
L 134.076501 213.446743 
L 136.767227 213.246877 
L 139.457952 213.049232 
L 142.148678 212.850497 
L 144.839403 212.411764 
L 147.530129 212.327836 
L 150.220854 212.033982 
L 152.911579 211.602422 
L 155.602305 211.099033 
L 158.29303 210.606442 
L 160.983756 210.102263 
L 163.674481 210.01964 
L 166.365207 209.525564 
L 169.055932 209.019867 
L 171.746657 208.808712 
L 174.437383 208.339515 
L 177.128108 208.101647 
L 179.818834 207.94953 
L 182.509559 207.753795 
L 185.200285 207.745983 
L 187.89101 207.760067 
L 190.581736 207.648968 
L 193.272461 207.311227 
L 195.963186 207.134542 
L 198.653912 206.87197 
L 201.344637 206.526671 
L 204.035363 206.353263 
L 206.726088 206.217362 
L 209.416814 206.309755 
L 212.107539 206.400144 
L 214.798264 206.46641 
L 217.48899 206.578112 
L 220.179715 206.670235 
L 222.870441 206.757254 
L 225.561166 206.846004 
L 228.251892 207.185912 
L 230.942617 207.552128 
L 233.633343 207.987999 
L 236.324068 208.278547 
L 239.014793 208.575936 
L 241.705519 208.628916 
L 244.396244 208.668842 
L 247.08697 208.710575 
L 249.777695 208.875604 
L 252.468421 209.146006 
L 255.159146 209.417424 
L 257.849871 209.597981 
L 260.540597 209.746832 
L 263.231322 209.895683 
L 265.922048 210.044535 
L 268.612773 210.193386 
L 271.303499 210.362511 
L 273.994224 210.571535 
L 276.684949 210.850014 
L 279.375675 211.232299 
L 282.0664 211.28809 
L 284.757126 211.544057 
L 287.447851 211.993119 
L 290.138577 212.455252 
L 292.829302 212.880692 
L 295.520028 213.217034 
L 298.210753 213.531485 
L 300.901478 213.934716 
L 303.592204 214.296033 
L 306.282929 214.570501 
L 308.973655 214.984002 
L 311.66438 215.463266 
L 314.355106 215.95033 
L 317.045831 216.361583 
L 319.736556 216.772427 
L 322.427282 217.183172 
L 325.118007 217.593917 
L 327.808733 218.004662 
L 330.499458 218.700565 
L 333.190184 219.415302 
L 335.880909 220.012838 
L 335.880909 145.182372 
L 335.880909 145.182372 
L 333.190184 145.958755 
L 330.499458 146.397066 
L 327.808733 146.954117 
L 325.118007 147.606878 
L 322.427282 148.265792 
L 319.736556 148.932285 
L 317.045831 149.59915 
L 314.355106 150.467035 
L 311.66438 151.12487 
L 308.973655 151.64219 
L 306.282929 152.184593 
L 303.592204 152.746732 
L 300.901478 153.399093 
L 298.210753 153.910671 
L 295.520028 154.540133 
L 292.829302 155.0114 
L 290.138577 155.472781 
L 287.447851 156.104403 
L 284.757126 156.57471 
L 282.0664 157.202588 
L 279.375675 157.844881 
L 276.684949 158.400501 
L 273.994224 159.013028 
L 271.303499 159.705309 
L 268.612773 160.061051 
L 265.922048 160.43883 
L 263.231322 160.840143 
L 260.540597 161.241501 
L 257.849871 161.517006 
L 255.159146 161.764256 
L 252.468421 162.241546 
L 249.777695 162.855867 
L 247.08697 163.299024 
L 244.396244 163.718187 
L 241.705519 164.208225 
L 239.014793 164.669226 
L 236.324068 165.135458 
L 233.633343 165.420917 
L 230.942617 165.674501 
L 228.251892 166.078742 
L 225.561166 166.515151 
L 222.870441 166.88486 
L 220.179715 167.281804 
L 217.48899 167.684051 
L 214.798264 168.001622 
L 212.107539 168.330819 
L 209.416814 168.39587 
L 206.726088 168.338973 
L 204.035363 168.329379 
L 201.344637 168.619197 
L 198.653912 168.948739 
L 195.963186 168.962928 
L 193.272461 169.040929 
L 190.581736 169.295553 
L 187.89101 169.578202 
L 185.200285 169.81091 
L 182.509559 169.761495 
L 179.818834 169.845116 
L 177.128108 170.217032 
L 174.437383 170.321822 
L 171.746657 170.387541 
L 169.055932 170.252107 
L 166.365207 170.517792 
L 163.674481 170.413435 
L 160.983756 170.210771 
L 158.29303 170.194751 
L 155.602305 170.245709 
L 152.911579 170.285711 
L 150.220854 170.295001 
L 147.530129 170.048208 
L 144.839403 169.790349 
L 142.148678 169.535429 
L 139.457952 169.280509 
L 136.767227 169.11789 
L 134.076501 169.50635 
L 131.385776 169.555602 
L 128.695051 169.203934 
L 126.004325 168.953486 
L 123.3136 168.704597 
L 120.622874 168.596154 
L 117.932149 168.547038 
L 115.241423 168.368558 
L 112.550698 168.143826 
L 109.859972 167.930956 
L 107.169247 167.993685 
L 104.478522 168.166104 
L 101.787796 167.860381 
L 99.097071 167.541848 
L 96.406345 167.223315 
L 93.71562 166.869552 
L 91.024894 166.470121 
L 88.334169 166.180315 
L 85.643444 165.961173 
L 82.952718 165.625954 
L 80.261993 165.405553 
L 77.571267 165.113439 
L 74.880542 164.684841 
L 72.189816 164.341277 
L 69.499091 164.017449 
z
" clip-path="url(#p3702e3bb4c)" style="fill: #1f77b4; fill-opacity: 0.15"/>
   </g>
   <g id="matplotlib.axis_1">
    <g id="xtick_1">
     <g id="line2d_1">
      <defs>
       <path id="m2e8e76fa14" d="M 0 0 
L 0 3.5 
" style="stroke: #000000; stroke-width: 0.8"/>
      </defs>
      <g>
       <use xlink:href="#m2e8e76fa14" x="85.204141" y="317.93875" style="stroke: #000000; stroke-width: 0.8"/>
      </g>
     </g>
     <g id="text_1">
      <text style="font: 10px 'sans-serif'; text-anchor: middle" x="85.204141" y="332.537188" transform="rotate(-0, 85.204141, 332.537188)">−4</text>
     </g>
    </g>
    <g id="xtick_2">
     <g id="line2d_2">
      <g>
       <use xlink:href="#m2e8e76fa14" x="144.400101" y="317.93875" style="stroke: #000000; stroke-width: 0.8"/>
      </g>
     </g>
     <g id="text_2">
      <text style="font: 10px 'sans-serif'; text-anchor: middle" x="144.400101" y="332.537188" transform="rotate(-0, 144.400101, 332.537188)">−2</text>
     </g>
    </g>
    <g id="xtick_3">
     <g id="line2d_3">
      <g>
       <use xlink:href="#m2e8e76fa14" x="203.596061" y="317.93875" style="stroke: #000000; stroke-width: 0.8"/>
      </g>
     </g>
     <g id="text_3">
      <text style="font: 10px 'sans-serif'; text-anchor: middle" x="203.596061" y="332.537188" transform="rotate(-0, 203.596061, 332.537188)">0</text>
     </g>
    </g>
    <g id="xtick_4">
     <g id="line2d_4">
      <g>
       <use xlink:href="#m2e8e76fa14" x="262.79202" y="317.93875" style="stroke: #000000; stroke-width: 0.8"/>
      </g>
     </g>
     <g id="text_4">
      <text style="font: 10px 'sans-serif'; text-anchor: middle" x="262.79202" y="332.537188" transform="rotate(-0, 262.79202, 332.537188)">2</text>
     </g>
    </g>
    <g id="xtick_5">
     <g id="line2d_5">
      <g>
       <use xlink:href="#m2e8e76fa14" x="321.98798" y="317.93875" style="stroke: #000000; stroke-width: 0.8"/>
      </g>
     </g>
     <g id="text_5">
      <text style="font: 10px 'sans-serif'; text-anchor: middle" x="321.98798" y="332.537188" transform="rotate(-0, 321.98798, 332.537188)">4</text>
     </g>
    </g>
    <g id="text_6">
     <text style="font: 10px 'sans-serif'; text-anchor: middle" x="202.69" y="346.215312" transform="rotate(-0, 202.69, 346.215312)">Composite_Reward</text>
    </g>
   </g>
   <g id="matplotlib.axis_2">
    <g id="ytick_1">
     <g id="line2d_6">
      <defs>
       <path id="m7823e00f13" d="M 0 0 
L -3.5 0 
" style="stroke: #000000; stroke-width: 0.8"/>
      </defs>
      <g>
       <use xlink:href="#m7823e00f13" x="56.18" y="312.823723" style="stroke: #000000; stroke-width: 0.8"/>
      </g>
     </g>
     <g id="text_7">
      <text style="font: 10px 'sans-serif'; text-anchor: end" x="49.18" y="316.622941" transform="rotate(-0, 49.18, 316.622941)">−1.5</text>
     </g>
    </g>
    <g id="ytick_2">
     <g id="line2d_7">
      <g>
       <use xlink:href="#m7823e00f13" x="56.18" y="270.244829" style="stroke: #000000; stroke-width: 0.8"/>
      </g>
     </g>
     <g id="text_8">
      <text style="font: 10px 'sans-serif'; text-anchor: end" x="49.18" y="274.044048" transform="rotate(-0, 49.18, 274.044048)">−1.0</text>
     </g>
    </g>
    <g id="ytick_3">
     <g id="line2d_8">
      <g>
       <use xlink:href="#m7823e00f13" x="56.18" y="227.665936" style="stroke: #000000; stroke-width: 0.8"/>
      </g>
     </g>
     <g id="text_9">
      <text style="font: 10px 'sans-serif'; text-anchor: end" x="49.18" y="231.465155" transform="rotate(-0, 49.18, 231.465155)">−0.5</text>
     </g>
    </g>
    <g id="ytick_4">
     <g id="line2d_9">
      <g>
       <use xlink:href="#m7823e00f13" x="56.18" y="185.087043" style="stroke: #000000; stroke-width: 0.8"/>
      </g>
     </g>
     <g id="text_10">
      <text style="font: 10px 'sans-serif'; text-anchor: end" x="49.18" y="188.886262" transform="rotate(-0, 49.18, 188.886262)">0.0</text>
     </g>
    </g>
    <g id="ytick_5">
     <g id="line2d_10">
      <g>
       <use xlink:href="#m7823e00f13" x="56.18" y="142.50815" style="stroke: #000000; stroke-width: 0.8"/>
      </g>
     </g>
     <g id="text_11">
      <text style="font: 10px 'sans-serif'; text-anchor: end" x="49.18" y="146.307368" transform="rotate(-0, 49.18, 146.307368)">0.5</text>
     </g>
    </g>
    <g id="ytick_6">
     <g id="line2d_11">
      <g>
       <use xlink:href="#m7823e00f13" x="56.18" y="99.929256" style="stroke: #000000; stroke-width: 0.8"/>
      </g>
     </g>
     <g id="text_12">
      <text style="font: 10px 'sans-serif'; text-anchor: end" x="49.18" y="103.728475" transform="rotate(-0, 49.18, 103.728475)">1.0</text>
     </g>
    </g>
    <g id="ytick_7">
     <g id="line2d_12">
      <g>
       <use xlink:href="#m7823e00f13" x="56.18" y="57.350363" style="stroke: #000000; stroke-width: 0.8"/>
      </g>
     </g>
     <g id="text_13">
      <text style="font: 10px 'sans-serif'; text-anchor: end" x="49.18" y="61.149582" transform="rotate(-0, 49.18, 61.149582)">1.5</text>
     </g>
    </g>
    <g id="ytick_8">
     <g id="line2d_13">
      <g>
       <use xlink:href="#m7823e00f13" x="56.18" y="14.77147" style="stroke: #000000; stroke-width: 0.8"/>
      </g>
     </g>
     <g id="text_14">
      <text style="font: 10px 'sans-serif'; text-anchor: end" x="49.18" y="18.570688" transform="rotate(-0, 49.18, 18.570688)">2.0</text>
     </g>
    </g>
    <g id="text_15">
     <text style="font: 10px 'sans-serif'; text-anchor: middle" x="18.8175" y="165.416989" transform="rotate(-90, 18.8175, 165.416989)">Conn Hit-Miss</text>
    </g>
   </g>
   <g id="line2d_14">
    <path d="M 69.499091 193.812517 
L 72.189816 193.694363 
L 74.880542 193.57621 
L 77.571267 193.458057 
L 80.261993 193.339904 
L 82.952718 193.221751 
L 85.643444 193.103597 
L 88.334169 192.985444 
L 91.024894 192.867291 
L 93.71562 192.749138 
L 96.406345 192.630985 
L 99.097071 192.512831 
L 101.787796 192.394678 
L 104.478522 192.276525 
L 107.169247 192.158372 
L 109.859972 192.040218 
L 112.550698 191.922065 
L 115.241423 191.803912 
L 117.932149 191.685759 
L 120.622874 191.567606 
L 123.3136 191.449452 
L 126.004325 191.331299 
L 128.695051 191.213146 
L 131.385776 191.094993 
L 134.076501 190.976839 
L 136.767227 190.858686 
L 139.457952 190.740533 
L 142.148678 190.62238 
L 144.839403 190.504227 
L 147.530129 190.386073 
L 150.220854 190.26792 
L 152.911579 190.149767 
L 155.602305 190.031614 
L 158.29303 189.913461 
L 160.983756 189.795307 
L 163.674481 189.677154 
L 166.365207 189.559001 
L 169.055932 189.440848 
L 171.746657 189.322694 
L 174.437383 189.204541 
L 177.128108 189.086388 
L 179.818834 188.968235 
L 182.509559 188.850082 
L 185.200285 188.731928 
L 187.89101 188.613775 
L 190.581736 188.495622 
L 193.272461 188.377469 
L 195.963186 188.259315 
L 198.653912 188.141162 
L 201.344637 188.023009 
L 204.035363 187.904856 
L 206.726088 187.786703 
L 209.416814 187.668549 
L 212.107539 187.550396 
L 214.798264 187.432243 
L 217.48899 187.31409 
L 220.179715 187.195936 
L 222.870441 187.077783 
L 225.561166 186.95963 
L 228.251892 186.841477 
L 230.942617 186.723324 
L 233.633343 186.60517 
L 236.324068 186.487017 
L 239.014793 186.368864 
L 241.705519 186.250711 
L 244.396244 186.132558 
L 247.08697 186.014404 
L 249.777695 185.896251 
L 252.468421 185.778098 
L 255.159146 185.659945 
L 257.849871 185.541791 
L 260.540597 185.423638 
L 263.231322 185.305485 
L 265.922048 185.187332 
L 268.612773 185.069179 
L 271.303499 184.951025 
L 273.994224 184.832872 
L 276.684949 184.714719 
L 279.375675 184.596566 
L 282.0664 184.478412 
L 284.757126 184.360259 
L 287.447851 184.242106 
L 290.138577 184.123953 
L 292.829302 184.0058 
L 295.520028 183.887646 
L 298.210753 183.769493 
L 300.901478 183.65134 
L 303.592204 183.533187 
L 306.282929 183.415034 
L 308.973655 183.29688 
L 311.66438 183.178727 
L 314.355106 183.060574 
L 317.045831 182.942421 
L 319.736556 182.824267 
L 322.427282 182.706114 
L 325.118007 182.587961 
L 327.808733 182.469808 
L 330.499458 182.351655 
L 333.190184 182.233501 
L 335.880909 182.115348 
" clip-path="url(#p3702e3bb4c)" style="fill: none; stroke: #1f77b4; stroke-width: 2.25; stroke-linecap: square"/>
   </g>
   <g id="patch_3">
    <path d="M 56.18 317.93875 
L 56.18 12.895229 
" style="fill: none; stroke: #000000; stroke-width: 0.8; stroke-linejoin: miter; stroke-linecap: square"/>
   </g>
   <g id="patch_4">
    <path d="M 56.18 317.93875 
L 349.2 317.93875 
" style="fill: none; stroke: #000000; stroke-width: 0.8; stroke-linejoin: miter; stroke-linecap: square"/>
   </g>
  </g>
 </g>
 <defs>
  <clipPath id="p3702e3bb4c">
   <rect x="56.18" y="12.895229" width="293.02" height="305.043521"/>
  </clipPath>
 </defs>
</svg>
