<?xml version="1.0" encoding="utf-8" standalone="no"?>
<!DOCTYPE svg PUBLIC "-//W3C//DTD SVG 1.1//EN"
  "http://www.w3.org/Graphics/SVG/1.1/DTD/svg11.dtd">
<svg xmlns:xlink="http://www.w3.org/1999/xlink" width="360pt" height="360pt" viewBox="0 0 360 360" xmlns="http://www.w3.org/2000/svg" version="1.1">
 <metadata>
  <rdf:RDF xmlns:dc="http://purl.org/dc/elements/1.1/" xmlns:cc="http://creativecommons.org/ns#" xmlns:rdf="http://www.w3.org/1999/02/22-rdf-syntax-ns#">
   <cc:Work>
    <dc:type rdf:resource="http://purl.org/dc/dcmitype/StillImage"/>
    <dc:date>2022-11-22T21:46:46.837560</dc:date>
    <dc:format>image/svg+xml</dc:format>
    <dc:creator>
     <cc:Agent>
      <dc:title>Matplotlib v3.5.3, https://matplotlib.org/</dc:title>
     </cc:Agent>
    </dc:creator>
   </cc:Work>
  </rdf:RDF>
 </metadata>
 <defs>
  <style type="text/css">*{stroke-linejoin: round; stroke-linecap: butt}</style>
 </defs>
 <g id="figure_1">
  <g id="patch_1">
   <path d="M 0 360 
L 360 360 
L 360 0 
L 0 0 
z
" style="fill: #ffffff"/>
  </g>
  <g id="axes_1">
   <g id="patch_2">
    <path d="M 56.18 317.93875 
L 349.2 317.93875 
L 349.2 10.8 
L 56.18 10.8 
z
" style="fill: #ffffff"/>
   </g>
   <g id="PathCollection_1">
    <defs>
     <path id="m96f7296f22" d="M 0 3 
C 0.795609 3 1.55874 2.683901 2.12132 2.12132 
C 2.683901 1.55874 3 0.795609 3 0 
C 3 -0.795609 2.683901 -1.55874 2.12132 -2.12132 
C 1.55874 -2.683901 0.795609 -3 0 -3 
C -0.795609 -3 -1.55874 -2.683901 -2.12132 -2.12132 
C -2.683901 -1.55874 -3 -0.795609 -3 0 
C -3 0.795609 -2.683901 1.55874 -2.12132 2.12132 
C -1.55874 2.683901 -0.795609 3 0 3 
z
" style="stroke: #1f77b4; stroke-opacity: 0.8"/>
    </defs>
    <g clip-path="url(#p3bcc913202)">
     <use xlink:href="#m96f7296f22" x="217.48899" y="106.871201" style="fill: #1f77b4; fill-opacity: 0.8; stroke: #1f77b4; stroke-opacity: 0.8"/>
     <use xlink:href="#m96f7296f22" x="217.48899" y="123.892764" style="fill: #1f77b4; fill-opacity: 0.8; stroke: #1f77b4; stroke-opacity: 0.8"/>
     <use xlink:href="#m96f7296f22" x="276.684949" y="303.977898" style="fill: #1f77b4; fill-opacity: 0.8; stroke: #1f77b4; stroke-opacity: 0.8"/>
     <use xlink:href="#m96f7296f22" x="187.89101" y="133.896508" style="fill: #1f77b4; fill-opacity: 0.8; stroke: #1f77b4; stroke-opacity: 0.8"/>
     <use xlink:href="#m96f7296f22" x="247.08697" y="85.530723" style="fill: #1f77b4; fill-opacity: 0.8; stroke: #1f77b4; stroke-opacity: 0.8"/>
     <use xlink:href="#m96f7296f22" x="158.29303" y="157.330471" style="fill: #1f77b4; fill-opacity: 0.8; stroke: #1f77b4; stroke-opacity: 0.8"/>
     <use xlink:href="#m96f7296f22" x="276.684949" y="176.768154" style="fill: #1f77b4; fill-opacity: 0.8; stroke: #1f77b4; stroke-opacity: 0.8"/>
     <use xlink:href="#m96f7296f22" x="69.499091" y="141.925389" style="fill: #1f77b4; fill-opacity: 0.8; stroke: #1f77b4; stroke-opacity: 0.8"/>
     <use xlink:href="#m96f7296f22" x="335.880909" y="115.899386" style="fill: #1f77b4; fill-opacity: 0.8; stroke: #1f77b4; stroke-opacity: 0.8"/>
     <use xlink:href="#m96f7296f22" x="99.097071" y="70.97075" style="fill: #1f77b4; fill-opacity: 0.8; stroke: #1f77b4; stroke-opacity: 0.8"/>
     <use xlink:href="#m96f7296f22" x="306.282929" y="162.873025" style="fill: #1f77b4; fill-opacity: 0.8; stroke: #1f77b4; stroke-opacity: 0.8"/>
     <use xlink:href="#m96f7296f22" x="276.684949" y="85.195453" style="fill: #1f77b4; fill-opacity: 0.8; stroke: #1f77b4; stroke-opacity: 0.8"/>
     <use xlink:href="#m96f7296f22" x="158.29303" y="157.582021" style="fill: #1f77b4; fill-opacity: 0.8; stroke: #1f77b4; stroke-opacity: 0.8"/>
     <use xlink:href="#m96f7296f22" x="276.684949" y="154.410779" style="fill: #1f77b4; fill-opacity: 0.8; stroke: #1f77b4; stroke-opacity: 0.8"/>
     <use xlink:href="#m96f7296f22" x="128.695051" y="213.953401" style="fill: #1f77b4; fill-opacity: 0.8; stroke: #1f77b4; stroke-opacity: 0.8"/>
     <use xlink:href="#m96f7296f22" x="335.880909" y="235.209834" style="fill: #1f77b4; fill-opacity: 0.8; stroke: #1f77b4; stroke-opacity: 0.8"/>
     <use xlink:href="#m96f7296f22" x="99.097071" y="52.594328" style="fill: #1f77b4; fill-opacity: 0.8; stroke: #1f77b4; stroke-opacity: 0.8"/>
     <use xlink:href="#m96f7296f22" x="306.282929" y="177.585283" style="fill: #1f77b4; fill-opacity: 0.8; stroke: #1f77b4; stroke-opacity: 0.8"/>
     <use xlink:href="#m96f7296f22" x="276.684949" y="189.211067" style="fill: #1f77b4; fill-opacity: 0.8; stroke: #1f77b4; stroke-opacity: 0.8"/>
     <use xlink:href="#m96f7296f22" x="247.08697" y="188.906647" style="fill: #1f77b4; fill-opacity: 0.8; stroke: #1f77b4; stroke-opacity: 0.8"/>
     <use xlink:href="#m96f7296f22" x="158.29303" y="160.205174" style="fill: #1f77b4; fill-opacity: 0.8; stroke: #1f77b4; stroke-opacity: 0.8"/>
     <use xlink:href="#m96f7296f22" x="128.695051" y="169.826008" style="fill: #1f77b4; fill-opacity: 0.8; stroke: #1f77b4; stroke-opacity: 0.8"/>
     <use xlink:href="#m96f7296f22" x="335.880909" y="202.704193" style="fill: #1f77b4; fill-opacity: 0.8; stroke: #1f77b4; stroke-opacity: 0.8"/>
     <use xlink:href="#m96f7296f22" x="187.89101" y="61.026902" style="fill: #1f77b4; fill-opacity: 0.8; stroke: #1f77b4; stroke-opacity: 0.8"/>
     <use xlink:href="#m96f7296f22" x="128.695051" y="209.07755" style="fill: #1f77b4; fill-opacity: 0.8; stroke: #1f77b4; stroke-opacity: 0.8"/>
     <use xlink:href="#m96f7296f22" x="69.499091" y="186.774631" style="fill: #1f77b4; fill-opacity: 0.8; stroke: #1f77b4; stroke-opacity: 0.8"/>
     <use xlink:href="#m96f7296f22" x="128.695051" y="66.987943" style="fill: #1f77b4; fill-opacity: 0.8; stroke: #1f77b4; stroke-opacity: 0.8"/>
     <use xlink:href="#m96f7296f22" x="335.880909" y="134.543587" style="fill: #1f77b4; fill-opacity: 0.8; stroke: #1f77b4; stroke-opacity: 0.8"/>
     <use xlink:href="#m96f7296f22" x="217.48899" y="94.606603" style="fill: #1f77b4; fill-opacity: 0.8; stroke: #1f77b4; stroke-opacity: 0.8"/>
     <use xlink:href="#m96f7296f22" x="247.08697" y="179.847023" style="fill: #1f77b4; fill-opacity: 0.8; stroke: #1f77b4; stroke-opacity: 0.8"/>
     <use xlink:href="#m96f7296f22" x="335.880909" y="85.440108" style="fill: #1f77b4; fill-opacity: 0.8; stroke: #1f77b4; stroke-opacity: 0.8"/>
     <use xlink:href="#m96f7296f22" x="158.29303" y="131.290204" style="fill: #1f77b4; fill-opacity: 0.8; stroke: #1f77b4; stroke-opacity: 0.8"/>
     <use xlink:href="#m96f7296f22" x="217.48899" y="98.137802" style="fill: #1f77b4; fill-opacity: 0.8; stroke: #1f77b4; stroke-opacity: 0.8"/>
     <use xlink:href="#m96f7296f22" x="99.097071" y="79.554473" style="fill: #1f77b4; fill-opacity: 0.8; stroke: #1f77b4; stroke-opacity: 0.8"/>
     <use xlink:href="#m96f7296f22" x="128.695051" y="96.934427" style="fill: #1f77b4; fill-opacity: 0.8; stroke: #1f77b4; stroke-opacity: 0.8"/>
     <use xlink:href="#m96f7296f22" x="69.499091" y="182.360744" style="fill: #1f77b4; fill-opacity: 0.8; stroke: #1f77b4; stroke-opacity: 0.8"/>
     <use xlink:href="#m96f7296f22" x="306.282929" y="161.553336" style="fill: #1f77b4; fill-opacity: 0.8; stroke: #1f77b4; stroke-opacity: 0.8"/>
     <use xlink:href="#m96f7296f22" x="69.499091" y="181.870818" style="fill: #1f77b4; fill-opacity: 0.8; stroke: #1f77b4; stroke-opacity: 0.8"/>
     <use xlink:href="#m96f7296f22" x="99.097071" y="45.06347" style="fill: #1f77b4; fill-opacity: 0.8; stroke: #1f77b4; stroke-opacity: 0.8"/>
     <use xlink:href="#m96f7296f22" x="187.89101" y="223.856288" style="fill: #1f77b4; fill-opacity: 0.8; stroke: #1f77b4; stroke-opacity: 0.8"/>
     <use xlink:href="#m96f7296f22" x="306.282929" y="24.760852" style="fill: #1f77b4; fill-opacity: 0.8; stroke: #1f77b4; stroke-opacity: 0.8"/>
     <use xlink:href="#m96f7296f22" x="247.08697" y="206.708408" style="fill: #1f77b4; fill-opacity: 0.8; stroke: #1f77b4; stroke-opacity: 0.8"/>
     <use xlink:href="#m96f7296f22" x="99.097071" y="132.559293" style="fill: #1f77b4; fill-opacity: 0.8; stroke: #1f77b4; stroke-opacity: 0.8"/>
     <use xlink:href="#m96f7296f22" x="158.29303" y="198.089036" style="fill: #1f77b4; fill-opacity: 0.8; stroke: #1f77b4; stroke-opacity: 0.8"/>
     <use xlink:href="#m96f7296f22" x="99.097071" y="158.0592" style="fill: #1f77b4; fill-opacity: 0.8; stroke: #1f77b4; stroke-opacity: 0.8"/>
     <use xlink:href="#m96f7296f22" x="217.48899" y="181.559441" style="fill: #1f77b4; fill-opacity: 0.8; stroke: #1f77b4; stroke-opacity: 0.8"/>
     <use xlink:href="#m96f7296f22" x="247.08697" y="209.46619" style="fill: #1f77b4; fill-opacity: 0.8; stroke: #1f77b4; stroke-opacity: 0.8"/>
    </g>
   </g>
   <g id="PolyCollection_1">
    <path d="M 69.499091 103.003487 
L 69.499091 162.309899 
L 72.189816 161.997367 
L 74.880542 161.684441 
L 77.571267 161.438704 
L 80.261993 161.420096 
L 82.952718 161.150239 
L 85.643444 160.926523 
L 88.334169 160.74599 
L 91.024894 160.572331 
L 93.71562 160.291507 
L 96.406345 160.160108 
L 99.097071 160.03249 
L 101.787796 159.907772 
L 104.478522 159.849205 
L 107.169247 159.702109 
L 109.859972 159.614954 
L 112.550698 159.618461 
L 115.241423 159.617486 
L 117.932149 159.531519 
L 120.622874 159.215719 
L 123.3136 158.895022 
L 126.004325 158.852488 
L 128.695051 158.980014 
L 131.385776 158.791975 
L 134.076501 158.640157 
L 136.767227 158.700765 
L 139.457952 158.909751 
L 142.148678 158.577727 
L 144.839403 158.862127 
L 147.530129 158.955398 
L 150.220854 159.157633 
L 152.911579 159.084081 
L 155.602305 159.06458 
L 158.29303 159.162562 
L 160.983756 159.496797 
L 163.674481 159.677009 
L 166.365207 159.752814 
L 169.055932 159.709245 
L 171.746657 159.850366 
L 174.437383 159.975393 
L 177.128108 159.970977 
L 179.818834 160.163526 
L 182.509559 160.122641 
L 185.200285 160.164516 
L 187.89101 160.157258 
L 190.581736 160.395508 
L 193.272461 160.702358 
L 195.963186 161.327868 
L 198.653912 161.633149 
L 201.344637 161.873516 
L 204.035363 162.284556 
L 206.726088 162.70126 
L 209.416814 163.237392 
L 212.107539 163.739388 
L 214.798264 164.234681 
L 217.48899 164.895871 
L 220.179715 165.552028 
L 222.870441 166.201474 
L 225.561166 166.671042 
L 228.251892 167.297974 
L 230.942617 167.766446 
L 233.633343 168.449368 
L 236.324068 169.004689 
L 239.014793 169.36261 
L 241.705519 169.710696 
L 244.396244 170.058782 
L 247.08697 170.406868 
L 249.777695 170.9591 
L 252.468421 171.234347 
L 255.159146 171.731912 
L 257.849871 172.475806 
L 260.540597 173.466819 
L 263.231322 173.961356 
L 265.922048 174.696798 
L 268.612773 175.439092 
L 271.303499 176.284607 
L 273.994224 177.173804 
L 276.684949 177.732837 
L 279.375675 178.418861 
L 282.0664 178.891895 
L 284.757126 179.728182 
L 287.447851 180.382707 
L 290.138577 180.85881 
L 292.829302 181.51124 
L 295.520028 182.039585 
L 298.210753 182.56793 
L 300.901478 183.089271 
L 303.592204 183.6096 
L 306.282929 184.223413 
L 308.973655 184.998573 
L 311.66438 185.56863 
L 314.355106 186.269769 
L 317.045831 186.935076 
L 319.736556 187.626294 
L 322.427282 188.310266 
L 325.118007 188.98754 
L 327.808733 189.737063 
L 330.499458 190.350517 
L 333.190184 191.038953 
L 335.880909 191.72739 
L 335.880909 127.834576 
L 335.880909 127.834576 
L 333.190184 127.866317 
L 330.499458 127.92255 
L 327.808733 127.978784 
L 325.118007 128.035017 
L 322.427282 128.09125 
L 319.736556 128.03127 
L 317.045831 127.982554 
L 314.355106 128.000229 
L 311.66438 128.108641 
L 308.973655 128.372417 
L 306.282929 128.42927 
L 303.592204 128.487992 
L 300.901478 128.546714 
L 298.210753 128.605436 
L 295.520028 128.665765 
L 292.829302 128.722879 
L 290.138577 128.818676 
L 287.447851 129.033065 
L 284.757126 129.30995 
L 282.0664 129.587103 
L 279.375675 129.717282 
L 276.684949 129.826227 
L 273.994224 129.878543 
L 271.303499 129.909476 
L 268.612773 129.940409 
L 265.922048 129.971342 
L 263.231322 130.027825 
L 260.540597 130.154237 
L 257.849871 130.315578 
L 255.159146 130.39922 
L 252.468421 130.715313 
L 249.777695 130.911546 
L 247.08697 131.032984 
L 244.396244 131.047162 
L 241.705519 131.071404 
L 239.014793 131.073071 
L 236.324068 131.084767 
L 233.633343 131.096464 
L 230.942617 131.041356 
L 228.251892 130.956683 
L 225.561166 130.868517 
L 222.870441 130.735508 
L 220.179715 130.695164 
L 217.48899 130.612203 
L 214.798264 130.550211 
L 212.107539 130.580084 
L 209.416814 130.608804 
L 206.726088 130.630885 
L 204.035363 130.330954 
L 201.344637 130.29153 
L 198.653912 129.966773 
L 195.963186 129.787684 
L 193.272461 129.721457 
L 190.581736 129.299951 
L 187.89101 129.225706 
L 185.200285 128.956801 
L 182.509559 128.626999 
L 179.818834 128.036635 
L 177.128108 127.839504 
L 174.437383 127.301235 
L 171.746657 126.759817 
L 169.055932 126.269974 
L 166.365207 125.691784 
L 163.674481 125.170919 
L 160.983756 124.671702 
L 158.29303 124.051496 
L 155.602305 123.523334 
L 152.911579 122.966033 
L 150.220854 122.426025 
L 147.530129 121.904101 
L 144.839403 121.363201 
L 142.148678 120.795941 
L 139.457952 120.251274 
L 136.767227 119.649466 
L 134.076501 119.171358 
L 131.385776 118.508524 
L 128.695051 117.77579 
L 126.004325 117.136731 
L 123.3136 116.532618 
L 120.622874 116.093071 
L 117.932149 115.353507 
L 115.241423 114.640786 
L 112.550698 113.996363 
L 109.859972 113.365498 
L 107.169247 112.704923 
L 104.478522 111.670247 
L 101.787796 110.889165 
L 99.097071 110.175533 
L 96.406345 109.521651 
L 93.71562 108.867768 
L 91.024894 108.216745 
L 88.334169 107.567883 
L 85.643444 106.916194 
L 82.952718 106.291971 
L 80.261993 105.753504 
L 77.571267 105.214466 
L 74.880542 104.436478 
L 72.189816 103.65939 
L 69.499091 103.003487 
z
" clip-path="url(#p3bcc913202)" style="fill: #1f77b4; fill-opacity: 0.15"/>
   </g>
   <g id="matplotlib.axis_1">
    <g id="xtick_1">
     <g id="line2d_1">
      <defs>
       <path id="m7fc8add375" d="M 0 0 
L 0 3.5 
" style="stroke: #000000; stroke-width: 0.8"/>
      </defs>
      <g>
       <use xlink:href="#m7fc8add375" x="85.204141" y="317.93875" style="stroke: #000000; stroke-width: 0.8"/>
      </g>
     </g>
     <g id="text_1">
      <text style="font: 10px 'sans-serif'; text-anchor: middle" x="85.204141" y="332.537188" transform="rotate(-0, 85.204141, 332.537188)">−4</text>
     </g>
    </g>
    <g id="xtick_2">
     <g id="line2d_2">
      <g>
       <use xlink:href="#m7fc8add375" x="144.400101" y="317.93875" style="stroke: #000000; stroke-width: 0.8"/>
      </g>
     </g>
     <g id="text_2">
      <text style="font: 10px 'sans-serif'; text-anchor: middle" x="144.400101" y="332.537188" transform="rotate(-0, 144.400101, 332.537188)">−2</text>
     </g>
    </g>
    <g id="xtick_3">
     <g id="line2d_3">
      <g>
       <use xlink:href="#m7fc8add375" x="203.596061" y="317.93875" style="stroke: #000000; stroke-width: 0.8"/>
      </g>
     </g>
     <g id="text_3">
      <text style="font: 10px 'sans-serif'; text-anchor: middle" x="203.596061" y="332.537188" transform="rotate(-0, 203.596061, 332.537188)">0</text>
     </g>
    </g>
    <g id="xtick_4">
     <g id="line2d_4">
      <g>
       <use xlink:href="#m7fc8add375" x="262.79202" y="317.93875" style="stroke: #000000; stroke-width: 0.8"/>
      </g>
     </g>
     <g id="text_4">
      <text style="font: 10px 'sans-serif'; text-anchor: middle" x="262.79202" y="332.537188" transform="rotate(-0, 262.79202, 332.537188)">2</text>
     </g>
    </g>
    <g id="xtick_5">
     <g id="line2d_5">
      <g>
       <use xlink:href="#m7fc8add375" x="321.98798" y="317.93875" style="stroke: #000000; stroke-width: 0.8"/>
      </g>
     </g>
     <g id="text_5">
      <text style="font: 10px 'sans-serif'; text-anchor: middle" x="321.98798" y="332.537188" transform="rotate(-0, 321.98798, 332.537188)">4</text>
     </g>
    </g>
    <g id="text_6">
     <text style="font: 10px 'sans-serif'; text-anchor: middle" x="202.69" y="346.215312" transform="rotate(-0, 202.69, 346.215312)">Composite_Reward</text>
    </g>
   </g>
   <g id="matplotlib.axis_2">
    <g id="ytick_1">
     <g id="line2d_6">
      <defs>
       <path id="m3a454d78d6" d="M 0 0 
L -3.5 0 
" style="stroke: #000000; stroke-width: 0.8"/>
      </defs>
      <g>
       <use xlink:href="#m3a454d78d6" x="56.18" y="276.4457" style="stroke: #000000; stroke-width: 0.8"/>
      </g>
     </g>
     <g id="text_7">
      <text style="font: 10px 'sans-serif'; text-anchor: end" x="49.18" y="280.244919" transform="rotate(-0, 49.18, 280.244919)">−0.4</text>
     </g>
    </g>
    <g id="ytick_2">
     <g id="line2d_7">
      <g>
       <use xlink:href="#m3a454d78d6" x="56.18" y="216.545953" style="stroke: #000000; stroke-width: 0.8"/>
      </g>
     </g>
     <g id="text_8">
      <text style="font: 10px 'sans-serif'; text-anchor: end" x="49.18" y="220.345172" transform="rotate(-0, 49.18, 220.345172)">−0.2</text>
     </g>
    </g>
    <g id="ytick_3">
     <g id="line2d_8">
      <g>
       <use xlink:href="#m3a454d78d6" x="56.18" y="156.646207" style="stroke: #000000; stroke-width: 0.8"/>
      </g>
     </g>
     <g id="text_9">
      <text style="font: 10px 'sans-serif'; text-anchor: end" x="49.18" y="160.445426" transform="rotate(-0, 49.18, 160.445426)">0.0</text>
     </g>
    </g>
    <g id="ytick_4">
     <g id="line2d_9">
      <g>
       <use xlink:href="#m3a454d78d6" x="56.18" y="96.74646" style="stroke: #000000; stroke-width: 0.8"/>
      </g>
     </g>
     <g id="text_10">
      <text style="font: 10px 'sans-serif'; text-anchor: end" x="49.18" y="100.545679" transform="rotate(-0, 49.18, 100.545679)">0.2</text>
     </g>
    </g>
    <g id="ytick_5">
     <g id="line2d_10">
      <g>
       <use xlink:href="#m3a454d78d6" x="56.18" y="36.846714" style="stroke: #000000; stroke-width: 0.8"/>
      </g>
     </g>
     <g id="text_11">
      <text style="font: 10px 'sans-serif'; text-anchor: end" x="49.18" y="40.645933" transform="rotate(-0, 49.18, 40.645933)">0.4</text>
     </g>
    </g>
    <g id="text_12">
     <text style="font: 10px 'sans-serif'; text-anchor: middle" x="18.8175" y="164.369375" transform="rotate(-90, 18.8175, 164.369375)">Conn LL-SL</text>
    </g>
   </g>
   <g id="line2d_11">
    <path d="M 69.499091 134.024512 
L 72.189816 134.283515 
L 74.880542 134.542518 
L 77.571267 134.801521 
L 80.261993 135.060524 
L 82.952718 135.319527 
L 85.643444 135.578529 
L 88.334169 135.837532 
L 91.024894 136.096535 
L 93.71562 136.355538 
L 96.406345 136.614541 
L 99.097071 136.873544 
L 101.787796 137.132547 
L 104.478522 137.39155 
L 107.169247 137.650553 
L 109.859972 137.909556 
L 112.550698 138.168559 
L 115.241423 138.427561 
L 117.932149 138.686564 
L 120.622874 138.945567 
L 123.3136 139.20457 
L 126.004325 139.463573 
L 128.695051 139.722576 
L 131.385776 139.981579 
L 134.076501 140.240582 
L 136.767227 140.499585 
L 139.457952 140.758588 
L 142.148678 141.017591 
L 144.839403 141.276593 
L 147.530129 141.535596 
L 150.220854 141.794599 
L 152.911579 142.053602 
L 155.602305 142.312605 
L 158.29303 142.571608 
L 160.983756 142.830611 
L 163.674481 143.089614 
L 166.365207 143.348617 
L 169.055932 143.60762 
L 171.746657 143.866623 
L 174.437383 144.125625 
L 177.128108 144.384628 
L 179.818834 144.643631 
L 182.509559 144.902634 
L 185.200285 145.161637 
L 187.89101 145.42064 
L 190.581736 145.679643 
L 193.272461 145.938646 
L 195.963186 146.197649 
L 198.653912 146.456652 
L 201.344637 146.715655 
L 204.035363 146.974657 
L 206.726088 147.23366 
L 209.416814 147.492663 
L 212.107539 147.751666 
L 214.798264 148.010669 
L 217.48899 148.269672 
L 220.179715 148.528675 
L 222.870441 148.787678 
L 225.561166 149.046681 
L 228.251892 149.305684 
L 230.942617 149.564687 
L 233.633343 149.823689 
L 236.324068 150.082692 
L 239.014793 150.341695 
L 241.705519 150.600698 
L 244.396244 150.859701 
L 247.08697 151.118704 
L 249.777695 151.377707 
L 252.468421 151.63671 
L 255.159146 151.895713 
L 257.849871 152.154716 
L 260.540597 152.413719 
L 263.231322 152.672721 
L 265.922048 152.931724 
L 268.612773 153.190727 
L 271.303499 153.44973 
L 273.994224 153.708733 
L 276.684949 153.967736 
L 279.375675 154.226739 
L 282.0664 154.485742 
L 284.757126 154.744745 
L 287.447851 155.003748 
L 290.138577 155.262751 
L 292.829302 155.521753 
L 295.520028 155.780756 
L 298.210753 156.039759 
L 300.901478 156.298762 
L 303.592204 156.557765 
L 306.282929 156.816768 
L 308.973655 157.075771 
L 311.66438 157.334774 
L 314.355106 157.593777 
L 317.045831 157.85278 
L 319.736556 158.111783 
L 322.427282 158.370785 
L 325.118007 158.629788 
L 327.808733 158.888791 
L 330.499458 159.147794 
L 333.190184 159.406797 
L 335.880909 159.6658 
" clip-path="url(#p3bcc913202)" style="fill: none; stroke: #1f77b4; stroke-width: 2.25; stroke-linecap: square"/>
   </g>
   <g id="patch_3">
    <path d="M 56.18 317.93875 
L 56.18 10.8 
" style="fill: none; stroke: #000000; stroke-width: 0.8; stroke-linejoin: miter; stroke-linecap: square"/>
   </g>
   <g id="patch_4">
    <path d="M 56.18 317.93875 
L 349.2 317.93875 
" style="fill: none; stroke: #000000; stroke-width: 0.8; stroke-linejoin: miter; stroke-linecap: square"/>
   </g>
  </g>
 </g>
 <defs>
  <clipPath id="p3bcc913202">
   <rect x="56.18" y="10.8" width="293.02" height="307.13875"/>
  </clipPath>
 </defs>
</svg>
