<?xml version="1.0" encoding="utf-8" standalone="no"?>
<!DOCTYPE svg PUBLIC "-//W3C//DTD SVG 1.1//EN"
  "http://www.w3.org/Graphics/SVG/1.1/DTD/svg11.dtd">
<svg xmlns:xlink="http://www.w3.org/1999/xlink" width="360pt" height="360pt" viewBox="0 0 360 360" xmlns="http://www.w3.org/2000/svg" version="1.1">
 <metadata>
  <rdf:RDF xmlns:dc="http://purl.org/dc/elements/1.1/" xmlns:cc="http://creativecommons.org/ns#" xmlns:rdf="http://www.w3.org/1999/02/22-rdf-syntax-ns#">
   <cc:Work>
    <dc:type rdf:resource="http://purl.org/dc/dcmitype/StillImage"/>
    <dc:date>2022-11-22T21:40:34.950296</dc:date>
    <dc:format>image/svg+xml</dc:format>
    <dc:creator>
     <cc:Agent>
      <dc:title>Matplotlib v3.5.3, https://matplotlib.org/</dc:title>
     </cc:Agent>
    </dc:creator>
   </cc:Work>
  </rdf:RDF>
 </metadata>
 <defs>
  <style type="text/css">*{stroke-linejoin: round; stroke-linecap: butt}</style>
 </defs>
 <g id="figure_1">
  <g id="patch_1">
   <path d="M 0 360 
L 360 360 
L 360 0 
L 0 0 
z
" style="fill: #ffffff"/>
  </g>
  <g id="axes_1">
   <g id="patch_2">
    <path d="M 62.57 317.93875 
L 349.2 317.93875 
L 349.2 10.8 
L 62.57 10.8 
z
" style="fill: #ffffff"/>
   </g>
   <g id="PathCollection_1">
    <defs>
     <path id="m29dcc16052" d="M 0 3 
C 0.795609 3 1.55874 2.683901 2.12132 2.12132 
C 2.683901 1.55874 3 0.795609 3 0 
C 3 -0.795609 2.683901 -1.55874 2.12132 -2.12132 
C 1.55874 -2.683901 0.795609 -3 0 -3 
C -0.795609 -3 -1.55874 -2.683901 -2.12132 -2.12132 
C -2.683901 -1.55874 -3 -0.795609 -3 0 
C -3 0.795609 -2.683901 1.55874 -2.12132 2.12132 
C -1.55874 2.683901 -0.795609 3 0 3 
z
" style="stroke: #1f77b4; stroke-opacity: 0.8"/>
    </defs>
    <g clip-path="url(#pf15c0d303e)">
     <use xlink:href="#m29dcc16052" x="220.361263" y="67.067401" style="fill: #1f77b4; fill-opacity: 0.8; stroke: #1f77b4; stroke-opacity: 0.8"/>
     <use xlink:href="#m29dcc16052" x="220.361263" y="130.122248" style="fill: #1f77b4; fill-opacity: 0.8; stroke: #1f77b4; stroke-opacity: 0.8"/>
     <use xlink:href="#m29dcc16052" x="278.266313" y="146.427" style="fill: #1f77b4; fill-opacity: 0.8; stroke: #1f77b4; stroke-opacity: 0.8"/>
     <use xlink:href="#m29dcc16052" x="191.408737" y="53.624622" style="fill: #1f77b4; fill-opacity: 0.8; stroke: #1f77b4; stroke-opacity: 0.8"/>
     <use xlink:href="#m29dcc16052" x="249.313788" y="52.107369" style="fill: #1f77b4; fill-opacity: 0.8; stroke: #1f77b4; stroke-opacity: 0.8"/>
     <use xlink:href="#m29dcc16052" x="162.456212" y="41.056127" style="fill: #1f77b4; fill-opacity: 0.8; stroke: #1f77b4; stroke-opacity: 0.8"/>
     <use xlink:href="#m29dcc16052" x="278.266313" y="25.068966" style="fill: #1f77b4; fill-opacity: 0.8; stroke: #1f77b4; stroke-opacity: 0.8"/>
     <use xlink:href="#m29dcc16052" x="75.598636" y="167.824461" style="fill: #1f77b4; fill-opacity: 0.8; stroke: #1f77b4; stroke-opacity: 0.8"/>
     <use xlink:href="#m29dcc16052" x="336.171364" y="143.275065" style="fill: #1f77b4; fill-opacity: 0.8; stroke: #1f77b4; stroke-opacity: 0.8"/>
     <use xlink:href="#m29dcc16052" x="104.551162" y="145.402072" style="fill: #1f77b4; fill-opacity: 0.8; stroke: #1f77b4; stroke-opacity: 0.8"/>
     <use xlink:href="#m29dcc16052" x="307.218838" y="130.448249" style="fill: #1f77b4; fill-opacity: 0.8; stroke: #1f77b4; stroke-opacity: 0.8"/>
     <use xlink:href="#m29dcc16052" x="278.266313" y="29.769417" style="fill: #1f77b4; fill-opacity: 0.8; stroke: #1f77b4; stroke-opacity: 0.8"/>
     <use xlink:href="#m29dcc16052" x="162.456212" y="131.135047" style="fill: #1f77b4; fill-opacity: 0.8; stroke: #1f77b4; stroke-opacity: 0.8"/>
     <use xlink:href="#m29dcc16052" x="278.266313" y="83.400004" style="fill: #1f77b4; fill-opacity: 0.8; stroke: #1f77b4; stroke-opacity: 0.8"/>
     <use xlink:href="#m29dcc16052" x="133.503687" y="112.049335" style="fill: #1f77b4; fill-opacity: 0.8; stroke: #1f77b4; stroke-opacity: 0.8"/>
     <use xlink:href="#m29dcc16052" x="336.171364" y="114.580951" style="fill: #1f77b4; fill-opacity: 0.8; stroke: #1f77b4; stroke-opacity: 0.8"/>
     <use xlink:href="#m29dcc16052" x="104.551162" y="172.245743" style="fill: #1f77b4; fill-opacity: 0.8; stroke: #1f77b4; stroke-opacity: 0.8"/>
     <use xlink:href="#m29dcc16052" x="307.218838" y="145.296726" style="fill: #1f77b4; fill-opacity: 0.8; stroke: #1f77b4; stroke-opacity: 0.8"/>
     <use xlink:href="#m29dcc16052" x="278.266313" y="105.490539" style="fill: #1f77b4; fill-opacity: 0.8; stroke: #1f77b4; stroke-opacity: 0.8"/>
     <use xlink:href="#m29dcc16052" x="249.313788" y="163.45867" style="fill: #1f77b4; fill-opacity: 0.8; stroke: #1f77b4; stroke-opacity: 0.8"/>
     <use xlink:href="#m29dcc16052" x="162.456212" y="137.758405" style="fill: #1f77b4; fill-opacity: 0.8; stroke: #1f77b4; stroke-opacity: 0.8"/>
     <use xlink:href="#m29dcc16052" x="133.503687" y="92.190992" style="fill: #1f77b4; fill-opacity: 0.8; stroke: #1f77b4; stroke-opacity: 0.8"/>
     <use xlink:href="#m29dcc16052" x="336.171364" y="135.227391" style="fill: #1f77b4; fill-opacity: 0.8; stroke: #1f77b4; stroke-opacity: 0.8"/>
     <use xlink:href="#m29dcc16052" x="191.408737" y="122.038016" style="fill: #1f77b4; fill-opacity: 0.8; stroke: #1f77b4; stroke-opacity: 0.8"/>
     <use xlink:href="#m29dcc16052" x="133.503687" y="103.215616" style="fill: #1f77b4; fill-opacity: 0.8; stroke: #1f77b4; stroke-opacity: 0.8"/>
     <use xlink:href="#m29dcc16052" x="75.598636" y="237.07027" style="fill: #1f77b4; fill-opacity: 0.8; stroke: #1f77b4; stroke-opacity: 0.8"/>
     <use xlink:href="#m29dcc16052" x="133.503687" y="190.346563" style="fill: #1f77b4; fill-opacity: 0.8; stroke: #1f77b4; stroke-opacity: 0.8"/>
     <use xlink:href="#m29dcc16052" x="336.171364" y="176.02707" style="fill: #1f77b4; fill-opacity: 0.8; stroke: #1f77b4; stroke-opacity: 0.8"/>
     <use xlink:href="#m29dcc16052" x="220.361263" y="221.614638" style="fill: #1f77b4; fill-opacity: 0.8; stroke: #1f77b4; stroke-opacity: 0.8"/>
     <use xlink:href="#m29dcc16052" x="249.313788" y="150.697455" style="fill: #1f77b4; fill-opacity: 0.8; stroke: #1f77b4; stroke-opacity: 0.8"/>
     <use xlink:href="#m29dcc16052" x="336.171364" y="88.616131" style="fill: #1f77b4; fill-opacity: 0.8; stroke: #1f77b4; stroke-opacity: 0.8"/>
     <use xlink:href="#m29dcc16052" x="162.456212" y="90.656507" style="fill: #1f77b4; fill-opacity: 0.8; stroke: #1f77b4; stroke-opacity: 0.8"/>
     <use xlink:href="#m29dcc16052" x="220.361263" y="156.087206" style="fill: #1f77b4; fill-opacity: 0.8; stroke: #1f77b4; stroke-opacity: 0.8"/>
     <use xlink:href="#m29dcc16052" x="104.551162" y="103.089626" style="fill: #1f77b4; fill-opacity: 0.8; stroke: #1f77b4; stroke-opacity: 0.8"/>
     <use xlink:href="#m29dcc16052" x="133.503687" y="135.614646" style="fill: #1f77b4; fill-opacity: 0.8; stroke: #1f77b4; stroke-opacity: 0.8"/>
     <use xlink:href="#m29dcc16052" x="75.598636" y="145.109903" style="fill: #1f77b4; fill-opacity: 0.8; stroke: #1f77b4; stroke-opacity: 0.8"/>
     <use xlink:href="#m29dcc16052" x="307.218838" y="93.115206" style="fill: #1f77b4; fill-opacity: 0.8; stroke: #1f77b4; stroke-opacity: 0.8"/>
     <use xlink:href="#m29dcc16052" x="75.598636" y="165.991758" style="fill: #1f77b4; fill-opacity: 0.8; stroke: #1f77b4; stroke-opacity: 0.8"/>
     <use xlink:href="#m29dcc16052" x="104.551162" y="233.074118" style="fill: #1f77b4; fill-opacity: 0.8; stroke: #1f77b4; stroke-opacity: 0.8"/>
     <use xlink:href="#m29dcc16052" x="191.408737" y="206.948883" style="fill: #1f77b4; fill-opacity: 0.8; stroke: #1f77b4; stroke-opacity: 0.8"/>
     <use xlink:href="#m29dcc16052" x="307.218838" y="175.183912" style="fill: #1f77b4; fill-opacity: 0.8; stroke: #1f77b4; stroke-opacity: 0.8"/>
     <use xlink:href="#m29dcc16052" x="249.313788" y="122.900872" style="fill: #1f77b4; fill-opacity: 0.8; stroke: #1f77b4; stroke-opacity: 0.8"/>
     <use xlink:href="#m29dcc16052" x="104.551162" y="303.977898" style="fill: #1f77b4; fill-opacity: 0.8; stroke: #1f77b4; stroke-opacity: 0.8"/>
     <use xlink:href="#m29dcc16052" x="162.456212" y="209.202957" style="fill: #1f77b4; fill-opacity: 0.8; stroke: #1f77b4; stroke-opacity: 0.8"/>
     <use xlink:href="#m29dcc16052" x="104.551162" y="158.365467" style="fill: #1f77b4; fill-opacity: 0.8; stroke: #1f77b4; stroke-opacity: 0.8"/>
     <use xlink:href="#m29dcc16052" x="220.361263" y="120.018751" style="fill: #1f77b4; fill-opacity: 0.8; stroke: #1f77b4; stroke-opacity: 0.8"/>
     <use xlink:href="#m29dcc16052" x="249.313788" y="24.760852" style="fill: #1f77b4; fill-opacity: 0.8; stroke: #1f77b4; stroke-opacity: 0.8"/>
    </g>
   </g>
   <g id="PolyCollection_1">
    <path d="M 75.598636 134.854322 
L 75.598636 193.718494 
L 78.230684 192.778795 
L 80.862732 191.538236 
L 83.49478 190.409489 
L 86.126827 189.289075 
L 88.758875 188.433481 
L 91.390923 187.61442 
L 94.022971 186.793358 
L 96.655018 185.626022 
L 99.287066 184.662827 
L 101.919114 183.407248 
L 104.551162 182.528135 
L 107.183209 181.140759 
L 109.815257 180.174203 
L 112.447305 179.248857 
L 115.079353 178.323511 
L 117.7114 177.398165 
L 120.343448 176.47403 
L 122.975496 175.567145 
L 125.607544 174.636665 
L 128.239591 173.71934 
L 130.871639 172.851806 
L 133.503687 171.872076 
L 136.135735 171.040505 
L 138.767782 170.229417 
L 141.39983 169.426824 
L 144.031878 168.62374 
L 146.663926 167.477276 
L 149.295973 166.347061 
L 151.928021 165.529186 
L 154.560069 164.661727 
L 157.192117 163.575644 
L 159.824164 162.658238 
L 162.456212 161.764096 
L 165.08826 160.890929 
L 167.720308 160.022911 
L 170.352355 159.283363 
L 172.984403 158.657139 
L 175.616451 157.940286 
L 178.248499 157.211633 
L 180.880546 156.437826 
L 183.512594 155.726442 
L 186.144642 155.015058 
L 188.77669 154.011825 
L 191.408737 153.340402 
L 194.040785 152.374362 
L 196.672833 151.370629 
L 199.304881 150.404207 
L 201.936928 149.891815 
L 204.568976 149.208225 
L 207.201024 148.277437 
L 209.833072 147.346649 
L 212.465119 146.578767 
L 215.097167 145.876114 
L 217.729215 145.37821 
L 220.361263 144.900612 
L 222.99331 144.135679 
L 225.625358 143.37726 
L 228.257406 142.970328 
L 230.889454 142.17375 
L 233.521501 141.54451 
L 236.153549 140.743618 
L 238.785597 140.274182 
L 241.417645 139.577277 
L 244.049692 138.91681 
L 246.68174 138.320019 
L 249.313788 137.57551 
L 251.945836 136.931402 
L 254.577883 136.459373 
L 257.209931 135.993067 
L 259.841979 135.560563 
L 262.474027 135.136406 
L 265.106074 134.711618 
L 267.738122 134.573972 
L 270.37017 134.268658 
L 273.002218 133.865153 
L 275.634265 133.582575 
L 278.266313 133.285215 
L 280.898361 132.502137 
L 283.530409 132.044992 
L 286.162456 131.66039 
L 288.794504 131.214175 
L 291.426552 130.673557 
L 294.0586 130.216412 
L 296.690647 129.970472 
L 299.322695 129.702673 
L 301.954743 129.560783 
L 304.586791 129.412194 
L 307.218838 129.07971 
L 309.850886 128.660159 
L 312.482934 128.240567 
L 315.114982 127.817541 
L 317.747029 127.401506 
L 320.379077 127.211006 
L 323.011125 126.750594 
L 325.643173 126.2544 
L 328.27522 125.757694 
L 330.907268 125.303752 
L 333.539316 124.880568 
L 336.171364 124.45914 
L 336.171364 72.889575 
L 336.171364 72.889575 
L 333.539316 73.919844 
L 330.907268 74.950112 
L 328.27522 75.878602 
L 325.643173 76.760424 
L 323.011125 77.719238 
L 320.379077 78.513759 
L 317.747029 79.387255 
L 315.114982 80.264665 
L 312.482934 81.49426 
L 309.850886 82.735157 
L 307.218838 83.976055 
L 304.586791 84.832871 
L 301.954743 85.693691 
L 299.322695 86.558345 
L 296.690647 87.663839 
L 294.0586 88.795572 
L 291.426552 89.668677 
L 288.794504 90.541782 
L 286.162456 91.418557 
L 283.530409 92.281865 
L 280.898361 93.176137 
L 278.266313 94.065122 
L 275.634265 95.092304 
L 273.002218 96.119486 
L 270.37017 97.152924 
L 267.738122 98.187518 
L 265.106074 99.216591 
L 262.474027 100.066467 
L 259.841979 100.863772 
L 257.209931 101.878798 
L 254.577883 102.921204 
L 251.945836 104.118415 
L 249.313788 105.200488 
L 246.68174 106.243153 
L 244.049692 106.792177 
L 241.417645 107.856948 
L 238.785597 108.573213 
L 236.153549 109.32948 
L 233.521501 109.990078 
L 230.889454 110.70103 
L 228.257406 111.406139 
L 225.625358 112.098835 
L 222.99331 112.816709 
L 220.361263 113.529554 
L 217.729215 114.144473 
L 215.097167 114.932387 
L 212.465119 115.530153 
L 209.833072 116.050407 
L 207.201024 116.710727 
L 204.568976 117.254651 
L 201.936928 117.999859 
L 199.304881 118.717131 
L 196.672833 119.275813 
L 194.040785 119.903522 
L 191.408737 120.422723 
L 188.77669 120.841844 
L 186.144642 121.287463 
L 183.512594 121.755811 
L 180.880546 122.411385 
L 178.248499 123.117878 
L 175.616451 123.689374 
L 172.984403 124.201144 
L 170.352355 124.535285 
L 167.720308 124.901509 
L 165.08826 125.222163 
L 162.456212 125.625739 
L 159.824164 125.928918 
L 157.192117 126.372154 
L 154.560069 126.735404 
L 151.928021 127.034314 
L 149.295973 127.319718 
L 146.663926 127.502965 
L 144.031878 127.600139 
L 141.39983 127.907142 
L 138.767782 128.442692 
L 136.135735 128.98297 
L 133.503687 129.46986 
L 130.871639 129.939911 
L 128.239591 130.235344 
L 125.607544 130.730903 
L 122.975496 131.101335 
L 120.343448 131.393782 
L 117.7114 131.412144 
L 115.079353 131.357743 
L 112.447305 131.359093 
L 109.815257 131.870448 
L 107.183209 132.197571 
L 104.551162 132.336999 
L 101.919114 132.499341 
L 99.287066 132.80438 
L 96.655018 133.111011 
L 94.022971 133.414484 
L 91.390923 133.717957 
L 88.758875 134.02143 
L 86.126827 134.324903 
L 83.49478 134.509165 
L 80.862732 134.59269 
L 78.230684 134.681947 
L 75.598636 134.854322 
z
" clip-path="url(#pf15c0d303e)" style="fill: #1f77b4; fill-opacity: 0.15"/>
   </g>
   <g id="matplotlib.axis_1">
    <g id="xtick_1">
     <g id="line2d_1">
      <defs>
       <path id="ma7ee69b4b2" d="M 0 0 
L 0 3.5 
" style="stroke: #000000; stroke-width: 0.8"/>
      </defs>
      <g>
       <use xlink:href="#ma7ee69b4b2" x="90.961201" y="317.93875" style="stroke: #000000; stroke-width: 0.8"/>
      </g>
     </g>
     <g id="text_1">
      <text style="font: 10px 'sans-serif'; text-anchor: middle" x="90.961201" y="332.537188" transform="rotate(-0, 90.961201, 332.537188)">−4</text>
     </g>
    </g>
    <g id="xtick_2">
     <g id="line2d_2">
      <g>
       <use xlink:href="#ma7ee69b4b2" x="148.866251" y="317.93875" style="stroke: #000000; stroke-width: 0.8"/>
      </g>
     </g>
     <g id="text_2">
      <text style="font: 10px 'sans-serif'; text-anchor: middle" x="148.866251" y="332.537188" transform="rotate(-0, 148.866251, 332.537188)">−2</text>
     </g>
    </g>
    <g id="xtick_3">
     <g id="line2d_3">
      <g>
       <use xlink:href="#ma7ee69b4b2" x="206.771302" y="317.93875" style="stroke: #000000; stroke-width: 0.8"/>
      </g>
     </g>
     <g id="text_3">
      <text style="font: 10px 'sans-serif'; text-anchor: middle" x="206.771302" y="332.537188" transform="rotate(-0, 206.771302, 332.537188)">0</text>
     </g>
    </g>
    <g id="xtick_4">
     <g id="line2d_4">
      <g>
       <use xlink:href="#ma7ee69b4b2" x="264.676352" y="317.93875" style="stroke: #000000; stroke-width: 0.8"/>
      </g>
     </g>
     <g id="text_4">
      <text style="font: 10px 'sans-serif'; text-anchor: middle" x="264.676352" y="332.537188" transform="rotate(-0, 264.676352, 332.537188)">2</text>
     </g>
    </g>
    <g id="xtick_5">
     <g id="line2d_5">
      <g>
       <use xlink:href="#ma7ee69b4b2" x="322.581403" y="317.93875" style="stroke: #000000; stroke-width: 0.8"/>
      </g>
     </g>
     <g id="text_5">
      <text style="font: 10px 'sans-serif'; text-anchor: middle" x="322.581403" y="332.537188" transform="rotate(-0, 322.581403, 332.537188)">4</text>
     </g>
    </g>
    <g id="text_6">
     <text style="font: 10px 'sans-serif'; text-anchor: middle" x="205.885" y="346.215312" transform="rotate(-0, 205.885, 346.215312)">Composite_Reward</text>
    </g>
   </g>
   <g id="matplotlib.axis_2">
    <g id="ytick_1">
     <g id="line2d_6">
      <defs>
       <path id="m73d21b793e" d="M 0 0 
L -3.5 0 
" style="stroke: #000000; stroke-width: 0.8"/>
      </defs>
      <g>
       <use xlink:href="#m73d21b793e" x="62.57" y="302.832277" style="stroke: #000000; stroke-width: 0.8"/>
      </g>
     </g>
     <g id="text_7">
      <text style="font: 10px 'sans-serif'; text-anchor: end" x="55.57" y="306.631496" transform="rotate(-0, 55.57, 306.631496)">−1.25</text>
     </g>
    </g>
    <g id="ytick_2">
     <g id="line2d_7">
      <g>
       <use xlink:href="#m73d21b793e" x="62.57" y="268.653825" style="stroke: #000000; stroke-width: 0.8"/>
      </g>
     </g>
     <g id="text_8">
      <text style="font: 10px 'sans-serif'; text-anchor: end" x="55.57" y="272.453044" transform="rotate(-0, 55.57, 272.453044)">−1.00</text>
     </g>
    </g>
    <g id="ytick_3">
     <g id="line2d_8">
      <g>
       <use xlink:href="#m73d21b793e" x="62.57" y="234.475373" style="stroke: #000000; stroke-width: 0.8"/>
      </g>
     </g>
     <g id="text_9">
      <text style="font: 10px 'sans-serif'; text-anchor: end" x="55.57" y="238.274592" transform="rotate(-0, 55.57, 238.274592)">−0.75</text>
     </g>
    </g>
    <g id="ytick_4">
     <g id="line2d_9">
      <g>
       <use xlink:href="#m73d21b793e" x="62.57" y="200.296921" style="stroke: #000000; stroke-width: 0.8"/>
      </g>
     </g>
     <g id="text_10">
      <text style="font: 10px 'sans-serif'; text-anchor: end" x="55.57" y="204.09614" transform="rotate(-0, 55.57, 204.09614)">−0.50</text>
     </g>
    </g>
    <g id="ytick_5">
     <g id="line2d_10">
      <g>
       <use xlink:href="#m73d21b793e" x="62.57" y="166.118469" style="stroke: #000000; stroke-width: 0.8"/>
      </g>
     </g>
     <g id="text_11">
      <text style="font: 10px 'sans-serif'; text-anchor: end" x="55.57" y="169.917688" transform="rotate(-0, 55.57, 169.917688)">−0.25</text>
     </g>
    </g>
    <g id="ytick_6">
     <g id="line2d_11">
      <g>
       <use xlink:href="#m73d21b793e" x="62.57" y="131.940017" style="stroke: #000000; stroke-width: 0.8"/>
      </g>
     </g>
     <g id="text_12">
      <text style="font: 10px 'sans-serif'; text-anchor: end" x="55.57" y="135.739236" transform="rotate(-0, 55.57, 135.739236)">0.00</text>
     </g>
    </g>
    <g id="ytick_7">
     <g id="line2d_12">
      <g>
       <use xlink:href="#m73d21b793e" x="62.57" y="97.761566" style="stroke: #000000; stroke-width: 0.8"/>
      </g>
     </g>
     <g id="text_13">
      <text style="font: 10px 'sans-serif'; text-anchor: end" x="55.57" y="101.560784" transform="rotate(-0, 55.57, 101.560784)">0.25</text>
     </g>
    </g>
    <g id="ytick_8">
     <g id="line2d_13">
      <g>
       <use xlink:href="#m73d21b793e" x="62.57" y="63.583114" style="stroke: #000000; stroke-width: 0.8"/>
      </g>
     </g>
     <g id="text_14">
      <text style="font: 10px 'sans-serif'; text-anchor: end" x="55.57" y="67.382332" transform="rotate(-0, 55.57, 67.382332)">0.50</text>
     </g>
    </g>
    <g id="ytick_9">
     <g id="line2d_14">
      <g>
       <use xlink:href="#m73d21b793e" x="62.57" y="29.404662" style="stroke: #000000; stroke-width: 0.8"/>
      </g>
     </g>
     <g id="text_15">
      <text style="font: 10px 'sans-serif'; text-anchor: end" x="55.57" y="33.20388" transform="rotate(-0, 55.57, 33.20388)">0.75</text>
     </g>
    </g>
    <g id="text_16">
     <text style="font: 10px 'sans-serif'; text-anchor: middle" x="18.845" y="164.369375" transform="rotate(-90, 18.845, 164.369375)">Conn Gain&gt;Neut</text>
    </g>
   </g>
   <g id="line2d_15">
    <path d="M 75.598636 163.514925 
L 78.230684 162.897414 
L 80.862732 162.279903 
L 83.49478 161.662392 
L 86.126827 161.044881 
L 88.758875 160.42737 
L 91.390923 159.809859 
L 94.022971 159.192348 
L 96.655018 158.574837 
L 99.287066 157.957326 
L 101.919114 157.339815 
L 104.551162 156.722304 
L 107.183209 156.104793 
L 109.815257 155.487282 
L 112.447305 154.869771 
L 115.079353 154.25226 
L 117.7114 153.634749 
L 120.343448 153.017238 
L 122.975496 152.399727 
L 125.607544 151.782217 
L 128.239591 151.164706 
L 130.871639 150.547195 
L 133.503687 149.929684 
L 136.135735 149.312173 
L 138.767782 148.694662 
L 141.39983 148.077151 
L 144.031878 147.45964 
L 146.663926 146.842129 
L 149.295973 146.224618 
L 151.928021 145.607107 
L 154.560069 144.989596 
L 157.192117 144.372085 
L 159.824164 143.754574 
L 162.456212 143.137063 
L 165.08826 142.519552 
L 167.720308 141.902041 
L 170.352355 141.28453 
L 172.984403 140.667019 
L 175.616451 140.049508 
L 178.248499 139.431997 
L 180.880546 138.814486 
L 183.512594 138.196975 
L 186.144642 137.579464 
L 188.77669 136.961953 
L 191.408737 136.344442 
L 194.040785 135.726931 
L 196.672833 135.10942 
L 199.304881 134.491909 
L 201.936928 133.874398 
L 204.568976 133.256887 
L 207.201024 132.639376 
L 209.833072 132.021865 
L 212.465119 131.404354 
L 215.097167 130.786843 
L 217.729215 130.169332 
L 220.361263 129.551821 
L 222.99331 128.93431 
L 225.625358 128.316799 
L 228.257406 127.699288 
L 230.889454 127.081777 
L 233.521501 126.464266 
L 236.153549 125.846755 
L 238.785597 125.229244 
L 241.417645 124.611733 
L 244.049692 123.994222 
L 246.68174 123.376712 
L 249.313788 122.759201 
L 251.945836 122.14169 
L 254.577883 121.524179 
L 257.209931 120.906668 
L 259.841979 120.289157 
L 262.474027 119.671646 
L 265.106074 119.054135 
L 267.738122 118.436624 
L 270.37017 117.819113 
L 273.002218 117.201602 
L 275.634265 116.584091 
L 278.266313 115.96658 
L 280.898361 115.349069 
L 283.530409 114.731558 
L 286.162456 114.114047 
L 288.794504 113.496536 
L 291.426552 112.879025 
L 294.0586 112.261514 
L 296.690647 111.644003 
L 299.322695 111.026492 
L 301.954743 110.408981 
L 304.586791 109.79147 
L 307.218838 109.173959 
L 309.850886 108.556448 
L 312.482934 107.938937 
L 315.114982 107.321426 
L 317.747029 106.703915 
L 320.379077 106.086404 
L 323.011125 105.468893 
L 325.643173 104.851382 
L 328.27522 104.233871 
L 330.907268 103.61636 
L 333.539316 102.998849 
L 336.171364 102.381338 
" clip-path="url(#pf15c0d303e)" style="fill: none; stroke: #1f77b4; stroke-width: 2.25; stroke-linecap: square"/>
   </g>
   <g id="patch_3">
    <path d="M 62.57 317.93875 
L 62.57 10.8 
" style="fill: none; stroke: #000000; stroke-width: 0.8; stroke-linejoin: miter; stroke-linecap: square"/>
   </g>
   <g id="patch_4">
    <path d="M 62.57 317.93875 
L 349.2 317.93875 
" style="fill: none; stroke: #000000; stroke-width: 0.8; stroke-linejoin: miter; stroke-linecap: square"/>
   </g>
  </g>
 </g>
 <defs>
  <clipPath id="pf15c0d303e">
   <rect x="62.57" y="10.8" width="286.63" height="307.13875"/>
  </clipPath>
 </defs>
</svg>
