<?xml version="1.0" encoding="utf-8" standalone="no"?>
<!DOCTYPE svg PUBLIC "-//W3C//DTD SVG 1.1//EN"
  "http://www.w3.org/Graphics/SVG/1.1/DTD/svg11.dtd">
<svg xmlns:xlink="http://www.w3.org/1999/xlink" width="360pt" height="360pt" viewBox="0 0 360 360" xmlns="http://www.w3.org/2000/svg" version="1.1">
 <metadata>
  <rdf:RDF xmlns:dc="http://purl.org/dc/elements/1.1/" xmlns:cc="http://creativecommons.org/ns#" xmlns:rdf="http://www.w3.org/1999/02/22-rdf-syntax-ns#">
   <cc:Work>
    <dc:type rdf:resource="http://purl.org/dc/dcmitype/StillImage"/>
    <dc:date>2022-11-22T21:32:06.321268</dc:date>
    <dc:format>image/svg+xml</dc:format>
    <dc:creator>
     <cc:Agent>
      <dc:title>Matplotlib v3.5.3, https://matplotlib.org/</dc:title>
     </cc:Agent>
    </dc:creator>
   </cc:Work>
  </rdf:RDF>
 </metadata>
 <defs>
  <style type="text/css">*{stroke-linejoin: round; stroke-linecap: butt}</style>
 </defs>
 <g id="figure_1">
  <g id="patch_1">
   <path d="M 0 360 
L 360 360 
L 360 0 
L 0 0 
z
" style="fill: #ffffff"/>
  </g>
  <g id="axes_1">
   <g id="patch_2">
    <path d="M 62.57 317.93875 
L 349.2 317.93875 
L 349.2 10.8 
L 62.57 10.8 
z
" style="fill: #ffffff"/>
   </g>
   <g id="PathCollection_1">
    <defs>
     <path id="m96f7b69aff" d="M 0 3 
C 0.795609 3 1.55874 2.683901 2.12132 2.12132 
C 2.683901 1.55874 3 0.795609 3 0 
C 3 -0.795609 2.683901 -1.55874 2.12132 -2.12132 
C 1.55874 -2.683901 0.795609 -3 0 -3 
C -0.795609 -3 -1.55874 -2.683901 -2.12132 -2.12132 
C -2.683901 -1.55874 -3 -0.795609 -3 0 
C -3 0.795609 -2.683901 1.55874 -2.12132 2.12132 
C -1.55874 2.683901 -0.795609 3 0 3 
z
" style="stroke: #1f77b4; stroke-opacity: 0.8"/>
    </defs>
    <g clip-path="url(#p9039a204a4)">
     <use xlink:href="#m96f7b69aff" x="220.361263" y="79.43271" style="fill: #1f77b4; fill-opacity: 0.8; stroke: #1f77b4; stroke-opacity: 0.8"/>
     <use xlink:href="#m96f7b69aff" x="220.361263" y="24.760852" style="fill: #1f77b4; fill-opacity: 0.8; stroke: #1f77b4; stroke-opacity: 0.8"/>
     <use xlink:href="#m96f7b69aff" x="278.266313" y="200.991074" style="fill: #1f77b4; fill-opacity: 0.8; stroke: #1f77b4; stroke-opacity: 0.8"/>
     <use xlink:href="#m96f7b69aff" x="191.408737" y="259.036761" style="fill: #1f77b4; fill-opacity: 0.8; stroke: #1f77b4; stroke-opacity: 0.8"/>
     <use xlink:href="#m96f7b69aff" x="249.313788" y="236.880254" style="fill: #1f77b4; fill-opacity: 0.8; stroke: #1f77b4; stroke-opacity: 0.8"/>
     <use xlink:href="#m96f7b69aff" x="162.456212" y="91.800916" style="fill: #1f77b4; fill-opacity: 0.8; stroke: #1f77b4; stroke-opacity: 0.8"/>
     <use xlink:href="#m96f7b69aff" x="278.266313" y="141.128109" style="fill: #1f77b4; fill-opacity: 0.8; stroke: #1f77b4; stroke-opacity: 0.8"/>
     <use xlink:href="#m96f7b69aff" x="75.598636" y="145.972037" style="fill: #1f77b4; fill-opacity: 0.8; stroke: #1f77b4; stroke-opacity: 0.8"/>
     <use xlink:href="#m96f7b69aff" x="336.171364" y="178.38334" style="fill: #1f77b4; fill-opacity: 0.8; stroke: #1f77b4; stroke-opacity: 0.8"/>
     <use xlink:href="#m96f7b69aff" x="104.551162" y="81.081062" style="fill: #1f77b4; fill-opacity: 0.8; stroke: #1f77b4; stroke-opacity: 0.8"/>
     <use xlink:href="#m96f7b69aff" x="307.218838" y="109.705437" style="fill: #1f77b4; fill-opacity: 0.8; stroke: #1f77b4; stroke-opacity: 0.8"/>
     <use xlink:href="#m96f7b69aff" x="278.266313" y="178.867074" style="fill: #1f77b4; fill-opacity: 0.8; stroke: #1f77b4; stroke-opacity: 0.8"/>
     <use xlink:href="#m96f7b69aff" x="162.456212" y="156.370084" style="fill: #1f77b4; fill-opacity: 0.8; stroke: #1f77b4; stroke-opacity: 0.8"/>
     <use xlink:href="#m96f7b69aff" x="278.266313" y="145.8504" style="fill: #1f77b4; fill-opacity: 0.8; stroke: #1f77b4; stroke-opacity: 0.8"/>
     <use xlink:href="#m96f7b69aff" x="133.503687" y="238.646108" style="fill: #1f77b4; fill-opacity: 0.8; stroke: #1f77b4; stroke-opacity: 0.8"/>
     <use xlink:href="#m96f7b69aff" x="336.171364" y="165.512388" style="fill: #1f77b4; fill-opacity: 0.8; stroke: #1f77b4; stroke-opacity: 0.8"/>
     <use xlink:href="#m96f7b69aff" x="104.551162" y="277.840199" style="fill: #1f77b4; fill-opacity: 0.8; stroke: #1f77b4; stroke-opacity: 0.8"/>
     <use xlink:href="#m96f7b69aff" x="307.218838" y="214.759819" style="fill: #1f77b4; fill-opacity: 0.8; stroke: #1f77b4; stroke-opacity: 0.8"/>
     <use xlink:href="#m96f7b69aff" x="278.266313" y="164.39611" style="fill: #1f77b4; fill-opacity: 0.8; stroke: #1f77b4; stroke-opacity: 0.8"/>
     <use xlink:href="#m96f7b69aff" x="249.313788" y="183.058814" style="fill: #1f77b4; fill-opacity: 0.8; stroke: #1f77b4; stroke-opacity: 0.8"/>
     <use xlink:href="#m96f7b69aff" x="162.456212" y="226.521314" style="fill: #1f77b4; fill-opacity: 0.8; stroke: #1f77b4; stroke-opacity: 0.8"/>
     <use xlink:href="#m96f7b69aff" x="133.503687" y="236.707825" style="fill: #1f77b4; fill-opacity: 0.8; stroke: #1f77b4; stroke-opacity: 0.8"/>
     <use xlink:href="#m96f7b69aff" x="336.171364" y="79.66248" style="fill: #1f77b4; fill-opacity: 0.8; stroke: #1f77b4; stroke-opacity: 0.8"/>
     <use xlink:href="#m96f7b69aff" x="191.408737" y="176.134145" style="fill: #1f77b4; fill-opacity: 0.8; stroke: #1f77b4; stroke-opacity: 0.8"/>
     <use xlink:href="#m96f7b69aff" x="133.503687" y="176.013766" style="fill: #1f77b4; fill-opacity: 0.8; stroke: #1f77b4; stroke-opacity: 0.8"/>
     <use xlink:href="#m96f7b69aff" x="75.598636" y="182.33668" style="fill: #1f77b4; fill-opacity: 0.8; stroke: #1f77b4; stroke-opacity: 0.8"/>
     <use xlink:href="#m96f7b69aff" x="133.503687" y="179.279701" style="fill: #1f77b4; fill-opacity: 0.8; stroke: #1f77b4; stroke-opacity: 0.8"/>
     <use xlink:href="#m96f7b69aff" x="336.171364" y="201.567256" style="fill: #1f77b4; fill-opacity: 0.8; stroke: #1f77b4; stroke-opacity: 0.8"/>
     <use xlink:href="#m96f7b69aff" x="220.361263" y="106.081847" style="fill: #1f77b4; fill-opacity: 0.8; stroke: #1f77b4; stroke-opacity: 0.8"/>
     <use xlink:href="#m96f7b69aff" x="249.313788" y="141.820381" style="fill: #1f77b4; fill-opacity: 0.8; stroke: #1f77b4; stroke-opacity: 0.8"/>
     <use xlink:href="#m96f7b69aff" x="336.171364" y="252.033311" style="fill: #1f77b4; fill-opacity: 0.8; stroke: #1f77b4; stroke-opacity: 0.8"/>
     <use xlink:href="#m96f7b69aff" x="162.456212" y="303.977898" style="fill: #1f77b4; fill-opacity: 0.8; stroke: #1f77b4; stroke-opacity: 0.8"/>
     <use xlink:href="#m96f7b69aff" x="220.361263" y="142.296024" style="fill: #1f77b4; fill-opacity: 0.8; stroke: #1f77b4; stroke-opacity: 0.8"/>
     <use xlink:href="#m96f7b69aff" x="104.551162" y="186.867301" style="fill: #1f77b4; fill-opacity: 0.8; stroke: #1f77b4; stroke-opacity: 0.8"/>
     <use xlink:href="#m96f7b69aff" x="133.503687" y="44.618435" style="fill: #1f77b4; fill-opacity: 0.8; stroke: #1f77b4; stroke-opacity: 0.8"/>
     <use xlink:href="#m96f7b69aff" x="75.598636" y="138.104472" style="fill: #1f77b4; fill-opacity: 0.8; stroke: #1f77b4; stroke-opacity: 0.8"/>
     <use xlink:href="#m96f7b69aff" x="307.218838" y="199.664258" style="fill: #1f77b4; fill-opacity: 0.8; stroke: #1f77b4; stroke-opacity: 0.8"/>
     <use xlink:href="#m96f7b69aff" x="75.598636" y="224.498561" style="fill: #1f77b4; fill-opacity: 0.8; stroke: #1f77b4; stroke-opacity: 0.8"/>
     <use xlink:href="#m96f7b69aff" x="104.551162" y="213.862038" style="fill: #1f77b4; fill-opacity: 0.8; stroke: #1f77b4; stroke-opacity: 0.8"/>
     <use xlink:href="#m96f7b69aff" x="191.408737" y="97.305657" style="fill: #1f77b4; fill-opacity: 0.8; stroke: #1f77b4; stroke-opacity: 0.8"/>
     <use xlink:href="#m96f7b69aff" x="307.218838" y="141.573849" style="fill: #1f77b4; fill-opacity: 0.8; stroke: #1f77b4; stroke-opacity: 0.8"/>
     <use xlink:href="#m96f7b69aff" x="249.313788" y="141.280625" style="fill: #1f77b4; fill-opacity: 0.8; stroke: #1f77b4; stroke-opacity: 0.8"/>
     <use xlink:href="#m96f7b69aff" x="104.551162" y="287.892224" style="fill: #1f77b4; fill-opacity: 0.8; stroke: #1f77b4; stroke-opacity: 0.8"/>
     <use xlink:href="#m96f7b69aff" x="162.456212" y="221.038436" style="fill: #1f77b4; fill-opacity: 0.8; stroke: #1f77b4; stroke-opacity: 0.8"/>
     <use xlink:href="#m96f7b69aff" x="104.551162" y="181.572491" style="fill: #1f77b4; fill-opacity: 0.8; stroke: #1f77b4; stroke-opacity: 0.8"/>
     <use xlink:href="#m96f7b69aff" x="220.361263" y="176.512593" style="fill: #1f77b4; fill-opacity: 0.8; stroke: #1f77b4; stroke-opacity: 0.8"/>
     <use xlink:href="#m96f7b69aff" x="249.313788" y="156.237253" style="fill: #1f77b4; fill-opacity: 0.8; stroke: #1f77b4; stroke-opacity: 0.8"/>
    </g>
   </g>
   <g id="PolyCollection_1">
    <path d="M 75.598636 151.944031 
L 75.598636 217.43779 
L 78.230684 216.890127 
L 80.862732 216.342464 
L 83.49478 215.748955 
L 86.126827 215.144131 
L 88.758875 214.547267 
L 91.390923 213.947241 
L 94.022971 213.347215 
L 96.655018 212.746103 
L 99.287066 212.133619 
L 101.919114 211.393186 
L 104.551162 210.65152 
L 107.183209 209.994221 
L 109.815257 209.430542 
L 112.447305 208.854109 
L 115.079353 208.26999 
L 117.7114 207.514183 
L 120.343448 206.795321 
L 122.975496 206.232534 
L 125.607544 205.813184 
L 128.239591 205.351928 
L 130.871639 204.611977 
L 133.503687 203.921637 
L 136.135735 203.28096 
L 138.767782 202.494445 
L 141.39983 201.842354 
L 144.031878 201.159352 
L 146.663926 200.58083 
L 149.295973 199.749128 
L 151.928021 199.151315 
L 154.560069 198.629489 
L 157.192117 198.096054 
L 159.824164 197.594647 
L 162.456212 196.96736 
L 165.08826 196.498463 
L 167.720308 196.029071 
L 170.352355 195.476173 
L 172.984403 195.000758 
L 175.616451 194.519794 
L 178.248499 194.004923 
L 180.880546 193.491612 
L 183.512594 192.980431 
L 186.144642 192.643701 
L 188.77669 192.256408 
L 191.408737 191.703331 
L 194.040785 191.225632 
L 196.672833 190.890467 
L 199.304881 190.428204 
L 201.936928 189.95129 
L 204.568976 189.480699 
L 207.201024 189.013309 
L 209.833072 188.650235 
L 212.465119 188.294956 
L 215.097167 187.876452 
L 217.729215 187.470805 
L 220.361263 187.158328 
L 222.99331 186.653148 
L 225.625358 186.268775 
L 228.257406 185.977708 
L 230.889454 186.031784 
L 233.521501 185.767369 
L 236.153549 185.254167 
L 238.785597 184.827795 
L 241.417645 184.550481 
L 244.049692 184.089027 
L 246.68174 183.827024 
L 249.313788 183.718539 
L 251.945836 183.578893 
L 254.577883 183.372768 
L 257.209931 183.197705 
L 259.841979 183.054704 
L 262.474027 182.830347 
L 265.106074 182.40167 
L 267.738122 182.223985 
L 270.37017 182.353758 
L 273.002218 182.067264 
L 275.634265 182.140848 
L 278.266313 181.754591 
L 280.898361 181.767969 
L 283.530409 181.802809 
L 286.162456 181.66968 
L 288.794504 181.963044 
L 291.426552 182.088524 
L 294.0586 182.323178 
L 296.690647 182.217693 
L 299.322695 182.108957 
L 301.954743 181.941849 
L 304.586791 182.102805 
L 307.218838 182.334295 
L 309.850886 182.550371 
L 312.482934 182.621356 
L 315.114982 182.690754 
L 317.747029 182.746915 
L 320.379077 182.537658 
L 323.011125 182.629301 
L 325.643173 182.555209 
L 328.27522 182.629639 
L 330.907268 182.697302 
L 333.539316 182.674054 
L 336.171364 182.755932 
L 336.171364 133.422224 
L 336.171364 133.422224 
L 333.539316 134.186872 
L 330.907268 134.764556 
L 328.27522 135.315055 
L 325.643173 135.801586 
L 323.011125 136.410594 
L 320.379077 136.958196 
L 317.747029 137.636766 
L 315.114982 138.422985 
L 312.482934 139.181045 
L 309.850886 139.332783 
L 307.218838 139.682143 
L 304.586791 140.229606 
L 301.954743 140.794285 
L 299.322695 141.472974 
L 296.690647 142.012491 
L 294.0586 142.42465 
L 291.426552 142.955819 
L 288.794504 143.49878 
L 286.162456 144.168491 
L 283.530409 144.695511 
L 280.898361 145.172595 
L 278.266313 145.908508 
L 275.634265 146.385423 
L 273.002218 147.019737 
L 270.37017 147.654051 
L 267.738122 148.074027 
L 265.106074 148.596148 
L 262.474027 149.056438 
L 259.841979 149.308734 
L 257.209931 149.650175 
L 254.577883 149.816484 
L 251.945836 150.104639 
L 249.313788 150.646594 
L 246.68174 151.212648 
L 244.049692 151.607575 
L 241.417645 151.717992 
L 238.785597 151.870489 
L 236.153549 152.268366 
L 233.521501 152.47022 
L 230.889454 152.831943 
L 228.257406 153.43759 
L 225.625358 153.675023 
L 222.99331 153.899343 
L 220.361263 154.103094 
L 217.729215 154.310336 
L 215.097167 154.252381 
L 212.465119 154.179825 
L 209.833072 154.481535 
L 207.201024 154.38856 
L 204.568976 154.385763 
L 201.936928 154.781038 
L 199.304881 154.949298 
L 196.672833 155.07003 
L 194.040785 155.190763 
L 191.408737 155.311495 
L 188.77669 155.517498 
L 186.144642 155.485866 
L 183.512594 155.427929 
L 180.880546 155.565761 
L 178.248499 155.722425 
L 175.616451 155.598262 
L 172.984403 155.476621 
L 170.352355 155.454954 
L 167.720308 155.404299 
L 165.08826 155.340563 
L 162.456212 155.192338 
L 159.824164 155.267842 
L 157.192117 155.372868 
L 154.560069 154.998319 
L 151.928021 154.932591 
L 149.295973 154.943185 
L 146.663926 154.855392 
L 144.031878 154.880526 
L 141.39983 154.905659 
L 138.767782 154.848619 
L 136.135735 154.530309 
L 133.503687 154.208277 
L 130.871639 153.898788 
L 128.239591 153.938686 
L 125.607544 153.978585 
L 122.975496 154.021907 
L 120.343448 154.066601 
L 117.7114 154.111296 
L 115.079353 154.000195 
L 112.447305 153.850683 
L 109.815257 153.70117 
L 107.183209 153.551658 
L 104.551162 153.402145 
L 101.919114 153.255526 
L 99.287066 153.109026 
L 96.655018 152.962525 
L 94.022971 152.816024 
L 91.390923 152.669523 
L 88.758875 152.523022 
L 86.126827 152.376521 
L 83.49478 152.23002 
L 80.862732 152.137636 
L 78.230684 152.128212 
L 75.598636 151.944031 
z
" clip-path="url(#p9039a204a4)" style="fill: #1f77b4; fill-opacity: 0.15"/>
   </g>
   <g id="matplotlib.axis_1">
    <g id="xtick_1">
     <g id="line2d_1">
      <defs>
       <path id="me969031282" d="M 0 0 
L 0 3.5 
" style="stroke: #000000; stroke-width: 0.8"/>
      </defs>
      <g>
       <use xlink:href="#me969031282" x="90.961201" y="317.93875" style="stroke: #000000; stroke-width: 0.8"/>
      </g>
     </g>
     <g id="text_1">
      <text style="font: 10px 'sans-serif'; text-anchor: middle" x="90.961201" y="332.537188" transform="rotate(-0, 90.961201, 332.537188)">−4</text>
     </g>
    </g>
    <g id="xtick_2">
     <g id="line2d_2">
      <g>
       <use xlink:href="#me969031282" x="148.866251" y="317.93875" style="stroke: #000000; stroke-width: 0.8"/>
      </g>
     </g>
     <g id="text_2">
      <text style="font: 10px 'sans-serif'; text-anchor: middle" x="148.866251" y="332.537188" transform="rotate(-0, 148.866251, 332.537188)">−2</text>
     </g>
    </g>
    <g id="xtick_3">
     <g id="line2d_3">
      <g>
       <use xlink:href="#me969031282" x="206.771302" y="317.93875" style="stroke: #000000; stroke-width: 0.8"/>
      </g>
     </g>
     <g id="text_3">
      <text style="font: 10px 'sans-serif'; text-anchor: middle" x="206.771302" y="332.537188" transform="rotate(-0, 206.771302, 332.537188)">0</text>
     </g>
    </g>
    <g id="xtick_4">
     <g id="line2d_4">
      <g>
       <use xlink:href="#me969031282" x="264.676352" y="317.93875" style="stroke: #000000; stroke-width: 0.8"/>
      </g>
     </g>
     <g id="text_4">
      <text style="font: 10px 'sans-serif'; text-anchor: middle" x="264.676352" y="332.537188" transform="rotate(-0, 264.676352, 332.537188)">2</text>
     </g>
    </g>
    <g id="xtick_5">
     <g id="line2d_5">
      <g>
       <use xlink:href="#me969031282" x="322.581403" y="317.93875" style="stroke: #000000; stroke-width: 0.8"/>
      </g>
     </g>
     <g id="text_5">
      <text style="font: 10px 'sans-serif'; text-anchor: middle" x="322.581403" y="332.537188" transform="rotate(-0, 322.581403, 332.537188)">4</text>
     </g>
    </g>
    <g id="text_6">
     <text style="font: 10px 'sans-serif'; text-anchor: middle" x="205.885" y="346.215312" transform="rotate(-0, 205.885, 346.215312)">Composite_Reward</text>
    </g>
   </g>
   <g id="matplotlib.axis_2">
    <g id="ytick_1">
     <g id="line2d_6">
      <defs>
       <path id="md598a965e4" d="M 0 0 
L -3.5 0 
" style="stroke: #000000; stroke-width: 0.8"/>
      </defs>
      <g>
       <use xlink:href="#md598a965e4" x="62.57" y="293.669789" style="stroke: #000000; stroke-width: 0.8"/>
      </g>
     </g>
     <g id="text_7">
      <text style="font: 10px 'sans-serif'; text-anchor: end" x="55.57" y="297.469008" transform="rotate(-0, 55.57, 297.469008)">−0.75</text>
     </g>
    </g>
    <g id="ytick_2">
     <g id="line2d_7">
      <g>
       <use xlink:href="#md598a965e4" x="62.57" y="257.268529" style="stroke: #000000; stroke-width: 0.8"/>
      </g>
     </g>
     <g id="text_8">
      <text style="font: 10px 'sans-serif'; text-anchor: end" x="55.57" y="261.067748" transform="rotate(-0, 55.57, 261.067748)">−0.50</text>
     </g>
    </g>
    <g id="ytick_3">
     <g id="line2d_8">
      <g>
       <use xlink:href="#md598a965e4" x="62.57" y="220.867269" style="stroke: #000000; stroke-width: 0.8"/>
      </g>
     </g>
     <g id="text_9">
      <text style="font: 10px 'sans-serif'; text-anchor: end" x="55.57" y="224.666488" transform="rotate(-0, 55.57, 224.666488)">−0.25</text>
     </g>
    </g>
    <g id="ytick_4">
     <g id="line2d_9">
      <g>
       <use xlink:href="#md598a965e4" x="62.57" y="184.466009" style="stroke: #000000; stroke-width: 0.8"/>
      </g>
     </g>
     <g id="text_10">
      <text style="font: 10px 'sans-serif'; text-anchor: end" x="55.57" y="188.265228" transform="rotate(-0, 55.57, 188.265228)">0.00</text>
     </g>
    </g>
    <g id="ytick_5">
     <g id="line2d_10">
      <g>
       <use xlink:href="#md598a965e4" x="62.57" y="148.06475" style="stroke: #000000; stroke-width: 0.8"/>
      </g>
     </g>
     <g id="text_11">
      <text style="font: 10px 'sans-serif'; text-anchor: end" x="55.57" y="151.863968" transform="rotate(-0, 55.57, 151.863968)">0.25</text>
     </g>
    </g>
    <g id="ytick_6">
     <g id="line2d_11">
      <g>
       <use xlink:href="#md598a965e4" x="62.57" y="111.66349" style="stroke: #000000; stroke-width: 0.8"/>
      </g>
     </g>
     <g id="text_12">
      <text style="font: 10px 'sans-serif'; text-anchor: end" x="55.57" y="115.462709" transform="rotate(-0, 55.57, 115.462709)">0.50</text>
     </g>
    </g>
    <g id="ytick_7">
     <g id="line2d_12">
      <g>
       <use xlink:href="#md598a965e4" x="62.57" y="75.26223" style="stroke: #000000; stroke-width: 0.8"/>
      </g>
     </g>
     <g id="text_13">
      <text style="font: 10px 'sans-serif'; text-anchor: end" x="55.57" y="79.061449" transform="rotate(-0, 55.57, 79.061449)">0.75</text>
     </g>
    </g>
    <g id="ytick_8">
     <g id="line2d_13">
      <g>
       <use xlink:href="#md598a965e4" x="62.57" y="38.86097" style="stroke: #000000; stroke-width: 0.8"/>
      </g>
     </g>
     <g id="text_14">
      <text style="font: 10px 'sans-serif'; text-anchor: end" x="55.57" y="42.660189" transform="rotate(-0, 55.57, 42.660189)">1.00</text>
     </g>
    </g>
    <g id="text_15">
     <text style="font: 10px 'sans-serif'; text-anchor: middle" x="18.845" y="164.369375" transform="rotate(-90, 18.845, 164.369375)">Conn Loss&gt;Neut</text>
    </g>
   </g>
   <g id="line2d_14">
    <path d="M 75.598636 185.792424 
L 78.230684 185.514368 
L 80.862732 185.236312 
L 83.49478 184.958256 
L 86.126827 184.680199 
L 88.758875 184.402143 
L 91.390923 184.124087 
L 94.022971 183.846031 
L 96.655018 183.567975 
L 99.287066 183.289919 
L 101.919114 183.011863 
L 104.551162 182.733807 
L 107.183209 182.455751 
L 109.815257 182.177695 
L 112.447305 181.899639 
L 115.079353 181.621583 
L 117.7114 181.343526 
L 120.343448 181.06547 
L 122.975496 180.787414 
L 125.607544 180.509358 
L 128.239591 180.231302 
L 130.871639 179.953246 
L 133.503687 179.67519 
L 136.135735 179.397134 
L 138.767782 179.119078 
L 141.39983 178.841022 
L 144.031878 178.562966 
L 146.663926 178.28491 
L 149.295973 178.006854 
L 151.928021 177.728797 
L 154.560069 177.450741 
L 157.192117 177.172685 
L 159.824164 176.894629 
L 162.456212 176.616573 
L 165.08826 176.338517 
L 167.720308 176.060461 
L 170.352355 175.782405 
L 172.984403 175.504349 
L 175.616451 175.226293 
L 178.248499 174.948237 
L 180.880546 174.670181 
L 183.512594 174.392124 
L 186.144642 174.114068 
L 188.77669 173.836012 
L 191.408737 173.557956 
L 194.040785 173.2799 
L 196.672833 173.001844 
L 199.304881 172.723788 
L 201.936928 172.445732 
L 204.568976 172.167676 
L 207.201024 171.88962 
L 209.833072 171.611564 
L 212.465119 171.333508 
L 215.097167 171.055451 
L 217.729215 170.777395 
L 220.361263 170.499339 
L 222.99331 170.221283 
L 225.625358 169.943227 
L 228.257406 169.665171 
L 230.889454 169.387115 
L 233.521501 169.109059 
L 236.153549 168.831003 
L 238.785597 168.552947 
L 241.417645 168.274891 
L 244.049692 167.996835 
L 246.68174 167.718778 
L 249.313788 167.440722 
L 251.945836 167.162666 
L 254.577883 166.88461 
L 257.209931 166.606554 
L 259.841979 166.328498 
L 262.474027 166.050442 
L 265.106074 165.772386 
L 267.738122 165.49433 
L 270.37017 165.216274 
L 273.002218 164.938218 
L 275.634265 164.660162 
L 278.266313 164.382105 
L 280.898361 164.104049 
L 283.530409 163.825993 
L 286.162456 163.547937 
L 288.794504 163.269881 
L 291.426552 162.991825 
L 294.0586 162.713769 
L 296.690647 162.435713 
L 299.322695 162.157657 
L 301.954743 161.879601 
L 304.586791 161.601545 
L 307.218838 161.323489 
L 309.850886 161.045432 
L 312.482934 160.767376 
L 315.114982 160.48932 
L 317.747029 160.211264 
L 320.379077 159.933208 
L 323.011125 159.655152 
L 325.643173 159.377096 
L 328.27522 159.09904 
L 330.907268 158.820984 
L 333.539316 158.542928 
L 336.171364 158.264872 
" clip-path="url(#p9039a204a4)" style="fill: none; stroke: #1f77b4; stroke-width: 2.25; stroke-linecap: square"/>
   </g>
   <g id="patch_3">
    <path d="M 62.57 317.93875 
L 62.57 10.8 
" style="fill: none; stroke: #000000; stroke-width: 0.8; stroke-linejoin: miter; stroke-linecap: square"/>
   </g>
   <g id="patch_4">
    <path d="M 62.57 317.93875 
L 349.2 317.93875 
" style="fill: none; stroke: #000000; stroke-width: 0.8; stroke-linejoin: miter; stroke-linecap: square"/>
   </g>
  </g>
 </g>
 <defs>
  <clipPath id="p9039a204a4">
   <rect x="62.57" y="10.8" width="286.63" height="307.13875"/>
  </clipPath>
 </defs>
</svg>
