<?xml version="1.0" encoding="utf-8" standalone="no"?>
<!DOCTYPE svg PUBLIC "-//W3C//DTD SVG 1.1//EN"
  "http://www.w3.org/Graphics/SVG/1.1/DTD/svg11.dtd">
<svg xmlns:xlink="http://www.w3.org/1999/xlink" width="360pt" height="360pt" viewBox="0 0 360 360" xmlns="http://www.w3.org/2000/svg" version="1.1">
 <metadata>
  <rdf:RDF xmlns:dc="http://purl.org/dc/elements/1.1/" xmlns:cc="http://creativecommons.org/ns#" xmlns:rdf="http://www.w3.org/1999/02/22-rdf-syntax-ns#">
   <cc:Work>
    <dc:type rdf:resource="http://purl.org/dc/dcmitype/StillImage"/>
    <dc:date>2022-11-22T21:38:33.982728</dc:date>
    <dc:format>image/svg+xml</dc:format>
    <dc:creator>
     <cc:Agent>
      <dc:title>Matplotlib v3.5.3, https://matplotlib.org/</dc:title>
     </cc:Agent>
    </dc:creator>
   </cc:Work>
  </rdf:RDF>
 </metadata>
 <defs>
  <style type="text/css">*{stroke-linejoin: round; stroke-linecap: butt}</style>
 </defs>
 <g id="figure_1">
  <g id="patch_1">
   <path d="M 0 360 
L 360 360 
L 360 0 
L 0 0 
z
" style="fill: #ffffff"/>
  </g>
  <g id="axes_1">
   <g id="patch_2">
    <path d="M 62.57 317.93875 
L 349.2 317.93875 
L 349.2 10.8 
L 62.57 10.8 
z
" style="fill: #ffffff"/>
   </g>
   <g id="PathCollection_1">
    <defs>
     <path id="me24aabb6ef" d="M 0 3 
C 0.795609 3 1.55874 2.683901 2.12132 2.12132 
C 2.683901 1.55874 3 0.795609 3 0 
C 3 -0.795609 2.683901 -1.55874 2.12132 -2.12132 
C 1.55874 -2.683901 0.795609 -3 0 -3 
C -0.795609 -3 -1.55874 -2.683901 -2.12132 -2.12132 
C -2.683901 -1.55874 -3 -0.795609 -3 0 
C -3 0.795609 -2.683901 1.55874 -2.12132 2.12132 
C -1.55874 2.683901 -0.795609 3 0 3 
z
" style="stroke: #1f77b4; stroke-opacity: 0.8"/>
    </defs>
    <g clip-path="url(#p1aecedddc5)">
     <use xlink:href="#me24aabb6ef" x="220.361263" y="182.170521" style="fill: #1f77b4; fill-opacity: 0.8; stroke: #1f77b4; stroke-opacity: 0.8"/>
     <use xlink:href="#me24aabb6ef" x="220.361263" y="192.166264" style="fill: #1f77b4; fill-opacity: 0.8; stroke: #1f77b4; stroke-opacity: 0.8"/>
     <use xlink:href="#me24aabb6ef" x="278.266313" y="220.062574" style="fill: #1f77b4; fill-opacity: 0.8; stroke: #1f77b4; stroke-opacity: 0.8"/>
     <use xlink:href="#me24aabb6ef" x="191.408737" y="135.73232" style="fill: #1f77b4; fill-opacity: 0.8; stroke: #1f77b4; stroke-opacity: 0.8"/>
     <use xlink:href="#me24aabb6ef" x="249.313788" y="265.028819" style="fill: #1f77b4; fill-opacity: 0.8; stroke: #1f77b4; stroke-opacity: 0.8"/>
     <use xlink:href="#me24aabb6ef" x="162.456212" y="193.919873" style="fill: #1f77b4; fill-opacity: 0.8; stroke: #1f77b4; stroke-opacity: 0.8"/>
     <use xlink:href="#me24aabb6ef" x="278.266313" y="168.332983" style="fill: #1f77b4; fill-opacity: 0.8; stroke: #1f77b4; stroke-opacity: 0.8"/>
     <use xlink:href="#me24aabb6ef" x="75.598636" y="173.797738" style="fill: #1f77b4; fill-opacity: 0.8; stroke: #1f77b4; stroke-opacity: 0.8"/>
     <use xlink:href="#me24aabb6ef" x="336.171364" y="176.578171" style="fill: #1f77b4; fill-opacity: 0.8; stroke: #1f77b4; stroke-opacity: 0.8"/>
     <use xlink:href="#me24aabb6ef" x="104.551162" y="200.49088" style="fill: #1f77b4; fill-opacity: 0.8; stroke: #1f77b4; stroke-opacity: 0.8"/>
     <use xlink:href="#me24aabb6ef" x="307.218838" y="214.180088" style="fill: #1f77b4; fill-opacity: 0.8; stroke: #1f77b4; stroke-opacity: 0.8"/>
     <use xlink:href="#me24aabb6ef" x="278.266313" y="240.511019" style="fill: #1f77b4; fill-opacity: 0.8; stroke: #1f77b4; stroke-opacity: 0.8"/>
     <use xlink:href="#me24aabb6ef" x="162.456212" y="209.906952" style="fill: #1f77b4; fill-opacity: 0.8; stroke: #1f77b4; stroke-opacity: 0.8"/>
     <use xlink:href="#me24aabb6ef" x="278.266313" y="24.760852" style="fill: #1f77b4; fill-opacity: 0.8; stroke: #1f77b4; stroke-opacity: 0.8"/>
     <use xlink:href="#me24aabb6ef" x="133.503687" y="198.659827" style="fill: #1f77b4; fill-opacity: 0.8; stroke: #1f77b4; stroke-opacity: 0.8"/>
     <use xlink:href="#me24aabb6ef" x="336.171364" y="247.622288" style="fill: #1f77b4; fill-opacity: 0.8; stroke: #1f77b4; stroke-opacity: 0.8"/>
     <use xlink:href="#me24aabb6ef" x="104.551162" y="186.117192" style="fill: #1f77b4; fill-opacity: 0.8; stroke: #1f77b4; stroke-opacity: 0.8"/>
     <use xlink:href="#me24aabb6ef" x="307.218838" y="200.609527" style="fill: #1f77b4; fill-opacity: 0.8; stroke: #1f77b4; stroke-opacity: 0.8"/>
     <use xlink:href="#me24aabb6ef" x="278.266313" y="177.800335" style="fill: #1f77b4; fill-opacity: 0.8; stroke: #1f77b4; stroke-opacity: 0.8"/>
     <use xlink:href="#me24aabb6ef" x="249.313788" y="183.546427" style="fill: #1f77b4; fill-opacity: 0.8; stroke: #1f77b4; stroke-opacity: 0.8"/>
     <use xlink:href="#me24aabb6ef" x="162.456212" y="198.832675" style="fill: #1f77b4; fill-opacity: 0.8; stroke: #1f77b4; stroke-opacity: 0.8"/>
     <use xlink:href="#me24aabb6ef" x="133.503687" y="151.86135" style="fill: #1f77b4; fill-opacity: 0.8; stroke: #1f77b4; stroke-opacity: 0.8"/>
     <use xlink:href="#me24aabb6ef" x="336.171364" y="193.158258" style="fill: #1f77b4; fill-opacity: 0.8; stroke: #1f77b4; stroke-opacity: 0.8"/>
     <use xlink:href="#me24aabb6ef" x="191.408737" y="160.784689" style="fill: #1f77b4; fill-opacity: 0.8; stroke: #1f77b4; stroke-opacity: 0.8"/>
     <use xlink:href="#me24aabb6ef" x="133.503687" y="144.390031" style="fill: #1f77b4; fill-opacity: 0.8; stroke: #1f77b4; stroke-opacity: 0.8"/>
     <use xlink:href="#me24aabb6ef" x="75.598636" y="109.197846" style="fill: #1f77b4; fill-opacity: 0.8; stroke: #1f77b4; stroke-opacity: 0.8"/>
     <use xlink:href="#me24aabb6ef" x="133.503687" y="174.666258" style="fill: #1f77b4; fill-opacity: 0.8; stroke: #1f77b4; stroke-opacity: 0.8"/>
     <use xlink:href="#me24aabb6ef" x="336.171364" y="187.869023" style="fill: #1f77b4; fill-opacity: 0.8; stroke: #1f77b4; stroke-opacity: 0.8"/>
     <use xlink:href="#me24aabb6ef" x="220.361263" y="255.341905" style="fill: #1f77b4; fill-opacity: 0.8; stroke: #1f77b4; stroke-opacity: 0.8"/>
     <use xlink:href="#me24aabb6ef" x="249.313788" y="249.731684" style="fill: #1f77b4; fill-opacity: 0.8; stroke: #1f77b4; stroke-opacity: 0.8"/>
     <use xlink:href="#me24aabb6ef" x="336.171364" y="113.306652" style="fill: #1f77b4; fill-opacity: 0.8; stroke: #1f77b4; stroke-opacity: 0.8"/>
     <use xlink:href="#me24aabb6ef" x="162.456212" y="222.18553" style="fill: #1f77b4; fill-opacity: 0.8; stroke: #1f77b4; stroke-opacity: 0.8"/>
     <use xlink:href="#me24aabb6ef" x="220.361263" y="267.701856" style="fill: #1f77b4; fill-opacity: 0.8; stroke: #1f77b4; stroke-opacity: 0.8"/>
     <use xlink:href="#me24aabb6ef" x="104.551162" y="226.700565" style="fill: #1f77b4; fill-opacity: 0.8; stroke: #1f77b4; stroke-opacity: 0.8"/>
     <use xlink:href="#me24aabb6ef" x="133.503687" y="196.99216" style="fill: #1f77b4; fill-opacity: 0.8; stroke: #1f77b4; stroke-opacity: 0.8"/>
     <use xlink:href="#me24aabb6ef" x="75.598636" y="227.39576" style="fill: #1f77b4; fill-opacity: 0.8; stroke: #1f77b4; stroke-opacity: 0.8"/>
     <use xlink:href="#me24aabb6ef" x="307.218838" y="155.581983" style="fill: #1f77b4; fill-opacity: 0.8; stroke: #1f77b4; stroke-opacity: 0.8"/>
     <use xlink:href="#me24aabb6ef" x="75.598636" y="170.582045" style="fill: #1f77b4; fill-opacity: 0.8; stroke: #1f77b4; stroke-opacity: 0.8"/>
     <use xlink:href="#me24aabb6ef" x="104.551162" y="303.977898" style="fill: #1f77b4; fill-opacity: 0.8; stroke: #1f77b4; stroke-opacity: 0.8"/>
     <use xlink:href="#me24aabb6ef" x="191.408737" y="260.771907" style="fill: #1f77b4; fill-opacity: 0.8; stroke: #1f77b4; stroke-opacity: 0.8"/>
     <use xlink:href="#me24aabb6ef" x="307.218838" y="174.565716" style="fill: #1f77b4; fill-opacity: 0.8; stroke: #1f77b4; stroke-opacity: 0.8"/>
     <use xlink:href="#me24aabb6ef" x="249.313788" y="199.8265" style="fill: #1f77b4; fill-opacity: 0.8; stroke: #1f77b4; stroke-opacity: 0.8"/>
     <use xlink:href="#me24aabb6ef" x="104.551162" y="197.884782" style="fill: #1f77b4; fill-opacity: 0.8; stroke: #1f77b4; stroke-opacity: 0.8"/>
     <use xlink:href="#me24aabb6ef" x="162.456212" y="167.15403" style="fill: #1f77b4; fill-opacity: 0.8; stroke: #1f77b4; stroke-opacity: 0.8"/>
     <use xlink:href="#me24aabb6ef" x="104.551162" y="195.343102" style="fill: #1f77b4; fill-opacity: 0.8; stroke: #1f77b4; stroke-opacity: 0.8"/>
     <use xlink:href="#me24aabb6ef" x="220.361263" y="169.152598" style="fill: #1f77b4; fill-opacity: 0.8; stroke: #1f77b4; stroke-opacity: 0.8"/>
     <use xlink:href="#me24aabb6ef" x="249.313788" y="221.152985" style="fill: #1f77b4; fill-opacity: 0.8; stroke: #1f77b4; stroke-opacity: 0.8"/>
    </g>
   </g>
   <g id="PolyCollection_1">
    <path d="M 75.598636 174.997211 
L 75.598636 220.514347 
L 78.230684 220.022025 
L 80.862732 219.529703 
L 83.49478 219.037084 
L 86.126827 218.543483 
L 88.758875 218.15491 
L 91.390923 217.685636 
L 94.022971 217.356693 
L 96.655018 216.905311 
L 99.287066 216.45393 
L 101.919114 215.997257 
L 104.551162 215.61823 
L 107.183209 215.31355 
L 109.815257 215.011051 
L 112.447305 214.592577 
L 115.079353 214.407906 
L 117.7114 214.113851 
L 120.343448 213.814415 
L 122.975496 213.513775 
L 125.607544 213.210681 
L 128.239591 212.901212 
L 130.871639 212.316638 
L 133.503687 211.732063 
L 136.135735 211.147489 
L 138.767782 210.796567 
L 141.39983 210.473834 
L 144.031878 210.418734 
L 146.663926 210.363635 
L 149.295973 210.187868 
L 151.928021 209.939816 
L 154.560069 209.521003 
L 157.192117 209.439835 
L 159.824164 209.117893 
L 162.456212 208.582922 
L 165.08826 208.700685 
L 167.720308 208.373964 
L 170.352355 208.102243 
L 172.984403 207.798889 
L 175.616451 207.612111 
L 178.248499 207.40754 
L 180.880546 207.142829 
L 183.512594 206.744728 
L 186.144642 206.663803 
L 188.77669 206.665315 
L 191.408737 206.642594 
L 194.040785 206.632489 
L 196.672833 206.741811 
L 199.304881 206.3991 
L 201.936928 206.297048 
L 204.568976 206.243756 
L 207.201024 206.187426 
L 209.833072 206.231937 
L 212.465119 206.465424 
L 215.097167 206.472321 
L 217.729215 206.761043 
L 220.361263 206.722088 
L 222.99331 206.916642 
L 225.625358 206.856492 
L 228.257406 206.920392 
L 230.889454 207.223526 
L 233.521501 207.26042 
L 236.153549 207.519659 
L 238.785597 207.763971 
L 241.417645 207.908434 
L 244.049692 208.228426 
L 246.68174 208.356594 
L 249.313788 208.343917 
L 251.945836 208.327631 
L 254.577883 208.556599 
L 257.209931 208.839873 
L 259.841979 209.089386 
L 262.474027 209.349433 
L 265.106074 209.661476 
L 267.738122 209.95681 
L 270.37017 210.199202 
L 273.002218 210.482458 
L 275.634265 210.765714 
L 278.266313 211.048971 
L 280.898361 211.319509 
L 283.530409 211.481517 
L 286.162456 211.619411 
L 288.794504 211.947334 
L 291.426552 212.153309 
L 294.0586 212.355923 
L 296.690647 212.558536 
L 299.322695 212.761149 
L 301.954743 212.963763 
L 304.586791 213.267401 
L 307.218838 213.685086 
L 309.850886 214.101762 
L 312.482934 214.453765 
L 315.114982 214.714236 
L 317.747029 214.970898 
L 320.379077 215.226218 
L 323.011125 215.624715 
L 325.643173 216.118459 
L 328.27522 216.399079 
L 330.907268 216.639038 
L 333.539316 216.830571 
L 336.171364 216.924862 
L 336.171364 162.440019 
L 336.171364 162.440019 
L 333.539316 162.760097 
L 330.907268 163.140032 
L 328.27522 163.519967 
L 325.643173 163.899902 
L 323.011125 164.279837 
L 320.379077 164.659777 
L 317.747029 165.045647 
L 315.114982 165.431516 
L 312.482934 165.817385 
L 309.850886 166.317925 
L 307.218838 167.080299 
L 304.586791 167.704976 
L 301.954743 168.114719 
L 299.322695 168.470443 
L 296.690647 168.857713 
L 294.0586 169.323131 
L 291.426552 169.740996 
L 288.794504 170.087097 
L 286.162456 170.435995 
L 283.530409 170.80363 
L 280.898361 171.053393 
L 278.266313 171.515764 
L 275.634265 171.892912 
L 273.002218 172.214993 
L 270.37017 172.540417 
L 267.738122 173.166343 
L 265.106074 173.492165 
L 262.474027 173.81524 
L 259.841979 174.032738 
L 257.209931 174.250235 
L 254.577883 174.467733 
L 251.945836 174.759573 
L 249.313788 174.98891 
L 246.68174 175.393624 
L 244.049692 175.754225 
L 241.417645 176.171633 
L 238.785597 176.515543 
L 236.153549 176.895168 
L 233.521501 176.980824 
L 230.889454 177.292691 
L 228.257406 177.60733 
L 225.625358 177.625017 
L 222.99331 177.724739 
L 220.361263 178.076811 
L 217.729215 178.347125 
L 215.097167 178.311862 
L 212.465119 178.501462 
L 209.833072 178.709129 
L 207.201024 178.806945 
L 204.568976 178.867895 
L 201.936928 179.090269 
L 199.304881 179.298718 
L 196.672833 179.425328 
L 194.040785 179.512979 
L 191.408737 179.662712 
L 188.77669 179.826254 
L 186.144642 179.944682 
L 183.512594 180.072693 
L 180.880546 180.479523 
L 178.248499 180.349013 
L 175.616451 180.379018 
L 172.984403 180.592017 
L 170.352355 180.714008 
L 167.720308 180.84076 
L 165.08826 180.863139 
L 162.456212 180.829243 
L 159.824164 180.612026 
L 157.192117 180.596964 
L 154.560069 180.59114 
L 151.928021 180.581267 
L 149.295973 180.544944 
L 146.663926 180.578872 
L 144.031878 180.692557 
L 141.39983 180.596071 
L 138.767782 180.566925 
L 136.135735 180.505986 
L 133.503687 180.413424 
L 130.871639 180.257028 
L 128.239591 180.052405 
L 125.607544 179.847469 
L 122.975496 179.638032 
L 120.343448 179.309878 
L 117.7114 179.012605 
L 115.079353 178.854597 
L 112.447305 178.681171 
L 109.815257 178.411041 
L 107.183209 178.207175 
L 104.551162 177.88898 
L 101.919114 177.488161 
L 99.287066 177.141601 
L 96.655018 176.787818 
L 94.022971 176.448557 
L 91.390923 176.400481 
L 88.758875 176.223341 
L 86.126827 175.976809 
L 83.49478 175.73191 
L 80.862732 175.48701 
L 78.230684 175.242111 
L 75.598636 174.997211 
z
" clip-path="url(#p1aecedddc5)" style="fill: #1f77b4; fill-opacity: 0.15"/>
   </g>
   <g id="matplotlib.axis_1">
    <g id="xtick_1">
     <g id="line2d_1">
      <defs>
       <path id="m0394b86800" d="M 0 0 
L 0 3.5 
" style="stroke: #000000; stroke-width: 0.8"/>
      </defs>
      <g>
       <use xlink:href="#m0394b86800" x="90.961201" y="317.93875" style="stroke: #000000; stroke-width: 0.8"/>
      </g>
     </g>
     <g id="text_1">
      <text style="font: 10px 'sans-serif'; text-anchor: middle" x="90.961201" y="332.537188" transform="rotate(-0, 90.961201, 332.537188)">−4</text>
     </g>
    </g>
    <g id="xtick_2">
     <g id="line2d_2">
      <g>
       <use xlink:href="#m0394b86800" x="148.866251" y="317.93875" style="stroke: #000000; stroke-width: 0.8"/>
      </g>
     </g>
     <g id="text_2">
      <text style="font: 10px 'sans-serif'; text-anchor: middle" x="148.866251" y="332.537188" transform="rotate(-0, 148.866251, 332.537188)">−2</text>
     </g>
    </g>
    <g id="xtick_3">
     <g id="line2d_3">
      <g>
       <use xlink:href="#m0394b86800" x="206.771302" y="317.93875" style="stroke: #000000; stroke-width: 0.8"/>
      </g>
     </g>
     <g id="text_3">
      <text style="font: 10px 'sans-serif'; text-anchor: middle" x="206.771302" y="332.537188" transform="rotate(-0, 206.771302, 332.537188)">0</text>
     </g>
    </g>
    <g id="xtick_4">
     <g id="line2d_4">
      <g>
       <use xlink:href="#m0394b86800" x="264.676352" y="317.93875" style="stroke: #000000; stroke-width: 0.8"/>
      </g>
     </g>
     <g id="text_4">
      <text style="font: 10px 'sans-serif'; text-anchor: middle" x="264.676352" y="332.537188" transform="rotate(-0, 264.676352, 332.537188)">2</text>
     </g>
    </g>
    <g id="xtick_5">
     <g id="line2d_5">
      <g>
       <use xlink:href="#m0394b86800" x="322.581403" y="317.93875" style="stroke: #000000; stroke-width: 0.8"/>
      </g>
     </g>
     <g id="text_5">
      <text style="font: 10px 'sans-serif'; text-anchor: middle" x="322.581403" y="332.537188" transform="rotate(-0, 322.581403, 332.537188)">4</text>
     </g>
    </g>
    <g id="text_6">
     <text style="font: 10px 'sans-serif'; text-anchor: middle" x="205.885" y="346.215312" transform="rotate(-0, 205.885, 346.215312)">Composite_Reward</text>
    </g>
   </g>
   <g id="matplotlib.axis_2">
    <g id="ytick_1">
     <g id="line2d_6">
      <defs>
       <path id="mf2c4a94c3b" d="M 0 0 
L -3.5 0 
" style="stroke: #000000; stroke-width: 0.8"/>
      </defs>
      <g>
       <use xlink:href="#mf2c4a94c3b" x="62.57" y="303.137322" style="stroke: #000000; stroke-width: 0.8"/>
      </g>
     </g>
     <g id="text_7">
      <text style="font: 10px 'sans-serif'; text-anchor: end" x="55.57" y="306.936541" transform="rotate(-0, 55.57, 306.936541)">−0.75</text>
     </g>
    </g>
    <g id="ytick_2">
     <g id="line2d_7">
      <g>
       <use xlink:href="#mf2c4a94c3b" x="62.57" y="264.197712" style="stroke: #000000; stroke-width: 0.8"/>
      </g>
     </g>
     <g id="text_8">
      <text style="font: 10px 'sans-serif'; text-anchor: end" x="55.57" y="267.996931" transform="rotate(-0, 55.57, 267.996931)">−0.50</text>
     </g>
    </g>
    <g id="ytick_3">
     <g id="line2d_8">
      <g>
       <use xlink:href="#mf2c4a94c3b" x="62.57" y="225.258103" style="stroke: #000000; stroke-width: 0.8"/>
      </g>
     </g>
     <g id="text_9">
      <text style="font: 10px 'sans-serif'; text-anchor: end" x="55.57" y="229.057322" transform="rotate(-0, 55.57, 229.057322)">−0.25</text>
     </g>
    </g>
    <g id="ytick_4">
     <g id="line2d_9">
      <g>
       <use xlink:href="#mf2c4a94c3b" x="62.57" y="186.318494" style="stroke: #000000; stroke-width: 0.8"/>
      </g>
     </g>
     <g id="text_10">
      <text style="font: 10px 'sans-serif'; text-anchor: end" x="55.57" y="190.117713" transform="rotate(-0, 55.57, 190.117713)">0.00</text>
     </g>
    </g>
    <g id="ytick_5">
     <g id="line2d_10">
      <g>
       <use xlink:href="#mf2c4a94c3b" x="62.57" y="147.378885" style="stroke: #000000; stroke-width: 0.8"/>
      </g>
     </g>
     <g id="text_11">
      <text style="font: 10px 'sans-serif'; text-anchor: end" x="55.57" y="151.178103" transform="rotate(-0, 55.57, 151.178103)">0.25</text>
     </g>
    </g>
    <g id="ytick_6">
     <g id="line2d_11">
      <g>
       <use xlink:href="#mf2c4a94c3b" x="62.57" y="108.439275" style="stroke: #000000; stroke-width: 0.8"/>
      </g>
     </g>
     <g id="text_12">
      <text style="font: 10px 'sans-serif'; text-anchor: end" x="55.57" y="112.238494" transform="rotate(-0, 55.57, 112.238494)">0.50</text>
     </g>
    </g>
    <g id="ytick_7">
     <g id="line2d_12">
      <g>
       <use xlink:href="#mf2c4a94c3b" x="62.57" y="69.499666" style="stroke: #000000; stroke-width: 0.8"/>
      </g>
     </g>
     <g id="text_13">
      <text style="font: 10px 'sans-serif'; text-anchor: end" x="55.57" y="73.298885" transform="rotate(-0, 55.57, 73.298885)">0.75</text>
     </g>
    </g>
    <g id="ytick_8">
     <g id="line2d_13">
      <g>
       <use xlink:href="#mf2c4a94c3b" x="62.57" y="30.560057" style="stroke: #000000; stroke-width: 0.8"/>
      </g>
     </g>
     <g id="text_14">
      <text style="font: 10px 'sans-serif'; text-anchor: end" x="55.57" y="34.359276" transform="rotate(-0, 55.57, 34.359276)">1.00</text>
     </g>
    </g>
    <g id="text_15">
     <text style="font: 10px 'sans-serif'; text-anchor: middle" x="18.845" y="164.369375" transform="rotate(-90, 18.845, 164.369375)">Conn LG-SG</text>
    </g>
   </g>
   <g id="line2d_14">
    <path d="M 75.598636 196.359943 
L 78.230684 196.298985 
L 80.862732 196.238027 
L 83.49478 196.177069 
L 86.126827 196.116111 
L 88.758875 196.055153 
L 91.390923 195.994195 
L 94.022971 195.933237 
L 96.655018 195.872279 
L 99.287066 195.811321 
L 101.919114 195.750363 
L 104.551162 195.689405 
L 107.183209 195.628447 
L 109.815257 195.56749 
L 112.447305 195.506532 
L 115.079353 195.445574 
L 117.7114 195.384616 
L 120.343448 195.323658 
L 122.975496 195.2627 
L 125.607544 195.201742 
L 128.239591 195.140784 
L 130.871639 195.079826 
L 133.503687 195.018868 
L 136.135735 194.95791 
L 138.767782 194.896952 
L 141.39983 194.835994 
L 144.031878 194.775036 
L 146.663926 194.714078 
L 149.295973 194.65312 
L 151.928021 194.592162 
L 154.560069 194.531204 
L 157.192117 194.470246 
L 159.824164 194.409288 
L 162.456212 194.34833 
L 165.08826 194.287372 
L 167.720308 194.226414 
L 170.352355 194.165457 
L 172.984403 194.104499 
L 175.616451 194.043541 
L 178.248499 193.982583 
L 180.880546 193.921625 
L 183.512594 193.860667 
L 186.144642 193.799709 
L 188.77669 193.738751 
L 191.408737 193.677793 
L 194.040785 193.616835 
L 196.672833 193.555877 
L 199.304881 193.494919 
L 201.936928 193.433961 
L 204.568976 193.373003 
L 207.201024 193.312045 
L 209.833072 193.251087 
L 212.465119 193.190129 
L 215.097167 193.129171 
L 217.729215 193.068213 
L 220.361263 193.007255 
L 222.99331 192.946297 
L 225.625358 192.885339 
L 228.257406 192.824381 
L 230.889454 192.763424 
L 233.521501 192.702466 
L 236.153549 192.641508 
L 238.785597 192.58055 
L 241.417645 192.519592 
L 244.049692 192.458634 
L 246.68174 192.397676 
L 249.313788 192.336718 
L 251.945836 192.27576 
L 254.577883 192.214802 
L 257.209931 192.153844 
L 259.841979 192.092886 
L 262.474027 192.031928 
L 265.106074 191.97097 
L 267.738122 191.910012 
L 270.37017 191.849054 
L 273.002218 191.788096 
L 275.634265 191.727138 
L 278.266313 191.66618 
L 280.898361 191.605222 
L 283.530409 191.544264 
L 286.162456 191.483306 
L 288.794504 191.422349 
L 291.426552 191.361391 
L 294.0586 191.300433 
L 296.690647 191.239475 
L 299.322695 191.178517 
L 301.954743 191.117559 
L 304.586791 191.056601 
L 307.218838 190.995643 
L 309.850886 190.934685 
L 312.482934 190.873727 
L 315.114982 190.812769 
L 317.747029 190.751811 
L 320.379077 190.690853 
L 323.011125 190.629895 
L 325.643173 190.568937 
L 328.27522 190.507979 
L 330.907268 190.447021 
L 333.539316 190.386063 
L 336.171364 190.325105 
" clip-path="url(#p1aecedddc5)" style="fill: none; stroke: #1f77b4; stroke-width: 2.25; stroke-linecap: square"/>
   </g>
   <g id="patch_3">
    <path d="M 62.57 317.93875 
L 62.57 10.8 
" style="fill: none; stroke: #000000; stroke-width: 0.8; stroke-linejoin: miter; stroke-linecap: square"/>
   </g>
   <g id="patch_4">
    <path d="M 62.57 317.93875 
L 349.2 317.93875 
" style="fill: none; stroke: #000000; stroke-width: 0.8; stroke-linejoin: miter; stroke-linecap: square"/>
   </g>
  </g>
 </g>
 <defs>
  <clipPath id="p1aecedddc5">
   <rect x="62.57" y="10.8" width="286.63" height="307.13875"/>
  </clipPath>
 </defs>
</svg>
