<?xml version="1.0" encoding="utf-8" standalone="no"?>
<!DOCTYPE svg PUBLIC "-//W3C//DTD SVG 1.1//EN"
  "http://www.w3.org/Graphics/SVG/1.1/DTD/svg11.dtd">
<svg xmlns:xlink="http://www.w3.org/1999/xlink" width="360pt" height="360pt" viewBox="0 0 360 360" xmlns="http://www.w3.org/2000/svg" version="1.1">
 <metadata>
  <rdf:RDF xmlns:dc="http://purl.org/dc/elements/1.1/" xmlns:cc="http://creativecommons.org/ns#" xmlns:rdf="http://www.w3.org/1999/02/22-rdf-syntax-ns#">
   <cc:Work>
    <dc:type rdf:resource="http://purl.org/dc/dcmitype/StillImage"/>
    <dc:date>2022-11-22T21:32:05.503663</dc:date>
    <dc:format>image/svg+xml</dc:format>
    <dc:creator>
     <cc:Agent>
      <dc:title>Matplotlib v3.5.3, https://matplotlib.org/</dc:title>
     </cc:Agent>
    </dc:creator>
   </cc:Work>
  </rdf:RDF>
 </metadata>
 <defs>
  <style type="text/css">*{stroke-linejoin: round; stroke-linecap: butt}</style>
 </defs>
 <g id="figure_1">
  <g id="patch_1">
   <path d="M 0 360 
L 360 360 
L 360 0 
L 0 0 
z
" style="fill: #ffffff"/>
  </g>
  <g id="axes_1">
   <g id="patch_2">
    <path d="M 62.57 317.93875 
L 349.2 317.93875 
L 349.2 10.8 
L 62.57 10.8 
z
" style="fill: #ffffff"/>
   </g>
   <g id="PathCollection_1">
    <defs>
     <path id="m09c3465602" d="M 0 3 
C 0.795609 3 1.55874 2.683901 2.12132 2.12132 
C 2.683901 1.55874 3 0.795609 3 0 
C 3 -0.795609 2.683901 -1.55874 2.12132 -2.12132 
C 1.55874 -2.683901 0.795609 -3 0 -3 
C -0.795609 -3 -1.55874 -2.683901 -2.12132 -2.12132 
C -2.683901 -1.55874 -3 -0.795609 -3 0 
C -3 0.795609 -2.683901 1.55874 -2.12132 2.12132 
C -1.55874 2.683901 -0.795609 3 0 3 
z
" style="stroke: #1f77b4; stroke-opacity: 0.8"/>
    </defs>
    <g clip-path="url(#p9b8b6cbde0)">
     <use xlink:href="#m09c3465602" x="220.361263" y="31.137409" style="fill: #1f77b4; fill-opacity: 0.8; stroke: #1f77b4; stroke-opacity: 0.8"/>
     <use xlink:href="#m09c3465602" x="220.361263" y="192.964262" style="fill: #1f77b4; fill-opacity: 0.8; stroke: #1f77b4; stroke-opacity: 0.8"/>
     <use xlink:href="#m09c3465602" x="278.266313" y="104.033482" style="fill: #1f77b4; fill-opacity: 0.8; stroke: #1f77b4; stroke-opacity: 0.8"/>
     <use xlink:href="#m09c3465602" x="191.408737" y="303.977898" style="fill: #1f77b4; fill-opacity: 0.8; stroke: #1f77b4; stroke-opacity: 0.8"/>
     <use xlink:href="#m09c3465602" x="249.313788" y="158.318818" style="fill: #1f77b4; fill-opacity: 0.8; stroke: #1f77b4; stroke-opacity: 0.8"/>
     <use xlink:href="#m09c3465602" x="162.456212" y="68.972252" style="fill: #1f77b4; fill-opacity: 0.8; stroke: #1f77b4; stroke-opacity: 0.8"/>
     <use xlink:href="#m09c3465602" x="278.266313" y="118.338351" style="fill: #1f77b4; fill-opacity: 0.8; stroke: #1f77b4; stroke-opacity: 0.8"/>
     <use xlink:href="#m09c3465602" x="75.598636" y="103.850118" style="fill: #1f77b4; fill-opacity: 0.8; stroke: #1f77b4; stroke-opacity: 0.8"/>
     <use xlink:href="#m09c3465602" x="336.171364" y="106.049358" style="fill: #1f77b4; fill-opacity: 0.8; stroke: #1f77b4; stroke-opacity: 0.8"/>
     <use xlink:href="#m09c3465602" x="104.551162" y="88.031889" style="fill: #1f77b4; fill-opacity: 0.8; stroke: #1f77b4; stroke-opacity: 0.8"/>
     <use xlink:href="#m09c3465602" x="307.218838" y="118.709005" style="fill: #1f77b4; fill-opacity: 0.8; stroke: #1f77b4; stroke-opacity: 0.8"/>
     <use xlink:href="#m09c3465602" x="278.266313" y="135.971008" style="fill: #1f77b4; fill-opacity: 0.8; stroke: #1f77b4; stroke-opacity: 0.8"/>
     <use xlink:href="#m09c3465602" x="162.456212" y="120.146231" style="fill: #1f77b4; fill-opacity: 0.8; stroke: #1f77b4; stroke-opacity: 0.8"/>
     <use xlink:href="#m09c3465602" x="278.266313" y="99.763755" style="fill: #1f77b4; fill-opacity: 0.8; stroke: #1f77b4; stroke-opacity: 0.8"/>
     <use xlink:href="#m09c3465602" x="133.503687" y="121.808283" style="fill: #1f77b4; fill-opacity: 0.8; stroke: #1f77b4; stroke-opacity: 0.8"/>
     <use xlink:href="#m09c3465602" x="336.171364" y="153.515244" style="fill: #1f77b4; fill-opacity: 0.8; stroke: #1f77b4; stroke-opacity: 0.8"/>
     <use xlink:href="#m09c3465602" x="104.551162" y="184.057014" style="fill: #1f77b4; fill-opacity: 0.8; stroke: #1f77b4; stroke-opacity: 0.8"/>
     <use xlink:href="#m09c3465602" x="307.218838" y="167.546895" style="fill: #1f77b4; fill-opacity: 0.8; stroke: #1f77b4; stroke-opacity: 0.8"/>
     <use xlink:href="#m09c3465602" x="278.266313" y="87.988608" style="fill: #1f77b4; fill-opacity: 0.8; stroke: #1f77b4; stroke-opacity: 0.8"/>
     <use xlink:href="#m09c3465602" x="249.313788" y="179.526657" style="fill: #1f77b4; fill-opacity: 0.8; stroke: #1f77b4; stroke-opacity: 0.8"/>
     <use xlink:href="#m09c3465602" x="162.456212" y="147.887242" style="fill: #1f77b4; fill-opacity: 0.8; stroke: #1f77b4; stroke-opacity: 0.8"/>
     <use xlink:href="#m09c3465602" x="133.503687" y="226.350278" style="fill: #1f77b4; fill-opacity: 0.8; stroke: #1f77b4; stroke-opacity: 0.8"/>
     <use xlink:href="#m09c3465602" x="336.171364" y="42.445361" style="fill: #1f77b4; fill-opacity: 0.8; stroke: #1f77b4; stroke-opacity: 0.8"/>
     <use xlink:href="#m09c3465602" x="191.408737" y="165.555605" style="fill: #1f77b4; fill-opacity: 0.8; stroke: #1f77b4; stroke-opacity: 0.8"/>
     <use xlink:href="#m09c3465602" x="133.503687" y="139.550038" style="fill: #1f77b4; fill-opacity: 0.8; stroke: #1f77b4; stroke-opacity: 0.8"/>
     <use xlink:href="#m09c3465602" x="75.598636" y="149.527135" style="fill: #1f77b4; fill-opacity: 0.8; stroke: #1f77b4; stroke-opacity: 0.8"/>
     <use xlink:href="#m09c3465602" x="133.503687" y="182.094359" style="fill: #1f77b4; fill-opacity: 0.8; stroke: #1f77b4; stroke-opacity: 0.8"/>
     <use xlink:href="#m09c3465602" x="336.171364" y="161.063667" style="fill: #1f77b4; fill-opacity: 0.8; stroke: #1f77b4; stroke-opacity: 0.8"/>
     <use xlink:href="#m09c3465602" x="220.361263" y="43.878331" style="fill: #1f77b4; fill-opacity: 0.8; stroke: #1f77b4; stroke-opacity: 0.8"/>
     <use xlink:href="#m09c3465602" x="249.313788" y="84.461467" style="fill: #1f77b4; fill-opacity: 0.8; stroke: #1f77b4; stroke-opacity: 0.8"/>
     <use xlink:href="#m09c3465602" x="336.171364" y="186.561838" style="fill: #1f77b4; fill-opacity: 0.8; stroke: #1f77b4; stroke-opacity: 0.8"/>
     <use xlink:href="#m09c3465602" x="162.456212" y="200.749406" style="fill: #1f77b4; fill-opacity: 0.8; stroke: #1f77b4; stroke-opacity: 0.8"/>
     <use xlink:href="#m09c3465602" x="220.361263" y="51.377522" style="fill: #1f77b4; fill-opacity: 0.8; stroke: #1f77b4; stroke-opacity: 0.8"/>
     <use xlink:href="#m09c3465602" x="104.551162" y="157.739068" style="fill: #1f77b4; fill-opacity: 0.8; stroke: #1f77b4; stroke-opacity: 0.8"/>
     <use xlink:href="#m09c3465602" x="133.503687" y="24.760852" style="fill: #1f77b4; fill-opacity: 0.8; stroke: #1f77b4; stroke-opacity: 0.8"/>
     <use xlink:href="#m09c3465602" x="75.598636" y="144.709549" style="fill: #1f77b4; fill-opacity: 0.8; stroke: #1f77b4; stroke-opacity: 0.8"/>
     <use xlink:href="#m09c3465602" x="307.218838" y="160.839988" style="fill: #1f77b4; fill-opacity: 0.8; stroke: #1f77b4; stroke-opacity: 0.8"/>
     <use xlink:href="#m09c3465602" x="75.598636" y="189.037305" style="fill: #1f77b4; fill-opacity: 0.8; stroke: #1f77b4; stroke-opacity: 0.8"/>
     <use xlink:href="#m09c3465602" x="104.551162" y="222.077068" style="fill: #1f77b4; fill-opacity: 0.8; stroke: #1f77b4; stroke-opacity: 0.8"/>
     <use xlink:href="#m09c3465602" x="191.408737" y="46.463403" style="fill: #1f77b4; fill-opacity: 0.8; stroke: #1f77b4; stroke-opacity: 0.8"/>
     <use xlink:href="#m09c3465602" x="307.218838" y="85.762881" style="fill: #1f77b4; fill-opacity: 0.8; stroke: #1f77b4; stroke-opacity: 0.8"/>
     <use xlink:href="#m09c3465602" x="249.313788" y="123.260566" style="fill: #1f77b4; fill-opacity: 0.8; stroke: #1f77b4; stroke-opacity: 0.8"/>
     <use xlink:href="#m09c3465602" x="104.551162" y="247.239593" style="fill: #1f77b4; fill-opacity: 0.8; stroke: #1f77b4; stroke-opacity: 0.8"/>
     <use xlink:href="#m09c3465602" x="162.456212" y="196.377904" style="fill: #1f77b4; fill-opacity: 0.8; stroke: #1f77b4; stroke-opacity: 0.8"/>
     <use xlink:href="#m09c3465602" x="104.551162" y="149.580943" style="fill: #1f77b4; fill-opacity: 0.8; stroke: #1f77b4; stroke-opacity: 0.8"/>
     <use xlink:href="#m09c3465602" x="220.361263" y="136.668705" style="fill: #1f77b4; fill-opacity: 0.8; stroke: #1f77b4; stroke-opacity: 0.8"/>
     <use xlink:href="#m09c3465602" x="249.313788" y="120.873597" style="fill: #1f77b4; fill-opacity: 0.8; stroke: #1f77b4; stroke-opacity: 0.8"/>
    </g>
   </g>
   <g id="PolyCollection_1">
    <path d="M 75.598636 128.685317 
L 75.598636 186.582725 
L 78.230684 185.702216 
L 80.862732 184.821706 
L 83.49478 183.941197 
L 86.126827 183.060687 
L 88.758875 182.313902 
L 91.390923 181.562641 
L 94.022971 180.554852 
L 96.655018 179.725082 
L 99.287066 178.898507 
L 101.919114 178.071932 
L 104.551162 177.291551 
L 107.183209 176.668357 
L 109.815257 175.985804 
L 112.447305 175.354586 
L 115.079353 174.527189 
L 117.7114 173.59764 
L 120.343448 172.865289 
L 122.975496 172.224365 
L 125.607544 171.425363 
L 128.239591 170.684375 
L 130.871639 169.967886 
L 133.503687 169.444825 
L 136.135735 168.809677 
L 138.767782 167.790795 
L 141.39983 167.01027 
L 144.031878 166.261255 
L 146.663926 165.558299 
L 149.295973 164.830303 
L 151.928021 164.141558 
L 154.560069 163.572223 
L 157.192117 162.994488 
L 159.824164 162.305504 
L 162.456212 161.794475 
L 165.08826 161.206553 
L 167.720308 160.413609 
L 170.352355 159.514743 
L 172.984403 159.104763 
L 175.616451 158.304215 
L 178.248499 157.741999 
L 180.880546 156.959187 
L 183.512594 156.342527 
L 186.144642 155.675295 
L 188.77669 155.239394 
L 191.408737 154.74449 
L 194.040785 153.937903 
L 196.672833 153.623577 
L 199.304881 153.314197 
L 201.936928 153.283099 
L 204.568976 152.809027 
L 207.201024 152.295044 
L 209.833072 151.73133 
L 212.465119 151.167617 
L 215.097167 150.646048 
L 217.729215 150.091258 
L 220.361263 149.536987 
L 222.99331 148.975015 
L 225.625358 148.440646 
L 228.257406 148.057116 
L 230.889454 147.654476 
L 233.521501 147.363869 
L 236.153549 146.99499 
L 238.785597 146.669672 
L 241.417645 146.206217 
L 244.049692 145.913043 
L 246.68174 145.793424 
L 249.313788 145.503544 
L 251.945836 145.01026 
L 254.577883 144.532888 
L 257.209931 144.275067 
L 259.841979 144.004104 
L 262.474027 143.701569 
L 265.106074 143.228977 
L 267.738122 142.95143 
L 270.37017 142.72716 
L 273.002218 142.46938 
L 275.634265 142.279871 
L 278.266313 142.066932 
L 280.898361 141.844864 
L 283.530409 141.790682 
L 286.162456 141.460741 
L 288.794504 141.24519 
L 291.426552 141.008452 
L 294.0586 140.922423 
L 296.690647 140.952409 
L 299.322695 140.922777 
L 301.954743 140.686677 
L 304.586791 140.578306 
L 307.218838 140.490118 
L 309.850886 140.230804 
L 312.482934 140.060209 
L 315.114982 140.131078 
L 317.747029 140.146564 
L 320.379077 139.968321 
L 323.011125 139.70539 
L 325.643173 139.442458 
L 328.27522 139.179526 
L 330.907268 139.12132 
L 333.539316 139.06638 
L 336.171364 139.011439 
L 336.171364 88.385131 
L 336.171364 88.385131 
L 333.539316 89.054143 
L 330.907268 89.79053 
L 328.27522 90.578198 
L 325.643173 91.470823 
L 323.011125 92.22247 
L 320.379077 92.974116 
L 317.747029 93.737725 
L 315.114982 94.525911 
L 312.482934 95.314096 
L 309.850886 96.102282 
L 307.218838 96.890468 
L 304.586791 97.678653 
L 301.954743 98.468383 
L 299.322695 99.259535 
L 296.690647 100.050688 
L 294.0586 100.802138 
L 291.426552 101.232158 
L 288.794504 102.237161 
L 286.162456 103.195953 
L 283.530409 103.827685 
L 280.898361 104.44152 
L 278.266313 105.146617 
L 275.634265 105.735803 
L 273.002218 106.657221 
L 270.37017 107.230951 
L 267.738122 107.807356 
L 265.106074 108.485476 
L 262.474027 109.163744 
L 259.841979 109.637501 
L 257.209931 109.670059 
L 254.577883 110.150792 
L 251.945836 110.765179 
L 249.313788 111.415509 
L 246.68174 112.167781 
L 244.049692 112.757422 
L 241.417645 113.410506 
L 238.785597 113.816551 
L 236.153549 114.225046 
L 233.521501 114.697242 
L 230.889454 115.237534 
L 228.257406 115.737754 
L 225.625358 116.355817 
L 222.99331 116.644631 
L 220.361263 117.136444 
L 217.729215 117.899627 
L 215.097167 118.218481 
L 212.465119 118.541348 
L 209.833072 118.924806 
L 207.201024 119.394229 
L 204.568976 119.860282 
L 201.936928 120.330692 
L 199.304881 120.248386 
L 196.672833 120.573534 
L 194.040785 121.011482 
L 191.408737 121.687929 
L 188.77669 122.297109 
L 186.144642 122.820191 
L 183.512594 123.367408 
L 180.880546 123.56473 
L 178.248499 123.399968 
L 175.616451 123.499253 
L 172.984403 124.244136 
L 170.352355 124.363677 
L 167.720308 124.46091 
L 165.08826 124.823338 
L 162.456212 124.860836 
L 159.824164 125.039223 
L 157.192117 125.236704 
L 154.560069 125.557448 
L 151.928021 125.711369 
L 149.295973 125.986918 
L 146.663926 126.364727 
L 144.031878 126.691533 
L 141.39983 126.735601 
L 138.767782 126.787907 
L 136.135735 126.891883 
L 133.503687 126.924172 
L 130.871639 126.956461 
L 128.239591 127.395053 
L 125.607544 127.651146 
L 122.975496 127.784769 
L 120.343448 127.921018 
L 117.7114 128.043493 
L 115.079353 127.986772 
L 112.447305 128.331618 
L 109.815257 128.459699 
L 107.183209 128.433983 
L 104.551162 128.323225 
L 101.919114 128.212468 
L 99.287066 128.324837 
L 96.655018 128.533958 
L 94.022971 128.74595 
L 91.390923 128.745314 
L 88.758875 128.699786 
L 86.126827 128.654257 
L 83.49478 128.608729 
L 80.862732 128.5632 
L 78.230684 128.586466 
L 75.598636 128.685317 
z
" clip-path="url(#p9b8b6cbde0)" style="fill: #1f77b4; fill-opacity: 0.15"/>
   </g>
   <g id="matplotlib.axis_1">
    <g id="xtick_1">
     <g id="line2d_1">
      <defs>
       <path id="medc4663c90" d="M 0 0 
L 0 3.5 
" style="stroke: #000000; stroke-width: 0.8"/>
      </defs>
      <g>
       <use xlink:href="#medc4663c90" x="90.961201" y="317.93875" style="stroke: #000000; stroke-width: 0.8"/>
      </g>
     </g>
     <g id="text_1">
      <text style="font: 10px 'sans-serif'; text-anchor: middle" x="90.961201" y="332.537188" transform="rotate(-0, 90.961201, 332.537188)">−4</text>
     </g>
    </g>
    <g id="xtick_2">
     <g id="line2d_2">
      <g>
       <use xlink:href="#medc4663c90" x="148.866251" y="317.93875" style="stroke: #000000; stroke-width: 0.8"/>
      </g>
     </g>
     <g id="text_2">
      <text style="font: 10px 'sans-serif'; text-anchor: middle" x="148.866251" y="332.537188" transform="rotate(-0, 148.866251, 332.537188)">−2</text>
     </g>
    </g>
    <g id="xtick_3">
     <g id="line2d_3">
      <g>
       <use xlink:href="#medc4663c90" x="206.771302" y="317.93875" style="stroke: #000000; stroke-width: 0.8"/>
      </g>
     </g>
     <g id="text_3">
      <text style="font: 10px 'sans-serif'; text-anchor: middle" x="206.771302" y="332.537188" transform="rotate(-0, 206.771302, 332.537188)">0</text>
     </g>
    </g>
    <g id="xtick_4">
     <g id="line2d_4">
      <g>
       <use xlink:href="#medc4663c90" x="264.676352" y="317.93875" style="stroke: #000000; stroke-width: 0.8"/>
      </g>
     </g>
     <g id="text_4">
      <text style="font: 10px 'sans-serif'; text-anchor: middle" x="264.676352" y="332.537188" transform="rotate(-0, 264.676352, 332.537188)">2</text>
     </g>
    </g>
    <g id="xtick_5">
     <g id="line2d_5">
      <g>
       <use xlink:href="#medc4663c90" x="322.581403" y="317.93875" style="stroke: #000000; stroke-width: 0.8"/>
      </g>
     </g>
     <g id="text_5">
      <text style="font: 10px 'sans-serif'; text-anchor: middle" x="322.581403" y="332.537188" transform="rotate(-0, 322.581403, 332.537188)">4</text>
     </g>
    </g>
    <g id="text_6">
     <text style="font: 10px 'sans-serif'; text-anchor: middle" x="205.885" y="346.215312" transform="rotate(-0, 205.885, 346.215312)">Composite_Reward</text>
    </g>
   </g>
   <g id="matplotlib.axis_2">
    <g id="ytick_1">
     <g id="line2d_6">
      <defs>
       <path id="m601d6b0239" d="M 0 0 
L -3.5 0 
" style="stroke: #000000; stroke-width: 0.8"/>
      </defs>
      <g>
       <use xlink:href="#m601d6b0239" x="62.57" y="303.084237" style="stroke: #000000; stroke-width: 0.8"/>
      </g>
     </g>
     <g id="text_7">
      <text style="font: 10px 'sans-serif'; text-anchor: end" x="55.57" y="306.883456" transform="rotate(-0, 55.57, 306.883456)">−1.00</text>
     </g>
    </g>
    <g id="ytick_2">
     <g id="line2d_7">
      <g>
       <use xlink:href="#m601d6b0239" x="62.57" y="262.211411" style="stroke: #000000; stroke-width: 0.8"/>
      </g>
     </g>
     <g id="text_8">
      <text style="font: 10px 'sans-serif'; text-anchor: end" x="55.57" y="266.010629" transform="rotate(-0, 55.57, 266.010629)">−0.75</text>
     </g>
    </g>
    <g id="ytick_3">
     <g id="line2d_8">
      <g>
       <use xlink:href="#m601d6b0239" x="62.57" y="221.338584" style="stroke: #000000; stroke-width: 0.8"/>
      </g>
     </g>
     <g id="text_9">
      <text style="font: 10px 'sans-serif'; text-anchor: end" x="55.57" y="225.137803" transform="rotate(-0, 55.57, 225.137803)">−0.50</text>
     </g>
    </g>
    <g id="ytick_4">
     <g id="line2d_9">
      <g>
       <use xlink:href="#m601d6b0239" x="62.57" y="180.465758" style="stroke: #000000; stroke-width: 0.8"/>
      </g>
     </g>
     <g id="text_10">
      <text style="font: 10px 'sans-serif'; text-anchor: end" x="55.57" y="184.264976" transform="rotate(-0, 55.57, 184.264976)">−0.25</text>
     </g>
    </g>
    <g id="ytick_5">
     <g id="line2d_10">
      <g>
       <use xlink:href="#m601d6b0239" x="62.57" y="139.592931" style="stroke: #000000; stroke-width: 0.8"/>
      </g>
     </g>
     <g id="text_11">
      <text style="font: 10px 'sans-serif'; text-anchor: end" x="55.57" y="143.39215" transform="rotate(-0, 55.57, 143.39215)">0.00</text>
     </g>
    </g>
    <g id="ytick_6">
     <g id="line2d_11">
      <g>
       <use xlink:href="#m601d6b0239" x="62.57" y="98.720104" style="stroke: #000000; stroke-width: 0.8"/>
      </g>
     </g>
     <g id="text_12">
      <text style="font: 10px 'sans-serif'; text-anchor: end" x="55.57" y="102.519323" transform="rotate(-0, 55.57, 102.519323)">0.25</text>
     </g>
    </g>
    <g id="ytick_7">
     <g id="line2d_12">
      <g>
       <use xlink:href="#m601d6b0239" x="62.57" y="57.847278" style="stroke: #000000; stroke-width: 0.8"/>
      </g>
     </g>
     <g id="text_13">
      <text style="font: 10px 'sans-serif'; text-anchor: end" x="55.57" y="61.646497" transform="rotate(-0, 55.57, 61.646497)">0.50</text>
     </g>
    </g>
    <g id="ytick_8">
     <g id="line2d_13">
      <g>
       <use xlink:href="#m601d6b0239" x="62.57" y="16.974451" style="stroke: #000000; stroke-width: 0.8"/>
      </g>
     </g>
     <g id="text_14">
      <text style="font: 10px 'sans-serif'; text-anchor: end" x="55.57" y="20.77367" transform="rotate(-0, 55.57, 20.77367)">0.75</text>
     </g>
    </g>
    <g id="text_15">
     <text style="font: 10px 'sans-serif'; text-anchor: middle" x="18.845" y="164.369375" transform="rotate(-90, 18.845, 164.369375)">Conn Gain&gt;Neut</text>
    </g>
   </g>
   <g id="line2d_14">
    <path d="M 75.598636 157.62199 
L 78.230684 157.199205 
L 80.862732 156.77642 
L 83.49478 156.353635 
L 86.126827 155.93085 
L 88.758875 155.508065 
L 91.390923 155.08528 
L 94.022971 154.662495 
L 96.655018 154.23971 
L 99.287066 153.816925 
L 101.919114 153.39414 
L 104.551162 152.971355 
L 107.183209 152.54857 
L 109.815257 152.125785 
L 112.447305 151.703 
L 115.079353 151.280215 
L 117.7114 150.85743 
L 120.343448 150.434645 
L 122.975496 150.01186 
L 125.607544 149.589075 
L 128.239591 149.16629 
L 130.871639 148.743505 
L 133.503687 148.32072 
L 136.135735 147.897935 
L 138.767782 147.47515 
L 141.39983 147.052365 
L 144.031878 146.62958 
L 146.663926 146.206795 
L 149.295973 145.78401 
L 151.928021 145.361225 
L 154.560069 144.938441 
L 157.192117 144.515656 
L 159.824164 144.092871 
L 162.456212 143.670086 
L 165.08826 143.247301 
L 167.720308 142.824516 
L 170.352355 142.401731 
L 172.984403 141.978946 
L 175.616451 141.556161 
L 178.248499 141.133376 
L 180.880546 140.710591 
L 183.512594 140.287806 
L 186.144642 139.865021 
L 188.77669 139.442236 
L 191.408737 139.019451 
L 194.040785 138.596666 
L 196.672833 138.173881 
L 199.304881 137.751096 
L 201.936928 137.328311 
L 204.568976 136.905526 
L 207.201024 136.482741 
L 209.833072 136.059956 
L 212.465119 135.637171 
L 215.097167 135.214386 
L 217.729215 134.791601 
L 220.361263 134.368816 
L 222.99331 133.946031 
L 225.625358 133.523246 
L 228.257406 133.100461 
L 230.889454 132.677676 
L 233.521501 132.254891 
L 236.153549 131.832106 
L 238.785597 131.409321 
L 241.417645 130.986536 
L 244.049692 130.563751 
L 246.68174 130.140966 
L 249.313788 129.718181 
L 251.945836 129.295396 
L 254.577883 128.872611 
L 257.209931 128.449826 
L 259.841979 128.027041 
L 262.474027 127.604256 
L 265.106074 127.181471 
L 267.738122 126.758686 
L 270.37017 126.335901 
L 273.002218 125.913116 
L 275.634265 125.490331 
L 278.266313 125.067546 
L 280.898361 124.644761 
L 283.530409 124.221976 
L 286.162456 123.799191 
L 288.794504 123.376406 
L 291.426552 122.953621 
L 294.0586 122.530836 
L 296.690647 122.108051 
L 299.322695 121.685266 
L 301.954743 121.262481 
L 304.586791 120.839696 
L 307.218838 120.416911 
L 309.850886 119.994126 
L 312.482934 119.571341 
L 315.114982 119.148556 
L 317.747029 118.725771 
L 320.379077 118.302986 
L 323.011125 117.880201 
L 325.643173 117.457416 
L 328.27522 117.034631 
L 330.907268 116.611846 
L 333.539316 116.189061 
L 336.171364 115.766276 
" clip-path="url(#p9b8b6cbde0)" style="fill: none; stroke: #1f77b4; stroke-width: 2.25; stroke-linecap: square"/>
   </g>
   <g id="patch_3">
    <path d="M 62.57 317.93875 
L 62.57 10.8 
" style="fill: none; stroke: #000000; stroke-width: 0.8; stroke-linejoin: miter; stroke-linecap: square"/>
   </g>
   <g id="patch_4">
    <path d="M 62.57 317.93875 
L 349.2 317.93875 
" style="fill: none; stroke: #000000; stroke-width: 0.8; stroke-linejoin: miter; stroke-linecap: square"/>
   </g>
  </g>
 </g>
 <defs>
  <clipPath id="p9b8b6cbde0">
   <rect x="62.57" y="10.8" width="286.63" height="307.13875"/>
  </clipPath>
 </defs>
</svg>
