<?xml version="1.0" encoding="utf-8" standalone="no"?>
<!DOCTYPE svg PUBLIC "-//W3C//DTD SVG 1.1//EN"
  "http://www.w3.org/Graphics/SVG/1.1/DTD/svg11.dtd">
<svg xmlns:xlink="http://www.w3.org/1999/xlink" width="360pt" height="360pt" viewBox="0 0 360 360" xmlns="http://www.w3.org/2000/svg" version="1.1">
 <metadata>
  <rdf:RDF xmlns:dc="http://purl.org/dc/elements/1.1/" xmlns:cc="http://creativecommons.org/ns#" xmlns:rdf="http://www.w3.org/1999/02/22-rdf-syntax-ns#">
   <cc:Work>
    <dc:type rdf:resource="http://purl.org/dc/dcmitype/StillImage"/>
    <dc:date>2022-11-22T21:42:41.157175</dc:date>
    <dc:format>image/svg+xml</dc:format>
    <dc:creator>
     <cc:Agent>
      <dc:title>Matplotlib v3.5.3, https://matplotlib.org/</dc:title>
     </cc:Agent>
    </dc:creator>
   </cc:Work>
  </rdf:RDF>
 </metadata>
 <defs>
  <style type="text/css">*{stroke-linejoin: round; stroke-linecap: butt}</style>
 </defs>
 <g id="figure_1">
  <g id="patch_1">
   <path d="M 0 360 
L 360 360 
L 360 0 
L 0 0 
z
" style="fill: #ffffff"/>
  </g>
  <g id="axes_1">
   <g id="patch_2">
    <path d="M 56.18 317.93875 
L 349.2 317.93875 
L 349.2 10.8 
L 56.18 10.8 
z
" style="fill: #ffffff"/>
   </g>
   <g id="PathCollection_1">
    <defs>
     <path id="m71936d98b3" d="M 0 3 
C 0.795609 3 1.55874 2.683901 2.12132 2.12132 
C 2.683901 1.55874 3 0.795609 3 0 
C 3 -0.795609 2.683901 -1.55874 2.12132 -2.12132 
C 1.55874 -2.683901 0.795609 -3 0 -3 
C -0.795609 -3 -1.55874 -2.683901 -2.12132 -2.12132 
C -2.683901 -1.55874 -3 -0.795609 -3 0 
C -3 0.795609 -2.683901 1.55874 -2.12132 2.12132 
C -1.55874 2.683901 -0.795609 3 0 3 
z
" style="stroke: #1f77b4; stroke-opacity: 0.8"/>
    </defs>
    <g clip-path="url(#pbdc0f7a4e2)">
     <use xlink:href="#m71936d98b3" x="217.48899" y="130.711721" style="fill: #1f77b4; fill-opacity: 0.8; stroke: #1f77b4; stroke-opacity: 0.8"/>
     <use xlink:href="#m71936d98b3" x="217.48899" y="109.249348" style="fill: #1f77b4; fill-opacity: 0.8; stroke: #1f77b4; stroke-opacity: 0.8"/>
     <use xlink:href="#m71936d98b3" x="276.684949" y="233.223709" style="fill: #1f77b4; fill-opacity: 0.8; stroke: #1f77b4; stroke-opacity: 0.8"/>
     <use xlink:href="#m71936d98b3" x="187.89101" y="93.348506" style="fill: #1f77b4; fill-opacity: 0.8; stroke: #1f77b4; stroke-opacity: 0.8"/>
     <use xlink:href="#m71936d98b3" x="247.08697" y="40.842964" style="fill: #1f77b4; fill-opacity: 0.8; stroke: #1f77b4; stroke-opacity: 0.8"/>
     <use xlink:href="#m71936d98b3" x="158.29303" y="111.148258" style="fill: #1f77b4; fill-opacity: 0.8; stroke: #1f77b4; stroke-opacity: 0.8"/>
     <use xlink:href="#m71936d98b3" x="276.684949" y="96.21677" style="fill: #1f77b4; fill-opacity: 0.8; stroke: #1f77b4; stroke-opacity: 0.8"/>
     <use xlink:href="#m71936d98b3" x="69.499091" y="24.760852" style="fill: #1f77b4; fill-opacity: 0.8; stroke: #1f77b4; stroke-opacity: 0.8"/>
     <use xlink:href="#m71936d98b3" x="335.880909" y="170.000497" style="fill: #1f77b4; fill-opacity: 0.8; stroke: #1f77b4; stroke-opacity: 0.8"/>
     <use xlink:href="#m71936d98b3" x="99.097071" y="131.318741" style="fill: #1f77b4; fill-opacity: 0.8; stroke: #1f77b4; stroke-opacity: 0.8"/>
     <use xlink:href="#m71936d98b3" x="306.282929" y="138.020142" style="fill: #1f77b4; fill-opacity: 0.8; stroke: #1f77b4; stroke-opacity: 0.8"/>
     <use xlink:href="#m71936d98b3" x="276.684949" y="128.659293" style="fill: #1f77b4; fill-opacity: 0.8; stroke: #1f77b4; stroke-opacity: 0.8"/>
     <use xlink:href="#m71936d98b3" x="158.29303" y="187.562052" style="fill: #1f77b4; fill-opacity: 0.8; stroke: #1f77b4; stroke-opacity: 0.8"/>
     <use xlink:href="#m71936d98b3" x="276.684949" y="146.537804" style="fill: #1f77b4; fill-opacity: 0.8; stroke: #1f77b4; stroke-opacity: 0.8"/>
     <use xlink:href="#m71936d98b3" x="128.695051" y="180.63547" style="fill: #1f77b4; fill-opacity: 0.8; stroke: #1f77b4; stroke-opacity: 0.8"/>
     <use xlink:href="#m71936d98b3" x="335.880909" y="303.977898" style="fill: #1f77b4; fill-opacity: 0.8; stroke: #1f77b4; stroke-opacity: 0.8"/>
     <use xlink:href="#m71936d98b3" x="99.097071" y="99.459935" style="fill: #1f77b4; fill-opacity: 0.8; stroke: #1f77b4; stroke-opacity: 0.8"/>
     <use xlink:href="#m71936d98b3" x="306.282929" y="231.108926" style="fill: #1f77b4; fill-opacity: 0.8; stroke: #1f77b4; stroke-opacity: 0.8"/>
     <use xlink:href="#m71936d98b3" x="276.684949" y="205.597122" style="fill: #1f77b4; fill-opacity: 0.8; stroke: #1f77b4; stroke-opacity: 0.8"/>
     <use xlink:href="#m71936d98b3" x="247.08697" y="217.40335" style="fill: #1f77b4; fill-opacity: 0.8; stroke: #1f77b4; stroke-opacity: 0.8"/>
     <use xlink:href="#m71936d98b3" x="158.29303" y="176.659899" style="fill: #1f77b4; fill-opacity: 0.8; stroke: #1f77b4; stroke-opacity: 0.8"/>
     <use xlink:href="#m71936d98b3" x="128.695051" y="167.179735" style="fill: #1f77b4; fill-opacity: 0.8; stroke: #1f77b4; stroke-opacity: 0.8"/>
     <use xlink:href="#m71936d98b3" x="335.880909" y="190.303093" style="fill: #1f77b4; fill-opacity: 0.8; stroke: #1f77b4; stroke-opacity: 0.8"/>
     <use xlink:href="#m71936d98b3" x="187.89101" y="148.323561" style="fill: #1f77b4; fill-opacity: 0.8; stroke: #1f77b4; stroke-opacity: 0.8"/>
     <use xlink:href="#m71936d98b3" x="128.695051" y="96.863526" style="fill: #1f77b4; fill-opacity: 0.8; stroke: #1f77b4; stroke-opacity: 0.8"/>
     <use xlink:href="#m71936d98b3" x="69.499091" y="115.10478" style="fill: #1f77b4; fill-opacity: 0.8; stroke: #1f77b4; stroke-opacity: 0.8"/>
     <use xlink:href="#m71936d98b3" x="128.695051" y="132.334436" style="fill: #1f77b4; fill-opacity: 0.8; stroke: #1f77b4; stroke-opacity: 0.8"/>
     <use xlink:href="#m71936d98b3" x="335.880909" y="153.351394" style="fill: #1f77b4; fill-opacity: 0.8; stroke: #1f77b4; stroke-opacity: 0.8"/>
     <use xlink:href="#m71936d98b3" x="217.48899" y="171.54942" style="fill: #1f77b4; fill-opacity: 0.8; stroke: #1f77b4; stroke-opacity: 0.8"/>
     <use xlink:href="#m71936d98b3" x="247.08697" y="34.395644" style="fill: #1f77b4; fill-opacity: 0.8; stroke: #1f77b4; stroke-opacity: 0.8"/>
     <use xlink:href="#m71936d98b3" x="335.880909" y="73.133034" style="fill: #1f77b4; fill-opacity: 0.8; stroke: #1f77b4; stroke-opacity: 0.8"/>
     <use xlink:href="#m71936d98b3" x="158.29303" y="168.445715" style="fill: #1f77b4; fill-opacity: 0.8; stroke: #1f77b4; stroke-opacity: 0.8"/>
     <use xlink:href="#m71936d98b3" x="217.48899" y="76.756281" style="fill: #1f77b4; fill-opacity: 0.8; stroke: #1f77b4; stroke-opacity: 0.8"/>
     <use xlink:href="#m71936d98b3" x="99.097071" y="94.373323" style="fill: #1f77b4; fill-opacity: 0.8; stroke: #1f77b4; stroke-opacity: 0.8"/>
     <use xlink:href="#m71936d98b3" x="128.695051" y="69.31107" style="fill: #1f77b4; fill-opacity: 0.8; stroke: #1f77b4; stroke-opacity: 0.8"/>
     <use xlink:href="#m71936d98b3" x="69.499091" y="104.670593" style="fill: #1f77b4; fill-opacity: 0.8; stroke: #1f77b4; stroke-opacity: 0.8"/>
     <use xlink:href="#m71936d98b3" x="306.282929" y="145.979512" style="fill: #1f77b4; fill-opacity: 0.8; stroke: #1f77b4; stroke-opacity: 0.8"/>
     <use xlink:href="#m71936d98b3" x="69.499091" y="107.850419" style="fill: #1f77b4; fill-opacity: 0.8; stroke: #1f77b4; stroke-opacity: 0.8"/>
     <use xlink:href="#m71936d98b3" x="99.097071" y="114.754658" style="fill: #1f77b4; fill-opacity: 0.8; stroke: #1f77b4; stroke-opacity: 0.8"/>
     <use xlink:href="#m71936d98b3" x="187.89101" y="78.666196" style="fill: #1f77b4; fill-opacity: 0.8; stroke: #1f77b4; stroke-opacity: 0.8"/>
     <use xlink:href="#m71936d98b3" x="306.282929" y="139.101107" style="fill: #1f77b4; fill-opacity: 0.8; stroke: #1f77b4; stroke-opacity: 0.8"/>
     <use xlink:href="#m71936d98b3" x="247.08697" y="142.334572" style="fill: #1f77b4; fill-opacity: 0.8; stroke: #1f77b4; stroke-opacity: 0.8"/>
     <use xlink:href="#m71936d98b3" x="99.097071" y="153.760046" style="fill: #1f77b4; fill-opacity: 0.8; stroke: #1f77b4; stroke-opacity: 0.8"/>
     <use xlink:href="#m71936d98b3" x="158.29303" y="145.533233" style="fill: #1f77b4; fill-opacity: 0.8; stroke: #1f77b4; stroke-opacity: 0.8"/>
     <use xlink:href="#m71936d98b3" x="99.097071" y="140.713546" style="fill: #1f77b4; fill-opacity: 0.8; stroke: #1f77b4; stroke-opacity: 0.8"/>
     <use xlink:href="#m71936d98b3" x="217.48899" y="180.992984" style="fill: #1f77b4; fill-opacity: 0.8; stroke: #1f77b4; stroke-opacity: 0.8"/>
     <use xlink:href="#m71936d98b3" x="247.08697" y="63.619302" style="fill: #1f77b4; fill-opacity: 0.8; stroke: #1f77b4; stroke-opacity: 0.8"/>
    </g>
   </g>
   <g id="PolyCollection_1">
    <path d="M 69.499091 84.330598 
L 69.499091 129.551334 
L 72.189816 129.736706 
L 74.880542 129.915046 
L 77.571267 130.090723 
L 80.261993 130.07635 
L 82.952718 130.120624 
L 85.643444 130.406502 
L 88.334169 130.692379 
L 91.024894 130.978257 
L 93.71562 131.179728 
L 96.406345 131.24937 
L 99.097071 131.297359 
L 101.787796 131.721204 
L 104.478522 131.952683 
L 107.169247 132.280345 
L 109.859972 132.594644 
L 112.550698 132.819843 
L 115.241423 133.043043 
L 117.932149 133.352528 
L 120.622874 133.680202 
L 123.3136 133.558895 
L 126.004325 133.784176 
L 128.695051 134.169515 
L 131.385776 134.554389 
L 134.076501 134.942594 
L 136.767227 135.270373 
L 139.457952 135.723748 
L 142.148678 136.177361 
L 144.839403 136.499939 
L 147.530129 136.885357 
L 150.220854 137.327014 
L 152.911579 137.858975 
L 155.602305 138.200013 
L 158.29303 138.792301 
L 160.983756 139.283908 
L 163.674481 139.669078 
L 166.365207 140.201225 
L 169.055932 140.807582 
L 171.746657 141.42123 
L 174.437383 142.030973 
L 177.128108 142.687635 
L 179.818834 143.4599 
L 182.509559 143.857488 
L 185.200285 144.667281 
L 187.89101 145.441446 
L 190.581736 146.134975 
L 193.272461 147.104981 
L 195.963186 148.168395 
L 198.653912 148.884671 
L 201.344637 149.678673 
L 204.035363 150.721107 
L 206.726088 151.625321 
L 209.416814 152.515346 
L 212.107539 153.382898 
L 214.798264 154.152033 
L 217.48899 155.09887 
L 220.179715 155.982554 
L 222.870441 156.803345 
L 225.561166 157.718234 
L 228.251892 158.586304 
L 230.942617 159.507695 
L 233.633343 160.436411 
L 236.324068 161.365127 
L 239.014793 162.291813 
L 241.705519 163.218372 
L 244.396244 164.144931 
L 247.08697 165.163434 
L 249.777695 166.167943 
L 252.468421 167.03834 
L 255.159146 167.9087 
L 257.849871 168.779061 
L 260.540597 169.704285 
L 263.231322 170.658924 
L 265.922048 171.612308 
L 268.612773 172.517762 
L 271.303499 173.425324 
L 273.994224 174.349061 
L 276.684949 175.272798 
L 279.375675 176.223571 
L 282.0664 177.202885 
L 284.757126 178.185007 
L 287.447851 179.058177 
L 290.138577 179.907936 
L 292.829302 180.836593 
L 295.520028 181.76525 
L 298.210753 182.693907 
L 300.901478 184.047762 
L 303.592204 184.99019 
L 306.282929 185.874716 
L 308.973655 186.759242 
L 311.66438 187.705951 
L 314.355106 188.873169 
L 317.045831 189.968663 
L 319.736556 190.955304 
L 322.427282 191.941944 
L 325.118007 193.081707 
L 327.808733 194.246014 
L 330.499458 195.261048 
L 333.190184 196.397764 
L 335.880909 197.598821 
L 335.880909 130.496745 
L 335.880909 130.496745 
L 333.190184 130.278708 
L 330.499458 130.201074 
L 327.808733 130.081579 
L 325.118007 130.021957 
L 322.427282 129.963196 
L 319.736556 129.90685 
L 317.045831 129.854081 
L 314.355106 129.801311 
L 311.66438 129.596466 
L 308.973655 129.334185 
L 306.282929 129.071904 
L 303.592204 128.888246 
L 300.901478 128.831613 
L 298.210753 128.58809 
L 295.520028 128.329927 
L 292.829302 128.071763 
L 290.138577 127.8136 
L 287.447851 127.555436 
L 284.757126 127.298684 
L 282.0664 127.048227 
L 279.375675 127.064243 
L 276.684949 126.947344 
L 273.994224 126.948338 
L 271.303499 126.711986 
L 268.612773 126.475633 
L 265.922048 126.239281 
L 263.231322 126.003258 
L 260.540597 125.713704 
L 257.849871 125.537616 
L 255.159146 125.304973 
L 252.468421 125.072185 
L 249.777695 124.86698 
L 247.08697 124.767708 
L 244.396244 124.58147 
L 241.705519 124.274443 
L 239.014793 124.192843 
L 236.324068 123.828259 
L 233.633343 123.463719 
L 230.942617 123.353685 
L 228.251892 123.50041 
L 225.561166 123.124134 
L 222.870441 122.673081 
L 220.179715 122.335035 
L 217.48899 122.052847 
L 214.798264 121.730867 
L 212.107539 121.097043 
L 209.416814 120.601789 
L 206.726088 120.2156 
L 204.035363 120.056346 
L 201.344637 119.682596 
L 198.653912 119.180066 
L 195.963186 118.829402 
L 193.272461 118.509949 
L 190.581736 117.974274 
L 187.89101 117.546753 
L 185.200285 117.230701 
L 182.509559 116.890332 
L 179.818834 116.493207 
L 177.128108 116.121952 
L 174.437383 115.672805 
L 171.746657 115.276736 
L 169.055932 114.938552 
L 166.365207 114.267188 
L 163.674481 113.895235 
L 160.983756 113.525882 
L 158.29303 112.761838 
L 155.602305 111.875214 
L 152.911579 111.138808 
L 150.220854 110.635515 
L 147.530129 109.808945 
L 144.839403 108.983419 
L 142.148678 108.514716 
L 139.457952 108.089648 
L 136.767227 107.66458 
L 134.076501 107.089649 
L 131.385776 106.1527 
L 128.695051 105.112754 
L 126.004325 104.220551 
L 123.3136 103.355167 
L 120.622874 102.383542 
L 117.932149 101.510302 
L 115.241423 100.668745 
L 112.550698 99.994586 
L 109.859972 99.324656 
L 107.169247 98.364318 
L 104.478522 97.340226 
L 101.787796 96.315984 
L 99.097071 95.288273 
L 96.406345 94.263139 
L 93.71562 93.241386 
L 91.024894 92.175362 
L 88.334169 91.184401 
L 85.643444 90.161174 
L 82.952718 89.143589 
L 80.261993 88.278894 
L 77.571267 87.498097 
L 74.880542 86.47069 
L 72.189816 85.400005 
L 69.499091 84.330598 
z
" clip-path="url(#pbdc0f7a4e2)" style="fill: #1f77b4; fill-opacity: 0.15"/>
   </g>
   <g id="matplotlib.axis_1">
    <g id="xtick_1">
     <g id="line2d_1">
      <defs>
       <path id="m99cc31531d" d="M 0 0 
L 0 3.5 
" style="stroke: #000000; stroke-width: 0.8"/>
      </defs>
      <g>
       <use xlink:href="#m99cc31531d" x="85.204141" y="317.93875" style="stroke: #000000; stroke-width: 0.8"/>
      </g>
     </g>
     <g id="text_1">
      <text style="font: 10px 'sans-serif'; text-anchor: middle" x="85.204141" y="332.537188" transform="rotate(-0, 85.204141, 332.537188)">−4</text>
     </g>
    </g>
    <g id="xtick_2">
     <g id="line2d_2">
      <g>
       <use xlink:href="#m99cc31531d" x="144.400101" y="317.93875" style="stroke: #000000; stroke-width: 0.8"/>
      </g>
     </g>
     <g id="text_2">
      <text style="font: 10px 'sans-serif'; text-anchor: middle" x="144.400101" y="332.537188" transform="rotate(-0, 144.400101, 332.537188)">−2</text>
     </g>
    </g>
    <g id="xtick_3">
     <g id="line2d_3">
      <g>
       <use xlink:href="#m99cc31531d" x="203.596061" y="317.93875" style="stroke: #000000; stroke-width: 0.8"/>
      </g>
     </g>
     <g id="text_3">
      <text style="font: 10px 'sans-serif'; text-anchor: middle" x="203.596061" y="332.537188" transform="rotate(-0, 203.596061, 332.537188)">0</text>
     </g>
    </g>
    <g id="xtick_4">
     <g id="line2d_4">
      <g>
       <use xlink:href="#m99cc31531d" x="262.79202" y="317.93875" style="stroke: #000000; stroke-width: 0.8"/>
      </g>
     </g>
     <g id="text_4">
      <text style="font: 10px 'sans-serif'; text-anchor: middle" x="262.79202" y="332.537188" transform="rotate(-0, 262.79202, 332.537188)">2</text>
     </g>
    </g>
    <g id="xtick_5">
     <g id="line2d_5">
      <g>
       <use xlink:href="#m99cc31531d" x="321.98798" y="317.93875" style="stroke: #000000; stroke-width: 0.8"/>
      </g>
     </g>
     <g id="text_5">
      <text style="font: 10px 'sans-serif'; text-anchor: middle" x="321.98798" y="332.537188" transform="rotate(-0, 321.98798, 332.537188)">4</text>
     </g>
    </g>
    <g id="text_6">
     <text style="font: 10px 'sans-serif'; text-anchor: middle" x="202.69" y="346.215312" transform="rotate(-0, 202.69, 346.215312)">Composite_Reward</text>
    </g>
   </g>
   <g id="matplotlib.axis_2">
    <g id="ytick_1">
     <g id="line2d_6">
      <defs>
       <path id="m713832e5f7" d="M 0 0 
L -3.5 0 
" style="stroke: #000000; stroke-width: 0.8"/>
      </defs>
      <g>
       <use xlink:href="#m713832e5f7" x="56.18" y="301.244308" style="stroke: #000000; stroke-width: 0.8"/>
      </g>
     </g>
     <g id="text_7">
      <text style="font: 10px 'sans-serif'; text-anchor: end" x="49.18" y="305.043527" transform="rotate(-0, 49.18, 305.043527)">−1.5</text>
     </g>
    </g>
    <g id="ytick_2">
     <g id="line2d_7">
      <g>
       <use xlink:href="#m713832e5f7" x="56.18" y="248.759785" style="stroke: #000000; stroke-width: 0.8"/>
      </g>
     </g>
     <g id="text_8">
      <text style="font: 10px 'sans-serif'; text-anchor: end" x="49.18" y="252.559004" transform="rotate(-0, 49.18, 252.559004)">−1.0</text>
     </g>
    </g>
    <g id="ytick_3">
     <g id="line2d_8">
      <g>
       <use xlink:href="#m713832e5f7" x="56.18" y="196.275262" style="stroke: #000000; stroke-width: 0.8"/>
      </g>
     </g>
     <g id="text_9">
      <text style="font: 10px 'sans-serif'; text-anchor: end" x="49.18" y="200.074481" transform="rotate(-0, 49.18, 200.074481)">−0.5</text>
     </g>
    </g>
    <g id="ytick_4">
     <g id="line2d_9">
      <g>
       <use xlink:href="#m713832e5f7" x="56.18" y="143.790739" style="stroke: #000000; stroke-width: 0.8"/>
      </g>
     </g>
     <g id="text_10">
      <text style="font: 10px 'sans-serif'; text-anchor: end" x="49.18" y="147.589958" transform="rotate(-0, 49.18, 147.589958)">0.0</text>
     </g>
    </g>
    <g id="ytick_5">
     <g id="line2d_10">
      <g>
       <use xlink:href="#m713832e5f7" x="56.18" y="91.306216" style="stroke: #000000; stroke-width: 0.8"/>
      </g>
     </g>
     <g id="text_11">
      <text style="font: 10px 'sans-serif'; text-anchor: end" x="49.18" y="95.105435" transform="rotate(-0, 49.18, 95.105435)">0.5</text>
     </g>
    </g>
    <g id="ytick_6">
     <g id="line2d_11">
      <g>
       <use xlink:href="#m713832e5f7" x="56.18" y="38.821693" style="stroke: #000000; stroke-width: 0.8"/>
      </g>
     </g>
     <g id="text_12">
      <text style="font: 10px 'sans-serif'; text-anchor: end" x="49.18" y="42.620912" transform="rotate(-0, 49.18, 42.620912)">1.0</text>
     </g>
    </g>
    <g id="text_13">
     <text style="font: 10px 'sans-serif'; text-anchor: middle" x="18.8175" y="164.369375" transform="rotate(-90, 18.8175, 164.369375)">Conn Loss&gt;Neut</text>
    </g>
   </g>
   <g id="line2d_12">
    <path d="M 69.499091 107.00188 
L 72.189816 107.580562 
L 74.880542 108.159244 
L 77.571267 108.737927 
L 80.261993 109.316609 
L 82.952718 109.895291 
L 85.643444 110.473973 
L 88.334169 111.052656 
L 91.024894 111.631338 
L 93.71562 112.21002 
L 96.406345 112.788703 
L 99.097071 113.367385 
L 101.787796 113.946067 
L 104.478522 114.52475 
L 107.169247 115.103432 
L 109.859972 115.682114 
L 112.550698 116.260796 
L 115.241423 116.839479 
L 117.932149 117.418161 
L 120.622874 117.996843 
L 123.3136 118.575526 
L 126.004325 119.154208 
L 128.695051 119.73289 
L 131.385776 120.311572 
L 134.076501 120.890255 
L 136.767227 121.468937 
L 139.457952 122.047619 
L 142.148678 122.626302 
L 144.839403 123.204984 
L 147.530129 123.783666 
L 150.220854 124.362348 
L 152.911579 124.941031 
L 155.602305 125.519713 
L 158.29303 126.098395 
L 160.983756 126.677078 
L 163.674481 127.25576 
L 166.365207 127.834442 
L 169.055932 128.413124 
L 171.746657 128.991807 
L 174.437383 129.570489 
L 177.128108 130.149171 
L 179.818834 130.727854 
L 182.509559 131.306536 
L 185.200285 131.885218 
L 187.89101 132.463901 
L 190.581736 133.042583 
L 193.272461 133.621265 
L 195.963186 134.199947 
L 198.653912 134.77863 
L 201.344637 135.357312 
L 204.035363 135.935994 
L 206.726088 136.514677 
L 209.416814 137.093359 
L 212.107539 137.672041 
L 214.798264 138.250723 
L 217.48899 138.829406 
L 220.179715 139.408088 
L 222.870441 139.98677 
L 225.561166 140.565453 
L 228.251892 141.144135 
L 230.942617 141.722817 
L 233.633343 142.301499 
L 236.324068 142.880182 
L 239.014793 143.458864 
L 241.705519 144.037546 
L 244.396244 144.616229 
L 247.08697 145.194911 
L 249.777695 145.773593 
L 252.468421 146.352275 
L 255.159146 146.930958 
L 257.849871 147.50964 
L 260.540597 148.088322 
L 263.231322 148.667005 
L 265.922048 149.245687 
L 268.612773 149.824369 
L 271.303499 150.403051 
L 273.994224 150.981734 
L 276.684949 151.560416 
L 279.375675 152.139098 
L 282.0664 152.717781 
L 284.757126 153.296463 
L 287.447851 153.875145 
L 290.138577 154.453828 
L 292.829302 155.03251 
L 295.520028 155.611192 
L 298.210753 156.189874 
L 300.901478 156.768557 
L 303.592204 157.347239 
L 306.282929 157.925921 
L 308.973655 158.504604 
L 311.66438 159.083286 
L 314.355106 159.661968 
L 317.045831 160.24065 
L 319.736556 160.819333 
L 322.427282 161.398015 
L 325.118007 161.976697 
L 327.808733 162.55538 
L 330.499458 163.134062 
L 333.190184 163.712744 
L 335.880909 164.291426 
" clip-path="url(#pbdc0f7a4e2)" style="fill: none; stroke: #1f77b4; stroke-width: 2.25; stroke-linecap: square"/>
   </g>
   <g id="patch_3">
    <path d="M 56.18 317.93875 
L 56.18 10.8 
" style="fill: none; stroke: #000000; stroke-width: 0.8; stroke-linejoin: miter; stroke-linecap: square"/>
   </g>
   <g id="patch_4">
    <path d="M 56.18 317.93875 
L 349.2 317.93875 
" style="fill: none; stroke: #000000; stroke-width: 0.8; stroke-linejoin: miter; stroke-linecap: square"/>
   </g>
  </g>
 </g>
 <defs>
  <clipPath id="pbdc0f7a4e2">
   <rect x="56.18" y="10.8" width="293.02" height="307.13875"/>
  </clipPath>
 </defs>
</svg>
