<?xml version="1.0" encoding="utf-8" standalone="no"?>
<!DOCTYPE svg PUBLIC "-//W3C//DTD SVG 1.1//EN"
  "http://www.w3.org/Graphics/SVG/1.1/DTD/svg11.dtd">
<svg xmlns:xlink="http://www.w3.org/1999/xlink" width="360pt" height="360pt" viewBox="0 0 360 360" xmlns="http://www.w3.org/2000/svg" version="1.1">
 <metadata>
  <rdf:RDF xmlns:dc="http://purl.org/dc/elements/1.1/" xmlns:cc="http://creativecommons.org/ns#" xmlns:rdf="http://www.w3.org/1999/02/22-rdf-syntax-ns#">
   <cc:Work>
    <dc:type rdf:resource="http://purl.org/dc/dcmitype/StillImage"/>
    <dc:date>2022-11-22T21:38:32.519640</dc:date>
    <dc:format>image/svg+xml</dc:format>
    <dc:creator>
     <cc:Agent>
      <dc:title>Matplotlib v3.5.3, https://matplotlib.org/</dc:title>
     </cc:Agent>
    </dc:creator>
   </cc:Work>
  </rdf:RDF>
 </metadata>
 <defs>
  <style type="text/css">*{stroke-linejoin: round; stroke-linecap: butt}</style>
 </defs>
 <g id="figure_1">
  <g id="patch_1">
   <path d="M 0 360 
L 360 360 
L 360 0 
L 0 0 
z
" style="fill: #ffffff"/>
  </g>
  <g id="axes_1">
   <g id="patch_2">
    <path d="M 56.18 317.93875 
L 349.2 317.93875 
L 349.2 14.730065 
L 56.18 14.730065 
z
" style="fill: #ffffff"/>
   </g>
   <g id="PathCollection_1">
    <defs>
     <path id="m506b4065d3" d="M 0 3 
C 0.795609 3 1.55874 2.683901 2.12132 2.12132 
C 2.683901 1.55874 3 0.795609 3 0 
C 3 -0.795609 2.683901 -1.55874 2.12132 -2.12132 
C 1.55874 -2.683901 0.795609 -3 0 -3 
C -0.795609 -3 -1.55874 -2.683901 -2.12132 -2.12132 
C -2.683901 -1.55874 -3 -0.795609 -3 0 
C -3 0.795609 -2.683901 1.55874 -2.12132 2.12132 
C -1.55874 2.683901 -0.795609 3 0 3 
z
" style="stroke: #1f77b4; stroke-opacity: 0.8"/>
    </defs>
    <g clip-path="url(#pcdcfd15444)">
     <use xlink:href="#m506b4065d3" x="217.48899" y="212.524629" style="fill: #1f77b4; fill-opacity: 0.8; stroke: #1f77b4; stroke-opacity: 0.8"/>
     <use xlink:href="#m506b4065d3" x="217.48899" y="167.221173" style="fill: #1f77b4; fill-opacity: 0.8; stroke: #1f77b4; stroke-opacity: 0.8"/>
     <use xlink:href="#m506b4065d3" x="276.684949" y="235.650086" style="fill: #1f77b4; fill-opacity: 0.8; stroke: #1f77b4; stroke-opacity: 0.8"/>
     <use xlink:href="#m506b4065d3" x="187.89101" y="204.167311" style="fill: #1f77b4; fill-opacity: 0.8; stroke: #1f77b4; stroke-opacity: 0.8"/>
     <use xlink:href="#m506b4065d3" x="247.08697" y="162.31865" style="fill: #1f77b4; fill-opacity: 0.8; stroke: #1f77b4; stroke-opacity: 0.8"/>
     <use xlink:href="#m506b4065d3" x="158.29303" y="153.622904" style="fill: #1f77b4; fill-opacity: 0.8; stroke: #1f77b4; stroke-opacity: 0.8"/>
     <use xlink:href="#m506b4065d3" x="276.684949" y="153.014594" style="fill: #1f77b4; fill-opacity: 0.8; stroke: #1f77b4; stroke-opacity: 0.8"/>
     <use xlink:href="#m506b4065d3" x="69.499091" y="152.309086" style="fill: #1f77b4; fill-opacity: 0.8; stroke: #1f77b4; stroke-opacity: 0.8"/>
     <use xlink:href="#m506b4065d3" x="335.880909" y="51.555317" style="fill: #1f77b4; fill-opacity: 0.8; stroke: #1f77b4; stroke-opacity: 0.8"/>
     <use xlink:href="#m506b4065d3" x="99.097071" y="212.597396" style="fill: #1f77b4; fill-opacity: 0.8; stroke: #1f77b4; stroke-opacity: 0.8"/>
     <use xlink:href="#m506b4065d3" x="306.282929" y="185.597825" style="fill: #1f77b4; fill-opacity: 0.8; stroke: #1f77b4; stroke-opacity: 0.8"/>
     <use xlink:href="#m506b4065d3" x="276.684949" y="267.298231" style="fill: #1f77b4; fill-opacity: 0.8; stroke: #1f77b4; stroke-opacity: 0.8"/>
     <use xlink:href="#m506b4065d3" x="158.29303" y="160.123308" style="fill: #1f77b4; fill-opacity: 0.8; stroke: #1f77b4; stroke-opacity: 0.8"/>
     <use xlink:href="#m506b4065d3" x="276.684949" y="28.512278" style="fill: #1f77b4; fill-opacity: 0.8; stroke: #1f77b4; stroke-opacity: 0.8"/>
     <use xlink:href="#m506b4065d3" x="128.695051" y="162.334528" style="fill: #1f77b4; fill-opacity: 0.8; stroke: #1f77b4; stroke-opacity: 0.8"/>
     <use xlink:href="#m506b4065d3" x="335.880909" y="226.476814" style="fill: #1f77b4; fill-opacity: 0.8; stroke: #1f77b4; stroke-opacity: 0.8"/>
     <use xlink:href="#m506b4065d3" x="99.097071" y="138.522123" style="fill: #1f77b4; fill-opacity: 0.8; stroke: #1f77b4; stroke-opacity: 0.8"/>
     <use xlink:href="#m506b4065d3" x="306.282929" y="161.758832" style="fill: #1f77b4; fill-opacity: 0.8; stroke: #1f77b4; stroke-opacity: 0.8"/>
     <use xlink:href="#m506b4065d3" x="276.684949" y="142.09123" style="fill: #1f77b4; fill-opacity: 0.8; stroke: #1f77b4; stroke-opacity: 0.8"/>
     <use xlink:href="#m506b4065d3" x="247.08697" y="220.992096" style="fill: #1f77b4; fill-opacity: 0.8; stroke: #1f77b4; stroke-opacity: 0.8"/>
     <use xlink:href="#m506b4065d3" x="158.29303" y="164.42838" style="fill: #1f77b4; fill-opacity: 0.8; stroke: #1f77b4; stroke-opacity: 0.8"/>
     <use xlink:href="#m506b4065d3" x="128.695051" y="179.594138" style="fill: #1f77b4; fill-opacity: 0.8; stroke: #1f77b4; stroke-opacity: 0.8"/>
     <use xlink:href="#m506b4065d3" x="335.880909" y="250.48721" style="fill: #1f77b4; fill-opacity: 0.8; stroke: #1f77b4; stroke-opacity: 0.8"/>
     <use xlink:href="#m506b4065d3" x="187.89101" y="146.189577" style="fill: #1f77b4; fill-opacity: 0.8; stroke: #1f77b4; stroke-opacity: 0.8"/>
     <use xlink:href="#m506b4065d3" x="128.695051" y="101.072171" style="fill: #1f77b4; fill-opacity: 0.8; stroke: #1f77b4; stroke-opacity: 0.8"/>
     <use xlink:href="#m506b4065d3" x="69.499091" y="92.401748" style="fill: #1f77b4; fill-opacity: 0.8; stroke: #1f77b4; stroke-opacity: 0.8"/>
     <use xlink:href="#m506b4065d3" x="128.695051" y="169.402761" style="fill: #1f77b4; fill-opacity: 0.8; stroke: #1f77b4; stroke-opacity: 0.8"/>
     <use xlink:href="#m506b4065d3" x="335.880909" y="167.734567" style="fill: #1f77b4; fill-opacity: 0.8; stroke: #1f77b4; stroke-opacity: 0.8"/>
     <use xlink:href="#m506b4065d3" x="217.48899" y="225.935926" style="fill: #1f77b4; fill-opacity: 0.8; stroke: #1f77b4; stroke-opacity: 0.8"/>
     <use xlink:href="#m506b4065d3" x="247.08697" y="255.136406" style="fill: #1f77b4; fill-opacity: 0.8; stroke: #1f77b4; stroke-opacity: 0.8"/>
     <use xlink:href="#m506b4065d3" x="335.880909" y="86.673514" style="fill: #1f77b4; fill-opacity: 0.8; stroke: #1f77b4; stroke-opacity: 0.8"/>
     <use xlink:href="#m506b4065d3" x="158.29303" y="246.735145" style="fill: #1f77b4; fill-opacity: 0.8; stroke: #1f77b4; stroke-opacity: 0.8"/>
     <use xlink:href="#m506b4065d3" x="217.48899" y="255.540282" style="fill: #1f77b4; fill-opacity: 0.8; stroke: #1f77b4; stroke-opacity: 0.8"/>
     <use xlink:href="#m506b4065d3" x="99.097071" y="230.166972" style="fill: #1f77b4; fill-opacity: 0.8; stroke: #1f77b4; stroke-opacity: 0.8"/>
     <use xlink:href="#m506b4065d3" x="128.695051" y="206.478021" style="fill: #1f77b4; fill-opacity: 0.8; stroke: #1f77b4; stroke-opacity: 0.8"/>
     <use xlink:href="#m506b4065d3" x="69.499091" y="197.236361" style="fill: #1f77b4; fill-opacity: 0.8; stroke: #1f77b4; stroke-opacity: 0.8"/>
     <use xlink:href="#m506b4065d3" x="306.282929" y="159.876169" style="fill: #1f77b4; fill-opacity: 0.8; stroke: #1f77b4; stroke-opacity: 0.8"/>
     <use xlink:href="#m506b4065d3" x="69.499091" y="111.16197" style="fill: #1f77b4; fill-opacity: 0.8; stroke: #1f77b4; stroke-opacity: 0.8"/>
     <use xlink:href="#m506b4065d3" x="99.097071" y="304.156537" style="fill: #1f77b4; fill-opacity: 0.8; stroke: #1f77b4; stroke-opacity: 0.8"/>
     <use xlink:href="#m506b4065d3" x="187.89101" y="240.028667" style="fill: #1f77b4; fill-opacity: 0.8; stroke: #1f77b4; stroke-opacity: 0.8"/>
     <use xlink:href="#m506b4065d3" x="306.282929" y="135.867608" style="fill: #1f77b4; fill-opacity: 0.8; stroke: #1f77b4; stroke-opacity: 0.8"/>
     <use xlink:href="#m506b4065d3" x="247.08697" y="186.650393" style="fill: #1f77b4; fill-opacity: 0.8; stroke: #1f77b4; stroke-opacity: 0.8"/>
     <use xlink:href="#m506b4065d3" x="99.097071" y="219.228635" style="fill: #1f77b4; fill-opacity: 0.8; stroke: #1f77b4; stroke-opacity: 0.8"/>
     <use xlink:href="#m506b4065d3" x="158.29303" y="105.517909" style="fill: #1f77b4; fill-opacity: 0.8; stroke: #1f77b4; stroke-opacity: 0.8"/>
     <use xlink:href="#m506b4065d3" x="99.097071" y="234.333048" style="fill: #1f77b4; fill-opacity: 0.8; stroke: #1f77b4; stroke-opacity: 0.8"/>
     <use xlink:href="#m506b4065d3" x="217.48899" y="126.839877" style="fill: #1f77b4; fill-opacity: 0.8; stroke: #1f77b4; stroke-opacity: 0.8"/>
     <use xlink:href="#m506b4065d3" x="247.08697" y="167.427585" style="fill: #1f77b4; fill-opacity: 0.8; stroke: #1f77b4; stroke-opacity: 0.8"/>
    </g>
   </g>
   <g id="PolyCollection_1">
    <path d="M 69.499091 157.48489 
L 69.499091 218.536376 
L 72.189816 217.803329 
L 74.880542 217.066738 
L 77.571267 216.330146 
L 80.261993 215.534496 
L 82.952718 214.747356 
L 85.643444 214.128985 
L 88.334169 213.399465 
L 91.024894 212.856901 
L 93.71562 212.104933 
L 96.406345 211.410345 
L 99.097071 210.66735 
L 101.787796 210.028573 
L 104.478522 209.235917 
L 107.169247 208.555924 
L 109.859972 207.87593 
L 112.550698 207.195936 
L 115.241423 206.515943 
L 117.932149 205.835949 
L 120.622874 205.376334 
L 123.3136 204.959496 
L 126.004325 204.336612 
L 128.695051 203.71951 
L 131.385776 203.197692 
L 134.076501 202.675874 
L 136.767227 202.215331 
L 139.457952 201.672978 
L 142.148678 200.952449 
L 144.839403 200.234427 
L 147.530129 199.581908 
L 150.220854 199.279375 
L 152.911579 199.001367 
L 155.602305 198.609035 
L 158.29303 198.358943 
L 160.983756 198.163121 
L 163.674481 197.866013 
L 166.365207 197.407015 
L 169.055932 196.951866 
L 171.746657 196.316258 
L 174.437383 196.276417 
L 177.128108 196.018728 
L 179.818834 195.91858 
L 182.509559 195.565589 
L 185.200285 195.17696 
L 187.89101 194.91828 
L 190.581736 194.531094 
L 193.272461 194.417094 
L 195.963186 194.283042 
L 198.653912 194.204553 
L 201.344637 194.223441 
L 204.035363 194.242068 
L 206.726088 193.942837 
L 209.416814 193.518757 
L 212.107539 193.481888 
L 214.798264 193.54377 
L 217.48899 193.433456 
L 220.179715 193.42745 
L 222.870441 193.468097 
L 225.561166 193.53142 
L 228.251892 193.425501 
L 230.942617 193.892124 
L 233.633343 194.150988 
L 236.324068 194.144804 
L 239.014793 194.413581 
L 241.705519 194.772799 
L 244.396244 195.079253 
L 247.08697 195.26378 
L 249.777695 195.446429 
L 252.468421 195.623898 
L 255.159146 195.842225 
L 257.849871 196.084471 
L 260.540597 196.306813 
L 263.231322 196.571323 
L 265.922048 196.82589 
L 268.612773 197.301625 
L 271.303499 197.577656 
L 273.994224 197.74764 
L 276.684949 197.984703 
L 279.375675 198.47307 
L 282.0664 198.959133 
L 284.757126 199.007281 
L 287.447851 199.035346 
L 290.138577 199.250919 
L 292.829302 199.815188 
L 295.520028 200.375319 
L 298.210753 200.933535 
L 300.901478 201.491751 
L 303.592204 202.049966 
L 306.282929 202.242523 
L 308.973655 202.367699 
L 311.66438 202.492876 
L 314.355106 202.649534 
L 317.045831 203.158619 
L 319.736556 203.589714 
L 322.427282 203.844416 
L 325.118007 204.078121 
L 327.808733 204.335054 
L 330.499458 204.615136 
L 333.190184 204.875129 
L 335.880909 205.143455 
L 335.880909 134.907748 
L 335.880909 134.907748 
L 333.190184 135.694609 
L 330.499458 136.48147 
L 327.808733 137.263118 
L 325.118007 138.042678 
L 322.427282 138.825722 
L 319.736556 139.615104 
L 317.045831 140.368968 
L 314.355106 141.032449 
L 311.66438 141.663546 
L 308.973655 142.294643 
L 306.282929 142.92574 
L 303.592204 143.566774 
L 300.901478 144.202817 
L 298.210753 144.795228 
L 295.520028 145.199361 
L 292.829302 145.528752 
L 290.138577 145.858144 
L 287.447851 146.193902 
L 284.757126 146.952147 
L 282.0664 147.727433 
L 279.375675 148.503466 
L 276.684949 149.196731 
L 273.994224 149.68182 
L 271.303499 150.365618 
L 268.612773 150.963709 
L 265.922048 151.523726 
L 263.231322 152.006142 
L 260.540597 152.3952 
L 257.849871 153.159411 
L 255.159146 153.819402 
L 252.468421 154.30417 
L 249.777695 154.798408 
L 247.08697 155.279134 
L 244.396244 155.75986 
L 241.705519 156.249349 
L 239.014793 156.765748 
L 236.324068 157.426669 
L 233.633343 157.951323 
L 230.942617 158.267351 
L 228.251892 158.531317 
L 225.561166 158.837325 
L 222.870441 159.307799 
L 220.179715 159.649299 
L 217.48899 159.999426 
L 214.798264 160.431681 
L 212.107539 160.689735 
L 209.416814 160.946418 
L 206.726088 161.300897 
L 204.035363 161.440498 
L 201.344637 161.814315 
L 198.653912 162.058721 
L 195.963186 162.218038 
L 193.272461 162.316041 
L 190.581736 162.511384 
L 187.89101 162.667839 
L 185.200285 162.969111 
L 182.509559 163.094151 
L 179.818834 163.23988 
L 177.128108 163.457863 
L 174.437383 163.61094 
L 171.746657 163.680042 
L 169.055932 163.749145 
L 166.365207 163.813764 
L 163.674481 163.828886 
L 160.983756 163.876871 
L 158.29303 163.762129 
L 155.602305 163.625639 
L 152.911579 163.72042 
L 150.220854 163.773773 
L 147.530129 163.769029 
L 144.839403 163.627692 
L 142.148678 163.435348 
L 139.457952 163.465604 
L 136.767227 163.516843 
L 134.076501 163.327848 
L 131.385776 163.233567 
L 128.695051 163.212943 
L 126.004325 162.846432 
L 123.3136 162.480223 
L 120.622874 162.337856 
L 117.932149 161.992576 
L 115.241423 161.771541 
L 112.550698 161.652629 
L 109.859972 161.32984 
L 107.169247 161.166253 
L 104.478522 160.975358 
L 101.787796 160.768778 
L 99.097071 160.648808 
L 96.406345 160.528838 
L 93.71562 160.257468 
L 91.024894 159.844241 
L 88.334169 159.54864 
L 85.643444 159.319257 
L 82.952718 158.878615 
L 80.261993 158.433804 
L 77.571267 158.247059 
L 74.880542 158.233565 
L 72.189816 157.739619 
L 69.499091 157.48489 
z
" clip-path="url(#pcdcfd15444)" style="fill: #1f77b4; fill-opacity: 0.15"/>
   </g>
   <g id="matplotlib.axis_1">
    <g id="xtick_1">
     <g id="line2d_1">
      <defs>
       <path id="m4715a5065f" d="M 0 0 
L 0 3.5 
" style="stroke: #000000; stroke-width: 0.8"/>
      </defs>
      <g>
       <use xlink:href="#m4715a5065f" x="85.204141" y="317.93875" style="stroke: #000000; stroke-width: 0.8"/>
      </g>
     </g>
     <g id="text_1">
      <text style="font: 10px 'sans-serif'; text-anchor: middle" x="85.204141" y="332.537188" transform="rotate(-0, 85.204141, 332.537188)">−4</text>
     </g>
    </g>
    <g id="xtick_2">
     <g id="line2d_2">
      <g>
       <use xlink:href="#m4715a5065f" x="144.400101" y="317.93875" style="stroke: #000000; stroke-width: 0.8"/>
      </g>
     </g>
     <g id="text_2">
      <text style="font: 10px 'sans-serif'; text-anchor: middle" x="144.400101" y="332.537188" transform="rotate(-0, 144.400101, 332.537188)">−2</text>
     </g>
    </g>
    <g id="xtick_3">
     <g id="line2d_3">
      <g>
       <use xlink:href="#m4715a5065f" x="203.596061" y="317.93875" style="stroke: #000000; stroke-width: 0.8"/>
      </g>
     </g>
     <g id="text_3">
      <text style="font: 10px 'sans-serif'; text-anchor: middle" x="203.596061" y="332.537188" transform="rotate(-0, 203.596061, 332.537188)">0</text>
     </g>
    </g>
    <g id="xtick_4">
     <g id="line2d_4">
      <g>
       <use xlink:href="#m4715a5065f" x="262.79202" y="317.93875" style="stroke: #000000; stroke-width: 0.8"/>
      </g>
     </g>
     <g id="text_4">
      <text style="font: 10px 'sans-serif'; text-anchor: middle" x="262.79202" y="332.537188" transform="rotate(-0, 262.79202, 332.537188)">2</text>
     </g>
    </g>
    <g id="xtick_5">
     <g id="line2d_5">
      <g>
       <use xlink:href="#m4715a5065f" x="321.98798" y="317.93875" style="stroke: #000000; stroke-width: 0.8"/>
      </g>
     </g>
     <g id="text_5">
      <text style="font: 10px 'sans-serif'; text-anchor: middle" x="321.98798" y="332.537188" transform="rotate(-0, 321.98798, 332.537188)">4</text>
     </g>
    </g>
    <g id="text_6">
     <text style="font: 10px 'sans-serif'; text-anchor: middle" x="202.69" y="346.215312" transform="rotate(-0, 202.69, 346.215312)">Composite_Reward</text>
    </g>
   </g>
   <g id="matplotlib.axis_2">
    <g id="ytick_1">
     <g id="line2d_6">
      <defs>
       <path id="m5e517aee55" d="M 0 0 
L -3.5 0 
" style="stroke: #000000; stroke-width: 0.8"/>
      </defs>
      <g>
       <use xlink:href="#m5e517aee55" x="56.18" y="313.087551" style="stroke: #000000; stroke-width: 0.8"/>
      </g>
     </g>
     <g id="text_7">
      <text style="font: 10px 'sans-serif'; text-anchor: end" x="49.18" y="316.88677" transform="rotate(-0, 49.18, 316.88677)">−2.0</text>
     </g>
    </g>
    <g id="ytick_2">
     <g id="line2d_7">
      <g>
       <use xlink:href="#m5e517aee55" x="56.18" y="275.796607" style="stroke: #000000; stroke-width: 0.8"/>
      </g>
     </g>
     <g id="text_8">
      <text style="font: 10px 'sans-serif'; text-anchor: end" x="49.18" y="279.595826" transform="rotate(-0, 49.18, 279.595826)">−1.5</text>
     </g>
    </g>
    <g id="ytick_3">
     <g id="line2d_8">
      <g>
       <use xlink:href="#m5e517aee55" x="56.18" y="238.505664" style="stroke: #000000; stroke-width: 0.8"/>
      </g>
     </g>
     <g id="text_9">
      <text style="font: 10px 'sans-serif'; text-anchor: end" x="49.18" y="242.304883" transform="rotate(-0, 49.18, 242.304883)">−1.0</text>
     </g>
    </g>
    <g id="ytick_4">
     <g id="line2d_9">
      <g>
       <use xlink:href="#m5e517aee55" x="56.18" y="201.21472" style="stroke: #000000; stroke-width: 0.8"/>
      </g>
     </g>
     <g id="text_10">
      <text style="font: 10px 'sans-serif'; text-anchor: end" x="49.18" y="205.013939" transform="rotate(-0, 49.18, 205.013939)">−0.5</text>
     </g>
    </g>
    <g id="ytick_5">
     <g id="line2d_10">
      <g>
       <use xlink:href="#m5e517aee55" x="56.18" y="163.923777" style="stroke: #000000; stroke-width: 0.8"/>
      </g>
     </g>
     <g id="text_11">
      <text style="font: 10px 'sans-serif'; text-anchor: end" x="49.18" y="167.722996" transform="rotate(-0, 49.18, 167.722996)">0.0</text>
     </g>
    </g>
    <g id="ytick_6">
     <g id="line2d_11">
      <g>
       <use xlink:href="#m5e517aee55" x="56.18" y="126.632833" style="stroke: #000000; stroke-width: 0.8"/>
      </g>
     </g>
     <g id="text_12">
      <text style="font: 10px 'sans-serif'; text-anchor: end" x="49.18" y="130.432052" transform="rotate(-0, 49.18, 130.432052)">0.5</text>
     </g>
    </g>
    <g id="ytick_7">
     <g id="line2d_12">
      <g>
       <use xlink:href="#m5e517aee55" x="56.18" y="89.34189" style="stroke: #000000; stroke-width: 0.8"/>
      </g>
     </g>
     <g id="text_13">
      <text style="font: 10px 'sans-serif'; text-anchor: end" x="49.18" y="93.141109" transform="rotate(-0, 49.18, 93.141109)">1.0</text>
     </g>
    </g>
    <g id="ytick_8">
     <g id="line2d_13">
      <g>
       <use xlink:href="#m5e517aee55" x="56.18" y="52.050946" style="stroke: #000000; stroke-width: 0.8"/>
      </g>
     </g>
     <g id="text_14">
      <text style="font: 10px 'sans-serif'; text-anchor: end" x="49.18" y="55.850165" transform="rotate(-0, 49.18, 55.850165)">1.5</text>
     </g>
    </g>
    <g id="ytick_9">
     <g id="line2d_14">
      <g>
       <use xlink:href="#m5e517aee55" x="56.18" y="14.760003" style="stroke: #000000; stroke-width: 0.8"/>
      </g>
     </g>
     <g id="text_15">
      <text style="font: 10px 'sans-serif'; text-anchor: end" x="49.18" y="18.559222" transform="rotate(-0, 49.18, 18.559222)">2.0</text>
     </g>
    </g>
    <g id="text_16">
     <text style="font: 10px 'sans-serif'; text-anchor: middle" x="18.8175" y="166.334407" transform="rotate(-90, 18.8175, 166.334407)">Conn Salience</text>
    </g>
   </g>
   <g id="line2d_15">
    <path d="M 69.499091 185.658951 
L 72.189816 185.502683 
L 74.880542 185.346414 
L 77.571267 185.190145 
L 80.261993 185.033876 
L 82.952718 184.877608 
L 85.643444 184.721339 
L 88.334169 184.56507 
L 91.024894 184.408802 
L 93.71562 184.252533 
L 96.406345 184.096264 
L 99.097071 183.939996 
L 101.787796 183.783727 
L 104.478522 183.627458 
L 107.169247 183.471189 
L 109.859972 183.314921 
L 112.550698 183.158652 
L 115.241423 183.002383 
L 117.932149 182.846115 
L 120.622874 182.689846 
L 123.3136 182.533577 
L 126.004325 182.377308 
L 128.695051 182.22104 
L 131.385776 182.064771 
L 134.076501 181.908502 
L 136.767227 181.752234 
L 139.457952 181.595965 
L 142.148678 181.439696 
L 144.839403 181.283427 
L 147.530129 181.127159 
L 150.220854 180.97089 
L 152.911579 180.814621 
L 155.602305 180.658353 
L 158.29303 180.502084 
L 160.983756 180.345815 
L 163.674481 180.189546 
L 166.365207 180.033278 
L 169.055932 179.877009 
L 171.746657 179.72074 
L 174.437383 179.564472 
L 177.128108 179.408203 
L 179.818834 179.251934 
L 182.509559 179.095665 
L 185.200285 178.939397 
L 187.89101 178.783128 
L 190.581736 178.626859 
L 193.272461 178.470591 
L 195.963186 178.314322 
L 198.653912 178.158053 
L 201.344637 178.001784 
L 204.035363 177.845516 
L 206.726088 177.689247 
L 209.416814 177.532978 
L 212.107539 177.37671 
L 214.798264 177.220441 
L 217.48899 177.064172 
L 220.179715 176.907903 
L 222.870441 176.751635 
L 225.561166 176.595366 
L 228.251892 176.439097 
L 230.942617 176.282829 
L 233.633343 176.12656 
L 236.324068 175.970291 
L 239.014793 175.814022 
L 241.705519 175.657754 
L 244.396244 175.501485 
L 247.08697 175.345216 
L 249.777695 175.188948 
L 252.468421 175.032679 
L 255.159146 174.87641 
L 257.849871 174.720141 
L 260.540597 174.563873 
L 263.231322 174.407604 
L 265.922048 174.251335 
L 268.612773 174.095067 
L 271.303499 173.938798 
L 273.994224 173.782529 
L 276.684949 173.62626 
L 279.375675 173.469992 
L 282.0664 173.313723 
L 284.757126 173.157454 
L 287.447851 173.001186 
L 290.138577 172.844917 
L 292.829302 172.688648 
L 295.520028 172.532379 
L 298.210753 172.376111 
L 300.901478 172.219842 
L 303.592204 172.063573 
L 306.282929 171.907305 
L 308.973655 171.751036 
L 311.66438 171.594767 
L 314.355106 171.438498 
L 317.045831 171.28223 
L 319.736556 171.125961 
L 322.427282 170.969692 
L 325.118007 170.813424 
L 327.808733 170.657155 
L 330.499458 170.500886 
L 333.190184 170.344617 
L 335.880909 170.188349 
" clip-path="url(#pcdcfd15444)" style="fill: none; stroke: #1f77b4; stroke-width: 2.25; stroke-linecap: square"/>
   </g>
   <g id="patch_3">
    <path d="M 56.18 317.93875 
L 56.18 14.730065 
" style="fill: none; stroke: #000000; stroke-width: 0.8; stroke-linejoin: miter; stroke-linecap: square"/>
   </g>
   <g id="patch_4">
    <path d="M 56.18 317.93875 
L 349.2 317.93875 
" style="fill: none; stroke: #000000; stroke-width: 0.8; stroke-linejoin: miter; stroke-linecap: square"/>
   </g>
  </g>
 </g>
 <defs>
  <clipPath id="pcdcfd15444">
   <rect x="56.18" y="14.730065" width="293.02" height="303.208685"/>
  </clipPath>
 </defs>
</svg>
