<?xml version="1.0" encoding="utf-8" standalone="no"?>
<!DOCTYPE svg PUBLIC "-//W3C//DTD SVG 1.1//EN"
  "http://www.w3.org/Graphics/SVG/1.1/DTD/svg11.dtd">
<svg xmlns:xlink="http://www.w3.org/1999/xlink" width="360pt" height="360pt" viewBox="0 0 360 360" xmlns="http://www.w3.org/2000/svg" version="1.1">
 <metadata>
  <rdf:RDF xmlns:dc="http://purl.org/dc/elements/1.1/" xmlns:cc="http://creativecommons.org/ns#" xmlns:rdf="http://www.w3.org/1999/02/22-rdf-syntax-ns#">
   <cc:Work>
    <dc:type rdf:resource="http://purl.org/dc/dcmitype/StillImage"/>
    <dc:date>2022-11-22T21:34:18.600228</dc:date>
    <dc:format>image/svg+xml</dc:format>
    <dc:creator>
     <cc:Agent>
      <dc:title>Matplotlib v3.5.3, https://matplotlib.org/</dc:title>
     </cc:Agent>
    </dc:creator>
   </cc:Work>
  </rdf:RDF>
 </metadata>
 <defs>
  <style type="text/css">*{stroke-linejoin: round; stroke-linecap: butt}</style>
 </defs>
 <g id="figure_1">
  <g id="patch_1">
   <path d="M 0 360 
L 360 360 
L 360 0 
L 0 0 
z
" style="fill: #ffffff"/>
  </g>
  <g id="axes_1">
   <g id="patch_2">
    <path d="M 56.18 317.93875 
L 349.2 317.93875 
L 349.2 10.8 
L 56.18 10.8 
z
" style="fill: #ffffff"/>
   </g>
   <g id="PathCollection_1">
    <defs>
     <path id="mfe23b12dd4" d="M 0 3 
C 0.795609 3 1.55874 2.683901 2.12132 2.12132 
C 2.683901 1.55874 3 0.795609 3 0 
C 3 -0.795609 2.683901 -1.55874 2.12132 -2.12132 
C 1.55874 -2.683901 0.795609 -3 0 -3 
C -0.795609 -3 -1.55874 -2.683901 -2.12132 -2.12132 
C -2.683901 -1.55874 -3 -0.795609 -3 0 
C -3 0.795609 -2.683901 1.55874 -2.12132 2.12132 
C -1.55874 2.683901 -0.795609 3 0 3 
z
" style="stroke: #1f77b4; stroke-opacity: 0.8"/>
    </defs>
    <g clip-path="url(#p96cc6a19bd)">
     <use xlink:href="#mfe23b12dd4" x="217.48899" y="243.505284" style="fill: #1f77b4; fill-opacity: 0.8; stroke: #1f77b4; stroke-opacity: 0.8"/>
     <use xlink:href="#mfe23b12dd4" x="217.48899" y="214.35892" style="fill: #1f77b4; fill-opacity: 0.8; stroke: #1f77b4; stroke-opacity: 0.8"/>
     <use xlink:href="#mfe23b12dd4" x="276.684949" y="293.878269" style="fill: #1f77b4; fill-opacity: 0.8; stroke: #1f77b4; stroke-opacity: 0.8"/>
     <use xlink:href="#mfe23b12dd4" x="187.89101" y="210.823442" style="fill: #1f77b4; fill-opacity: 0.8; stroke: #1f77b4; stroke-opacity: 0.8"/>
     <use xlink:href="#mfe23b12dd4" x="247.08697" y="205.172848" style="fill: #1f77b4; fill-opacity: 0.8; stroke: #1f77b4; stroke-opacity: 0.8"/>
     <use xlink:href="#mfe23b12dd4" x="158.29303" y="177.523286" style="fill: #1f77b4; fill-opacity: 0.8; stroke: #1f77b4; stroke-opacity: 0.8"/>
     <use xlink:href="#mfe23b12dd4" x="276.684949" y="232.142955" style="fill: #1f77b4; fill-opacity: 0.8; stroke: #1f77b4; stroke-opacity: 0.8"/>
     <use xlink:href="#mfe23b12dd4" x="69.499091" y="157.020871" style="fill: #1f77b4; fill-opacity: 0.8; stroke: #1f77b4; stroke-opacity: 0.8"/>
     <use xlink:href="#mfe23b12dd4" x="335.880909" y="220.695708" style="fill: #1f77b4; fill-opacity: 0.8; stroke: #1f77b4; stroke-opacity: 0.8"/>
     <use xlink:href="#mfe23b12dd4" x="99.097071" y="229.484848" style="fill: #1f77b4; fill-opacity: 0.8; stroke: #1f77b4; stroke-opacity: 0.8"/>
     <use xlink:href="#mfe23b12dd4" x="306.282929" y="156.114123" style="fill: #1f77b4; fill-opacity: 0.8; stroke: #1f77b4; stroke-opacity: 0.8"/>
     <use xlink:href="#mfe23b12dd4" x="276.684949" y="214.95501" style="fill: #1f77b4; fill-opacity: 0.8; stroke: #1f77b4; stroke-opacity: 0.8"/>
     <use xlink:href="#mfe23b12dd4" x="158.29303" y="173.973992" style="fill: #1f77b4; fill-opacity: 0.8; stroke: #1f77b4; stroke-opacity: 0.8"/>
     <use xlink:href="#mfe23b12dd4" x="276.684949" y="174.877682" style="fill: #1f77b4; fill-opacity: 0.8; stroke: #1f77b4; stroke-opacity: 0.8"/>
     <use xlink:href="#mfe23b12dd4" x="128.695051" y="236.04917" style="fill: #1f77b4; fill-opacity: 0.8; stroke: #1f77b4; stroke-opacity: 0.8"/>
     <use xlink:href="#mfe23b12dd4" x="335.880909" y="236.952371" style="fill: #1f77b4; fill-opacity: 0.8; stroke: #1f77b4; stroke-opacity: 0.8"/>
     <use xlink:href="#mfe23b12dd4" x="99.097071" y="51.124505" style="fill: #1f77b4; fill-opacity: 0.8; stroke: #1f77b4; stroke-opacity: 0.8"/>
     <use xlink:href="#mfe23b12dd4" x="306.282929" y="176.800128" style="fill: #1f77b4; fill-opacity: 0.8; stroke: #1f77b4; stroke-opacity: 0.8"/>
     <use xlink:href="#mfe23b12dd4" x="276.684949" y="100.495236" style="fill: #1f77b4; fill-opacity: 0.8; stroke: #1f77b4; stroke-opacity: 0.8"/>
     <use xlink:href="#mfe23b12dd4" x="247.08697" y="161.190919" style="fill: #1f77b4; fill-opacity: 0.8; stroke: #1f77b4; stroke-opacity: 0.8"/>
     <use xlink:href="#mfe23b12dd4" x="158.29303" y="228.332519" style="fill: #1f77b4; fill-opacity: 0.8; stroke: #1f77b4; stroke-opacity: 0.8"/>
     <use xlink:href="#mfe23b12dd4" x="128.695051" y="187.561256" style="fill: #1f77b4; fill-opacity: 0.8; stroke: #1f77b4; stroke-opacity: 0.8"/>
     <use xlink:href="#mfe23b12dd4" x="335.880909" y="207.261845" style="fill: #1f77b4; fill-opacity: 0.8; stroke: #1f77b4; stroke-opacity: 0.8"/>
     <use xlink:href="#mfe23b12dd4" x="187.89101" y="148.297061" style="fill: #1f77b4; fill-opacity: 0.8; stroke: #1f77b4; stroke-opacity: 0.8"/>
     <use xlink:href="#mfe23b12dd4" x="128.695051" y="24.760852" style="fill: #1f77b4; fill-opacity: 0.8; stroke: #1f77b4; stroke-opacity: 0.8"/>
     <use xlink:href="#mfe23b12dd4" x="69.499091" y="182.827966" style="fill: #1f77b4; fill-opacity: 0.8; stroke: #1f77b4; stroke-opacity: 0.8"/>
     <use xlink:href="#mfe23b12dd4" x="128.695051" y="227.672476" style="fill: #1f77b4; fill-opacity: 0.8; stroke: #1f77b4; stroke-opacity: 0.8"/>
     <use xlink:href="#mfe23b12dd4" x="335.880909" y="190.18532" style="fill: #1f77b4; fill-opacity: 0.8; stroke: #1f77b4; stroke-opacity: 0.8"/>
     <use xlink:href="#mfe23b12dd4" x="217.48899" y="303.977898" style="fill: #1f77b4; fill-opacity: 0.8; stroke: #1f77b4; stroke-opacity: 0.8"/>
     <use xlink:href="#mfe23b12dd4" x="247.08697" y="225.829763" style="fill: #1f77b4; fill-opacity: 0.8; stroke: #1f77b4; stroke-opacity: 0.8"/>
     <use xlink:href="#mfe23b12dd4" x="335.880909" y="87.407616" style="fill: #1f77b4; fill-opacity: 0.8; stroke: #1f77b4; stroke-opacity: 0.8"/>
     <use xlink:href="#mfe23b12dd4" x="158.29303" y="234.832464" style="fill: #1f77b4; fill-opacity: 0.8; stroke: #1f77b4; stroke-opacity: 0.8"/>
     <use xlink:href="#mfe23b12dd4" x="217.48899" y="181.023806" style="fill: #1f77b4; fill-opacity: 0.8; stroke: #1f77b4; stroke-opacity: 0.8"/>
     <use xlink:href="#mfe23b12dd4" x="99.097071" y="158.093641" style="fill: #1f77b4; fill-opacity: 0.8; stroke: #1f77b4; stroke-opacity: 0.8"/>
     <use xlink:href="#mfe23b12dd4" x="128.695051" y="188.531266" style="fill: #1f77b4; fill-opacity: 0.8; stroke: #1f77b4; stroke-opacity: 0.8"/>
     <use xlink:href="#mfe23b12dd4" x="69.499091" y="169.708745" style="fill: #1f77b4; fill-opacity: 0.8; stroke: #1f77b4; stroke-opacity: 0.8"/>
     <use xlink:href="#mfe23b12dd4" x="306.282929" y="126.817498" style="fill: #1f77b4; fill-opacity: 0.8; stroke: #1f77b4; stroke-opacity: 0.8"/>
     <use xlink:href="#mfe23b12dd4" x="69.499091" y="250.255977" style="fill: #1f77b4; fill-opacity: 0.8; stroke: #1f77b4; stroke-opacity: 0.8"/>
     <use xlink:href="#mfe23b12dd4" x="99.097071" y="56.669734" style="fill: #1f77b4; fill-opacity: 0.8; stroke: #1f77b4; stroke-opacity: 0.8"/>
     <use xlink:href="#mfe23b12dd4" x="187.89101" y="290.808437" style="fill: #1f77b4; fill-opacity: 0.8; stroke: #1f77b4; stroke-opacity: 0.8"/>
     <use xlink:href="#mfe23b12dd4" x="306.282929" y="129.479358" style="fill: #1f77b4; fill-opacity: 0.8; stroke: #1f77b4; stroke-opacity: 0.8"/>
     <use xlink:href="#mfe23b12dd4" x="247.08697" y="169.377187" style="fill: #1f77b4; fill-opacity: 0.8; stroke: #1f77b4; stroke-opacity: 0.8"/>
     <use xlink:href="#mfe23b12dd4" x="99.097071" y="45.182601" style="fill: #1f77b4; fill-opacity: 0.8; stroke: #1f77b4; stroke-opacity: 0.8"/>
     <use xlink:href="#mfe23b12dd4" x="158.29303" y="237.607136" style="fill: #1f77b4; fill-opacity: 0.8; stroke: #1f77b4; stroke-opacity: 0.8"/>
     <use xlink:href="#mfe23b12dd4" x="99.097071" y="187.775465" style="fill: #1f77b4; fill-opacity: 0.8; stroke: #1f77b4; stroke-opacity: 0.8"/>
     <use xlink:href="#mfe23b12dd4" x="217.48899" y="181.12432" style="fill: #1f77b4; fill-opacity: 0.8; stroke: #1f77b4; stroke-opacity: 0.8"/>
     <use xlink:href="#mfe23b12dd4" x="247.08697" y="227.761621" style="fill: #1f77b4; fill-opacity: 0.8; stroke: #1f77b4; stroke-opacity: 0.8"/>
    </g>
   </g>
   <g id="PolyCollection_1">
    <path d="M 69.499091 133.554988 
L 69.499091 209.238791 
L 72.189816 208.848168 
L 74.880542 208.457546 
L 77.571267 208.066923 
L 80.261993 207.6763 
L 82.952718 207.285554 
L 85.643444 206.894215 
L 88.334169 206.514185 
L 91.024894 206.373812 
L 93.71562 206.233438 
L 96.406345 206.005488 
L 99.097071 205.641554 
L 101.787796 205.476691 
L 104.478522 205.147104 
L 107.169247 204.962894 
L 109.859972 204.789958 
L 112.550698 204.631216 
L 115.241423 204.433353 
L 117.932149 204.261052 
L 120.622874 204.08875 
L 123.3136 204.036083 
L 126.004325 203.894601 
L 128.695051 203.739831 
L 131.385776 203.50601 
L 134.076501 203.227243 
L 136.767227 203.100935 
L 139.457952 203.14442 
L 142.148678 202.995215 
L 144.839403 202.799806 
L 147.530129 202.507745 
L 150.220854 202.50594 
L 152.911579 202.47982 
L 155.602305 202.731224 
L 158.29303 202.674582 
L 160.983756 202.765551 
L 163.674481 202.731653 
L 166.365207 202.603731 
L 169.055932 202.468734 
L 171.746657 202.394395 
L 174.437383 202.193661 
L 177.128108 202.060902 
L 179.818834 201.923912 
L 182.509559 201.759783 
L 185.200285 201.688647 
L 187.89101 201.523095 
L 190.581736 201.391722 
L 193.272461 201.496115 
L 195.963186 201.744141 
L 198.653912 201.990298 
L 201.344637 202.08505 
L 204.035363 202.487241 
L 206.726088 202.953576 
L 209.416814 203.419037 
L 212.107539 203.516984 
L 214.798264 203.930389 
L 217.48899 204.184105 
L 220.179715 204.432593 
L 222.870441 204.646563 
L 225.561166 204.935255 
L 228.251892 205.178847 
L 230.942617 205.277594 
L 233.633343 205.530744 
L 236.324068 205.946872 
L 239.014793 206.194875 
L 241.705519 206.598268 
L 244.396244 206.81806 
L 247.08697 207.449597 
L 249.777695 207.875947 
L 252.468421 208.416997 
L 255.159146 209.071801 
L 257.849871 209.620804 
L 260.540597 210.179274 
L 263.231322 210.706611 
L 265.922048 211.282397 
L 268.612773 211.988152 
L 271.303499 212.517048 
L 273.994224 213.034208 
L 276.684949 213.54845 
L 279.375675 213.861553 
L 282.0664 214.323454 
L 284.757126 215.112912 
L 287.447851 215.635246 
L 290.138577 216.028043 
L 292.829302 216.42865 
L 295.520028 217.196812 
L 298.210753 217.709714 
L 300.901478 218.634271 
L 303.592204 219.556298 
L 306.282929 220.197163 
L 308.973655 220.863942 
L 311.66438 221.678134 
L 314.355106 222.465894 
L 317.045831 223.310157 
L 319.736556 224.134843 
L 322.427282 225.018115 
L 325.118007 226.019023 
L 327.808733 226.79578 
L 330.499458 227.547793 
L 333.190184 228.22218 
L 335.880909 229.038402 
L 335.880909 170.311178 
L 335.880909 170.311178 
L 333.190184 170.649414 
L 330.499458 171.055912 
L 327.808733 171.189772 
L 325.118007 171.277461 
L 322.427282 171.517257 
L 319.736556 171.65192 
L 317.045831 171.782694 
L 314.355106 171.908821 
L 311.66438 172.034948 
L 308.973655 172.165417 
L 306.282929 172.298895 
L 303.592204 172.433652 
L 300.901478 172.755238 
L 298.210753 172.923307 
L 295.520028 173.195514 
L 292.829302 173.251518 
L 290.138577 173.19159 
L 287.447851 173.238127 
L 284.757126 173.277848 
L 282.0664 173.174176 
L 279.375675 173.071844 
L 276.684949 172.967175 
L 273.994224 173.175184 
L 271.303499 173.051907 
L 268.612773 173.338849 
L 265.922048 173.110231 
L 263.231322 173.326154 
L 260.540597 173.05979 
L 257.849871 172.780005 
L 255.159146 172.697102 
L 252.468421 172.515633 
L 249.777695 172.568126 
L 247.08697 172.227359 
L 244.396244 172.166776 
L 241.705519 172.118014 
L 239.014793 172.043134 
L 236.324068 171.980837 
L 233.633343 171.92258 
L 230.942617 171.929796 
L 228.251892 171.757457 
L 225.561166 171.743524 
L 222.870441 171.334976 
L 220.179715 170.870295 
L 217.48899 170.775756 
L 214.798264 170.766043 
L 212.107539 170.42574 
L 209.416814 169.854682 
L 206.726088 169.353147 
L 204.035363 168.858925 
L 201.344637 168.367348 
L 198.653912 167.767795 
L 195.963186 167.334325 
L 193.272461 166.368383 
L 190.581736 166.348823 
L 187.89101 165.848121 
L 185.200285 165.178113 
L 182.509559 164.229328 
L 179.818834 163.28135 
L 177.128108 162.439685 
L 174.437383 161.717659 
L 171.746657 161.410922 
L 169.055932 161.138617 
L 166.365207 160.571619 
L 163.674481 159.760043 
L 160.983756 159.262285 
L 158.29303 158.723866 
L 155.602305 158.230021 
L 152.911579 157.494955 
L 150.220854 156.759889 
L 147.530129 156.197092 
L 144.839403 155.652701 
L 142.148678 155.119967 
L 139.457952 154.590971 
L 136.767227 153.710877 
L 134.076501 153.300151 
L 131.385776 152.667377 
L 128.695051 151.929308 
L 126.004325 151.355081 
L 123.3136 150.394003 
L 120.622874 149.707158 
L 117.932149 148.8758 
L 115.241423 148.100193 
L 112.550698 147.20523 
L 109.859972 146.317774 
L 107.169247 145.80418 
L 104.478522 144.846229 
L 101.787796 143.838394 
L 99.097071 142.907818 
L 96.406345 142.057341 
L 93.71562 141.214898 
L 91.024894 140.471878 
L 88.334169 139.728857 
L 85.643444 138.985836 
L 82.952718 138.063277 
L 80.261993 137.115751 
L 77.571267 136.204722 
L 74.880542 135.259782 
L 72.189816 134.407385 
L 69.499091 133.554988 
z
" clip-path="url(#p96cc6a19bd)" style="fill: #1f77b4; fill-opacity: 0.15"/>
   </g>
   <g id="matplotlib.axis_1">
    <g id="xtick_1">
     <g id="line2d_1">
      <defs>
       <path id="maf2e8e2bf0" d="M 0 0 
L 0 3.5 
" style="stroke: #000000; stroke-width: 0.8"/>
      </defs>
      <g>
       <use xlink:href="#maf2e8e2bf0" x="85.204141" y="317.93875" style="stroke: #000000; stroke-width: 0.8"/>
      </g>
     </g>
     <g id="text_1">
      <text style="font: 10px 'sans-serif'; text-anchor: middle" x="85.204141" y="332.537188" transform="rotate(-0, 85.204141, 332.537188)">−4</text>
     </g>
    </g>
    <g id="xtick_2">
     <g id="line2d_2">
      <g>
       <use xlink:href="#maf2e8e2bf0" x="144.400101" y="317.93875" style="stroke: #000000; stroke-width: 0.8"/>
      </g>
     </g>
     <g id="text_2">
      <text style="font: 10px 'sans-serif'; text-anchor: middle" x="144.400101" y="332.537188" transform="rotate(-0, 144.400101, 332.537188)">−2</text>
     </g>
    </g>
    <g id="xtick_3">
     <g id="line2d_3">
      <g>
       <use xlink:href="#maf2e8e2bf0" x="203.596061" y="317.93875" style="stroke: #000000; stroke-width: 0.8"/>
      </g>
     </g>
     <g id="text_3">
      <text style="font: 10px 'sans-serif'; text-anchor: middle" x="203.596061" y="332.537188" transform="rotate(-0, 203.596061, 332.537188)">0</text>
     </g>
    </g>
    <g id="xtick_4">
     <g id="line2d_4">
      <g>
       <use xlink:href="#maf2e8e2bf0" x="262.79202" y="317.93875" style="stroke: #000000; stroke-width: 0.8"/>
      </g>
     </g>
     <g id="text_4">
      <text style="font: 10px 'sans-serif'; text-anchor: middle" x="262.79202" y="332.537188" transform="rotate(-0, 262.79202, 332.537188)">2</text>
     </g>
    </g>
    <g id="xtick_5">
     <g id="line2d_5">
      <g>
       <use xlink:href="#maf2e8e2bf0" x="321.98798" y="317.93875" style="stroke: #000000; stroke-width: 0.8"/>
      </g>
     </g>
     <g id="text_5">
      <text style="font: 10px 'sans-serif'; text-anchor: middle" x="321.98798" y="332.537188" transform="rotate(-0, 321.98798, 332.537188)">4</text>
     </g>
    </g>
    <g id="text_6">
     <text style="font: 10px 'sans-serif'; text-anchor: middle" x="202.69" y="346.215312" transform="rotate(-0, 202.69, 346.215312)">Composite_Reward</text>
    </g>
   </g>
   <g id="matplotlib.axis_2">
    <g id="ytick_1">
     <g id="line2d_6">
      <defs>
       <path id="mcddabb8ab1" d="M 0 0 
L -3.5 0 
" style="stroke: #000000; stroke-width: 0.8"/>
      </defs>
      <g>
       <use xlink:href="#mcddabb8ab1" x="56.18" y="290.212086" style="stroke: #000000; stroke-width: 0.8"/>
      </g>
     </g>
     <g id="text_7">
      <text style="font: 10px 'sans-serif'; text-anchor: end" x="49.18" y="294.011304" transform="rotate(-0, 49.18, 294.011304)">−0.6</text>
     </g>
    </g>
    <g id="ytick_2">
     <g id="line2d_7">
      <g>
       <use xlink:href="#mcddabb8ab1" x="56.18" y="253.95931" style="stroke: #000000; stroke-width: 0.8"/>
      </g>
     </g>
     <g id="text_8">
      <text style="font: 10px 'sans-serif'; text-anchor: end" x="49.18" y="257.758529" transform="rotate(-0, 49.18, 257.758529)">−0.4</text>
     </g>
    </g>
    <g id="ytick_3">
     <g id="line2d_8">
      <g>
       <use xlink:href="#mcddabb8ab1" x="56.18" y="217.706535" style="stroke: #000000; stroke-width: 0.8"/>
      </g>
     </g>
     <g id="text_9">
      <text style="font: 10px 'sans-serif'; text-anchor: end" x="49.18" y="221.505753" transform="rotate(-0, 49.18, 221.505753)">−0.2</text>
     </g>
    </g>
    <g id="ytick_4">
     <g id="line2d_9">
      <g>
       <use xlink:href="#mcddabb8ab1" x="56.18" y="181.453759" style="stroke: #000000; stroke-width: 0.8"/>
      </g>
     </g>
     <g id="text_10">
      <text style="font: 10px 'sans-serif'; text-anchor: end" x="49.18" y="185.252978" transform="rotate(-0, 49.18, 185.252978)">0.0</text>
     </g>
    </g>
    <g id="ytick_5">
     <g id="line2d_10">
      <g>
       <use xlink:href="#mcddabb8ab1" x="56.18" y="145.200983" style="stroke: #000000; stroke-width: 0.8"/>
      </g>
     </g>
     <g id="text_11">
      <text style="font: 10px 'sans-serif'; text-anchor: end" x="49.18" y="149.000202" transform="rotate(-0, 49.18, 149.000202)">0.2</text>
     </g>
    </g>
    <g id="ytick_6">
     <g id="line2d_11">
      <g>
       <use xlink:href="#mcddabb8ab1" x="56.18" y="108.948208" style="stroke: #000000; stroke-width: 0.8"/>
      </g>
     </g>
     <g id="text_12">
      <text style="font: 10px 'sans-serif'; text-anchor: end" x="49.18" y="112.747427" transform="rotate(-0, 49.18, 112.747427)">0.4</text>
     </g>
    </g>
    <g id="ytick_7">
     <g id="line2d_12">
      <g>
       <use xlink:href="#mcddabb8ab1" x="56.18" y="72.695432" style="stroke: #000000; stroke-width: 0.8"/>
      </g>
     </g>
     <g id="text_13">
      <text style="font: 10px 'sans-serif'; text-anchor: end" x="49.18" y="76.494651" transform="rotate(-0, 49.18, 76.494651)">0.6</text>
     </g>
    </g>
    <g id="ytick_8">
     <g id="line2d_13">
      <g>
       <use xlink:href="#mcddabb8ab1" x="56.18" y="36.442657" style="stroke: #000000; stroke-width: 0.8"/>
      </g>
     </g>
     <g id="text_14">
      <text style="font: 10px 'sans-serif'; text-anchor: end" x="49.18" y="40.241876" transform="rotate(-0, 49.18, 40.241876)">0.8</text>
     </g>
    </g>
    <g id="text_15">
     <text style="font: 10px 'sans-serif'; text-anchor: middle" x="18.8175" y="164.369375" transform="rotate(-90, 18.8175, 164.369375)">Conn Salience</text>
    </g>
   </g>
   <g id="line2d_14">
    <path d="M 69.499091 172.501668 
L 72.189816 172.765185 
L 74.880542 173.028703 
L 77.571267 173.29222 
L 80.261993 173.555737 
L 82.952718 173.819255 
L 85.643444 174.082772 
L 88.334169 174.346289 
L 91.024894 174.609806 
L 93.71562 174.873324 
L 96.406345 175.136841 
L 99.097071 175.400358 
L 101.787796 175.663876 
L 104.478522 175.927393 
L 107.169247 176.19091 
L 109.859972 176.454428 
L 112.550698 176.717945 
L 115.241423 176.981462 
L 117.932149 177.24498 
L 120.622874 177.508497 
L 123.3136 177.772014 
L 126.004325 178.035532 
L 128.695051 178.299049 
L 131.385776 178.562566 
L 134.076501 178.826084 
L 136.767227 179.089601 
L 139.457952 179.353118 
L 142.148678 179.616636 
L 144.839403 179.880153 
L 147.530129 180.14367 
L 150.220854 180.407187 
L 152.911579 180.670705 
L 155.602305 180.934222 
L 158.29303 181.197739 
L 160.983756 181.461257 
L 163.674481 181.724774 
L 166.365207 181.988291 
L 169.055932 182.251809 
L 171.746657 182.515326 
L 174.437383 182.778843 
L 177.128108 183.042361 
L 179.818834 183.305878 
L 182.509559 183.569395 
L 185.200285 183.832913 
L 187.89101 184.09643 
L 190.581736 184.359947 
L 193.272461 184.623465 
L 195.963186 184.886982 
L 198.653912 185.150499 
L 201.344637 185.414016 
L 204.035363 185.677534 
L 206.726088 185.941051 
L 209.416814 186.204568 
L 212.107539 186.468086 
L 214.798264 186.731603 
L 217.48899 186.99512 
L 220.179715 187.258638 
L 222.870441 187.522155 
L 225.561166 187.785672 
L 228.251892 188.04919 
L 230.942617 188.312707 
L 233.633343 188.576224 
L 236.324068 188.839742 
L 239.014793 189.103259 
L 241.705519 189.366776 
L 244.396244 189.630294 
L 247.08697 189.893811 
L 249.777695 190.157328 
L 252.468421 190.420845 
L 255.159146 190.684363 
L 257.849871 190.94788 
L 260.540597 191.211397 
L 263.231322 191.474915 
L 265.922048 191.738432 
L 268.612773 192.001949 
L 271.303499 192.265467 
L 273.994224 192.528984 
L 276.684949 192.792501 
L 279.375675 193.056019 
L 282.0664 193.319536 
L 284.757126 193.583053 
L 287.447851 193.846571 
L 290.138577 194.110088 
L 292.829302 194.373605 
L 295.520028 194.637123 
L 298.210753 194.90064 
L 300.901478 195.164157 
L 303.592204 195.427674 
L 306.282929 195.691192 
L 308.973655 195.954709 
L 311.66438 196.218226 
L 314.355106 196.481744 
L 317.045831 196.745261 
L 319.736556 197.008778 
L 322.427282 197.272296 
L 325.118007 197.535813 
L 327.808733 197.79933 
L 330.499458 198.062848 
L 333.190184 198.326365 
L 335.880909 198.589882 
" clip-path="url(#p96cc6a19bd)" style="fill: none; stroke: #1f77b4; stroke-width: 2.25; stroke-linecap: square"/>
   </g>
   <g id="patch_3">
    <path d="M 56.18 317.93875 
L 56.18 10.8 
" style="fill: none; stroke: #000000; stroke-width: 0.8; stroke-linejoin: miter; stroke-linecap: square"/>
   </g>
   <g id="patch_4">
    <path d="M 56.18 317.93875 
L 349.2 317.93875 
" style="fill: none; stroke: #000000; stroke-width: 0.8; stroke-linejoin: miter; stroke-linecap: square"/>
   </g>
  </g>
 </g>
 <defs>
  <clipPath id="p96cc6a19bd">
   <rect x="56.18" y="10.8" width="293.02" height="307.13875"/>
  </clipPath>
 </defs>
</svg>
