<?xml version="1.0" encoding="utf-8" standalone="no"?>
<!DOCTYPE svg PUBLIC "-//W3C//DTD SVG 1.1//EN"
  "http://www.w3.org/Graphics/SVG/1.1/DTD/svg11.dtd">
<svg xmlns:xlink="http://www.w3.org/1999/xlink" width="360pt" height="360pt" viewBox="0 0 360 360" xmlns="http://www.w3.org/2000/svg" version="1.1">
 <metadata>
  <rdf:RDF xmlns:dc="http://purl.org/dc/elements/1.1/" xmlns:cc="http://creativecommons.org/ns#" xmlns:rdf="http://www.w3.org/1999/02/22-rdf-syntax-ns#">
   <cc:Work>
    <dc:type rdf:resource="http://purl.org/dc/dcmitype/StillImage"/>
    <dc:date>2022-11-22T21:46:44.409741</dc:date>
    <dc:format>image/svg+xml</dc:format>
    <dc:creator>
     <cc:Agent>
      <dc:title>Matplotlib v3.5.3, https://matplotlib.org/</dc:title>
     </cc:Agent>
    </dc:creator>
   </cc:Work>
  </rdf:RDF>
 </metadata>
 <defs>
  <style type="text/css">*{stroke-linejoin: round; stroke-linecap: butt}</style>
 </defs>
 <g id="figure_1">
  <g id="patch_1">
   <path d="M 0 360 
L 360 360 
L 360 0 
L 0 0 
z
" style="fill: #ffffff"/>
  </g>
  <g id="axes_1">
   <g id="patch_2">
    <path d="M 56.18 317.93875 
L 349.2 317.93875 
L 349.2 10.8 
L 56.18 10.8 
z
" style="fill: #ffffff"/>
   </g>
   <g id="PathCollection_1">
    <defs>
     <path id="mcf58884afd" d="M 0 3 
C 0.795609 3 1.55874 2.683901 2.12132 2.12132 
C 2.683901 1.55874 3 0.795609 3 0 
C 3 -0.795609 2.683901 -1.55874 2.12132 -2.12132 
C 1.55874 -2.683901 0.795609 -3 0 -3 
C -0.795609 -3 -1.55874 -2.683901 -2.12132 -2.12132 
C -2.683901 -1.55874 -3 -0.795609 -3 0 
C -3 0.795609 -2.683901 1.55874 -2.12132 2.12132 
C -1.55874 2.683901 -0.795609 3 0 3 
z
" style="stroke: #1f77b4; stroke-opacity: 0.8"/>
    </defs>
    <g clip-path="url(#p4921c4b1c5)">
     <use xlink:href="#mcf58884afd" x="217.48899" y="104.123335" style="fill: #1f77b4; fill-opacity: 0.8; stroke: #1f77b4; stroke-opacity: 0.8"/>
     <use xlink:href="#mcf58884afd" x="217.48899" y="66.04778" style="fill: #1f77b4; fill-opacity: 0.8; stroke: #1f77b4; stroke-opacity: 0.8"/>
     <use xlink:href="#mcf58884afd" x="276.684949" y="229.204976" style="fill: #1f77b4; fill-opacity: 0.8; stroke: #1f77b4; stroke-opacity: 0.8"/>
     <use xlink:href="#mcf58884afd" x="187.89101" y="303.977898" style="fill: #1f77b4; fill-opacity: 0.8; stroke: #1f77b4; stroke-opacity: 0.8"/>
     <use xlink:href="#mcf58884afd" x="247.08697" y="60.020666" style="fill: #1f77b4; fill-opacity: 0.8; stroke: #1f77b4; stroke-opacity: 0.8"/>
     <use xlink:href="#mcf58884afd" x="158.29303" y="97.683813" style="fill: #1f77b4; fill-opacity: 0.8; stroke: #1f77b4; stroke-opacity: 0.8"/>
     <use xlink:href="#mcf58884afd" x="276.684949" y="154.726818" style="fill: #1f77b4; fill-opacity: 0.8; stroke: #1f77b4; stroke-opacity: 0.8"/>
     <use xlink:href="#mcf58884afd" x="69.499091" y="162.976987" style="fill: #1f77b4; fill-opacity: 0.8; stroke: #1f77b4; stroke-opacity: 0.8"/>
     <use xlink:href="#mcf58884afd" x="335.880909" y="164.471452" style="fill: #1f77b4; fill-opacity: 0.8; stroke: #1f77b4; stroke-opacity: 0.8"/>
     <use xlink:href="#mcf58884afd" x="99.097071" y="88.680228" style="fill: #1f77b4; fill-opacity: 0.8; stroke: #1f77b4; stroke-opacity: 0.8"/>
     <use xlink:href="#mcf58884afd" x="306.282929" y="151.998193" style="fill: #1f77b4; fill-opacity: 0.8; stroke: #1f77b4; stroke-opacity: 0.8"/>
     <use xlink:href="#mcf58884afd" x="276.684949" y="92.391886" style="fill: #1f77b4; fill-opacity: 0.8; stroke: #1f77b4; stroke-opacity: 0.8"/>
     <use xlink:href="#mcf58884afd" x="158.29303" y="97.464733" style="fill: #1f77b4; fill-opacity: 0.8; stroke: #1f77b4; stroke-opacity: 0.8"/>
     <use xlink:href="#mcf58884afd" x="276.684949" y="114.581385" style="fill: #1f77b4; fill-opacity: 0.8; stroke: #1f77b4; stroke-opacity: 0.8"/>
     <use xlink:href="#mcf58884afd" x="128.695051" y="174.13395" style="fill: #1f77b4; fill-opacity: 0.8; stroke: #1f77b4; stroke-opacity: 0.8"/>
     <use xlink:href="#mcf58884afd" x="335.880909" y="209.709318" style="fill: #1f77b4; fill-opacity: 0.8; stroke: #1f77b4; stroke-opacity: 0.8"/>
     <use xlink:href="#mcf58884afd" x="99.097071" y="60.81584" style="fill: #1f77b4; fill-opacity: 0.8; stroke: #1f77b4; stroke-opacity: 0.8"/>
     <use xlink:href="#mcf58884afd" x="306.282929" y="162.977104" style="fill: #1f77b4; fill-opacity: 0.8; stroke: #1f77b4; stroke-opacity: 0.8"/>
     <use xlink:href="#mcf58884afd" x="276.684949" y="175.420703" style="fill: #1f77b4; fill-opacity: 0.8; stroke: #1f77b4; stroke-opacity: 0.8"/>
     <use xlink:href="#mcf58884afd" x="247.08697" y="146.991661" style="fill: #1f77b4; fill-opacity: 0.8; stroke: #1f77b4; stroke-opacity: 0.8"/>
     <use xlink:href="#mcf58884afd" x="158.29303" y="134.841666" style="fill: #1f77b4; fill-opacity: 0.8; stroke: #1f77b4; stroke-opacity: 0.8"/>
     <use xlink:href="#mcf58884afd" x="128.695051" y="150.471264" style="fill: #1f77b4; fill-opacity: 0.8; stroke: #1f77b4; stroke-opacity: 0.8"/>
     <use xlink:href="#mcf58884afd" x="335.880909" y="95.513121" style="fill: #1f77b4; fill-opacity: 0.8; stroke: #1f77b4; stroke-opacity: 0.8"/>
     <use xlink:href="#mcf58884afd" x="187.89101" y="24.760852" style="fill: #1f77b4; fill-opacity: 0.8; stroke: #1f77b4; stroke-opacity: 0.8"/>
     <use xlink:href="#mcf58884afd" x="128.695051" y="168.316375" style="fill: #1f77b4; fill-opacity: 0.8; stroke: #1f77b4; stroke-opacity: 0.8"/>
     <use xlink:href="#mcf58884afd" x="69.499091" y="173.299237" style="fill: #1f77b4; fill-opacity: 0.8; stroke: #1f77b4; stroke-opacity: 0.8"/>
     <use xlink:href="#mcf58884afd" x="128.695051" y="104.551592" style="fill: #1f77b4; fill-opacity: 0.8; stroke: #1f77b4; stroke-opacity: 0.8"/>
     <use xlink:href="#mcf58884afd" x="335.880909" y="114.438388" style="fill: #1f77b4; fill-opacity: 0.8; stroke: #1f77b4; stroke-opacity: 0.8"/>
     <use xlink:href="#mcf58884afd" x="217.48899" y="102.739602" style="fill: #1f77b4; fill-opacity: 0.8; stroke: #1f77b4; stroke-opacity: 0.8"/>
     <use xlink:href="#mcf58884afd" x="247.08697" y="96.5643" style="fill: #1f77b4; fill-opacity: 0.8; stroke: #1f77b4; stroke-opacity: 0.8"/>
     <use xlink:href="#mcf58884afd" x="335.880909" y="151.917417" style="fill: #1f77b4; fill-opacity: 0.8; stroke: #1f77b4; stroke-opacity: 0.8"/>
     <use xlink:href="#mcf58884afd" x="158.29303" y="106.53746" style="fill: #1f77b4; fill-opacity: 0.8; stroke: #1f77b4; stroke-opacity: 0.8"/>
     <use xlink:href="#mcf58884afd" x="217.48899" y="85.269703" style="fill: #1f77b4; fill-opacity: 0.8; stroke: #1f77b4; stroke-opacity: 0.8"/>
     <use xlink:href="#mcf58884afd" x="99.097071" y="58.675312" style="fill: #1f77b4; fill-opacity: 0.8; stroke: #1f77b4; stroke-opacity: 0.8"/>
     <use xlink:href="#mcf58884afd" x="128.695051" y="176.963308" style="fill: #1f77b4; fill-opacity: 0.8; stroke: #1f77b4; stroke-opacity: 0.8"/>
     <use xlink:href="#mcf58884afd" x="69.499091" y="151.579071" style="fill: #1f77b4; fill-opacity: 0.8; stroke: #1f77b4; stroke-opacity: 0.8"/>
     <use xlink:href="#mcf58884afd" x="306.282929" y="120.125642" style="fill: #1f77b4; fill-opacity: 0.8; stroke: #1f77b4; stroke-opacity: 0.8"/>
     <use xlink:href="#mcf58884afd" x="69.499091" y="178.624001" style="fill: #1f77b4; fill-opacity: 0.8; stroke: #1f77b4; stroke-opacity: 0.8"/>
     <use xlink:href="#mcf58884afd" x="99.097071" y="222.464465" style="fill: #1f77b4; fill-opacity: 0.8; stroke: #1f77b4; stroke-opacity: 0.8"/>
     <use xlink:href="#mcf58884afd" x="187.89101" y="210.531248" style="fill: #1f77b4; fill-opacity: 0.8; stroke: #1f77b4; stroke-opacity: 0.8"/>
     <use xlink:href="#mcf58884afd" x="306.282929" y="87.546997" style="fill: #1f77b4; fill-opacity: 0.8; stroke: #1f77b4; stroke-opacity: 0.8"/>
     <use xlink:href="#mcf58884afd" x="247.08697" y="175.706498" style="fill: #1f77b4; fill-opacity: 0.8; stroke: #1f77b4; stroke-opacity: 0.8"/>
     <use xlink:href="#mcf58884afd" x="99.097071" y="191.827665" style="fill: #1f77b4; fill-opacity: 0.8; stroke: #1f77b4; stroke-opacity: 0.8"/>
     <use xlink:href="#mcf58884afd" x="158.29303" y="204.292995" style="fill: #1f77b4; fill-opacity: 0.8; stroke: #1f77b4; stroke-opacity: 0.8"/>
     <use xlink:href="#mcf58884afd" x="99.097071" y="147.453477" style="fill: #1f77b4; fill-opacity: 0.8; stroke: #1f77b4; stroke-opacity: 0.8"/>
     <use xlink:href="#mcf58884afd" x="217.48899" y="146.641315" style="fill: #1f77b4; fill-opacity: 0.8; stroke: #1f77b4; stroke-opacity: 0.8"/>
     <use xlink:href="#mcf58884afd" x="247.08697" y="118.273569" style="fill: #1f77b4; fill-opacity: 0.8; stroke: #1f77b4; stroke-opacity: 0.8"/>
    </g>
   </g>
   <g id="PolyCollection_1">
    <path d="M 69.499091 114.624343 
L 69.499091 169.620992 
L 72.189816 169.216409 
L 74.880542 168.810293 
L 77.571267 168.379403 
L 80.261993 167.999959 
L 82.952718 167.390877 
L 85.643444 166.808853 
L 88.334169 166.298068 
L 91.024894 165.840041 
L 93.71562 165.287564 
L 96.406345 164.998862 
L 99.097071 164.768396 
L 101.787796 164.466705 
L 104.478522 163.983449 
L 107.169247 163.497001 
L 109.859972 163.150421 
L 112.550698 162.94376 
L 115.241423 162.563171 
L 117.932149 162.048125 
L 120.622874 161.608357 
L 123.3136 161.204204 
L 126.004325 160.745609 
L 128.695051 160.575417 
L 131.385776 160.231945 
L 134.076501 159.900886 
L 136.767227 159.717405 
L 139.457952 159.390467 
L 142.148678 158.959451 
L 144.839403 158.514009 
L 147.530129 158.165235 
L 150.220854 157.821232 
L 152.911579 157.478842 
L 155.602305 157.069922 
L 158.29303 156.566127 
L 160.983756 156.25762 
L 163.674481 155.981948 
L 166.365207 155.702461 
L 169.055932 155.372866 
L 171.746657 155.069018 
L 174.437383 154.76508 
L 177.128108 154.49086 
L 179.818834 154.222511 
L 182.509559 154.072796 
L 185.200285 154.009784 
L 187.89101 153.972094 
L 190.581736 153.931295 
L 193.272461 153.743685 
L 195.963186 153.485197 
L 198.653912 153.229769 
L 201.344637 153.067136 
L 204.035363 152.847264 
L 206.726088 152.63319 
L 209.416814 152.423185 
L 212.107539 152.236435 
L 214.798264 152.254788 
L 217.48899 152.535755 
L 220.179715 152.804073 
L 222.870441 152.318245 
L 225.561166 152.299797 
L 228.251892 151.957615 
L 230.942617 151.877945 
L 233.633343 151.722331 
L 236.324068 151.844442 
L 239.014793 152.030455 
L 241.705519 152.084481 
L 244.396244 152.220818 
L 247.08697 152.186169 
L 249.777695 152.079559 
L 252.468421 152.168478 
L 255.159146 152.042752 
L 257.849871 152.057289 
L 260.540597 151.935141 
L 263.231322 151.893646 
L 265.922048 151.836654 
L 268.612773 151.910352 
L 271.303499 152.018264 
L 273.994224 152.091952 
L 276.684949 152.228998 
L 279.375675 152.518452 
L 282.0664 152.669592 
L 284.757126 152.743143 
L 287.447851 152.978011 
L 290.138577 153.18879 
L 292.829302 153.278462 
L 295.520028 153.431298 
L 298.210753 153.584025 
L 300.901478 153.736187 
L 303.592204 153.894084 
L 306.282929 154.05198 
L 308.973655 154.206453 
L 311.66438 154.360146 
L 314.355106 154.512067 
L 317.045831 154.663988 
L 319.736556 154.815909 
L 322.427282 154.96783 
L 325.118007 155.137866 
L 327.808733 155.372666 
L 330.499458 155.607112 
L 333.190184 155.841557 
L 335.880909 156.083162 
L 335.880909 108.387864 
L 335.880909 108.387864 
L 333.190184 108.740394 
L 330.499458 109.092923 
L 327.808733 109.553615 
L 325.118007 109.928529 
L 322.427282 110.489988 
L 319.736556 110.800394 
L 317.045831 111.1108 
L 314.355106 111.422314 
L 311.66438 111.8839 
L 308.973655 112.199629 
L 306.282929 112.354261 
L 303.592204 112.662829 
L 300.901478 112.973235 
L 298.210753 113.285797 
L 295.520028 113.65194 
L 292.829302 114.221501 
L 290.138577 114.792986 
L 287.447851 115.36447 
L 284.757126 115.935955 
L 282.0664 116.50744 
L 279.375675 116.848944 
L 276.684949 117.138906 
L 273.994224 117.515776 
L 271.303499 117.786846 
L 268.612773 117.993591 
L 265.922048 118.273307 
L 263.231322 118.434838 
L 260.540597 118.78345 
L 257.849871 119.11972 
L 255.159146 119.387948 
L 252.468421 119.414851 
L 249.777695 119.845272 
L 247.08697 120.056639 
L 244.396244 120.273447 
L 241.705519 120.758677 
L 239.014793 121.025992 
L 236.324068 121.31172 
L 233.633343 121.479369 
L 230.942617 121.734987 
L 228.251892 122.067344 
L 225.561166 122.175386 
L 222.870441 122.506401 
L 220.179715 122.499035 
L 217.48899 122.698572 
L 214.798264 122.677906 
L 212.107539 122.872477 
L 209.416814 122.922923 
L 206.726088 122.954758 
L 204.035363 122.867953 
L 201.344637 123.077166 
L 198.653912 122.695124 
L 195.963186 122.571367 
L 193.272461 122.704731 
L 190.581736 122.794275 
L 187.89101 122.770425 
L 185.200285 122.683612 
L 182.509559 122.519102 
L 179.818834 122.177074 
L 177.128108 122.107364 
L 174.437383 122.14035 
L 171.746657 122.178668 
L 169.055932 122.215846 
L 166.365207 122.078715 
L 163.674481 121.839965 
L 160.983756 121.78638 
L 158.29303 121.475607 
L 155.602305 121.475423 
L 152.911579 121.473163 
L 150.220854 121.100921 
L 147.530129 120.625786 
L 144.839403 120.197359 
L 142.148678 119.920144 
L 139.457952 119.651141 
L 136.767227 119.468831 
L 134.076501 119.369133 
L 131.385776 119.275667 
L 128.695051 119.177686 
L 126.004325 119.079706 
L 123.3136 118.981725 
L 120.622874 118.959784 
L 117.932149 118.979421 
L 115.241423 118.836349 
L 112.550698 118.591206 
L 109.859972 118.491822 
L 107.169247 118.350048 
L 104.478522 118.042698 
L 101.787796 117.732865 
L 99.097071 117.423032 
L 96.406345 117.113199 
L 93.71562 116.803366 
L 91.024894 116.493693 
L 88.334169 116.1855 
L 85.643444 115.877307 
L 82.952718 115.571688 
L 80.261993 115.397709 
L 77.571267 115.236267 
L 74.880542 115.074825 
L 72.189816 114.913383 
L 69.499091 114.624343 
z
" clip-path="url(#p4921c4b1c5)" style="fill: #1f77b4; fill-opacity: 0.15"/>
   </g>
   <g id="matplotlib.axis_1">
    <g id="xtick_1">
     <g id="line2d_1">
      <defs>
       <path id="m33842af718" d="M 0 0 
L 0 3.5 
" style="stroke: #000000; stroke-width: 0.8"/>
      </defs>
      <g>
       <use xlink:href="#m33842af718" x="85.204141" y="317.93875" style="stroke: #000000; stroke-width: 0.8"/>
      </g>
     </g>
     <g id="text_1">
      <text style="font: 10px 'sans-serif'; text-anchor: middle" x="85.204141" y="332.537188" transform="rotate(-0, 85.204141, 332.537188)">−4</text>
     </g>
    </g>
    <g id="xtick_2">
     <g id="line2d_2">
      <g>
       <use xlink:href="#m33842af718" x="144.400101" y="317.93875" style="stroke: #000000; stroke-width: 0.8"/>
      </g>
     </g>
     <g id="text_2">
      <text style="font: 10px 'sans-serif'; text-anchor: middle" x="144.400101" y="332.537188" transform="rotate(-0, 144.400101, 332.537188)">−2</text>
     </g>
    </g>
    <g id="xtick_3">
     <g id="line2d_3">
      <g>
       <use xlink:href="#m33842af718" x="203.596061" y="317.93875" style="stroke: #000000; stroke-width: 0.8"/>
      </g>
     </g>
     <g id="text_3">
      <text style="font: 10px 'sans-serif'; text-anchor: middle" x="203.596061" y="332.537188" transform="rotate(-0, 203.596061, 332.537188)">0</text>
     </g>
    </g>
    <g id="xtick_4">
     <g id="line2d_4">
      <g>
       <use xlink:href="#m33842af718" x="262.79202" y="317.93875" style="stroke: #000000; stroke-width: 0.8"/>
      </g>
     </g>
     <g id="text_4">
      <text style="font: 10px 'sans-serif'; text-anchor: middle" x="262.79202" y="332.537188" transform="rotate(-0, 262.79202, 332.537188)">2</text>
     </g>
    </g>
    <g id="xtick_5">
     <g id="line2d_5">
      <g>
       <use xlink:href="#m33842af718" x="321.98798" y="317.93875" style="stroke: #000000; stroke-width: 0.8"/>
      </g>
     </g>
     <g id="text_5">
      <text style="font: 10px 'sans-serif'; text-anchor: middle" x="321.98798" y="332.537188" transform="rotate(-0, 321.98798, 332.537188)">4</text>
     </g>
    </g>
    <g id="text_6">
     <text style="font: 10px 'sans-serif'; text-anchor: middle" x="202.69" y="346.215312" transform="rotate(-0, 202.69, 346.215312)">Composite_Reward</text>
    </g>
   </g>
   <g id="matplotlib.axis_2">
    <g id="ytick_1">
     <g id="line2d_6">
      <defs>
       <path id="mad3c0007a0" d="M 0 0 
L -3.5 0 
" style="stroke: #000000; stroke-width: 0.8"/>
      </defs>
      <g>
       <use xlink:href="#mad3c0007a0" x="56.18" y="314.463549" style="stroke: #000000; stroke-width: 0.8"/>
      </g>
     </g>
     <g id="text_7">
      <text style="font: 10px 'sans-serif'; text-anchor: end" x="49.18" y="318.262768" transform="rotate(-0, 49.18, 318.262768)">−2.0</text>
     </g>
    </g>
    <g id="ytick_2">
     <g id="line2d_7">
      <g>
       <use xlink:href="#mad3c0007a0" x="56.18" y="270.999373" style="stroke: #000000; stroke-width: 0.8"/>
      </g>
     </g>
     <g id="text_8">
      <text style="font: 10px 'sans-serif'; text-anchor: end" x="49.18" y="274.798592" transform="rotate(-0, 49.18, 274.798592)">−1.5</text>
     </g>
    </g>
    <g id="ytick_3">
     <g id="line2d_8">
      <g>
       <use xlink:href="#mad3c0007a0" x="56.18" y="227.535198" style="stroke: #000000; stroke-width: 0.8"/>
      </g>
     </g>
     <g id="text_9">
      <text style="font: 10px 'sans-serif'; text-anchor: end" x="49.18" y="231.334417" transform="rotate(-0, 49.18, 231.334417)">−1.0</text>
     </g>
    </g>
    <g id="ytick_4">
     <g id="line2d_9">
      <g>
       <use xlink:href="#mad3c0007a0" x="56.18" y="184.071022" style="stroke: #000000; stroke-width: 0.8"/>
      </g>
     </g>
     <g id="text_10">
      <text style="font: 10px 'sans-serif'; text-anchor: end" x="49.18" y="187.870241" transform="rotate(-0, 49.18, 187.870241)">−0.5</text>
     </g>
    </g>
    <g id="ytick_5">
     <g id="line2d_10">
      <g>
       <use xlink:href="#mad3c0007a0" x="56.18" y="140.606847" style="stroke: #000000; stroke-width: 0.8"/>
      </g>
     </g>
     <g id="text_11">
      <text style="font: 10px 'sans-serif'; text-anchor: end" x="49.18" y="144.406066" transform="rotate(-0, 49.18, 144.406066)">0.0</text>
     </g>
    </g>
    <g id="ytick_6">
     <g id="line2d_11">
      <g>
       <use xlink:href="#mad3c0007a0" x="56.18" y="97.142672" style="stroke: #000000; stroke-width: 0.8"/>
      </g>
     </g>
     <g id="text_12">
      <text style="font: 10px 'sans-serif'; text-anchor: end" x="49.18" y="100.94189" transform="rotate(-0, 49.18, 100.94189)">0.5</text>
     </g>
    </g>
    <g id="ytick_7">
     <g id="line2d_12">
      <g>
       <use xlink:href="#mad3c0007a0" x="56.18" y="53.678496" style="stroke: #000000; stroke-width: 0.8"/>
      </g>
     </g>
     <g id="text_13">
      <text style="font: 10px 'sans-serif'; text-anchor: end" x="49.18" y="57.477715" transform="rotate(-0, 49.18, 57.477715)">1.0</text>
     </g>
    </g>
    <g id="text_14">
     <text style="font: 10px 'sans-serif'; text-anchor: middle" x="18.8175" y="164.369375" transform="rotate(-90, 18.8175, 164.369375)">Conn Salience</text>
    </g>
   </g>
   <g id="line2d_13">
    <path d="M 69.499091 143.783666 
L 72.189816 143.679984 
L 74.880542 143.576301 
L 77.571267 143.472618 
L 80.261993 143.368936 
L 82.952718 143.265253 
L 85.643444 143.16157 
L 88.334169 143.057888 
L 91.024894 142.954205 
L 93.71562 142.850522 
L 96.406345 142.746839 
L 99.097071 142.643157 
L 101.787796 142.539474 
L 104.478522 142.435791 
L 107.169247 142.332109 
L 109.859972 142.228426 
L 112.550698 142.124743 
L 115.241423 142.02106 
L 117.932149 141.917378 
L 120.622874 141.813695 
L 123.3136 141.710012 
L 126.004325 141.60633 
L 128.695051 141.502647 
L 131.385776 141.398964 
L 134.076501 141.295281 
L 136.767227 141.191599 
L 139.457952 141.087916 
L 142.148678 140.984233 
L 144.839403 140.880551 
L 147.530129 140.776868 
L 150.220854 140.673185 
L 152.911579 140.569502 
L 155.602305 140.46582 
L 158.29303 140.362137 
L 160.983756 140.258454 
L 163.674481 140.154772 
L 166.365207 140.051089 
L 169.055932 139.947406 
L 171.746657 139.843724 
L 174.437383 139.740041 
L 177.128108 139.636358 
L 179.818834 139.532675 
L 182.509559 139.428993 
L 185.200285 139.32531 
L 187.89101 139.221627 
L 190.581736 139.117945 
L 193.272461 139.014262 
L 195.963186 138.910579 
L 198.653912 138.806896 
L 201.344637 138.703214 
L 204.035363 138.599531 
L 206.726088 138.495848 
L 209.416814 138.392166 
L 212.107539 138.288483 
L 214.798264 138.1848 
L 217.48899 138.081117 
L 220.179715 137.977435 
L 222.870441 137.873752 
L 225.561166 137.770069 
L 228.251892 137.666387 
L 230.942617 137.562704 
L 233.633343 137.459021 
L 236.324068 137.355338 
L 239.014793 137.251656 
L 241.705519 137.147973 
L 244.396244 137.04429 
L 247.08697 136.940608 
L 249.777695 136.836925 
L 252.468421 136.733242 
L 255.159146 136.62956 
L 257.849871 136.525877 
L 260.540597 136.422194 
L 263.231322 136.318511 
L 265.922048 136.214829 
L 268.612773 136.111146 
L 271.303499 136.007463 
L 273.994224 135.903781 
L 276.684949 135.800098 
L 279.375675 135.696415 
L 282.0664 135.592732 
L 284.757126 135.48905 
L 287.447851 135.385367 
L 290.138577 135.281684 
L 292.829302 135.178002 
L 295.520028 135.074319 
L 298.210753 134.970636 
L 300.901478 134.866953 
L 303.592204 134.763271 
L 306.282929 134.659588 
L 308.973655 134.555905 
L 311.66438 134.452223 
L 314.355106 134.34854 
L 317.045831 134.244857 
L 319.736556 134.141174 
L 322.427282 134.037492 
L 325.118007 133.933809 
L 327.808733 133.830126 
L 330.499458 133.726444 
L 333.190184 133.622761 
L 335.880909 133.519078 
" clip-path="url(#p4921c4b1c5)" style="fill: none; stroke: #1f77b4; stroke-width: 2.25; stroke-linecap: square"/>
   </g>
   <g id="patch_3">
    <path d="M 56.18 317.93875 
L 56.18 10.8 
" style="fill: none; stroke: #000000; stroke-width: 0.8; stroke-linejoin: miter; stroke-linecap: square"/>
   </g>
   <g id="patch_4">
    <path d="M 56.18 317.93875 
L 349.2 317.93875 
" style="fill: none; stroke: #000000; stroke-width: 0.8; stroke-linejoin: miter; stroke-linecap: square"/>
   </g>
  </g>
 </g>
 <defs>
  <clipPath id="p4921c4b1c5">
   <rect x="56.18" y="10.8" width="293.02" height="307.13875"/>
  </clipPath>
 </defs>
</svg>
