<?xml version="1.0" encoding="utf-8" standalone="no"?>
<!DOCTYPE svg PUBLIC "-//W3C//DTD SVG 1.1//EN"
  "http://www.w3.org/Graphics/SVG/1.1/DTD/svg11.dtd">
<svg xmlns:xlink="http://www.w3.org/1999/xlink" width="360pt" height="360pt" viewBox="0 0 360 360" xmlns="http://www.w3.org/2000/svg" version="1.1">
 <metadata>
  <rdf:RDF xmlns:dc="http://purl.org/dc/elements/1.1/" xmlns:cc="http://creativecommons.org/ns#" xmlns:rdf="http://www.w3.org/1999/02/22-rdf-syntax-ns#">
   <cc:Work>
    <dc:type rdf:resource="http://purl.org/dc/dcmitype/StillImage"/>
    <dc:date>2022-11-22T21:32:08.802962</dc:date>
    <dc:format>image/svg+xml</dc:format>
    <dc:creator>
     <cc:Agent>
      <dc:title>Matplotlib v3.5.3, https://matplotlib.org/</dc:title>
     </cc:Agent>
    </dc:creator>
   </cc:Work>
  </rdf:RDF>
 </metadata>
 <defs>
  <style type="text/css">*{stroke-linejoin: round; stroke-linecap: butt}</style>
 </defs>
 <g id="figure_1">
  <g id="patch_1">
   <path d="M 0 360 
L 360 360 
L 360 0 
L 0 0 
z
" style="fill: #ffffff"/>
  </g>
  <g id="axes_1">
   <g id="patch_2">
    <path d="M 56.18 317.93875 
L 349.2 317.93875 
L 349.2 14.758117 
L 56.18 14.758117 
z
" style="fill: #ffffff"/>
   </g>
   <g id="PathCollection_1">
    <defs>
     <path id="ma47ff1514a" d="M 0 3 
C 0.795609 3 1.55874 2.683901 2.12132 2.12132 
C 2.683901 1.55874 3 0.795609 3 0 
C 3 -0.795609 2.683901 -1.55874 2.12132 -2.12132 
C 1.55874 -2.683901 0.795609 -3 0 -3 
C -0.795609 -3 -1.55874 -2.683901 -2.12132 -2.12132 
C -2.683901 -1.55874 -3 -0.795609 -3 0 
C -3 0.795609 -2.683901 1.55874 -2.12132 2.12132 
C -1.55874 2.683901 -0.795609 3 0 3 
z
" style="stroke: #1f77b4; stroke-opacity: 0.8"/>
    </defs>
    <g clip-path="url(#pebea1b6787)">
     <use xlink:href="#ma47ff1514a" x="217.48899" y="227.767672" style="fill: #1f77b4; fill-opacity: 0.8; stroke: #1f77b4; stroke-opacity: 0.8"/>
     <use xlink:href="#ma47ff1514a" x="217.48899" y="189.597811" style="fill: #1f77b4; fill-opacity: 0.8; stroke: #1f77b4; stroke-opacity: 0.8"/>
     <use xlink:href="#ma47ff1514a" x="276.684949" y="145.41953" style="fill: #1f77b4; fill-opacity: 0.8; stroke: #1f77b4; stroke-opacity: 0.8"/>
     <use xlink:href="#ma47ff1514a" x="187.89101" y="187.922471" style="fill: #1f77b4; fill-opacity: 0.8; stroke: #1f77b4; stroke-opacity: 0.8"/>
     <use xlink:href="#ma47ff1514a" x="247.08697" y="130.91244" style="fill: #1f77b4; fill-opacity: 0.8; stroke: #1f77b4; stroke-opacity: 0.8"/>
     <use xlink:href="#ma47ff1514a" x="158.29303" y="216.511845" style="fill: #1f77b4; fill-opacity: 0.8; stroke: #1f77b4; stroke-opacity: 0.8"/>
     <use xlink:href="#ma47ff1514a" x="276.684949" y="208.487923" style="fill: #1f77b4; fill-opacity: 0.8; stroke: #1f77b4; stroke-opacity: 0.8"/>
     <use xlink:href="#ma47ff1514a" x="69.499091" y="224.959957" style="fill: #1f77b4; fill-opacity: 0.8; stroke: #1f77b4; stroke-opacity: 0.8"/>
     <use xlink:href="#ma47ff1514a" x="335.880909" y="253.991495" style="fill: #1f77b4; fill-opacity: 0.8; stroke: #1f77b4; stroke-opacity: 0.8"/>
     <use xlink:href="#ma47ff1514a" x="99.097071" y="115.703028" style="fill: #1f77b4; fill-opacity: 0.8; stroke: #1f77b4; stroke-opacity: 0.8"/>
     <use xlink:href="#ma47ff1514a" x="306.282929" y="141.23755" style="fill: #1f77b4; fill-opacity: 0.8; stroke: #1f77b4; stroke-opacity: 0.8"/>
     <use xlink:href="#ma47ff1514a" x="276.684949" y="240.335696" style="fill: #1f77b4; fill-opacity: 0.8; stroke: #1f77b4; stroke-opacity: 0.8"/>
     <use xlink:href="#ma47ff1514a" x="158.29303" y="156.620208" style="fill: #1f77b4; fill-opacity: 0.8; stroke: #1f77b4; stroke-opacity: 0.8"/>
     <use xlink:href="#ma47ff1514a" x="276.684949" y="208.75435" style="fill: #1f77b4; fill-opacity: 0.8; stroke: #1f77b4; stroke-opacity: 0.8"/>
     <use xlink:href="#ma47ff1514a" x="128.695051" y="149.715288" style="fill: #1f77b4; fill-opacity: 0.8; stroke: #1f77b4; stroke-opacity: 0.8"/>
     <use xlink:href="#ma47ff1514a" x="335.880909" y="248.436776" style="fill: #1f77b4; fill-opacity: 0.8; stroke: #1f77b4; stroke-opacity: 0.8"/>
     <use xlink:href="#ma47ff1514a" x="99.097071" y="301.458564" style="fill: #1f77b4; fill-opacity: 0.8; stroke: #1f77b4; stroke-opacity: 0.8"/>
     <use xlink:href="#ma47ff1514a" x="306.282929" y="254.607915" style="fill: #1f77b4; fill-opacity: 0.8; stroke: #1f77b4; stroke-opacity: 0.8"/>
     <use xlink:href="#ma47ff1514a" x="276.684949" y="186.291398" style="fill: #1f77b4; fill-opacity: 0.8; stroke: #1f77b4; stroke-opacity: 0.8"/>
     <use xlink:href="#ma47ff1514a" x="247.08697" y="201.480697" style="fill: #1f77b4; fill-opacity: 0.8; stroke: #1f77b4; stroke-opacity: 0.8"/>
     <use xlink:href="#ma47ff1514a" x="158.29303" y="217.138032" style="fill: #1f77b4; fill-opacity: 0.8; stroke: #1f77b4; stroke-opacity: 0.8"/>
     <use xlink:href="#ma47ff1514a" x="128.695051" y="231.83675" style="fill: #1f77b4; fill-opacity: 0.8; stroke: #1f77b4; stroke-opacity: 0.8"/>
     <use xlink:href="#ma47ff1514a" x="335.880909" y="254.16536" style="fill: #1f77b4; fill-opacity: 0.8; stroke: #1f77b4; stroke-opacity: 0.8"/>
     <use xlink:href="#ma47ff1514a" x="187.89101" y="98.436128" style="fill: #1f77b4; fill-opacity: 0.8; stroke: #1f77b4; stroke-opacity: 0.8"/>
     <use xlink:href="#ma47ff1514a" x="128.695051" y="225.455893" style="fill: #1f77b4; fill-opacity: 0.8; stroke: #1f77b4; stroke-opacity: 0.8"/>
     <use xlink:href="#ma47ff1514a" x="69.499091" y="28.539055" style="fill: #1f77b4; fill-opacity: 0.8; stroke: #1f77b4; stroke-opacity: 0.8"/>
     <use xlink:href="#ma47ff1514a" x="128.695051" y="194.259821" style="fill: #1f77b4; fill-opacity: 0.8; stroke: #1f77b4; stroke-opacity: 0.8"/>
     <use xlink:href="#ma47ff1514a" x="335.880909" y="191.583082" style="fill: #1f77b4; fill-opacity: 0.8; stroke: #1f77b4; stroke-opacity: 0.8"/>
     <use xlink:href="#ma47ff1514a" x="217.48899" y="132.487945" style="fill: #1f77b4; fill-opacity: 0.8; stroke: #1f77b4; stroke-opacity: 0.8"/>
     <use xlink:href="#ma47ff1514a" x="247.08697" y="198.420724" style="fill: #1f77b4; fill-opacity: 0.8; stroke: #1f77b4; stroke-opacity: 0.8"/>
     <use xlink:href="#ma47ff1514a" x="335.880909" y="181.435025" style="fill: #1f77b4; fill-opacity: 0.8; stroke: #1f77b4; stroke-opacity: 0.8"/>
     <use xlink:href="#ma47ff1514a" x="158.29303" y="304.157812" style="fill: #1f77b4; fill-opacity: 0.8; stroke: #1f77b4; stroke-opacity: 0.8"/>
     <use xlink:href="#ma47ff1514a" x="217.48899" y="136.471968" style="fill: #1f77b4; fill-opacity: 0.8; stroke: #1f77b4; stroke-opacity: 0.8"/>
     <use xlink:href="#ma47ff1514a" x="99.097071" y="217.049175" style="fill: #1f77b4; fill-opacity: 0.8; stroke: #1f77b4; stroke-opacity: 0.8"/>
     <use xlink:href="#ma47ff1514a" x="128.695051" y="175.318703" style="fill: #1f77b4; fill-opacity: 0.8; stroke: #1f77b4; stroke-opacity: 0.8"/>
     <use xlink:href="#ma47ff1514a" x="69.499091" y="215.99475" style="fill: #1f77b4; fill-opacity: 0.8; stroke: #1f77b4; stroke-opacity: 0.8"/>
     <use xlink:href="#ma47ff1514a" x="306.282929" y="202.093579" style="fill: #1f77b4; fill-opacity: 0.8; stroke: #1f77b4; stroke-opacity: 0.8"/>
     <use xlink:href="#ma47ff1514a" x="69.499091" y="168.812153" style="fill: #1f77b4; fill-opacity: 0.8; stroke: #1f77b4; stroke-opacity: 0.8"/>
     <use xlink:href="#ma47ff1514a" x="99.097071" y="189.312059" style="fill: #1f77b4; fill-opacity: 0.8; stroke: #1f77b4; stroke-opacity: 0.8"/>
     <use xlink:href="#ma47ff1514a" x="187.89101" y="168.973004" style="fill: #1f77b4; fill-opacity: 0.8; stroke: #1f77b4; stroke-opacity: 0.8"/>
     <use xlink:href="#ma47ff1514a" x="306.282929" y="209.108072" style="fill: #1f77b4; fill-opacity: 0.8; stroke: #1f77b4; stroke-opacity: 0.8"/>
     <use xlink:href="#ma47ff1514a" x="247.08697" y="161.57326" style="fill: #1f77b4; fill-opacity: 0.8; stroke: #1f77b4; stroke-opacity: 0.8"/>
     <use xlink:href="#ma47ff1514a" x="99.097071" y="135.986632" style="fill: #1f77b4; fill-opacity: 0.8; stroke: #1f77b4; stroke-opacity: 0.8"/>
     <use xlink:href="#ma47ff1514a" x="158.29303" y="143.08337" style="fill: #1f77b4; fill-opacity: 0.8; stroke: #1f77b4; stroke-opacity: 0.8"/>
     <use xlink:href="#ma47ff1514a" x="99.097071" y="174.843999" style="fill: #1f77b4; fill-opacity: 0.8; stroke: #1f77b4; stroke-opacity: 0.8"/>
     <use xlink:href="#ma47ff1514a" x="217.48899" y="173.858228" style="fill: #1f77b4; fill-opacity: 0.8; stroke: #1f77b4; stroke-opacity: 0.8"/>
     <use xlink:href="#ma47ff1514a" x="247.08697" y="178.590691" style="fill: #1f77b4; fill-opacity: 0.8; stroke: #1f77b4; stroke-opacity: 0.8"/>
    </g>
   </g>
   <g id="PolyCollection_1">
    <path d="M 69.499091 141.456546 
L 69.499091 204.386238 
L 72.189816 204.307504 
L 74.880542 204.226167 
L 77.571267 204.144524 
L 80.261993 203.961736 
L 82.952718 203.775947 
L 85.643444 203.65948 
L 88.334169 203.642459 
L 91.024894 203.531226 
L 93.71562 203.371141 
L 96.406345 203.210823 
L 99.097071 203.049096 
L 101.787796 202.902501 
L 104.478522 203.001097 
L 107.169247 203.104856 
L 109.859972 203.197907 
L 112.550698 203.116224 
L 115.241423 203.018886 
L 117.932149 202.872205 
L 120.622874 202.823495 
L 123.3136 202.72687 
L 126.004325 202.72572 
L 128.695051 202.742051 
L 131.385776 202.802757 
L 134.076501 202.711417 
L 136.767227 202.611674 
L 139.457952 202.445939 
L 142.148678 202.415764 
L 144.839403 202.356673 
L 147.530129 202.455647 
L 150.220854 202.419844 
L 152.911579 202.403945 
L 155.602305 202.275537 
L 158.29303 202.215832 
L 160.983756 202.338712 
L 163.674481 202.39252 
L 166.365207 202.373537 
L 169.055932 202.127577 
L 171.746657 202.154316 
L 174.437383 202.057536 
L 177.128108 201.95599 
L 179.818834 202.104498 
L 182.509559 202.2746 
L 185.200285 202.439451 
L 187.89101 202.599427 
L 190.581736 202.643672 
L 193.272461 202.70936 
L 195.963186 202.926304 
L 198.653912 203.005492 
L 201.344637 203.103628 
L 204.035363 203.272952 
L 206.726088 203.600785 
L 209.416814 203.744283 
L 212.107539 203.693532 
L 214.798264 203.631489 
L 217.48899 203.738668 
L 220.179715 203.984601 
L 222.870441 204.238834 
L 225.561166 204.489885 
L 228.251892 204.896774 
L 230.942617 205.192434 
L 233.633343 205.227199 
L 236.324068 205.472971 
L 239.014793 205.720198 
L 241.705519 205.970379 
L 244.396244 206.176835 
L 247.08697 206.494057 
L 249.777695 206.824732 
L 252.468421 207.326122 
L 255.159146 207.678217 
L 257.849871 207.871893 
L 260.540597 208.298587 
L 263.231322 208.83954 
L 265.922048 209.435922 
L 268.612773 209.656947 
L 271.303499 210.407139 
L 273.994224 211.146887 
L 276.684949 211.722063 
L 279.375675 212.293211 
L 282.0664 212.8596 
L 284.757126 213.19835 
L 287.447851 213.681739 
L 290.138577 214.156401 
L 292.829302 214.930084 
L 295.520028 215.417478 
L 298.210753 216.114167 
L 300.901478 216.657677 
L 303.592204 217.26205 
L 306.282929 217.993597 
L 308.973655 218.621245 
L 311.66438 219.315146 
L 314.355106 220.096176 
L 317.045831 220.877206 
L 319.736556 221.655983 
L 322.427282 222.398051 
L 325.118007 222.89912 
L 327.808733 223.413025 
L 330.499458 224.095564 
L 333.190184 224.920249 
L 335.880909 225.727293 
L 335.880909 182.100476 
L 335.880909 182.100476 
L 333.190184 181.88867 
L 330.499458 182.046341 
L 327.808733 182.320705 
L 325.118007 182.455506 
L 322.427282 182.401232 
L 319.736556 182.258338 
L 317.045831 182.622254 
L 314.355106 182.728567 
L 311.66438 182.796832 
L 308.973655 182.814732 
L 306.282929 182.570409 
L 303.592204 182.456664 
L 300.901478 182.470656 
L 298.210753 182.63793 
L 295.520028 182.641173 
L 292.829302 182.520996 
L 290.138577 182.566169 
L 287.447851 182.352874 
L 284.757126 182.181339 
L 282.0664 182.148578 
L 279.375675 182.302818 
L 276.684949 182.416824 
L 273.994224 182.552433 
L 271.303499 182.729879 
L 268.612773 182.619774 
L 265.922048 182.254808 
L 263.231322 182.21259 
L 260.540597 182.173944 
L 257.849871 181.80419 
L 255.159146 181.441309 
L 252.468421 181.072685 
L 249.777695 180.986513 
L 247.08697 180.948894 
L 244.396244 180.769657 
L 241.705519 180.54759 
L 239.014793 180.485972 
L 236.324068 180.425575 
L 233.633343 180.044178 
L 230.942617 179.675391 
L 228.251892 179.501057 
L 225.561166 179.26635 
L 222.870441 178.946398 
L 220.179715 178.555442 
L 217.48899 177.845046 
L 214.798264 177.30842 
L 212.107539 177.073553 
L 209.416814 176.534756 
L 206.726088 175.847769 
L 204.035363 175.372588 
L 201.344637 174.794051 
L 198.653912 174.336881 
L 195.963186 173.878493 
L 193.272461 173.428603 
L 190.581736 172.728043 
L 187.89101 172.267857 
L 185.200285 171.58314 
L 182.509559 170.926754 
L 179.818834 170.215666 
L 177.128108 169.578307 
L 174.437383 169.011795 
L 171.746657 168.409072 
L 169.055932 167.879394 
L 166.365207 167.233057 
L 163.674481 166.646603 
L 160.983756 166.064316 
L 158.29303 165.293313 
L 155.602305 164.514571 
L 152.911579 163.897468 
L 150.220854 163.22849 
L 147.530129 162.363429 
L 144.839403 161.607891 
L 142.148678 161.056021 
L 139.457952 160.30296 
L 136.767227 159.705481 
L 134.076501 159.061969 
L 131.385776 158.305894 
L 128.695051 157.744674 
L 126.004325 157.040186 
L 123.3136 156.279813 
L 120.622874 155.633007 
L 117.932149 154.9286 
L 115.241423 154.225125 
L 112.550698 153.52165 
L 109.859972 152.818176 
L 107.169247 152.114701 
L 104.478522 151.416478 
L 101.787796 150.719746 
L 99.097071 150.045413 
L 96.406345 149.298458 
L 93.71562 148.592277 
L 91.024894 147.800129 
L 88.334169 147.029426 
L 85.643444 146.284301 
L 82.952718 145.596261 
L 80.261993 144.809333 
L 77.571267 143.947229 
L 74.880542 143.061735 
L 72.189816 142.241029 
L 69.499091 141.456546 
z
" clip-path="url(#pebea1b6787)" style="fill: #1f77b4; fill-opacity: 0.15"/>
   </g>
   <g id="matplotlib.axis_1">
    <g id="xtick_1">
     <g id="line2d_1">
      <defs>
       <path id="m7249b6e5f7" d="M 0 0 
L 0 3.5 
" style="stroke: #000000; stroke-width: 0.8"/>
      </defs>
      <g>
       <use xlink:href="#m7249b6e5f7" x="85.204141" y="317.93875" style="stroke: #000000; stroke-width: 0.8"/>
      </g>
     </g>
     <g id="text_1">
      <text style="font: 10px 'sans-serif'; text-anchor: middle" x="85.204141" y="332.537188" transform="rotate(-0, 85.204141, 332.537188)">−4</text>
     </g>
    </g>
    <g id="xtick_2">
     <g id="line2d_2">
      <g>
       <use xlink:href="#m7249b6e5f7" x="144.400101" y="317.93875" style="stroke: #000000; stroke-width: 0.8"/>
      </g>
     </g>
     <g id="text_2">
      <text style="font: 10px 'sans-serif'; text-anchor: middle" x="144.400101" y="332.537188" transform="rotate(-0, 144.400101, 332.537188)">−2</text>
     </g>
    </g>
    <g id="xtick_3">
     <g id="line2d_3">
      <g>
       <use xlink:href="#m7249b6e5f7" x="203.596061" y="317.93875" style="stroke: #000000; stroke-width: 0.8"/>
      </g>
     </g>
     <g id="text_3">
      <text style="font: 10px 'sans-serif'; text-anchor: middle" x="203.596061" y="332.537188" transform="rotate(-0, 203.596061, 332.537188)">0</text>
     </g>
    </g>
    <g id="xtick_4">
     <g id="line2d_4">
      <g>
       <use xlink:href="#m7249b6e5f7" x="262.79202" y="317.93875" style="stroke: #000000; stroke-width: 0.8"/>
      </g>
     </g>
     <g id="text_4">
      <text style="font: 10px 'sans-serif'; text-anchor: middle" x="262.79202" y="332.537188" transform="rotate(-0, 262.79202, 332.537188)">2</text>
     </g>
    </g>
    <g id="xtick_5">
     <g id="line2d_5">
      <g>
       <use xlink:href="#m7249b6e5f7" x="321.98798" y="317.93875" style="stroke: #000000; stroke-width: 0.8"/>
      </g>
     </g>
     <g id="text_5">
      <text style="font: 10px 'sans-serif'; text-anchor: middle" x="321.98798" y="332.537188" transform="rotate(-0, 321.98798, 332.537188)">4</text>
     </g>
    </g>
    <g id="text_6">
     <text style="font: 10px 'sans-serif'; text-anchor: middle" x="202.69" y="346.215312" transform="rotate(-0, 202.69, 346.215312)">Composite_Reward</text>
    </g>
   </g>
   <g id="matplotlib.axis_2">
    <g id="ytick_1">
     <g id="line2d_6">
      <defs>
       <path id="m22c1b67fbe" d="M 0 0 
L -3.5 0 
" style="stroke: #000000; stroke-width: 0.8"/>
      </defs>
      <g>
       <use xlink:href="#m22c1b67fbe" x="56.18" y="302.945805" style="stroke: #000000; stroke-width: 0.8"/>
      </g>
     </g>
     <g id="text_7">
      <text style="font: 10px 'sans-serif'; text-anchor: end" x="49.18" y="306.745024" transform="rotate(-0, 49.18, 306.745024)">−0.3</text>
     </g>
    </g>
    <g id="ytick_2">
     <g id="line2d_7">
      <g>
       <use xlink:href="#m22c1b67fbe" x="56.18" y="266.92258" style="stroke: #000000; stroke-width: 0.8"/>
      </g>
     </g>
     <g id="text_8">
      <text style="font: 10px 'sans-serif'; text-anchor: end" x="49.18" y="270.721798" transform="rotate(-0, 49.18, 270.721798)">−0.2</text>
     </g>
    </g>
    <g id="ytick_3">
     <g id="line2d_8">
      <g>
       <use xlink:href="#m22c1b67fbe" x="56.18" y="230.899354" style="stroke: #000000; stroke-width: 0.8"/>
      </g>
     </g>
     <g id="text_9">
      <text style="font: 10px 'sans-serif'; text-anchor: end" x="49.18" y="234.698573" transform="rotate(-0, 49.18, 234.698573)">−0.1</text>
     </g>
    </g>
    <g id="ytick_4">
     <g id="line2d_9">
      <g>
       <use xlink:href="#m22c1b67fbe" x="56.18" y="194.876128" style="stroke: #000000; stroke-width: 0.8"/>
      </g>
     </g>
     <g id="text_10">
      <text style="font: 10px 'sans-serif'; text-anchor: end" x="49.18" y="198.675347" transform="rotate(-0, 49.18, 198.675347)">0.0</text>
     </g>
    </g>
    <g id="ytick_5">
     <g id="line2d_10">
      <g>
       <use xlink:href="#m22c1b67fbe" x="56.18" y="158.852903" style="stroke: #000000; stroke-width: 0.8"/>
      </g>
     </g>
     <g id="text_11">
      <text style="font: 10px 'sans-serif'; text-anchor: end" x="49.18" y="162.652121" transform="rotate(-0, 49.18, 162.652121)">0.1</text>
     </g>
    </g>
    <g id="ytick_6">
     <g id="line2d_11">
      <g>
       <use xlink:href="#m22c1b67fbe" x="56.18" y="122.829677" style="stroke: #000000; stroke-width: 0.8"/>
      </g>
     </g>
     <g id="text_12">
      <text style="font: 10px 'sans-serif'; text-anchor: end" x="49.18" y="126.628896" transform="rotate(-0, 49.18, 126.628896)">0.2</text>
     </g>
    </g>
    <g id="ytick_7">
     <g id="line2d_12">
      <g>
       <use xlink:href="#m22c1b67fbe" x="56.18" y="86.806451" style="stroke: #000000; stroke-width: 0.8"/>
      </g>
     </g>
     <g id="text_13">
      <text style="font: 10px 'sans-serif'; text-anchor: end" x="49.18" y="90.60567" transform="rotate(-0, 49.18, 90.60567)">0.3</text>
     </g>
    </g>
    <g id="ytick_8">
     <g id="line2d_13">
      <g>
       <use xlink:href="#m22c1b67fbe" x="56.18" y="50.783226" style="stroke: #000000; stroke-width: 0.8"/>
      </g>
     </g>
     <g id="text_14">
      <text style="font: 10px 'sans-serif'; text-anchor: end" x="49.18" y="54.582444" transform="rotate(-0, 49.18, 54.582444)">0.4</text>
     </g>
    </g>
    <g id="ytick_9">
     <g id="line2d_14">
      <g>
       <use xlink:href="#m22c1b67fbe" x="56.18" y="14.76" style="stroke: #000000; stroke-width: 0.8"/>
      </g>
     </g>
     <g id="text_15">
      <text style="font: 10px 'sans-serif'; text-anchor: end" x="49.18" y="18.559219" transform="rotate(-0, 49.18, 18.559219)">0.5</text>
     </g>
    </g>
    <g id="text_16">
     <text style="font: 10px 'sans-serif'; text-anchor: middle" x="18.8175" y="166.348434" transform="rotate(-90, 18.8175, 166.348434)">Conn LG-SG</text>
    </g>
   </g>
   <g id="line2d_15">
    <path d="M 69.499091 174.131295 
L 72.189816 174.44083 
L 74.880542 174.750366 
L 77.571267 175.059901 
L 80.261993 175.369437 
L 82.952718 175.678972 
L 85.643444 175.988508 
L 88.334169 176.298043 
L 91.024894 176.607579 
L 93.71562 176.917114 
L 96.406345 177.22665 
L 99.097071 177.536185 
L 101.787796 177.845721 
L 104.478522 178.155256 
L 107.169247 178.464792 
L 109.859972 178.774327 
L 112.550698 179.083863 
L 115.241423 179.393398 
L 117.932149 179.702934 
L 120.622874 180.012469 
L 123.3136 180.322005 
L 126.004325 180.63154 
L 128.695051 180.941076 
L 131.385776 181.250612 
L 134.076501 181.560147 
L 136.767227 181.869683 
L 139.457952 182.179218 
L 142.148678 182.488754 
L 144.839403 182.798289 
L 147.530129 183.107825 
L 150.220854 183.41736 
L 152.911579 183.726896 
L 155.602305 184.036431 
L 158.29303 184.345967 
L 160.983756 184.655502 
L 163.674481 184.965038 
L 166.365207 185.274573 
L 169.055932 185.584109 
L 171.746657 185.893644 
L 174.437383 186.20318 
L 177.128108 186.512715 
L 179.818834 186.822251 
L 182.509559 187.131786 
L 185.200285 187.441322 
L 187.89101 187.750857 
L 190.581736 188.060393 
L 193.272461 188.369928 
L 195.963186 188.679464 
L 198.653912 188.988999 
L 201.344637 189.298535 
L 204.035363 189.60807 
L 206.726088 189.917606 
L 209.416814 190.227141 
L 212.107539 190.536677 
L 214.798264 190.846212 
L 217.48899 191.155748 
L 220.179715 191.465283 
L 222.870441 191.774819 
L 225.561166 192.084354 
L 228.251892 192.39389 
L 230.942617 192.703425 
L 233.633343 193.012961 
L 236.324068 193.322496 
L 239.014793 193.632032 
L 241.705519 193.941567 
L 244.396244 194.251103 
L 247.08697 194.560638 
L 249.777695 194.870174 
L 252.468421 195.179709 
L 255.159146 195.489245 
L 257.849871 195.79878 
L 260.540597 196.108316 
L 263.231322 196.417851 
L 265.922048 196.727387 
L 268.612773 197.036922 
L 271.303499 197.346458 
L 273.994224 197.655994 
L 276.684949 197.965529 
L 279.375675 198.275065 
L 282.0664 198.5846 
L 284.757126 198.894136 
L 287.447851 199.203671 
L 290.138577 199.513207 
L 292.829302 199.822742 
L 295.520028 200.132278 
L 298.210753 200.441813 
L 300.901478 200.751349 
L 303.592204 201.060884 
L 306.282929 201.37042 
L 308.973655 201.679955 
L 311.66438 201.989491 
L 314.355106 202.299026 
L 317.045831 202.608562 
L 319.736556 202.918097 
L 322.427282 203.227633 
L 325.118007 203.537168 
L 327.808733 203.846704 
L 330.499458 204.156239 
L 333.190184 204.465775 
L 335.880909 204.77531 
" clip-path="url(#pebea1b6787)" style="fill: none; stroke: #1f77b4; stroke-width: 2.25; stroke-linecap: square"/>
   </g>
   <g id="patch_3">
    <path d="M 56.18 317.93875 
L 56.18 14.758117 
" style="fill: none; stroke: #000000; stroke-width: 0.8; stroke-linejoin: miter; stroke-linecap: square"/>
   </g>
   <g id="patch_4">
    <path d="M 56.18 317.93875 
L 349.2 317.93875 
" style="fill: none; stroke: #000000; stroke-width: 0.8; stroke-linejoin: miter; stroke-linecap: square"/>
   </g>
  </g>
 </g>
 <defs>
  <clipPath id="pebea1b6787">
   <rect x="56.18" y="14.758117" width="293.02" height="303.180633"/>
  </clipPath>
 </defs>
</svg>
